<?xml version="1.0" encoding="UTF-8"?>
<svg xmlns="http://www.w3.org/2000/svg" xmlns:xlink="http://www.w3.org/1999/xlink" width="504" height="360" viewBox="0 0 504 360">
<defs>
<clipPath id="clip-0">
<path clip-rule="nonzero" d="M 29.753906 0 L 504 0 L 504 347.1875 L 29.753906 347.1875 Z M 29.753906 0 "/>
</clipPath>
<clipPath id="clip-1">
<path clip-rule="nonzero" d="M 29.753906 291 L 504 291 L 504 293 L 29.753906 293 Z M 29.753906 291 "/>
</clipPath>
<clipPath id="clip-2">
<path clip-rule="nonzero" d="M 29.753906 212 L 504 212 L 504 213 L 29.753906 213 Z M 29.753906 212 "/>
</clipPath>
<clipPath id="clip-3">
<path clip-rule="nonzero" d="M 29.753906 133 L 504 133 L 504 134 L 29.753906 134 Z M 29.753906 133 "/>
</clipPath>
<clipPath id="clip-4">
<path clip-rule="nonzero" d="M 29.753906 54 L 504 54 L 504 55 L 29.753906 55 Z M 29.753906 54 "/>
</clipPath>
<clipPath id="clip-5">
<path clip-rule="nonzero" d="M 104 0 L 106 0 L 106 347.1875 L 104 347.1875 Z M 104 0 "/>
</clipPath>
<clipPath id="clip-6">
<path clip-rule="nonzero" d="M 212 0 L 214 0 L 214 347.1875 L 212 347.1875 Z M 212 0 "/>
</clipPath>
<clipPath id="clip-7">
<path clip-rule="nonzero" d="M 320 0 L 322 0 L 322 347.1875 L 320 347.1875 Z M 320 0 "/>
</clipPath>
<clipPath id="clip-8">
<path clip-rule="nonzero" d="M 428 0 L 429 0 L 429 347.1875 L 428 347.1875 Z M 428 0 "/>
</clipPath>
<clipPath id="clip-9">
<path clip-rule="nonzero" d="M 29.753906 330 L 504 330 L 504 332 L 29.753906 332 Z M 29.753906 330 "/>
</clipPath>
<clipPath id="clip-10">
<path clip-rule="nonzero" d="M 29.753906 251 L 504 251 L 504 253 L 29.753906 253 Z M 29.753906 251 "/>
</clipPath>
<clipPath id="clip-11">
<path clip-rule="nonzero" d="M 29.753906 172 L 504 172 L 504 174 L 29.753906 174 Z M 29.753906 172 "/>
</clipPath>
<clipPath id="clip-12">
<path clip-rule="nonzero" d="M 29.753906 93 L 504 93 L 504 95 L 29.753906 95 Z M 29.753906 93 "/>
</clipPath>
<clipPath id="clip-13">
<path clip-rule="nonzero" d="M 29.753906 14 L 504 14 L 504 16 L 29.753906 16 Z M 29.753906 14 "/>
</clipPath>
<clipPath id="clip-14">
<path clip-rule="nonzero" d="M 50 0 L 52 0 L 52 347.1875 L 50 347.1875 Z M 50 0 "/>
</clipPath>
<clipPath id="clip-15">
<path clip-rule="nonzero" d="M 158 0 L 160 0 L 160 347.1875 L 158 347.1875 Z M 158 0 "/>
</clipPath>
<clipPath id="clip-16">
<path clip-rule="nonzero" d="M 266 0 L 268 0 L 268 347.1875 L 266 347.1875 Z M 266 0 "/>
</clipPath>
<clipPath id="clip-17">
<path clip-rule="nonzero" d="M 374 0 L 376 0 L 376 347.1875 L 374 347.1875 Z M 374 0 "/>
</clipPath>
<clipPath id="clip-18">
<path clip-rule="nonzero" d="M 481 0 L 483 0 L 483 347.1875 L 481 347.1875 Z M 481 0 "/>
</clipPath>
</defs>
<rect x="-50.4" y="-36" width="604.8" height="432" fill="rgb(100%, 100%, 100%)" fill-opacity="1"/>
<rect x="-50.4" y="-36" width="604.8" height="432" fill="rgb(100%, 100%, 100%)" fill-opacity="1"/>
<path fill="none" stroke-width="2.133957" stroke-linecap="round" stroke-linejoin="round" stroke="rgb(0%, 0%, 0%)" stroke-opacity="1" stroke-miterlimit="10" d="M 0 360 L 504 360 L 504 0 L 0 0 Z M 0 360 "/>
<g clip-path="url(#clip-0)">
<path fill-rule="nonzero" fill="rgb(92.156863%, 92.156863%, 92.156863%)" fill-opacity="1" d="M 29.753906 347.1875 L 504 347.1875 L 504 0 L 29.753906 0 Z M 29.753906 347.1875 "/>
</g>
<g clip-path="url(#clip-1)">
<path fill="none" stroke-width="0.533489" stroke-linecap="butt" stroke-linejoin="round" stroke="rgb(100%, 100%, 100%)" stroke-opacity="1" stroke-miterlimit="10" d="M 29.753906 291.847656 L 504 291.847656 "/>
</g>
<g clip-path="url(#clip-2)">
<path fill="none" stroke-width="0.533489" stroke-linecap="butt" stroke-linejoin="round" stroke="rgb(100%, 100%, 100%)" stroke-opacity="1" stroke-miterlimit="10" d="M 29.753906 212.734375 L 504 212.734375 "/>
</g>
<g clip-path="url(#clip-3)">
<path fill="none" stroke-width="0.533489" stroke-linecap="butt" stroke-linejoin="round" stroke="rgb(100%, 100%, 100%)" stroke-opacity="1" stroke-miterlimit="10" d="M 29.753906 133.617188 L 504 133.617188 "/>
</g>
<g clip-path="url(#clip-4)">
<path fill="none" stroke-width="0.533489" stroke-linecap="butt" stroke-linejoin="round" stroke="rgb(100%, 100%, 100%)" stroke-opacity="1" stroke-miterlimit="10" d="M 29.753906 54.503906 L 504 54.503906 "/>
</g>
<g clip-path="url(#clip-5)">
<path fill="none" stroke-width="0.533489" stroke-linecap="butt" stroke-linejoin="round" stroke="rgb(100%, 100%, 100%)" stroke-opacity="1" stroke-miterlimit="10" d="M 105.203125 347.1875 L 105.203125 0 "/>
</g>
<g clip-path="url(#clip-6)">
<path fill="none" stroke-width="0.533489" stroke-linecap="butt" stroke-linejoin="round" stroke="rgb(100%, 100%, 100%)" stroke-opacity="1" stroke-miterlimit="10" d="M 212.984375 347.1875 L 212.984375 0 "/>
</g>
<g clip-path="url(#clip-7)">
<path fill="none" stroke-width="0.533489" stroke-linecap="butt" stroke-linejoin="round" stroke="rgb(100%, 100%, 100%)" stroke-opacity="1" stroke-miterlimit="10" d="M 320.769531 347.1875 L 320.769531 0 "/>
</g>
<g clip-path="url(#clip-8)">
<path fill="none" stroke-width="0.533489" stroke-linecap="butt" stroke-linejoin="round" stroke="rgb(100%, 100%, 100%)" stroke-opacity="1" stroke-miterlimit="10" d="M 428.550781 347.1875 L 428.550781 0 "/>
</g>
<g clip-path="url(#clip-9)">
<path fill="none" stroke-width="1.066978" stroke-linecap="butt" stroke-linejoin="round" stroke="rgb(100%, 100%, 100%)" stroke-opacity="1" stroke-miterlimit="10" d="M 29.753906 331.40625 L 504 331.40625 "/>
</g>
<g clip-path="url(#clip-10)">
<path fill="none" stroke-width="1.066978" stroke-linecap="butt" stroke-linejoin="round" stroke="rgb(100%, 100%, 100%)" stroke-opacity="1" stroke-miterlimit="10" d="M 29.753906 252.292969 L 504 252.292969 "/>
</g>
<g clip-path="url(#clip-11)">
<path fill="none" stroke-width="1.066978" stroke-linecap="butt" stroke-linejoin="round" stroke="rgb(100%, 100%, 100%)" stroke-opacity="1" stroke-miterlimit="10" d="M 29.753906 173.175781 L 504 173.175781 "/>
</g>
<g clip-path="url(#clip-12)">
<path fill="none" stroke-width="1.066978" stroke-linecap="butt" stroke-linejoin="round" stroke="rgb(100%, 100%, 100%)" stroke-opacity="1" stroke-miterlimit="10" d="M 29.753906 94.058594 L 504 94.058594 "/>
</g>
<g clip-path="url(#clip-13)">
<path fill="none" stroke-width="1.066978" stroke-linecap="butt" stroke-linejoin="round" stroke="rgb(100%, 100%, 100%)" stroke-opacity="1" stroke-miterlimit="10" d="M 29.753906 14.945312 L 504 14.945312 "/>
</g>
<g clip-path="url(#clip-14)">
<path fill="none" stroke-width="1.066978" stroke-linecap="butt" stroke-linejoin="round" stroke="rgb(100%, 100%, 100%)" stroke-opacity="1" stroke-miterlimit="10" d="M 51.3125 347.1875 L 51.3125 0 "/>
</g>
<g clip-path="url(#clip-15)">
<path fill="none" stroke-width="1.066978" stroke-linecap="butt" stroke-linejoin="round" stroke="rgb(100%, 100%, 100%)" stroke-opacity="1" stroke-miterlimit="10" d="M 159.09375 347.1875 L 159.09375 0 "/>
</g>
<g clip-path="url(#clip-16)">
<path fill="none" stroke-width="1.066978" stroke-linecap="butt" stroke-linejoin="round" stroke="rgb(100%, 100%, 100%)" stroke-opacity="1" stroke-miterlimit="10" d="M 266.878906 347.1875 L 266.878906 0 "/>
</g>
<g clip-path="url(#clip-17)">
<path fill="none" stroke-width="1.066978" stroke-linecap="butt" stroke-linejoin="round" stroke="rgb(100%, 100%, 100%)" stroke-opacity="1" stroke-miterlimit="10" d="M 374.660156 347.1875 L 374.660156 0 "/>
</g>
<g clip-path="url(#clip-18)">
<path fill="none" stroke-width="1.066978" stroke-linecap="butt" stroke-linejoin="round" stroke="rgb(100%, 100%, 100%)" stroke-opacity="1" stroke-miterlimit="10" d="M 482.445312 347.1875 L 482.445312 0 "/>
</g>
<path fill-rule="nonzero" fill="rgb(0%, 0%, 100%)" fill-opacity="0.101961" d="M 51.3125 331.300781 L 55.621094 331.261719 L 59.933594 331.207031 L 64.246094 331.136719 L 68.558594 331.046875 L 72.867188 330.921875 L 77.179688 330.761719 L 81.492188 330.554688 L 85.800781 330.289062 L 90.113281 329.953125 L 94.425781 329.519531 L 98.734375 328.976562 L 103.046875 328.300781 L 107.359375 327.457031 L 111.671875 326.417969 L 115.980469 325.144531 L 120.292969 323.597656 L 124.605469 321.730469 L 128.914062 319.492188 L 133.226562 316.832031 L 137.539062 313.6875 L 141.847656 310.007812 L 146.160156 305.726562 L 150.472656 300.785156 L 154.785156 295.125 L 159.09375 288.691406 L 163.40625 281.441406 L 167.71875 273.332031 L 172.027344 264.335938 L 176.339844 254.441406 L 180.652344 243.652344 L 184.960938 231.988281 L 189.273438 219.488281 L 193.585938 206.226562 L 197.894531 192.285156 L 202.207031 177.773438 L 206.519531 162.835938 L 210.832031 147.625 L 215.140625 132.316406 L 219.453125 117.109375 L 223.765625 102.214844 L 228.074219 87.847656 L 232.386719 74.230469 L 236.699219 61.585938 L 241.007812 50.125 L 245.320312 40.046875 L 249.632812 31.535156 L 253.945312 24.742188 L 258.253906 19.796875 L 262.566406 16.789062 L 266.878906 15.78125 L 271.1875 16.789062 L 275.5 19.796875 L 279.8125 24.742188 L 284.121094 31.535156 L 288.433594 40.046875 L 292.746094 50.125 L 297.058594 61.585938 L 301.367188 74.230469 L 305.679688 87.847656 L 309.992188 102.214844 L 314.300781 117.109375 L 318.613281 132.316406 L 322.925781 147.625 L 327.234375 162.835938 L 331.546875 177.773438 L 335.859375 192.285156 L 340.167969 206.226562 L 344.480469 219.488281 L 348.792969 231.988281 L 353.105469 243.652344 L 357.414062 254.441406 L 361.726562 264.335938 L 366.039062 273.332031 L 370.347656 281.441406 L 374.660156 288.691406 L 378.972656 295.125 L 383.28125 300.785156 L 387.59375 305.726562 L 391.90625 310.007812 L 396.21875 313.6875 L 400.527344 316.832031 L 404.839844 319.492188 L 409.152344 321.730469 L 413.460938 323.597656 L 417.773438 325.144531 L 422.085938 326.417969 L 426.394531 327.457031 L 430.707031 328.300781 L 435.019531 328.976562 L 439.332031 329.519531 L 443.640625 329.953125 L 447.953125 330.289062 L 452.265625 330.554688 L 456.574219 330.761719 L 460.886719 330.921875 L 465.199219 331.046875 L 469.507812 331.136719 L 473.820312 331.207031 L 478.132812 331.261719 L 482.445312 331.300781 L 482.445312 331.40625 L 51.3125 331.40625 Z M 51.3125 331.300781 "/>
<path fill="none" stroke-width="1.066978" stroke-linecap="butt" stroke-linejoin="round" stroke="rgb(0%, 0%, 0%)" stroke-opacity="1" stroke-miterlimit="10" d="M 51.3125 331.300781 L 55.621094 331.261719 L 59.933594 331.207031 L 64.246094 331.136719 L 68.558594 331.046875 L 72.867188 330.921875 L 77.179688 330.761719 L 81.492188 330.554688 L 85.800781 330.289062 L 90.113281 329.953125 L 94.425781 329.519531 L 98.734375 328.976562 L 103.046875 328.300781 L 107.359375 327.457031 L 111.671875 326.417969 L 115.980469 325.144531 L 120.292969 323.597656 L 124.605469 321.730469 L 128.914062 319.492188 L 133.226562 316.832031 L 137.539062 313.6875 L 141.847656 310.007812 L 146.160156 305.726562 L 150.472656 300.785156 L 154.785156 295.125 L 159.09375 288.691406 L 163.40625 281.441406 L 167.71875 273.332031 L 172.027344 264.335938 L 176.339844 254.441406 L 180.652344 243.652344 L 184.960938 231.988281 L 189.273438 219.488281 L 193.585938 206.226562 L 197.894531 192.285156 L 202.207031 177.773438 L 206.519531 162.835938 L 210.832031 147.625 L 215.140625 132.316406 L 219.453125 117.109375 L 223.765625 102.214844 L 228.074219 87.847656 L 232.386719 74.230469 L 236.699219 61.585938 L 241.007812 50.125 L 245.320312 40.046875 L 249.632812 31.535156 L 253.945312 24.742188 L 258.253906 19.796875 L 262.566406 16.789062 L 266.878906 15.78125 L 271.1875 16.789062 L 275.5 19.796875 L 279.8125 24.742188 L 284.121094 31.535156 L 288.433594 40.046875 L 292.746094 50.125 L 297.058594 61.585938 L 301.367188 74.230469 L 305.679688 87.847656 L 309.992188 102.214844 L 314.300781 117.109375 L 318.613281 132.316406 L 322.925781 147.625 L 327.234375 162.835938 L 331.546875 177.773438 L 335.859375 192.285156 L 340.167969 206.226562 L 344.480469 219.488281 L 348.792969 231.988281 L 353.105469 243.652344 L 357.414062 254.441406 L 361.726562 264.335938 L 366.039062 273.332031 L 370.347656 281.441406 L 374.660156 288.691406 L 378.972656 295.125 L 383.28125 300.785156 L 387.59375 305.726562 L 391.90625 310.007812 L 396.21875 313.6875 L 400.527344 316.832031 L 404.839844 319.492188 L 409.152344 321.730469 L 413.460938 323.597656 L 417.773438 325.144531 L 422.085938 326.417969 L 426.394531 327.457031 L 430.707031 328.300781 L 435.019531 328.976562 L 439.332031 329.519531 L 443.640625 329.953125 L 447.953125 330.289062 L 452.265625 330.554688 L 456.574219 330.761719 L 460.886719 330.921875 L 465.199219 331.046875 L 469.507812 331.136719 L 473.820312 331.207031 L 478.132812 331.261719 L 482.445312 331.300781 "/>
<path fill="none" stroke-width="1.066978" stroke-linecap="butt" stroke-linejoin="round" stroke="rgb(0%, 0%, 0%)" stroke-opacity="1" stroke-miterlimit="10" d="M 482.445312 331.40625 L 51.3125 331.40625 "/>
<path fill-rule="nonzero" fill="rgb(30.196078%, 30.196078%, 30.196078%)" fill-opacity="1" d="M 17.140625 331.40625 L 17.140625 331.578125 L 17.132812 331.742188 L 17.125 331.902344 L 17.113281 332.058594 L 17.097656 332.207031 L 17.082031 332.351562 L 17.058594 332.492188 L 17.035156 332.625 L 16.972656 332.875 L 16.9375 332.992188 L 16.902344 333.101562 L 16.863281 333.210938 L 16.824219 333.3125 L 16.777344 333.410156 L 16.730469 333.503906 L 16.683594 333.59375 L 16.632812 333.679688 L 16.578125 333.761719 L 16.523438 333.835938 L 16.464844 333.90625 L 16.40625 333.972656 L 16.34375 334.039062 L 16.277344 334.097656 L 16.144531 334.199219 L 16.074219 334.246094 L 16.003906 334.289062 L 15.929688 334.328125 L 15.773438 334.390625 L 15.695312 334.417969 L 15.613281 334.441406 L 15.535156 334.460938 L 15.453125 334.480469 L 15.367188 334.496094 L 15.285156 334.503906 L 15.113281 334.519531 L 14.9375 334.519531 L 14.765625 334.503906 L 14.683594 334.496094 L 14.597656 334.480469 L 14.515625 334.460938 L 14.4375 334.441406 L 14.355469 334.417969 L 14.277344 334.390625 L 14.203125 334.359375 L 14.125 334.328125 L 14.050781 334.289062 L 13.980469 334.246094 L 13.910156 334.199219 L 13.777344 334.097656 L 13.714844 334.039062 L 13.652344 333.972656 L 13.59375 333.90625 L 13.535156 333.835938 L 13.480469 333.761719 L 13.378906 333.597656 L 13.332031 333.507812 L 13.285156 333.414062 L 13.242188 333.316406 L 13.203125 333.214844 L 13.125 332.996094 L 13.09375 332.878906 L 13.0625 332.757812 L 13.035156 332.628906 L 13.011719 332.496094 L 12.992188 332.355469 L 12.972656 332.210938 L 12.960938 332.0625 L 12.949219 331.90625 L 12.941406 331.742188 L 12.9375 331.578125 L 12.933594 331.40625 L 12.9375 331.226562 L 12.941406 331.050781 L 12.949219 330.882812 L 12.960938 330.722656 L 12.972656 330.570312 L 12.992188 330.421875 L 13.011719 330.277344 L 13.035156 330.144531 L 13.0625 330.015625 L 13.09375 329.890625 L 13.125 329.773438 L 13.164062 329.660156 L 13.242188 329.449219 L 13.285156 329.351562 L 13.332031 329.257812 L 13.378906 329.171875 L 13.429688 329.085938 L 13.484375 329.007812 L 13.539062 328.933594 L 13.597656 328.863281 L 13.65625 328.800781 L 13.71875 328.738281 L 13.785156 328.683594 L 13.847656 328.632812 L 13.917969 328.582031 L 13.988281 328.539062 L 14.058594 328.5 L 14.132812 328.464844 L 14.210938 328.433594 L 14.289062 328.40625 L 14.367188 328.382812 L 14.449219 328.359375 L 14.53125 328.34375 L 14.613281 328.324219 L 14.785156 328.300781 L 14.871094 328.296875 L 14.960938 328.289062 L 15.136719 328.289062 L 15.222656 328.296875 L 15.308594 328.300781 L 15.472656 328.324219 L 15.554688 328.34375 L 15.632812 328.359375 L 15.789062 328.40625 L 15.863281 328.433594 L 15.941406 328.464844 L 16.011719 328.5 L 16.085938 328.539062 L 16.15625 328.582031 L 16.289062 328.683594 L 16.351562 328.738281 L 16.414062 328.800781 L 16.472656 328.863281 L 16.53125 328.933594 L 16.585938 329.007812 L 16.640625 329.085938 L 16.691406 329.171875 L 16.738281 329.257812 L 16.785156 329.351562 L 16.828125 329.449219 L 16.90625 329.660156 L 16.945312 329.773438 L 16.976562 329.890625 L 17.007812 330.015625 L 17.035156 330.144531 L 17.0625 330.277344 L 17.082031 330.421875 L 17.101562 330.570312 L 17.113281 330.722656 L 17.125 330.882812 L 17.132812 331.050781 L 17.140625 331.226562 Z M 16.355469 331.40625 L 16.351562 331.261719 L 16.351562 331.125 L 16.347656 330.992188 L 16.332031 330.742188 L 16.324219 330.625 L 16.300781 330.40625 L 16.285156 330.304688 L 16.269531 330.207031 L 16.230469 330.019531 L 16.210938 329.933594 L 16.1875 329.851562 L 16.160156 329.773438 L 16.136719 329.699219 L 16.109375 329.628906 L 16.078125 329.5625 L 16.046875 329.5 L 16.015625 329.441406 L 15.945312 329.332031 L 15.867188 329.238281 L 15.828125 329.195312 L 15.785156 329.15625 L 15.742188 329.121094 L 15.699219 329.089844 L 15.652344 329.0625 L 15.601562 329.035156 L 15.554688 329.015625 L 15.503906 328.992188 L 15.453125 328.976562 L 15.34375 328.945312 L 15.289062 328.9375 L 15.230469 328.925781 L 15.113281 328.917969 L 14.988281 328.917969 L 14.863281 328.925781 L 14.804688 328.9375 L 14.746094 328.945312 L 14.6875 328.960938 L 14.578125 328.992188 L 14.527344 329.015625 L 14.476562 329.035156 L 14.425781 329.0625 L 14.378906 329.09375 L 14.335938 329.125 L 14.289062 329.160156 L 14.246094 329.199219 L 14.207031 329.242188 L 14.164062 329.289062 L 14.128906 329.335938 L 14.089844 329.390625 L 14.054688 329.445312 L 14.023438 329.503906 L 13.992188 329.566406 L 13.960938 329.632812 L 13.933594 329.703125 L 13.910156 329.777344 L 13.882812 329.855469 L 13.859375 329.9375 L 13.820312 330.117188 L 13.800781 330.210938 L 13.785156 330.308594 L 13.769531 330.410156 L 13.746094 330.628906 L 13.738281 330.746094 L 13.730469 330.867188 L 13.722656 330.996094 L 13.71875 331.128906 L 13.71875 331.261719 L 13.714844 331.40625 L 13.71875 331.542969 L 13.71875 331.675781 L 13.722656 331.800781 L 13.730469 331.925781 L 13.738281 332.046875 L 13.746094 332.160156 L 13.757812 332.273438 L 13.769531 332.378906 L 13.785156 332.480469 L 13.800781 332.578125 L 13.820312 332.671875 L 13.839844 332.761719 L 13.863281 332.847656 L 13.886719 332.929688 L 13.910156 333.007812 L 13.964844 333.15625 L 13.996094 333.222656 L 14.058594 333.347656 L 14.09375 333.402344 L 14.132812 333.457031 L 14.167969 333.503906 L 14.210938 333.550781 L 14.25 333.59375 L 14.292969 333.636719 L 14.335938 333.671875 L 14.382812 333.707031 L 14.476562 333.761719 L 14.527344 333.789062 L 14.628906 333.828125 L 14.683594 333.84375 L 14.738281 333.855469 L 14.796875 333.867188 L 14.851562 333.878906 L 14.914062 333.882812 L 14.972656 333.886719 L 15.09375 333.886719 L 15.15625 333.882812 L 15.210938 333.878906 L 15.269531 333.867188 L 15.378906 333.84375 L 15.433594 333.828125 L 15.535156 333.789062 L 15.585938 333.761719 L 15.679688 333.707031 L 15.726562 333.671875 L 15.769531 333.636719 L 15.8125 333.59375 L 15.851562 333.550781 L 15.890625 333.503906 L 15.925781 333.457031 L 15.964844 333.402344 L 15.996094 333.347656 L 16.03125 333.285156 L 16.0625 333.222656 L 16.09375 333.15625 L 16.148438 333.007812 L 16.175781 332.929688 L 16.199219 332.847656 L 16.21875 332.761719 L 16.242188 332.671875 L 16.261719 332.578125 L 16.277344 332.480469 L 16.292969 332.378906 L 16.308594 332.273438 L 16.332031 332.046875 L 16.339844 331.925781 L 16.347656 331.800781 L 16.351562 331.675781 L 16.351562 331.542969 Z M 16.355469 331.40625 "/>
<path fill-rule="nonzero" fill="rgb(30.196078%, 30.196078%, 30.196078%)" fill-opacity="1" d="M 18.289062 334.433594 L 18.289062 333.492188 L 19.125 333.492188 L 19.125 334.433594 Z M 18.289062 334.433594 "/>
<path fill-rule="nonzero" fill="rgb(30.196078%, 30.196078%, 30.196078%)" fill-opacity="1" d="M 24.480469 331.40625 L 24.476562 331.578125 L 24.472656 331.742188 L 24.464844 331.902344 L 24.453125 332.058594 L 24.4375 332.207031 L 24.417969 332.351562 L 24.398438 332.492188 L 24.371094 332.625 L 24.34375 332.75 L 24.3125 332.875 L 24.277344 332.992188 L 24.242188 333.101562 L 24.203125 333.210938 L 24.160156 333.3125 L 24.117188 333.410156 L 24.070312 333.503906 L 24.023438 333.59375 L 23.972656 333.679688 L 23.917969 333.761719 L 23.859375 333.835938 L 23.804688 333.90625 L 23.679688 334.039062 L 23.617188 334.097656 L 23.484375 334.199219 L 23.414062 334.246094 L 23.339844 334.289062 L 23.265625 334.328125 L 23.191406 334.359375 L 23.113281 334.390625 L 23.035156 334.417969 L 22.953125 334.441406 L 22.875 334.460938 L 22.792969 334.480469 L 22.707031 334.496094 L 22.625 334.503906 L 22.453125 334.519531 L 22.277344 334.519531 L 22.019531 334.496094 L 21.9375 334.480469 L 21.855469 334.460938 L 21.777344 334.441406 L 21.695312 334.417969 L 21.617188 334.390625 L 21.539062 334.359375 L 21.464844 334.328125 L 21.390625 334.289062 L 21.320312 334.246094 L 21.25 334.199219 L 21.117188 334.097656 L 21.054688 334.039062 L 20.992188 333.972656 L 20.933594 333.90625 L 20.875 333.835938 L 20.820312 333.761719 L 20.71875 333.597656 L 20.667969 333.507812 L 20.625 333.414062 L 20.582031 333.316406 L 20.539062 333.214844 L 20.503906 333.105469 L 20.464844 332.996094 L 20.433594 332.878906 L 20.402344 332.757812 L 20.375 332.628906 L 20.351562 332.496094 L 20.332031 332.355469 L 20.3125 332.210938 L 20.296875 332.0625 L 20.289062 331.90625 L 20.273438 331.578125 L 20.273438 331.226562 L 20.28125 331.050781 L 20.289062 330.882812 L 20.296875 330.722656 L 20.3125 330.570312 L 20.332031 330.421875 L 20.351562 330.277344 L 20.375 330.144531 L 20.402344 330.015625 L 20.433594 329.890625 L 20.464844 329.773438 L 20.503906 329.660156 L 20.539062 329.554688 L 20.582031 329.449219 L 20.625 329.351562 L 20.671875 329.257812 L 20.71875 329.171875 L 20.769531 329.085938 L 20.824219 329.007812 L 20.878906 328.933594 L 20.9375 328.863281 L 20.996094 328.800781 L 21.058594 328.738281 L 21.121094 328.683594 L 21.1875 328.632812 L 21.257812 328.582031 L 21.328125 328.539062 L 21.398438 328.5 L 21.472656 328.464844 L 21.550781 328.433594 L 21.628906 328.40625 L 21.707031 328.382812 L 21.789062 328.359375 L 21.871094 328.34375 L 21.953125 328.324219 L 22.125 328.300781 L 22.210938 328.296875 L 22.300781 328.289062 L 22.476562 328.289062 L 22.5625 328.296875 L 22.648438 328.300781 L 22.8125 328.324219 L 22.890625 328.34375 L 22.972656 328.359375 L 23.128906 328.40625 L 23.203125 328.433594 L 23.277344 328.464844 L 23.351562 328.5 L 23.425781 328.539062 L 23.492188 328.582031 L 23.5625 328.632812 L 23.625 328.683594 L 23.691406 328.738281 L 23.753906 328.800781 L 23.8125 328.863281 L 23.871094 328.933594 L 23.925781 329.007812 L 23.976562 329.085938 L 24.078125 329.257812 L 24.125 329.351562 L 24.167969 329.449219 L 24.246094 329.660156 L 24.28125 329.773438 L 24.316406 329.890625 L 24.347656 330.015625 L 24.375 330.144531 L 24.398438 330.277344 L 24.421875 330.421875 L 24.4375 330.570312 L 24.453125 330.722656 L 24.464844 330.882812 L 24.472656 331.050781 L 24.476562 331.226562 Z M 23.695312 331.40625 L 23.691406 331.261719 L 23.691406 331.125 L 23.6875 330.992188 L 23.671875 330.742188 L 23.664062 330.625 L 23.652344 330.515625 L 23.636719 330.40625 L 23.625 330.304688 L 23.609375 330.207031 L 23.570312 330.019531 L 23.546875 329.933594 L 23.527344 329.851562 L 23.5 329.773438 L 23.476562 329.699219 L 23.445312 329.628906 L 23.417969 329.5625 L 23.386719 329.5 L 23.355469 329.441406 L 23.285156 329.332031 L 23.207031 329.238281 L 23.167969 329.195312 L 23.125 329.15625 L 23.082031 329.121094 L 23.035156 329.089844 L 22.941406 329.035156 L 22.894531 329.015625 L 22.84375 328.992188 L 22.789062 328.976562 L 22.738281 328.960938 L 22.683594 328.945312 L 22.628906 328.9375 L 22.570312 328.925781 L 22.453125 328.917969 L 22.328125 328.917969 L 22.203125 328.925781 L 22.144531 328.9375 L 22.085938 328.945312 L 22.027344 328.960938 L 21.917969 328.992188 L 21.867188 329.015625 L 21.816406 329.035156 L 21.765625 329.0625 L 21.671875 329.125 L 21.628906 329.160156 L 21.585938 329.199219 L 21.542969 329.242188 L 21.464844 329.335938 L 21.394531 329.445312 L 21.363281 329.503906 L 21.332031 329.566406 L 21.300781 329.632812 L 21.273438 329.703125 L 21.246094 329.777344 L 21.222656 329.855469 L 21.199219 329.9375 L 21.160156 330.117188 L 21.140625 330.210938 L 21.125 330.308594 L 21.109375 330.410156 L 21.085938 330.628906 L 21.078125 330.746094 L 21.070312 330.867188 L 21.0625 330.996094 L 21.054688 331.261719 L 21.054688 331.542969 L 21.058594 331.675781 L 21.0625 331.800781 L 21.070312 331.925781 L 21.078125 332.046875 L 21.085938 332.160156 L 21.097656 332.273438 L 21.109375 332.378906 L 21.125 332.480469 L 21.140625 332.578125 L 21.160156 332.671875 L 21.179688 332.761719 L 21.203125 332.847656 L 21.226562 332.929688 L 21.25 333.007812 L 21.304688 333.15625 L 21.335938 333.222656 L 21.398438 333.347656 L 21.46875 333.457031 L 21.546875 333.550781 L 21.632812 333.636719 L 21.71875 333.707031 L 21.765625 333.734375 L 21.867188 333.789062 L 21.96875 333.828125 L 22.023438 333.84375 L 22.132812 333.867188 L 22.191406 333.878906 L 22.25 333.882812 L 22.3125 333.886719 L 22.433594 333.886719 L 22.550781 333.878906 L 22.609375 333.867188 L 22.71875 333.84375 L 22.773438 333.828125 L 22.875 333.789062 L 22.925781 333.761719 L 23.019531 333.707031 L 23.0625 333.671875 L 23.109375 333.636719 L 23.148438 333.59375 L 23.191406 333.550781 L 23.230469 333.503906 L 23.265625 333.457031 L 23.335938 333.347656 L 23.371094 333.285156 L 23.402344 333.222656 L 23.433594 333.15625 L 23.488281 333.007812 L 23.511719 332.929688 L 23.539062 332.847656 L 23.558594 332.761719 L 23.578125 332.671875 L 23.597656 332.578125 L 23.617188 332.480469 L 23.632812 332.378906 L 23.648438 332.273438 L 23.660156 332.160156 L 23.667969 332.046875 L 23.679688 331.925781 L 23.683594 331.800781 L 23.691406 331.675781 L 23.691406 331.542969 Z M 23.695312 331.40625 "/>
<path fill-rule="nonzero" fill="rgb(30.196078%, 30.196078%, 30.196078%)" fill-opacity="1" d="M 17.140625 252.289062 L 17.140625 252.460938 L 17.125 252.789062 L 17.113281 252.941406 L 17.097656 253.09375 L 17.082031 253.238281 L 17.058594 253.375 L 17.035156 253.507812 L 17.003906 253.636719 L 16.972656 253.757812 L 16.9375 253.875 L 16.902344 253.988281 L 16.863281 254.09375 L 16.824219 254.195312 L 16.777344 254.296875 L 16.730469 254.390625 L 16.683594 254.480469 L 16.632812 254.5625 L 16.578125 254.644531 L 16.523438 254.722656 L 16.464844 254.792969 L 16.40625 254.859375 L 16.34375 254.921875 L 16.277344 254.980469 L 16.210938 255.035156 L 16.144531 255.085938 L 16.074219 255.132812 L 16.003906 255.171875 L 15.929688 255.210938 L 15.851562 255.246094 L 15.773438 255.277344 L 15.695312 255.300781 L 15.613281 255.328125 L 15.535156 255.347656 L 15.453125 255.363281 L 15.367188 255.378906 L 15.285156 255.390625 L 15.199219 255.398438 L 15.113281 255.402344 L 14.9375 255.402344 L 14.851562 255.398438 L 14.765625 255.390625 L 14.683594 255.378906 L 14.597656 255.363281 L 14.515625 255.347656 L 14.4375 255.328125 L 14.355469 255.300781 L 14.277344 255.277344 L 14.203125 255.246094 L 14.125 255.210938 L 14.050781 255.171875 L 13.980469 255.132812 L 13.910156 255.085938 L 13.84375 255.035156 L 13.777344 254.980469 L 13.714844 254.921875 L 13.652344 254.859375 L 13.59375 254.792969 L 13.535156 254.722656 L 13.480469 254.644531 L 13.429688 254.566406 L 13.378906 254.480469 L 13.285156 254.300781 L 13.242188 254.199219 L 13.203125 254.097656 L 13.164062 253.992188 L 13.125 253.878906 L 13.09375 253.761719 L 13.0625 253.640625 L 13.035156 253.511719 L 13.011719 253.378906 L 12.992188 253.242188 L 12.972656 253.097656 L 12.960938 252.945312 L 12.949219 252.789062 L 12.941406 252.628906 L 12.9375 252.460938 L 12.933594 252.289062 L 12.9375 252.109375 L 12.941406 251.9375 L 12.949219 251.769531 L 12.960938 251.609375 L 12.972656 251.453125 L 12.992188 251.304688 L 13.011719 251.164062 L 13.035156 251.027344 L 13.0625 250.898438 L 13.09375 250.777344 L 13.125 250.660156 L 13.164062 250.546875 L 13.203125 250.4375 L 13.242188 250.335938 L 13.285156 250.234375 L 13.378906 250.054688 L 13.429688 249.972656 L 13.484375 249.890625 L 13.539062 249.816406 L 13.65625 249.683594 L 13.71875 249.625 L 13.785156 249.566406 L 13.847656 249.515625 L 13.917969 249.46875 L 13.988281 249.425781 L 14.058594 249.386719 L 14.132812 249.351562 L 14.210938 249.320312 L 14.367188 249.265625 L 14.53125 249.226562 L 14.613281 249.210938 L 14.699219 249.195312 L 14.871094 249.179688 L 15.050781 249.171875 L 15.222656 249.179688 L 15.308594 249.1875 L 15.390625 249.195312 L 15.554688 249.226562 L 15.710938 249.265625 L 15.789062 249.292969 L 15.863281 249.320312 L 15.941406 249.351562 L 16.011719 249.386719 L 16.085938 249.425781 L 16.15625 249.46875 L 16.222656 249.515625 L 16.289062 249.566406 L 16.414062 249.683594 L 16.53125 249.816406 L 16.585938 249.890625 L 16.640625 249.972656 L 16.691406 250.054688 L 16.785156 250.234375 L 16.828125 250.335938 L 16.867188 250.4375 L 16.90625 250.546875 L 16.945312 250.660156 L 16.976562 250.777344 L 17.007812 250.898438 L 17.035156 251.027344 L 17.0625 251.164062 L 17.082031 251.304688 L 17.101562 251.453125 L 17.113281 251.609375 L 17.125 251.769531 L 17.132812 251.9375 L 17.140625 252.109375 Z M 16.355469 252.289062 L 16.351562 252.148438 L 16.351562 252.011719 L 16.347656 251.878906 L 16.339844 251.75 L 16.332031 251.628906 L 16.324219 251.511719 L 16.3125 251.398438 L 16.300781 251.289062 L 16.285156 251.1875 L 16.269531 251.089844 L 16.25 250.996094 L 16.230469 250.90625 L 16.210938 250.820312 L 16.1875 250.738281 L 16.160156 250.660156 L 16.136719 250.582031 L 16.109375 250.511719 L 16.078125 250.445312 L 16.046875 250.382812 L 16.015625 250.324219 L 15.980469 250.269531 L 15.945312 250.21875 L 15.90625 250.167969 L 15.867188 250.121094 L 15.828125 250.082031 L 15.785156 250.042969 L 15.742188 250.007812 L 15.699219 249.976562 L 15.652344 249.945312 L 15.601562 249.921875 L 15.554688 249.898438 L 15.453125 249.859375 L 15.398438 249.84375 L 15.289062 249.820312 L 15.171875 249.804688 L 15.113281 249.800781 L 14.988281 249.800781 L 14.925781 249.804688 L 14.863281 249.8125 L 14.804688 249.820312 L 14.6875 249.84375 L 14.632812 249.859375 L 14.578125 249.878906 L 14.527344 249.898438 L 14.425781 249.945312 L 14.378906 249.976562 L 14.335938 250.007812 L 14.289062 250.042969 L 14.246094 250.082031 L 14.207031 250.125 L 14.164062 250.171875 L 14.128906 250.222656 L 14.089844 250.273438 L 14.054688 250.328125 L 14.023438 250.386719 L 13.992188 250.449219 L 13.960938 250.519531 L 13.933594 250.589844 L 13.910156 250.664062 L 13.882812 250.742188 L 13.859375 250.824219 L 13.839844 250.910156 L 13.820312 251 L 13.800781 251.09375 L 13.785156 251.191406 L 13.769531 251.292969 L 13.757812 251.402344 L 13.746094 251.515625 L 13.738281 251.632812 L 13.730469 251.753906 L 13.722656 251.878906 L 13.71875 252.011719 L 13.71875 252.148438 L 13.714844 252.289062 L 13.71875 252.425781 L 13.71875 252.558594 L 13.722656 252.6875 L 13.730469 252.8125 L 13.746094 253.046875 L 13.757812 253.15625 L 13.769531 253.261719 L 13.785156 253.363281 L 13.800781 253.460938 L 13.820312 253.554688 L 13.839844 253.644531 L 13.863281 253.730469 L 13.910156 253.894531 L 13.9375 253.96875 L 13.964844 254.039062 L 14.027344 254.171875 L 14.058594 254.230469 L 14.09375 254.289062 L 14.132812 254.339844 L 14.167969 254.390625 L 14.210938 254.4375 L 14.25 254.480469 L 14.292969 254.519531 L 14.335938 254.554688 L 14.382812 254.589844 L 14.429688 254.621094 L 14.476562 254.648438 L 14.527344 254.671875 L 14.628906 254.710938 L 14.738281 254.742188 L 14.796875 254.753906 L 14.851562 254.761719 L 14.914062 254.769531 L 14.972656 254.769531 L 15.035156 254.773438 L 15.09375 254.769531 L 15.15625 254.769531 L 15.210938 254.761719 L 15.269531 254.753906 L 15.324219 254.742188 L 15.433594 254.710938 L 15.535156 254.671875 L 15.585938 254.648438 L 15.632812 254.621094 L 15.679688 254.589844 L 15.726562 254.554688 L 15.769531 254.519531 L 15.8125 254.480469 L 15.851562 254.4375 L 15.890625 254.390625 L 15.925781 254.339844 L 15.964844 254.289062 L 15.996094 254.230469 L 16.03125 254.171875 L 16.09375 254.039062 L 16.121094 253.96875 L 16.148438 253.894531 L 16.175781 253.8125 L 16.199219 253.730469 L 16.21875 253.644531 L 16.242188 253.554688 L 16.261719 253.460938 L 16.277344 253.363281 L 16.292969 253.261719 L 16.308594 253.15625 L 16.320312 253.046875 L 16.332031 252.929688 L 16.339844 252.8125 L 16.347656 252.6875 L 16.351562 252.558594 L 16.351562 252.425781 Z M 16.355469 252.289062 "/>
<path fill-rule="nonzero" fill="rgb(30.196078%, 30.196078%, 30.196078%)" fill-opacity="1" d="M 18.289062 255.316406 L 18.289062 254.378906 L 19.125 254.378906 L 19.125 255.316406 Z M 18.289062 255.316406 "/>
<path fill-rule="nonzero" fill="rgb(30.196078%, 30.196078%, 30.196078%)" fill-opacity="1" d="M 20.601562 255.316406 L 20.601562 254.660156 L 22.140625 254.660156 L 22.140625 250.003906 L 20.777344 250.976562 L 20.777344 250.246094 L 22.207031 249.265625 L 22.921875 249.265625 L 22.921875 254.660156 L 24.394531 254.660156 L 24.394531 255.316406 Z M 20.601562 255.316406 "/>
<path fill-rule="nonzero" fill="rgb(30.196078%, 30.196078%, 30.196078%)" fill-opacity="1" d="M 17.140625 173.171875 L 17.140625 173.34375 L 17.132812 173.511719 L 17.125 173.671875 L 17.113281 173.828125 L 17.097656 173.976562 L 17.082031 174.121094 L 17.058594 174.261719 L 17.035156 174.394531 L 16.972656 174.644531 L 16.902344 174.871094 L 16.863281 174.980469 L 16.824219 175.082031 L 16.777344 175.179688 L 16.730469 175.273438 L 16.683594 175.363281 L 16.632812 175.449219 L 16.578125 175.53125 L 16.523438 175.605469 L 16.464844 175.675781 L 16.40625 175.742188 L 16.34375 175.804688 L 16.277344 175.863281 L 16.210938 175.917969 L 16.144531 175.96875 L 16.074219 176.015625 L 16.003906 176.058594 L 15.929688 176.097656 L 15.773438 176.160156 L 15.695312 176.1875 L 15.613281 176.210938 L 15.535156 176.230469 L 15.453125 176.25 L 15.367188 176.261719 L 15.285156 176.273438 L 15.199219 176.28125 L 15.027344 176.289062 L 14.9375 176.285156 L 14.851562 176.28125 L 14.765625 176.273438 L 14.683594 176.261719 L 14.597656 176.25 L 14.515625 176.230469 L 14.4375 176.210938 L 14.355469 176.1875 L 14.277344 176.160156 L 14.203125 176.128906 L 14.125 176.097656 L 14.050781 176.058594 L 13.980469 176.015625 L 13.910156 175.96875 L 13.84375 175.917969 L 13.777344 175.863281 L 13.714844 175.804688 L 13.652344 175.742188 L 13.59375 175.675781 L 13.535156 175.605469 L 13.480469 175.53125 L 13.378906 175.367188 L 13.332031 175.277344 L 13.285156 175.183594 L 13.242188 175.085938 L 13.203125 174.984375 L 13.164062 174.875 L 13.125 174.761719 L 13.09375 174.648438 L 13.0625 174.523438 L 13.035156 174.398438 L 13.011719 174.265625 L 12.992188 174.125 L 12.972656 173.980469 L 12.949219 173.675781 L 12.941406 173.511719 L 12.9375 173.347656 L 12.933594 173.171875 L 12.9375 172.992188 L 12.941406 172.820312 L 12.949219 172.652344 L 12.960938 172.492188 L 12.972656 172.335938 L 13.011719 172.046875 L 13.035156 171.914062 L 13.0625 171.785156 L 13.09375 171.660156 L 13.125 171.542969 L 13.164062 171.429688 L 13.203125 171.320312 L 13.242188 171.21875 L 13.285156 171.121094 L 13.332031 171.027344 L 13.378906 170.9375 L 13.429688 170.855469 L 13.484375 170.777344 L 13.539062 170.703125 L 13.597656 170.632812 L 13.65625 170.570312 L 13.71875 170.507812 L 13.785156 170.453125 L 13.847656 170.398438 L 13.917969 170.351562 L 13.988281 170.308594 L 14.058594 170.269531 L 14.132812 170.234375 L 14.210938 170.203125 L 14.289062 170.175781 L 14.367188 170.152344 L 14.449219 170.128906 L 14.53125 170.109375 L 14.613281 170.09375 L 14.785156 170.070312 L 14.871094 170.0625 L 14.960938 170.058594 L 15.136719 170.058594 L 15.222656 170.0625 L 15.308594 170.070312 L 15.472656 170.09375 L 15.554688 170.109375 L 15.632812 170.128906 L 15.789062 170.175781 L 15.863281 170.203125 L 15.941406 170.234375 L 16.011719 170.269531 L 16.085938 170.308594 L 16.15625 170.351562 L 16.222656 170.398438 L 16.289062 170.453125 L 16.351562 170.507812 L 16.414062 170.570312 L 16.472656 170.632812 L 16.53125 170.703125 L 16.585938 170.777344 L 16.640625 170.855469 L 16.691406 170.9375 L 16.738281 171.027344 L 16.785156 171.121094 L 16.828125 171.21875 L 16.867188 171.320312 L 16.90625 171.429688 L 16.945312 171.542969 L 16.976562 171.660156 L 17.007812 171.785156 L 17.035156 171.914062 L 17.0625 172.046875 L 17.101562 172.335938 L 17.113281 172.492188 L 17.125 172.652344 L 17.132812 172.820312 L 17.140625 172.992188 Z M 16.355469 173.171875 L 16.351562 173.03125 L 16.351562 172.894531 L 16.347656 172.761719 L 16.332031 172.511719 L 16.324219 172.394531 L 16.3125 172.28125 L 16.300781 172.175781 L 16.285156 172.074219 L 16.269531 171.976562 L 16.25 171.878906 L 16.230469 171.789062 L 16.210938 171.703125 L 16.1875 171.621094 L 16.160156 171.542969 L 16.136719 171.46875 L 16.109375 171.398438 L 16.078125 171.332031 L 16.046875 171.269531 L 16.015625 171.210938 L 15.980469 171.152344 L 15.945312 171.101562 L 15.90625 171.050781 L 15.828125 170.964844 L 15.785156 170.925781 L 15.742188 170.890625 L 15.699219 170.859375 L 15.652344 170.832031 L 15.601562 170.804688 L 15.554688 170.78125 L 15.503906 170.761719 L 15.453125 170.746094 L 15.34375 170.714844 L 15.289062 170.703125 L 15.230469 170.695312 L 15.113281 170.6875 L 14.988281 170.6875 L 14.863281 170.695312 L 14.804688 170.703125 L 14.746094 170.714844 L 14.6875 170.730469 L 14.578125 170.761719 L 14.527344 170.78125 L 14.476562 170.804688 L 14.425781 170.832031 L 14.378906 170.859375 L 14.335938 170.894531 L 14.289062 170.929688 L 14.246094 170.96875 L 14.207031 171.011719 L 14.164062 171.054688 L 14.128906 171.105469 L 14.089844 171.15625 L 14.054688 171.214844 L 14.023438 171.273438 L 13.992188 171.335938 L 13.960938 171.402344 L 13.933594 171.472656 L 13.910156 171.546875 L 13.882812 171.625 L 13.859375 171.707031 L 13.839844 171.792969 L 13.820312 171.882812 L 13.800781 171.980469 L 13.785156 172.078125 L 13.769531 172.179688 L 13.757812 172.285156 L 13.746094 172.398438 L 13.738281 172.515625 L 13.730469 172.636719 L 13.722656 172.765625 L 13.71875 172.894531 L 13.71875 173.03125 L 13.714844 173.171875 L 13.71875 173.308594 L 13.71875 173.441406 L 13.722656 173.570312 L 13.730469 173.695312 L 13.738281 173.816406 L 13.746094 173.929688 L 13.769531 174.148438 L 13.785156 174.25 L 13.800781 174.347656 L 13.820312 174.441406 L 13.839844 174.53125 L 13.863281 174.617188 L 13.886719 174.699219 L 13.910156 174.777344 L 13.9375 174.851562 L 13.964844 174.921875 L 13.996094 174.992188 L 14.058594 175.117188 L 14.09375 175.171875 L 14.132812 175.222656 L 14.167969 175.273438 L 14.210938 175.320312 L 14.25 175.363281 L 14.335938 175.441406 L 14.429688 175.503906 L 14.476562 175.53125 L 14.578125 175.578125 L 14.628906 175.597656 L 14.683594 175.613281 L 14.738281 175.625 L 14.796875 175.636719 L 14.851562 175.644531 L 14.914062 175.652344 L 14.972656 175.65625 L 15.09375 175.65625 L 15.15625 175.652344 L 15.210938 175.644531 L 15.269531 175.636719 L 15.378906 175.613281 L 15.433594 175.597656 L 15.484375 175.578125 L 15.585938 175.53125 L 15.632812 175.503906 L 15.726562 175.441406 L 15.8125 175.363281 L 15.851562 175.320312 L 15.890625 175.273438 L 15.925781 175.222656 L 15.964844 175.171875 L 15.996094 175.117188 L 16.03125 175.054688 L 16.0625 174.992188 L 16.09375 174.921875 L 16.121094 174.851562 L 16.148438 174.777344 L 16.175781 174.699219 L 16.199219 174.617188 L 16.21875 174.53125 L 16.242188 174.441406 L 16.261719 174.347656 L 16.277344 174.25 L 16.292969 174.148438 L 16.308594 174.039062 L 16.320312 173.929688 L 16.332031 173.816406 L 16.339844 173.695312 L 16.347656 173.570312 L 16.351562 173.441406 L 16.351562 173.308594 Z M 16.355469 173.171875 "/>
<path fill-rule="nonzero" fill="rgb(30.196078%, 30.196078%, 30.196078%)" fill-opacity="1" d="M 18.289062 176.203125 L 18.289062 175.261719 L 19.125 175.261719 L 19.125 176.203125 Z M 18.289062 176.203125 "/>
<path fill-rule="nonzero" fill="rgb(30.196078%, 30.196078%, 30.196078%)" fill-opacity="1" d="M 20.371094 176.203125 L 20.371094 175.65625 L 20.464844 175.460938 L 20.511719 175.367188 L 20.5625 175.273438 L 20.613281 175.183594 L 20.667969 175.097656 L 20.726562 175.011719 L 20.78125 174.929688 L 20.84375 174.847656 L 20.90625 174.773438 L 20.96875 174.695312 L 21.03125 174.621094 L 21.097656 174.546875 L 21.296875 174.335938 L 21.363281 174.269531 L 21.433594 174.203125 L 21.5 174.136719 L 21.640625 174.011719 L 21.710938 173.953125 L 21.777344 173.890625 L 21.917969 173.773438 L 21.984375 173.714844 L 22.054688 173.660156 L 22.121094 173.605469 L 22.191406 173.550781 L 22.257812 173.496094 L 22.328125 173.441406 L 22.394531 173.390625 L 22.457031 173.335938 L 22.523438 173.28125 L 22.585938 173.230469 L 22.644531 173.175781 L 22.707031 173.121094 L 22.765625 173.070312 L 22.820312 173.015625 L 22.878906 172.964844 L 22.929688 172.910156 L 22.984375 172.855469 L 23.125 172.691406 L 23.167969 172.632812 L 23.210938 172.578125 L 23.25 172.519531 L 23.285156 172.460938 L 23.320312 172.40625 L 23.351562 172.34375 L 23.382812 172.285156 L 23.40625 172.222656 L 23.429688 172.15625 L 23.449219 172.09375 L 23.464844 172.027344 L 23.476562 171.957031 L 23.484375 171.886719 L 23.488281 171.816406 L 23.492188 171.742188 L 23.492188 171.691406 L 23.488281 171.640625 L 23.480469 171.546875 L 23.472656 171.5 L 23.464844 171.457031 L 23.441406 171.371094 L 23.429688 171.332031 L 23.398438 171.253906 L 23.378906 171.214844 L 23.363281 171.179688 L 23.339844 171.144531 L 23.320312 171.109375 L 23.273438 171.046875 L 23.246094 171.015625 L 23.191406 170.960938 L 23.160156 170.933594 L 23.097656 170.886719 L 23.0625 170.863281 L 23.03125 170.84375 L 22.992188 170.824219 L 22.957031 170.808594 L 22.839844 170.761719 L 22.753906 170.738281 L 22.714844 170.726562 L 22.667969 170.71875 L 22.625 170.710938 L 22.578125 170.707031 L 22.53125 170.699219 L 22.484375 170.695312 L 22.296875 170.695312 L 22.25 170.699219 L 22.207031 170.703125 L 22.160156 170.710938 L 22.03125 170.734375 L 21.992188 170.746094 L 21.949219 170.757812 L 21.910156 170.773438 L 21.871094 170.785156 L 21.832031 170.804688 L 21.792969 170.820312 L 21.6875 170.878906 L 21.652344 170.902344 L 21.621094 170.925781 L 21.589844 170.953125 L 21.558594 170.976562 L 21.527344 171.007812 L 21.496094 171.035156 L 21.441406 171.097656 L 21.417969 171.128906 L 21.347656 171.234375 L 21.324219 171.273438 L 21.308594 171.3125 L 21.289062 171.351562 L 21.257812 171.4375 L 21.246094 171.480469 L 21.230469 171.523438 L 21.222656 171.570312 L 21.210938 171.617188 L 21.195312 171.71875 L 20.40625 171.644531 L 20.414062 171.578125 L 20.4375 171.453125 L 20.453125 171.390625 L 20.472656 171.328125 L 20.488281 171.265625 L 20.511719 171.207031 L 20.535156 171.144531 L 20.558594 171.085938 L 20.585938 171.03125 L 20.617188 170.972656 L 20.679688 170.863281 L 20.71875 170.8125 L 20.753906 170.757812 L 20.796875 170.710938 L 20.839844 170.660156 L 20.929688 170.570312 L 20.976562 170.527344 L 21.027344 170.484375 L 21.082031 170.441406 L 21.136719 170.402344 L 21.191406 170.367188 L 21.25 170.332031 L 21.3125 170.296875 L 21.375 170.265625 L 21.441406 170.238281 L 21.507812 170.207031 L 21.574219 170.183594 L 21.648438 170.160156 L 21.71875 170.136719 L 21.796875 170.121094 L 21.875 170.101562 L 21.953125 170.089844 L 22.035156 170.078125 L 22.207031 170.0625 L 22.296875 170.058594 L 22.476562 170.058594 L 22.648438 170.066406 L 22.730469 170.074219 L 22.894531 170.097656 L 22.96875 170.109375 L 23.046875 170.128906 L 23.121094 170.144531 L 23.191406 170.164062 L 23.261719 170.1875 L 23.328125 170.210938 L 23.390625 170.238281 L 23.515625 170.300781 L 23.574219 170.332031 L 23.683594 170.402344 L 23.734375 170.441406 L 23.785156 170.484375 L 23.878906 170.570312 L 23.921875 170.617188 L 24 170.71875 L 24.070312 170.828125 L 24.101562 170.882812 L 24.128906 170.941406 L 24.183594 171.066406 L 24.222656 171.199219 L 24.238281 171.265625 L 24.253906 171.335938 L 24.265625 171.410156 L 24.28125 171.558594 L 24.285156 171.636719 L 24.285156 171.777344 L 24.28125 171.835938 L 24.277344 171.898438 L 24.269531 171.957031 L 24.257812 172.015625 L 24.246094 172.070312 L 24.214844 172.1875 L 24.175781 172.296875 L 24.128906 172.40625 L 24.101562 172.460938 L 24.078125 172.511719 L 24.046875 172.566406 L 24.019531 172.617188 L 23.988281 172.667969 L 23.847656 172.871094 L 23.808594 172.921875 L 23.769531 172.96875 L 23.726562 173.019531 L 23.6875 173.066406 L 23.601562 173.160156 L 23.414062 173.347656 L 23.363281 173.394531 L 23.316406 173.441406 L 23.265625 173.488281 L 23.214844 173.53125 L 23.164062 173.578125 L 23.113281 173.621094 L 23.011719 173.714844 L 22.957031 173.757812 L 22.855469 173.84375 L 22.800781 173.890625 L 22.75 173.933594 L 22.695312 173.976562 L 22.644531 174.019531 L 22.589844 174.066406 L 22.535156 174.109375 L 22.484375 174.152344 L 22.429688 174.195312 L 22.378906 174.238281 L 22.324219 174.28125 L 22.171875 174.410156 L 22.121094 174.457031 L 22.070312 174.5 L 21.976562 174.585938 L 21.925781 174.628906 L 21.882812 174.675781 L 21.835938 174.71875 L 21.792969 174.761719 L 21.75 174.808594 L 21.664062 174.894531 L 21.625 174.941406 L 21.585938 174.984375 L 21.546875 175.03125 L 21.511719 175.078125 L 21.472656 175.121094 L 21.441406 175.167969 L 21.40625 175.214844 L 21.375 175.257812 L 21.347656 175.304688 L 21.316406 175.351562 L 21.292969 175.398438 L 21.265625 175.449219 L 21.246094 175.496094 L 21.222656 175.546875 L 24.382812 175.546875 L 24.382812 176.203125 Z M 20.371094 176.203125 "/>
<path fill-rule="nonzero" fill="rgb(30.196078%, 30.196078%, 30.196078%)" fill-opacity="1" d="M 17.140625 94.058594 L 17.140625 94.230469 L 17.132812 94.394531 L 17.125 94.554688 L 17.113281 94.710938 L 17.097656 94.863281 L 17.082031 95.003906 L 17.058594 95.144531 L 17.035156 95.277344 L 17.003906 95.40625 L 16.972656 95.527344 L 16.9375 95.644531 L 16.902344 95.753906 L 16.863281 95.863281 L 16.824219 95.964844 L 16.777344 96.066406 L 16.730469 96.160156 L 16.683594 96.25 L 16.632812 96.332031 L 16.578125 96.414062 L 16.523438 96.488281 L 16.464844 96.5625 L 16.40625 96.628906 L 16.34375 96.691406 L 16.277344 96.75 L 16.210938 96.804688 L 16.144531 96.855469 L 16.003906 96.941406 L 15.929688 96.980469 L 15.851562 97.015625 L 15.695312 97.070312 L 15.613281 97.09375 L 15.535156 97.117188 L 15.453125 97.132812 L 15.367188 97.148438 L 15.285156 97.160156 L 15.199219 97.167969 L 15.113281 97.171875 L 14.9375 97.171875 L 14.851562 97.167969 L 14.765625 97.160156 L 14.683594 97.148438 L 14.597656 97.132812 L 14.515625 97.117188 L 14.4375 97.09375 L 14.355469 97.070312 L 14.277344 97.042969 L 14.203125 97.015625 L 14.125 96.980469 L 14.050781 96.941406 L 13.910156 96.855469 L 13.84375 96.804688 L 13.777344 96.75 L 13.714844 96.691406 L 13.652344 96.628906 L 13.59375 96.5625 L 13.535156 96.488281 L 13.480469 96.414062 L 13.429688 96.335938 L 13.378906 96.25 L 13.332031 96.160156 L 13.285156 96.066406 L 13.242188 95.96875 L 13.203125 95.867188 L 13.164062 95.761719 L 13.125 95.648438 L 13.09375 95.53125 L 13.0625 95.410156 L 13.035156 95.28125 L 13.011719 95.148438 L 12.992188 95.007812 L 12.972656 94.863281 L 12.960938 94.714844 L 12.949219 94.558594 L 12.941406 94.398438 L 12.9375 94.230469 L 12.933594 94.058594 L 12.9375 93.878906 L 12.941406 93.703125 L 12.949219 93.539062 L 12.960938 93.375 L 12.972656 93.222656 L 12.992188 93.074219 L 13.011719 92.933594 L 13.035156 92.796875 L 13.0625 92.667969 L 13.125 92.425781 L 13.203125 92.207031 L 13.242188 92.101562 L 13.285156 92.003906 L 13.332031 91.910156 L 13.378906 91.824219 L 13.429688 91.738281 L 13.484375 91.660156 L 13.539062 91.585938 L 13.65625 91.453125 L 13.71875 91.390625 L 13.785156 91.335938 L 13.847656 91.285156 L 13.988281 91.191406 L 14.058594 91.152344 L 14.132812 91.121094 L 14.210938 91.089844 L 14.367188 91.035156 L 14.53125 90.996094 L 14.613281 90.980469 L 14.699219 90.964844 L 14.871094 90.949219 L 15.050781 90.941406 L 15.222656 90.949219 L 15.308594 90.957031 L 15.390625 90.964844 L 15.554688 90.996094 L 15.710938 91.035156 L 15.789062 91.0625 L 15.863281 91.089844 L 15.941406 91.121094 L 16.011719 91.152344 L 16.085938 91.191406 L 16.15625 91.238281 L 16.222656 91.285156 L 16.289062 91.335938 L 16.351562 91.390625 L 16.414062 91.453125 L 16.53125 91.585938 L 16.585938 91.660156 L 16.640625 91.738281 L 16.691406 91.824219 L 16.738281 91.910156 L 16.785156 92.003906 L 16.828125 92.101562 L 16.867188 92.207031 L 16.945312 92.425781 L 17.007812 92.667969 L 17.035156 92.796875 L 17.0625 92.933594 L 17.082031 93.074219 L 17.101562 93.222656 L 17.113281 93.375 L 17.125 93.539062 L 17.132812 93.703125 L 17.140625 93.878906 Z M 16.355469 94.058594 L 16.351562 93.914062 L 16.351562 93.777344 L 16.347656 93.648438 L 16.339844 93.519531 L 16.332031 93.398438 L 16.324219 93.28125 L 16.3125 93.167969 L 16.300781 93.058594 L 16.285156 92.957031 L 16.269531 92.859375 L 16.25 92.765625 L 16.230469 92.675781 L 16.210938 92.589844 L 16.1875 92.503906 L 16.160156 92.425781 L 16.136719 92.351562 L 16.109375 92.28125 L 16.078125 92.214844 L 16.046875 92.152344 L 16.015625 92.09375 L 15.945312 91.984375 L 15.867188 91.890625 L 15.828125 91.847656 L 15.785156 91.8125 L 15.742188 91.773438 L 15.699219 91.742188 L 15.652344 91.714844 L 15.601562 91.691406 L 15.554688 91.667969 L 15.453125 91.628906 L 15.398438 91.613281 L 15.289062 91.589844 L 15.171875 91.574219 L 15.113281 91.570312 L 14.988281 91.570312 L 14.925781 91.574219 L 14.863281 91.582031 L 14.804688 91.589844 L 14.6875 91.613281 L 14.632812 91.628906 L 14.578125 91.648438 L 14.527344 91.667969 L 14.425781 91.714844 L 14.378906 91.746094 L 14.335938 91.777344 L 14.289062 91.8125 L 14.246094 91.851562 L 14.207031 91.894531 L 14.164062 91.941406 L 14.128906 91.988281 L 14.089844 92.042969 L 14.054688 92.097656 L 14.023438 92.15625 L 13.992188 92.21875 L 13.960938 92.285156 L 13.933594 92.355469 L 13.910156 92.429688 L 13.882812 92.511719 L 13.859375 92.59375 L 13.839844 92.679688 L 13.820312 92.769531 L 13.800781 92.863281 L 13.785156 92.960938 L 13.769531 93.0625 L 13.757812 93.171875 L 13.746094 93.285156 L 13.738281 93.402344 L 13.730469 93.523438 L 13.722656 93.648438 L 13.71875 93.78125 L 13.71875 93.917969 L 13.714844 94.058594 L 13.71875 94.195312 L 13.71875 94.328125 L 13.722656 94.457031 L 13.738281 94.699219 L 13.746094 94.8125 L 13.757812 94.925781 L 13.769531 95.03125 L 13.785156 95.132812 L 13.800781 95.230469 L 13.820312 95.324219 L 13.839844 95.414062 L 13.863281 95.5 L 13.886719 95.582031 L 13.910156 95.660156 L 13.9375 95.738281 L 13.964844 95.808594 L 14.027344 95.941406 L 14.058594 96 L 14.09375 96.054688 L 14.132812 96.109375 L 14.167969 96.160156 L 14.210938 96.203125 L 14.25 96.25 L 14.292969 96.289062 L 14.335938 96.324219 L 14.382812 96.359375 L 14.429688 96.390625 L 14.476562 96.417969 L 14.527344 96.441406 L 14.628906 96.480469 L 14.738281 96.511719 L 14.796875 96.523438 L 14.851562 96.53125 L 14.914062 96.535156 L 14.972656 96.539062 L 15.035156 96.542969 L 15.09375 96.539062 L 15.15625 96.535156 L 15.210938 96.53125 L 15.269531 96.523438 L 15.324219 96.511719 L 15.433594 96.480469 L 15.535156 96.441406 L 15.585938 96.417969 L 15.632812 96.390625 L 15.679688 96.359375 L 15.726562 96.324219 L 15.769531 96.289062 L 15.8125 96.25 L 15.851562 96.203125 L 15.890625 96.160156 L 15.925781 96.109375 L 15.964844 96.054688 L 15.996094 96 L 16.03125 95.941406 L 16.09375 95.808594 L 16.121094 95.738281 L 16.175781 95.582031 L 16.199219 95.5 L 16.21875 95.414062 L 16.242188 95.324219 L 16.261719 95.230469 L 16.277344 95.132812 L 16.292969 95.03125 L 16.308594 94.925781 L 16.332031 94.699219 L 16.347656 94.457031 L 16.351562 94.328125 L 16.351562 94.195312 Z M 16.355469 94.058594 "/>
<path fill-rule="nonzero" fill="rgb(30.196078%, 30.196078%, 30.196078%)" fill-opacity="1" d="M 18.289062 97.085938 L 18.289062 96.144531 L 19.125 96.144531 L 19.125 97.085938 Z M 18.289062 97.085938 "/>
<path fill-rule="nonzero" fill="rgb(30.196078%, 30.196078%, 30.196078%)" fill-opacity="1" d="M 24.4375 95.414062 L 24.433594 95.5 L 24.425781 95.65625 L 24.414062 95.734375 L 24.402344 95.808594 L 24.386719 95.882812 L 24.371094 95.953125 L 24.324219 96.09375 L 24.300781 96.160156 L 24.269531 96.222656 L 24.242188 96.285156 L 24.207031 96.347656 L 24.171875 96.40625 L 24.09375 96.515625 L 24.050781 96.566406 L 23.957031 96.667969 L 23.902344 96.714844 L 23.851562 96.757812 L 23.796875 96.796875 L 23.738281 96.839844 L 23.613281 96.910156 L 23.546875 96.945312 L 23.480469 96.976562 L 23.410156 97.003906 L 23.335938 97.03125 L 23.257812 97.058594 L 23.183594 97.078125 L 23.019531 97.117188 L 22.9375 97.132812 L 22.847656 97.144531 L 22.761719 97.15625 L 22.667969 97.164062 L 22.480469 97.171875 L 22.273438 97.171875 L 22.164062 97.167969 L 21.960938 97.152344 L 21.863281 97.140625 L 21.769531 97.125 L 21.679688 97.105469 L 21.59375 97.085938 L 21.511719 97.0625 L 21.433594 97.035156 L 21.359375 97.007812 L 21.285156 96.976562 L 21.214844 96.941406 L 21.148438 96.910156 L 21.085938 96.871094 L 21.023438 96.835938 L 20.964844 96.796875 L 20.90625 96.753906 L 20.851562 96.710938 L 20.800781 96.667969 L 20.753906 96.617188 L 20.707031 96.570312 L 20.664062 96.519531 L 20.621094 96.472656 L 20.582031 96.417969 L 20.546875 96.367188 L 20.484375 96.257812 L 20.453125 96.199219 L 20.429688 96.140625 L 20.402344 96.082031 L 20.382812 96.023438 L 20.359375 95.960938 L 20.34375 95.902344 L 20.324219 95.839844 L 20.308594 95.78125 L 20.273438 95.59375 L 20.265625 95.53125 L 21.0625 95.457031 L 21.070312 95.507812 L 21.078125 95.554688 L 21.089844 95.597656 L 21.101562 95.644531 L 21.125 95.730469 L 21.15625 95.816406 L 21.171875 95.855469 L 21.1875 95.898438 L 21.207031 95.9375 L 21.230469 95.972656 L 21.25 96.011719 L 21.273438 96.046875 L 21.300781 96.082031 L 21.324219 96.113281 L 21.378906 96.175781 L 21.441406 96.238281 L 21.472656 96.265625 L 21.507812 96.289062 L 21.542969 96.316406 L 21.582031 96.339844 L 21.617188 96.363281 L 21.660156 96.382812 L 21.699219 96.402344 L 21.742188 96.421875 L 21.789062 96.4375 L 21.832031 96.457031 L 21.878906 96.46875 L 21.929688 96.484375 L 21.980469 96.496094 L 22.03125 96.503906 L 22.140625 96.519531 L 22.199219 96.527344 L 22.257812 96.53125 L 22.496094 96.53125 L 22.605469 96.519531 L 22.710938 96.507812 L 22.808594 96.488281 L 22.902344 96.460938 L 22.992188 96.429688 L 23.078125 96.390625 L 23.15625 96.347656 L 23.230469 96.300781 L 23.296875 96.246094 L 23.363281 96.183594 L 23.417969 96.117188 L 23.46875 96.046875 L 23.511719 95.96875 L 23.550781 95.886719 L 23.578125 95.800781 L 23.601562 95.707031 L 23.621094 95.605469 L 23.628906 95.5 L 23.632812 95.390625 L 23.632812 95.324219 L 23.628906 95.261719 L 23.621094 95.199219 L 23.609375 95.144531 L 23.578125 95.035156 L 23.558594 94.984375 L 23.535156 94.9375 L 23.511719 94.894531 L 23.484375 94.851562 L 23.421875 94.773438 L 23.386719 94.738281 L 23.355469 94.703125 L 23.316406 94.671875 L 23.28125 94.640625 L 23.242188 94.609375 L 23.199219 94.582031 L 23.070312 94.511719 L 22.929688 94.453125 L 22.835938 94.421875 L 22.683594 94.386719 L 22.582031 94.371094 L 22.53125 94.367188 L 22.480469 94.359375 L 22.433594 94.355469 L 22.382812 94.351562 L 22.289062 94.34375 L 22.199219 94.34375 L 22.15625 94.339844 L 21.71875 94.339844 L 21.71875 93.671875 L 22.183594 93.671875 L 22.226562 93.667969 L 22.269531 93.667969 L 22.363281 93.660156 L 22.40625 93.65625 L 22.453125 93.648438 L 22.5 93.644531 L 22.59375 93.628906 L 22.6875 93.605469 L 22.730469 93.59375 L 22.777344 93.578125 L 22.863281 93.546875 L 22.902344 93.527344 L 22.945312 93.507812 L 22.984375 93.488281 L 23.0625 93.441406 L 23.097656 93.414062 L 23.136719 93.386719 L 23.167969 93.355469 L 23.203125 93.324219 L 23.234375 93.292969 L 23.265625 93.257812 L 23.292969 93.21875 L 23.320312 93.183594 L 23.34375 93.144531 L 23.371094 93.101562 L 23.390625 93.058594 L 23.429688 92.964844 L 23.441406 92.914062 L 23.453125 92.859375 L 23.460938 92.804688 L 23.46875 92.746094 L 23.472656 92.6875 L 23.472656 92.53125 L 23.460938 92.441406 L 23.449219 92.355469 L 23.429688 92.273438 L 23.402344 92.191406 L 23.371094 92.117188 L 23.332031 92.046875 L 23.289062 91.980469 L 23.242188 91.921875 L 23.1875 91.863281 L 23.125 91.808594 L 23.0625 91.761719 L 22.992188 91.71875 L 22.914062 91.679688 L 22.832031 91.648438 L 22.746094 91.625 L 22.652344 91.605469 L 22.554688 91.589844 L 22.449219 91.582031 L 22.339844 91.578125 L 22.238281 91.582031 L 22.144531 91.589844 L 22.050781 91.601562 L 21.960938 91.621094 L 21.875 91.644531 L 21.796875 91.671875 L 21.71875 91.707031 L 21.644531 91.746094 L 21.574219 91.789062 L 21.511719 91.839844 L 21.449219 91.894531 L 21.394531 91.953125 L 21.347656 92.015625 L 21.300781 92.085938 L 21.261719 92.15625 L 21.199219 92.3125 L 21.175781 92.398438 L 21.144531 92.578125 L 20.367188 92.519531 L 20.390625 92.363281 L 20.40625 92.289062 L 20.425781 92.214844 L 20.445312 92.144531 L 20.46875 92.078125 L 20.523438 91.945312 L 20.554688 91.882812 L 20.585938 91.824219 L 20.621094 91.765625 L 20.738281 91.601562 L 20.78125 91.554688 L 20.824219 91.503906 L 20.871094 91.457031 L 20.917969 91.414062 L 20.96875 91.375 L 21.019531 91.332031 L 21.074219 91.296875 L 21.128906 91.257812 L 21.1875 91.222656 L 21.304688 91.160156 L 21.367188 91.132812 L 21.429688 91.109375 L 21.492188 91.082031 L 21.625 91.042969 L 21.695312 91.023438 L 21.90625 90.976562 L 21.976562 90.96875 L 22.050781 90.957031 L 22.121094 90.953125 L 22.195312 90.945312 L 22.273438 90.945312 L 22.347656 90.941406 L 22.449219 90.945312 L 22.546875 90.949219 L 22.640625 90.953125 L 22.820312 90.976562 L 22.90625 90.988281 L 22.988281 91.003906 L 23.070312 91.023438 L 23.144531 91.046875 L 23.222656 91.070312 L 23.363281 91.125 L 23.429688 91.15625 L 23.492188 91.1875 L 23.550781 91.21875 L 23.609375 91.253906 L 23.667969 91.292969 L 23.769531 91.371094 L 23.816406 91.414062 L 23.90625 91.503906 L 23.984375 91.597656 L 24.019531 91.648438 L 24.050781 91.699219 L 24.082031 91.753906 L 24.136719 91.863281 L 24.15625 91.921875 L 24.179688 91.980469 L 24.199219 92.039062 L 24.230469 92.164062 L 24.242188 92.222656 L 24.25 92.285156 L 24.257812 92.351562 L 24.265625 92.414062 L 24.269531 92.480469 L 24.269531 92.597656 L 24.265625 92.652344 L 24.257812 92.753906 L 24.25 92.804688 L 24.242188 92.851562 L 24.234375 92.902344 L 24.210938 92.996094 L 24.179688 93.089844 L 24.164062 93.132812 L 24.144531 93.179688 L 24.125 93.222656 L 24.101562 93.265625 L 24.054688 93.34375 L 24.027344 93.386719 L 24 93.421875 L 23.96875 93.460938 L 23.9375 93.496094 L 23.832031 93.601562 L 23.792969 93.632812 L 23.75 93.664062 L 23.710938 93.695312 L 23.664062 93.722656 L 23.621094 93.75 L 23.574219 93.777344 L 23.523438 93.804688 L 23.476562 93.828125 L 23.367188 93.875 L 23.3125 93.894531 L 23.195312 93.933594 L 23.132812 93.949219 L 23 93.980469 L 23 93.996094 L 23.074219 94.007812 L 23.144531 94.015625 L 23.210938 94.027344 L 23.34375 94.058594 L 23.40625 94.078125 L 23.464844 94.097656 L 23.527344 94.117188 L 23.636719 94.164062 L 23.691406 94.191406 L 23.792969 94.246094 L 23.839844 94.273438 L 23.882812 94.304688 L 23.929688 94.339844 L 23.96875 94.371094 L 24.011719 94.40625 L 24.085938 94.480469 L 24.117188 94.515625 L 24.152344 94.558594 L 24.183594 94.597656 L 24.210938 94.636719 L 24.238281 94.679688 L 24.261719 94.722656 L 24.308594 94.816406 L 24.328125 94.859375 L 24.347656 94.910156 L 24.363281 94.957031 L 24.378906 95.007812 L 24.394531 95.054688 L 24.40625 95.105469 L 24.429688 95.257812 L 24.433594 95.308594 L 24.4375 95.363281 Z M 24.4375 95.414062 "/>
<path fill-rule="nonzero" fill="rgb(30.196078%, 30.196078%, 30.196078%)" fill-opacity="1" d="M 17.140625 14.941406 L 17.140625 15.113281 L 17.132812 15.28125 L 17.125 15.441406 L 17.113281 15.597656 L 17.097656 15.746094 L 17.082031 15.890625 L 17.058594 16.027344 L 17.035156 16.160156 L 17.003906 16.289062 L 16.972656 16.410156 L 16.9375 16.527344 L 16.902344 16.640625 L 16.824219 16.851562 L 16.777344 16.949219 L 16.730469 17.042969 L 16.683594 17.132812 L 16.632812 17.21875 L 16.523438 17.375 L 16.464844 17.445312 L 16.40625 17.511719 L 16.34375 17.574219 L 16.277344 17.632812 L 16.210938 17.6875 L 16.144531 17.738281 L 16.074219 17.785156 L 16.003906 17.828125 L 15.929688 17.863281 L 15.851562 17.898438 L 15.773438 17.929688 L 15.695312 17.957031 L 15.613281 17.980469 L 15.535156 18 L 15.453125 18.019531 L 15.367188 18.03125 L 15.285156 18.042969 L 15.199219 18.050781 L 15.027344 18.058594 L 14.9375 18.054688 L 14.851562 18.050781 L 14.765625 18.042969 L 14.683594 18.03125 L 14.597656 18.019531 L 14.515625 18 L 14.4375 17.980469 L 14.355469 17.957031 L 14.277344 17.929688 L 14.203125 17.898438 L 14.125 17.863281 L 14.050781 17.828125 L 13.980469 17.785156 L 13.910156 17.738281 L 13.84375 17.6875 L 13.777344 17.632812 L 13.714844 17.574219 L 13.652344 17.511719 L 13.59375 17.445312 L 13.535156 17.375 L 13.480469 17.300781 L 13.429688 17.21875 L 13.378906 17.132812 L 13.332031 17.046875 L 13.285156 16.953125 L 13.242188 16.855469 L 13.164062 16.644531 L 13.125 16.53125 L 13.09375 16.417969 L 13.0625 16.292969 L 13.035156 16.167969 L 13.011719 16.03125 L 12.992188 15.894531 L 12.972656 15.75 L 12.960938 15.597656 L 12.949219 15.441406 L 12.941406 15.28125 L 12.9375 15.113281 L 12.933594 14.941406 L 12.9375 14.761719 L 12.941406 14.589844 L 12.949219 14.421875 L 12.960938 14.261719 L 12.972656 14.105469 L 12.992188 13.957031 L 13.011719 13.816406 L 13.035156 13.679688 L 13.0625 13.550781 L 13.09375 13.429688 L 13.125 13.3125 L 13.164062 13.199219 L 13.203125 13.089844 L 13.242188 12.988281 L 13.285156 12.890625 L 13.332031 12.796875 L 13.378906 12.707031 L 13.429688 12.625 L 13.484375 12.546875 L 13.539062 12.472656 L 13.597656 12.402344 L 13.65625 12.335938 L 13.71875 12.277344 L 13.785156 12.21875 L 13.847656 12.167969 L 13.917969 12.121094 L 13.988281 12.078125 L 14.058594 12.039062 L 14.132812 12.003906 L 14.210938 11.972656 L 14.289062 11.945312 L 14.367188 11.921875 L 14.449219 11.898438 L 14.53125 11.878906 L 14.613281 11.863281 L 14.785156 11.839844 L 14.871094 11.832031 L 14.960938 11.828125 L 15.136719 11.828125 L 15.222656 11.832031 L 15.308594 11.839844 L 15.472656 11.863281 L 15.554688 11.878906 L 15.632812 11.898438 L 15.789062 11.945312 L 15.863281 11.972656 L 15.941406 12.003906 L 16.011719 12.039062 L 16.085938 12.078125 L 16.15625 12.121094 L 16.222656 12.167969 L 16.289062 12.21875 L 16.414062 12.335938 L 16.472656 12.402344 L 16.53125 12.472656 L 16.585938 12.546875 L 16.640625 12.625 L 16.691406 12.707031 L 16.738281 12.796875 L 16.785156 12.890625 L 16.828125 12.988281 L 16.867188 13.089844 L 16.90625 13.199219 L 16.945312 13.3125 L 16.976562 13.429688 L 17.007812 13.550781 L 17.035156 13.679688 L 17.0625 13.816406 L 17.082031 13.957031 L 17.101562 14.105469 L 17.113281 14.261719 L 17.125 14.421875 L 17.132812 14.589844 L 17.140625 14.761719 Z M 16.355469 14.941406 L 16.351562 14.800781 L 16.351562 14.664062 L 16.347656 14.53125 L 16.339844 14.402344 L 16.332031 14.28125 L 16.324219 14.164062 L 16.3125 14.050781 L 16.300781 13.945312 L 16.285156 13.839844 L 16.269531 13.742188 L 16.25 13.648438 L 16.230469 13.558594 L 16.210938 13.472656 L 16.1875 13.390625 L 16.160156 13.3125 L 16.136719 13.238281 L 16.109375 13.167969 L 16.078125 13.101562 L 16.046875 13.039062 L 16.015625 12.980469 L 15.980469 12.921875 L 15.945312 12.871094 L 15.90625 12.820312 L 15.828125 12.734375 L 15.785156 12.695312 L 15.742188 12.660156 L 15.699219 12.628906 L 15.652344 12.601562 L 15.601562 12.574219 L 15.554688 12.550781 L 15.453125 12.511719 L 15.398438 12.496094 L 15.289062 12.472656 L 15.230469 12.464844 L 15.113281 12.457031 L 15.050781 12.453125 L 14.863281 12.464844 L 14.804688 12.472656 L 14.6875 12.496094 L 14.632812 12.511719 L 14.578125 12.53125 L 14.527344 12.550781 L 14.476562 12.574219 L 14.425781 12.601562 L 14.378906 12.628906 L 14.335938 12.660156 L 14.289062 12.699219 L 14.246094 12.738281 L 14.207031 12.78125 L 14.164062 12.824219 L 14.128906 12.875 L 14.089844 12.925781 L 14.054688 12.984375 L 14.023438 13.042969 L 13.992188 13.105469 L 13.960938 13.171875 L 13.933594 13.242188 L 13.910156 13.316406 L 13.882812 13.394531 L 13.859375 13.476562 L 13.839844 13.5625 L 13.820312 13.652344 L 13.800781 13.746094 L 13.785156 13.84375 L 13.769531 13.949219 L 13.757812 14.054688 L 13.746094 14.167969 L 13.738281 14.285156 L 13.730469 14.40625 L 13.722656 14.535156 L 13.71875 14.664062 L 13.71875 14.800781 L 13.714844 14.941406 L 13.71875 15.078125 L 13.71875 15.210938 L 13.722656 15.339844 L 13.730469 15.464844 L 13.746094 15.699219 L 13.757812 15.808594 L 13.769531 15.914062 L 13.785156 16.019531 L 13.800781 16.117188 L 13.839844 16.296875 L 13.863281 16.386719 L 13.886719 16.46875 L 13.910156 16.546875 L 13.9375 16.621094 L 13.964844 16.691406 L 13.996094 16.761719 L 14.027344 16.824219 L 14.058594 16.882812 L 14.09375 16.941406 L 14.132812 16.992188 L 14.167969 17.042969 L 14.210938 17.089844 L 14.25 17.132812 L 14.335938 17.210938 L 14.429688 17.273438 L 14.476562 17.300781 L 14.578125 17.347656 L 14.628906 17.363281 L 14.683594 17.382812 L 14.738281 17.394531 L 14.796875 17.40625 L 14.851562 17.414062 L 14.914062 17.421875 L 14.972656 17.425781 L 15.09375 17.425781 L 15.15625 17.421875 L 15.210938 17.414062 L 15.269531 17.40625 L 15.378906 17.382812 L 15.433594 17.363281 L 15.484375 17.347656 L 15.585938 17.300781 L 15.632812 17.273438 L 15.726562 17.210938 L 15.8125 17.132812 L 15.851562 17.089844 L 15.890625 17.042969 L 15.925781 16.992188 L 15.964844 16.941406 L 15.996094 16.882812 L 16.03125 16.824219 L 16.0625 16.761719 L 16.09375 16.691406 L 16.121094 16.621094 L 16.148438 16.546875 L 16.175781 16.46875 L 16.199219 16.386719 L 16.21875 16.296875 L 16.242188 16.207031 L 16.261719 16.117188 L 16.277344 16.019531 L 16.308594 15.808594 L 16.320312 15.699219 L 16.332031 15.582031 L 16.339844 15.464844 L 16.347656 15.339844 L 16.351562 15.210938 L 16.351562 15.078125 Z M 16.355469 14.941406 "/>
<path fill-rule="nonzero" fill="rgb(30.196078%, 30.196078%, 30.196078%)" fill-opacity="1" d="M 18.289062 17.972656 L 18.289062 17.03125 L 19.125 17.03125 L 19.125 17.972656 Z M 18.289062 17.972656 "/>
<path fill-rule="nonzero" fill="rgb(30.196078%, 30.196078%, 30.196078%)" fill-opacity="1" d="M 23.714844 16.601562 L 23.714844 17.972656 L 22.984375 17.972656 L 22.984375 16.601562 L 20.132812 16.601562 L 20.132812 16 L 22.902344 11.917969 L 23.714844 11.917969 L 23.714844 15.992188 L 24.566406 15.992188 L 24.566406 16.601562 Z M 22.984375 12.789062 L 22.984375 12.792969 L 22.980469 12.800781 L 22.976562 12.804688 L 22.96875 12.820312 L 22.964844 12.832031 L 22.960938 12.839844 L 22.953125 12.851562 L 22.949219 12.863281 L 22.925781 12.898438 L 22.921875 12.914062 L 22.914062 12.925781 L 22.90625 12.941406 L 22.898438 12.953125 L 22.882812 12.984375 L 22.871094 12.996094 L 22.839844 13.058594 L 22.828125 13.074219 L 22.8125 13.105469 L 22.800781 13.125 L 22.785156 13.15625 L 22.773438 13.171875 L 22.757812 13.203125 L 22.75 13.214844 L 22.742188 13.230469 L 22.726562 13.253906 L 22.71875 13.269531 L 22.710938 13.277344 L 22.695312 13.300781 L 21.144531 15.585938 L 21.136719 15.601562 L 21.128906 15.609375 L 21.125 15.617188 L 21.117188 15.625 L 21.113281 15.636719 L 21.105469 15.644531 L 21.089844 15.667969 L 21.082031 15.675781 L 21.042969 15.734375 L 21.03125 15.746094 L 20.992188 15.804688 L 20.980469 15.816406 L 20.972656 15.828125 L 20.964844 15.835938 L 20.949219 15.859375 L 20.9375 15.871094 L 20.914062 15.90625 L 20.90625 15.914062 L 20.890625 15.9375 L 20.867188 15.960938 L 20.863281 15.96875 L 20.855469 15.976562 L 20.851562 15.984375 L 20.84375 15.992188 L 22.984375 15.992188 Z M 22.984375 12.789062 "/>
<path fill="none" stroke-width="1.066978" stroke-linecap="butt" stroke-linejoin="round" stroke="rgb(20%, 20%, 20%)" stroke-opacity="1" stroke-miterlimit="10" d="M 27.015625 331.40625 L 29.753906 331.40625 "/>
<path fill="none" stroke-width="1.066978" stroke-linecap="butt" stroke-linejoin="round" stroke="rgb(20%, 20%, 20%)" stroke-opacity="1" stroke-miterlimit="10" d="M 27.015625 252.292969 L 29.753906 252.292969 "/>
<path fill="none" stroke-width="1.066978" stroke-linecap="butt" stroke-linejoin="round" stroke="rgb(20%, 20%, 20%)" stroke-opacity="1" stroke-miterlimit="10" d="M 27.015625 173.175781 L 29.753906 173.175781 "/>
<path fill="none" stroke-width="1.066978" stroke-linecap="butt" stroke-linejoin="round" stroke="rgb(20%, 20%, 20%)" stroke-opacity="1" stroke-miterlimit="10" d="M 27.015625 94.058594 L 29.753906 94.058594 "/>
<path fill="none" stroke-width="1.066978" stroke-linecap="butt" stroke-linejoin="round" stroke="rgb(20%, 20%, 20%)" stroke-opacity="1" stroke-miterlimit="10" d="M 27.015625 14.945312 L 29.753906 14.945312 "/>
<path fill="none" stroke-width="1.066978" stroke-linecap="butt" stroke-linejoin="round" stroke="rgb(20%, 20%, 20%)" stroke-opacity="1" stroke-miterlimit="10" d="M 51.3125 349.929688 L 51.3125 347.1875 "/>
<path fill="none" stroke-width="1.066978" stroke-linecap="butt" stroke-linejoin="round" stroke="rgb(20%, 20%, 20%)" stroke-opacity="1" stroke-miterlimit="10" d="M 159.09375 349.929688 L 159.09375 347.1875 "/>
<path fill="none" stroke-width="1.066978" stroke-linecap="butt" stroke-linejoin="round" stroke="rgb(20%, 20%, 20%)" stroke-opacity="1" stroke-miterlimit="10" d="M 266.878906 349.929688 L 266.878906 347.1875 "/>
<path fill="none" stroke-width="1.066978" stroke-linecap="butt" stroke-linejoin="round" stroke="rgb(20%, 20%, 20%)" stroke-opacity="1" stroke-miterlimit="10" d="M 374.660156 349.929688 L 374.660156 347.1875 "/>
<path fill="none" stroke-width="1.066978" stroke-linecap="butt" stroke-linejoin="round" stroke="rgb(20%, 20%, 20%)" stroke-opacity="1" stroke-miterlimit="10" d="M 482.445312 349.929688 L 482.445312 347.1875 "/>
<path fill-rule="nonzero" fill="rgb(30.196078%, 30.196078%, 30.196078%)" fill-opacity="1" d="M 47.789062 356.179688 L 47.789062 355.492188 L 49.9375 355.492188 L 49.9375 356.179688 Z M 47.789062 356.179688 "/>
<path fill-rule="nonzero" fill="rgb(30.196078%, 30.196078%, 30.196078%)" fill-opacity="1" d="M 54.117188 356.804688 L 54.117188 358.171875 L 53.386719 358.171875 L 53.386719 356.804688 L 50.53125 356.804688 L 50.53125 356.203125 L 53.304688 352.121094 L 54.117188 352.121094 L 54.117188 356.191406 L 54.964844 356.191406 L 54.964844 356.804688 Z M 53.386719 352.992188 L 53.382812 352.996094 L 53.378906 353.003906 L 53.378906 353.007812 L 53.367188 353.03125 L 53.359375 353.042969 L 53.355469 353.054688 L 53.347656 353.066406 L 53.34375 353.078125 L 53.328125 353.101562 L 53.320312 353.117188 L 53.304688 353.140625 L 53.289062 353.171875 L 53.28125 353.183594 L 53.257812 353.230469 L 53.246094 353.246094 L 53.230469 353.277344 L 53.21875 353.292969 L 53.203125 353.324219 L 53.191406 353.339844 L 53.183594 353.359375 L 53.175781 353.375 L 53.164062 353.390625 L 53.15625 353.402344 L 53.140625 353.433594 L 53.109375 353.480469 L 53.105469 353.492188 L 53.097656 353.503906 L 51.546875 355.789062 L 51.542969 355.796875 L 51.535156 355.804688 L 51.53125 355.8125 L 51.523438 355.820312 L 51.519531 355.828125 L 51.511719 355.839844 L 51.503906 355.847656 L 51.496094 355.859375 L 51.488281 355.867188 L 51.410156 355.984375 L 51.398438 355.996094 L 51.382812 356.019531 L 51.375 356.027344 L 51.367188 356.039062 L 51.355469 356.050781 L 51.324219 356.097656 L 51.3125 356.105469 L 51.296875 356.128906 L 51.289062 356.136719 L 51.28125 356.148438 L 51.273438 356.15625 L 51.269531 356.164062 L 51.261719 356.171875 L 51.257812 356.179688 L 51.246094 356.191406 L 53.386719 356.191406 Z M 53.386719 352.992188 "/>
<path fill-rule="nonzero" fill="rgb(30.196078%, 30.196078%, 30.196078%)" fill-opacity="1" d="M 155.574219 356.179688 L 155.574219 355.492188 L 157.722656 355.492188 L 157.722656 356.179688 Z M 155.574219 356.179688 "/>
<path fill-rule="nonzero" fill="rgb(30.196078%, 30.196078%, 30.196078%)" fill-opacity="1" d="M 158.554688 358.171875 L 158.554688 357.628906 L 158.601562 357.527344 L 158.648438 357.433594 L 158.695312 357.335938 L 158.796875 357.15625 L 158.851562 357.066406 L 158.910156 356.984375 L 158.964844 356.902344 L 159.027344 356.820312 L 159.089844 356.742188 L 159.152344 356.667969 L 159.214844 356.589844 L 159.28125 356.519531 L 159.347656 356.445312 L 159.414062 356.375 L 159.480469 356.308594 L 159.546875 356.238281 L 159.617188 356.171875 L 159.683594 356.109375 L 159.894531 355.921875 L 159.960938 355.863281 L 160.101562 355.746094 L 160.167969 355.6875 L 160.238281 355.632812 L 160.304688 355.574219 L 160.375 355.519531 L 160.441406 355.46875 L 160.441406 355.464844 L 160.507812 355.414062 L 160.578125 355.359375 L 160.640625 355.308594 L 160.707031 355.253906 L 160.769531 355.199219 L 160.828125 355.148438 L 160.890625 355.09375 L 160.949219 355.039062 L 161.003906 354.988281 L 161.113281 354.878906 L 161.167969 354.828125 L 161.214844 354.773438 L 161.261719 354.714844 L 161.308594 354.660156 L 161.351562 354.605469 L 161.394531 354.546875 L 161.429688 354.492188 L 161.46875 354.433594 L 161.503906 354.375 L 161.535156 354.316406 L 161.566406 354.253906 L 161.613281 354.128906 L 161.632812 354.0625 L 161.648438 353.996094 L 161.660156 353.929688 L 161.667969 353.859375 L 161.671875 353.785156 L 161.675781 353.714844 L 161.675781 353.664062 L 161.671875 353.613281 L 161.664062 353.519531 L 161.648438 353.425781 L 161.636719 353.382812 L 161.625 353.34375 L 161.613281 353.300781 L 161.582031 353.222656 L 161.5625 353.1875 L 161.542969 353.148438 L 161.523438 353.113281 L 161.503906 353.082031 L 161.480469 353.046875 L 161.457031 353.015625 L 161.429688 352.988281 L 161.402344 352.957031 L 161.375 352.929688 L 161.28125 352.859375 L 161.246094 352.835938 L 161.214844 352.816406 L 161.175781 352.796875 L 161.140625 352.777344 L 161.0625 352.746094 L 161.023438 352.734375 L 160.894531 352.699219 L 160.808594 352.683594 L 160.761719 352.675781 L 160.621094 352.664062 L 160.523438 352.664062 L 160.480469 352.667969 L 160.433594 352.671875 L 160.390625 352.675781 L 160.34375 352.679688 L 160.257812 352.695312 L 160.171875 352.71875 L 160.09375 352.742188 L 160.015625 352.773438 L 159.976562 352.792969 L 159.941406 352.808594 L 159.90625 352.832031 L 159.871094 352.851562 L 159.835938 352.875 L 159.804688 352.898438 L 159.769531 352.921875 L 159.738281 352.949219 L 159.652344 353.035156 L 159.625 353.066406 L 159.601562 353.101562 L 159.574219 353.136719 L 159.550781 353.171875 L 159.53125 353.207031 L 159.507812 353.246094 L 159.488281 353.285156 L 159.457031 353.363281 L 159.425781 353.449219 L 159.414062 353.496094 L 159.40625 353.542969 L 159.394531 353.589844 L 159.386719 353.636719 L 159.378906 353.6875 L 158.589844 353.613281 L 158.597656 353.550781 L 158.609375 353.484375 L 158.621094 353.421875 L 158.652344 353.296875 L 158.671875 353.238281 L 158.695312 353.175781 L 158.742188 353.058594 L 158.769531 353 L 158.800781 352.945312 L 158.832031 352.886719 L 158.863281 352.835938 L 158.902344 352.78125 L 158.9375 352.730469 L 158.980469 352.679688 L 159.019531 352.632812 L 159.066406 352.585938 L 159.113281 352.542969 L 159.160156 352.496094 L 159.210938 352.453125 L 159.375 352.335938 L 159.433594 352.300781 L 159.558594 352.238281 L 159.625 352.207031 L 159.757812 352.152344 L 159.828125 352.128906 L 159.902344 352.109375 L 159.980469 352.089844 L 160.136719 352.058594 L 160.21875 352.050781 L 160.304688 352.039062 L 160.390625 352.035156 L 160.480469 352.03125 L 160.570312 352.03125 L 160.570312 352.027344 L 160.660156 352.03125 L 160.832031 352.039062 L 160.996094 352.054688 L 161.078125 352.066406 L 161.152344 352.082031 L 161.230469 352.097656 L 161.300781 352.117188 L 161.375 352.136719 L 161.445312 352.160156 L 161.511719 352.183594 L 161.636719 352.238281 L 161.699219 352.269531 L 161.757812 352.304688 L 161.8125 352.335938 L 161.867188 352.375 L 161.96875 352.453125 L 162.015625 352.496094 L 162.058594 352.542969 L 162.105469 352.589844 L 162.183594 352.691406 L 162.21875 352.742188 L 162.253906 352.796875 L 162.285156 352.855469 L 162.3125 352.914062 L 162.339844 352.976562 L 162.339844 352.972656 L 162.367188 353.039062 L 162.386719 353.101562 L 162.40625 353.167969 L 162.4375 353.308594 L 162.449219 353.378906 L 162.457031 353.453125 L 162.464844 353.53125 L 162.46875 353.609375 L 162.46875 353.75 L 162.460938 353.867188 L 162.453125 353.925781 L 162.429688 354.042969 L 162.414062 354.101562 L 162.398438 354.15625 L 162.378906 354.210938 L 162.359375 354.269531 L 162.335938 354.324219 L 162.3125 354.375 L 162.257812 354.484375 L 162.230469 354.535156 L 162.203125 354.589844 L 162.167969 354.640625 L 162.136719 354.691406 L 162.066406 354.792969 L 162.027344 354.84375 L 161.992188 354.890625 L 161.953125 354.941406 L 161.910156 354.988281 L 161.871094 355.039062 L 161.785156 355.132812 L 161.597656 355.320312 L 161.546875 355.367188 L 161.5 355.410156 L 161.398438 355.503906 L 161.347656 355.546875 L 161.246094 355.640625 L 161.195312 355.683594 L 161.140625 355.730469 L 161.089844 355.773438 L 161.035156 355.816406 L 160.933594 355.902344 L 160.878906 355.949219 L 160.824219 355.992188 L 160.773438 356.035156 L 160.71875 356.078125 L 160.667969 356.125 L 160.558594 356.210938 L 160.253906 356.46875 L 160.207031 356.515625 L 160.160156 356.558594 L 160.109375 356.601562 L 160.066406 356.644531 L 160.019531 356.6875 L 159.976562 356.734375 L 159.933594 356.777344 L 159.890625 356.824219 L 159.847656 356.867188 L 159.808594 356.914062 L 159.769531 356.957031 L 159.730469 357.003906 L 159.695312 357.046875 L 159.65625 357.09375 L 159.625 357.136719 L 159.589844 357.183594 L 159.558594 357.230469 L 159.53125 357.277344 L 159.5 357.324219 L 159.476562 357.371094 L 159.449219 357.417969 L 159.425781 357.46875 L 159.40625 357.515625 L 162.5625 357.515625 L 162.5625 358.171875 Z M 158.554688 358.171875 "/>
<path fill-rule="nonzero" fill="rgb(30.196078%, 30.196078%, 30.196078%)" fill-opacity="1" d="M 268.980469 355.144531 L 268.980469 355.316406 L 268.972656 355.484375 L 268.964844 355.644531 L 268.953125 355.796875 L 268.9375 355.949219 L 268.921875 356.09375 L 268.898438 356.230469 L 268.875 356.363281 L 268.84375 356.492188 L 268.8125 356.613281 L 268.78125 356.730469 L 268.742188 356.84375 L 268.703125 356.949219 L 268.664062 357.050781 L 268.617188 357.152344 L 268.574219 357.246094 L 268.523438 357.335938 L 268.472656 357.417969 L 268.417969 357.5 L 268.363281 357.578125 L 268.304688 357.648438 L 268.246094 357.714844 L 268.183594 357.777344 L 268.117188 357.835938 L 268.050781 357.890625 L 267.984375 357.941406 L 267.914062 357.988281 L 267.84375 358.027344 L 267.769531 358.066406 L 267.691406 358.101562 L 267.613281 358.132812 L 267.535156 358.15625 L 267.457031 358.183594 L 267.375 358.203125 L 267.210938 358.234375 L 267.125 358.246094 L 267.039062 358.253906 L 266.953125 358.257812 L 266.777344 358.257812 L 266.691406 358.253906 L 266.605469 358.246094 L 266.523438 358.234375 L 266.4375 358.21875 L 266.355469 358.203125 L 266.277344 358.183594 L 266.195312 358.15625 L 266.117188 358.132812 L 266.042969 358.101562 L 265.964844 358.066406 L 265.894531 358.027344 L 265.820312 357.988281 L 265.75 357.941406 L 265.683594 357.890625 L 265.617188 357.835938 L 265.554688 357.777344 L 265.492188 357.714844 L 265.433594 357.648438 L 265.375 357.578125 L 265.320312 357.5 L 265.269531 357.421875 L 265.21875 357.335938 L 265.125 357.15625 L 265.082031 357.054688 L 265.042969 356.953125 L 265.003906 356.847656 L 264.96875 356.734375 L 264.933594 356.617188 L 264.902344 356.496094 L 264.875 356.367188 L 264.851562 356.234375 L 264.832031 356.097656 L 264.8125 355.953125 L 264.800781 355.800781 L 264.789062 355.644531 L 264.78125 355.484375 L 264.777344 355.316406 L 264.773438 355.144531 L 264.777344 354.964844 L 264.78125 354.792969 L 264.789062 354.625 L 264.800781 354.464844 L 264.8125 354.308594 L 264.832031 354.160156 L 264.851562 354.019531 L 264.875 353.882812 L 264.902344 353.753906 L 264.933594 353.632812 L 264.96875 353.515625 L 265.003906 353.402344 L 265.042969 353.292969 L 265.082031 353.191406 L 265.125 353.089844 L 265.171875 353 L 265.222656 352.910156 L 265.269531 352.828125 L 265.324219 352.746094 L 265.378906 352.671875 L 265.496094 352.539062 L 265.558594 352.480469 L 265.625 352.421875 L 265.6875 352.371094 L 265.757812 352.324219 L 265.828125 352.28125 L 265.898438 352.242188 L 265.972656 352.207031 L 266.050781 352.175781 L 266.207031 352.121094 L 266.371094 352.082031 L 266.453125 352.066406 L 266.539062 352.050781 L 266.625 352.042969 L 266.714844 352.035156 L 266.800781 352.03125 L 266.890625 352.03125 L 266.890625 352.027344 L 266.980469 352.03125 L 267.0625 352.035156 L 267.148438 352.042969 L 267.230469 352.050781 L 267.394531 352.082031 L 267.550781 352.121094 L 267.628906 352.148438 L 267.703125 352.175781 L 267.78125 352.207031 L 267.855469 352.242188 L 267.925781 352.28125 L 267.996094 352.324219 L 268.0625 352.371094 L 268.128906 352.421875 L 268.253906 352.539062 L 268.371094 352.671875 L 268.425781 352.746094 L 268.480469 352.828125 L 268.53125 352.910156 L 268.625 353.089844 L 268.667969 353.191406 L 268.707031 353.292969 L 268.746094 353.402344 L 268.785156 353.515625 L 268.816406 353.632812 L 268.847656 353.753906 L 268.875 353.882812 L 268.902344 354.019531 L 268.921875 354.160156 L 268.941406 354.308594 L 268.953125 354.464844 L 268.964844 354.625 L 268.972656 354.792969 L 268.980469 354.964844 Z M 268.195312 355.144531 L 268.195312 355.003906 L 268.191406 354.867188 L 268.1875 354.734375 L 268.179688 354.605469 L 268.171875 354.484375 L 268.164062 354.367188 L 268.152344 354.253906 L 268.140625 354.144531 L 268.125 354.042969 L 268.109375 353.945312 L 268.089844 353.851562 L 268.070312 353.761719 L 268.050781 353.675781 L 268.027344 353.59375 L 268.003906 353.515625 L 267.976562 353.4375 L 267.949219 353.367188 L 267.917969 353.300781 L 267.886719 353.238281 L 267.855469 353.179688 L 267.820312 353.125 L 267.785156 353.074219 L 267.746094 353.023438 L 267.707031 352.976562 L 267.667969 352.9375 L 267.625 352.898438 L 267.582031 352.863281 L 267.539062 352.832031 L 267.492188 352.800781 L 267.441406 352.777344 L 267.394531 352.753906 L 267.292969 352.714844 L 267.238281 352.699219 L 267.128906 352.675781 L 267.011719 352.660156 L 266.953125 352.65625 L 266.828125 352.65625 L 266.765625 352.660156 L 266.703125 352.667969 L 266.644531 352.675781 L 266.527344 352.699219 L 266.472656 352.714844 L 266.417969 352.734375 L 266.367188 352.753906 L 266.316406 352.777344 L 266.269531 352.800781 L 266.21875 352.832031 L 266.175781 352.863281 L 266.128906 352.898438 L 266.085938 352.9375 L 266.046875 352.980469 L 266.003906 353.027344 L 265.96875 353.078125 L 265.929688 353.128906 L 265.894531 353.183594 L 265.863281 353.242188 L 265.832031 353.304688 L 265.800781 353.375 L 265.773438 353.445312 L 265.75 353.519531 L 265.722656 353.597656 L 265.699219 353.679688 L 265.679688 353.765625 L 265.660156 353.855469 L 265.640625 353.949219 L 265.625 354.046875 L 265.609375 354.152344 L 265.597656 354.257812 L 265.585938 354.371094 L 265.578125 354.488281 L 265.570312 354.609375 L 265.5625 354.734375 L 265.558594 354.867188 L 265.558594 355.003906 L 265.554688 355.144531 L 265.558594 355.28125 L 265.558594 355.414062 L 265.5625 355.542969 L 265.570312 355.667969 L 265.585938 355.902344 L 265.597656 356.011719 L 265.609375 356.117188 L 265.625 356.21875 L 265.640625 356.316406 L 265.660156 356.410156 L 265.679688 356.5 L 265.703125 356.585938 L 265.75 356.75 L 265.777344 356.824219 L 265.804688 356.894531 L 265.867188 357.027344 L 265.898438 357.085938 L 265.933594 357.144531 L 265.972656 357.195312 L 266.007812 357.246094 L 266.050781 357.292969 L 266.089844 357.335938 L 266.132812 357.375 L 266.175781 357.410156 L 266.222656 357.445312 L 266.269531 357.476562 L 266.316406 357.503906 L 266.367188 357.527344 L 266.46875 357.566406 L 266.578125 357.597656 L 266.636719 357.609375 L 266.691406 357.617188 L 266.753906 357.625 L 266.8125 357.625 L 266.875 357.628906 L 266.9375 357.625 L 266.996094 357.625 L 267.054688 357.617188 L 267.109375 357.609375 L 267.164062 357.597656 L 267.273438 357.566406 L 267.375 357.527344 L 267.425781 357.503906 L 267.472656 357.476562 L 267.519531 357.445312 L 267.566406 357.410156 L 267.609375 357.375 L 267.652344 357.335938 L 267.691406 357.292969 L 267.730469 357.246094 L 267.769531 357.195312 L 267.804688 357.144531 L 267.835938 357.085938 L 267.871094 357.027344 L 267.933594 356.894531 L 267.960938 356.824219 L 267.988281 356.75 L 268.015625 356.667969 L 268.039062 356.585938 L 268.0625 356.5 L 268.082031 356.410156 L 268.101562 356.316406 L 268.117188 356.21875 L 268.132812 356.117188 L 268.148438 356.011719 L 268.160156 355.902344 L 268.171875 355.785156 L 268.179688 355.667969 L 268.1875 355.542969 L 268.191406 355.414062 L 268.195312 355.28125 Z M 268.195312 355.144531 "/>
<path fill-rule="nonzero" fill="rgb(30.196078%, 30.196078%, 30.196078%)" fill-opacity="1" d="M 372.65625 358.171875 L 372.65625 357.628906 L 372.699219 357.527344 L 372.746094 357.433594 L 372.796875 357.335938 L 372.898438 357.15625 L 372.953125 357.066406 L 373.007812 356.984375 L 373.066406 356.902344 L 373.128906 356.820312 L 373.1875 356.742188 L 373.253906 356.667969 L 373.316406 356.589844 L 373.382812 356.519531 L 373.449219 356.445312 L 373.515625 356.375 L 373.582031 356.308594 L 373.648438 356.238281 L 373.714844 356.171875 L 373.925781 355.984375 L 373.992188 355.921875 L 374.132812 355.804688 L 374.199219 355.746094 L 374.269531 355.6875 L 374.335938 355.632812 L 374.40625 355.574219 L 374.472656 355.519531 L 374.542969 355.46875 L 374.542969 355.464844 L 374.609375 355.414062 L 374.675781 355.359375 L 374.742188 355.308594 L 374.867188 355.199219 L 374.929688 355.148438 L 375.046875 355.039062 L 375.105469 354.988281 L 375.265625 354.828125 L 375.316406 354.773438 L 375.363281 354.714844 L 375.410156 354.660156 L 375.453125 354.605469 L 375.492188 354.546875 L 375.53125 354.492188 L 375.570312 354.433594 L 375.605469 354.375 L 375.636719 354.316406 L 375.691406 354.191406 L 375.714844 354.128906 L 375.734375 354.0625 L 375.746094 353.996094 L 375.761719 353.929688 L 375.769531 353.859375 L 375.773438 353.785156 L 375.777344 353.714844 L 375.773438 353.664062 L 375.773438 353.613281 L 375.769531 353.566406 L 375.761719 353.519531 L 375.757812 353.472656 L 375.746094 353.425781 L 375.738281 353.382812 L 375.726562 353.34375 L 375.710938 353.300781 L 375.699219 353.261719 L 375.683594 353.222656 L 375.664062 353.1875 L 375.644531 353.148438 L 375.625 353.113281 L 375.605469 353.082031 L 375.582031 353.046875 L 375.554688 353.015625 L 375.53125 352.988281 L 375.503906 352.957031 L 375.476562 352.929688 L 375.382812 352.859375 L 375.347656 352.835938 L 375.242188 352.777344 L 375.164062 352.746094 L 375.121094 352.734375 L 375.082031 352.722656 L 374.996094 352.699219 L 374.910156 352.683594 L 374.863281 352.675781 L 374.769531 352.667969 L 374.71875 352.664062 L 374.625 352.664062 L 374.578125 352.667969 L 374.535156 352.671875 L 374.488281 352.675781 L 374.445312 352.679688 L 374.359375 352.695312 L 374.273438 352.71875 L 374.234375 352.730469 L 374.191406 352.742188 L 374.152344 352.757812 L 374.117188 352.773438 L 374.078125 352.792969 L 374.042969 352.808594 L 374.007812 352.832031 L 373.972656 352.851562 L 373.902344 352.898438 L 373.871094 352.921875 L 373.839844 352.949219 L 373.753906 353.035156 L 373.726562 353.066406 L 373.703125 353.101562 L 373.675781 353.136719 L 373.652344 353.171875 L 373.632812 353.207031 L 373.609375 353.246094 L 373.589844 353.285156 L 373.558594 353.363281 L 373.527344 353.449219 L 373.503906 353.542969 L 373.488281 353.636719 L 373.480469 353.6875 L 372.691406 353.613281 L 372.699219 353.550781 L 372.710938 353.484375 L 372.722656 353.421875 L 372.753906 353.296875 L 372.773438 353.238281 L 372.796875 353.175781 L 372.816406 353.117188 L 372.871094 353 L 372.898438 352.945312 L 372.933594 352.886719 L 372.964844 352.835938 L 373 352.78125 L 373.078125 352.679688 L 373.121094 352.632812 L 373.167969 352.585938 L 373.214844 352.542969 L 373.261719 352.496094 L 373.3125 352.453125 L 373.476562 352.335938 L 373.535156 352.300781 L 373.722656 352.207031 L 373.789062 352.179688 L 373.859375 352.152344 L 373.929688 352.128906 L 374.003906 352.109375 L 374.082031 352.089844 L 374.15625 352.074219 L 374.238281 352.058594 L 374.320312 352.050781 L 374.40625 352.039062 L 374.492188 352.035156 L 374.582031 352.03125 L 374.671875 352.03125 L 374.671875 352.027344 L 374.761719 352.03125 L 374.933594 352.039062 L 375.097656 352.054688 L 375.175781 352.066406 L 375.253906 352.082031 L 375.328125 352.097656 L 375.476562 352.136719 L 375.609375 352.183594 L 375.675781 352.210938 L 375.738281 352.238281 L 375.800781 352.269531 L 375.855469 352.304688 L 375.914062 352.335938 L 375.96875 352.375 L 376.019531 352.414062 L 376.066406 352.453125 L 376.117188 352.496094 L 376.203125 352.589844 L 376.246094 352.640625 L 376.285156 352.691406 L 376.320312 352.742188 L 376.355469 352.796875 L 376.386719 352.855469 L 376.414062 352.914062 L 376.441406 352.976562 L 376.441406 352.972656 L 376.464844 353.039062 L 376.488281 353.101562 L 376.507812 353.167969 L 376.539062 353.308594 L 376.550781 353.378906 L 376.558594 353.453125 L 376.566406 353.53125 L 376.570312 353.609375 L 376.570312 353.75 L 376.566406 353.808594 L 376.542969 353.984375 L 376.53125 354.042969 L 376.515625 354.101562 L 376.5 354.15625 L 376.480469 354.210938 L 376.457031 354.269531 L 376.4375 354.324219 L 376.414062 354.375 L 376.359375 354.484375 L 376.332031 354.535156 L 376.300781 354.589844 L 376.238281 354.691406 L 376.167969 354.792969 L 376.128906 354.84375 L 376.09375 354.890625 L 376.054688 354.941406 L 376.011719 354.988281 L 375.972656 355.039062 L 375.929688 355.085938 L 375.882812 355.132812 L 375.839844 355.179688 L 375.746094 355.273438 L 375.695312 355.320312 L 375.648438 355.367188 L 375.597656 355.410156 L 375.550781 355.457031 L 375.5 355.503906 L 375.449219 355.546875 L 375.347656 355.640625 L 375.292969 355.683594 L 375.242188 355.730469 L 375.191406 355.773438 L 375.136719 355.816406 L 375.085938 355.859375 L 375.03125 355.902344 L 374.980469 355.949219 L 374.925781 355.992188 L 374.875 356.035156 L 374.820312 356.078125 L 374.765625 356.125 L 374.714844 356.167969 L 374.660156 356.210938 L 374.558594 356.296875 L 374.503906 356.339844 L 374.457031 356.382812 L 374.355469 356.46875 L 374.308594 356.515625 L 374.257812 356.558594 L 374.164062 356.644531 L 374.121094 356.6875 L 374.078125 356.734375 L 374.035156 356.777344 L 373.992188 356.824219 L 373.949219 356.867188 L 373.910156 356.914062 L 373.871094 356.957031 L 373.832031 357.003906 L 373.792969 357.046875 L 373.757812 357.09375 L 373.722656 357.136719 L 373.628906 357.277344 L 373.574219 357.371094 L 373.550781 357.417969 L 373.527344 357.46875 L 373.507812 357.515625 L 376.664062 357.515625 L 376.664062 358.171875 Z M 372.65625 358.171875 "/>
<path fill-rule="nonzero" fill="rgb(30.196078%, 30.196078%, 30.196078%)" fill-opacity="1" d="M 483.78125 356.804688 L 483.78125 358.171875 L 483.050781 358.171875 L 483.050781 356.804688 L 480.199219 356.804688 L 480.199219 356.203125 L 482.96875 352.121094 L 483.78125 352.121094 L 483.78125 356.191406 L 484.632812 356.191406 L 484.632812 356.804688 Z M 483.050781 352.992188 L 483.050781 352.996094 L 483.046875 353.003906 L 483.042969 353.007812 L 483.03125 353.03125 L 483.027344 353.042969 L 483.019531 353.054688 L 483.015625 353.066406 L 483 353.089844 L 482.996094 353.101562 L 482.988281 353.117188 L 482.972656 353.140625 L 482.957031 353.171875 L 482.949219 353.183594 L 482.941406 353.199219 L 482.929688 353.214844 L 482.90625 353.261719 L 482.894531 353.277344 L 482.878906 353.308594 L 482.867188 353.324219 L 482.859375 353.339844 L 482.851562 353.359375 L 482.839844 353.375 L 482.832031 353.390625 L 482.824219 353.402344 L 482.808594 353.433594 L 482.761719 353.503906 L 481.210938 355.789062 L 481.199219 355.8125 L 481.183594 355.828125 L 481.179688 355.839844 L 481.171875 355.847656 L 481.164062 355.859375 L 481.15625 355.867188 L 481.101562 355.949219 L 481.089844 355.960938 L 481.050781 356.019531 L 481.039062 356.027344 L 481.007812 356.074219 L 480.996094 356.085938 L 480.988281 356.097656 L 480.980469 356.105469 L 480.964844 356.128906 L 480.957031 356.136719 L 480.949219 356.148438 L 480.933594 356.164062 L 480.929688 356.171875 L 480.921875 356.179688 L 480.917969 356.1875 L 480.910156 356.191406 L 483.050781 356.191406 Z M 483.050781 352.992188 "/>
<path fill-rule="nonzero" fill="rgb(0%, 0%, 0%)" fill-opacity="1" d="M 7.566406 173.101562 L 7.671875 173.140625 L 7.773438 173.183594 L 7.875 173.222656 L 7.972656 173.265625 L 8.066406 173.308594 L 8.160156 173.347656 L 8.253906 173.390625 L 8.339844 173.433594 L 8.429688 173.476562 L 8.511719 173.519531 L 8.597656 173.5625 L 8.679688 173.605469 L 8.757812 173.648438 L 8.90625 173.742188 L 8.976562 173.789062 L 9.042969 173.839844 L 9.109375 173.886719 L 9.171875 173.9375 L 9.234375 173.992188 L 9.292969 174.042969 L 9.347656 174.097656 L 9.398438 174.15625 L 9.449219 174.210938 L 9.542969 174.328125 L 9.582031 174.390625 L 9.621094 174.449219 L 9.65625 174.511719 L 9.6875 174.578125 L 9.71875 174.640625 L 9.746094 174.710938 L 9.773438 174.777344 L 9.792969 174.851562 L 9.808594 174.921875 L 9.824219 175 L 9.835938 175.074219 L 9.84375 175.15625 L 9.847656 175.234375 L 9.851562 175.316406 L 9.851562 175.425781 L 9.847656 175.460938 L 9.847656 175.527344 L 9.84375 175.5625 L 9.84375 175.625 L 9.835938 175.6875 L 9.835938 175.71875 L 9.832031 175.75 L 9.828125 175.785156 L 9.824219 175.816406 L 9.816406 175.847656 L 9.8125 175.882812 L 9.804688 175.917969 L 9.796875 175.949219 L 9.792969 175.984375 L 9.066406 175.984375 L 9.070312 175.964844 L 9.074219 175.941406 L 9.074219 175.921875 L 9.078125 175.898438 L 9.078125 175.875 L 9.082031 175.851562 L 9.082031 175.828125 L 9.085938 175.804688 L 9.085938 175.753906 L 9.089844 175.726562 L 9.089844 175.703125 L 9.09375 175.679688 L 9.09375 175.65625 L 9.097656 175.632812 L 9.097656 175.53125 L 9.09375 175.449219 L 9.085938 175.367188 L 9.070312 175.285156 L 9.046875 175.203125 L 9.019531 175.125 L 8.984375 175.046875 L 8.941406 174.96875 L 8.894531 174.890625 L 8.84375 174.816406 L 8.78125 174.742188 L 8.714844 174.671875 L 8.640625 174.601562 L 8.558594 174.53125 L 8.46875 174.464844 L 8.371094 174.402344 L 8.265625 174.339844 L 8.152344 174.277344 L 8.035156 174.21875 L 7.90625 174.160156 L 7.773438 174.105469 L 7.539062 174.011719 L 1.757812 176.316406 L 1.757812 175.285156 L 4.96875 174.0625 L 5.0625 174.027344 L 5.101562 174.015625 L 5.136719 174 L 5.175781 173.988281 L 5.261719 173.957031 L 5.402344 173.910156 L 5.453125 173.894531 L 5.5 173.875 L 5.546875 173.859375 L 5.597656 173.84375 L 5.644531 173.824219 L 5.695312 173.808594 L 5.789062 173.777344 L 5.839844 173.761719 L 5.886719 173.742188 L 5.980469 173.710938 L 6.109375 173.664062 L 6.152344 173.652344 L 6.195312 173.636719 L 6.234375 173.625 L 6.273438 173.609375 L 6.3125 173.597656 L 6.34375 173.585938 L 6.375 173.578125 L 6.40625 173.566406 L 6.453125 173.550781 L 6.472656 173.546875 L 6.503906 173.539062 L 6.515625 173.535156 L 6.503906 173.53125 L 6.488281 173.527344 L 6.46875 173.519531 L 6.449219 173.515625 L 6.429688 173.507812 L 6.402344 173.5 L 6.378906 173.492188 L 6.347656 173.480469 L 6.316406 173.472656 L 6.285156 173.460938 L 6.25 173.445312 L 6.210938 173.433594 L 6.175781 173.421875 L 6.136719 173.40625 L 6.097656 173.394531 L 6.019531 173.363281 L 5.976562 173.351562 L 5.761719 173.273438 L 5.71875 173.253906 L 5.589844 173.207031 L 5.542969 173.191406 L 5.371094 173.128906 L 5.332031 173.113281 L 5.289062 173.097656 L 5.25 173.085938 L 5.214844 173.070312 L 5.175781 173.058594 L 5.140625 173.046875 L 5.109375 173.035156 L 5.074219 173.023438 L 1.757812 171.886719 L 1.757812 170.867188 Z M 7.566406 173.101562 "/>
</svg>
