<?xml version="1.0" encoding="UTF-8"?>
<svg xmlns="http://www.w3.org/2000/svg" xmlns:xlink="http://www.w3.org/1999/xlink" width="504" height="360" viewBox="0 0 504 360">
<defs>
<clipPath id="clip-0">
<path clip-rule="nonzero" d="M 80.648438 0 L 423.347656 0 L 423.347656 360 L 80.648438 360 Z M 80.648438 0 "/>
</clipPath>
<clipPath id="clip-1">
<path clip-rule="nonzero" d="M 86.128906 22.78125 L 417.871094 22.78125 L 417.871094 354.523438 L 86.128906 354.523438 Z M 86.128906 22.78125 "/>
</clipPath>
</defs>
<rect x="-50.4" y="-36" width="604.8" height="432" fill="rgb(100%, 100%, 100%)" fill-opacity="1"/>
<g clip-path="url(#clip-0)">
<path fill-rule="nonzero" fill="rgb(100%, 100%, 100%)" fill-opacity="1" stroke-width="1.066978" stroke-linecap="round" stroke-linejoin="round" stroke="rgb(100%, 100%, 100%)" stroke-opacity="1" stroke-miterlimit="10" d="M 80.648438 360 L 423.347656 360 L 423.347656 0 L 80.648438 0 Z M 80.648438 360 "/>
</g>
<g clip-path="url(#clip-1)">
<path fill-rule="nonzero" fill="rgb(92.156863%, 92.156863%, 92.156863%)" fill-opacity="1" d="M 86.128906 354.519531 L 417.871094 354.519531 L 417.871094 22.777344 L 86.128906 22.777344 Z M 86.128906 354.519531 "/>
</g>
<path fill-rule="nonzero" fill="rgb(0%, 0%, 0%)" fill-opacity="1" d="M 95.03125 9.925781 L 95.027344 10.152344 L 95.015625 10.371094 L 95 10.582031 L 94.976562 10.792969 L 94.945312 10.996094 L 94.90625 11.191406 L 94.863281 11.386719 L 94.8125 11.574219 L 94.753906 11.753906 L 94.6875 11.929688 L 94.617188 12.101562 L 94.542969 12.265625 L 94.460938 12.425781 L 94.375 12.578125 L 94.285156 12.726562 L 94.1875 12.867188 L 94.085938 13.003906 L 93.980469 13.136719 L 93.871094 13.261719 L 93.753906 13.382812 L 93.632812 13.496094 L 93.507812 13.601562 L 93.378906 13.703125 L 93.246094 13.800781 L 93.105469 13.890625 L 92.964844 13.976562 L 92.816406 14.058594 L 92.664062 14.132812 L 92.507812 14.199219 L 92.347656 14.265625 L 92.1875 14.320312 L 92.023438 14.371094 L 91.855469 14.414062 L 91.683594 14.453125 L 91.511719 14.488281 L 91.335938 14.511719 L 91.15625 14.535156 L 90.976562 14.550781 L 90.792969 14.558594 L 90.609375 14.5625 L 87.210938 14.5625 L 87.210938 5.480469 L 90.425781 5.480469 L 90.628906 5.488281 L 90.832031 5.503906 L 91.03125 5.523438 L 91.222656 5.546875 L 91.417969 5.574219 L 91.605469 5.609375 L 91.789062 5.648438 L 91.972656 5.695312 L 92.148438 5.742188 L 92.324219 5.796875 L 92.496094 5.859375 L 92.660156 5.925781 L 92.820312 5.996094 L 92.976562 6.074219 L 93.125 6.15625 L 93.273438 6.246094 L 93.546875 6.441406 L 93.675781 6.550781 L 93.800781 6.660156 L 93.921875 6.777344 L 94.035156 6.902344 L 94.140625 7.03125 L 94.246094 7.164062 L 94.339844 7.304688 L 94.429688 7.453125 L 94.515625 7.605469 L 94.597656 7.765625 L 94.667969 7.929688 L 94.738281 8.097656 L 94.800781 8.277344 L 94.855469 8.460938 L 94.902344 8.652344 L 94.941406 8.847656 L 94.972656 9.050781 L 94.996094 9.257812 L 95.015625 9.476562 L 95.027344 9.699219 Z M 93.792969 9.925781 L 93.789062 9.746094 L 93.78125 9.570312 L 93.769531 9.398438 L 93.75 9.234375 L 93.726562 9.074219 L 93.699219 8.917969 L 93.664062 8.769531 L 93.625 8.625 L 93.578125 8.488281 L 93.527344 8.355469 L 93.472656 8.226562 L 93.414062 8.101562 L 93.351562 7.980469 L 93.285156 7.867188 L 93.210938 7.757812 L 93.136719 7.652344 L 93.054688 7.550781 L 92.96875 7.453125 L 92.878906 7.363281 L 92.789062 7.277344 L 92.691406 7.195312 L 92.589844 7.117188 L 92.484375 7.046875 L 92.265625 6.914062 L 92.148438 6.855469 L 92.027344 6.800781 L 91.90625 6.75 L 91.648438 6.664062 L 91.375 6.59375 L 91.238281 6.5625 L 90.949219 6.515625 L 90.804688 6.496094 L 90.652344 6.484375 L 90.503906 6.472656 L 90.191406 6.464844 L 88.445312 6.464844 L 88.445312 13.574219 L 90.609375 13.574219 L 90.75 13.566406 L 90.886719 13.554688 L 91.023438 13.539062 L 91.15625 13.515625 L 91.285156 13.492188 L 91.414062 13.460938 L 91.542969 13.425781 L 91.667969 13.386719 L 91.789062 13.34375 L 91.910156 13.292969 L 92.027344 13.242188 L 92.140625 13.183594 L 92.25 13.121094 L 92.359375 13.054688 L 92.464844 12.984375 L 92.660156 12.828125 L 92.753906 12.742188 L 92.84375 12.652344 L 92.933594 12.558594 L 93.015625 12.460938 L 93.09375 12.359375 L 93.171875 12.25 L 93.242188 12.140625 L 93.308594 12.023438 L 93.375 11.902344 L 93.433594 11.777344 L 93.488281 11.648438 L 93.542969 11.511719 L 93.589844 11.375 L 93.632812 11.230469 L 93.667969 11.082031 L 93.703125 10.929688 L 93.730469 10.773438 L 93.753906 10.613281 L 93.769531 10.449219 L 93.78125 10.277344 L 93.789062 10.105469 Z M 93.792969 9.925781 "/>
<path fill-rule="nonzero" fill="rgb(0%, 0%, 0%)" fill-opacity="1" d="M 97.441406 11.320312 L 97.441406 11.425781 L 97.445312 11.535156 L 97.449219 11.640625 L 97.457031 11.742188 L 97.46875 11.847656 L 97.480469 11.945312 L 97.511719 12.140625 L 97.53125 12.238281 L 97.550781 12.332031 L 97.574219 12.421875 L 97.628906 12.59375 L 97.660156 12.675781 L 97.695312 12.757812 L 97.730469 12.835938 L 97.808594 12.984375 L 97.851562 13.054688 L 97.898438 13.125 L 98 13.25 L 98.054688 13.308594 L 98.109375 13.363281 L 98.167969 13.417969 L 98.230469 13.46875 L 98.296875 13.515625 L 98.363281 13.558594 L 98.433594 13.601562 L 98.503906 13.640625 L 98.578125 13.671875 L 98.65625 13.703125 L 98.738281 13.730469 L 98.820312 13.753906 L 98.910156 13.773438 L 99.089844 13.804688 L 99.1875 13.8125 L 99.285156 13.816406 L 99.386719 13.820312 L 99.535156 13.816406 L 99.675781 13.808594 L 99.8125 13.792969 L 99.941406 13.769531 L 100.066406 13.742188 L 100.183594 13.710938 L 100.292969 13.671875 L 100.398438 13.625 L 100.5 13.574219 L 100.59375 13.515625 L 100.765625 13.390625 L 100.839844 13.320312 L 100.910156 13.25 L 100.976562 13.171875 L 101.035156 13.09375 L 101.089844 13.015625 L 101.136719 12.929688 L 101.175781 12.839844 L 101.210938 12.75 L 102.230469 13.039062 L 102.183594 13.15625 L 102.128906 13.273438 L 102.066406 13.390625 L 101.960938 13.566406 L 101.921875 13.625 L 101.835938 13.742188 L 101.792969 13.796875 L 101.746094 13.851562 L 101.691406 13.902344 L 101.640625 13.957031 L 101.523438 14.058594 L 101.460938 14.105469 L 101.398438 14.15625 L 101.332031 14.199219 L 101.261719 14.246094 L 101.1875 14.285156 L 101.109375 14.328125 L 100.945312 14.40625 L 100.765625 14.476562 L 100.671875 14.511719 L 100.574219 14.542969 L 100.472656 14.570312 L 100.371094 14.59375 L 100.261719 14.617188 L 100.148438 14.636719 L 100.03125 14.652344 L 99.910156 14.667969 L 99.785156 14.675781 L 99.65625 14.683594 L 99.523438 14.6875 L 99.386719 14.691406 L 99.085938 14.679688 L 98.796875 14.652344 L 98.527344 14.605469 L 98.269531 14.542969 L 98.023438 14.460938 L 97.796875 14.359375 L 97.582031 14.238281 L 97.382812 14.101562 L 97.199219 13.941406 L 97.027344 13.769531 L 96.875 13.574219 L 96.738281 13.363281 L 96.617188 13.132812 L 96.511719 12.886719 L 96.425781 12.621094 L 96.351562 12.339844 L 96.296875 12.039062 L 96.253906 11.71875 L 96.230469 11.382812 L 96.222656 11.027344 L 96.226562 10.835938 L 96.234375 10.648438 L 96.246094 10.46875 L 96.261719 10.292969 L 96.285156 10.125 L 96.3125 9.960938 L 96.34375 9.804688 L 96.378906 9.65625 L 96.421875 9.511719 L 96.46875 9.371094 L 96.519531 9.238281 L 96.574219 9.109375 L 96.632812 8.984375 L 96.691406 8.867188 L 96.757812 8.753906 L 96.828125 8.644531 L 96.898438 8.542969 L 96.976562 8.445312 L 97.054688 8.351562 L 97.136719 8.265625 L 97.226562 8.179688 L 97.3125 8.101562 L 97.5 7.960938 L 97.597656 7.898438 L 97.699219 7.839844 L 97.804688 7.785156 L 97.910156 7.734375 L 98.019531 7.691406 L 98.128906 7.652344 L 98.246094 7.613281 L 98.359375 7.582031 L 98.476562 7.554688 L 98.597656 7.527344 L 98.839844 7.488281 L 98.960938 7.476562 L 99.085938 7.464844 L 99.34375 7.457031 L 99.515625 7.460938 L 99.679688 7.46875 L 99.84375 7.484375 L 99.996094 7.503906 L 100.144531 7.527344 L 100.289062 7.558594 L 100.425781 7.597656 L 100.558594 7.640625 L 100.683594 7.6875 L 100.804688 7.742188 L 100.921875 7.800781 L 101.03125 7.863281 L 101.140625 7.929688 L 101.242188 8.003906 L 101.339844 8.082031 L 101.429688 8.160156 L 101.519531 8.246094 L 101.601562 8.335938 L 101.679688 8.429688 L 101.753906 8.527344 L 101.824219 8.628906 L 101.890625 8.734375 L 102.007812 8.953125 L 102.0625 9.070312 L 102.109375 9.1875 L 102.195312 9.4375 L 102.230469 9.566406 L 102.261719 9.699219 L 102.292969 9.835938 L 102.339844 10.117188 L 102.378906 10.40625 L 102.390625 10.550781 L 102.402344 10.703125 L 102.410156 10.855469 L 102.414062 11.007812 L 102.417969 11.164062 L 102.417969 11.320312 Z M 101.21875 10.429688 L 101.195312 10.214844 L 101.164062 10.011719 L 101.125 9.820312 L 101.082031 9.644531 L 101.03125 9.476562 L 100.96875 9.324219 L 100.902344 9.179688 L 100.828125 9.050781 L 100.746094 8.929688 L 100.65625 8.824219 L 100.558594 8.726562 L 100.457031 8.640625 L 100.34375 8.566406 L 100.222656 8.5 L 100.089844 8.441406 L 99.953125 8.398438 L 99.808594 8.359375 L 99.65625 8.335938 L 99.492188 8.320312 L 99.324219 8.316406 L 99.265625 8.316406 L 99.207031 8.320312 L 99.144531 8.324219 L 99.085938 8.332031 L 99.023438 8.339844 L 98.964844 8.351562 L 98.902344 8.363281 L 98.839844 8.378906 L 98.773438 8.394531 L 98.710938 8.410156 L 98.648438 8.429688 L 98.585938 8.453125 L 98.523438 8.480469 L 98.464844 8.507812 L 98.40625 8.539062 L 98.289062 8.609375 L 98.179688 8.695312 L 98.070312 8.789062 L 97.96875 8.898438 L 97.875 9.023438 L 97.828125 9.089844 L 97.785156 9.160156 L 97.746094 9.234375 L 97.703125 9.3125 L 97.667969 9.390625 L 97.597656 9.5625 L 97.570312 9.65625 L 97.542969 9.753906 L 97.519531 9.855469 L 97.5 9.960938 L 97.484375 10.070312 L 97.46875 10.1875 L 97.460938 10.304688 L 97.453125 10.429688 Z M 101.21875 10.429688 "/>
<path fill-rule="nonzero" fill="rgb(0%, 0%, 0%)" fill-opacity="1" d="M 105.332031 8.429688 L 105.332031 14.5625 L 104.171875 14.5625 L 104.171875 8.429688 L 103.191406 8.429688 L 103.191406 7.585938 L 104.171875 7.585938 L 104.171875 6.652344 L 104.179688 6.503906 L 104.1875 6.433594 L 104.195312 6.367188 L 104.203125 6.296875 L 104.226562 6.164062 L 104.242188 6.097656 L 104.257812 6.035156 L 104.273438 5.96875 L 104.292969 5.910156 L 104.339844 5.792969 L 104.367188 5.734375 L 104.398438 5.683594 L 104.429688 5.628906 L 104.460938 5.578125 L 104.539062 5.484375 L 104.582031 5.4375 L 104.625 5.394531 L 104.675781 5.351562 L 104.726562 5.3125 L 104.835938 5.242188 L 104.894531 5.210938 L 104.957031 5.179688 L 105.019531 5.152344 L 105.089844 5.125 L 105.160156 5.101562 L 105.234375 5.078125 L 105.316406 5.058594 L 105.398438 5.042969 L 105.484375 5.03125 L 105.574219 5.023438 L 105.671875 5.015625 L 105.769531 5.011719 L 105.871094 5.007812 L 105.953125 5.007812 L 105.996094 5.011719 L 106.039062 5.011719 L 106.082031 5.015625 L 106.125 5.015625 L 106.167969 5.019531 L 106.210938 5.019531 L 106.339844 5.03125 L 106.386719 5.035156 L 106.425781 5.042969 L 106.46875 5.046875 L 106.507812 5.050781 L 106.585938 5.066406 L 106.621094 5.070312 L 106.691406 5.085938 L 106.691406 5.96875 L 106.597656 5.953125 L 106.570312 5.953125 L 106.542969 5.949219 L 106.519531 5.945312 L 106.488281 5.941406 L 106.460938 5.941406 L 106.433594 5.9375 L 106.402344 5.933594 L 106.347656 5.925781 L 106.324219 5.925781 L 106.296875 5.921875 L 106.269531 5.921875 L 106.246094 5.917969 L 106.125 5.917969 L 106.074219 5.921875 L 106.027344 5.925781 L 105.984375 5.929688 L 105.9375 5.933594 L 105.898438 5.941406 L 105.820312 5.964844 L 105.75 5.988281 L 105.65625 6.035156 L 105.628906 6.054688 L 105.605469 6.074219 L 105.578125 6.097656 L 105.53125 6.144531 L 105.511719 6.167969 L 105.472656 6.222656 L 105.441406 6.277344 L 105.425781 6.308594 L 105.402344 6.371094 L 105.378906 6.441406 L 105.371094 6.480469 L 105.363281 6.515625 L 105.355469 6.554688 L 105.351562 6.597656 L 105.347656 6.636719 L 105.339844 6.679688 L 105.339844 6.726562 L 105.335938 6.769531 L 105.332031 6.816406 L 105.332031 7.585938 L 106.691406 7.585938 L 106.691406 8.429688 Z M 105.332031 8.429688 "/>
<path fill-rule="nonzero" fill="rgb(0%, 0%, 0%)" fill-opacity="1" d="M 109.339844 14.691406 L 109.132812 14.683594 L 108.941406 14.667969 L 108.753906 14.640625 L 108.582031 14.601562 L 108.417969 14.550781 L 108.265625 14.492188 L 108.125 14.417969 L 107.992188 14.335938 L 107.871094 14.242188 L 107.761719 14.136719 L 107.660156 14.019531 L 107.570312 13.898438 L 107.492188 13.765625 L 107.421875 13.625 L 107.363281 13.476562 L 107.316406 13.320312 L 107.277344 13.15625 L 107.253906 12.984375 L 107.238281 12.804688 L 107.230469 12.613281 L 107.234375 12.480469 L 107.242188 12.347656 L 107.253906 12.222656 L 107.273438 12.101562 L 107.296875 11.988281 L 107.324219 11.878906 L 107.359375 11.773438 L 107.394531 11.671875 L 107.441406 11.578125 L 107.488281 11.488281 L 107.542969 11.398438 L 107.601562 11.316406 L 107.660156 11.238281 L 107.726562 11.160156 L 107.792969 11.089844 L 107.933594 10.957031 L 108.011719 10.898438 L 108.089844 10.84375 L 108.171875 10.789062 L 108.257812 10.742188 L 108.347656 10.695312 L 108.4375 10.652344 L 108.53125 10.613281 L 108.625 10.578125 L 108.726562 10.542969 L 108.824219 10.515625 L 108.925781 10.488281 L 109.03125 10.464844 L 109.140625 10.441406 L 109.246094 10.425781 L 109.355469 10.40625 L 109.464844 10.390625 L 109.683594 10.367188 L 109.796875 10.355469 L 109.90625 10.347656 L 110.019531 10.339844 L 110.128906 10.335938 L 110.242188 10.332031 L 111.808594 10.308594 L 111.808594 9.839844 L 111.804688 9.757812 L 111.800781 9.679688 L 111.792969 9.601562 L 111.785156 9.527344 L 111.773438 9.453125 L 111.761719 9.386719 L 111.75 9.316406 L 111.71875 9.191406 L 111.699219 9.132812 L 111.675781 9.074219 L 111.65625 9.019531 L 111.601562 8.917969 L 111.574219 8.871094 L 111.542969 8.824219 L 111.511719 8.78125 L 111.441406 8.703125 L 111.402344 8.664062 L 111.363281 8.632812 L 111.320312 8.597656 L 111.273438 8.570312 L 111.230469 8.539062 L 111.179688 8.515625 L 111.132812 8.492188 L 111.078125 8.46875 L 111.027344 8.449219 L 110.96875 8.429688 L 110.914062 8.414062 L 110.855469 8.398438 L 110.667969 8.363281 L 110.601562 8.355469 L 110.53125 8.347656 L 110.460938 8.34375 L 110.386719 8.34375 L 110.3125 8.339844 L 110.246094 8.339844 L 110.179688 8.34375 L 110.117188 8.347656 L 110.054688 8.347656 L 109.992188 8.355469 L 109.933594 8.359375 L 109.816406 8.375 L 109.761719 8.382812 L 109.707031 8.394531 L 109.652344 8.402344 L 109.550781 8.425781 L 109.5 8.441406 L 109.453125 8.457031 L 109.40625 8.476562 L 109.363281 8.496094 L 109.234375 8.566406 L 109.195312 8.59375 L 109.125 8.648438 L 109.089844 8.679688 L 109.054688 8.714844 L 109.023438 8.75 L 108.996094 8.785156 L 108.964844 8.824219 L 108.9375 8.867188 L 108.890625 8.953125 L 108.867188 9 L 108.847656 9.046875 L 108.828125 9.097656 L 108.8125 9.148438 L 108.796875 9.207031 L 108.785156 9.261719 L 108.769531 9.324219 L 108.753906 9.449219 L 107.539062 9.339844 L 107.554688 9.257812 L 107.570312 9.179688 L 107.589844 9.097656 L 107.609375 9.023438 L 107.632812 8.945312 L 107.6875 8.796875 L 107.75 8.65625 L 107.785156 8.585938 L 107.824219 8.515625 L 107.863281 8.449219 L 107.90625 8.386719 L 107.953125 8.324219 L 108.003906 8.261719 L 108.054688 8.203125 L 108.109375 8.144531 L 108.167969 8.089844 L 108.230469 8.039062 L 108.363281 7.9375 L 108.433594 7.890625 L 108.589844 7.804688 L 108.753906 7.726562 L 108.84375 7.691406 L 108.933594 7.660156 L 109.027344 7.628906 L 109.125 7.601562 L 109.230469 7.574219 L 109.335938 7.550781 L 109.445312 7.527344 L 109.5625 7.507812 L 109.679688 7.492188 L 109.804688 7.480469 L 109.929688 7.472656 L 110.0625 7.464844 L 110.199219 7.460938 L 110.339844 7.457031 L 110.59375 7.464844 L 110.839844 7.480469 L 111.070312 7.511719 L 111.285156 7.554688 L 111.488281 7.609375 L 111.679688 7.675781 L 111.859375 7.753906 L 112.023438 7.847656 L 112.175781 7.949219 L 112.316406 8.0625 L 112.441406 8.1875 L 112.554688 8.324219 L 112.65625 8.472656 L 112.742188 8.628906 L 112.816406 8.796875 L 112.875 8.976562 L 112.921875 9.167969 L 112.953125 9.371094 L 112.972656 9.582031 L 112.980469 9.804688 L 112.980469 12.910156 L 112.984375 13.003906 L 112.992188 13.09375 L 113.003906 13.179688 L 113.015625 13.261719 L 113.03125 13.335938 L 113.046875 13.40625 L 113.066406 13.472656 L 113.089844 13.53125 L 113.117188 13.585938 L 113.144531 13.636719 L 113.179688 13.679688 L 113.21875 13.71875 L 113.261719 13.753906 L 113.3125 13.78125 L 113.367188 13.804688 L 113.425781 13.820312 L 113.488281 13.835938 L 113.558594 13.84375 L 113.726562 13.84375 L 113.746094 13.839844 L 113.765625 13.839844 L 113.785156 13.835938 L 113.804688 13.835938 L 113.84375 13.828125 L 113.863281 13.828125 L 113.921875 13.816406 L 113.9375 13.816406 L 113.976562 13.808594 L 113.992188 13.804688 L 114.011719 13.800781 L 114.011719 14.523438 L 113.96875 14.53125 L 113.925781 14.542969 L 113.878906 14.550781 L 113.707031 14.582031 L 113.660156 14.589844 L 113.574219 14.597656 L 113.53125 14.605469 L 113.488281 14.609375 L 113.441406 14.613281 L 113.398438 14.617188 L 113.351562 14.617188 L 113.308594 14.621094 L 113.261719 14.621094 L 113.210938 14.625 L 113.050781 14.625 L 112.925781 14.617188 L 112.867188 14.613281 L 112.808594 14.605469 L 112.753906 14.59375 L 112.699219 14.585938 L 112.648438 14.570312 L 112.597656 14.558594 L 112.550781 14.542969 L 112.503906 14.523438 L 112.460938 14.503906 L 112.375 14.457031 L 112.335938 14.429688 L 112.265625 14.375 L 112.230469 14.34375 L 112.199219 14.3125 L 112.167969 14.277344 L 112.140625 14.242188 L 112.113281 14.203125 L 112.085938 14.160156 L 112.0625 14.121094 L 112.039062 14.078125 L 112.015625 14.03125 L 111.996094 13.988281 L 111.976562 13.9375 L 111.960938 13.890625 L 111.941406 13.839844 L 111.929688 13.785156 L 111.914062 13.730469 L 111.878906 13.554688 L 111.863281 13.429688 L 111.855469 13.363281 L 111.851562 13.296875 L 111.847656 13.226562 L 111.808594 13.226562 L 111.730469 13.359375 L 111.652344 13.484375 L 111.609375 13.546875 L 111.570312 13.605469 L 111.484375 13.722656 L 111.441406 13.777344 L 111.394531 13.832031 L 111.351562 13.886719 L 111.257812 13.988281 L 111.105469 14.128906 L 110.996094 14.214844 L 110.9375 14.257812 L 110.878906 14.296875 L 110.820312 14.332031 L 110.695312 14.402344 L 110.628906 14.433594 L 110.5625 14.460938 L 110.492188 14.492188 L 110.421875 14.515625 L 110.351562 14.542969 L 110.277344 14.566406 L 110.203125 14.585938 L 110.046875 14.625 L 109.96875 14.640625 L 109.886719 14.652344 L 109.800781 14.664062 L 109.53125 14.6875 L 109.4375 14.6875 Z M 109.601562 13.820312 L 109.820312 13.8125 L 110.023438 13.789062 L 110.121094 13.769531 L 110.21875 13.746094 L 110.308594 13.722656 L 110.398438 13.691406 L 110.570312 13.621094 L 110.652344 13.578125 L 110.808594 13.484375 L 110.882812 13.4375 L 110.953125 13.386719 L 111.085938 13.277344 L 111.203125 13.160156 L 111.261719 13.097656 L 111.3125 13.035156 L 111.414062 12.902344 L 111.457031 12.835938 L 111.5 12.765625 L 111.542969 12.699219 L 111.578125 12.628906 L 111.613281 12.554688 L 111.644531 12.480469 L 111.699219 12.332031 L 111.722656 12.261719 L 111.742188 12.1875 L 111.757812 12.113281 L 111.773438 12.042969 L 111.796875 11.902344 L 111.808594 11.691406 L 111.808594 11.117188 L 110.539062 11.144531 L 110.453125 11.148438 L 110.371094 11.148438 L 110.285156 11.152344 L 110.203125 11.160156 L 110.121094 11.164062 L 110.042969 11.171875 L 109.960938 11.179688 L 109.882812 11.1875 L 109.726562 11.210938 L 109.578125 11.234375 L 109.503906 11.25 L 109.4375 11.269531 L 109.367188 11.289062 L 109.300781 11.3125 L 109.238281 11.335938 L 109.113281 11.390625 L 109.054688 11.421875 L 108.945312 11.492188 L 108.890625 11.53125 L 108.84375 11.570312 L 108.792969 11.617188 L 108.75 11.660156 L 108.664062 11.761719 L 108.628906 11.816406 L 108.589844 11.875 L 108.558594 11.933594 L 108.53125 11.996094 L 108.507812 12.0625 L 108.484375 12.132812 L 108.464844 12.207031 L 108.449219 12.285156 L 108.4375 12.367188 L 108.429688 12.453125 L 108.425781 12.542969 L 108.425781 12.746094 L 108.4375 12.851562 L 108.449219 12.949219 L 108.472656 13.046875 L 108.5 13.136719 L 108.53125 13.222656 L 108.574219 13.300781 L 108.617188 13.375 L 108.667969 13.445312 L 108.726562 13.511719 L 108.792969 13.570312 L 108.859375 13.621094 L 108.9375 13.667969 L 109.015625 13.707031 L 109.101562 13.742188 L 109.191406 13.769531 L 109.285156 13.792969 L 109.386719 13.808594 L 109.492188 13.816406 Z M 109.601562 13.820312 "/>
<path fill-rule="nonzero" fill="rgb(0%, 0%, 0%)" fill-opacity="1" d="M 116.035156 7.585938 L 116.035156 12.109375 L 116.039062 12.207031 L 116.042969 12.300781 L 116.046875 12.390625 L 116.054688 12.476562 L 116.070312 12.640625 L 116.09375 12.789062 L 116.105469 12.859375 L 116.125 12.925781 L 116.140625 12.992188 L 116.160156 13.050781 L 116.183594 13.113281 L 116.230469 13.222656 L 116.257812 13.273438 L 116.289062 13.324219 L 116.320312 13.371094 L 116.351562 13.414062 L 116.421875 13.492188 L 116.460938 13.527344 L 116.589844 13.621094 L 116.636719 13.644531 L 116.738281 13.691406 L 116.789062 13.710938 L 116.90625 13.742188 L 117.03125 13.765625 L 117.097656 13.773438 L 117.167969 13.78125 L 117.316406 13.789062 L 117.394531 13.792969 L 117.554688 13.792969 L 117.632812 13.789062 L 117.714844 13.78125 L 117.863281 13.757812 L 117.9375 13.742188 L 118.078125 13.703125 L 118.148438 13.679688 L 118.214844 13.652344 L 118.28125 13.621094 L 118.34375 13.589844 L 118.40625 13.550781 L 118.464844 13.515625 L 118.523438 13.472656 L 118.578125 13.429688 L 118.632812 13.382812 L 118.683594 13.335938 L 118.734375 13.285156 L 118.78125 13.234375 L 118.828125 13.175781 L 118.871094 13.117188 L 118.914062 13.054688 L 118.953125 12.992188 L 118.992188 12.925781 L 119.0625 12.785156 L 119.09375 12.710938 L 119.121094 12.636719 L 119.148438 12.554688 L 119.195312 12.390625 L 119.214844 12.300781 L 119.230469 12.214844 L 119.246094 12.121094 L 119.257812 12.027344 L 119.273438 11.832031 L 119.277344 11.730469 L 119.277344 7.585938 L 120.4375 7.585938 L 120.4375 13.582031 L 120.441406 13.628906 L 120.441406 13.722656 L 120.445312 13.769531 L 120.445312 13.859375 L 120.449219 13.90625 L 120.449219 13.992188 L 120.453125 14.035156 L 120.453125 14.117188 L 120.457031 14.15625 L 120.457031 14.226562 L 120.460938 14.261719 L 120.460938 14.328125 L 120.464844 14.359375 L 120.464844 14.417969 L 120.46875 14.445312 L 120.46875 14.488281 L 120.472656 14.507812 L 120.472656 14.539062 L 120.476562 14.550781 L 120.476562 14.5625 L 119.382812 14.5625 L 119.378906 14.554688 L 119.378906 14.53125 L 119.375 14.519531 L 119.375 14.484375 L 119.371094 14.460938 L 119.371094 14.414062 L 119.367188 14.386719 L 119.367188 14.359375 L 119.363281 14.328125 L 119.363281 14.265625 L 119.359375 14.234375 L 119.359375 14.203125 L 119.355469 14.167969 L 119.355469 14.136719 L 119.347656 14.066406 L 119.347656 13.988281 L 119.34375 13.953125 L 119.34375 13.878906 L 119.339844 13.839844 L 119.339844 13.765625 L 119.335938 13.726562 L 119.335938 13.652344 L 119.332031 13.617188 L 119.332031 13.480469 L 119.328125 13.453125 L 119.328125 13.367188 L 119.308594 13.367188 L 119.277344 13.429688 L 119.207031 13.546875 L 119.171875 13.601562 L 119.132812 13.65625 L 119.097656 13.710938 L 119.058594 13.765625 L 118.941406 13.917969 L 118.902344 13.964844 L 118.816406 14.058594 L 118.773438 14.101562 L 118.726562 14.144531 L 118.632812 14.222656 L 118.53125 14.300781 L 118.480469 14.335938 L 118.371094 14.398438 L 118.3125 14.429688 L 118.195312 14.484375 L 118.007812 14.554688 L 117.941406 14.574219 L 117.871094 14.59375 L 117.804688 14.613281 L 117.730469 14.628906 L 117.65625 14.640625 L 117.582031 14.65625 L 117.503906 14.664062 L 117.421875 14.675781 L 117.339844 14.679688 L 117.257812 14.6875 L 117.167969 14.6875 L 117.078125 14.691406 L 116.964844 14.6875 L 116.855469 14.683594 L 116.746094 14.675781 L 116.640625 14.667969 L 116.539062 14.65625 L 116.441406 14.640625 L 116.347656 14.621094 L 116.253906 14.597656 L 116.167969 14.574219 L 116.082031 14.546875 L 116 14.519531 L 115.917969 14.484375 L 115.84375 14.449219 L 115.769531 14.410156 L 115.699219 14.367188 L 115.566406 14.273438 L 115.503906 14.222656 L 115.445312 14.167969 L 115.390625 14.109375 L 115.289062 13.984375 L 115.242188 13.917969 L 115.199219 13.847656 L 115.15625 13.769531 L 115.117188 13.695312 L 115.082031 13.613281 L 115.019531 13.441406 L 114.992188 13.347656 L 114.96875 13.253906 L 114.949219 13.15625 L 114.929688 13.054688 L 114.914062 12.949219 L 114.898438 12.839844 L 114.890625 12.726562 L 114.878906 12.609375 L 114.875 12.488281 L 114.871094 12.363281 L 114.871094 7.585938 Z M 116.035156 7.585938 "/>
<path fill-rule="nonzero" fill="rgb(0%, 0%, 0%)" fill-opacity="1" d="M 122.242188 14.5625 L 122.242188 4.996094 L 123.402344 4.996094 L 123.402344 14.5625 Z M 122.242188 14.5625 "/>
<path fill-rule="nonzero" fill="rgb(0%, 0%, 0%)" fill-opacity="1" d="M 127.855469 14.507812 L 127.804688 14.523438 L 127.75 14.535156 L 127.695312 14.550781 L 127.644531 14.5625 L 127.589844 14.570312 L 127.480469 14.59375 L 127.316406 14.617188 L 127.261719 14.628906 L 127.203125 14.636719 L 127.144531 14.640625 L 127.085938 14.648438 L 127.023438 14.652344 L 126.824219 14.664062 L 126.683594 14.664062 L 126.417969 14.648438 L 126.183594 14.601562 L 125.972656 14.523438 L 125.792969 14.410156 L 125.640625 14.269531 L 125.515625 14.09375 L 125.417969 13.890625 L 125.347656 13.652344 L 125.304688 13.386719 L 125.292969 13.085938 L 125.292969 8.429688 L 124.484375 8.429688 L 124.484375 7.585938 L 125.335938 7.585938 L 125.679688 6.027344 L 126.453125 6.027344 L 126.453125 7.585938 L 127.742188 7.585938 L 127.742188 8.429688 L 126.453125 8.429688 L 126.453125 12.929688 L 126.457031 13.023438 L 126.464844 13.109375 L 126.476562 13.1875 L 126.492188 13.261719 L 126.507812 13.332031 L 126.554688 13.449219 L 126.582031 13.5 L 126.613281 13.542969 L 126.648438 13.582031 L 126.6875 13.613281 L 126.734375 13.644531 L 126.785156 13.671875 L 126.839844 13.691406 L 126.898438 13.710938 L 126.964844 13.722656 L 127.035156 13.734375 L 127.105469 13.742188 L 127.253906 13.742188 L 127.285156 13.738281 L 127.316406 13.738281 L 127.351562 13.734375 L 127.382812 13.734375 L 127.476562 13.722656 L 127.507812 13.714844 L 127.539062 13.710938 L 127.574219 13.707031 L 127.609375 13.699219 L 127.640625 13.695312 L 127.710938 13.679688 L 127.746094 13.675781 L 127.78125 13.667969 L 127.820312 13.660156 L 127.855469 13.652344 Z M 127.855469 14.507812 "/>
<path fill-rule="nonzero" fill="rgb(0%, 0%, 0%)" fill-opacity="1" d="M 130.433594 13.148438 L 130.433594 14.429688 L 130.429688 14.496094 L 130.425781 14.558594 L 130.421875 14.617188 L 130.417969 14.679688 L 130.414062 14.738281 L 130.410156 14.792969 L 130.402344 14.851562 L 130.398438 14.90625 L 130.367188 15.125 L 130.359375 15.175781 L 130.335938 15.277344 L 130.3125 15.371094 L 130.300781 15.421875 L 130.222656 15.65625 L 130.207031 15.699219 L 130.1875 15.746094 L 130.171875 15.789062 L 130.132812 15.875 L 130.113281 15.914062 L 130.074219 16 L 130.050781 16.042969 L 130.027344 16.082031 L 129.980469 16.167969 L 129.957031 16.207031 L 129.933594 16.25 L 129.140625 16.25 L 129.195312 16.164062 L 129.25 16.082031 L 129.300781 15.996094 L 129.347656 15.914062 L 129.394531 15.828125 L 129.4375 15.746094 L 129.480469 15.660156 L 129.515625 15.574219 L 129.550781 15.492188 L 129.613281 15.320312 L 129.640625 15.234375 L 129.664062 15.152344 L 129.6875 15.066406 L 129.703125 14.980469 L 129.71875 14.898438 L 129.730469 14.8125 L 129.738281 14.730469 L 129.742188 14.644531 L 129.746094 14.5625 L 129.179688 14.5625 L 129.179688 13.148438 Z M 130.433594 13.148438 "/>
<path fill-rule="nonzero" fill="rgb(0%, 0%, 0%)" fill-opacity="1" d="M 137.058594 11.042969 L 137.0625 11.160156 L 137.0625 11.277344 L 137.066406 11.394531 L 137.074219 11.503906 L 137.082031 11.617188 L 137.089844 11.726562 L 137.113281 11.9375 L 137.128906 12.042969 L 137.144531 12.144531 L 137.183594 12.339844 L 137.207031 12.433594 L 137.261719 12.613281 L 137.292969 12.699219 L 137.363281 12.863281 L 137.402344 12.9375 L 137.441406 13.015625 L 137.484375 13.085938 L 137.527344 13.152344 L 137.574219 13.214844 L 137.625 13.277344 L 137.679688 13.335938 L 137.734375 13.390625 L 137.792969 13.441406 L 137.851562 13.488281 L 137.917969 13.53125 L 137.980469 13.574219 L 138.050781 13.613281 L 138.125 13.648438 L 138.199219 13.675781 L 138.28125 13.703125 L 138.363281 13.726562 L 138.535156 13.757812 L 138.722656 13.773438 L 138.820312 13.773438 L 138.941406 13.769531 L 139.058594 13.761719 L 139.171875 13.746094 L 139.28125 13.722656 L 139.386719 13.691406 L 139.488281 13.652344 L 139.585938 13.609375 L 139.679688 13.558594 L 139.765625 13.503906 L 139.851562 13.4375 L 139.933594 13.367188 L 140.007812 13.289062 L 140.074219 13.207031 L 140.136719 13.113281 L 140.191406 13.015625 L 140.238281 12.90625 L 140.28125 12.792969 L 140.316406 12.671875 L 140.34375 12.542969 L 140.367188 12.40625 L 141.539062 12.484375 L 141.527344 12.570312 L 141.511719 12.65625 L 141.492188 12.742188 L 141.472656 12.824219 L 141.449219 12.910156 L 141.421875 12.992188 L 141.359375 13.15625 L 141.324219 13.238281 L 141.289062 13.316406 L 141.25 13.394531 L 141.207031 13.472656 L 141.160156 13.546875 L 141.109375 13.621094 L 141.058594 13.691406 L 141.003906 13.761719 L 140.949219 13.828125 L 140.886719 13.894531 L 140.761719 14.019531 L 140.621094 14.136719 L 140.550781 14.191406 L 140.394531 14.292969 L 140.3125 14.339844 L 140.226562 14.386719 L 140.140625 14.429688 L 140.046875 14.472656 L 139.859375 14.542969 L 139.757812 14.574219 L 139.65625 14.601562 L 139.550781 14.625 L 139.441406 14.644531 L 139.328125 14.660156 L 139.214844 14.671875 L 139.097656 14.683594 L 138.976562 14.6875 L 138.851562 14.691406 L 138.691406 14.6875 L 138.535156 14.679688 L 138.382812 14.664062 L 138.238281 14.644531 L 138.09375 14.621094 L 137.957031 14.589844 L 137.828125 14.554688 L 137.699219 14.511719 L 137.578125 14.464844 L 137.460938 14.414062 L 137.347656 14.355469 L 137.238281 14.292969 L 137.136719 14.226562 L 137.035156 14.15625 L 136.941406 14.082031 L 136.847656 14.003906 L 136.761719 13.921875 L 136.679688 13.835938 L 136.601562 13.746094 L 136.527344 13.652344 L 136.457031 13.550781 L 136.390625 13.449219 L 136.332031 13.34375 L 136.273438 13.234375 L 136.21875 13.121094 L 136.167969 13.003906 L 136.082031 12.761719 L 136.042969 12.632812 L 136.011719 12.503906 L 135.980469 12.371094 L 135.925781 12.097656 L 135.90625 11.957031 L 135.875 11.667969 L 135.863281 11.523438 L 135.855469 11.371094 L 135.851562 11.222656 L 135.847656 11.066406 L 135.851562 10.929688 L 135.851562 10.792969 L 135.859375 10.660156 L 135.867188 10.53125 L 135.878906 10.40625 L 135.890625 10.285156 L 135.921875 10.050781 L 135.941406 9.9375 L 135.964844 9.828125 L 135.988281 9.722656 L 136.070312 9.417969 L 136.101562 9.324219 L 136.136719 9.230469 L 136.171875 9.140625 L 136.207031 9.054688 L 136.246094 8.96875 L 136.285156 8.890625 L 136.332031 8.808594 L 136.375 8.730469 L 136.421875 8.65625 L 136.515625 8.515625 L 136.566406 8.449219 L 136.621094 8.386719 L 136.671875 8.324219 L 136.839844 8.15625 L 136.957031 8.054688 L 137.015625 8.007812 L 137.140625 7.921875 L 137.265625 7.84375 L 137.332031 7.808594 L 137.394531 7.773438 L 137.464844 7.742188 L 137.53125 7.710938 L 137.597656 7.683594 L 137.738281 7.628906 L 137.808594 7.609375 L 137.878906 7.585938 L 137.953125 7.566406 L 138.023438 7.550781 L 138.171875 7.519531 L 138.394531 7.484375 L 138.542969 7.46875 L 138.765625 7.457031 L 138.839844 7.457031 L 138.957031 7.460938 L 139.070312 7.464844 L 139.179688 7.472656 L 139.289062 7.484375 L 139.394531 7.5 L 139.496094 7.515625 L 139.597656 7.539062 L 139.695312 7.5625 L 139.789062 7.589844 L 139.882812 7.621094 L 139.972656 7.652344 L 140.0625 7.6875 L 140.144531 7.726562 L 140.230469 7.769531 L 140.386719 7.855469 L 140.460938 7.90625 L 140.601562 8.007812 L 140.667969 8.0625 L 140.734375 8.121094 L 140.859375 8.238281 L 140.917969 8.300781 L 141.027344 8.433594 L 141.074219 8.503906 L 141.125 8.574219 L 141.167969 8.644531 L 141.210938 8.722656 L 141.25 8.796875 L 141.289062 8.875 L 141.324219 8.953125 L 141.386719 9.117188 L 141.441406 9.28125 L 141.460938 9.367188 L 141.484375 9.453125 L 141.5 9.539062 L 140.308594 9.628906 L 140.289062 9.515625 L 140.261719 9.40625 L 140.230469 9.304688 L 140.191406 9.203125 L 140.148438 9.109375 L 140.101562 9.019531 L 140.046875 8.933594 L 139.988281 8.855469 L 139.921875 8.777344 L 139.851562 8.707031 L 139.773438 8.644531 L 139.691406 8.585938 L 139.601562 8.535156 L 139.507812 8.488281 L 139.40625 8.453125 L 139.300781 8.421875 L 139.183594 8.398438 L 139.066406 8.378906 L 138.9375 8.371094 L 138.808594 8.367188 L 138.710938 8.367188 L 138.613281 8.375 L 138.523438 8.382812 L 138.4375 8.394531 L 138.351562 8.410156 L 138.269531 8.425781 L 138.191406 8.449219 L 138.117188 8.472656 L 138.042969 8.503906 L 137.976562 8.535156 L 137.910156 8.570312 L 137.847656 8.605469 L 137.730469 8.691406 L 137.675781 8.738281 L 137.625 8.789062 L 137.574219 8.84375 L 137.527344 8.902344 L 137.484375 8.964844 L 137.441406 9.03125 L 137.402344 9.097656 L 137.363281 9.167969 L 137.328125 9.242188 L 137.292969 9.320312 L 137.261719 9.402344 L 137.234375 9.488281 L 137.207031 9.578125 L 137.183594 9.667969 L 137.164062 9.761719 L 137.144531 9.863281 L 137.128906 9.964844 L 137.113281 10.070312 L 137.101562 10.179688 L 137.089844 10.292969 L 137.074219 10.527344 L 137.066406 10.652344 L 137.0625 10.777344 L 137.0625 10.90625 Z M 137.058594 11.042969 "/>
<path fill-rule="nonzero" fill="rgb(0%, 0%, 0%)" fill-opacity="1" d="M 148.675781 11.066406 L 148.667969 11.425781 L 148.644531 11.761719 L 148.601562 12.082031 L 148.546875 12.382812 L 148.472656 12.664062 L 148.386719 12.925781 L 148.28125 13.171875 L 148.160156 13.398438 L 148.023438 13.605469 L 147.871094 13.792969 L 147.699219 13.964844 L 147.519531 14.117188 L 147.320312 14.25 L 147.109375 14.367188 L 146.882812 14.464844 L 146.640625 14.546875 L 146.382812 14.609375 L 146.113281 14.652344 L 145.828125 14.679688 L 145.53125 14.691406 L 145.386719 14.6875 L 145.105469 14.671875 L 144.972656 14.65625 L 144.839844 14.636719 L 144.710938 14.609375 L 144.585938 14.582031 L 144.464844 14.550781 L 144.34375 14.511719 L 144.226562 14.46875 L 144.113281 14.425781 L 144.003906 14.375 L 143.898438 14.316406 L 143.796875 14.257812 L 143.699219 14.195312 L 143.601562 14.125 L 143.507812 14.050781 L 143.421875 13.972656 L 143.335938 13.886719 L 143.253906 13.800781 L 143.175781 13.707031 L 143.105469 13.609375 L 143.035156 13.507812 L 142.96875 13.402344 L 142.90625 13.292969 L 142.847656 13.175781 L 142.792969 13.058594 L 142.742188 12.933594 L 142.691406 12.804688 L 142.648438 12.671875 L 142.609375 12.535156 L 142.574219 12.390625 L 142.542969 12.242188 L 142.515625 12.085938 L 142.492188 11.929688 L 142.476562 11.765625 L 142.460938 11.597656 L 142.449219 11.425781 L 142.445312 11.25 L 142.441406 11.066406 L 142.472656 10.382812 L 142.566406 9.769531 L 142.722656 9.226562 L 142.941406 8.757812 L 143.222656 8.359375 L 143.566406 8.035156 L 143.972656 7.78125 L 144.441406 7.601562 L 144.972656 7.496094 L 145.566406 7.457031 L 145.726562 7.460938 L 145.882812 7.46875 L 146.035156 7.476562 L 146.183594 7.496094 L 146.324219 7.515625 L 146.460938 7.539062 L 146.59375 7.570312 L 146.722656 7.601562 L 146.847656 7.640625 L 146.96875 7.683594 L 147.082031 7.730469 L 147.195312 7.78125 L 147.304688 7.839844 L 147.40625 7.898438 L 147.503906 7.964844 L 147.597656 8.035156 L 147.691406 8.109375 L 147.773438 8.1875 L 147.855469 8.273438 L 147.933594 8.359375 L 148.007812 8.453125 L 148.078125 8.550781 L 148.144531 8.652344 L 148.207031 8.757812 L 148.265625 8.867188 L 148.367188 9.101562 L 148.414062 9.226562 L 148.457031 9.355469 L 148.496094 9.488281 L 148.527344 9.625 L 148.558594 9.769531 L 148.585938 9.914062 L 148.609375 10.066406 L 148.628906 10.222656 L 148.644531 10.382812 L 148.660156 10.546875 L 148.667969 10.714844 Z M 147.457031 11.066406 L 147.457031 10.90625 L 147.453125 10.753906 L 147.445312 10.605469 L 147.4375 10.464844 L 147.425781 10.328125 L 147.410156 10.195312 L 147.394531 10.070312 L 147.375 9.949219 L 147.351562 9.835938 L 147.328125 9.726562 L 147.273438 9.523438 L 147.242188 9.429688 L 147.210938 9.339844 L 147.175781 9.25 L 147.136719 9.167969 L 147.097656 9.089844 L 147.054688 9.015625 L 146.960938 8.882812 L 146.910156 8.820312 L 146.808594 8.710938 L 146.753906 8.660156 L 146.695312 8.613281 L 146.636719 8.574219 L 146.574219 8.535156 L 146.507812 8.5 L 146.375 8.445312 L 146.304688 8.417969 L 146.15625 8.378906 L 146.082031 8.363281 L 146.003906 8.347656 L 145.921875 8.335938 L 145.84375 8.328125 L 145.757812 8.320312 L 145.675781 8.316406 L 145.5 8.316406 L 145.414062 8.320312 L 145.328125 8.328125 L 145.246094 8.335938 L 145.164062 8.347656 L 145.085938 8.363281 L 144.929688 8.402344 L 144.78125 8.449219 L 144.710938 8.476562 L 144.578125 8.546875 L 144.515625 8.585938 L 144.453125 8.628906 L 144.394531 8.675781 L 144.335938 8.726562 L 144.28125 8.78125 L 144.226562 8.839844 L 144.175781 8.902344 L 144.125 8.96875 L 144.082031 9.035156 L 144.035156 9.109375 L 143.992188 9.1875 L 143.953125 9.269531 L 143.882812 9.449219 L 143.847656 9.542969 L 143.816406 9.644531 L 143.789062 9.746094 L 143.765625 9.855469 L 143.742188 9.96875 L 143.722656 10.085938 L 143.707031 10.210938 L 143.691406 10.339844 L 143.679688 10.476562 L 143.671875 10.617188 L 143.664062 10.761719 L 143.660156 10.910156 L 143.660156 11.226562 L 143.667969 11.382812 L 143.671875 11.53125 L 143.683594 11.671875 L 143.695312 11.808594 L 143.710938 11.941406 L 143.730469 12.070312 L 143.75 12.191406 L 143.773438 12.304688 L 143.800781 12.414062 L 143.832031 12.519531 L 143.863281 12.617188 L 143.933594 12.804688 L 143.96875 12.890625 L 144.007812 12.972656 L 144.050781 13.050781 L 144.09375 13.125 L 144.140625 13.195312 L 144.1875 13.257812 L 144.238281 13.320312 L 144.292969 13.378906 L 144.402344 13.480469 L 144.460938 13.527344 L 144.519531 13.570312 L 144.582031 13.609375 L 144.644531 13.644531 L 144.710938 13.675781 L 144.777344 13.703125 L 144.84375 13.726562 L 144.914062 13.75 L 144.984375 13.769531 L 145.132812 13.800781 L 145.207031 13.8125 L 145.28125 13.820312 L 145.359375 13.828125 L 145.4375 13.832031 L 145.605469 13.832031 L 145.691406 13.828125 L 145.777344 13.820312 L 145.859375 13.8125 L 145.941406 13.800781 L 146.019531 13.789062 L 146.097656 13.773438 L 146.175781 13.753906 L 146.25 13.734375 L 146.324219 13.710938 L 146.394531 13.683594 L 146.460938 13.652344 L 146.527344 13.617188 L 146.59375 13.578125 L 146.65625 13.535156 L 146.714844 13.488281 L 146.773438 13.4375 L 146.882812 13.328125 L 146.933594 13.265625 L 146.984375 13.199219 L 147.03125 13.128906 L 147.074219 13.054688 L 147.117188 12.976562 L 147.15625 12.894531 L 147.195312 12.808594 L 147.230469 12.714844 L 147.261719 12.621094 L 147.292969 12.519531 L 147.320312 12.414062 L 147.347656 12.304688 L 147.371094 12.191406 L 147.390625 12.070312 L 147.40625 11.941406 L 147.421875 11.808594 L 147.433594 11.671875 L 147.445312 11.53125 L 147.453125 11.382812 L 147.457031 11.226562 Z M 147.457031 11.066406 "/>
<path fill-rule="nonzero" fill="rgb(0%, 0%, 0%)" fill-opacity="1" d="M 154.546875 14.5625 L 154.546875 10.039062 L 154.542969 9.941406 L 154.539062 9.847656 L 154.535156 9.757812 L 154.527344 9.671875 L 154.519531 9.589844 L 154.507812 9.507812 L 154.484375 9.359375 L 154.46875 9.289062 L 154.4375 9.15625 L 154.417969 9.097656 L 154.398438 9.035156 L 154.375 8.980469 L 154.347656 8.925781 L 154.324219 8.875 L 154.292969 8.828125 L 154.230469 8.742188 L 154.195312 8.699219 L 154.160156 8.660156 L 154.121094 8.625 L 154.078125 8.589844 L 154.035156 8.558594 L 153.988281 8.53125 L 153.941406 8.507812 L 153.839844 8.460938 L 153.785156 8.445312 L 153.730469 8.425781 L 153.671875 8.410156 L 153.613281 8.398438 L 153.480469 8.375 L 153.414062 8.367188 L 153.265625 8.359375 L 153.1875 8.355469 L 153.027344 8.355469 L 152.949219 8.359375 L 152.867188 8.367188 L 152.792969 8.378906 L 152.714844 8.390625 L 152.640625 8.40625 L 152.570312 8.425781 L 152.429688 8.472656 L 152.363281 8.503906 L 152.296875 8.53125 L 152.234375 8.5625 L 152.171875 8.597656 L 152.113281 8.636719 L 152.054688 8.679688 L 151.945312 8.765625 L 151.84375 8.867188 L 151.792969 8.921875 L 151.75 8.976562 L 151.707031 9.035156 L 151.664062 9.097656 L 151.625 9.160156 L 151.554688 9.292969 L 151.519531 9.367188 L 151.488281 9.441406 L 151.433594 9.597656 L 151.386719 9.761719 L 151.367188 9.847656 L 151.335938 10.027344 L 151.324219 10.121094 L 151.308594 10.316406 L 151.304688 10.417969 L 151.304688 14.5625 L 150.144531 14.5625 L 150.144531 8.851562 L 150.140625 8.804688 L 150.140625 8.664062 L 150.136719 8.617188 L 150.136719 8.292969 L 150.132812 8.246094 L 150.132812 8.160156 L 150.128906 8.117188 L 150.128906 8.035156 L 150.125 7.996094 L 150.125 7.921875 L 150.121094 7.886719 L 150.121094 7.820312 L 150.117188 7.785156 L 150.117188 7.730469 L 150.113281 7.703125 L 150.113281 7.660156 L 150.109375 7.640625 L 150.109375 7.609375 L 150.105469 7.597656 L 150.105469 7.585938 L 151.203125 7.585938 L 151.203125 7.605469 L 151.207031 7.617188 L 151.207031 7.648438 L 151.210938 7.664062 L 151.210938 7.707031 L 151.214844 7.734375 L 151.214844 7.789062 L 151.21875 7.820312 L 151.21875 7.882812 L 151.222656 7.914062 L 151.222656 8.015625 L 151.226562 8.054688 L 151.226562 8.089844 L 151.230469 8.125 L 151.230469 8.164062 L 151.238281 8.234375 L 151.238281 8.273438 L 151.242188 8.3125 L 151.242188 8.386719 L 151.246094 8.425781 L 151.246094 8.5 L 151.25 8.535156 L 151.25 8.667969 L 151.253906 8.695312 L 151.253906 8.78125 L 151.273438 8.78125 L 151.304688 8.71875 L 151.375 8.601562 L 151.410156 8.546875 L 151.449219 8.492188 L 151.484375 8.4375 L 151.523438 8.382812 L 151.640625 8.230469 L 151.679688 8.183594 L 151.765625 8.089844 L 151.808594 8.046875 L 151.855469 8.007812 L 151.902344 7.964844 L 151.949219 7.925781 L 152 7.890625 L 152.050781 7.851562 L 152.105469 7.820312 L 152.15625 7.785156 L 152.210938 7.753906 L 152.328125 7.691406 L 152.386719 7.667969 L 152.449219 7.640625 L 152.574219 7.59375 L 152.640625 7.574219 L 152.710938 7.554688 L 152.777344 7.535156 L 152.925781 7.503906 L 153 7.492188 L 153.078125 7.480469 L 153.160156 7.472656 L 153.242188 7.46875 L 153.328125 7.460938 L 153.414062 7.460938 L 153.503906 7.457031 L 153.617188 7.460938 L 153.726562 7.464844 L 153.835938 7.472656 L 153.941406 7.480469 L 154.042969 7.492188 L 154.140625 7.507812 L 154.234375 7.527344 L 154.328125 7.550781 L 154.414062 7.574219 L 154.5 7.601562 L 154.582031 7.628906 L 154.664062 7.664062 L 154.738281 7.699219 L 154.8125 7.738281 L 154.882812 7.78125 L 154.949219 7.824219 L 155.015625 7.875 L 155.078125 7.925781 L 155.136719 7.980469 L 155.191406 8.039062 L 155.242188 8.097656 L 155.292969 8.164062 L 155.339844 8.230469 L 155.425781 8.378906 L 155.460938 8.457031 L 155.496094 8.539062 L 155.53125 8.625 L 155.558594 8.710938 L 155.585938 8.804688 L 155.609375 8.898438 L 155.648438 9.101562 L 155.667969 9.207031 L 155.679688 9.3125 L 155.691406 9.425781 L 155.703125 9.542969 L 155.710938 9.785156 L 155.714844 9.914062 L 155.714844 14.5625 Z M 154.546875 14.5625 "/>
<path fill-rule="nonzero" fill="rgb(0%, 0%, 0%)" fill-opacity="1" d="M 160.140625 14.507812 L 160.089844 14.523438 L 160.035156 14.535156 L 159.980469 14.550781 L 159.925781 14.5625 L 159.875 14.570312 L 159.765625 14.59375 L 159.601562 14.617188 L 159.542969 14.628906 L 159.488281 14.636719 L 159.429688 14.640625 L 159.367188 14.648438 L 159.242188 14.65625 L 159.109375 14.664062 L 158.96875 14.664062 L 158.703125 14.648438 L 158.46875 14.601562 L 158.257812 14.523438 L 158.078125 14.410156 L 157.925781 14.269531 L 157.796875 14.09375 L 157.699219 13.890625 L 157.632812 13.652344 L 157.589844 13.386719 L 157.574219 13.085938 L 157.574219 8.429688 L 156.769531 8.429688 L 156.769531 7.585938 L 157.621094 7.585938 L 157.960938 6.027344 L 158.734375 6.027344 L 158.734375 7.585938 L 160.023438 7.585938 L 160.023438 8.429688 L 158.734375 8.429688 L 158.734375 12.832031 L 158.738281 12.929688 L 158.742188 13.023438 L 158.75 13.109375 L 158.761719 13.1875 L 158.777344 13.261719 L 158.792969 13.332031 L 158.839844 13.449219 L 158.867188 13.5 L 158.898438 13.542969 L 158.933594 13.582031 L 158.972656 13.613281 L 159.019531 13.644531 L 159.070312 13.671875 L 159.125 13.691406 L 159.183594 13.710938 L 159.316406 13.734375 L 159.390625 13.742188 L 159.539062 13.742188 L 159.570312 13.738281 L 159.601562 13.738281 L 159.636719 13.734375 L 159.667969 13.734375 L 159.761719 13.722656 L 159.792969 13.714844 L 159.824219 13.710938 L 159.859375 13.707031 L 159.890625 13.699219 L 159.925781 13.695312 L 159.996094 13.679688 L 160.03125 13.675781 L 160.066406 13.667969 L 160.105469 13.660156 L 160.140625 13.652344 Z M 160.140625 14.507812 "/>
<path fill-rule="nonzero" fill="rgb(0%, 0%, 0%)" fill-opacity="1" d="M 161.121094 6.105469 L 161.121094 4.996094 L 162.28125 4.996094 L 162.28125 6.105469 Z M 161.121094 14.5625 L 161.121094 7.585938 L 162.28125 7.585938 L 162.28125 14.5625 Z M 161.121094 14.5625 "/>
<path fill-rule="nonzero" fill="rgb(0%, 0%, 0%)" fill-opacity="1" d="M 168.488281 14.5625 L 168.488281 10.039062 L 168.484375 9.941406 L 168.480469 9.847656 L 168.476562 9.757812 L 168.46875 9.671875 L 168.460938 9.589844 L 168.449219 9.507812 L 168.425781 9.359375 L 168.410156 9.289062 L 168.378906 9.15625 L 168.359375 9.097656 L 168.339844 9.035156 L 168.316406 8.980469 L 168.289062 8.925781 L 168.265625 8.875 L 168.234375 8.828125 L 168.171875 8.742188 L 168.136719 8.699219 L 168.101562 8.660156 L 168.0625 8.625 L 168.019531 8.589844 L 167.976562 8.558594 L 167.929688 8.53125 L 167.882812 8.507812 L 167.78125 8.460938 L 167.726562 8.445312 L 167.671875 8.425781 L 167.613281 8.410156 L 167.488281 8.386719 L 167.421875 8.375 L 167.355469 8.367188 L 167.207031 8.359375 L 167.128906 8.355469 L 166.96875 8.355469 L 166.886719 8.359375 L 166.808594 8.367188 L 166.734375 8.378906 L 166.65625 8.390625 L 166.582031 8.40625 L 166.511719 8.425781 L 166.371094 8.472656 L 166.304688 8.503906 L 166.238281 8.53125 L 166.175781 8.5625 L 166.113281 8.597656 L 166.054688 8.636719 L 165.996094 8.679688 L 165.886719 8.765625 L 165.785156 8.867188 L 165.734375 8.921875 L 165.691406 8.976562 L 165.648438 9.035156 L 165.605469 9.097656 L 165.566406 9.160156 L 165.496094 9.292969 L 165.460938 9.367188 L 165.429688 9.441406 L 165.375 9.597656 L 165.328125 9.761719 L 165.308594 9.847656 L 165.277344 10.027344 L 165.265625 10.121094 L 165.25 10.316406 L 165.246094 10.417969 L 165.246094 14.5625 L 164.085938 14.5625 L 164.085938 8.898438 L 164.082031 8.851562 L 164.082031 8.664062 L 164.078125 8.617188 L 164.078125 8.335938 L 164.074219 8.292969 L 164.074219 8.160156 L 164.070312 8.117188 L 164.070312 8.035156 L 164.066406 7.996094 L 164.066406 7.921875 L 164.0625 7.886719 L 164.0625 7.820312 L 164.058594 7.785156 L 164.058594 7.730469 L 164.054688 7.703125 L 164.054688 7.660156 L 164.050781 7.640625 L 164.050781 7.609375 L 164.046875 7.597656 L 164.046875 7.585938 L 165.144531 7.585938 L 165.144531 7.617188 L 165.148438 7.628906 L 165.148438 7.664062 L 165.152344 7.6875 L 165.152344 7.734375 L 165.15625 7.761719 L 165.15625 7.820312 L 165.160156 7.851562 L 165.160156 7.914062 L 165.164062 7.949219 L 165.164062 8.015625 L 165.167969 8.054688 L 165.167969 8.089844 L 165.171875 8.125 L 165.171875 8.164062 L 165.175781 8.199219 L 165.175781 8.234375 L 165.179688 8.273438 L 165.179688 8.3125 L 165.183594 8.347656 L 165.183594 8.386719 L 165.1875 8.425781 L 165.1875 8.5 L 165.191406 8.535156 L 165.191406 8.667969 L 165.195312 8.695312 L 165.195312 8.78125 L 165.214844 8.78125 L 165.246094 8.71875 L 165.316406 8.601562 L 165.351562 8.546875 L 165.390625 8.492188 L 165.425781 8.4375 L 165.464844 8.382812 L 165.582031 8.230469 L 165.621094 8.183594 L 165.707031 8.089844 L 165.75 8.046875 L 165.796875 8.007812 L 165.84375 7.964844 L 165.890625 7.925781 L 165.941406 7.890625 L 165.992188 7.851562 L 166.046875 7.820312 L 166.097656 7.785156 L 166.152344 7.753906 L 166.269531 7.691406 L 166.328125 7.667969 L 166.390625 7.640625 L 166.515625 7.59375 L 166.582031 7.574219 L 166.652344 7.554688 L 166.71875 7.535156 L 166.867188 7.503906 L 166.941406 7.492188 L 167.019531 7.480469 L 167.101562 7.472656 L 167.183594 7.46875 L 167.265625 7.460938 L 167.355469 7.460938 L 167.445312 7.457031 L 167.558594 7.460938 L 167.667969 7.464844 L 167.777344 7.472656 L 167.882812 7.480469 L 167.984375 7.492188 L 168.082031 7.507812 L 168.175781 7.527344 L 168.269531 7.550781 L 168.355469 7.574219 L 168.441406 7.601562 L 168.523438 7.628906 L 168.605469 7.664062 L 168.679688 7.699219 L 168.753906 7.738281 L 168.824219 7.78125 L 168.890625 7.824219 L 168.957031 7.875 L 169.019531 7.925781 L 169.078125 7.980469 L 169.132812 8.039062 L 169.183594 8.097656 L 169.234375 8.164062 L 169.28125 8.230469 L 169.367188 8.378906 L 169.402344 8.457031 L 169.4375 8.539062 L 169.5 8.710938 L 169.527344 8.804688 L 169.550781 8.898438 L 169.589844 9.101562 L 169.609375 9.207031 L 169.621094 9.3125 L 169.632812 9.425781 L 169.644531 9.542969 L 169.652344 9.785156 L 169.65625 9.914062 L 169.65625 14.5625 Z M 168.488281 14.5625 "/>
<path fill-rule="nonzero" fill="rgb(0%, 0%, 0%)" fill-opacity="1" d="M 172.535156 7.585938 L 172.535156 12.109375 L 172.539062 12.207031 L 172.542969 12.300781 L 172.546875 12.390625 L 172.554688 12.476562 L 172.570312 12.640625 L 172.59375 12.789062 L 172.605469 12.859375 L 172.621094 12.925781 L 172.640625 12.992188 L 172.660156 13.050781 L 172.683594 13.113281 L 172.730469 13.222656 L 172.757812 13.273438 L 172.789062 13.324219 L 172.820312 13.371094 L 172.851562 13.414062 L 172.921875 13.492188 L 172.960938 13.527344 L 173 13.558594 L 173.042969 13.589844 L 173.089844 13.621094 L 173.183594 13.667969 L 173.238281 13.691406 L 173.289062 13.710938 L 173.40625 13.742188 L 173.53125 13.765625 L 173.597656 13.773438 L 173.667969 13.78125 L 173.816406 13.789062 L 173.894531 13.792969 L 174.054688 13.792969 L 174.132812 13.789062 L 174.210938 13.78125 L 174.289062 13.769531 L 174.363281 13.757812 L 174.4375 13.742188 L 174.578125 13.703125 L 174.648438 13.679688 L 174.714844 13.652344 L 174.78125 13.621094 L 174.84375 13.589844 L 174.90625 13.550781 L 174.964844 13.515625 L 175.023438 13.472656 L 175.078125 13.429688 L 175.132812 13.382812 L 175.183594 13.335938 L 175.234375 13.285156 L 175.28125 13.234375 L 175.328125 13.175781 L 175.371094 13.117188 L 175.414062 13.054688 L 175.453125 12.992188 L 175.492188 12.925781 L 175.5625 12.785156 L 175.59375 12.710938 L 175.621094 12.636719 L 175.648438 12.554688 L 175.695312 12.390625 L 175.714844 12.300781 L 175.730469 12.214844 L 175.746094 12.121094 L 175.757812 12.027344 L 175.773438 11.832031 L 175.777344 11.730469 L 175.777344 7.585938 L 176.9375 7.585938 L 176.9375 13.582031 L 176.941406 13.628906 L 176.941406 13.722656 L 176.945312 13.769531 L 176.945312 13.859375 L 176.949219 13.90625 L 176.949219 13.992188 L 176.953125 14.035156 L 176.953125 14.117188 L 176.957031 14.15625 L 176.957031 14.226562 L 176.960938 14.261719 L 176.960938 14.328125 L 176.964844 14.359375 L 176.964844 14.417969 L 176.96875 14.445312 L 176.96875 14.488281 L 176.972656 14.507812 L 176.972656 14.539062 L 176.976562 14.550781 L 176.976562 14.5625 L 175.878906 14.5625 L 175.878906 14.542969 L 175.875 14.53125 L 175.875 14.5 L 175.871094 14.484375 L 175.871094 14.4375 L 175.867188 14.414062 L 175.867188 14.359375 L 175.863281 14.328125 L 175.863281 14.265625 L 175.859375 14.234375 L 175.859375 14.203125 L 175.855469 14.167969 L 175.851562 14.136719 L 175.851562 14.101562 L 175.847656 14.066406 L 175.847656 14.027344 L 175.84375 13.988281 L 175.84375 13.878906 L 175.839844 13.839844 L 175.839844 13.765625 L 175.835938 13.726562 L 175.835938 13.652344 L 175.832031 13.617188 L 175.832031 13.511719 L 175.828125 13.480469 L 175.828125 13.367188 L 175.808594 13.367188 L 175.777344 13.429688 L 175.707031 13.546875 L 175.671875 13.601562 L 175.632812 13.65625 L 175.597656 13.710938 L 175.558594 13.765625 L 175.441406 13.917969 L 175.402344 13.964844 L 175.316406 14.058594 L 175.273438 14.101562 L 175.226562 14.144531 L 175.132812 14.222656 L 175.03125 14.300781 L 174.976562 14.335938 L 174.925781 14.367188 L 174.871094 14.398438 L 174.8125 14.429688 L 174.695312 14.484375 L 174.570312 14.53125 L 174.503906 14.554688 L 174.441406 14.574219 L 174.371094 14.59375 L 174.304688 14.613281 L 174.230469 14.628906 L 174.15625 14.640625 L 174.082031 14.65625 L 174.003906 14.664062 L 173.921875 14.675781 L 173.839844 14.679688 L 173.753906 14.6875 L 173.667969 14.6875 L 173.578125 14.691406 L 173.464844 14.6875 L 173.355469 14.683594 L 173.246094 14.675781 L 173.140625 14.667969 L 173.039062 14.65625 L 172.941406 14.640625 L 172.847656 14.621094 L 172.753906 14.597656 L 172.664062 14.574219 L 172.5 14.519531 L 172.417969 14.484375 L 172.34375 14.449219 L 172.269531 14.410156 L 172.199219 14.367188 L 172.066406 14.273438 L 172.003906 14.222656 L 171.945312 14.167969 L 171.890625 14.109375 L 171.789062 13.984375 L 171.742188 13.917969 L 171.695312 13.847656 L 171.65625 13.769531 L 171.617188 13.695312 L 171.582031 13.613281 L 171.546875 13.527344 L 171.519531 13.441406 L 171.492188 13.347656 L 171.46875 13.253906 L 171.445312 13.15625 L 171.429688 13.054688 L 171.414062 12.949219 L 171.398438 12.839844 L 171.386719 12.726562 L 171.378906 12.609375 L 171.375 12.488281 L 171.371094 12.363281 L 171.367188 12.234375 L 171.367188 7.585938 Z M 172.535156 7.585938 "/>
<path fill-rule="nonzero" fill="rgb(0%, 0%, 0%)" fill-opacity="1" d="M 184.640625 11.066406 L 184.632812 11.425781 L 184.609375 11.761719 L 184.566406 12.082031 L 184.511719 12.382812 L 184.4375 12.664062 L 184.351562 12.925781 L 184.246094 13.171875 L 184.125 13.398438 L 183.988281 13.605469 L 183.835938 13.792969 L 183.664062 13.964844 L 183.484375 14.117188 L 183.285156 14.25 L 183.074219 14.367188 L 182.847656 14.464844 L 182.605469 14.546875 L 182.347656 14.609375 L 182.078125 14.652344 L 181.792969 14.679688 L 181.496094 14.691406 L 181.351562 14.6875 L 181.070312 14.671875 L 180.9375 14.65625 L 180.804688 14.636719 L 180.675781 14.609375 L 180.550781 14.582031 L 180.429688 14.550781 L 180.308594 14.511719 L 180.191406 14.46875 L 180.078125 14.425781 L 179.96875 14.375 L 179.863281 14.316406 L 179.761719 14.257812 L 179.664062 14.195312 L 179.566406 14.125 L 179.472656 14.050781 L 179.386719 13.972656 L 179.300781 13.886719 L 179.21875 13.800781 L 179.140625 13.707031 L 179.070312 13.609375 L 179 13.507812 L 178.933594 13.402344 L 178.871094 13.292969 L 178.8125 13.175781 L 178.757812 13.058594 L 178.707031 12.933594 L 178.65625 12.804688 L 178.613281 12.671875 L 178.574219 12.535156 L 178.539062 12.390625 L 178.507812 12.242188 L 178.480469 12.085938 L 178.457031 11.929688 L 178.441406 11.765625 L 178.425781 11.597656 L 178.414062 11.425781 L 178.410156 11.25 L 178.40625 11.066406 L 178.4375 10.382812 L 178.53125 9.769531 L 178.6875 9.226562 L 178.90625 8.757812 L 179.1875 8.359375 L 179.53125 8.035156 L 179.9375 7.78125 L 180.40625 7.601562 L 180.9375 7.496094 L 181.53125 7.457031 L 181.691406 7.460938 L 181.847656 7.46875 L 182 7.476562 L 182.148438 7.496094 L 182.289062 7.515625 L 182.425781 7.539062 L 182.558594 7.570312 L 182.6875 7.601562 L 182.8125 7.640625 L 182.933594 7.683594 L 183.046875 7.730469 L 183.160156 7.78125 L 183.269531 7.839844 L 183.371094 7.898438 L 183.46875 7.964844 L 183.5625 8.035156 L 183.65625 8.109375 L 183.738281 8.1875 L 183.820312 8.273438 L 183.898438 8.359375 L 183.972656 8.453125 L 184.042969 8.550781 L 184.109375 8.652344 L 184.171875 8.757812 L 184.230469 8.867188 L 184.332031 9.101562 L 184.378906 9.226562 L 184.421875 9.355469 L 184.460938 9.488281 L 184.492188 9.625 L 184.523438 9.769531 L 184.550781 9.914062 L 184.574219 10.066406 L 184.59375 10.222656 L 184.609375 10.382812 L 184.625 10.546875 L 184.632812 10.714844 Z M 183.421875 11.066406 L 183.421875 10.90625 L 183.417969 10.753906 L 183.410156 10.605469 L 183.402344 10.464844 L 183.390625 10.328125 L 183.375 10.195312 L 183.359375 10.070312 L 183.339844 9.949219 L 183.316406 9.835938 L 183.292969 9.726562 L 183.238281 9.523438 L 183.207031 9.429688 L 183.175781 9.339844 L 183.140625 9.25 L 183.101562 9.167969 L 183.0625 9.089844 L 183.019531 9.015625 L 182.925781 8.882812 L 182.875 8.820312 L 182.773438 8.710938 L 182.71875 8.660156 L 182.660156 8.613281 L 182.601562 8.574219 L 182.539062 8.535156 L 182.472656 8.5 L 182.339844 8.445312 L 182.269531 8.417969 L 182.121094 8.378906 L 182.046875 8.363281 L 181.96875 8.347656 L 181.886719 8.335938 L 181.808594 8.328125 L 181.722656 8.320312 L 181.640625 8.316406 L 181.464844 8.316406 L 181.378906 8.320312 L 181.292969 8.328125 L 181.210938 8.335938 L 181.128906 8.347656 L 181.050781 8.363281 L 180.894531 8.402344 L 180.746094 8.449219 L 180.675781 8.476562 L 180.542969 8.546875 L 180.480469 8.585938 L 180.417969 8.628906 L 180.359375 8.675781 L 180.300781 8.726562 L 180.246094 8.78125 L 180.191406 8.839844 L 180.140625 8.902344 L 180.089844 8.96875 L 180.046875 9.035156 L 180 9.109375 L 179.957031 9.1875 L 179.917969 9.269531 L 179.847656 9.449219 L 179.8125 9.542969 L 179.78125 9.644531 L 179.753906 9.746094 L 179.730469 9.855469 L 179.707031 9.96875 L 179.6875 10.085938 L 179.671875 10.210938 L 179.65625 10.339844 L 179.644531 10.476562 L 179.636719 10.617188 L 179.628906 10.761719 L 179.625 10.910156 L 179.625 11.226562 L 179.632812 11.382812 L 179.636719 11.53125 L 179.648438 11.671875 L 179.660156 11.808594 L 179.675781 11.941406 L 179.695312 12.070312 L 179.714844 12.191406 L 179.738281 12.304688 L 179.765625 12.414062 L 179.796875 12.519531 L 179.828125 12.617188 L 179.898438 12.804688 L 179.933594 12.890625 L 179.972656 12.972656 L 180.015625 13.050781 L 180.058594 13.125 L 180.105469 13.195312 L 180.152344 13.257812 L 180.203125 13.320312 L 180.257812 13.378906 L 180.367188 13.480469 L 180.425781 13.527344 L 180.484375 13.570312 L 180.546875 13.609375 L 180.609375 13.644531 L 180.675781 13.675781 L 180.742188 13.703125 L 180.808594 13.726562 L 180.878906 13.75 L 180.949219 13.769531 L 181.097656 13.800781 L 181.171875 13.8125 L 181.246094 13.820312 L 181.324219 13.828125 L 181.402344 13.832031 L 181.570312 13.832031 L 181.65625 13.828125 L 181.742188 13.820312 L 181.824219 13.8125 L 181.90625 13.800781 L 181.984375 13.789062 L 182.0625 13.773438 L 182.140625 13.753906 L 182.214844 13.734375 L 182.289062 13.710938 L 182.359375 13.683594 L 182.425781 13.652344 L 182.492188 13.617188 L 182.558594 13.578125 L 182.621094 13.535156 L 182.679688 13.488281 L 182.738281 13.4375 L 182.847656 13.328125 L 182.898438 13.265625 L 182.949219 13.199219 L 182.996094 13.128906 L 183.039062 13.054688 L 183.082031 12.976562 L 183.121094 12.894531 L 183.160156 12.808594 L 183.195312 12.714844 L 183.226562 12.621094 L 183.257812 12.519531 L 183.285156 12.414062 L 183.3125 12.304688 L 183.335938 12.191406 L 183.355469 12.070312 L 183.371094 11.941406 L 183.386719 11.808594 L 183.398438 11.671875 L 183.410156 11.53125 L 183.417969 11.382812 L 183.421875 11.226562 Z M 183.421875 11.066406 "/>
<path fill-rule="nonzero" fill="rgb(0%, 0%, 0%)" fill-opacity="1" d="M 187.21875 7.585938 L 187.21875 12.207031 L 187.222656 12.300781 L 187.230469 12.390625 L 187.234375 12.476562 L 187.242188 12.558594 L 187.253906 12.640625 L 187.261719 12.714844 L 187.273438 12.789062 L 187.289062 12.859375 L 187.304688 12.925781 L 187.324219 12.992188 L 187.34375 13.050781 L 187.363281 13.113281 L 187.386719 13.167969 L 187.414062 13.222656 L 187.46875 13.324219 L 187.5 13.371094 L 187.535156 13.414062 L 187.566406 13.453125 L 187.605469 13.492188 L 187.644531 13.527344 L 187.683594 13.558594 L 187.726562 13.589844 L 187.773438 13.621094 L 187.867188 13.667969 L 187.917969 13.691406 L 187.972656 13.710938 L 188.027344 13.726562 L 188.089844 13.742188 L 188.148438 13.753906 L 188.214844 13.765625 L 188.28125 13.773438 L 188.351562 13.78125 L 188.421875 13.785156 L 188.496094 13.789062 L 188.574219 13.792969 L 188.738281 13.792969 L 188.816406 13.789062 L 188.894531 13.78125 L 188.972656 13.769531 L 189.046875 13.757812 L 189.121094 13.742188 L 189.261719 13.703125 L 189.328125 13.679688 L 189.394531 13.652344 L 189.527344 13.589844 L 189.589844 13.550781 L 189.648438 13.515625 L 189.707031 13.472656 L 189.761719 13.429688 L 189.816406 13.382812 L 189.867188 13.335938 L 189.917969 13.285156 L 189.964844 13.234375 L 190.011719 13.175781 L 190.054688 13.117188 L 190.097656 13.054688 L 190.136719 12.992188 L 190.175781 12.925781 L 190.210938 12.855469 L 190.242188 12.785156 L 190.304688 12.636719 L 190.332031 12.554688 L 190.378906 12.390625 L 190.398438 12.300781 L 190.414062 12.214844 L 190.4375 12.027344 L 190.449219 11.929688 L 190.453125 11.832031 L 190.460938 11.628906 L 190.460938 7.585938 L 191.621094 7.585938 L 191.621094 13.628906 L 191.625 13.675781 L 191.625 13.769531 L 191.628906 13.816406 L 191.628906 13.90625 L 191.632812 13.949219 L 191.632812 14.035156 L 191.636719 14.078125 L 191.636719 14.15625 L 191.640625 14.191406 L 191.640625 14.261719 L 191.644531 14.296875 L 191.644531 14.359375 L 191.648438 14.390625 L 191.648438 14.445312 L 191.652344 14.46875 L 191.652344 14.507812 L 191.65625 14.523438 L 191.65625 14.550781 L 191.660156 14.5625 L 190.5625 14.5625 L 190.5625 14.554688 L 190.558594 14.542969 L 190.558594 14.519531 L 190.554688 14.5 L 190.554688 14.460938 L 190.550781 14.4375 L 190.550781 14.386719 L 190.546875 14.359375 L 190.546875 14.296875 L 190.542969 14.265625 L 190.542969 14.234375 L 190.539062 14.203125 L 190.539062 14.167969 L 190.535156 14.136719 L 190.535156 14.101562 L 190.53125 14.066406 L 190.53125 14.027344 L 190.527344 13.988281 L 190.527344 13.914062 L 190.523438 13.878906 L 190.523438 13.804688 L 190.519531 13.765625 L 190.519531 13.691406 L 190.515625 13.652344 L 190.515625 13.546875 L 190.511719 13.511719 L 190.511719 13.367188 L 190.492188 13.367188 L 190.457031 13.429688 L 190.386719 13.546875 L 190.28125 13.710938 L 190.242188 13.765625 L 190.125 13.917969 L 190.085938 13.964844 L 190 14.058594 L 189.953125 14.101562 L 189.910156 14.144531 L 189.863281 14.183594 L 189.8125 14.222656 L 189.765625 14.261719 L 189.710938 14.300781 L 189.660156 14.335938 L 189.496094 14.429688 L 189.378906 14.484375 L 189.253906 14.53125 L 189.1875 14.554688 L 189.054688 14.59375 L 188.984375 14.613281 L 188.914062 14.628906 L 188.839844 14.640625 L 188.765625 14.65625 L 188.6875 14.664062 L 188.605469 14.675781 L 188.523438 14.679688 L 188.4375 14.6875 L 188.351562 14.6875 L 188.261719 14.691406 L 188.035156 14.683594 L 187.824219 14.667969 L 187.722656 14.65625 L 187.625 14.640625 L 187.527344 14.621094 L 187.347656 14.574219 L 187.261719 14.546875 L 187.179688 14.519531 L 187.023438 14.449219 L 186.953125 14.410156 L 186.882812 14.367188 L 186.8125 14.320312 L 186.75 14.273438 L 186.6875 14.222656 L 186.628906 14.167969 L 186.574219 14.109375 L 186.519531 14.046875 L 186.46875 13.984375 L 186.421875 13.917969 L 186.378906 13.847656 L 186.339844 13.769531 L 186.300781 13.695312 L 186.265625 13.613281 L 186.230469 13.527344 L 186.199219 13.441406 L 186.171875 13.347656 L 186.152344 13.253906 L 186.128906 13.15625 L 186.109375 13.054688 L 186.09375 12.949219 L 186.082031 12.839844 L 186.070312 12.726562 L 186.0625 12.609375 L 186.054688 12.488281 L 186.050781 12.363281 L 186.050781 7.585938 Z M 187.21875 7.585938 "/>
<path fill-rule="nonzero" fill="rgb(0%, 0%, 0%)" fill-opacity="1" d="M 198.660156 12.632812 L 198.65625 12.730469 L 198.652344 12.824219 L 198.640625 12.917969 L 198.628906 13.007812 L 198.609375 13.097656 L 198.589844 13.183594 L 198.5625 13.269531 L 198.535156 13.351562 L 198.5 13.433594 L 198.464844 13.511719 L 198.425781 13.585938 L 198.382812 13.65625 L 198.289062 13.796875 L 198.234375 13.863281 L 198.179688 13.925781 L 198.054688 14.042969 L 197.988281 14.101562 L 197.917969 14.15625 L 197.84375 14.207031 L 197.765625 14.253906 L 197.683594 14.300781 L 197.601562 14.34375 L 197.515625 14.382812 L 197.421875 14.421875 L 197.328125 14.457031 L 197.230469 14.492188 L 197.132812 14.523438 L 197.027344 14.554688 L 196.921875 14.582031 L 196.8125 14.601562 L 196.699219 14.625 L 196.585938 14.640625 L 196.46875 14.65625 L 196.34375 14.667969 L 196.222656 14.675781 L 196.09375 14.683594 L 195.828125 14.691406 L 195.707031 14.6875 L 195.589844 14.6875 L 195.476562 14.679688 L 195.363281 14.675781 L 195.25 14.664062 L 195.144531 14.65625 L 195.039062 14.640625 L 194.933594 14.628906 L 194.832031 14.613281 L 194.636719 14.574219 L 194.542969 14.550781 L 194.363281 14.503906 L 194.277344 14.472656 L 194.113281 14.410156 L 194.035156 14.375 L 193.957031 14.335938 L 193.882812 14.296875 L 193.808594 14.253906 L 193.738281 14.207031 L 193.671875 14.160156 L 193.605469 14.109375 L 193.542969 14.058594 L 193.484375 14.003906 L 193.425781 13.945312 L 193.367188 13.882812 L 193.316406 13.820312 L 193.261719 13.753906 L 193.214844 13.683594 L 193.171875 13.613281 L 193.128906 13.535156 L 193.089844 13.457031 L 193.050781 13.375 L 193.015625 13.292969 L 192.953125 13.113281 L 192.925781 13.019531 L 192.902344 12.921875 L 193.925781 12.722656 L 193.960938 12.832031 L 194 12.9375 L 194.042969 13.035156 L 194.097656 13.125 L 194.15625 13.210938 L 194.21875 13.289062 L 194.289062 13.363281 L 194.367188 13.429688 L 194.449219 13.492188 L 194.539062 13.550781 L 194.636719 13.597656 L 194.738281 13.640625 L 194.851562 13.679688 L 194.96875 13.714844 L 195.09375 13.742188 L 195.226562 13.765625 L 195.367188 13.785156 L 195.511719 13.796875 L 195.667969 13.804688 L 195.828125 13.808594 L 195.902344 13.804688 L 195.976562 13.804688 L 196.1875 13.792969 L 196.253906 13.789062 L 196.386719 13.773438 L 196.449219 13.765625 L 196.511719 13.753906 L 196.574219 13.746094 L 196.632812 13.730469 L 196.691406 13.71875 L 196.75 13.703125 L 196.804688 13.6875 L 196.859375 13.667969 L 196.960938 13.628906 L 197.054688 13.582031 L 197.140625 13.527344 L 197.21875 13.464844 L 197.253906 13.433594 L 197.285156 13.398438 L 197.320312 13.363281 L 197.402344 13.246094 L 197.425781 13.203125 L 197.449219 13.15625 L 197.46875 13.109375 L 197.5 13.007812 L 197.507812 12.957031 L 197.519531 12.902344 L 197.527344 12.785156 L 197.53125 12.722656 L 197.527344 12.660156 L 197.523438 12.601562 L 197.515625 12.546875 L 197.507812 12.488281 L 197.476562 12.386719 L 197.457031 12.339844 L 197.433594 12.292969 L 197.410156 12.25 L 197.382812 12.207031 L 197.351562 12.167969 L 197.28125 12.089844 L 197.246094 12.054688 L 197.203125 12.019531 L 197.164062 11.988281 L 197.117188 11.953125 L 197.070312 11.921875 L 196.96875 11.867188 L 196.859375 11.8125 L 196.800781 11.789062 L 196.675781 11.742188 L 196.542969 11.695312 L 196.472656 11.675781 L 196.398438 11.65625 L 196.324219 11.632812 L 196.25 11.613281 L 196.171875 11.59375 L 196.09375 11.570312 L 196.011719 11.550781 L 195.933594 11.527344 L 195.847656 11.503906 L 195.765625 11.480469 L 195.675781 11.457031 L 195.589844 11.433594 L 195.5 11.410156 L 195.417969 11.386719 L 195.332031 11.363281 L 195.25 11.339844 L 195.164062 11.316406 L 195 11.269531 L 194.917969 11.242188 L 194.832031 11.21875 L 194.585938 11.136719 L 194.351562 11.042969 L 194.203125 10.972656 L 194.128906 10.933594 L 194.058594 10.894531 L 193.988281 10.851562 L 193.921875 10.808594 L 193.855469 10.761719 L 193.792969 10.714844 L 193.675781 10.613281 L 193.621094 10.558594 L 193.570312 10.5 L 193.519531 10.445312 L 193.472656 10.382812 L 193.429688 10.320312 L 193.386719 10.253906 L 193.347656 10.1875 L 193.3125 10.117188 L 193.28125 10.042969 L 193.253906 9.964844 L 193.230469 9.886719 L 193.210938 9.800781 L 193.199219 9.714844 L 193.1875 9.621094 L 193.183594 9.527344 L 193.179688 9.429688 L 193.1875 9.246094 L 193.207031 9.066406 L 193.242188 8.898438 L 193.289062 8.742188 L 193.347656 8.589844 L 193.421875 8.449219 L 193.511719 8.320312 L 193.613281 8.195312 L 193.726562 8.085938 L 193.855469 7.980469 L 194 7.882812 L 194.15625 7.800781 L 194.320312 7.722656 L 194.503906 7.660156 L 194.695312 7.601562 L 194.898438 7.558594 L 195.117188 7.523438 L 195.34375 7.496094 L 195.585938 7.484375 L 195.839844 7.476562 L 196.066406 7.480469 L 196.285156 7.492188 L 196.492188 7.515625 L 196.6875 7.542969 L 196.875 7.578125 L 197.054688 7.625 L 197.222656 7.675781 L 197.382812 7.738281 L 197.53125 7.804688 L 197.671875 7.882812 L 197.804688 7.96875 L 197.925781 8.066406 L 198.035156 8.171875 L 198.136719 8.285156 L 198.230469 8.410156 L 198.3125 8.546875 L 198.382812 8.691406 L 198.445312 8.847656 L 198.496094 9.011719 L 198.535156 9.183594 L 197.492188 9.3125 L 197.480469 9.261719 L 197.449219 9.160156 L 197.410156 9.066406 L 197.363281 8.980469 L 197.335938 8.9375 L 197.308594 8.898438 L 197.214844 8.792969 L 197.179688 8.757812 L 197.109375 8.695312 L 197.03125 8.640625 L 196.988281 8.613281 L 196.949219 8.589844 L 196.90625 8.566406 L 196.859375 8.542969 L 196.816406 8.523438 L 196.769531 8.503906 L 196.71875 8.484375 L 196.671875 8.46875 L 196.570312 8.4375 L 196.515625 8.425781 L 196.464844 8.414062 L 196.410156 8.40625 L 196.355469 8.394531 L 196.300781 8.386719 L 196.242188 8.378906 L 196.1875 8.371094 L 196.132812 8.367188 L 196.015625 8.359375 L 195.960938 8.355469 L 195.6875 8.355469 L 195.542969 8.363281 L 195.40625 8.375 L 195.277344 8.390625 L 195.160156 8.414062 L 195.046875 8.441406 L 194.941406 8.472656 L 194.847656 8.507812 L 194.761719 8.546875 L 194.679688 8.59375 L 194.609375 8.644531 L 194.546875 8.699219 L 194.492188 8.757812 L 194.441406 8.824219 L 194.402344 8.890625 L 194.367188 8.96875 L 194.339844 9.046875 L 194.324219 9.128906 L 194.3125 9.21875 L 194.308594 9.3125 L 194.308594 9.371094 L 194.3125 9.425781 L 194.328125 9.527344 L 194.339844 9.574219 L 194.355469 9.621094 L 194.394531 9.707031 L 194.441406 9.785156 L 194.503906 9.855469 L 194.539062 9.886719 L 194.574219 9.921875 L 194.609375 9.953125 L 194.648438 9.984375 L 194.734375 10.039062 L 194.828125 10.09375 L 194.882812 10.117188 L 194.933594 10.140625 L 194.988281 10.164062 L 195.105469 10.210938 L 195.167969 10.230469 L 195.230469 10.253906 L 195.292969 10.273438 L 195.359375 10.292969 L 195.570312 10.351562 L 195.644531 10.367188 L 195.792969 10.40625 L 195.949219 10.445312 L 196.113281 10.484375 L 196.195312 10.507812 L 196.25 10.519531 L 196.308594 10.535156 L 196.417969 10.566406 L 196.535156 10.597656 L 196.589844 10.613281 L 196.707031 10.644531 L 196.761719 10.660156 L 196.820312 10.675781 L 196.878906 10.695312 L 196.9375 10.710938 L 197.046875 10.75 L 197.105469 10.769531 L 197.214844 10.808594 L 197.488281 10.925781 L 197.539062 10.949219 L 197.589844 10.976562 L 197.644531 11.003906 L 197.691406 11.03125 L 197.742188 11.058594 L 197.792969 11.089844 L 197.839844 11.117188 L 197.933594 11.179688 L 197.980469 11.214844 L 198.023438 11.246094 L 198.070312 11.285156 L 198.109375 11.320312 L 198.152344 11.359375 L 198.191406 11.398438 L 198.226562 11.4375 L 198.265625 11.480469 L 198.335938 11.566406 L 198.398438 11.660156 L 198.480469 11.8125 L 198.527344 11.921875 L 198.546875 11.976562 L 198.570312 12.035156 L 198.589844 12.09375 L 198.605469 12.15625 L 198.628906 12.28125 L 198.640625 12.347656 L 198.648438 12.417969 L 198.65625 12.558594 Z M 198.660156 12.632812 "/>
</svg>
