<?xml version="1.0" encoding="UTF-8"?>
<svg xmlns="http://www.w3.org/2000/svg" xmlns:xlink="http://www.w3.org/1999/xlink" width="504" height="360" viewBox="0 0 504 360">
<rect x="-50.4" y="-36" width="604.8" height="432" fill="rgb(100%, 100%, 100%)" fill-opacity="1"/>
<path fill="none" stroke-width="0.75" stroke-linecap="round" stroke-linejoin="round" stroke="rgb(0%, 0%, 0%)" stroke-opacity="1" stroke-miterlimit="10" d="M 65.367188 279.464844 C 65.367188 283.066406 59.964844 283.066406 59.964844 279.464844 C 59.964844 275.867188 65.367188 275.867188 65.367188 279.464844 "/>
<path fill="none" stroke-width="0.75" stroke-linecap="round" stroke-linejoin="round" stroke="rgb(0%, 0%, 0%)" stroke-opacity="1" stroke-miterlimit="10" d="M 79.441406 255.761719 C 79.441406 259.363281 74.039062 259.363281 74.039062 255.761719 C 74.039062 252.164062 79.441406 252.164062 79.441406 255.761719 "/>
<path fill="none" stroke-width="0.75" stroke-linecap="round" stroke-linejoin="round" stroke="rgb(0%, 0%, 0%)" stroke-opacity="1" stroke-miterlimit="10" d="M 93.515625 232.058594 C 93.515625 235.660156 88.113281 235.660156 88.113281 232.058594 C 88.113281 228.460938 93.515625 228.460938 93.515625 232.058594 "/>
<path fill="none" stroke-width="0.75" stroke-linecap="round" stroke-linejoin="round" stroke="rgb(0%, 0%, 0%)" stroke-opacity="1" stroke-miterlimit="10" d="M 107.589844 208.355469 C 107.589844 211.957031 102.1875 211.957031 102.1875 208.355469 C 102.1875 204.753906 107.589844 204.753906 107.589844 208.355469 "/>
<path fill="none" stroke-width="0.75" stroke-linecap="round" stroke-linejoin="round" stroke="rgb(0%, 0%, 0%)" stroke-opacity="1" stroke-miterlimit="10" d="M 121.664062 184.652344 C 121.664062 188.25 116.261719 188.25 116.261719 184.652344 C 116.261719 181.050781 121.664062 181.050781 121.664062 184.652344 "/>
<path fill="none" stroke-width="0.75" stroke-linecap="round" stroke-linejoin="round" stroke="rgb(0%, 0%, 0%)" stroke-opacity="1" stroke-miterlimit="10" d="M 135.738281 160.949219 C 135.738281 164.546875 130.335938 164.546875 130.335938 160.949219 C 130.335938 157.347656 135.738281 157.347656 135.738281 160.949219 "/>
<path fill="none" stroke-width="0.75" stroke-linecap="round" stroke-linejoin="round" stroke="rgb(0%, 0%, 0%)" stroke-opacity="1" stroke-miterlimit="10" d="M 149.8125 137.246094 C 149.8125 140.84375 144.410156 140.84375 144.410156 137.246094 C 144.410156 133.644531 149.8125 133.644531 149.8125 137.246094 "/>
<path fill="none" stroke-width="0.75" stroke-linecap="round" stroke-linejoin="round" stroke="rgb(0%, 0%, 0%)" stroke-opacity="1" stroke-miterlimit="10" d="M 163.886719 113.539062 C 163.886719 117.140625 158.484375 117.140625 158.484375 113.539062 C 158.484375 109.941406 163.886719 109.941406 163.886719 113.539062 "/>
<path fill="none" stroke-width="0.75" stroke-linecap="round" stroke-linejoin="round" stroke="rgb(0%, 0%, 0%)" stroke-opacity="1" stroke-miterlimit="10" d="M 177.960938 89.835938 C 177.960938 93.4375 172.558594 93.4375 172.558594 89.835938 C 172.558594 86.238281 177.960938 86.238281 177.960938 89.835938 "/>
<path fill="none" stroke-width="0.75" stroke-linecap="round" stroke-linejoin="round" stroke="rgb(0%, 0%, 0%)" stroke-opacity="1" stroke-miterlimit="10" d="M 192.035156 66.132812 C 192.035156 69.734375 186.632812 69.734375 186.632812 66.132812 C 186.632812 62.535156 192.035156 62.535156 192.035156 66.132812 "/>
<path fill="none" stroke-width="0.75" stroke-linecap="round" stroke-linejoin="round" stroke="rgb(0%, 0%, 0%)" stroke-opacity="1" stroke-miterlimit="10" d="M 76.742188 288 L 189.332031 288 "/>
<path fill="none" stroke-width="0.75" stroke-linecap="round" stroke-linejoin="round" stroke="rgb(0%, 0%, 0%)" stroke-opacity="1" stroke-miterlimit="10" d="M 76.742188 288 L 76.742188 295.199219 "/>
<path fill="none" stroke-width="0.75" stroke-linecap="round" stroke-linejoin="round" stroke="rgb(0%, 0%, 0%)" stroke-opacity="1" stroke-miterlimit="10" d="M 104.890625 288 L 104.890625 295.199219 "/>
<path fill="none" stroke-width="0.75" stroke-linecap="round" stroke-linejoin="round" stroke="rgb(0%, 0%, 0%)" stroke-opacity="1" stroke-miterlimit="10" d="M 133.035156 288 L 133.035156 295.199219 "/>
<path fill="none" stroke-width="0.75" stroke-linecap="round" stroke-linejoin="round" stroke="rgb(0%, 0%, 0%)" stroke-opacity="1" stroke-miterlimit="10" d="M 161.183594 288 L 161.183594 295.199219 "/>
<path fill="none" stroke-width="0.75" stroke-linecap="round" stroke-linejoin="round" stroke="rgb(0%, 0%, 0%)" stroke-opacity="1" stroke-miterlimit="10" d="M 189.332031 288 L 189.332031 295.199219 "/>
<path fill-rule="nonzero" fill="rgb(0%, 0%, 0%)" fill-opacity="1" d="M 74.007812 313.921875 L 74.007812 313.175781 L 74.070312 313.039062 L 74.132812 312.910156 L 74.265625 312.652344 L 74.339844 312.53125 L 74.488281 312.296875 L 74.566406 312.183594 L 74.648438 312.074219 L 74.820312 311.863281 L 74.910156 311.761719 L 74.996094 311.660156 L 75.085938 311.5625 L 75.179688 311.46875 L 75.359375 311.28125 L 75.453125 311.191406 L 75.640625 311.019531 L 75.738281 310.933594 L 76.019531 310.6875 L 76.394531 310.375 L 76.488281 310.300781 L 76.578125 310.230469 L 76.671875 310.15625 L 76.761719 310.082031 L 76.851562 310.011719 L 76.941406 309.9375 L 77.023438 309.867188 L 77.109375 309.792969 L 77.191406 309.71875 L 77.269531 309.648438 L 77.347656 309.574219 L 77.421875 309.503906 L 77.496094 309.429688 L 77.636719 309.28125 L 77.699219 309.207031 L 77.761719 309.128906 L 77.820312 309.054688 L 77.929688 308.898438 L 77.980469 308.820312 L 78.027344 308.742188 L 78.070312 308.660156 L 78.109375 308.578125 L 78.144531 308.492188 L 78.175781 308.40625 L 78.203125 308.316406 L 78.222656 308.222656 L 78.238281 308.128906 L 78.25 308.035156 L 78.257812 307.9375 L 78.261719 307.839844 L 78.261719 307.769531 L 78.257812 307.699219 L 78.25 307.636719 L 78.246094 307.570312 L 78.234375 307.507812 L 78.210938 307.390625 L 78.195312 307.332031 L 78.15625 307.222656 L 78.132812 307.167969 L 78.109375 307.117188 L 78.085938 307.070312 L 78.054688 307.019531 L 78.027344 306.976562 L 77.996094 306.929688 L 77.960938 306.886719 L 77.890625 306.808594 L 77.851562 306.773438 L 77.808594 306.734375 L 77.769531 306.703125 L 77.722656 306.671875 L 77.679688 306.640625 L 77.632812 306.613281 L 77.582031 306.585938 L 77.480469 306.539062 L 77.425781 306.519531 L 77.371094 306.503906 L 77.316406 306.484375 L 77.199219 306.453125 L 77.140625 306.441406 L 77.078125 306.433594 L 77.015625 306.421875 L 76.953125 306.417969 L 76.890625 306.410156 L 76.628906 306.410156 L 76.570312 306.417969 L 76.507812 306.421875 L 76.449219 306.429688 L 76.386719 306.441406 L 76.328125 306.453125 L 76.273438 306.464844 L 76.15625 306.496094 L 76.101562 306.515625 L 76.050781 306.535156 L 75.996094 306.558594 L 75.945312 306.582031 L 75.898438 306.605469 L 75.847656 306.632812 L 75.800781 306.664062 L 75.753906 306.691406 L 75.710938 306.726562 L 75.664062 306.761719 L 75.621094 306.796875 L 75.582031 306.832031 L 75.542969 306.875 L 75.503906 306.914062 L 75.46875 306.957031 L 75.398438 307.050781 L 75.367188 307.097656 L 75.335938 307.148438 L 75.28125 307.25 L 75.257812 307.304688 L 75.234375 307.363281 L 75.214844 307.417969 L 75.195312 307.480469 L 75.179688 307.539062 L 75.164062 307.601562 L 75.140625 307.734375 L 75.132812 307.804688 L 74.054688 307.703125 L 74.066406 307.613281 L 74.097656 307.441406 L 74.117188 307.355469 L 74.140625 307.269531 L 74.195312 307.105469 L 74.230469 307.023438 L 74.261719 306.945312 L 74.339844 306.789062 L 74.382812 306.710938 L 74.429688 306.640625 L 74.476562 306.566406 L 74.53125 306.496094 L 74.585938 306.429688 L 74.644531 306.363281 L 74.703125 306.300781 L 74.765625 306.238281 L 74.832031 306.179688 L 74.902344 306.121094 L 75.050781 306.011719 L 75.125 305.960938 L 75.289062 305.867188 L 75.375 305.824219 L 75.554688 305.746094 L 75.648438 305.710938 L 75.746094 305.679688 L 75.847656 305.648438 L 75.949219 305.625 L 76.054688 305.601562 L 76.164062 305.582031 L 76.277344 305.566406 L 76.390625 305.554688 L 76.511719 305.546875 L 76.632812 305.542969 L 76.878906 305.542969 L 76.996094 305.546875 L 77.113281 305.554688 L 77.226562 305.566406 L 77.335938 305.578125 L 77.445312 305.59375 L 77.550781 305.613281 L 77.753906 305.660156 L 77.851562 305.6875 L 78.039062 305.75 L 78.210938 305.828125 L 78.292969 305.871094 L 78.371094 305.914062 L 78.449219 305.960938 L 78.523438 306.011719 L 78.59375 306.066406 L 78.660156 306.121094 L 78.726562 306.179688 L 78.785156 306.242188 L 78.847656 306.304688 L 78.902344 306.371094 L 78.953125 306.441406 L 79.003906 306.515625 L 79.050781 306.589844 L 79.09375 306.667969 L 79.132812 306.746094 L 79.167969 306.832031 L 79.203125 306.914062 L 79.234375 307.003906 L 79.257812 307.09375 L 79.28125 307.1875 L 79.300781 307.285156 L 79.316406 307.382812 L 79.339844 307.585938 L 79.34375 307.695312 L 79.34375 307.886719 L 79.339844 307.96875 L 79.332031 308.046875 L 79.320312 308.128906 L 79.308594 308.207031 L 79.289062 308.289062 L 79.269531 308.363281 L 79.222656 308.519531 L 79.191406 308.59375 L 79.164062 308.667969 L 79.09375 308.816406 L 79.058594 308.886719 L 79.019531 308.960938 L 78.980469 309.03125 L 78.9375 309.101562 L 78.84375 309.242188 L 78.792969 309.308594 L 78.746094 309.375 L 78.691406 309.445312 L 78.640625 309.511719 L 78.585938 309.578125 L 78.527344 309.644531 L 78.46875 309.707031 L 78.410156 309.773438 L 78.347656 309.835938 L 78.285156 309.902344 L 78.21875 309.964844 L 78.15625 310.027344 L 78.085938 310.089844 L 77.886719 310.277344 L 77.675781 310.464844 L 77.605469 310.523438 L 77.535156 310.585938 L 77.464844 310.644531 L 77.390625 310.707031 L 77.320312 310.765625 L 77.246094 310.824219 L 77.175781 310.886719 L 77.105469 310.945312 L 77.03125 311.003906 L 76.960938 311.0625 L 76.886719 311.125 L 76.8125 311.183594 L 76.460938 311.476562 L 76.394531 311.539062 L 76.324219 311.597656 L 76.191406 311.714844 L 76.128906 311.777344 L 76.003906 311.894531 L 75.945312 311.957031 L 75.886719 312.015625 L 75.828125 312.078125 L 75.773438 312.136719 L 75.609375 312.324219 L 75.558594 312.386719 L 75.511719 312.445312 L 75.417969 312.570312 L 75.375 312.632812 L 75.335938 312.695312 L 75.296875 312.761719 L 75.261719 312.824219 L 75.226562 312.890625 L 75.195312 312.957031 L 75.167969 313.023438 L 79.472656 313.023438 L 79.472656 313.921875 Z M 74.007812 313.921875 "/>
<path fill-rule="nonzero" fill="rgb(0%, 0%, 0%)" fill-opacity="1" d="M 106.714844 312.050781 L 106.714844 313.921875 L 105.71875 313.921875 L 105.71875 312.050781 L 101.828125 312.050781 L 101.828125 311.230469 L 105.605469 305.664062 L 106.714844 305.664062 L 106.714844 311.21875 L 107.875 311.21875 L 107.875 312.050781 Z M 105.71875 306.855469 L 105.714844 306.859375 L 105.707031 306.875 L 105.699219 306.898438 L 105.683594 306.921875 L 105.667969 306.953125 L 105.660156 306.972656 L 105.648438 306.988281 L 105.640625 307.003906 L 105.628906 307.023438 L 105.621094 307.039062 L 105.597656 307.078125 L 105.589844 307.097656 L 105.566406 307.136719 L 105.554688 307.160156 L 105.53125 307.199219 L 105.519531 307.222656 L 105.507812 307.242188 L 105.492188 307.265625 L 105.480469 307.285156 L 105.457031 307.332031 L 105.445312 307.351562 L 105.429688 307.375 L 105.40625 307.414062 L 105.398438 307.433594 L 105.375 307.472656 L 105.363281 307.488281 L 105.355469 307.503906 L 105.34375 307.519531 L 105.335938 307.535156 L 105.324219 307.550781 L 103.210938 310.667969 L 103.203125 310.675781 L 103.199219 310.6875 L 103.183594 310.710938 L 103.171875 310.722656 L 103.15625 310.746094 L 103.121094 310.792969 L 103.113281 310.804688 L 103.066406 310.867188 L 103.058594 310.882812 L 103.046875 310.902344 L 102.953125 311.027344 L 102.941406 311.039062 L 102.882812 311.117188 L 102.871094 311.128906 L 102.859375 311.144531 L 102.851562 311.15625 L 102.839844 311.167969 L 102.824219 311.191406 L 102.816406 311.199219 L 102.808594 311.210938 L 102.800781 311.21875 L 105.71875 311.21875 Z M 105.71875 306.855469 "/>
<path fill-rule="nonzero" fill="rgb(0%, 0%, 0%)" fill-opacity="1" d="M 135.847656 311.21875 L 135.84375 311.34375 L 135.839844 311.464844 L 135.832031 311.582031 L 135.820312 311.699219 L 135.800781 311.816406 L 135.785156 311.929688 L 135.761719 312.039062 L 135.734375 312.148438 L 135.703125 312.257812 L 135.671875 312.363281 L 135.636719 312.464844 L 135.597656 312.5625 L 135.554688 312.65625 L 135.507812 312.75 L 135.457031 312.84375 L 135.40625 312.929688 L 135.351562 313.015625 L 135.289062 313.097656 L 135.226562 313.175781 L 135.160156 313.253906 L 135.09375 313.324219 L 135.019531 313.394531 L 134.945312 313.460938 L 134.867188 313.523438 L 134.785156 313.582031 L 134.703125 313.636719 L 134.613281 313.691406 L 134.523438 313.742188 L 134.425781 313.789062 L 134.328125 313.832031 L 134.226562 313.871094 L 134.125 313.90625 L 134.015625 313.9375 L 133.90625 313.964844 L 133.792969 313.984375 L 133.675781 314.003906 L 133.558594 314.019531 L 133.308594 314.035156 L 133.179688 314.039062 L 133.039062 314.035156 L 132.898438 314.027344 L 132.765625 314.011719 L 132.632812 313.992188 L 132.503906 313.96875 L 132.382812 313.9375 L 132.261719 313.902344 L 132.144531 313.859375 L 132.03125 313.8125 L 131.921875 313.761719 L 131.816406 313.703125 L 131.710938 313.640625 L 131.613281 313.574219 L 131.519531 313.503906 L 131.425781 313.425781 L 131.339844 313.34375 L 131.253906 313.257812 L 131.175781 313.167969 L 131.097656 313.070312 L 131.023438 312.972656 L 130.953125 312.863281 L 130.886719 312.753906 L 130.824219 312.636719 L 130.765625 312.515625 L 130.710938 312.390625 L 130.660156 312.261719 L 130.609375 312.128906 L 130.523438 311.847656 L 130.484375 311.699219 L 130.453125 311.546875 L 130.421875 311.390625 L 130.394531 311.226562 L 130.371094 311.0625 L 130.351562 310.890625 L 130.335938 310.71875 L 130.324219 310.539062 L 130.316406 310.359375 L 130.308594 309.984375 L 130.3125 309.765625 L 130.316406 309.550781 L 130.339844 309.144531 L 130.359375 308.949219 L 130.382812 308.757812 L 130.40625 308.574219 L 130.4375 308.390625 L 130.472656 308.21875 L 130.507812 308.050781 L 130.550781 307.886719 L 130.597656 307.726562 L 130.648438 307.574219 L 130.699219 307.425781 L 130.757812 307.285156 L 130.816406 307.148438 L 130.882812 307.019531 L 130.949219 306.894531 L 131.019531 306.773438 L 131.09375 306.660156 L 131.171875 306.550781 L 131.253906 306.449219 L 131.339844 306.351562 L 131.425781 306.257812 L 131.515625 306.171875 L 131.609375 306.089844 L 131.707031 306.015625 L 131.808594 305.945312 L 131.914062 305.882812 L 132.019531 305.824219 L 132.132812 305.769531 L 132.246094 305.722656 L 132.363281 305.679688 L 132.484375 305.640625 L 132.605469 305.613281 L 132.730469 305.585938 L 132.859375 305.566406 L 132.992188 305.550781 L 133.125 305.542969 L 133.429688 305.542969 L 133.511719 305.550781 L 133.589844 305.554688 L 133.671875 305.5625 L 133.828125 305.585938 L 133.902344 305.597656 L 133.980469 305.613281 L 134.054688 305.628906 L 134.125 305.648438 L 134.199219 305.667969 L 134.269531 305.691406 L 134.335938 305.71875 L 134.40625 305.746094 L 134.472656 305.773438 L 134.535156 305.804688 L 134.597656 305.839844 L 134.722656 305.917969 L 134.78125 305.957031 L 134.898438 306.042969 L 134.953125 306.089844 L 135.007812 306.140625 L 135.109375 306.25 L 135.160156 306.308594 L 135.207031 306.367188 L 135.253906 306.433594 L 135.300781 306.496094 L 135.34375 306.566406 L 135.382812 306.636719 L 135.421875 306.714844 L 135.460938 306.789062 L 135.496094 306.871094 L 135.527344 306.953125 L 135.558594 307.042969 L 135.589844 307.128906 L 135.617188 307.222656 L 134.609375 307.40625 L 134.574219 307.300781 L 134.535156 307.203125 L 134.492188 307.113281 L 134.445312 307.027344 L 134.394531 306.945312 L 134.339844 306.871094 L 134.28125 306.804688 L 134.21875 306.742188 L 134.152344 306.6875 L 134.082031 306.636719 L 134.011719 306.589844 L 133.933594 306.550781 L 133.859375 306.515625 L 133.777344 306.484375 L 133.695312 306.457031 L 133.613281 306.433594 L 133.523438 306.417969 L 133.4375 306.40625 L 133.34375 306.398438 L 133.164062 306.398438 L 133 306.414062 L 132.917969 306.429688 L 132.835938 306.449219 L 132.761719 306.46875 L 132.683594 306.496094 L 132.609375 306.527344 L 132.535156 306.5625 L 132.464844 306.601562 L 132.398438 306.644531 L 132.328125 306.691406 L 132.265625 306.742188 L 132.203125 306.796875 L 132.140625 306.859375 L 132.082031 306.921875 L 132.023438 306.988281 L 131.972656 307.0625 L 131.917969 307.136719 L 131.867188 307.21875 L 131.820312 307.300781 L 131.773438 307.386719 L 131.730469 307.476562 L 131.6875 307.574219 L 131.648438 307.675781 L 131.613281 307.777344 L 131.578125 307.886719 L 131.546875 308 L 131.515625 308.117188 L 131.488281 308.238281 L 131.460938 308.363281 L 131.441406 308.492188 L 131.421875 308.625 L 131.40625 308.761719 L 131.390625 308.902344 L 131.378906 309.046875 L 131.363281 309.351562 L 131.359375 309.511719 L 131.359375 309.671875 L 131.417969 309.566406 L 131.484375 309.46875 L 131.550781 309.375 L 131.625 309.285156 L 131.703125 309.203125 L 131.789062 309.125 L 131.875 309.050781 L 131.96875 308.984375 L 132.066406 308.921875 L 132.167969 308.863281 L 132.273438 308.808594 L 132.382812 308.761719 L 132.492188 308.71875 L 132.609375 308.683594 L 132.726562 308.652344 L 132.847656 308.628906 L 132.972656 308.609375 L 133.097656 308.59375 L 133.230469 308.585938 L 133.363281 308.582031 L 133.472656 308.582031 L 133.691406 308.597656 L 133.796875 308.609375 L 134 308.648438 L 134.097656 308.671875 L 134.195312 308.699219 L 134.289062 308.730469 L 134.382812 308.765625 L 134.472656 308.800781 L 134.644531 308.886719 L 134.726562 308.933594 L 134.804688 308.988281 L 134.882812 309.039062 L 134.957031 309.097656 L 135.027344 309.160156 L 135.09375 309.222656 L 135.160156 309.292969 L 135.226562 309.359375 L 135.34375 309.507812 L 135.398438 309.585938 L 135.449219 309.667969 L 135.5 309.753906 L 135.546875 309.839844 L 135.589844 309.933594 L 135.628906 310.027344 L 135.699219 310.222656 L 135.730469 310.324219 L 135.757812 310.425781 L 135.78125 310.53125 L 135.800781 310.640625 L 135.816406 310.75 L 135.832031 310.863281 L 135.839844 310.980469 L 135.84375 311.097656 Z M 134.773438 311.265625 L 134.773438 311.179688 L 134.765625 311.015625 L 134.757812 310.9375 L 134.746094 310.859375 L 134.738281 310.78125 L 134.707031 310.632812 L 134.667969 310.492188 L 134.648438 310.425781 L 134.621094 310.359375 L 134.597656 310.292969 L 134.566406 310.234375 L 134.535156 310.171875 L 134.503906 310.117188 L 134.46875 310.058594 L 134.433594 310.007812 L 134.394531 309.957031 L 134.351562 309.90625 L 134.265625 309.8125 L 134.21875 309.769531 L 134.167969 309.726562 L 134.117188 309.691406 L 134.0625 309.652344 L 134.007812 309.621094 L 133.953125 309.585938 L 133.890625 309.558594 L 133.832031 309.53125 L 133.769531 309.503906 L 133.703125 309.484375 L 133.636719 309.460938 L 133.496094 309.429688 L 133.421875 309.417969 L 133.347656 309.410156 L 133.269531 309.402344 L 133.191406 309.398438 L 132.996094 309.398438 L 132.9375 309.40625 L 132.878906 309.410156 L 132.820312 309.417969 L 132.761719 309.429688 L 132.707031 309.441406 L 132.648438 309.453125 L 132.53125 309.484375 L 132.414062 309.523438 L 132.359375 309.542969 L 132.304688 309.566406 L 132.25 309.59375 L 132.199219 309.621094 L 132.144531 309.652344 L 132.09375 309.6875 L 132.046875 309.722656 L 131.996094 309.761719 L 131.949219 309.796875 L 131.863281 309.882812 L 131.824219 309.929688 L 131.78125 309.976562 L 131.746094 310.027344 L 131.675781 310.136719 L 131.640625 310.195312 L 131.609375 310.257812 L 131.582031 310.320312 L 131.558594 310.386719 L 131.535156 310.457031 L 131.515625 310.527344 L 131.5 310.601562 L 131.476562 310.757812 L 131.46875 310.839844 L 131.464844 310.925781 L 131.464844 311.105469 L 131.46875 311.195312 L 131.472656 311.28125 L 131.484375 311.371094 L 131.492188 311.457031 L 131.507812 311.542969 L 131.519531 311.625 L 131.558594 311.789062 L 131.582031 311.871094 L 131.605469 311.945312 L 131.632812 312.023438 L 131.660156 312.097656 L 131.722656 312.238281 L 131.792969 312.371094 L 131.871094 312.496094 L 131.914062 312.554688 L 131.960938 312.613281 L 132.007812 312.667969 L 132.054688 312.71875 L 132.105469 312.769531 L 132.214844 312.863281 L 132.269531 312.90625 L 132.386719 312.984375 L 132.449219 313.019531 L 132.511719 313.050781 L 132.574219 313.078125 L 132.640625 313.105469 L 132.707031 313.125 L 132.777344 313.144531 L 132.847656 313.160156 L 132.921875 313.171875 L 132.992188 313.179688 L 133.070312 313.1875 L 133.222656 313.1875 L 133.292969 313.183594 L 133.367188 313.175781 L 133.4375 313.167969 L 133.503906 313.15625 L 133.574219 313.140625 L 133.636719 313.125 L 133.703125 313.105469 L 133.765625 313.082031 L 133.824219 313.058594 L 133.886719 313.03125 L 133.941406 313 L 134 312.96875 L 134.054688 312.933594 L 134.207031 312.816406 L 134.253906 312.773438 L 134.339844 312.679688 L 134.382812 312.625 L 134.421875 312.574219 L 134.457031 312.515625 L 134.492188 312.460938 L 134.527344 312.398438 L 134.558594 312.335938 L 134.585938 312.273438 L 134.640625 312.140625 L 134.664062 312.070312 L 134.703125 311.921875 L 134.71875 311.847656 L 134.734375 311.769531 L 134.746094 311.6875 L 134.757812 311.609375 L 134.765625 311.523438 L 134.769531 311.441406 L 134.773438 311.355469 Z M 134.773438 311.265625 "/>
<path fill-rule="nonzero" fill="rgb(0%, 0%, 0%)" fill-opacity="1" d="M 164 311.617188 L 164 311.722656 L 163.984375 311.925781 L 163.972656 312.027344 L 163.957031 312.125 L 163.9375 312.21875 L 163.917969 312.316406 L 163.890625 312.410156 L 163.863281 312.5 L 163.832031 312.589844 L 163.796875 312.675781 L 163.757812 312.761719 L 163.714844 312.84375 L 163.671875 312.921875 L 163.621094 313 L 163.570312 313.074219 L 163.511719 313.148438 L 163.453125 313.21875 L 163.320312 313.351562 L 163.25 313.414062 L 163.175781 313.476562 L 163.101562 313.53125 L 163.019531 313.585938 L 162.933594 313.640625 L 162.84375 313.6875 L 162.75 313.734375 L 162.652344 313.777344 L 162.449219 313.855469 L 162.339844 313.890625 L 162.226562 313.921875 L 162.109375 313.949219 L 161.992188 313.972656 L 161.867188 313.992188 L 161.738281 314.007812 L 161.472656 314.03125 L 161.332031 314.035156 L 161.1875 314.039062 L 161.042969 314.035156 L 160.90625 314.03125 L 160.769531 314.019531 L 160.636719 314.007812 L 160.511719 313.992188 L 160.386719 313.972656 L 160.265625 313.949219 L 160.148438 313.921875 L 160.035156 313.890625 L 159.929688 313.855469 L 159.824219 313.816406 L 159.722656 313.777344 L 159.628906 313.734375 L 159.535156 313.6875 L 159.445312 313.640625 L 159.359375 313.589844 L 159.195312 313.480469 L 159.121094 313.417969 L 159.050781 313.359375 L 158.980469 313.292969 L 158.917969 313.222656 L 158.800781 313.082031 L 158.746094 313.007812 L 158.699219 312.929688 L 158.652344 312.847656 L 158.609375 312.765625 L 158.570312 312.683594 L 158.535156 312.597656 L 158.503906 312.507812 L 158.449219 312.320312 L 158.410156 312.132812 L 158.394531 312.035156 L 158.382812 311.933594 L 158.375 311.835938 L 158.371094 311.734375 L 158.371094 311.539062 L 158.375 311.453125 L 158.382812 311.367188 L 158.390625 311.285156 L 158.402344 311.203125 L 158.417969 311.125 L 158.4375 311.046875 L 158.457031 310.972656 L 158.480469 310.898438 L 158.503906 310.828125 L 158.535156 310.757812 L 158.5625 310.691406 L 158.597656 310.625 L 158.667969 310.5 L 158.703125 310.441406 L 158.746094 310.382812 L 158.785156 310.328125 L 158.828125 310.273438 L 158.921875 310.171875 L 158.96875 310.125 L 159.019531 310.078125 L 159.121094 309.992188 L 159.230469 309.914062 L 159.285156 309.878906 L 159.34375 309.84375 L 159.460938 309.78125 L 159.519531 309.753906 L 159.582031 309.726562 L 159.644531 309.703125 L 159.703125 309.679688 L 159.765625 309.660156 L 159.953125 309.613281 L 160.015625 309.601562 L 160.015625 309.578125 L 159.949219 309.5625 L 159.878906 309.542969 L 159.816406 309.519531 L 159.75 309.496094 L 159.6875 309.472656 L 159.625 309.445312 L 159.449219 309.351562 L 159.394531 309.316406 L 159.34375 309.277344 L 159.289062 309.238281 L 159.242188 309.199219 L 159.191406 309.15625 L 159.144531 309.117188 L 159.101562 309.070312 L 159.058594 309.027344 L 159.015625 308.980469 L 158.976562 308.929688 L 158.9375 308.882812 L 158.902344 308.828125 L 158.867188 308.777344 L 158.804688 308.667969 L 158.75 308.550781 L 158.722656 308.496094 L 158.699219 308.433594 L 158.675781 308.375 L 158.65625 308.3125 L 158.609375 308.125 L 158.585938 307.992188 L 158.570312 307.859375 L 158.5625 307.726562 L 158.5625 307.65625 L 158.570312 307.484375 L 158.578125 307.402344 L 158.589844 307.316406 L 158.605469 307.234375 L 158.621094 307.15625 L 158.644531 307.074219 L 158.667969 306.996094 L 158.695312 306.917969 L 158.726562 306.84375 L 158.761719 306.765625 L 158.800781 306.691406 L 158.84375 306.617188 L 158.886719 306.546875 L 158.988281 306.414062 L 159.042969 306.347656 L 159.101562 306.285156 L 159.160156 306.226562 L 159.292969 306.109375 L 159.363281 306.054688 L 159.511719 305.953125 L 159.59375 305.90625 L 159.675781 305.863281 L 159.761719 305.820312 L 159.851562 305.78125 L 160.039062 305.710938 L 160.136719 305.679688 L 160.242188 305.648438 L 160.34375 305.625 L 160.453125 305.601562 L 160.5625 305.582031 L 160.679688 305.566406 L 160.796875 305.554688 L 160.914062 305.546875 L 161.039062 305.542969 L 161.296875 305.542969 L 161.425781 305.546875 L 161.550781 305.554688 L 161.675781 305.566406 L 161.792969 305.582031 L 161.90625 305.601562 L 162.019531 305.625 L 162.125 305.648438 L 162.230469 305.679688 L 162.332031 305.710938 L 162.429688 305.746094 L 162.523438 305.785156 L 162.613281 305.824219 L 162.785156 305.910156 L 162.863281 305.960938 L 162.941406 306.007812 L 163.015625 306.0625 L 163.085938 306.117188 L 163.152344 306.175781 L 163.214844 306.230469 L 163.277344 306.292969 L 163.386719 306.417969 L 163.4375 306.484375 L 163.484375 306.554688 L 163.527344 306.625 L 163.566406 306.695312 L 163.605469 306.769531 L 163.667969 306.925781 L 163.695312 307.003906 L 163.71875 307.085938 L 163.738281 307.164062 L 163.757812 307.246094 L 163.769531 307.328125 L 163.78125 307.414062 L 163.789062 307.496094 L 163.796875 307.667969 L 163.792969 307.734375 L 163.792969 307.804688 L 163.785156 307.871094 L 163.78125 307.933594 L 163.757812 308.066406 L 163.746094 308.128906 L 163.730469 308.191406 L 163.714844 308.257812 L 163.695312 308.320312 L 163.675781 308.378906 L 163.65625 308.441406 L 163.632812 308.5 L 163.578125 308.617188 L 163.550781 308.671875 L 163.519531 308.726562 L 163.484375 308.78125 L 163.453125 308.835938 L 163.414062 308.886719 L 163.378906 308.9375 L 163.339844 308.984375 L 163.253906 309.078125 L 163.210938 309.121094 L 163.164062 309.164062 L 163.113281 309.207031 L 163.011719 309.285156 L 162.902344 309.355469 L 162.847656 309.386719 L 162.789062 309.417969 L 162.726562 309.445312 L 162.667969 309.46875 L 162.601562 309.492188 L 162.539062 309.515625 L 162.46875 309.535156 L 162.402344 309.550781 L 162.332031 309.566406 L 162.332031 309.589844 L 162.402344 309.601562 L 162.472656 309.617188 L 162.539062 309.632812 L 162.609375 309.652344 L 162.675781 309.671875 L 162.742188 309.695312 L 162.804688 309.722656 L 162.867188 309.746094 L 163.054688 309.839844 L 163.113281 309.871094 L 163.167969 309.90625 L 163.277344 309.984375 L 163.378906 310.070312 L 163.429688 310.117188 L 163.476562 310.167969 L 163.605469 310.320312 L 163.644531 310.378906 L 163.683594 310.433594 L 163.71875 310.492188 L 163.753906 310.554688 L 163.785156 310.617188 L 163.816406 310.683594 L 163.84375 310.75 L 163.871094 310.820312 L 163.894531 310.890625 L 163.917969 310.964844 L 163.9375 311.039062 L 163.96875 311.195312 L 163.980469 311.277344 L 163.996094 311.441406 L 164 311.527344 Z M 162.699219 307.726562 L 162.699219 307.664062 L 162.6875 307.488281 L 162.671875 307.371094 L 162.648438 307.261719 L 162.601562 307.109375 L 162.582031 307.058594 L 162.5625 307.011719 L 162.515625 306.917969 L 162.488281 306.875 L 162.460938 306.835938 L 162.429688 306.792969 L 162.394531 306.757812 L 162.359375 306.71875 L 162.324219 306.683594 L 162.28125 306.648438 L 162.242188 306.613281 L 162.195312 306.582031 L 162.152344 306.554688 L 162.050781 306.5 L 162 306.476562 L 161.941406 306.453125 L 161.886719 306.433594 L 161.824219 306.410156 L 161.699219 306.378906 L 161.628906 306.363281 L 161.558594 306.351562 L 161.410156 306.335938 L 161.332031 306.332031 L 161.25 306.328125 L 161.082031 306.328125 L 160.925781 306.335938 L 160.851562 306.34375 L 160.78125 306.351562 L 160.710938 306.363281 L 160.644531 306.378906 L 160.519531 306.410156 L 160.460938 306.433594 L 160.40625 306.453125 L 160.296875 306.5 L 160.246094 306.527344 L 160.152344 306.582031 L 160.109375 306.613281 L 160.066406 306.648438 L 159.988281 306.71875 L 159.953125 306.757812 L 159.917969 306.792969 L 159.886719 306.835938 L 159.859375 306.875 L 159.832031 306.917969 L 159.804688 306.964844 L 159.78125 307.011719 L 159.761719 307.058594 L 159.722656 307.160156 L 159.707031 307.210938 L 159.695312 307.261719 L 159.679688 307.316406 L 159.671875 307.371094 L 159.660156 307.429688 L 159.65625 307.488281 L 159.648438 307.546875 L 159.640625 307.664062 L 159.640625 307.777344 L 159.644531 307.824219 L 159.65625 307.976562 L 159.671875 308.078125 L 159.71875 308.28125 L 159.734375 308.332031 L 159.753906 308.382812 L 159.773438 308.429688 L 159.820312 308.523438 L 159.847656 308.570312 L 159.875 308.613281 L 159.90625 308.65625 L 159.976562 308.742188 L 160.011719 308.78125 L 160.054688 308.820312 L 160.140625 308.890625 L 160.191406 308.925781 L 160.292969 308.988281 L 160.351562 309.015625 L 160.410156 309.046875 L 160.46875 309.070312 L 160.535156 309.09375 L 160.601562 309.113281 L 160.675781 309.132812 L 160.75 309.144531 L 160.828125 309.160156 L 160.910156 309.167969 L 160.996094 309.175781 L 161.085938 309.179688 L 161.273438 309.179688 L 161.367188 309.175781 L 161.457031 309.167969 L 161.542969 309.160156 L 161.625 309.144531 L 161.703125 309.132812 L 161.777344 309.113281 L 161.847656 309.09375 L 161.972656 309.046875 L 162.03125 309.015625 L 162.089844 308.988281 L 162.144531 308.957031 L 162.195312 308.925781 L 162.242188 308.890625 L 162.328125 308.820312 L 162.367188 308.78125 L 162.402344 308.742188 L 162.4375 308.699219 L 162.46875 308.65625 L 162.523438 308.570312 L 162.570312 308.476562 L 162.609375 308.382812 L 162.625 308.332031 L 162.648438 308.230469 L 162.65625 308.179688 L 162.667969 308.128906 L 162.675781 308.078125 L 162.679688 308.027344 L 162.6875 307.976562 L 162.699219 307.824219 Z M 162.90625 311.519531 L 162.902344 311.457031 L 162.902344 311.398438 L 162.898438 311.339844 L 162.890625 311.28125 L 162.882812 311.226562 L 162.875 311.167969 L 162.863281 311.109375 L 162.839844 311 L 162.824219 310.945312 L 162.804688 310.886719 L 162.785156 310.832031 L 162.738281 310.730469 L 162.710938 310.679688 L 162.683594 310.632812 L 162.652344 310.585938 L 162.617188 310.539062 L 162.582031 310.496094 L 162.542969 310.453125 L 162.457031 310.367188 L 162.410156 310.328125 L 162.308594 310.257812 L 162.25 310.222656 L 162.195312 310.191406 L 162.132812 310.160156 L 162.070312 310.132812 L 162.003906 310.105469 L 161.933594 310.078125 L 161.863281 310.058594 L 161.785156 310.035156 L 161.707031 310.019531 L 161.625 310.003906 L 161.539062 309.992188 L 161.453125 309.984375 L 161.359375 309.976562 L 161.265625 309.972656 L 161.074219 309.972656 L 160.984375 309.976562 L 160.898438 309.984375 L 160.816406 309.992188 L 160.734375 310.003906 L 160.65625 310.019531 L 160.582031 310.035156 L 160.511719 310.058594 L 160.441406 310.078125 L 160.308594 310.132812 L 160.25 310.160156 L 160.132812 310.222656 L 160.082031 310.257812 L 160.027344 310.292969 L 159.980469 310.328125 L 159.933594 310.367188 L 159.886719 310.410156 L 159.769531 310.539062 L 159.734375 310.585938 L 159.671875 310.6875 L 159.617188 310.789062 L 159.59375 310.84375 L 159.574219 310.898438 L 159.554688 310.957031 L 159.535156 311.011719 L 159.519531 311.070312 L 159.503906 311.125 L 159.492188 311.183594 L 159.484375 311.242188 L 159.472656 311.300781 L 159.46875 311.359375 L 159.464844 311.421875 L 159.460938 311.480469 L 159.460938 311.617188 L 159.46875 311.765625 L 159.472656 311.835938 L 159.484375 311.90625 L 159.492188 311.976562 L 159.503906 312.042969 L 159.535156 312.175781 L 159.574219 312.300781 L 159.59375 312.359375 L 159.621094 312.417969 L 159.644531 312.472656 L 159.707031 312.582031 L 159.738281 312.632812 L 159.773438 312.683594 L 159.851562 312.777344 L 159.9375 312.863281 L 159.988281 312.902344 L 160.035156 312.941406 L 160.089844 312.976562 L 160.144531 313.007812 L 160.261719 313.070312 L 160.324219 313.097656 L 160.390625 313.125 L 160.460938 313.148438 L 160.53125 313.167969 L 160.605469 313.1875 L 160.679688 313.203125 L 160.84375 313.226562 L 160.925781 313.234375 L 161.015625 313.242188 L 161.105469 313.246094 L 161.292969 313.246094 L 161.386719 313.242188 L 161.558594 313.226562 L 161.722656 313.203125 L 161.796875 313.1875 L 161.871094 313.167969 L 161.941406 313.148438 L 162.007812 313.125 L 162.074219 313.097656 L 162.132812 313.070312 L 162.195312 313.039062 L 162.304688 312.976562 L 162.355469 312.941406 L 162.40625 312.902344 L 162.449219 312.863281 L 162.496094 312.820312 L 162.535156 312.777344 L 162.574219 312.730469 L 162.609375 312.683594 L 162.644531 312.632812 L 162.675781 312.582031 L 162.707031 312.527344 L 162.734375 312.472656 L 162.78125 312.355469 L 162.800781 312.292969 L 162.816406 312.234375 L 162.847656 312.101562 L 162.863281 312.03125 L 162.875 311.964844 L 162.882812 311.894531 L 162.898438 311.746094 L 162.902344 311.671875 L 162.902344 311.59375 Z M 162.90625 311.519531 "/>
<path fill-rule="nonzero" fill="rgb(0%, 0%, 0%)" fill-opacity="1" d="M 183.574219 313.921875 L 183.574219 313.023438 L 185.675781 313.023438 L 185.675781 306.671875 L 183.8125 308.003906 L 183.8125 307.007812 L 185.765625 305.664062 L 186.738281 305.664062 L 186.738281 313.023438 L 188.746094 313.023438 L 188.746094 313.921875 Z M 183.574219 313.921875 "/>
<path fill-rule="nonzero" fill="rgb(0%, 0%, 0%)" fill-opacity="1" d="M 195.539062 309.789062 L 195.535156 310.023438 L 195.527344 310.25 L 195.519531 310.46875 L 195.5 310.679688 L 195.480469 310.886719 L 195.457031 311.082031 L 195.425781 311.269531 L 195.390625 311.453125 L 195.351562 311.625 L 195.308594 311.792969 L 195.261719 311.953125 L 195.214844 312.105469 L 195.160156 312.25 L 195.105469 312.390625 L 195.042969 312.527344 L 194.980469 312.652344 L 194.914062 312.777344 L 194.84375 312.890625 L 194.769531 313 L 194.695312 313.105469 L 194.617188 313.203125 L 194.535156 313.292969 L 194.449219 313.378906 L 194.363281 313.460938 L 194.273438 313.535156 L 194.179688 313.601562 L 194.085938 313.664062 L 193.984375 313.722656 L 193.882812 313.773438 L 193.78125 313.820312 L 193.675781 313.863281 L 193.566406 313.898438 L 193.347656 313.960938 L 193.234375 313.984375 L 193.121094 314.003906 L 193.007812 314.019531 L 192.773438 314.035156 L 192.65625 314.039062 L 192.535156 314.035156 L 192.300781 314.019531 L 192.1875 314.003906 L 192.074219 313.984375 L 191.960938 313.960938 L 191.742188 313.898438 L 191.636719 313.863281 L 191.53125 313.820312 L 191.425781 313.773438 L 191.328125 313.722656 L 191.230469 313.664062 L 191.136719 313.601562 L 191.042969 313.535156 L 190.953125 313.460938 L 190.867188 313.378906 L 190.78125 313.292969 L 190.699219 313.203125 L 190.621094 313.105469 L 190.546875 313.003906 L 190.476562 312.894531 L 190.40625 312.777344 L 190.34375 312.65625 L 190.28125 312.53125 L 190.222656 312.394531 L 190.167969 312.257812 L 190.113281 312.109375 L 190.066406 311.957031 L 190.019531 311.800781 L 189.976562 311.632812 L 189.941406 311.457031 L 189.910156 311.277344 L 189.878906 311.085938 L 189.855469 310.890625 L 189.835938 310.683594 L 189.820312 310.472656 L 189.8125 310.253906 L 189.804688 310.023438 L 189.800781 309.789062 L 189.804688 309.542969 L 189.8125 309.308594 L 189.820312 309.078125 L 189.835938 308.859375 L 189.855469 308.648438 L 189.878906 308.449219 L 189.910156 308.253906 L 189.941406 308.070312 L 189.976562 307.894531 L 190.019531 307.726562 L 190.066406 307.566406 L 190.113281 307.410156 L 190.167969 307.265625 L 190.222656 307.125 L 190.28125 306.988281 L 190.34375 306.863281 L 190.410156 306.742188 L 190.480469 306.628906 L 190.550781 306.519531 L 190.707031 306.324219 L 190.789062 306.238281 L 190.871094 306.15625 L 190.960938 306.078125 L 191.050781 306.007812 L 191.144531 305.941406 L 191.238281 305.882812 L 191.335938 305.828125 L 191.4375 305.78125 L 191.648438 305.703125 L 191.757812 305.667969 L 191.867188 305.640625 L 191.980469 305.613281 L 192.09375 305.589844 L 192.207031 305.574219 L 192.328125 305.558594 L 192.445312 305.550781 L 192.566406 305.542969 L 192.808594 305.542969 L 192.925781 305.550781 L 193.039062 305.558594 L 193.152344 305.574219 L 193.261719 305.589844 L 193.375 305.613281 L 193.480469 305.640625 L 193.589844 305.667969 L 193.695312 305.703125 L 193.796875 305.742188 L 193.902344 305.78125 L 194 305.828125 L 194.097656 305.882812 L 194.195312 305.941406 L 194.285156 306.007812 L 194.375 306.078125 L 194.460938 306.15625 L 194.546875 306.238281 L 194.628906 306.324219 L 194.707031 306.421875 L 194.78125 306.519531 L 194.855469 306.628906 L 194.921875 306.742188 L 194.988281 306.863281 L 195.050781 306.988281 L 195.113281 307.125 L 195.167969 307.265625 L 195.21875 307.410156 L 195.269531 307.566406 L 195.316406 307.726562 L 195.359375 307.894531 L 195.394531 308.070312 L 195.429688 308.253906 L 195.457031 308.449219 L 195.484375 308.648438 L 195.503906 308.859375 L 195.519531 309.078125 L 195.53125 309.308594 L 195.535156 309.542969 Z M 194.464844 309.789062 L 194.464844 309.59375 L 194.460938 309.410156 L 194.457031 309.230469 L 194.449219 309.054688 L 194.4375 308.886719 L 194.425781 308.726562 L 194.410156 308.574219 L 194.390625 308.429688 L 194.371094 308.289062 L 194.347656 308.15625 L 194.324219 308.027344 L 194.296875 307.902344 L 194.269531 307.785156 L 194.238281 307.671875 L 194.203125 307.566406 L 194.167969 307.464844 L 194.128906 307.367188 L 194.089844 307.277344 L 194.046875 307.191406 L 194.003906 307.113281 L 193.957031 307.035156 L 193.90625 306.964844 L 193.855469 306.898438 L 193.804688 306.835938 L 193.75 306.777344 L 193.632812 306.675781 L 193.570312 306.632812 L 193.507812 306.59375 L 193.375 306.53125 L 193.304688 306.5 L 193.234375 306.476562 L 193.164062 306.457031 L 193.089844 306.4375 L 193.011719 306.421875 L 192.933594 306.410156 L 192.855469 306.402344 L 192.773438 306.398438 L 192.601562 306.398438 L 192.515625 306.402344 L 192.433594 306.410156 L 192.351562 306.421875 L 192.273438 306.4375 L 192.117188 306.476562 L 192.046875 306.5 L 191.90625 306.5625 L 191.839844 306.597656 L 191.773438 306.636719 L 191.710938 306.679688 L 191.652344 306.726562 L 191.59375 306.78125 L 191.535156 306.839844 L 191.480469 306.902344 L 191.429688 306.96875 L 191.378906 307.042969 L 191.332031 307.117188 L 191.285156 307.199219 L 191.246094 307.28125 L 191.203125 307.375 L 191.167969 307.46875 L 191.128906 307.570312 L 191.066406 307.789062 L 191.035156 307.910156 L 191.011719 308.03125 L 190.984375 308.160156 L 190.964844 308.292969 L 190.945312 308.433594 L 190.925781 308.578125 L 190.910156 308.734375 L 190.898438 308.894531 L 190.886719 309.058594 L 190.878906 309.230469 L 190.875 309.410156 L 190.871094 309.597656 L 190.867188 309.789062 L 190.871094 309.976562 L 190.875 310.15625 L 190.878906 310.332031 L 190.886719 310.5 L 190.898438 310.664062 L 190.910156 310.820312 L 190.925781 310.972656 L 190.945312 311.117188 L 190.984375 311.390625 L 191.039062 311.640625 L 191.070312 311.757812 L 191.101562 311.867188 L 191.136719 311.976562 L 191.171875 312.078125 L 191.210938 312.175781 L 191.25 312.269531 L 191.292969 312.355469 L 191.335938 312.4375 L 191.386719 312.515625 L 191.433594 312.585938 L 191.488281 312.652344 L 191.539062 312.71875 L 191.597656 312.777344 L 191.65625 312.832031 L 191.714844 312.882812 L 191.839844 312.96875 L 191.90625 313.007812 L 191.972656 313.039062 L 192.113281 313.09375 L 192.261719 313.132812 L 192.339844 313.148438 L 192.417969 313.160156 L 192.582031 313.175781 L 192.75 313.175781 L 192.832031 313.167969 L 192.910156 313.160156 L 192.988281 313.148438 L 193.0625 313.132812 L 193.210938 313.09375 L 193.351562 313.039062 L 193.417969 313.007812 L 193.484375 312.96875 L 193.609375 312.882812 L 193.667969 312.832031 L 193.726562 312.777344 L 193.78125 312.71875 L 193.882812 312.585938 L 193.933594 312.515625 L 193.980469 312.4375 L 194.027344 312.355469 L 194.070312 312.269531 L 194.109375 312.175781 L 194.148438 312.078125 L 194.1875 311.976562 L 194.222656 311.867188 L 194.253906 311.757812 L 194.285156 311.640625 L 194.3125 311.515625 L 194.335938 311.390625 L 194.363281 311.253906 L 194.382812 311.117188 L 194.402344 310.972656 L 194.417969 310.820312 L 194.433594 310.664062 L 194.445312 310.5 L 194.453125 310.332031 L 194.460938 310.15625 L 194.464844 309.976562 Z M 194.464844 309.789062 "/>
<path fill="none" stroke-width="0.75" stroke-linecap="round" stroke-linejoin="round" stroke="rgb(0%, 0%, 0%)" stroke-opacity="1" stroke-miterlimit="10" d="M 57.601562 255.761719 L 57.601562 66.132812 "/>
<path fill="none" stroke-width="0.75" stroke-linecap="round" stroke-linejoin="round" stroke="rgb(0%, 0%, 0%)" stroke-opacity="1" stroke-miterlimit="10" d="M 57.601562 255.761719 L 50.398438 255.761719 "/>
<path fill="none" stroke-width="0.75" stroke-linecap="round" stroke-linejoin="round" stroke="rgb(0%, 0%, 0%)" stroke-opacity="1" stroke-miterlimit="10" d="M 57.601562 208.355469 L 50.398438 208.355469 "/>
<path fill="none" stroke-width="0.75" stroke-linecap="round" stroke-linejoin="round" stroke="rgb(0%, 0%, 0%)" stroke-opacity="1" stroke-miterlimit="10" d="M 57.601562 160.949219 L 50.398438 160.949219 "/>
<path fill="none" stroke-width="0.75" stroke-linecap="round" stroke-linejoin="round" stroke="rgb(0%, 0%, 0%)" stroke-opacity="1" stroke-miterlimit="10" d="M 57.601562 113.539062 L 50.398438 113.539062 "/>
<path fill="none" stroke-width="0.75" stroke-linecap="round" stroke-linejoin="round" stroke="rgb(0%, 0%, 0%)" stroke-opacity="1" stroke-miterlimit="10" d="M 57.601562 66.132812 L 50.398438 66.132812 "/>
<path fill-rule="nonzero" fill="rgb(0%, 0%, 0%)" fill-opacity="1" d="M 40.320312 258.496094 L 39.574219 258.496094 L 39.308594 258.371094 L 39.179688 258.304688 L 39.054688 258.238281 L 38.929688 258.164062 L 38.695312 258.015625 L 38.585938 257.9375 L 38.476562 257.855469 L 38.367188 257.769531 L 38.265625 257.683594 L 38.160156 257.59375 L 38.0625 257.507812 L 37.964844 257.417969 L 37.867188 257.324219 L 37.773438 257.234375 L 37.683594 257.144531 L 37.503906 256.957031 L 37.417969 256.863281 L 37.335938 256.765625 L 37.25 256.671875 L 37.085938 256.484375 L 36.851562 256.203125 L 36.703125 256.015625 L 36.628906 255.925781 L 36.554688 255.832031 L 36.484375 255.742188 L 36.410156 255.652344 L 36.339844 255.5625 L 36.265625 255.480469 L 36.191406 255.394531 L 36.121094 255.3125 L 36.046875 255.234375 L 35.976562 255.15625 L 35.828125 255.007812 L 35.679688 254.867188 L 35.53125 254.742188 L 35.453125 254.683594 L 35.296875 254.574219 L 35.21875 254.523438 L 35.140625 254.476562 L 34.976562 254.390625 L 34.890625 254.355469 L 34.804688 254.328125 L 34.714844 254.300781 L 34.625 254.28125 L 34.53125 254.261719 L 34.433594 254.25 L 34.238281 254.242188 L 34.167969 254.242188 L 34.035156 254.25 L 33.972656 254.257812 L 33.847656 254.28125 L 33.789062 254.292969 L 33.730469 254.308594 L 33.621094 254.347656 L 33.46875 254.417969 L 33.421875 254.449219 L 33.375 254.476562 L 33.332031 254.507812 L 33.246094 254.578125 L 33.207031 254.613281 L 33.136719 254.691406 L 33.101562 254.734375 L 33.070312 254.78125 L 33.042969 254.824219 L 33.011719 254.871094 L 32.941406 255.023438 L 32.882812 255.1875 L 32.867188 255.246094 L 32.84375 255.363281 L 32.832031 255.425781 L 32.816406 255.550781 L 32.8125 255.613281 L 32.808594 255.679688 L 32.808594 255.8125 L 32.8125 255.875 L 32.816406 255.933594 L 32.824219 255.996094 L 32.832031 256.054688 L 32.839844 256.117188 L 32.851562 256.175781 L 32.863281 256.230469 L 32.894531 256.347656 L 32.914062 256.402344 L 32.933594 256.453125 L 32.957031 256.507812 L 32.980469 256.558594 L 33.007812 256.605469 L 33.035156 256.65625 L 33.0625 256.703125 L 33.09375 256.75 L 33.125 256.792969 L 33.160156 256.839844 L 33.195312 256.878906 L 33.234375 256.921875 L 33.273438 256.960938 L 33.316406 257 L 33.402344 257.070312 L 33.449219 257.105469 L 33.496094 257.136719 L 33.546875 257.167969 L 33.597656 257.195312 L 33.652344 257.222656 L 33.761719 257.269531 L 33.878906 257.308594 L 34.003906 257.339844 L 34.066406 257.351562 L 34.132812 257.363281 L 34.203125 257.371094 L 34.101562 258.449219 L 34.015625 258.4375 L 33.925781 258.421875 L 33.839844 258.40625 L 33.753906 258.386719 L 33.671875 258.363281 L 33.585938 258.335938 L 33.503906 258.308594 L 33.425781 258.273438 L 33.34375 258.242188 L 33.1875 258.164062 L 33.113281 258.121094 L 33.039062 258.074219 L 32.898438 257.972656 L 32.828125 257.917969 L 32.765625 257.859375 L 32.699219 257.800781 L 32.640625 257.738281 L 32.578125 257.671875 L 32.519531 257.601562 L 32.410156 257.453125 L 32.359375 257.375 L 32.3125 257.296875 L 32.265625 257.214844 L 32.222656 257.128906 L 32.144531 256.949219 L 32.109375 256.855469 L 32.078125 256.757812 L 32.023438 256.554688 L 32.003906 256.449219 L 31.984375 256.339844 L 31.96875 256.226562 L 31.957031 256.109375 L 31.949219 255.992188 L 31.941406 255.871094 L 31.941406 255.625 L 31.945312 255.507812 L 31.953125 255.390625 L 31.964844 255.277344 L 31.976562 255.167969 L 31.992188 255.058594 L 32.011719 254.953125 L 32.058594 254.75 L 32.085938 254.652344 L 32.117188 254.558594 L 32.152344 254.464844 L 32.1875 254.378906 L 32.226562 254.292969 L 32.269531 254.210938 L 32.3125 254.132812 L 32.363281 254.054688 L 32.410156 253.980469 L 32.464844 253.910156 L 32.519531 253.84375 L 32.578125 253.777344 L 32.640625 253.714844 L 32.707031 253.65625 L 32.773438 253.601562 L 32.914062 253.5 L 32.988281 253.453125 L 33.066406 253.410156 L 33.148438 253.371094 L 33.230469 253.335938 L 33.316406 253.300781 L 33.402344 253.269531 L 33.589844 253.222656 L 33.683594 253.203125 L 33.78125 253.1875 L 33.882812 253.175781 L 33.988281 253.164062 L 34.09375 253.160156 L 34.285156 253.160156 L 34.367188 253.164062 L 34.449219 253.171875 L 34.527344 253.183594 L 34.609375 253.195312 L 34.765625 253.234375 L 34.84375 253.257812 L 34.917969 253.28125 L 34.992188 253.3125 L 35.070312 253.339844 L 35.140625 253.375 L 35.214844 253.40625 L 35.289062 253.445312 L 35.429688 253.523438 L 35.5 253.566406 L 35.640625 253.660156 L 35.707031 253.710938 L 35.777344 253.757812 L 35.84375 253.8125 L 35.910156 253.863281 L 35.976562 253.917969 L 36.109375 254.035156 L 36.171875 254.09375 L 36.238281 254.15625 L 36.300781 254.21875 L 36.363281 254.285156 L 36.429688 254.347656 L 36.492188 254.414062 L 36.554688 254.484375 L 36.679688 254.617188 L 36.742188 254.6875 L 36.800781 254.757812 L 36.925781 254.898438 L 36.984375 254.96875 L 37.046875 255.039062 L 37.105469 255.113281 L 37.164062 255.183594 L 37.226562 255.257812 L 37.34375 255.398438 L 37.40625 255.472656 L 37.464844 255.542969 L 37.582031 255.691406 L 37.699219 255.832031 L 37.761719 255.902344 L 37.878906 256.042969 L 37.9375 256.109375 L 37.996094 256.179688 L 38.054688 256.246094 L 38.117188 256.308594 L 38.175781 256.375 L 38.234375 256.4375 L 38.355469 256.558594 L 38.417969 256.617188 L 38.476562 256.675781 L 38.539062 256.730469 L 38.597656 256.785156 L 38.722656 256.894531 L 38.785156 256.945312 L 38.847656 256.992188 L 38.90625 257.039062 L 38.96875 257.085938 L 39.035156 257.128906 L 39.160156 257.207031 L 39.292969 257.277344 L 39.355469 257.308594 L 39.421875 257.335938 L 39.421875 253.03125 L 40.320312 253.03125 Z M 40.320312 258.496094 "/>
<path fill-rule="nonzero" fill="rgb(0%, 0%, 0%)" fill-opacity="1" d="M 38.449219 206.53125 L 40.320312 206.53125 L 40.320312 207.527344 L 38.449219 207.527344 L 38.449219 211.417969 L 37.628906 211.417969 L 32.0625 207.636719 L 32.0625 206.53125 L 37.617188 206.53125 L 37.617188 205.371094 L 38.449219 205.371094 Z M 33.253906 207.527344 L 33.261719 207.527344 L 33.277344 207.535156 L 33.285156 207.542969 L 33.296875 207.546875 L 33.308594 207.554688 L 33.324219 207.558594 L 33.355469 207.574219 L 33.371094 207.585938 L 33.386719 207.59375 L 33.40625 207.605469 L 33.421875 207.613281 L 33.441406 207.625 L 33.457031 207.636719 L 33.476562 207.644531 L 33.515625 207.667969 L 33.539062 207.679688 L 33.578125 207.703125 L 33.601562 207.714844 L 33.621094 207.726562 L 33.644531 207.738281 L 33.664062 207.75 L 33.6875 207.761719 L 33.707031 207.777344 L 33.753906 207.800781 L 33.773438 207.8125 L 33.796875 207.824219 L 33.855469 207.859375 L 33.871094 207.871094 L 33.890625 207.878906 L 33.90625 207.890625 L 33.921875 207.898438 L 33.9375 207.910156 L 33.949219 207.917969 L 37.066406 210.035156 L 37.078125 210.039062 L 37.089844 210.046875 L 37.097656 210.054688 L 37.121094 210.070312 L 37.136719 210.078125 L 37.160156 210.101562 L 37.175781 210.109375 L 37.238281 210.15625 L 37.253906 210.164062 L 37.488281 210.339844 L 37.5 210.351562 L 37.53125 210.375 L 37.542969 210.382812 L 37.558594 210.394531 L 37.570312 210.402344 L 37.589844 210.421875 L 37.601562 210.429688 L 37.617188 210.445312 L 37.617188 207.527344 Z M 33.253906 207.527344 "/>
<path fill-rule="nonzero" fill="rgb(0%, 0%, 0%)" fill-opacity="1" d="M 37.617188 158.136719 L 37.742188 158.140625 L 37.863281 158.144531 L 37.984375 158.15625 L 38.101562 158.167969 L 38.214844 158.183594 L 38.328125 158.203125 L 38.441406 158.226562 L 38.546875 158.25 L 38.65625 158.28125 L 38.761719 158.3125 L 38.863281 158.351562 L 39.058594 158.429688 L 39.152344 158.476562 L 39.242188 158.527344 L 39.328125 158.578125 L 39.414062 158.636719 L 39.496094 158.695312 L 39.574219 158.757812 L 39.652344 158.824219 L 39.722656 158.890625 L 39.792969 158.964844 L 39.859375 159.039062 L 39.921875 159.117188 L 39.980469 159.199219 L 40.039062 159.285156 L 40.089844 159.371094 L 40.140625 159.464844 L 40.1875 159.558594 L 40.230469 159.65625 L 40.269531 159.757812 L 40.304688 159.863281 L 40.335938 159.96875 L 40.363281 160.078125 L 40.386719 160.191406 L 40.40625 160.308594 L 40.429688 160.550781 L 40.433594 160.675781 L 40.4375 160.804688 L 40.433594 160.945312 L 40.425781 161.085938 L 40.414062 161.21875 L 40.394531 161.351562 L 40.367188 161.480469 L 40.339844 161.605469 L 40.261719 161.839844 L 40.214844 161.953125 L 40.105469 162.171875 L 40.042969 162.273438 L 39.976562 162.371094 L 39.828125 162.558594 L 39.746094 162.644531 L 39.660156 162.730469 L 39.566406 162.8125 L 39.472656 162.886719 L 39.371094 162.960938 L 39.265625 163.03125 L 39.152344 163.097656 L 39.039062 163.160156 L 38.917969 163.21875 L 38.792969 163.273438 L 38.664062 163.328125 L 38.390625 163.421875 L 38.246094 163.460938 L 38.097656 163.5 L 37.945312 163.535156 L 37.789062 163.5625 L 37.628906 163.589844 L 37.460938 163.613281 L 37.292969 163.632812 L 37.117188 163.648438 L 36.941406 163.660156 L 36.574219 163.675781 L 36.382812 163.675781 L 36.164062 163.671875 L 35.953125 163.667969 L 35.746094 163.65625 L 35.542969 163.644531 L 35.347656 163.625 L 35.15625 163.605469 L 34.972656 163.578125 L 34.792969 163.546875 L 34.617188 163.515625 L 34.449219 163.476562 L 34.285156 163.433594 L 34.128906 163.386719 L 33.972656 163.335938 L 33.828125 163.285156 L 33.6875 163.226562 L 33.550781 163.167969 L 33.417969 163.101562 L 33.292969 163.035156 L 33.175781 162.964844 L 33.058594 162.890625 L 32.953125 162.8125 L 32.847656 162.730469 L 32.75 162.648438 L 32.660156 162.558594 L 32.574219 162.46875 L 32.492188 162.375 L 32.414062 162.277344 L 32.347656 162.175781 L 32.28125 162.070312 L 32.222656 161.964844 L 32.167969 161.851562 L 32.121094 161.738281 L 32.078125 161.621094 L 32.042969 161.5 L 32.011719 161.378906 L 31.984375 161.253906 L 31.964844 161.125 L 31.953125 160.992188 L 31.945312 160.859375 L 31.941406 160.722656 L 31.941406 160.640625 L 31.945312 160.554688 L 31.949219 160.472656 L 31.957031 160.394531 L 31.964844 160.3125 L 31.972656 160.234375 L 31.984375 160.15625 L 31.996094 160.082031 L 32.011719 160.007812 L 32.027344 159.929688 L 32.046875 159.859375 L 32.070312 159.785156 L 32.089844 159.714844 L 32.117188 159.648438 L 32.144531 159.578125 L 32.175781 159.515625 L 32.207031 159.449219 L 32.277344 159.324219 L 32.316406 159.261719 L 32.355469 159.203125 L 32.398438 159.144531 L 32.445312 159.085938 L 32.492188 159.03125 L 32.542969 158.976562 L 32.59375 158.925781 L 32.648438 158.875 L 32.707031 158.824219 L 32.832031 158.730469 L 32.964844 158.644531 L 33.039062 158.601562 L 33.113281 158.5625 L 33.191406 158.523438 L 33.269531 158.488281 L 33.441406 158.425781 L 33.53125 158.394531 L 33.621094 158.367188 L 33.804688 159.375 L 33.699219 159.410156 L 33.601562 159.449219 L 33.511719 159.492188 L 33.425781 159.539062 L 33.347656 159.589844 L 33.273438 159.644531 L 33.203125 159.703125 L 33.140625 159.765625 L 33.085938 159.832031 L 33.035156 159.902344 L 32.949219 160.050781 L 32.914062 160.128906 L 32.882812 160.207031 L 32.855469 160.289062 L 32.816406 160.460938 L 32.804688 160.550781 L 32.800781 160.640625 L 32.796875 160.734375 L 32.796875 160.820312 L 32.804688 160.90625 L 32.816406 160.988281 L 32.828125 161.066406 L 32.847656 161.148438 L 32.871094 161.226562 L 32.898438 161.300781 L 32.960938 161.449219 L 33 161.519531 L 33.042969 161.589844 L 33.144531 161.722656 L 33.199219 161.785156 L 33.257812 161.84375 L 33.320312 161.902344 L 33.390625 161.960938 L 33.460938 162.015625 L 33.535156 162.066406 L 33.617188 162.117188 L 33.699219 162.164062 L 33.785156 162.210938 L 33.972656 162.296875 L 34.074219 162.335938 L 34.285156 162.40625 L 34.398438 162.441406 L 34.515625 162.46875 L 34.636719 162.496094 L 34.761719 162.523438 L 34.890625 162.542969 L 35.023438 162.5625 L 35.160156 162.582031 L 35.449219 162.605469 L 35.597656 162.617188 L 35.910156 162.625 L 36.070312 162.625 L 35.96875 162.566406 L 35.867188 162.503906 L 35.773438 162.433594 L 35.6875 162.359375 L 35.601562 162.28125 L 35.523438 162.199219 L 35.453125 162.109375 L 35.382812 162.015625 L 35.320312 161.921875 L 35.261719 161.816406 L 35.210938 161.710938 L 35.164062 161.605469 L 35.121094 161.492188 L 35.082031 161.375 L 35.050781 161.257812 L 35.027344 161.136719 L 35.007812 161.011719 L 34.992188 160.886719 L 34.984375 160.757812 L 34.980469 160.621094 L 34.988281 160.402344 L 35.011719 160.191406 L 35.027344 160.085938 L 35.046875 159.984375 L 35.070312 159.886719 L 35.097656 159.789062 L 35.128906 159.695312 L 35.164062 159.601562 L 35.203125 159.511719 L 35.242188 159.425781 L 35.289062 159.339844 L 35.335938 159.257812 L 35.386719 159.179688 L 35.441406 159.101562 L 35.5 159.03125 L 35.558594 158.957031 L 35.691406 158.824219 L 35.832031 158.699219 L 35.910156 158.640625 L 35.988281 158.585938 L 36.152344 158.484375 L 36.242188 158.4375 L 36.332031 158.398438 L 36.425781 158.355469 L 36.621094 158.285156 L 36.722656 158.253906 L 36.824219 158.226562 L 36.933594 158.203125 L 37.039062 158.183594 L 37.152344 158.167969 L 37.378906 158.144531 L 37.5 158.140625 Z M 37.664062 159.210938 L 37.582031 159.210938 L 37.496094 159.214844 L 37.417969 159.21875 L 37.335938 159.226562 L 37.257812 159.238281 L 37.183594 159.25 L 37.105469 159.261719 L 37.035156 159.277344 L 36.960938 159.296875 L 36.890625 159.316406 L 36.757812 159.363281 L 36.632812 159.417969 L 36.515625 159.480469 L 36.40625 159.550781 L 36.355469 159.589844 L 36.304688 159.632812 L 36.257812 159.675781 L 36.210938 159.722656 L 36.167969 159.769531 L 36.128906 159.816406 L 36.089844 159.867188 L 36.019531 159.976562 L 35.957031 160.09375 L 35.929688 160.152344 L 35.90625 160.21875 L 35.882812 160.28125 L 35.863281 160.347656 L 35.84375 160.417969 L 35.832031 160.488281 L 35.816406 160.5625 L 35.808594 160.636719 L 35.800781 160.714844 L 35.796875 160.792969 L 35.796875 160.933594 L 35.800781 160.988281 L 35.804688 161.046875 L 35.828125 161.222656 L 35.851562 161.339844 L 35.867188 161.394531 L 35.882812 161.453125 L 35.921875 161.570312 L 35.96875 161.679688 L 36.023438 161.789062 L 36.085938 161.890625 L 36.121094 161.941406 L 36.199219 162.035156 L 36.238281 162.078125 L 36.285156 162.121094 L 36.328125 162.164062 L 36.378906 162.203125 L 36.429688 162.238281 L 36.484375 162.277344 L 36.539062 162.3125 L 36.65625 162.375 L 36.722656 162.402344 L 36.855469 162.449219 L 36.929688 162.46875 L 37.003906 162.484375 L 37.078125 162.496094 L 37.160156 162.507812 L 37.242188 162.515625 L 37.324219 162.519531 L 37.503906 162.519531 L 37.683594 162.511719 L 37.769531 162.503906 L 37.941406 162.480469 L 38.023438 162.464844 L 38.109375 162.445312 L 38.1875 162.425781 L 38.269531 162.402344 L 38.347656 162.378906 L 38.496094 162.324219 L 38.636719 162.261719 L 38.769531 162.191406 L 38.894531 162.113281 L 38.953125 162.070312 L 39.011719 162.023438 L 39.121094 161.929688 L 39.167969 161.878906 L 39.21875 161.824219 L 39.304688 161.714844 L 39.382812 161.597656 L 39.417969 161.535156 L 39.480469 161.410156 L 39.527344 161.277344 L 39.546875 161.207031 L 39.558594 161.136719 L 39.574219 161.066406 L 39.582031 160.992188 L 39.585938 160.917969 L 39.585938 160.765625 L 39.582031 160.691406 L 39.574219 160.617188 L 39.566406 160.546875 L 39.542969 160.414062 L 39.503906 160.28125 L 39.484375 160.21875 L 39.429688 160.101562 L 39.367188 159.984375 L 39.332031 159.929688 L 39.296875 159.878906 L 39.257812 159.828125 L 39.171875 159.734375 L 39.125 159.6875 L 39.078125 159.644531 L 39.027344 159.601562 L 38.972656 159.5625 L 38.917969 159.527344 L 38.800781 159.457031 L 38.738281 159.425781 L 38.539062 159.34375 L 38.46875 159.320312 L 38.320312 159.28125 L 38.246094 159.265625 L 38.167969 159.25 L 38.089844 159.238281 L 37.925781 159.222656 L 37.839844 159.214844 L 37.753906 159.210938 Z M 37.664062 159.210938 "/>
<path fill-rule="nonzero" fill="rgb(0%, 0%, 0%)" fill-opacity="1" d="M 38.015625 110.726562 L 38.121094 110.726562 L 38.226562 110.730469 L 38.328125 110.742188 L 38.425781 110.753906 L 38.621094 110.785156 L 38.714844 110.808594 L 38.808594 110.835938 L 38.898438 110.863281 L 38.988281 110.894531 L 39.078125 110.929688 L 39.160156 110.96875 L 39.324219 111.054688 L 39.398438 111.105469 L 39.476562 111.15625 L 39.617188 111.273438 L 39.6875 111.335938 L 39.75 111.40625 L 39.816406 111.476562 L 39.875 111.546875 L 39.933594 111.625 L 39.988281 111.707031 L 40.039062 111.792969 L 40.085938 111.882812 L 40.132812 111.976562 L 40.21875 112.171875 L 40.253906 112.277344 L 40.289062 112.386719 L 40.320312 112.5 L 40.347656 112.617188 L 40.371094 112.734375 L 40.390625 112.859375 L 40.40625 112.988281 L 40.421875 113.121094 L 40.429688 113.253906 L 40.433594 113.394531 L 40.4375 113.539062 L 40.429688 113.820312 L 40.421875 113.957031 L 40.40625 114.089844 L 40.390625 114.214844 L 40.371094 114.339844 L 40.347656 114.460938 L 40.320312 114.578125 L 40.289062 114.6875 L 40.253906 114.796875 L 40.21875 114.902344 L 40.132812 115.097656 L 40.089844 115.191406 L 40.039062 115.28125 L 39.988281 115.367188 L 39.933594 115.449219 L 39.878906 115.527344 L 39.820312 115.605469 L 39.757812 115.675781 L 39.625 115.808594 L 39.554688 115.867188 L 39.480469 115.925781 L 39.40625 115.976562 L 39.328125 116.027344 L 39.25 116.074219 L 39.167969 116.117188 L 39.082031 116.15625 L 38.996094 116.191406 L 38.90625 116.222656 L 38.816406 116.25 L 38.722656 116.277344 L 38.628906 116.296875 L 38.53125 116.316406 L 38.335938 116.339844 L 38.132812 116.355469 L 37.941406 116.355469 L 37.851562 116.351562 L 37.765625 116.34375 L 37.683594 116.335938 L 37.601562 116.324219 L 37.523438 116.308594 L 37.445312 116.289062 L 37.371094 116.269531 L 37.296875 116.246094 L 37.226562 116.222656 L 37.15625 116.191406 L 37.023438 116.128906 L 36.898438 116.058594 L 36.78125 115.980469 L 36.726562 115.941406 L 36.675781 115.898438 L 36.621094 115.851562 L 36.570312 115.804688 L 36.523438 115.757812 L 36.476562 115.707031 L 36.433594 115.65625 L 36.390625 115.601562 L 36.351562 115.550781 L 36.3125 115.496094 L 36.277344 115.441406 L 36.242188 115.382812 L 36.210938 115.324219 L 36.183594 115.265625 L 36.152344 115.203125 L 36.128906 115.144531 L 36.101562 115.082031 L 36.082031 115.023438 L 36.042969 114.898438 L 36.011719 114.773438 L 36 114.710938 L 35.976562 114.710938 L 35.960938 114.777344 L 35.921875 114.910156 L 35.898438 114.976562 L 35.871094 115.039062 L 35.84375 115.097656 L 35.816406 115.160156 L 35.78125 115.21875 L 35.75 115.273438 L 35.714844 115.332031 L 35.675781 115.382812 L 35.640625 115.433594 L 35.597656 115.484375 L 35.558594 115.535156 L 35.515625 115.578125 L 35.472656 115.625 L 35.378906 115.710938 L 35.332031 115.75 L 35.28125 115.789062 L 35.230469 115.824219 L 35.175781 115.855469 L 35.121094 115.890625 L 35.066406 115.921875 L 35.011719 115.949219 L 34.953125 115.976562 L 34.894531 116 L 34.835938 116.027344 L 34.773438 116.046875 L 34.710938 116.070312 L 34.523438 116.117188 L 34.457031 116.128906 L 34.394531 116.140625 L 34.261719 116.15625 L 34.191406 116.160156 L 34.125 116.160156 L 34.054688 116.164062 L 33.96875 116.160156 L 33.886719 116.15625 L 33.800781 116.148438 L 33.71875 116.136719 L 33.554688 116.105469 L 33.476562 116.082031 L 33.394531 116.058594 L 33.320312 116.03125 L 33.242188 116 L 33.164062 115.964844 L 33.089844 115.925781 L 33.019531 115.882812 L 32.878906 115.789062 L 32.8125 115.738281 L 32.75 115.683594 L 32.625 115.566406 L 32.566406 115.5 L 32.511719 115.433594 L 32.457031 115.363281 L 32.402344 115.289062 L 32.308594 115.132812 L 32.261719 115.050781 L 32.222656 114.964844 L 32.183594 114.875 L 32.144531 114.78125 L 32.109375 114.6875 L 32.078125 114.585938 L 32.050781 114.484375 L 32.023438 114.378906 L 32.003906 114.273438 L 31.984375 114.160156 L 31.96875 114.046875 L 31.957031 113.929688 L 31.949219 113.8125 L 31.941406 113.6875 L 31.941406 113.429688 L 31.957031 113.171875 L 31.96875 113.050781 L 31.984375 112.933594 L 32.003906 112.816406 L 32.023438 112.707031 L 32.050781 112.597656 L 32.078125 112.496094 L 32.109375 112.394531 L 32.144531 112.296875 L 32.183594 112.203125 L 32.222656 112.113281 L 32.265625 112.023438 L 32.359375 111.859375 L 32.460938 111.710938 L 32.515625 111.640625 L 32.574219 111.574219 L 32.691406 111.449219 L 32.753906 111.394531 L 32.820312 111.339844 L 32.886719 111.289062 L 32.953125 111.242188 L 33.023438 111.199219 L 33.171875 111.121094 L 33.246094 111.089844 L 33.324219 111.058594 L 33.40625 111.03125 L 33.484375 111.007812 L 33.566406 110.988281 L 33.644531 110.96875 L 33.730469 110.957031 L 33.8125 110.945312 L 33.898438 110.9375 L 33.980469 110.933594 L 34.066406 110.929688 L 34.136719 110.929688 L 34.269531 110.9375 L 34.335938 110.945312 L 34.402344 110.957031 L 34.464844 110.964844 L 34.53125 110.980469 L 34.59375 110.992188 L 34.78125 111.050781 L 34.839844 111.070312 L 34.898438 111.09375 L 35.015625 111.148438 L 35.070312 111.175781 L 35.128906 111.207031 L 35.179688 111.238281 L 35.234375 111.273438 L 35.285156 111.3125 L 35.335938 111.347656 L 35.382812 111.386719 L 35.476562 111.472656 L 35.519531 111.515625 L 35.5625 111.5625 L 35.605469 111.613281 L 35.644531 111.660156 L 35.683594 111.714844 L 35.753906 111.824219 L 35.785156 111.878906 L 35.816406 111.9375 L 35.84375 111.996094 L 35.871094 112.058594 L 35.894531 112.125 L 35.914062 112.1875 L 35.933594 112.253906 L 35.953125 112.324219 L 35.964844 112.394531 L 35.988281 112.394531 L 36.003906 112.324219 L 36.015625 112.253906 L 36.035156 112.183594 L 36.074219 112.050781 L 36.097656 111.984375 L 36.121094 111.921875 L 36.148438 111.855469 L 36.175781 111.792969 L 36.207031 111.734375 L 36.238281 111.671875 L 36.273438 111.613281 L 36.34375 111.503906 L 36.386719 111.449219 L 36.425781 111.398438 L 36.519531 111.296875 L 36.566406 111.25 L 36.667969 111.164062 L 36.722656 111.121094 L 36.777344 111.082031 L 36.835938 111.042969 L 36.953125 110.972656 L 37.019531 110.941406 L 37.082031 110.910156 L 37.152344 110.882812 L 37.21875 110.855469 L 37.292969 110.828125 L 37.363281 110.808594 L 37.441406 110.789062 L 37.515625 110.773438 L 37.59375 110.757812 L 37.675781 110.746094 L 37.757812 110.738281 L 37.84375 110.730469 L 37.929688 110.726562 Z M 34.125 112.027344 L 34.066406 112.027344 L 34.003906 112.03125 L 33.886719 112.039062 L 33.828125 112.046875 L 33.773438 112.054688 L 33.664062 112.078125 L 33.609375 112.09375 L 33.507812 112.125 L 33.457031 112.144531 L 33.410156 112.164062 L 33.363281 112.1875 L 33.320312 112.210938 L 33.234375 112.265625 L 33.195312 112.296875 L 33.117188 112.367188 L 33.082031 112.402344 L 33.046875 112.441406 L 32.984375 112.527344 L 32.953125 112.574219 L 32.898438 112.675781 L 32.875 112.726562 L 32.851562 112.78125 L 32.832031 112.839844 L 32.792969 112.964844 L 32.777344 113.027344 L 32.753906 113.167969 L 32.742188 113.242188 L 32.734375 113.316406 L 32.730469 113.394531 L 32.726562 113.476562 L 32.726562 113.644531 L 32.734375 113.800781 L 32.742188 113.875 L 32.765625 114.015625 L 32.777344 114.082031 L 32.792969 114.144531 L 32.8125 114.207031 L 32.832031 114.265625 L 32.851562 114.320312 L 32.875 114.375 L 32.898438 114.425781 L 32.953125 114.527344 L 32.984375 114.574219 L 33.046875 114.660156 L 33.117188 114.738281 L 33.195312 114.808594 L 33.234375 114.839844 L 33.363281 114.921875 L 33.410156 114.945312 L 33.457031 114.964844 L 33.558594 115.003906 L 33.609375 115.019531 L 33.773438 115.054688 L 33.828125 115.0625 L 33.945312 115.078125 L 34.003906 115.082031 L 34.066406 115.082031 L 34.125 115.085938 L 34.175781 115.085938 L 34.226562 115.082031 L 34.273438 115.078125 L 34.375 115.070312 L 34.476562 115.054688 L 34.679688 115.007812 L 34.730469 114.988281 L 34.78125 114.972656 L 34.828125 114.953125 L 34.921875 114.90625 L 34.96875 114.878906 L 35.011719 114.847656 L 35.054688 114.820312 L 35.140625 114.75 L 35.21875 114.671875 L 35.257812 114.628906 L 35.292969 114.582031 L 35.324219 114.535156 L 35.355469 114.484375 L 35.417969 114.375 L 35.445312 114.316406 L 35.492188 114.191406 L 35.515625 114.121094 L 35.53125 114.050781 L 35.546875 113.976562 L 35.558594 113.898438 L 35.566406 113.816406 L 35.574219 113.730469 L 35.578125 113.640625 L 35.578125 113.453125 L 35.574219 113.359375 L 35.566406 113.269531 L 35.558594 113.183594 L 35.546875 113.101562 L 35.53125 113.023438 L 35.515625 112.949219 L 35.492188 112.878906 L 35.46875 112.8125 L 35.445312 112.753906 L 35.417969 112.691406 L 35.355469 112.582031 L 35.324219 112.53125 L 35.292969 112.484375 L 35.257812 112.441406 L 35.21875 112.398438 L 35.179688 112.359375 L 35.140625 112.324219 L 35.097656 112.289062 L 35.054688 112.257812 L 34.96875 112.203125 L 34.921875 112.175781 L 34.78125 112.117188 L 34.730469 112.101562 L 34.628906 112.078125 L 34.578125 112.070312 L 34.527344 112.058594 L 34.476562 112.050781 L 34.425781 112.046875 L 34.375 112.039062 L 34.273438 112.03125 L 34.226562 112.027344 Z M 37.917969 111.820312 L 37.859375 111.820312 L 37.742188 111.828125 L 37.683594 111.835938 L 37.625 111.839844 L 37.566406 111.851562 L 37.511719 111.859375 L 37.453125 111.875 L 37.398438 111.886719 L 37.34375 111.902344 L 37.179688 111.960938 L 37.078125 112.015625 L 37.03125 112.042969 L 36.984375 112.074219 L 36.9375 112.109375 L 36.894531 112.144531 L 36.851562 112.183594 L 36.808594 112.226562 L 36.769531 112.269531 L 36.730469 112.316406 L 36.691406 112.367188 L 36.65625 112.417969 L 36.621094 112.472656 L 36.589844 112.53125 L 36.5625 112.59375 L 36.53125 112.65625 L 36.503906 112.722656 L 36.457031 112.863281 L 36.4375 112.9375 L 36.417969 113.019531 L 36.40625 113.101562 L 36.390625 113.183594 L 36.382812 113.273438 L 36.375 113.367188 L 36.371094 113.460938 L 36.371094 113.652344 L 36.375 113.742188 L 36.382812 113.828125 L 36.390625 113.910156 L 36.40625 113.992188 L 36.417969 114.066406 L 36.4375 114.144531 L 36.457031 114.214844 L 36.480469 114.285156 L 36.503906 114.351562 L 36.53125 114.414062 L 36.5625 114.476562 L 36.589844 114.535156 L 36.621094 114.589844 L 36.65625 114.644531 L 36.691406 114.695312 L 36.730469 114.746094 L 36.769531 114.792969 L 36.808594 114.835938 L 36.851562 114.878906 L 36.894531 114.917969 L 37.035156 115.023438 L 37.085938 115.050781 L 37.136719 115.082031 L 37.1875 115.105469 L 37.296875 115.152344 L 37.355469 115.171875 L 37.410156 115.191406 L 37.46875 115.207031 L 37.527344 115.21875 L 37.582031 115.234375 L 37.699219 115.25 L 37.761719 115.257812 L 37.878906 115.265625 L 38.015625 115.265625 L 38.164062 115.257812 L 38.375 115.234375 L 38.441406 115.21875 L 38.507812 115.207031 L 38.574219 115.191406 L 38.699219 115.152344 L 38.816406 115.105469 L 38.875 115.078125 L 38.929688 115.050781 L 39.03125 114.988281 L 39.082031 114.953125 L 39.132812 114.914062 L 39.175781 114.875 L 39.222656 114.832031 L 39.300781 114.738281 L 39.339844 114.6875 L 39.375 114.636719 L 39.410156 114.582031 L 39.441406 114.523438 L 39.46875 114.464844 L 39.496094 114.398438 L 39.523438 114.335938 L 39.546875 114.265625 L 39.566406 114.195312 L 39.585938 114.121094 L 39.601562 114.046875 L 39.617188 113.964844 L 39.625 113.882812 L 39.636719 113.796875 L 39.640625 113.710938 L 39.644531 113.621094 L 39.644531 113.429688 L 39.636719 113.25 L 39.625 113.167969 L 39.617188 113.082031 L 39.601562 113.003906 L 39.585938 112.929688 L 39.566406 112.855469 L 39.546875 112.785156 L 39.523438 112.71875 L 39.496094 112.652344 L 39.46875 112.589844 L 39.441406 112.53125 L 39.410156 112.476562 L 39.375 112.421875 L 39.339844 112.371094 L 39.300781 112.320312 L 39.261719 112.273438 L 39.222656 112.230469 L 39.082031 112.113281 L 38.980469 112.050781 L 38.925781 112.019531 L 38.871094 111.992188 L 38.753906 111.945312 L 38.695312 111.925781 L 38.632812 111.910156 L 38.566406 111.890625 L 38.5 111.878906 L 38.433594 111.863281 L 38.363281 111.851562 L 38.292969 111.84375 L 38.21875 111.835938 L 38.148438 111.828125 L 38.070312 111.824219 L 37.996094 111.820312 Z M 37.917969 111.820312 "/>
<path fill-rule="nonzero" fill="rgb(0%, 0%, 0%)" fill-opacity="1" d="M 40.320312 71.894531 L 39.421875 71.894531 L 39.421875 69.789062 L 33.070312 69.789062 L 34.402344 71.652344 L 33.40625 71.652344 L 32.0625 69.703125 L 32.0625 68.730469 L 39.421875 68.730469 L 39.421875 66.71875 L 40.320312 66.71875 Z M 40.320312 71.894531 "/>
<path fill-rule="nonzero" fill="rgb(0%, 0%, 0%)" fill-opacity="1" d="M 36.1875 59.929688 L 36.421875 59.929688 L 36.648438 59.9375 L 36.867188 59.949219 L 37.082031 59.964844 L 37.285156 59.984375 L 37.480469 60.011719 L 37.671875 60.039062 L 37.851562 60.074219 L 38.027344 60.113281 L 38.191406 60.15625 L 38.351562 60.203125 L 38.503906 60.253906 L 38.652344 60.304688 L 38.792969 60.363281 L 38.925781 60.421875 L 39.054688 60.484375 L 39.175781 60.550781 L 39.292969 60.621094 L 39.402344 60.695312 L 39.503906 60.773438 L 39.601562 60.851562 L 39.695312 60.933594 L 39.777344 61.015625 L 39.859375 61.105469 L 39.933594 61.195312 L 40.003906 61.285156 L 40.066406 61.382812 L 40.121094 61.480469 L 40.175781 61.582031 L 40.261719 61.792969 L 40.296875 61.898438 L 40.332031 62.007812 L 40.359375 62.121094 L 40.382812 62.230469 L 40.402344 62.34375 L 40.417969 62.457031 L 40.429688 62.574219 L 40.433594 62.691406 L 40.4375 62.8125 L 40.433594 62.929688 L 40.429688 63.050781 L 40.417969 63.164062 L 40.402344 63.28125 L 40.382812 63.394531 L 40.359375 63.503906 L 40.332031 63.617188 L 40.296875 63.722656 L 40.261719 63.832031 L 40.21875 63.9375 L 40.175781 64.039062 L 40.121094 64.140625 L 40.066406 64.238281 L 39.933594 64.425781 L 39.859375 64.511719 L 39.777344 64.601562 L 39.695312 64.683594 L 39.601562 64.765625 L 39.503906 64.84375 L 39.402344 64.917969 L 39.292969 64.992188 L 39.179688 65.058594 L 39.058594 65.125 L 38.929688 65.1875 L 38.796875 65.246094 L 38.65625 65.300781 L 38.511719 65.351562 L 38.359375 65.402344 L 38.199219 65.449219 L 38.03125 65.488281 L 37.859375 65.527344 L 37.675781 65.558594 L 37.488281 65.585938 L 37.289062 65.609375 L 37.085938 65.628906 L 36.871094 65.644531 L 36.652344 65.65625 L 36.425781 65.664062 L 35.945312 65.664062 L 35.707031 65.65625 L 35.480469 65.644531 L 35.261719 65.628906 L 35.050781 65.609375 L 34.847656 65.585938 L 34.65625 65.558594 L 34.46875 65.527344 L 34.292969 65.488281 L 34.125 65.449219 L 33.964844 65.402344 L 33.8125 65.351562 L 33.664062 65.300781 L 33.523438 65.242188 L 33.390625 65.183594 L 33.261719 65.121094 L 33.140625 65.054688 L 33.027344 64.988281 L 32.921875 64.914062 L 32.820312 64.839844 L 32.726562 64.757812 L 32.636719 64.679688 L 32.554688 64.59375 L 32.476562 64.507812 L 32.40625 64.417969 L 32.34375 64.324219 L 32.28125 64.226562 L 32.230469 64.128906 L 32.183594 64.027344 L 32.140625 63.925781 L 32.101562 63.816406 L 32.070312 63.710938 L 32.039062 63.597656 L 32.011719 63.488281 L 31.992188 63.375 L 31.972656 63.257812 L 31.960938 63.140625 L 31.949219 63.019531 L 31.941406 62.898438 L 31.941406 62.660156 L 31.949219 62.542969 L 31.960938 62.425781 L 31.972656 62.316406 L 31.992188 62.203125 L 32.011719 62.09375 L 32.039062 61.984375 L 32.101562 61.773438 L 32.140625 61.667969 L 32.183594 61.566406 L 32.230469 61.464844 L 32.28125 61.367188 L 32.40625 61.179688 L 32.476562 61.089844 L 32.554688 61.003906 L 32.636719 60.921875 L 32.726562 60.839844 L 32.820312 60.761719 L 32.921875 60.683594 L 33.027344 60.613281 L 33.140625 60.542969 L 33.261719 60.476562 L 33.390625 60.414062 L 33.523438 60.355469 L 33.664062 60.300781 L 33.8125 60.246094 L 33.964844 60.195312 L 34.125 60.152344 L 34.292969 60.109375 L 34.46875 60.070312 L 34.65625 60.039062 L 34.847656 60.007812 L 35.050781 59.984375 L 35.261719 59.964844 L 35.480469 59.949219 L 35.707031 59.9375 L 35.945312 59.929688 Z M 36.1875 61 L 35.996094 61 L 35.808594 61.003906 L 35.628906 61.011719 L 35.453125 61.019531 L 35.289062 61.03125 L 35.128906 61.042969 L 34.976562 61.058594 L 34.828125 61.074219 L 34.6875 61.09375 L 34.554688 61.117188 L 34.425781 61.140625 L 34.300781 61.167969 L 34.183594 61.199219 L 33.964844 61.261719 L 33.863281 61.296875 L 33.675781 61.375 L 33.589844 61.417969 L 33.433594 61.511719 L 33.363281 61.558594 L 33.296875 61.609375 L 33.234375 61.664062 L 33.175781 61.71875 L 33.125 61.777344 L 33.078125 61.835938 L 33.035156 61.898438 L 32.996094 61.960938 L 32.960938 62.027344 L 32.929688 62.09375 L 32.902344 62.160156 L 32.875 62.230469 L 32.835938 62.378906 L 32.824219 62.453125 L 32.8125 62.53125 L 32.804688 62.609375 L 32.796875 62.691406 L 32.796875 62.863281 L 32.8125 63.035156 L 32.824219 63.117188 L 32.835938 63.195312 L 32.855469 63.273438 L 32.875 63.347656 L 32.902344 63.421875 L 32.929688 63.492188 L 32.960938 63.5625 L 32.996094 63.628906 L 33.035156 63.691406 L 33.078125 63.753906 L 33.128906 63.816406 L 33.183594 63.875 L 33.238281 63.929688 L 33.300781 63.984375 L 33.371094 64.039062 L 33.441406 64.085938 L 33.515625 64.136719 L 33.597656 64.179688 L 33.683594 64.222656 L 33.773438 64.261719 L 33.871094 64.300781 L 33.972656 64.335938 L 34.078125 64.371094 L 34.191406 64.402344 L 34.308594 64.429688 L 34.433594 64.457031 L 34.558594 64.480469 L 34.695312 64.503906 L 34.832031 64.523438 L 34.980469 64.539062 L 35.132812 64.554688 L 35.292969 64.570312 L 35.457031 64.578125 L 35.632812 64.585938 L 35.8125 64.59375 L 35.996094 64.597656 L 36.375 64.597656 L 36.558594 64.59375 L 36.902344 64.578125 L 37.0625 64.570312 L 37.21875 64.554688 L 37.371094 64.539062 L 37.515625 64.523438 L 37.65625 64.503906 L 37.789062 64.480469 L 37.917969 64.457031 L 38.039062 64.425781 L 38.15625 64.398438 L 38.269531 64.367188 L 38.375 64.332031 L 38.476562 64.296875 L 38.574219 64.257812 L 38.667969 64.214844 L 38.753906 64.175781 L 38.835938 64.128906 L 38.914062 64.082031 L 39.054688 63.980469 L 39.117188 63.925781 L 39.175781 63.871094 L 39.230469 63.8125 L 39.28125 63.753906 L 39.328125 63.691406 L 39.367188 63.625 L 39.40625 63.5625 L 39.46875 63.421875 L 39.492188 63.351562 L 39.515625 63.277344 L 39.535156 63.203125 L 39.546875 63.125 L 39.5625 63.046875 L 39.570312 62.964844 L 39.574219 62.882812 L 39.574219 62.71875 L 39.570312 62.636719 L 39.5625 62.558594 L 39.546875 62.480469 L 39.535156 62.402344 L 39.515625 62.328125 L 39.46875 62.1875 L 39.4375 62.117188 L 39.40625 62.050781 L 39.367188 61.984375 L 39.328125 61.921875 L 39.28125 61.859375 L 39.230469 61.800781 L 39.175781 61.742188 L 39.117188 61.6875 L 39.054688 61.632812 L 38.984375 61.582031 L 38.914062 61.535156 L 38.835938 61.488281 L 38.753906 61.441406 L 38.667969 61.398438 L 38.574219 61.355469 L 38.476562 61.316406 L 38.375 61.28125 L 38.269531 61.246094 L 38.15625 61.214844 L 38.039062 61.183594 L 37.917969 61.15625 L 37.789062 61.128906 L 37.65625 61.105469 L 37.515625 61.082031 L 37.371094 61.0625 L 37.21875 61.046875 L 37.0625 61.03125 L 36.902344 61.019531 L 36.558594 61.003906 L 36.375 61 Z M 36.1875 61 "/>
<path fill="none" stroke-width="0.75" stroke-linecap="round" stroke-linejoin="round" stroke="rgb(0%, 0%, 0%)" stroke-opacity="1" stroke-miterlimit="10" d="M 57.601562 288 L 194.398438 288 L 194.398438 57.601562 L 57.601562 57.601562 Z M 57.601562 288 "/>
<path fill-rule="nonzero" fill="rgb(0%, 0%, 0%)" fill-opacity="1" d="M 127.695312 342.71875 L 125.988281 340.117188 L 124.273438 342.71875 L 123.132812 342.71875 L 125.390625 339.460938 L 123.242188 336.378906 L 124.40625 336.378906 L 125.988281 338.847656 L 127.558594 336.378906 L 128.734375 336.378906 L 126.585938 339.449219 L 128.871094 342.71875 Z M 127.695312 342.71875 "/>
<path fill-rule="nonzero" fill="rgb(0%, 0%, 0%)" fill-opacity="1" d="M 11.519531 172.261719 L 11.632812 172.304688 L 11.746094 172.351562 L 11.855469 172.394531 L 12.066406 172.488281 L 12.167969 172.53125 L 12.363281 172.625 L 12.550781 172.71875 L 12.730469 172.8125 L 12.816406 172.859375 L 12.980469 172.960938 L 13.054688 173.011719 L 13.203125 173.121094 L 13.269531 173.175781 L 13.402344 173.292969 L 13.519531 173.410156 L 13.574219 173.472656 L 13.625 173.535156 L 13.71875 173.667969 L 13.761719 173.734375 L 13.800781 173.800781 L 13.835938 173.871094 L 13.867188 173.945312 L 13.898438 174.015625 L 13.925781 174.09375 L 13.964844 174.25 L 13.980469 174.332031 L 13.996094 174.417969 L 14.003906 174.503906 L 14.007812 174.589844 L 14.011719 174.679688 L 14.011719 174.71875 L 14.007812 174.757812 L 14.007812 174.910156 L 14.003906 174.945312 L 14.003906 174.980469 L 14 175.015625 L 14 175.050781 L 13.996094 175.085938 L 13.992188 175.117188 L 13.980469 175.222656 L 13.972656 175.261719 L 13.96875 175.296875 L 13.960938 175.332031 L 13.953125 175.371094 L 13.945312 175.40625 L 13.15625 175.40625 L 13.15625 175.386719 L 13.164062 175.339844 L 13.167969 175.3125 L 13.167969 175.289062 L 13.171875 175.261719 L 13.171875 175.238281 L 13.175781 175.210938 L 13.175781 175.183594 L 13.179688 175.15625 L 13.179688 175.128906 L 13.183594 175.101562 L 13.183594 175.074219 L 13.1875 175.050781 L 13.1875 174.957031 L 13.191406 174.9375 L 13.191406 174.914062 L 13.1875 174.824219 L 13.175781 174.734375 L 13.160156 174.644531 L 13.132812 174.554688 L 13.101562 174.46875 L 13.066406 174.382812 L 13.019531 174.296875 L 12.96875 174.214844 L 12.910156 174.132812 L 12.84375 174.054688 L 12.769531 173.976562 L 12.691406 173.898438 L 12.601562 173.824219 L 12.503906 173.75 L 12.394531 173.679688 L 12.28125 173.613281 L 12.160156 173.542969 L 12.027344 173.480469 L 11.890625 173.417969 L 11.742188 173.355469 L 11.492188 173.257812 L 5.179688 175.769531 L 5.179688 174.644531 L 8.683594 173.308594 L 8.714844 173.296875 L 8.75 173.285156 L 8.789062 173.273438 L 8.867188 173.242188 L 8.910156 173.230469 L 8.957031 173.214844 L 9.003906 173.195312 L 9.105469 173.164062 L 9.160156 173.144531 L 9.210938 173.125 L 9.265625 173.109375 L 9.316406 173.089844 L 9.371094 173.070312 L 9.421875 173.054688 L 9.476562 173.035156 L 9.527344 173.015625 L 9.582031 173 L 9.632812 172.980469 L 9.683594 172.964844 L 9.738281 172.945312 L 9.785156 172.925781 L 9.835938 172.910156 L 9.976562 172.863281 L 10.019531 172.847656 L 10.066406 172.832031 L 10.109375 172.816406 L 10.1875 172.792969 L 10.25 172.769531 L 10.304688 172.753906 L 10.324219 172.746094 L 10.34375 172.742188 L 10.359375 172.738281 L 10.371094 172.734375 L 10.359375 172.730469 L 10.320312 172.722656 L 10.300781 172.714844 L 10.277344 172.707031 L 10.25 172.699219 L 10.222656 172.6875 L 10.191406 172.675781 L 10.121094 172.652344 L 10.082031 172.640625 L 10.039062 172.625 L 10 172.609375 L 9.957031 172.59375 L 9.914062 172.582031 L 9.785156 172.535156 L 9.738281 172.515625 L 9.644531 172.484375 L 9.597656 172.464844 L 9.550781 172.449219 L 9.503906 172.429688 L 9.457031 172.414062 L 9.410156 172.394531 L 9.359375 172.378906 L 9.3125 172.359375 L 9.265625 172.34375 L 9.21875 172.324219 L 9.167969 172.308594 L 9.125 172.292969 L 9.078125 172.273438 L 9.035156 172.257812 L 8.992188 172.246094 L 8.914062 172.214844 L 8.835938 172.191406 L 8.800781 172.179688 L 5.179688 170.9375 L 5.179688 169.824219 Z M 11.519531 172.261719 "/>
<path fill="none" stroke-width="0.75" stroke-linecap="round" stroke-linejoin="round" stroke="rgb(0%, 0%, 0%)" stroke-opacity="1" stroke-miterlimit="10" d="M 317.367188 279.464844 C 317.367188 283.066406 311.964844 283.066406 311.964844 279.464844 C 311.964844 275.867188 317.367188 275.867188 317.367188 279.464844 "/>
<path fill="none" stroke-width="0.75" stroke-linecap="round" stroke-linejoin="round" stroke="rgb(0%, 0%, 0%)" stroke-opacity="1" stroke-miterlimit="10" d="M 331.441406 255.761719 C 331.441406 259.363281 326.039062 259.363281 326.039062 255.761719 C 326.039062 252.164062 331.441406 252.164062 331.441406 255.761719 "/>
<path fill="none" stroke-width="0.75" stroke-linecap="round" stroke-linejoin="round" stroke="rgb(0%, 0%, 0%)" stroke-opacity="1" stroke-miterlimit="10" d="M 345.515625 232.058594 C 345.515625 235.660156 340.113281 235.660156 340.113281 232.058594 C 340.113281 228.460938 345.515625 228.460938 345.515625 232.058594 "/>
<path fill="none" stroke-width="0.75" stroke-linecap="round" stroke-linejoin="round" stroke="rgb(0%, 0%, 0%)" stroke-opacity="1" stroke-miterlimit="10" d="M 359.589844 208.355469 C 359.589844 211.957031 354.1875 211.957031 354.1875 208.355469 C 354.1875 204.753906 359.589844 204.753906 359.589844 208.355469 "/>
<path fill="none" stroke-width="0.75" stroke-linecap="round" stroke-linejoin="round" stroke="rgb(0%, 0%, 0%)" stroke-opacity="1" stroke-miterlimit="10" d="M 373.664062 184.652344 C 373.664062 188.25 368.261719 188.25 368.261719 184.652344 C 368.261719 181.050781 373.664062 181.050781 373.664062 184.652344 "/>
<path fill="none" stroke-width="0.75" stroke-linecap="round" stroke-linejoin="round" stroke="rgb(0%, 0%, 0%)" stroke-opacity="1" stroke-miterlimit="10" d="M 387.738281 160.949219 C 387.738281 164.546875 382.335938 164.546875 382.335938 160.949219 C 382.335938 157.347656 387.738281 157.347656 387.738281 160.949219 "/>
<path fill="none" stroke-width="0.75" stroke-linecap="round" stroke-linejoin="round" stroke="rgb(0%, 0%, 0%)" stroke-opacity="1" stroke-miterlimit="10" d="M 401.8125 137.246094 C 401.8125 140.84375 396.410156 140.84375 396.410156 137.246094 C 396.410156 133.644531 401.8125 133.644531 401.8125 137.246094 "/>
<path fill="none" stroke-width="0.75" stroke-linecap="round" stroke-linejoin="round" stroke="rgb(0%, 0%, 0%)" stroke-opacity="1" stroke-miterlimit="10" d="M 415.886719 113.539062 C 415.886719 117.140625 410.484375 117.140625 410.484375 113.539062 C 410.484375 109.941406 415.886719 109.941406 415.886719 113.539062 "/>
<path fill="none" stroke-width="0.75" stroke-linecap="round" stroke-linejoin="round" stroke="rgb(0%, 0%, 0%)" stroke-opacity="1" stroke-miterlimit="10" d="M 429.960938 89.835938 C 429.960938 93.4375 424.558594 93.4375 424.558594 89.835938 C 424.558594 86.238281 429.960938 86.238281 429.960938 89.835938 "/>
<path fill="none" stroke-width="0.75" stroke-linecap="round" stroke-linejoin="round" stroke="rgb(0%, 0%, 0%)" stroke-opacity="1" stroke-miterlimit="10" d="M 444.035156 66.132812 C 444.035156 69.734375 438.632812 69.734375 438.632812 66.132812 C 438.632812 62.535156 444.035156 62.535156 444.035156 66.132812 "/>
<path fill-rule="nonzero" fill="rgb(0%, 0%, 0%)" fill-opacity="1" d="M 379.695312 342.71875 L 377.988281 340.117188 L 376.273438 342.71875 L 375.132812 342.71875 L 377.390625 339.460938 L 375.242188 336.378906 L 376.40625 336.378906 L 377.988281 338.847656 L 379.558594 336.378906 L 380.734375 336.378906 L 378.585938 339.449219 L 380.871094 342.71875 Z M 379.695312 342.71875 "/>
<path fill-rule="nonzero" fill="rgb(0%, 0%, 0%)" fill-opacity="1" d="M 263.519531 172.261719 L 263.632812 172.304688 L 263.746094 172.351562 L 263.855469 172.394531 L 264.066406 172.488281 L 264.167969 172.53125 L 264.363281 172.625 L 264.550781 172.71875 L 264.730469 172.8125 L 264.816406 172.859375 L 264.980469 172.960938 L 265.054688 173.011719 L 265.203125 173.121094 L 265.269531 173.175781 L 265.402344 173.292969 L 265.519531 173.410156 L 265.574219 173.472656 L 265.625 173.535156 L 265.71875 173.667969 L 265.761719 173.734375 L 265.800781 173.800781 L 265.835938 173.871094 L 265.867188 173.945312 L 265.898438 174.015625 L 265.925781 174.09375 L 265.964844 174.25 L 265.980469 174.332031 L 265.996094 174.417969 L 266.003906 174.503906 L 266.007812 174.589844 L 266.011719 174.679688 L 266.011719 174.71875 L 266.007812 174.757812 L 266.007812 174.910156 L 266.003906 174.945312 L 266.003906 174.980469 L 266 175.015625 L 266 175.050781 L 265.996094 175.085938 L 265.992188 175.117188 L 265.980469 175.222656 L 265.972656 175.261719 L 265.96875 175.296875 L 265.960938 175.332031 L 265.953125 175.371094 L 265.945312 175.40625 L 265.15625 175.40625 L 265.15625 175.386719 L 265.164062 175.339844 L 265.167969 175.3125 L 265.167969 175.289062 L 265.171875 175.261719 L 265.171875 175.238281 L 265.175781 175.210938 L 265.175781 175.183594 L 265.179688 175.15625 L 265.179688 175.128906 L 265.183594 175.101562 L 265.183594 175.074219 L 265.1875 175.050781 L 265.1875 174.957031 L 265.191406 174.9375 L 265.191406 174.914062 L 265.1875 174.824219 L 265.175781 174.734375 L 265.160156 174.644531 L 265.132812 174.554688 L 265.101562 174.46875 L 265.066406 174.382812 L 265.019531 174.296875 L 264.96875 174.214844 L 264.910156 174.132812 L 264.84375 174.054688 L 264.769531 173.976562 L 264.691406 173.898438 L 264.601562 173.824219 L 264.503906 173.75 L 264.394531 173.679688 L 264.28125 173.613281 L 264.160156 173.542969 L 264.027344 173.480469 L 263.890625 173.417969 L 263.742188 173.355469 L 263.492188 173.257812 L 257.179688 175.769531 L 257.179688 174.644531 L 260.683594 173.308594 L 260.714844 173.296875 L 260.75 173.285156 L 260.789062 173.273438 L 260.867188 173.242188 L 260.910156 173.230469 L 260.957031 173.214844 L 261.003906 173.195312 L 261.105469 173.164062 L 261.160156 173.144531 L 261.210938 173.125 L 261.265625 173.109375 L 261.316406 173.089844 L 261.371094 173.070312 L 261.421875 173.054688 L 261.476562 173.035156 L 261.527344 173.015625 L 261.582031 173 L 261.632812 172.980469 L 261.683594 172.964844 L 261.738281 172.945312 L 261.785156 172.925781 L 261.835938 172.910156 L 261.976562 172.863281 L 262.019531 172.847656 L 262.066406 172.832031 L 262.109375 172.816406 L 262.1875 172.792969 L 262.25 172.769531 L 262.304688 172.753906 L 262.324219 172.746094 L 262.34375 172.742188 L 262.359375 172.738281 L 262.371094 172.734375 L 262.359375 172.730469 L 262.320312 172.722656 L 262.300781 172.714844 L 262.277344 172.707031 L 262.25 172.699219 L 262.222656 172.6875 L 262.191406 172.675781 L 262.121094 172.652344 L 262.082031 172.640625 L 262.039062 172.625 L 262 172.609375 L 261.957031 172.59375 L 261.914062 172.582031 L 261.785156 172.535156 L 261.738281 172.515625 L 261.644531 172.484375 L 261.597656 172.464844 L 261.550781 172.449219 L 261.503906 172.429688 L 261.457031 172.414062 L 261.410156 172.394531 L 261.359375 172.378906 L 261.3125 172.359375 L 261.265625 172.34375 L 261.21875 172.324219 L 261.167969 172.308594 L 261.125 172.292969 L 261.078125 172.273438 L 261.035156 172.257812 L 260.992188 172.246094 L 260.914062 172.214844 L 260.835938 172.191406 L 260.800781 172.179688 L 257.179688 170.9375 L 257.179688 169.824219 Z M 263.519531 172.261719 "/>
</svg>
