<?xml version="1.0" encoding="UTF-8"?>
<svg xmlns="http://www.w3.org/2000/svg" xmlns:xlink="http://www.w3.org/1999/xlink" width="504" height="360" viewBox="0 0 504 360">
<rect x="-50.4" y="-36" width="604.8" height="432" fill="rgb(100%, 100%, 100%)" fill-opacity="1"/>
<path fill-rule="nonzero" fill="rgb(0%, 0%, 0%)" fill-opacity="1" stroke-width="0.75" stroke-linecap="round" stroke-linejoin="round" stroke="rgb(0%, 0%, 0%)" stroke-opacity="1" stroke-miterlimit="10" d="M 74.398438 284.308594 L 95.972656 284.308594 L 95.972656 59.042969 L 74.398438 59.042969 Z M 74.398438 284.308594 "/>
<path fill-rule="nonzero" fill="rgb(6.666667%, 6.666667%, 6.666667%)" fill-opacity="1" stroke-width="0.75" stroke-linecap="round" stroke-linejoin="round" stroke="rgb(0%, 0%, 0%)" stroke-opacity="1" stroke-miterlimit="10" d="M 100.289062 284.308594 L 121.863281 284.308594 L 121.863281 59.042969 L 100.289062 59.042969 Z M 100.289062 284.308594 "/>
<path fill-rule="nonzero" fill="rgb(13.333333%, 13.333333%, 13.333333%)" fill-opacity="1" stroke-width="0.75" stroke-linecap="round" stroke-linejoin="round" stroke="rgb(0%, 0%, 0%)" stroke-opacity="1" stroke-miterlimit="10" d="M 126.175781 284.308594 L 147.75 284.308594 L 147.75 59.042969 L 126.175781 59.042969 Z M 126.175781 284.308594 "/>
<path fill-rule="nonzero" fill="rgb(20%, 20%, 20%)" fill-opacity="1" stroke-width="0.75" stroke-linecap="round" stroke-linejoin="round" stroke="rgb(0%, 0%, 0%)" stroke-opacity="1" stroke-miterlimit="10" d="M 152.0625 284.308594 L 173.636719 284.308594 L 173.636719 59.042969 L 152.0625 59.042969 Z M 152.0625 284.308594 "/>
<path fill-rule="nonzero" fill="rgb(26.666667%, 26.666667%, 26.666667%)" fill-opacity="1" stroke-width="0.75" stroke-linecap="round" stroke-linejoin="round" stroke="rgb(0%, 0%, 0%)" stroke-opacity="1" stroke-miterlimit="10" d="M 177.949219 284.308594 L 199.523438 284.308594 L 199.523438 59.042969 L 177.949219 59.042969 Z M 177.949219 284.308594 "/>
<path fill-rule="nonzero" fill="rgb(33.333333%, 33.333333%, 33.333333%)" fill-opacity="1" stroke-width="0.75" stroke-linecap="round" stroke-linejoin="round" stroke="rgb(0%, 0%, 0%)" stroke-opacity="1" stroke-miterlimit="10" d="M 203.839844 284.308594 L 225.414062 284.308594 L 225.414062 59.042969 L 203.839844 59.042969 Z M 203.839844 284.308594 "/>
<path fill-rule="nonzero" fill="rgb(40%, 40%, 40%)" fill-opacity="1" stroke-width="0.75" stroke-linecap="round" stroke-linejoin="round" stroke="rgb(0%, 0%, 0%)" stroke-opacity="1" stroke-miterlimit="10" d="M 229.726562 284.308594 L 251.300781 284.308594 L 251.300781 59.042969 L 229.726562 59.042969 Z M 229.726562 284.308594 "/>
<path fill-rule="nonzero" fill="rgb(46.666667%, 46.666667%, 46.666667%)" fill-opacity="1" stroke-width="0.75" stroke-linecap="round" stroke-linejoin="round" stroke="rgb(0%, 0%, 0%)" stroke-opacity="1" stroke-miterlimit="10" d="M 255.613281 284.308594 L 277.1875 284.308594 L 277.1875 59.042969 L 255.613281 59.042969 Z M 255.613281 284.308594 "/>
<path fill-rule="nonzero" fill="rgb(53.333333%, 53.333333%, 53.333333%)" fill-opacity="1" stroke-width="0.75" stroke-linecap="round" stroke-linejoin="round" stroke="rgb(0%, 0%, 0%)" stroke-opacity="1" stroke-miterlimit="10" d="M 281.5 284.308594 L 303.074219 284.308594 L 303.074219 59.042969 L 281.5 59.042969 Z M 281.5 284.308594 "/>
<path fill-rule="nonzero" fill="rgb(60%, 60%, 60%)" fill-opacity="1" stroke-width="0.75" stroke-linecap="round" stroke-linejoin="round" stroke="rgb(0%, 0%, 0%)" stroke-opacity="1" stroke-miterlimit="10" d="M 307.390625 284.308594 L 328.964844 284.308594 L 328.964844 59.042969 L 307.390625 59.042969 Z M 307.390625 284.308594 "/>
<path fill-rule="nonzero" fill="rgb(66.666667%, 66.666667%, 66.666667%)" fill-opacity="1" stroke-width="0.75" stroke-linecap="round" stroke-linejoin="round" stroke="rgb(0%, 0%, 0%)" stroke-opacity="1" stroke-miterlimit="10" d="M 333.277344 284.308594 L 354.851562 284.308594 L 354.851562 59.042969 L 333.277344 59.042969 Z M 333.277344 284.308594 "/>
<path fill-rule="nonzero" fill="rgb(73.333333%, 73.333333%, 73.333333%)" fill-opacity="1" stroke-width="0.75" stroke-linecap="round" stroke-linejoin="round" stroke="rgb(0%, 0%, 0%)" stroke-opacity="1" stroke-miterlimit="10" d="M 359.164062 284.308594 L 380.738281 284.308594 L 380.738281 59.042969 L 359.164062 59.042969 Z M 359.164062 284.308594 "/>
<path fill-rule="nonzero" fill="rgb(80%, 80%, 80%)" fill-opacity="1" stroke-width="0.75" stroke-linecap="round" stroke-linejoin="round" stroke="rgb(0%, 0%, 0%)" stroke-opacity="1" stroke-miterlimit="10" d="M 385.050781 284.308594 L 406.625 284.308594 L 406.625 59.042969 L 385.050781 59.042969 Z M 385.050781 284.308594 "/>
<path fill-rule="nonzero" fill="rgb(86.666667%, 86.666667%, 86.666667%)" fill-opacity="1" stroke-width="0.75" stroke-linecap="round" stroke-linejoin="round" stroke="rgb(0%, 0%, 0%)" stroke-opacity="1" stroke-miterlimit="10" d="M 410.9375 284.308594 L 432.511719 284.308594 L 432.511719 59.042969 L 410.9375 59.042969 Z M 410.9375 284.308594 "/>
<path fill-rule="nonzero" fill="rgb(93.333333%, 93.333333%, 93.333333%)" fill-opacity="1" stroke-width="0.75" stroke-linecap="round" stroke-linejoin="round" stroke="rgb(0%, 0%, 0%)" stroke-opacity="1" stroke-miterlimit="10" d="M 436.828125 284.308594 L 458.402344 284.308594 L 458.402344 59.042969 L 436.828125 59.042969 Z M 436.828125 284.308594 "/>
<path fill="none" stroke-width="0.75" stroke-linecap="round" stroke-linejoin="round" stroke="rgb(0%, 0%, 0%)" stroke-opacity="1" stroke-miterlimit="10" d="M 59.039062 284.308594 L 59.039062 59.039062 "/>
<path fill="none" stroke-width="0.75" stroke-linecap="round" stroke-linejoin="round" stroke="rgb(0%, 0%, 0%)" stroke-opacity="1" stroke-miterlimit="10" d="M 59.039062 284.308594 L 51.839844 284.308594 "/>
<path fill="none" stroke-width="0.75" stroke-linecap="round" stroke-linejoin="round" stroke="rgb(0%, 0%, 0%)" stroke-opacity="1" stroke-miterlimit="10" d="M 59.039062 239.253906 L 51.839844 239.253906 "/>
<path fill="none" stroke-width="0.75" stroke-linecap="round" stroke-linejoin="round" stroke="rgb(0%, 0%, 0%)" stroke-opacity="1" stroke-miterlimit="10" d="M 59.039062 194.199219 L 51.839844 194.199219 "/>
<path fill="none" stroke-width="0.75" stroke-linecap="round" stroke-linejoin="round" stroke="rgb(0%, 0%, 0%)" stroke-opacity="1" stroke-miterlimit="10" d="M 59.039062 149.148438 L 51.839844 149.148438 "/>
<path fill="none" stroke-width="0.75" stroke-linecap="round" stroke-linejoin="round" stroke="rgb(0%, 0%, 0%)" stroke-opacity="1" stroke-miterlimit="10" d="M 59.039062 104.09375 L 51.839844 104.09375 "/>
<path fill="none" stroke-width="0.75" stroke-linecap="round" stroke-linejoin="round" stroke="rgb(0%, 0%, 0%)" stroke-opacity="1" stroke-miterlimit="10" d="M 59.039062 59.039062 L 51.839844 59.039062 "/>
<path fill-rule="nonzero" fill="rgb(0%, 0%, 0%)" fill-opacity="1" d="M 37.628906 286.441406 L 37.863281 286.445312 L 38.089844 286.453125 L 38.308594 286.464844 L 38.519531 286.480469 L 38.726562 286.5 L 38.921875 286.523438 L 39.109375 286.554688 L 39.292969 286.589844 L 39.464844 286.628906 L 39.632812 286.671875 L 39.792969 286.71875 L 39.945312 286.765625 L 40.089844 286.820312 L 40.230469 286.875 L 40.367188 286.9375 L 40.492188 287 L 40.617188 287.066406 L 40.730469 287.136719 L 40.839844 287.210938 L 40.945312 287.285156 L 41.042969 287.367188 L 41.132812 287.445312 L 41.21875 287.53125 L 41.300781 287.617188 L 41.375 287.707031 L 41.441406 287.800781 L 41.503906 287.898438 L 41.5625 287.996094 L 41.613281 288.097656 L 41.660156 288.199219 L 41.703125 288.308594 L 41.738281 288.414062 L 41.800781 288.632812 L 41.824219 288.746094 L 41.84375 288.859375 L 41.859375 288.972656 L 41.875 289.207031 L 41.878906 289.324219 L 41.875 289.445312 L 41.859375 289.679688 L 41.84375 289.796875 L 41.824219 289.910156 L 41.800781 290.019531 L 41.738281 290.238281 L 41.703125 290.347656 L 41.660156 290.449219 L 41.613281 290.554688 L 41.5625 290.652344 L 41.503906 290.75 L 41.441406 290.847656 L 41.375 290.9375 L 41.300781 291.027344 L 41.21875 291.113281 L 41.132812 291.199219 L 41.042969 291.28125 L 40.945312 291.359375 L 40.84375 291.433594 L 40.734375 291.503906 L 40.617188 291.574219 L 40.496094 291.636719 L 40.371094 291.699219 L 40.097656 291.816406 L 39.949219 291.867188 L 39.796875 291.917969 L 39.640625 291.960938 L 39.472656 292.003906 L 39.296875 292.039062 L 39.117188 292.074219 L 38.925781 292.101562 L 38.730469 292.125 L 38.523438 292.144531 L 38.3125 292.160156 L 38.09375 292.171875 L 37.863281 292.175781 L 37.628906 292.179688 L 37.382812 292.175781 L 37.148438 292.171875 L 36.917969 292.160156 L 36.699219 292.144531 L 36.488281 292.125 L 36.289062 292.101562 L 36.09375 292.074219 L 35.910156 292.039062 L 35.734375 292.003906 L 35.566406 291.960938 L 35.40625 291.917969 L 35.25 291.867188 L 35.105469 291.8125 L 34.964844 291.757812 L 34.828125 291.699219 L 34.703125 291.636719 L 34.582031 291.570312 L 34.46875 291.5 L 34.359375 291.429688 L 34.164062 291.273438 L 34.078125 291.191406 L 33.996094 291.109375 L 33.917969 291.019531 L 33.847656 290.929688 L 33.78125 290.839844 L 33.722656 290.742188 L 33.667969 290.644531 L 33.621094 290.542969 L 33.542969 290.332031 L 33.507812 290.222656 L 33.453125 290.003906 L 33.429688 289.886719 L 33.414062 289.773438 L 33.398438 289.65625 L 33.382812 289.414062 L 33.382812 289.171875 L 33.390625 289.058594 L 33.398438 288.941406 L 33.414062 288.828125 L 33.429688 288.71875 L 33.453125 288.609375 L 33.480469 288.5 L 33.507812 288.394531 L 33.542969 288.289062 L 33.582031 288.183594 L 33.621094 288.082031 L 33.667969 287.980469 L 33.722656 287.882812 L 33.78125 287.789062 L 33.847656 287.695312 L 33.917969 287.605469 L 33.996094 287.519531 L 34.078125 287.433594 L 34.164062 287.355469 L 34.261719 287.273438 L 34.359375 287.199219 L 34.46875 287.128906 L 34.582031 287.058594 L 34.703125 286.992188 L 34.828125 286.929688 L 34.964844 286.871094 L 35.105469 286.8125 L 35.25 286.761719 L 35.40625 286.710938 L 35.566406 286.664062 L 35.734375 286.625 L 35.910156 286.585938 L 36.09375 286.550781 L 36.289062 286.523438 L 36.488281 286.5 L 36.699219 286.480469 L 36.917969 286.464844 L 37.148438 286.453125 L 37.382812 286.445312 Z M 37.628906 287.515625 L 37.4375 287.515625 L 37.25 287.519531 L 37.070312 287.527344 L 36.894531 287.535156 L 36.726562 287.542969 L 36.566406 287.558594 L 36.414062 287.574219 L 36.269531 287.589844 L 36.128906 287.609375 L 35.996094 287.632812 L 35.867188 287.65625 L 35.742188 287.683594 L 35.625 287.710938 L 35.511719 287.742188 L 35.40625 287.777344 L 35.304688 287.8125 L 35.207031 287.851562 L 35.117188 287.890625 L 35.03125 287.933594 L 34.953125 287.976562 L 34.875 288.023438 L 34.804688 288.074219 L 34.738281 288.125 L 34.675781 288.179688 L 34.617188 288.234375 L 34.566406 288.289062 L 34.515625 288.351562 L 34.472656 288.410156 L 34.433594 288.476562 L 34.402344 288.539062 L 34.371094 288.605469 L 34.339844 288.675781 L 34.316406 288.746094 L 34.296875 288.816406 L 34.277344 288.890625 L 34.261719 288.96875 L 34.25 289.046875 L 34.242188 289.125 L 34.238281 289.207031 L 34.238281 289.378906 L 34.242188 289.464844 L 34.25 289.546875 L 34.261719 289.628906 L 34.277344 289.710938 L 34.296875 289.789062 L 34.316406 289.863281 L 34.339844 289.9375 L 34.371094 290.007812 L 34.402344 290.074219 L 34.4375 290.144531 L 34.476562 290.207031 L 34.519531 290.269531 L 34.570312 290.332031 L 34.621094 290.390625 L 34.679688 290.445312 L 34.742188 290.5 L 34.808594 290.550781 L 34.882812 290.601562 L 34.957031 290.648438 L 35.039062 290.695312 L 35.121094 290.738281 L 35.308594 290.816406 L 35.410156 290.851562 L 35.628906 290.914062 L 35.75 290.945312 L 35.871094 290.972656 L 36 290.996094 L 36.132812 291.019531 L 36.273438 291.039062 L 36.421875 291.054688 L 36.574219 291.070312 L 36.734375 291.082031 L 36.898438 291.09375 L 37.070312 291.101562 L 37.25 291.109375 L 37.4375 291.113281 L 37.816406 291.113281 L 37.996094 291.109375 L 38.171875 291.101562 L 38.339844 291.09375 L 38.503906 291.082031 L 38.660156 291.070312 L 38.8125 291.054688 L 38.957031 291.039062 L 39.09375 291.019531 L 39.230469 290.996094 L 39.480469 290.941406 L 39.597656 290.914062 L 39.707031 290.878906 L 39.816406 290.847656 L 39.917969 290.808594 L 40.015625 290.773438 L 40.109375 290.730469 L 40.195312 290.6875 L 40.277344 290.644531 L 40.355469 290.597656 L 40.425781 290.546875 L 40.492188 290.496094 L 40.558594 290.441406 L 40.617188 290.386719 L 40.671875 290.328125 L 40.722656 290.265625 L 40.765625 290.207031 L 40.808594 290.140625 L 40.847656 290.074219 L 40.878906 290.007812 L 40.933594 289.867188 L 40.972656 289.71875 L 40.988281 289.640625 L 41 289.5625 L 41.015625 289.398438 L 41.015625 289.230469 L 41.007812 289.152344 L 41 289.070312 L 40.988281 288.996094 L 40.972656 288.917969 L 40.953125 288.84375 L 40.933594 288.773438 L 40.90625 288.699219 L 40.878906 288.632812 L 40.847656 288.5625 L 40.808594 288.5 L 40.765625 288.433594 L 40.722656 288.375 L 40.671875 288.3125 L 40.617188 288.257812 L 40.558594 288.203125 L 40.492188 288.148438 L 40.425781 288.097656 L 40.355469 288.046875 L 40.277344 288 L 40.195312 287.957031 L 40.109375 287.914062 L 40.015625 287.871094 L 39.917969 287.832031 L 39.816406 287.796875 L 39.597656 287.726562 L 39.480469 287.699219 L 39.230469 287.644531 L 38.957031 287.597656 L 38.8125 287.578125 L 38.660156 287.5625 L 38.503906 287.546875 L 38.339844 287.535156 L 38.171875 287.527344 L 37.996094 287.519531 L 37.816406 287.515625 Z M 37.628906 287.515625 "/>
<path fill-rule="nonzero" fill="rgb(0%, 0%, 0%)" fill-opacity="1" d="M 41.761719 284.878906 L 40.476562 284.878906 L 40.476562 283.734375 L 41.761719 283.734375 Z M 41.761719 284.878906 "/>
<path fill-rule="nonzero" fill="rgb(0%, 0%, 0%)" fill-opacity="1" d="M 37.628906 276.433594 L 37.863281 276.4375 L 38.089844 276.445312 L 38.308594 276.457031 L 38.519531 276.472656 L 38.726562 276.492188 L 38.921875 276.515625 L 39.109375 276.546875 L 39.292969 276.582031 L 39.464844 276.621094 L 39.632812 276.664062 L 39.792969 276.710938 L 39.945312 276.757812 L 40.089844 276.8125 L 40.230469 276.867188 L 40.367188 276.929688 L 40.492188 276.992188 L 40.617188 277.058594 L 40.730469 277.128906 L 40.839844 277.203125 L 40.945312 277.277344 L 41.042969 277.359375 L 41.132812 277.4375 L 41.21875 277.523438 L 41.300781 277.609375 L 41.375 277.699219 L 41.441406 277.792969 L 41.503906 277.890625 L 41.5625 277.988281 L 41.613281 278.089844 L 41.660156 278.191406 L 41.703125 278.300781 L 41.738281 278.40625 L 41.800781 278.625 L 41.824219 278.738281 L 41.84375 278.851562 L 41.859375 278.964844 L 41.875 279.199219 L 41.878906 279.316406 L 41.875 279.4375 L 41.859375 279.671875 L 41.84375 279.789062 L 41.824219 279.902344 L 41.800781 280.011719 L 41.738281 280.230469 L 41.703125 280.339844 L 41.660156 280.441406 L 41.613281 280.546875 L 41.5625 280.644531 L 41.503906 280.742188 L 41.441406 280.839844 L 41.375 280.929688 L 41.300781 281.019531 L 41.21875 281.105469 L 41.132812 281.191406 L 41.042969 281.273438 L 40.945312 281.351562 L 40.84375 281.425781 L 40.734375 281.496094 L 40.617188 281.566406 L 40.496094 281.628906 L 40.371094 281.691406 L 40.097656 281.808594 L 39.949219 281.859375 L 39.796875 281.910156 L 39.640625 281.953125 L 39.472656 281.996094 L 39.296875 282.03125 L 39.117188 282.066406 L 38.925781 282.09375 L 38.730469 282.117188 L 38.523438 282.136719 L 38.3125 282.152344 L 38.09375 282.164062 L 37.863281 282.167969 L 37.628906 282.171875 L 37.382812 282.167969 L 37.148438 282.164062 L 36.917969 282.152344 L 36.699219 282.136719 L 36.488281 282.117188 L 36.289062 282.09375 L 36.09375 282.066406 L 35.910156 282.03125 L 35.734375 281.996094 L 35.566406 281.953125 L 35.40625 281.910156 L 35.25 281.859375 L 35.105469 281.804688 L 34.964844 281.75 L 34.828125 281.691406 L 34.703125 281.628906 L 34.582031 281.5625 L 34.46875 281.492188 L 34.359375 281.421875 L 34.164062 281.265625 L 34.078125 281.183594 L 33.996094 281.101562 L 33.917969 281.011719 L 33.847656 280.921875 L 33.78125 280.832031 L 33.722656 280.734375 L 33.667969 280.636719 L 33.621094 280.535156 L 33.542969 280.324219 L 33.507812 280.214844 L 33.453125 279.996094 L 33.429688 279.878906 L 33.414062 279.765625 L 33.398438 279.648438 L 33.382812 279.40625 L 33.382812 279.164062 L 33.390625 279.050781 L 33.398438 278.933594 L 33.414062 278.820312 L 33.429688 278.710938 L 33.453125 278.601562 L 33.480469 278.492188 L 33.507812 278.386719 L 33.542969 278.28125 L 33.582031 278.175781 L 33.621094 278.074219 L 33.667969 277.972656 L 33.722656 277.875 L 33.78125 277.78125 L 33.847656 277.6875 L 33.917969 277.597656 L 33.996094 277.511719 L 34.078125 277.425781 L 34.164062 277.347656 L 34.261719 277.265625 L 34.359375 277.191406 L 34.46875 277.121094 L 34.582031 277.050781 L 34.703125 276.984375 L 34.828125 276.921875 L 34.964844 276.863281 L 35.105469 276.804688 L 35.25 276.753906 L 35.40625 276.703125 L 35.566406 276.65625 L 35.734375 276.617188 L 35.910156 276.578125 L 36.09375 276.542969 L 36.289062 276.515625 L 36.488281 276.492188 L 36.699219 276.472656 L 36.917969 276.457031 L 37.148438 276.445312 L 37.382812 276.4375 Z M 37.628906 277.507812 L 37.4375 277.507812 L 37.25 277.511719 L 37.070312 277.519531 L 36.894531 277.527344 L 36.726562 277.535156 L 36.566406 277.550781 L 36.414062 277.566406 L 36.269531 277.582031 L 36.128906 277.601562 L 35.996094 277.625 L 35.867188 277.648438 L 35.742188 277.675781 L 35.625 277.703125 L 35.511719 277.734375 L 35.40625 277.769531 L 35.304688 277.804688 L 35.207031 277.84375 L 35.117188 277.882812 L 35.03125 277.925781 L 34.953125 277.96875 L 34.875 278.015625 L 34.804688 278.066406 L 34.738281 278.117188 L 34.675781 278.171875 L 34.617188 278.226562 L 34.566406 278.28125 L 34.515625 278.34375 L 34.472656 278.402344 L 34.433594 278.46875 L 34.402344 278.53125 L 34.371094 278.597656 L 34.339844 278.667969 L 34.316406 278.738281 L 34.296875 278.808594 L 34.277344 278.882812 L 34.261719 278.960938 L 34.25 279.039062 L 34.242188 279.117188 L 34.238281 279.199219 L 34.238281 279.371094 L 34.242188 279.457031 L 34.25 279.539062 L 34.261719 279.621094 L 34.277344 279.703125 L 34.296875 279.78125 L 34.316406 279.855469 L 34.339844 279.929688 L 34.371094 280 L 34.402344 280.066406 L 34.4375 280.136719 L 34.476562 280.199219 L 34.519531 280.261719 L 34.570312 280.324219 L 34.621094 280.382812 L 34.679688 280.4375 L 34.742188 280.492188 L 34.808594 280.542969 L 34.882812 280.59375 L 34.957031 280.640625 L 35.039062 280.6875 L 35.121094 280.730469 L 35.308594 280.808594 L 35.410156 280.84375 L 35.628906 280.90625 L 35.75 280.9375 L 35.871094 280.964844 L 36 280.988281 L 36.132812 281.011719 L 36.273438 281.03125 L 36.421875 281.046875 L 36.574219 281.0625 L 36.734375 281.074219 L 36.898438 281.085938 L 37.070312 281.09375 L 37.25 281.101562 L 37.4375 281.105469 L 37.816406 281.105469 L 37.996094 281.101562 L 38.171875 281.09375 L 38.339844 281.085938 L 38.503906 281.074219 L 38.660156 281.0625 L 38.8125 281.046875 L 38.957031 281.03125 L 39.09375 281.011719 L 39.230469 280.988281 L 39.480469 280.933594 L 39.597656 280.90625 L 39.707031 280.871094 L 39.816406 280.839844 L 39.917969 280.800781 L 40.015625 280.765625 L 40.109375 280.722656 L 40.195312 280.679688 L 40.277344 280.636719 L 40.355469 280.589844 L 40.425781 280.539062 L 40.492188 280.488281 L 40.558594 280.433594 L 40.617188 280.378906 L 40.671875 280.320312 L 40.722656 280.257812 L 40.765625 280.199219 L 40.808594 280.132812 L 40.847656 280.066406 L 40.878906 280 L 40.933594 279.859375 L 40.972656 279.710938 L 40.988281 279.632812 L 41 279.554688 L 41.015625 279.390625 L 41.015625 279.222656 L 41.007812 279.144531 L 41 279.0625 L 40.988281 278.988281 L 40.972656 278.910156 L 40.953125 278.835938 L 40.933594 278.765625 L 40.90625 278.691406 L 40.878906 278.625 L 40.847656 278.554688 L 40.808594 278.492188 L 40.765625 278.425781 L 40.722656 278.367188 L 40.671875 278.304688 L 40.617188 278.25 L 40.558594 278.195312 L 40.492188 278.140625 L 40.425781 278.089844 L 40.355469 278.039062 L 40.277344 277.992188 L 40.195312 277.949219 L 40.109375 277.90625 L 40.015625 277.863281 L 39.917969 277.824219 L 39.816406 277.789062 L 39.597656 277.71875 L 39.480469 277.691406 L 39.230469 277.636719 L 38.957031 277.589844 L 38.8125 277.570312 L 38.660156 277.554688 L 38.503906 277.539062 L 38.339844 277.527344 L 38.171875 277.519531 L 37.996094 277.511719 L 37.816406 277.507812 Z M 37.628906 277.507812 "/>
<path fill-rule="nonzero" fill="rgb(0%, 0%, 0%)" fill-opacity="1" d="M 37.628906 241.390625 L 37.863281 241.390625 L 38.089844 241.398438 L 38.308594 241.410156 L 38.519531 241.425781 L 38.726562 241.445312 L 38.921875 241.472656 L 39.109375 241.5 L 39.292969 241.535156 L 39.464844 241.574219 L 39.632812 241.617188 L 39.792969 241.664062 L 39.945312 241.714844 L 40.089844 241.765625 L 40.230469 241.824219 L 40.367188 241.882812 L 40.492188 241.945312 L 40.617188 242.011719 L 40.730469 242.082031 L 40.839844 242.15625 L 40.945312 242.234375 L 41.042969 242.3125 L 41.132812 242.394531 L 41.21875 242.476562 L 41.300781 242.566406 L 41.375 242.65625 L 41.441406 242.746094 L 41.503906 242.84375 L 41.5625 242.941406 L 41.613281 243.042969 L 41.660156 243.148438 L 41.703125 243.253906 L 41.738281 243.359375 L 41.769531 243.46875 L 41.800781 243.582031 L 41.824219 243.691406 L 41.84375 243.804688 L 41.859375 243.921875 L 41.867188 244.035156 L 41.875 244.152344 L 41.878906 244.273438 L 41.875 244.390625 L 41.867188 244.511719 L 41.859375 244.628906 L 41.84375 244.742188 L 41.824219 244.855469 L 41.800781 244.96875 L 41.769531 245.078125 L 41.738281 245.183594 L 41.703125 245.292969 L 41.660156 245.398438 L 41.613281 245.5 L 41.5625 245.601562 L 41.503906 245.699219 L 41.441406 245.792969 L 41.375 245.886719 L 41.300781 245.976562 L 41.21875 246.0625 L 41.132812 246.144531 L 41.042969 246.226562 L 40.945312 246.304688 L 40.84375 246.378906 L 40.734375 246.453125 L 40.617188 246.519531 L 40.496094 246.585938 L 40.371094 246.648438 L 40.234375 246.707031 L 40.097656 246.761719 L 39.949219 246.8125 L 39.796875 246.863281 L 39.640625 246.910156 L 39.472656 246.949219 L 39.296875 246.988281 L 39.117188 247.019531 L 38.925781 247.046875 L 38.730469 247.070312 L 38.523438 247.089844 L 38.3125 247.105469 L 38.09375 247.117188 L 37.863281 247.125 L 37.382812 247.125 L 37.148438 247.117188 L 36.917969 247.105469 L 36.699219 247.089844 L 36.488281 247.070312 L 36.289062 247.046875 L 36.09375 247.019531 L 35.910156 246.988281 L 35.734375 246.949219 L 35.566406 246.910156 L 35.40625 246.863281 L 35.25 246.8125 L 35.105469 246.761719 L 34.964844 246.703125 L 34.828125 246.644531 L 34.703125 246.582031 L 34.582031 246.515625 L 34.46875 246.449219 L 34.359375 246.375 L 34.261719 246.300781 L 34.164062 246.222656 L 34.078125 246.140625 L 33.996094 246.054688 L 33.917969 245.96875 L 33.847656 245.878906 L 33.78125 245.785156 L 33.722656 245.6875 L 33.667969 245.589844 L 33.621094 245.488281 L 33.582031 245.386719 L 33.542969 245.277344 L 33.507812 245.171875 L 33.480469 245.0625 L 33.453125 244.949219 L 33.429688 244.835938 L 33.398438 244.601562 L 33.382812 244.359375 L 33.382812 244.121094 L 33.390625 244.003906 L 33.398438 243.890625 L 33.429688 243.664062 L 33.453125 243.554688 L 33.480469 243.445312 L 33.507812 243.339844 L 33.542969 243.234375 L 33.582031 243.128906 L 33.621094 243.027344 L 33.667969 242.925781 L 33.722656 242.828125 L 33.78125 242.734375 L 33.847656 242.640625 L 33.917969 242.550781 L 33.996094 242.464844 L 34.078125 242.382812 L 34.164062 242.300781 L 34.359375 242.144531 L 34.46875 242.074219 L 34.582031 242.003906 L 34.703125 241.9375 L 34.828125 241.875 L 34.964844 241.816406 L 35.105469 241.761719 L 35.25 241.707031 L 35.40625 241.660156 L 35.566406 241.613281 L 35.734375 241.570312 L 35.910156 241.53125 L 36.09375 241.5 L 36.289062 241.46875 L 36.488281 241.445312 L 36.699219 241.425781 L 36.917969 241.410156 L 37.148438 241.398438 L 37.382812 241.390625 Z M 37.628906 242.460938 L 37.4375 242.464844 L 37.25 242.464844 L 37.070312 242.472656 L 36.894531 242.480469 L 36.726562 242.492188 L 36.566406 242.503906 L 36.414062 242.519531 L 36.269531 242.535156 L 36.128906 242.558594 L 35.996094 242.578125 L 35.867188 242.605469 L 35.742188 242.628906 L 35.625 242.660156 L 35.511719 242.691406 L 35.40625 242.722656 L 35.304688 242.757812 L 35.207031 242.796875 L 35.117188 242.835938 L 35.03125 242.878906 L 34.875 242.972656 L 34.804688 243.019531 L 34.738281 243.070312 L 34.675781 243.125 L 34.617188 243.179688 L 34.515625 243.296875 L 34.472656 243.359375 L 34.433594 243.421875 L 34.339844 243.621094 L 34.316406 243.691406 L 34.277344 243.839844 L 34.261719 243.914062 L 34.25 243.992188 L 34.242188 244.070312 L 34.238281 244.152344 L 34.238281 244.324219 L 34.242188 244.410156 L 34.25 244.496094 L 34.261719 244.578125 L 34.277344 244.65625 L 34.296875 244.734375 L 34.316406 244.808594 L 34.339844 244.882812 L 34.402344 245.023438 L 34.4375 245.089844 L 34.476562 245.152344 L 34.519531 245.21875 L 34.621094 245.335938 L 34.679688 245.390625 L 34.742188 245.445312 L 34.808594 245.5 L 34.882812 245.546875 L 34.957031 245.597656 L 35.121094 245.683594 L 35.308594 245.761719 L 35.410156 245.796875 L 35.519531 245.832031 L 35.628906 245.863281 L 35.871094 245.917969 L 36 245.941406 L 36.132812 245.964844 L 36.273438 245.984375 L 36.421875 246.003906 L 36.574219 246.015625 L 36.734375 246.03125 L 36.898438 246.039062 L 37.070312 246.050781 L 37.25 246.054688 L 37.4375 246.058594 L 37.816406 246.058594 L 37.996094 246.054688 L 38.171875 246.050781 L 38.339844 246.039062 L 38.503906 246.03125 L 38.660156 246.015625 L 38.8125 246.003906 L 38.957031 245.984375 L 39.09375 245.964844 L 39.230469 245.941406 L 39.355469 245.917969 L 39.480469 245.890625 L 39.597656 245.859375 L 39.707031 245.828125 L 39.816406 245.792969 L 39.917969 245.757812 L 40.015625 245.71875 L 40.109375 245.679688 L 40.195312 245.636719 L 40.277344 245.589844 L 40.355469 245.542969 L 40.425781 245.492188 L 40.492188 245.441406 L 40.558594 245.386719 L 40.617188 245.332031 L 40.671875 245.273438 L 40.722656 245.214844 L 40.808594 245.089844 L 40.847656 245.023438 L 40.878906 244.953125 L 40.90625 244.886719 L 40.933594 244.8125 L 40.972656 244.664062 L 40.988281 244.585938 L 41 244.507812 L 41.007812 244.429688 L 41.015625 244.34375 L 41.015625 244.179688 L 41.007812 244.097656 L 41 244.019531 L 40.988281 243.941406 L 40.972656 243.863281 L 40.953125 243.789062 L 40.933594 243.71875 L 40.878906 243.578125 L 40.847656 243.511719 L 40.808594 243.445312 L 40.722656 243.320312 L 40.671875 243.261719 L 40.617188 243.203125 L 40.558594 243.148438 L 40.492188 243.09375 L 40.425781 243.042969 L 40.355469 242.996094 L 40.277344 242.949219 L 40.195312 242.902344 L 40.109375 242.859375 L 40.015625 242.816406 L 39.917969 242.777344 L 39.816406 242.742188 L 39.707031 242.707031 L 39.597656 242.675781 L 39.480469 242.644531 L 39.230469 242.589844 L 38.957031 242.542969 L 38.8125 242.523438 L 38.660156 242.507812 L 38.503906 242.492188 L 38.339844 242.484375 L 38.171875 242.472656 L 37.996094 242.46875 L 37.816406 242.464844 Z M 37.628906 242.460938 "/>
<path fill-rule="nonzero" fill="rgb(0%, 0%, 0%)" fill-opacity="1" d="M 41.761719 239.824219 L 40.476562 239.824219 L 40.476562 238.683594 L 41.761719 238.683594 Z M 41.761719 239.824219 "/>
<path fill-rule="nonzero" fill="rgb(0%, 0%, 0%)" fill-opacity="1" d="M 41.761719 236.984375 L 41.015625 236.984375 L 40.878906 236.921875 L 40.75 236.859375 L 40.621094 236.792969 L 40.492188 236.722656 L 40.371094 236.652344 L 40.253906 236.578125 L 40.136719 236.5 L 40.023438 236.421875 L 39.914062 236.339844 L 39.808594 236.257812 L 39.703125 236.167969 L 39.601562 236.082031 L 39.5 235.992188 L 39.402344 235.902344 L 39.214844 235.722656 L 39.121094 235.628906 L 39.03125 235.535156 L 38.773438 235.253906 L 38.527344 234.972656 L 38.449219 234.875 L 38.371094 234.785156 L 38.214844 234.597656 L 38.140625 234.503906 L 38.070312 234.410156 L 37.996094 234.316406 L 37.921875 234.226562 L 37.851562 234.136719 L 37.777344 234.050781 L 37.707031 233.964844 L 37.558594 233.800781 L 37.488281 233.722656 L 37.414062 233.644531 L 37.34375 233.566406 L 37.269531 233.492188 L 37.195312 233.421875 L 37.046875 233.289062 L 36.96875 233.230469 L 36.894531 233.171875 L 36.816406 233.113281 L 36.660156 233.011719 L 36.582031 232.964844 L 36.5 232.917969 L 36.417969 232.878906 L 36.332031 232.84375 L 36.246094 232.8125 L 36.15625 232.789062 L 36.0625 232.765625 L 35.972656 232.75 L 35.875 232.738281 L 35.777344 232.730469 L 35.609375 232.730469 L 35.539062 232.734375 L 35.476562 232.738281 L 35.410156 232.746094 L 35.347656 232.753906 L 35.289062 232.765625 L 35.171875 232.796875 L 35.007812 232.855469 L 34.957031 232.878906 L 34.910156 232.90625 L 34.859375 232.933594 L 34.816406 232.964844 L 34.769531 232.996094 L 34.726562 233.027344 L 34.6875 233.0625 L 34.648438 233.101562 L 34.613281 233.140625 L 34.574219 233.179688 L 34.511719 233.265625 L 34.480469 233.3125 L 34.425781 233.40625 L 34.402344 233.457031 L 34.382812 233.511719 L 34.359375 233.566406 L 34.34375 233.621094 L 34.324219 233.675781 L 34.292969 233.792969 L 34.28125 233.851562 L 34.273438 233.910156 L 34.261719 233.972656 L 34.257812 234.039062 L 34.253906 234.101562 L 34.25 234.167969 L 34.25 234.359375 L 34.257812 234.421875 L 34.261719 234.484375 L 34.269531 234.542969 L 34.304688 234.71875 L 34.320312 234.777344 L 34.335938 234.832031 L 34.375 234.941406 L 34.445312 235.09375 L 34.472656 235.140625 L 34.503906 235.191406 L 34.53125 235.234375 L 34.566406 235.28125 L 34.671875 235.410156 L 34.714844 235.449219 L 34.753906 235.488281 L 34.796875 235.523438 L 34.84375 235.558594 L 34.890625 235.589844 L 34.9375 235.625 L 34.988281 235.652344 L 35.039062 235.683594 L 35.089844 235.707031 L 35.144531 235.734375 L 35.203125 235.753906 L 35.257812 235.773438 L 35.320312 235.792969 L 35.378906 235.808594 L 35.441406 235.824219 L 35.507812 235.839844 L 35.574219 235.847656 L 35.644531 235.859375 L 35.542969 236.9375 L 35.453125 236.925781 L 35.367188 236.910156 L 35.195312 236.871094 L 35.109375 236.847656 L 35.027344 236.824219 L 34.863281 236.761719 L 34.707031 236.691406 L 34.550781 236.605469 L 34.480469 236.5625 L 34.40625 236.511719 L 34.335938 236.460938 L 34.269531 236.40625 L 34.203125 236.347656 L 34.140625 236.289062 L 34.078125 236.222656 L 34.019531 236.15625 L 33.960938 236.085938 L 33.90625 236.015625 L 33.851562 235.941406 L 33.800781 235.863281 L 33.753906 235.785156 L 33.707031 235.699219 L 33.664062 235.617188 L 33.585938 235.4375 L 33.550781 235.34375 L 33.519531 235.246094 L 33.488281 235.144531 L 33.464844 235.042969 L 33.441406 234.933594 L 33.421875 234.824219 L 33.410156 234.714844 L 33.394531 234.597656 L 33.386719 234.480469 L 33.382812 234.359375 L 33.382812 234.113281 L 33.386719 233.996094 L 33.394531 233.878906 L 33.417969 233.652344 L 33.433594 233.546875 L 33.453125 233.441406 L 33.476562 233.335938 L 33.5 233.238281 L 33.527344 233.140625 L 33.589844 232.953125 L 33.628906 232.863281 L 33.667969 232.78125 L 33.710938 232.695312 L 33.753906 232.617188 L 33.800781 232.542969 L 33.851562 232.46875 L 33.90625 232.398438 L 33.960938 232.332031 L 34.019531 232.265625 L 34.082031 232.203125 L 34.144531 232.144531 L 34.210938 232.089844 L 34.28125 232.035156 L 34.429688 231.941406 L 34.507812 231.898438 L 34.585938 231.859375 L 34.671875 231.820312 L 34.753906 231.789062 L 34.84375 231.757812 L 34.933594 231.730469 L 35.027344 231.707031 L 35.125 231.6875 L 35.222656 231.671875 L 35.324219 231.660156 L 35.425781 231.652344 L 35.644531 231.644531 L 35.808594 231.652344 L 35.890625 231.660156 L 35.96875 231.667969 L 36.046875 231.683594 L 36.128906 231.699219 L 36.207031 231.71875 L 36.28125 231.742188 L 36.359375 231.769531 L 36.433594 231.796875 L 36.582031 231.859375 L 36.65625 231.894531 L 36.726562 231.933594 L 36.800781 231.96875 L 36.941406 232.054688 L 37.082031 232.148438 L 37.148438 232.195312 L 37.214844 232.246094 L 37.285156 232.296875 L 37.484375 232.460938 L 37.546875 232.519531 L 37.613281 232.582031 L 37.675781 232.640625 L 37.804688 232.769531 L 37.992188 232.96875 L 38.054688 233.039062 L 38.117188 233.105469 L 38.242188 233.246094 L 38.304688 233.3125 L 38.363281 233.386719 L 38.425781 233.457031 L 38.484375 233.527344 L 38.546875 233.597656 L 38.605469 233.671875 L 38.664062 233.742188 L 38.726562 233.816406 L 38.785156 233.886719 L 38.84375 233.960938 L 38.902344 234.03125 L 38.964844 234.105469 L 39.023438 234.175781 L 39.082031 234.25 L 39.316406 234.53125 L 39.378906 234.597656 L 39.554688 234.796875 L 39.617188 234.863281 L 39.675781 234.925781 L 39.855469 235.105469 L 39.917969 235.164062 L 39.976562 235.21875 L 40.101562 235.328125 L 40.226562 235.429688 L 40.285156 235.480469 L 40.347656 235.527344 L 40.535156 235.65625 L 40.601562 235.691406 L 40.664062 235.730469 L 40.863281 235.824219 L 40.863281 231.515625 L 41.761719 231.515625 Z M 41.761719 236.984375 "/>
<path fill-rule="nonzero" fill="rgb(0%, 0%, 0%)" fill-opacity="1" d="M 37.628906 196.335938 L 37.863281 196.339844 L 38.089844 196.34375 L 38.308594 196.355469 L 38.519531 196.371094 L 38.726562 196.394531 L 38.921875 196.417969 L 39.109375 196.449219 L 39.292969 196.480469 L 39.464844 196.519531 L 39.632812 196.566406 L 39.792969 196.609375 L 39.945312 196.660156 L 40.089844 196.714844 L 40.230469 196.769531 L 40.367188 196.828125 L 40.617188 196.960938 L 40.730469 197.03125 L 40.839844 197.101562 L 40.945312 197.179688 L 41.042969 197.257812 L 41.132812 197.339844 L 41.21875 197.425781 L 41.300781 197.511719 L 41.375 197.601562 L 41.441406 197.695312 L 41.503906 197.789062 L 41.5625 197.886719 L 41.613281 197.988281 L 41.660156 198.09375 L 41.703125 198.199219 L 41.738281 198.308594 L 41.800781 198.527344 L 41.824219 198.640625 L 41.84375 198.753906 L 41.859375 198.867188 L 41.875 199.101562 L 41.878906 199.21875 L 41.875 199.339844 L 41.859375 199.574219 L 41.84375 199.6875 L 41.824219 199.800781 L 41.800781 199.914062 L 41.738281 200.132812 L 41.703125 200.238281 L 41.660156 200.34375 L 41.613281 200.445312 L 41.5625 200.546875 L 41.503906 200.644531 L 41.441406 200.738281 L 41.375 200.832031 L 41.300781 200.921875 L 41.21875 201.007812 L 41.132812 201.09375 L 41.042969 201.171875 L 40.945312 201.253906 L 40.84375 201.328125 L 40.734375 201.398438 L 40.617188 201.464844 L 40.496094 201.53125 L 40.371094 201.59375 L 40.234375 201.652344 L 40.097656 201.707031 L 39.949219 201.761719 L 39.796875 201.808594 L 39.640625 201.855469 L 39.472656 201.898438 L 39.296875 201.933594 L 39.117188 201.964844 L 38.925781 201.996094 L 38.730469 202.019531 L 38.523438 202.039062 L 38.3125 202.054688 L 38.09375 202.0625 L 37.863281 202.070312 L 37.628906 202.074219 L 37.382812 202.070312 L 37.148438 202.0625 L 36.917969 202.054688 L 36.699219 202.039062 L 36.488281 202.019531 L 36.289062 201.996094 L 36.09375 201.964844 L 35.910156 201.933594 L 35.734375 201.898438 L 35.566406 201.855469 L 35.40625 201.808594 L 35.25 201.761719 L 35.105469 201.707031 L 34.964844 201.652344 L 34.828125 201.59375 L 34.703125 201.53125 L 34.582031 201.464844 L 34.46875 201.394531 L 34.359375 201.320312 L 34.261719 201.246094 L 34.164062 201.167969 L 34.078125 201.085938 L 33.996094 201 L 33.917969 200.914062 L 33.847656 200.824219 L 33.78125 200.730469 L 33.722656 200.636719 L 33.667969 200.539062 L 33.621094 200.4375 L 33.542969 200.226562 L 33.507812 200.117188 L 33.480469 200.007812 L 33.453125 199.894531 L 33.429688 199.78125 L 33.398438 199.546875 L 33.390625 199.429688 L 33.382812 199.308594 L 33.382812 199.066406 L 33.390625 198.949219 L 33.398438 198.835938 L 33.429688 198.609375 L 33.453125 198.5 L 33.480469 198.394531 L 33.507812 198.285156 L 33.542969 198.179688 L 33.582031 198.078125 L 33.621094 197.972656 L 33.667969 197.875 L 33.722656 197.777344 L 33.78125 197.679688 L 33.847656 197.589844 L 33.917969 197.5 L 33.996094 197.414062 L 34.078125 197.328125 L 34.164062 197.246094 L 34.261719 197.167969 L 34.359375 197.09375 L 34.46875 197.019531 L 34.582031 196.949219 L 34.703125 196.886719 L 34.828125 196.824219 L 34.964844 196.761719 L 35.105469 196.707031 L 35.25 196.65625 L 35.40625 196.605469 L 35.566406 196.558594 L 35.734375 196.515625 L 35.910156 196.480469 L 36.09375 196.445312 L 36.289062 196.417969 L 36.488281 196.390625 L 36.699219 196.371094 L 36.917969 196.355469 L 37.148438 196.34375 L 37.382812 196.339844 Z M 37.628906 197.410156 L 37.4375 197.410156 L 37.25 197.414062 L 37.070312 197.417969 L 36.894531 197.425781 L 36.726562 197.4375 L 36.566406 197.449219 L 36.414062 197.464844 L 36.269531 197.484375 L 36.128906 197.503906 L 35.996094 197.527344 L 35.867188 197.550781 L 35.742188 197.578125 L 35.625 197.605469 L 35.511719 197.636719 L 35.40625 197.671875 L 35.304688 197.707031 L 35.207031 197.746094 L 35.117188 197.785156 L 35.03125 197.828125 L 34.953125 197.871094 L 34.875 197.917969 L 34.804688 197.96875 L 34.738281 198.019531 L 34.675781 198.070312 L 34.617188 198.125 L 34.515625 198.242188 L 34.472656 198.304688 L 34.433594 198.367188 L 34.371094 198.5 L 34.339844 198.570312 L 34.316406 198.640625 L 34.296875 198.710938 L 34.277344 198.785156 L 34.261719 198.859375 L 34.25 198.9375 L 34.242188 199.019531 L 34.238281 199.101562 L 34.238281 199.273438 L 34.242188 199.359375 L 34.25 199.441406 L 34.261719 199.523438 L 34.277344 199.601562 L 34.296875 199.679688 L 34.316406 199.753906 L 34.339844 199.828125 L 34.402344 199.96875 L 34.4375 200.035156 L 34.476562 200.101562 L 34.519531 200.164062 L 34.621094 200.28125 L 34.679688 200.339844 L 34.742188 200.394531 L 34.808594 200.445312 L 34.882812 200.496094 L 34.957031 200.542969 L 35.121094 200.628906 L 35.214844 200.671875 L 35.308594 200.707031 L 35.410156 200.742188 L 35.519531 200.777344 L 35.628906 200.808594 L 35.871094 200.863281 L 36 200.890625 L 36.132812 200.910156 L 36.273438 200.929688 L 36.421875 200.949219 L 36.574219 200.964844 L 36.734375 200.976562 L 36.898438 200.988281 L 37.070312 200.996094 L 37.25 201 L 37.4375 201.003906 L 37.628906 201.007812 L 37.816406 201.003906 L 37.996094 201 L 38.171875 200.996094 L 38.339844 200.988281 L 38.503906 200.976562 L 38.660156 200.964844 L 38.8125 200.949219 L 38.957031 200.929688 L 39.230469 200.890625 L 39.480469 200.835938 L 39.597656 200.804688 L 39.707031 200.773438 L 39.816406 200.738281 L 39.917969 200.703125 L 40.015625 200.664062 L 40.109375 200.625 L 40.195312 200.582031 L 40.277344 200.539062 L 40.355469 200.488281 L 40.425781 200.441406 L 40.558594 200.332031 L 40.617188 200.277344 L 40.671875 200.21875 L 40.722656 200.160156 L 40.808594 200.035156 L 40.847656 199.96875 L 40.878906 199.902344 L 40.933594 199.761719 L 40.972656 199.613281 L 40.988281 199.535156 L 41 199.457031 L 41.015625 199.292969 L 41.015625 199.125 L 41.007812 199.042969 L 41 198.964844 L 40.988281 198.886719 L 40.972656 198.8125 L 40.933594 198.664062 L 40.878906 198.523438 L 40.847656 198.457031 L 40.808594 198.390625 L 40.722656 198.265625 L 40.671875 198.207031 L 40.617188 198.148438 L 40.558594 198.09375 L 40.425781 197.992188 L 40.355469 197.941406 L 40.277344 197.894531 L 40.195312 197.847656 L 40.109375 197.804688 L 40.015625 197.765625 L 39.917969 197.726562 L 39.816406 197.6875 L 39.707031 197.652344 L 39.597656 197.621094 L 39.480469 197.589844 L 39.355469 197.5625 L 39.230469 197.539062 L 39.09375 197.511719 L 38.957031 197.492188 L 38.8125 197.472656 L 38.660156 197.453125 L 38.503906 197.441406 L 38.339844 197.429688 L 38.171875 197.421875 L 37.996094 197.414062 L 37.816406 197.410156 Z M 37.628906 197.410156 "/>
<path fill-rule="nonzero" fill="rgb(0%, 0%, 0%)" fill-opacity="1" d="M 41.761719 194.773438 L 40.476562 194.773438 L 40.476562 193.628906 L 41.761719 193.628906 Z M 41.761719 194.773438 "/>
<path fill-rule="nonzero" fill="rgb(0%, 0%, 0%)" fill-opacity="1" d="M 39.890625 187.371094 L 41.761719 187.371094 L 41.761719 188.367188 L 39.890625 188.367188 L 39.890625 192.257812 L 39.070312 192.257812 L 33.503906 188.480469 L 33.503906 187.371094 L 39.058594 187.371094 L 39.058594 186.210938 L 39.890625 186.210938 Z M 34.695312 188.367188 L 34.699219 188.371094 L 34.714844 188.378906 L 34.738281 188.386719 L 34.761719 188.402344 L 34.792969 188.417969 L 34.8125 188.425781 L 34.828125 188.433594 L 34.84375 188.445312 L 34.863281 188.457031 L 34.878906 188.464844 L 34.917969 188.488281 L 34.9375 188.496094 L 34.976562 188.519531 L 35 188.53125 L 35.039062 188.554688 L 35.0625 188.566406 L 35.082031 188.578125 L 35.105469 188.589844 L 35.125 188.605469 L 35.171875 188.628906 L 35.191406 188.640625 L 35.214844 188.65625 L 35.234375 188.667969 L 35.257812 188.675781 L 35.273438 188.6875 L 35.3125 188.710938 L 35.328125 188.71875 L 35.359375 188.742188 L 35.375 188.75 L 35.390625 188.761719 L 38.507812 190.875 L 38.519531 190.882812 L 38.527344 190.886719 L 38.5625 190.910156 L 38.574219 190.921875 L 38.589844 190.929688 L 38.601562 190.941406 L 38.632812 190.964844 L 38.644531 190.972656 L 38.691406 191.007812 L 38.707031 191.015625 L 38.726562 191.027344 L 38.867188 191.132812 L 38.878906 191.144531 L 38.957031 191.203125 L 38.96875 191.214844 L 38.984375 191.226562 L 38.996094 191.234375 L 39.007812 191.246094 L 39.03125 191.261719 L 39.039062 191.269531 L 39.050781 191.277344 L 39.058594 191.285156 L 39.058594 188.367188 Z M 34.695312 188.367188 "/>
<path fill-rule="nonzero" fill="rgb(0%, 0%, 0%)" fill-opacity="1" d="M 37.628906 151.28125 L 37.863281 151.285156 L 38.089844 151.292969 L 38.308594 151.304688 L 38.519531 151.320312 L 38.726562 151.339844 L 38.921875 151.363281 L 39.109375 151.394531 L 39.292969 151.429688 L 39.464844 151.46875 L 39.632812 151.511719 L 39.792969 151.558594 L 39.945312 151.605469 L 40.089844 151.660156 L 40.230469 151.714844 L 40.367188 151.777344 L 40.492188 151.839844 L 40.617188 151.90625 L 40.730469 151.976562 L 40.839844 152.050781 L 40.945312 152.125 L 41.042969 152.207031 L 41.132812 152.285156 L 41.21875 152.371094 L 41.300781 152.457031 L 41.375 152.546875 L 41.441406 152.640625 L 41.503906 152.738281 L 41.5625 152.835938 L 41.613281 152.9375 L 41.660156 153.039062 L 41.703125 153.148438 L 41.738281 153.253906 L 41.800781 153.472656 L 41.824219 153.585938 L 41.84375 153.699219 L 41.859375 153.8125 L 41.875 154.046875 L 41.878906 154.164062 L 41.875 154.285156 L 41.859375 154.519531 L 41.84375 154.636719 L 41.824219 154.75 L 41.800781 154.859375 L 41.738281 155.078125 L 41.703125 155.183594 L 41.660156 155.289062 L 41.613281 155.394531 L 41.5625 155.492188 L 41.503906 155.589844 L 41.441406 155.6875 L 41.375 155.777344 L 41.300781 155.867188 L 41.21875 155.953125 L 41.132812 156.039062 L 41.042969 156.121094 L 40.945312 156.199219 L 40.84375 156.273438 L 40.734375 156.34375 L 40.617188 156.414062 L 40.496094 156.476562 L 40.371094 156.539062 L 40.097656 156.65625 L 39.949219 156.707031 L 39.796875 156.757812 L 39.640625 156.800781 L 39.472656 156.84375 L 39.296875 156.878906 L 39.117188 156.914062 L 38.925781 156.941406 L 38.730469 156.964844 L 38.523438 156.984375 L 38.3125 157 L 38.09375 157.011719 L 37.863281 157.015625 L 37.628906 157.019531 L 37.382812 157.015625 L 37.148438 157.011719 L 36.917969 157 L 36.699219 156.984375 L 36.488281 156.964844 L 36.289062 156.941406 L 36.09375 156.914062 L 35.910156 156.878906 L 35.734375 156.84375 L 35.566406 156.800781 L 35.40625 156.757812 L 35.25 156.707031 L 35.105469 156.652344 L 34.964844 156.597656 L 34.828125 156.539062 L 34.703125 156.476562 L 34.582031 156.410156 L 34.46875 156.339844 L 34.359375 156.269531 L 34.164062 156.113281 L 34.078125 156.03125 L 33.996094 155.949219 L 33.917969 155.859375 L 33.847656 155.769531 L 33.78125 155.679688 L 33.722656 155.582031 L 33.667969 155.484375 L 33.621094 155.382812 L 33.542969 155.171875 L 33.507812 155.0625 L 33.453125 154.84375 L 33.429688 154.726562 L 33.414062 154.613281 L 33.398438 154.496094 L 33.382812 154.253906 L 33.382812 154.011719 L 33.390625 153.898438 L 33.398438 153.78125 L 33.414062 153.667969 L 33.429688 153.558594 L 33.453125 153.449219 L 33.507812 153.230469 L 33.542969 153.125 L 33.621094 152.921875 L 33.667969 152.820312 L 33.722656 152.722656 L 33.78125 152.628906 L 33.847656 152.535156 L 33.917969 152.445312 L 33.996094 152.359375 L 34.078125 152.273438 L 34.164062 152.195312 L 34.261719 152.113281 L 34.359375 152.039062 L 34.46875 151.964844 L 34.582031 151.898438 L 34.703125 151.832031 L 34.828125 151.769531 L 34.964844 151.710938 L 35.105469 151.652344 L 35.25 151.601562 L 35.40625 151.550781 L 35.566406 151.503906 L 35.734375 151.464844 L 35.910156 151.425781 L 36.09375 151.390625 L 36.289062 151.363281 L 36.488281 151.339844 L 36.699219 151.316406 L 36.917969 151.300781 L 37.148438 151.292969 L 37.382812 151.285156 Z M 37.628906 152.355469 L 37.4375 152.355469 L 37.25 152.359375 L 37.070312 152.367188 L 36.894531 152.375 L 36.726562 152.382812 L 36.566406 152.398438 L 36.414062 152.414062 L 36.269531 152.429688 L 36.128906 152.449219 L 35.996094 152.472656 L 35.867188 152.496094 L 35.742188 152.523438 L 35.625 152.550781 L 35.511719 152.582031 L 35.40625 152.617188 L 35.304688 152.652344 L 35.207031 152.691406 L 35.117188 152.730469 L 35.03125 152.773438 L 34.953125 152.816406 L 34.875 152.863281 L 34.804688 152.914062 L 34.738281 152.964844 L 34.675781 153.015625 L 34.617188 153.074219 L 34.566406 153.128906 L 34.515625 153.1875 L 34.472656 153.25 L 34.433594 153.316406 L 34.402344 153.378906 L 34.371094 153.445312 L 34.339844 153.515625 L 34.316406 153.585938 L 34.296875 153.65625 L 34.277344 153.730469 L 34.261719 153.808594 L 34.25 153.886719 L 34.242188 153.964844 L 34.238281 154.046875 L 34.238281 154.21875 L 34.242188 154.304688 L 34.25 154.386719 L 34.261719 154.46875 L 34.277344 154.550781 L 34.296875 154.625 L 34.316406 154.703125 L 34.339844 154.773438 L 34.371094 154.847656 L 34.402344 154.914062 L 34.4375 154.980469 L 34.476562 155.046875 L 34.519531 155.109375 L 34.570312 155.171875 L 34.621094 155.230469 L 34.679688 155.285156 L 34.742188 155.339844 L 34.808594 155.390625 L 34.882812 155.441406 L 34.957031 155.488281 L 35.039062 155.535156 L 35.121094 155.578125 L 35.308594 155.65625 L 35.410156 155.691406 L 35.628906 155.753906 L 35.75 155.785156 L 35.871094 155.8125 L 36 155.835938 L 36.132812 155.859375 L 36.273438 155.878906 L 36.421875 155.894531 L 36.574219 155.910156 L 36.734375 155.921875 L 36.898438 155.933594 L 37.070312 155.941406 L 37.25 155.949219 L 37.4375 155.953125 L 37.816406 155.953125 L 37.996094 155.949219 L 38.171875 155.941406 L 38.339844 155.933594 L 38.503906 155.921875 L 38.660156 155.910156 L 38.8125 155.894531 L 38.957031 155.878906 L 39.09375 155.859375 L 39.230469 155.835938 L 39.480469 155.78125 L 39.597656 155.753906 L 39.707031 155.71875 L 39.816406 155.6875 L 39.917969 155.648438 L 40.015625 155.613281 L 40.109375 155.570312 L 40.195312 155.527344 L 40.277344 155.484375 L 40.355469 155.4375 L 40.425781 155.386719 L 40.492188 155.335938 L 40.558594 155.28125 L 40.671875 155.167969 L 40.722656 155.105469 L 40.765625 155.046875 L 40.808594 154.980469 L 40.847656 154.914062 L 40.878906 154.847656 L 40.933594 154.707031 L 40.972656 154.558594 L 40.988281 154.480469 L 41 154.402344 L 41.015625 154.238281 L 41.015625 154.070312 L 41.007812 153.992188 L 41 153.910156 L 40.988281 153.835938 L 40.972656 153.757812 L 40.953125 153.683594 L 40.933594 153.613281 L 40.90625 153.539062 L 40.878906 153.472656 L 40.847656 153.402344 L 40.808594 153.339844 L 40.765625 153.273438 L 40.722656 153.210938 L 40.671875 153.152344 L 40.558594 153.039062 L 40.425781 152.9375 L 40.355469 152.886719 L 40.277344 152.839844 L 40.195312 152.796875 L 40.109375 152.753906 L 40.015625 152.710938 L 39.917969 152.671875 L 39.816406 152.632812 L 39.707031 152.601562 L 39.597656 152.566406 L 39.480469 152.539062 L 39.355469 152.507812 L 39.230469 152.484375 L 38.957031 152.4375 L 38.8125 152.417969 L 38.660156 152.402344 L 38.503906 152.386719 L 38.339844 152.375 L 38.171875 152.367188 L 37.996094 152.359375 L 37.816406 152.355469 Z M 37.628906 152.355469 "/>
<path fill-rule="nonzero" fill="rgb(0%, 0%, 0%)" fill-opacity="1" d="M 41.761719 149.71875 L 40.476562 149.71875 L 40.476562 148.574219 L 41.761719 148.574219 Z M 41.761719 149.71875 "/>
<path fill-rule="nonzero" fill="rgb(0%, 0%, 0%)" fill-opacity="1" d="M 39.058594 141.332031 L 39.183594 141.335938 L 39.304688 141.339844 L 39.421875 141.347656 L 39.65625 141.378906 L 39.769531 141.398438 L 39.878906 141.417969 L 39.988281 141.445312 L 40.097656 141.476562 L 40.203125 141.507812 L 40.304688 141.542969 L 40.402344 141.585938 L 40.5 141.625 L 40.589844 141.671875 L 40.683594 141.722656 L 40.769531 141.773438 L 40.855469 141.832031 L 40.9375 141.890625 L 41.015625 141.953125 L 41.09375 142.019531 L 41.164062 142.085938 L 41.234375 142.160156 L 41.300781 142.234375 L 41.363281 142.3125 L 41.421875 142.394531 L 41.53125 142.566406 L 41.582031 142.660156 L 41.628906 142.753906 L 41.671875 142.851562 L 41.710938 142.953125 L 41.746094 143.054688 L 41.777344 143.164062 L 41.804688 143.273438 L 41.824219 143.386719 L 41.84375 143.503906 L 41.859375 143.621094 L 41.875 143.871094 L 41.878906 144 L 41.875 144.140625 L 41.867188 144.28125 L 41.851562 144.414062 L 41.832031 144.546875 L 41.808594 144.675781 L 41.777344 144.800781 L 41.742188 144.917969 L 41.699219 145.035156 L 41.652344 145.148438 L 41.601562 145.257812 L 41.542969 145.363281 L 41.480469 145.46875 L 41.414062 145.566406 L 41.34375 145.660156 L 41.265625 145.753906 L 41.183594 145.839844 L 41.097656 145.925781 L 41.007812 146.003906 L 40.910156 146.082031 L 40.8125 146.15625 L 40.703125 146.226562 L 40.59375 146.292969 L 40.476562 146.355469 L 40.355469 146.414062 L 40.230469 146.46875 L 40.101562 146.519531 L 39.96875 146.570312 L 39.832031 146.613281 L 39.6875 146.65625 L 39.539062 146.695312 L 39.386719 146.726562 L 39.230469 146.757812 L 39.066406 146.785156 L 38.902344 146.808594 L 38.730469 146.828125 L 38.558594 146.84375 L 38.378906 146.855469 L 38.199219 146.863281 L 37.824219 146.871094 L 37.605469 146.867188 L 37.394531 146.863281 L 37.1875 146.851562 L 36.984375 146.839844 L 36.789062 146.820312 L 36.597656 146.800781 L 36.414062 146.773438 L 36.234375 146.742188 L 36.058594 146.710938 L 35.890625 146.671875 L 35.726562 146.628906 L 35.566406 146.582031 L 35.414062 146.53125 L 35.265625 146.480469 L 35.125 146.421875 L 34.988281 146.363281 L 34.859375 146.296875 L 34.734375 146.230469 L 34.613281 146.160156 L 34.5 146.085938 L 34.390625 146.007812 L 34.289062 145.925781 L 34.191406 145.84375 L 34.097656 145.753906 L 34.011719 145.664062 L 33.929688 145.570312 L 33.855469 145.472656 L 33.785156 145.371094 L 33.722656 145.265625 L 33.664062 145.160156 L 33.609375 145.046875 L 33.5625 144.933594 L 33.519531 144.816406 L 33.480469 144.695312 L 33.453125 144.574219 L 33.425781 144.449219 L 33.40625 144.320312 L 33.390625 144.1875 L 33.382812 144.054688 L 33.382812 143.75 L 33.390625 143.667969 L 33.394531 143.589844 L 33.402344 143.507812 L 33.425781 143.351562 L 33.4375 143.277344 L 33.453125 143.199219 L 33.46875 143.125 L 33.488281 143.054688 L 33.507812 142.980469 L 33.53125 142.910156 L 33.558594 142.84375 L 33.585938 142.773438 L 33.613281 142.707031 L 33.648438 142.644531 L 33.679688 142.582031 L 33.757812 142.457031 L 33.796875 142.398438 L 33.882812 142.28125 L 33.929688 142.226562 L 33.980469 142.171875 L 34.089844 142.070312 L 34.148438 142.019531 L 34.207031 141.972656 L 34.273438 141.925781 L 34.335938 141.878906 L 34.40625 141.835938 L 34.476562 141.796875 L 34.554688 141.757812 L 34.628906 141.71875 L 34.710938 141.683594 L 34.792969 141.652344 L 34.882812 141.621094 L 34.96875 141.589844 L 35.0625 141.5625 L 35.246094 142.570312 L 35.140625 142.605469 L 35.042969 142.644531 L 34.953125 142.6875 L 34.867188 142.734375 L 34.785156 142.785156 L 34.710938 142.839844 L 34.644531 142.898438 L 34.582031 142.960938 L 34.527344 143.027344 L 34.476562 143.097656 L 34.429688 143.167969 L 34.390625 143.246094 L 34.355469 143.320312 L 34.324219 143.402344 L 34.296875 143.484375 L 34.273438 143.566406 L 34.257812 143.65625 L 34.246094 143.742188 L 34.238281 143.835938 L 34.238281 144.015625 L 34.246094 144.097656 L 34.253906 144.183594 L 34.269531 144.261719 L 34.289062 144.34375 L 34.308594 144.421875 L 34.335938 144.496094 L 34.367188 144.570312 L 34.402344 144.644531 L 34.441406 144.714844 L 34.484375 144.785156 L 34.53125 144.851562 L 34.582031 144.914062 L 34.636719 144.980469 L 34.761719 145.097656 L 34.828125 145.15625 L 34.902344 145.210938 L 34.976562 145.261719 L 35.058594 145.3125 L 35.140625 145.359375 L 35.226562 145.40625 L 35.414062 145.492188 L 35.515625 145.53125 L 35.617188 145.566406 L 35.726562 145.601562 L 35.839844 145.632812 L 35.957031 145.664062 L 36.078125 145.691406 L 36.203125 145.71875 L 36.332031 145.738281 L 36.464844 145.757812 L 36.601562 145.773438 L 36.742188 145.789062 L 36.886719 145.800781 L 37.191406 145.816406 L 37.351562 145.820312 L 37.511719 145.820312 L 37.40625 145.761719 L 37.308594 145.699219 L 37.214844 145.628906 L 37.125 145.554688 L 37.042969 145.476562 L 36.964844 145.394531 L 36.890625 145.304688 L 36.824219 145.210938 L 36.761719 145.113281 L 36.703125 145.011719 L 36.648438 144.90625 L 36.601562 144.796875 L 36.558594 144.6875 L 36.523438 144.570312 L 36.492188 144.453125 L 36.46875 144.332031 L 36.449219 144.207031 L 36.433594 144.082031 L 36.425781 143.949219 L 36.421875 143.816406 L 36.429688 143.597656 L 36.4375 143.488281 L 36.453125 143.382812 L 36.46875 143.28125 L 36.488281 143.179688 L 36.511719 143.082031 L 36.539062 142.984375 L 36.570312 142.890625 L 36.605469 142.796875 L 36.640625 142.707031 L 36.726562 142.535156 L 36.773438 142.453125 L 36.828125 142.375 L 36.878906 142.296875 L 36.9375 142.222656 L 37 142.152344 L 37.0625 142.085938 L 37.132812 142.019531 L 37.199219 141.953125 L 37.347656 141.835938 L 37.425781 141.78125 L 37.507812 141.730469 L 37.59375 141.679688 L 37.679688 141.632812 L 37.773438 141.589844 L 37.867188 141.550781 L 38.0625 141.480469 L 38.164062 141.449219 L 38.265625 141.421875 L 38.371094 141.398438 L 38.480469 141.378906 L 38.589844 141.363281 L 38.703125 141.351562 L 38.820312 141.339844 L 38.9375 141.335938 Z M 39.105469 142.40625 L 39.019531 142.40625 L 38.855469 142.414062 L 38.777344 142.421875 L 38.621094 142.445312 L 38.546875 142.457031 L 38.472656 142.472656 L 38.332031 142.511719 L 38.132812 142.582031 L 38.074219 142.613281 L 38.011719 142.644531 L 37.957031 142.675781 L 37.898438 142.710938 L 37.847656 142.746094 L 37.796875 142.785156 L 37.746094 142.828125 L 37.652344 142.914062 L 37.609375 142.964844 L 37.566406 143.011719 L 37.53125 143.0625 L 37.492188 143.117188 L 37.460938 143.171875 L 37.425781 143.230469 L 37.371094 143.347656 L 37.347656 143.414062 L 37.324219 143.476562 L 37.300781 143.542969 L 37.269531 143.683594 L 37.257812 143.757812 L 37.25 143.832031 L 37.242188 143.910156 L 37.238281 143.988281 L 37.238281 144.183594 L 37.246094 144.242188 L 37.25 144.300781 L 37.257812 144.359375 L 37.269531 144.417969 L 37.28125 144.472656 L 37.292969 144.53125 L 37.324219 144.648438 L 37.363281 144.765625 L 37.382812 144.820312 L 37.40625 144.875 L 37.433594 144.929688 L 37.464844 144.984375 L 37.492188 145.035156 L 37.527344 145.085938 L 37.5625 145.132812 L 37.601562 145.183594 L 37.636719 145.230469 L 37.722656 145.316406 L 37.769531 145.359375 L 37.816406 145.398438 L 37.867188 145.433594 L 37.921875 145.472656 L 37.980469 145.503906 L 38.035156 145.539062 L 38.097656 145.570312 L 38.160156 145.597656 L 38.226562 145.621094 L 38.296875 145.644531 L 38.367188 145.664062 L 38.441406 145.679688 L 38.597656 145.703125 L 38.679688 145.710938 L 38.765625 145.714844 L 38.945312 145.714844 L 39.035156 145.710938 L 39.121094 145.707031 L 39.210938 145.699219 L 39.382812 145.675781 L 39.464844 145.660156 L 39.628906 145.621094 L 39.710938 145.597656 L 39.785156 145.574219 L 39.863281 145.546875 L 39.9375 145.519531 L 40.078125 145.457031 L 40.210938 145.386719 L 40.335938 145.308594 L 40.394531 145.265625 L 40.453125 145.21875 L 40.507812 145.171875 L 40.558594 145.125 L 40.609375 145.074219 L 40.703125 144.964844 L 40.746094 144.910156 L 40.824219 144.792969 L 40.859375 144.730469 L 40.890625 144.667969 L 40.917969 144.605469 L 40.945312 144.539062 L 40.964844 144.472656 L 40.984375 144.402344 L 41 144.332031 L 41.011719 144.261719 L 41.019531 144.1875 L 41.027344 144.109375 L 41.027344 143.960938 L 41.023438 143.886719 L 41.015625 143.8125 L 41.007812 143.742188 L 40.996094 143.675781 L 40.980469 143.605469 L 40.964844 143.542969 L 40.945312 143.476562 L 40.921875 143.414062 L 40.898438 143.355469 L 40.871094 143.296875 L 40.808594 143.179688 L 40.773438 143.125 L 40.65625 142.972656 L 40.613281 142.925781 L 40.519531 142.839844 L 40.464844 142.796875 L 40.414062 142.757812 L 40.355469 142.722656 L 40.300781 142.6875 L 40.238281 142.652344 L 40.175781 142.621094 L 40.113281 142.59375 L 39.980469 142.539062 L 39.910156 142.515625 L 39.761719 142.476562 L 39.6875 142.460938 L 39.609375 142.445312 L 39.527344 142.433594 L 39.449219 142.421875 L 39.363281 142.414062 L 39.28125 142.410156 L 39.195312 142.40625 Z M 39.105469 142.40625 "/>
<path fill-rule="nonzero" fill="rgb(0%, 0%, 0%)" fill-opacity="1" d="M 37.628906 106.230469 L 37.863281 106.230469 L 38.089844 106.238281 L 38.308594 106.25 L 38.519531 106.265625 L 38.726562 106.285156 L 38.921875 106.3125 L 39.109375 106.339844 L 39.292969 106.375 L 39.464844 106.414062 L 39.632812 106.457031 L 39.792969 106.503906 L 39.945312 106.554688 L 40.089844 106.605469 L 40.230469 106.664062 L 40.367188 106.722656 L 40.492188 106.785156 L 40.617188 106.851562 L 40.730469 106.921875 L 40.839844 106.996094 L 40.945312 107.074219 L 41.042969 107.152344 L 41.132812 107.234375 L 41.21875 107.316406 L 41.300781 107.40625 L 41.375 107.496094 L 41.441406 107.585938 L 41.503906 107.683594 L 41.5625 107.78125 L 41.613281 107.882812 L 41.660156 107.988281 L 41.703125 108.09375 L 41.738281 108.199219 L 41.769531 108.308594 L 41.800781 108.421875 L 41.824219 108.53125 L 41.84375 108.644531 L 41.859375 108.757812 L 41.875 108.992188 L 41.878906 109.113281 L 41.875 109.230469 L 41.867188 109.351562 L 41.859375 109.464844 L 41.84375 109.582031 L 41.824219 109.695312 L 41.800781 109.808594 L 41.769531 109.917969 L 41.738281 110.023438 L 41.703125 110.132812 L 41.660156 110.238281 L 41.613281 110.339844 L 41.5625 110.441406 L 41.503906 110.539062 L 41.441406 110.632812 L 41.375 110.726562 L 41.300781 110.8125 L 41.21875 110.902344 L 41.132812 110.984375 L 41.042969 111.066406 L 40.945312 111.144531 L 40.84375 111.21875 L 40.734375 111.292969 L 40.617188 111.359375 L 40.496094 111.425781 L 40.371094 111.488281 L 40.234375 111.546875 L 40.097656 111.601562 L 39.949219 111.652344 L 39.796875 111.703125 L 39.640625 111.75 L 39.472656 111.789062 L 39.296875 111.828125 L 39.117188 111.859375 L 38.925781 111.886719 L 38.730469 111.910156 L 38.523438 111.929688 L 38.3125 111.945312 L 38.09375 111.957031 L 37.863281 111.964844 L 37.382812 111.964844 L 37.148438 111.957031 L 36.917969 111.945312 L 36.699219 111.929688 L 36.488281 111.910156 L 36.289062 111.886719 L 36.09375 111.859375 L 35.910156 111.828125 L 35.734375 111.789062 L 35.566406 111.75 L 35.40625 111.703125 L 35.25 111.652344 L 35.105469 111.601562 L 34.964844 111.542969 L 34.828125 111.484375 L 34.703125 111.421875 L 34.582031 111.355469 L 34.46875 111.289062 L 34.359375 111.214844 L 34.261719 111.140625 L 34.164062 111.0625 L 34.078125 110.980469 L 33.996094 110.894531 L 33.917969 110.808594 L 33.847656 110.71875 L 33.78125 110.625 L 33.722656 110.527344 L 33.667969 110.429688 L 33.621094 110.328125 L 33.582031 110.226562 L 33.542969 110.117188 L 33.507812 110.011719 L 33.480469 109.902344 L 33.453125 109.789062 L 33.429688 109.675781 L 33.398438 109.441406 L 33.382812 109.199219 L 33.382812 108.960938 L 33.390625 108.84375 L 33.398438 108.730469 L 33.429688 108.503906 L 33.453125 108.394531 L 33.480469 108.285156 L 33.507812 108.179688 L 33.542969 108.074219 L 33.582031 107.96875 L 33.621094 107.867188 L 33.667969 107.765625 L 33.722656 107.667969 L 33.78125 107.574219 L 33.847656 107.480469 L 33.917969 107.390625 L 33.996094 107.304688 L 34.078125 107.222656 L 34.164062 107.140625 L 34.359375 106.984375 L 34.46875 106.914062 L 34.582031 106.84375 L 34.703125 106.777344 L 34.828125 106.714844 L 34.964844 106.65625 L 35.105469 106.601562 L 35.25 106.546875 L 35.40625 106.496094 L 35.566406 106.453125 L 35.734375 106.410156 L 35.910156 106.371094 L 36.09375 106.339844 L 36.289062 106.308594 L 36.488281 106.285156 L 36.699219 106.265625 L 36.917969 106.25 L 37.148438 106.238281 L 37.382812 106.230469 Z M 37.628906 107.300781 L 37.4375 107.300781 L 37.25 107.304688 L 37.070312 107.3125 L 36.894531 107.320312 L 36.726562 107.332031 L 36.566406 107.34375 L 36.414062 107.359375 L 36.269531 107.375 L 36.128906 107.394531 L 35.996094 107.417969 L 35.867188 107.441406 L 35.742188 107.46875 L 35.625 107.5 L 35.511719 107.53125 L 35.40625 107.5625 L 35.304688 107.597656 L 35.207031 107.636719 L 35.117188 107.675781 L 35.03125 107.71875 L 34.875 107.8125 L 34.804688 107.859375 L 34.738281 107.910156 L 34.675781 107.964844 L 34.617188 108.019531 L 34.515625 108.136719 L 34.472656 108.199219 L 34.433594 108.261719 L 34.339844 108.460938 L 34.316406 108.53125 L 34.277344 108.679688 L 34.261719 108.753906 L 34.25 108.832031 L 34.242188 108.910156 L 34.238281 108.992188 L 34.238281 109.164062 L 34.242188 109.25 L 34.25 109.335938 L 34.261719 109.417969 L 34.277344 109.496094 L 34.296875 109.574219 L 34.316406 109.648438 L 34.339844 109.722656 L 34.402344 109.863281 L 34.4375 109.929688 L 34.476562 109.992188 L 34.519531 110.054688 L 34.570312 110.117188 L 34.621094 110.175781 L 34.679688 110.230469 L 34.742188 110.285156 L 34.808594 110.339844 L 34.882812 110.386719 L 34.957031 110.4375 L 35.121094 110.523438 L 35.308594 110.601562 L 35.410156 110.636719 L 35.519531 110.671875 L 35.628906 110.703125 L 35.871094 110.757812 L 36 110.78125 L 36.132812 110.804688 L 36.273438 110.824219 L 36.421875 110.839844 L 36.574219 110.855469 L 36.734375 110.871094 L 36.898438 110.878906 L 37.070312 110.886719 L 37.25 110.894531 L 37.4375 110.898438 L 37.816406 110.898438 L 37.996094 110.894531 L 38.171875 110.886719 L 38.339844 110.878906 L 38.503906 110.871094 L 38.660156 110.855469 L 38.8125 110.839844 L 38.957031 110.824219 L 39.09375 110.804688 L 39.230469 110.78125 L 39.355469 110.757812 L 39.480469 110.726562 L 39.597656 110.699219 L 39.707031 110.667969 L 39.816406 110.632812 L 39.917969 110.597656 L 40.015625 110.558594 L 40.109375 110.515625 L 40.195312 110.476562 L 40.277344 110.429688 L 40.355469 110.382812 L 40.425781 110.332031 L 40.492188 110.28125 L 40.558594 110.226562 L 40.617188 110.171875 L 40.671875 110.113281 L 40.722656 110.054688 L 40.808594 109.929688 L 40.847656 109.863281 L 40.878906 109.792969 L 40.90625 109.726562 L 40.933594 109.652344 L 40.972656 109.503906 L 40.988281 109.425781 L 41 109.347656 L 41.007812 109.269531 L 41.015625 109.183594 L 41.015625 109.019531 L 41.007812 108.9375 L 41 108.859375 L 40.988281 108.78125 L 40.972656 108.703125 L 40.953125 108.628906 L 40.933594 108.558594 L 40.878906 108.417969 L 40.847656 108.351562 L 40.808594 108.285156 L 40.722656 108.160156 L 40.671875 108.101562 L 40.617188 108.042969 L 40.558594 107.988281 L 40.492188 107.933594 L 40.425781 107.882812 L 40.355469 107.835938 L 40.277344 107.789062 L 40.195312 107.742188 L 40.109375 107.699219 L 40.015625 107.65625 L 39.917969 107.617188 L 39.816406 107.582031 L 39.707031 107.546875 L 39.597656 107.515625 L 39.480469 107.484375 L 39.230469 107.429688 L 38.957031 107.382812 L 38.8125 107.363281 L 38.660156 107.347656 L 38.503906 107.332031 L 38.339844 107.320312 L 38.171875 107.3125 L 37.996094 107.304688 L 37.816406 107.304688 Z M 37.628906 107.300781 "/>
<path fill-rule="nonzero" fill="rgb(0%, 0%, 0%)" fill-opacity="1" d="M 41.761719 104.664062 L 40.476562 104.664062 L 40.476562 103.523438 L 41.761719 103.523438 Z M 41.761719 104.664062 "/>
<path fill-rule="nonzero" fill="rgb(0%, 0%, 0%)" fill-opacity="1" d="M 39.457031 96.273438 L 39.5625 96.277344 L 39.664062 96.28125 L 39.765625 96.289062 L 39.867188 96.300781 L 39.964844 96.316406 L 40.0625 96.335938 L 40.15625 96.355469 L 40.25 96.382812 L 40.339844 96.410156 L 40.429688 96.445312 L 40.601562 96.515625 L 40.683594 96.558594 L 40.839844 96.652344 L 40.988281 96.761719 L 41.058594 96.824219 L 41.125 96.886719 L 41.191406 96.953125 L 41.253906 97.023438 L 41.316406 97.097656 L 41.371094 97.175781 L 41.425781 97.257812 L 41.480469 97.34375 L 41.527344 97.429688 L 41.574219 97.523438 L 41.617188 97.621094 L 41.65625 97.722656 L 41.695312 97.828125 L 41.730469 97.933594 L 41.761719 98.046875 L 41.789062 98.164062 L 41.8125 98.285156 L 41.832031 98.410156 L 41.847656 98.535156 L 41.859375 98.667969 L 41.871094 98.804688 L 41.875 98.941406 L 41.878906 99.085938 L 41.875 99.230469 L 41.871094 99.371094 L 41.847656 99.636719 L 41.832031 99.765625 L 41.8125 99.890625 L 41.789062 100.007812 L 41.761719 100.125 L 41.730469 100.238281 L 41.695312 100.347656 L 41.617188 100.550781 L 41.574219 100.648438 L 41.480469 100.828125 L 41.429688 100.914062 L 41.375 101 L 41.320312 101.078125 L 41.257812 101.152344 L 41.199219 101.226562 L 41.132812 101.292969 L 40.992188 101.417969 L 40.921875 101.472656 L 40.847656 101.527344 L 40.769531 101.578125 L 40.6875 101.625 L 40.605469 101.664062 L 40.523438 101.707031 L 40.4375 101.742188 L 40.347656 101.773438 L 40.253906 101.800781 L 40.066406 101.847656 L 39.972656 101.863281 L 39.875 101.878906 L 39.773438 101.890625 L 39.675781 101.898438 L 39.574219 101.902344 L 39.46875 101.90625 L 39.378906 101.902344 L 39.207031 101.894531 L 39.042969 101.871094 L 38.886719 101.839844 L 38.8125 101.820312 L 38.738281 101.796875 L 38.597656 101.742188 L 38.464844 101.679688 L 38.339844 101.609375 L 38.222656 101.53125 L 38.113281 101.445312 L 38.0625 101.402344 L 38.011719 101.355469 L 37.917969 101.253906 L 37.832031 101.152344 L 37.753906 101.042969 L 37.683594 100.933594 L 37.652344 100.875 L 37.621094 100.8125 L 37.59375 100.753906 L 37.566406 100.691406 L 37.542969 100.632812 L 37.519531 100.570312 L 37.5 100.507812 L 37.453125 100.320312 L 37.441406 100.257812 L 37.417969 100.257812 L 37.402344 100.328125 L 37.382812 100.394531 L 37.359375 100.460938 L 37.3125 100.585938 L 37.285156 100.648438 L 37.191406 100.824219 L 37.15625 100.878906 L 37.117188 100.933594 L 37.039062 101.035156 L 36.996094 101.082031 L 36.957031 101.128906 L 36.910156 101.171875 L 36.867188 101.214844 L 36.820312 101.257812 L 36.769531 101.296875 L 36.722656 101.335938 L 36.667969 101.371094 L 36.617188 101.40625 L 36.507812 101.46875 L 36.390625 101.523438 L 36.335938 101.550781 L 36.273438 101.574219 L 36.214844 101.597656 L 36.089844 101.636719 L 36.027344 101.652344 L 35.964844 101.664062 L 35.898438 101.679688 L 35.699219 101.703125 L 35.566406 101.710938 L 35.410156 101.710938 L 35.324219 101.703125 L 35.242188 101.695312 L 35.15625 101.683594 L 35.074219 101.671875 L 34.996094 101.652344 L 34.914062 101.632812 L 34.757812 101.578125 L 34.683594 101.546875 L 34.605469 101.511719 L 34.53125 101.472656 L 34.457031 101.429688 L 34.386719 101.386719 L 34.320312 101.339844 L 34.1875 101.230469 L 34.125 101.175781 L 34.007812 101.050781 L 33.949219 100.980469 L 33.894531 100.910156 L 33.84375 100.839844 L 33.792969 100.761719 L 33.746094 100.683594 L 33.660156 100.511719 L 33.621094 100.421875 L 33.585938 100.332031 L 33.550781 100.234375 L 33.519531 100.136719 L 33.488281 100.035156 L 33.464844 99.929688 L 33.441406 99.820312 L 33.421875 99.710938 L 33.410156 99.597656 L 33.394531 99.480469 L 33.386719 99.359375 L 33.382812 99.234375 L 33.382812 98.976562 L 33.386719 98.847656 L 33.394531 98.722656 L 33.410156 98.601562 L 33.421875 98.480469 L 33.441406 98.367188 L 33.464844 98.253906 L 33.488281 98.148438 L 33.519531 98.042969 L 33.550781 97.945312 L 33.585938 97.847656 L 33.625 97.75 L 33.664062 97.660156 L 33.75 97.488281 L 33.800781 97.410156 L 33.847656 97.332031 L 33.902344 97.257812 L 33.957031 97.191406 L 34.074219 97.058594 L 34.132812 97 L 34.195312 96.941406 L 34.257812 96.886719 L 34.324219 96.839844 L 34.464844 96.746094 L 34.535156 96.707031 L 34.613281 96.671875 L 34.6875 96.636719 L 34.765625 96.605469 L 34.84375 96.582031 L 34.925781 96.558594 L 35.003906 96.535156 L 35.167969 96.503906 L 35.253906 96.492188 L 35.335938 96.484375 L 35.421875 96.480469 L 35.574219 96.480469 L 35.644531 96.484375 L 35.710938 96.488281 L 35.773438 96.496094 L 35.839844 96.503906 L 35.90625 96.515625 L 35.96875 96.527344 L 36.03125 96.542969 L 36.097656 96.558594 L 36.160156 96.578125 L 36.21875 96.597656 L 36.28125 96.621094 L 36.398438 96.667969 L 36.457031 96.695312 L 36.621094 96.789062 L 36.675781 96.824219 L 36.726562 96.859375 L 36.777344 96.898438 L 36.871094 96.976562 L 36.917969 97.019531 L 37.046875 97.160156 L 37.125 97.261719 L 37.195312 97.371094 L 37.257812 97.488281 L 37.285156 97.546875 L 37.332031 97.671875 L 37.355469 97.738281 L 37.375 97.804688 L 37.40625 97.945312 L 37.429688 97.945312 L 37.441406 97.875 L 37.472656 97.734375 L 37.511719 97.601562 L 37.535156 97.535156 L 37.5625 97.46875 L 37.585938 97.40625 L 37.648438 97.28125 L 37.710938 97.164062 L 37.746094 97.105469 L 37.824219 96.996094 L 37.910156 96.894531 L 37.957031 96.847656 L 38.058594 96.753906 L 38.160156 96.667969 L 38.21875 96.628906 L 38.273438 96.589844 L 38.332031 96.554688 L 38.394531 96.519531 L 38.457031 96.488281 L 38.523438 96.457031 L 38.589844 96.429688 L 38.660156 96.402344 L 38.730469 96.378906 L 38.804688 96.355469 L 38.878906 96.335938 L 39.035156 96.304688 L 39.117188 96.292969 L 39.28125 96.277344 L 39.367188 96.277344 Z M 35.566406 97.574219 L 35.503906 97.574219 L 35.386719 97.582031 L 35.328125 97.589844 L 35.269531 97.59375 L 35.214844 97.605469 L 35.15625 97.613281 L 35.101562 97.628906 L 35.050781 97.640625 L 34.949219 97.671875 L 34.898438 97.691406 L 34.851562 97.710938 L 34.757812 97.757812 L 34.714844 97.785156 L 34.675781 97.816406 L 34.632812 97.847656 L 34.597656 97.878906 L 34.558594 97.914062 L 34.488281 97.992188 L 34.453125 98.035156 L 34.421875 98.078125 L 34.367188 98.171875 L 34.339844 98.222656 L 34.292969 98.332031 L 34.273438 98.390625 L 34.25 98.449219 L 34.234375 98.511719 L 34.203125 98.644531 L 34.191406 98.714844 L 34.183594 98.789062 L 34.175781 98.867188 L 34.171875 98.945312 L 34.167969 99.027344 L 34.167969 99.191406 L 34.175781 99.347656 L 34.183594 99.421875 L 34.191406 99.492188 L 34.203125 99.5625 L 34.21875 99.628906 L 34.25 99.753906 L 34.273438 99.8125 L 34.292969 99.871094 L 34.316406 99.925781 L 34.339844 99.976562 L 34.367188 100.027344 L 34.421875 100.121094 L 34.453125 100.167969 L 34.488281 100.207031 L 34.523438 100.25 L 34.558594 100.289062 L 34.597656 100.324219 L 34.632812 100.355469 L 34.675781 100.386719 L 34.714844 100.417969 L 34.757812 100.445312 L 34.898438 100.515625 L 34.949219 100.535156 L 35.101562 100.582031 L 35.15625 100.59375 L 35.214844 100.605469 L 35.269531 100.613281 L 35.328125 100.621094 L 35.503906 100.632812 L 35.664062 100.632812 L 35.765625 100.625 L 35.96875 100.59375 L 36.070312 100.570312 L 36.171875 100.539062 L 36.222656 100.519531 L 36.269531 100.5 L 36.363281 100.453125 L 36.410156 100.425781 L 36.453125 100.398438 L 36.539062 100.335938 L 36.582031 100.300781 L 36.660156 100.222656 L 36.695312 100.179688 L 36.765625 100.085938 L 36.796875 100.035156 L 36.828125 99.980469 L 36.855469 99.925781 L 36.886719 99.867188 L 36.910156 99.804688 L 36.933594 99.738281 L 36.953125 99.671875 L 36.972656 99.601562 L 36.984375 99.523438 L 37 99.445312 L 37.007812 99.363281 L 37.015625 99.277344 L 37.019531 99.191406 L 37.019531 99 L 37.015625 98.90625 L 37.007812 98.816406 L 37 98.730469 L 36.984375 98.648438 L 36.972656 98.574219 L 36.953125 98.5 L 36.933594 98.429688 L 36.910156 98.363281 L 36.886719 98.300781 L 36.855469 98.242188 L 36.828125 98.183594 L 36.765625 98.082031 L 36.695312 97.988281 L 36.660156 97.945312 L 36.621094 97.90625 L 36.582031 97.871094 L 36.453125 97.777344 L 36.410156 97.75 L 36.316406 97.703125 L 36.269531 97.683594 L 36.222656 97.667969 L 36.121094 97.636719 L 36.070312 97.628906 L 36.019531 97.617188 L 35.867188 97.59375 L 35.816406 97.589844 L 35.765625 97.582031 L 35.714844 97.578125 L 35.664062 97.578125 L 35.617188 97.574219 Z M 39.359375 97.371094 L 39.296875 97.371094 L 39.121094 97.382812 L 39.066406 97.390625 L 39.007812 97.398438 L 38.949219 97.410156 L 38.894531 97.421875 L 38.785156 97.453125 L 38.726562 97.46875 L 38.671875 97.488281 L 38.570312 97.535156 L 38.519531 97.5625 L 38.378906 97.65625 L 38.25 97.773438 L 38.207031 97.820312 L 38.167969 97.867188 L 38.132812 97.914062 L 38.0625 98.023438 L 38 98.140625 L 37.945312 98.273438 L 37.921875 98.339844 L 37.875 98.488281 L 37.859375 98.566406 L 37.84375 98.648438 L 37.832031 98.734375 L 37.816406 98.914062 L 37.8125 99.011719 L 37.8125 99.203125 L 37.816406 99.289062 L 37.824219 99.375 L 37.832031 99.457031 L 37.84375 99.539062 L 37.859375 99.617188 L 37.875 99.691406 L 37.898438 99.765625 L 37.921875 99.835938 L 37.945312 99.902344 L 37.972656 99.964844 L 38 100.023438 L 38.0625 100.140625 L 38.097656 100.195312 L 38.132812 100.246094 L 38.167969 100.292969 L 38.207031 100.339844 L 38.25 100.386719 L 38.292969 100.429688 L 38.335938 100.46875 L 38.378906 100.503906 L 38.425781 100.539062 L 38.527344 100.601562 L 38.628906 100.65625 L 38.738281 100.703125 L 38.796875 100.722656 L 38.851562 100.738281 L 38.910156 100.753906 L 38.964844 100.769531 L 39.082031 100.792969 L 39.199219 100.808594 L 39.261719 100.8125 L 39.320312 100.8125 L 39.382812 100.816406 L 39.457031 100.8125 L 39.53125 100.8125 L 39.605469 100.808594 L 39.746094 100.792969 L 39.816406 100.78125 L 39.882812 100.769531 L 40.015625 100.738281 L 40.078125 100.722656 L 40.140625 100.703125 L 40.257812 100.65625 L 40.367188 100.601562 L 40.421875 100.570312 L 40.523438 100.5 L 40.617188 100.421875 L 40.703125 100.335938 L 40.742188 100.289062 L 40.78125 100.238281 L 40.816406 100.183594 L 40.878906 100.074219 L 40.910156 100.011719 L 40.9375 99.949219 L 40.964844 99.882812 L 40.988281 99.816406 L 41.007812 99.746094 L 41.027344 99.671875 L 41.042969 99.59375 L 41.054688 99.515625 L 41.066406 99.433594 L 41.074219 99.347656 L 41.082031 99.257812 L 41.085938 99.167969 L 41.085938 98.980469 L 41.082031 98.890625 L 41.074219 98.800781 L 41.066406 98.714844 L 41.054688 98.632812 L 41.042969 98.554688 L 41.027344 98.476562 L 41.007812 98.402344 L 40.988281 98.332031 L 40.964844 98.265625 L 40.910156 98.140625 L 40.847656 98.023438 L 40.816406 97.96875 L 40.78125 97.917969 L 40.703125 97.824219 L 40.617188 97.738281 L 40.570312 97.699219 L 40.523438 97.664062 L 40.472656 97.628906 L 40.421875 97.597656 L 40.3125 97.542969 L 40.253906 97.515625 L 40.136719 97.476562 L 40.074219 97.457031 L 39.941406 97.425781 L 39.871094 97.414062 L 39.804688 97.402344 L 39.734375 97.390625 L 39.660156 97.382812 L 39.511719 97.375 L 39.433594 97.371094 Z M 39.359375 97.371094 "/>
<path fill-rule="nonzero" fill="rgb(0%, 0%, 0%)" fill-opacity="1" d="M 41.761719 66.464844 L 40.863281 66.464844 L 40.863281 64.363281 L 34.511719 64.363281 L 35.84375 66.226562 L 34.847656 66.226562 L 33.503906 64.273438 L 33.503906 63.300781 L 40.863281 63.300781 L 40.863281 61.292969 L 41.761719 61.292969 Z M 41.761719 66.464844 "/>
<path fill-rule="nonzero" fill="rgb(0%, 0%, 0%)" fill-opacity="1" d="M 41.761719 59.609375 L 40.476562 59.609375 L 40.476562 58.46875 L 41.761719 58.46875 Z M 41.761719 59.609375 "/>
<path fill-rule="nonzero" fill="rgb(0%, 0%, 0%)" fill-opacity="1" d="M 37.628906 51.167969 L 37.863281 51.171875 L 38.089844 51.175781 L 38.308594 51.1875 L 38.519531 51.203125 L 38.726562 51.226562 L 38.921875 51.25 L 39.109375 51.28125 L 39.292969 51.3125 L 39.464844 51.351562 L 39.632812 51.394531 L 39.792969 51.441406 L 39.945312 51.492188 L 40.089844 51.546875 L 40.230469 51.601562 L 40.367188 51.660156 L 40.617188 51.792969 L 40.730469 51.863281 L 40.839844 51.933594 L 40.945312 52.011719 L 41.042969 52.089844 L 41.132812 52.171875 L 41.21875 52.257812 L 41.300781 52.34375 L 41.375 52.433594 L 41.441406 52.527344 L 41.503906 52.621094 L 41.5625 52.71875 L 41.613281 52.820312 L 41.660156 52.925781 L 41.703125 53.03125 L 41.738281 53.140625 L 41.800781 53.359375 L 41.824219 53.46875 L 41.84375 53.582031 L 41.859375 53.699219 L 41.875 53.933594 L 41.878906 54.050781 L 41.875 54.171875 L 41.859375 54.40625 L 41.84375 54.519531 L 41.824219 54.632812 L 41.800781 54.746094 L 41.738281 54.964844 L 41.703125 55.070312 L 41.660156 55.175781 L 41.613281 55.277344 L 41.5625 55.378906 L 41.503906 55.476562 L 41.441406 55.570312 L 41.375 55.664062 L 41.300781 55.753906 L 41.21875 55.839844 L 41.132812 55.925781 L 41.042969 56.003906 L 40.945312 56.082031 L 40.84375 56.160156 L 40.734375 56.230469 L 40.617188 56.296875 L 40.496094 56.363281 L 40.371094 56.425781 L 40.234375 56.484375 L 40.097656 56.539062 L 39.949219 56.59375 L 39.796875 56.640625 L 39.640625 56.6875 L 39.472656 56.730469 L 39.296875 56.765625 L 39.117188 56.796875 L 38.925781 56.828125 L 38.730469 56.851562 L 38.523438 56.871094 L 38.3125 56.882812 L 38.09375 56.894531 L 37.863281 56.902344 L 37.382812 56.902344 L 37.148438 56.894531 L 36.917969 56.882812 L 36.699219 56.871094 L 36.488281 56.851562 L 36.289062 56.828125 L 36.09375 56.796875 L 35.910156 56.765625 L 35.734375 56.730469 L 35.566406 56.6875 L 35.40625 56.640625 L 35.25 56.59375 L 35.105469 56.539062 L 34.964844 56.484375 L 34.828125 56.421875 L 34.703125 56.359375 L 34.582031 56.296875 L 34.46875 56.226562 L 34.359375 56.152344 L 34.261719 56.078125 L 34.164062 56 L 34.078125 55.917969 L 33.996094 55.832031 L 33.917969 55.746094 L 33.847656 55.65625 L 33.78125 55.5625 L 33.722656 55.46875 L 33.667969 55.371094 L 33.621094 55.269531 L 33.542969 55.058594 L 33.507812 54.949219 L 33.480469 54.839844 L 33.453125 54.726562 L 33.429688 54.613281 L 33.398438 54.378906 L 33.390625 54.261719 L 33.382812 54.140625 L 33.382812 53.898438 L 33.390625 53.78125 L 33.398438 53.667969 L 33.429688 53.441406 L 33.453125 53.332031 L 33.480469 53.222656 L 33.507812 53.117188 L 33.542969 53.011719 L 33.582031 52.90625 L 33.621094 52.804688 L 33.667969 52.703125 L 33.722656 52.605469 L 33.78125 52.511719 L 33.847656 52.421875 L 33.917969 52.332031 L 33.996094 52.242188 L 34.078125 52.160156 L 34.164062 52.078125 L 34.261719 52 L 34.359375 51.925781 L 34.46875 51.851562 L 34.582031 51.78125 L 34.703125 51.71875 L 34.828125 51.652344 L 34.964844 51.59375 L 35.105469 51.539062 L 35.25 51.484375 L 35.40625 51.4375 L 35.566406 51.390625 L 35.734375 51.347656 L 35.910156 51.308594 L 36.09375 51.277344 L 36.289062 51.25 L 36.488281 51.222656 L 36.699219 51.203125 L 36.917969 51.1875 L 37.148438 51.175781 L 37.382812 51.171875 Z M 37.628906 52.238281 L 37.4375 52.242188 L 37.25 52.246094 L 37.070312 52.25 L 36.894531 52.257812 L 36.726562 52.269531 L 36.566406 52.28125 L 36.414062 52.296875 L 36.269531 52.316406 L 36.128906 52.335938 L 35.996094 52.355469 L 35.867188 52.382812 L 35.742188 52.410156 L 35.625 52.4375 L 35.511719 52.46875 L 35.40625 52.503906 L 35.304688 52.539062 L 35.207031 52.574219 L 35.117188 52.617188 L 35.03125 52.660156 L 34.953125 52.703125 L 34.875 52.75 L 34.804688 52.796875 L 34.738281 52.851562 L 34.675781 52.902344 L 34.617188 52.957031 L 34.515625 53.074219 L 34.472656 53.136719 L 34.433594 53.199219 L 34.371094 53.332031 L 34.339844 53.402344 L 34.316406 53.472656 L 34.296875 53.542969 L 34.277344 53.617188 L 34.261719 53.691406 L 34.25 53.769531 L 34.242188 53.851562 L 34.238281 53.933594 L 34.238281 54.105469 L 34.242188 54.191406 L 34.25 54.273438 L 34.261719 54.355469 L 34.277344 54.433594 L 34.296875 54.511719 L 34.316406 54.585938 L 34.339844 54.660156 L 34.402344 54.800781 L 34.4375 54.867188 L 34.476562 54.933594 L 34.519531 54.996094 L 34.621094 55.113281 L 34.679688 55.171875 L 34.742188 55.226562 L 34.808594 55.277344 L 34.882812 55.328125 L 34.957031 55.375 L 35.121094 55.460938 L 35.214844 55.503906 L 35.308594 55.539062 L 35.410156 55.574219 L 35.519531 55.609375 L 35.628906 55.640625 L 35.871094 55.695312 L 36 55.71875 L 36.132812 55.742188 L 36.273438 55.761719 L 36.421875 55.78125 L 36.574219 55.796875 L 36.734375 55.808594 L 36.898438 55.820312 L 37.070312 55.828125 L 37.25 55.832031 L 37.4375 55.835938 L 37.816406 55.835938 L 37.996094 55.832031 L 38.171875 55.828125 L 38.339844 55.820312 L 38.503906 55.808594 L 38.660156 55.796875 L 38.8125 55.78125 L 38.957031 55.761719 L 39.09375 55.742188 L 39.230469 55.71875 L 39.355469 55.695312 L 39.480469 55.667969 L 39.597656 55.636719 L 39.707031 55.605469 L 39.816406 55.570312 L 39.917969 55.535156 L 40.015625 55.496094 L 40.109375 55.457031 L 40.195312 55.414062 L 40.277344 55.367188 L 40.355469 55.320312 L 40.425781 55.269531 L 40.492188 55.21875 L 40.558594 55.164062 L 40.617188 55.109375 L 40.671875 55.050781 L 40.722656 54.992188 L 40.808594 54.867188 L 40.847656 54.800781 L 40.878906 54.734375 L 40.933594 54.59375 L 40.953125 54.519531 L 40.972656 54.441406 L 40.988281 54.367188 L 41 54.289062 L 41.015625 54.125 L 41.015625 53.957031 L 41.007812 53.875 L 41 53.796875 L 40.988281 53.71875 L 40.972656 53.644531 L 40.933594 53.496094 L 40.878906 53.355469 L 40.847656 53.289062 L 40.808594 53.222656 L 40.722656 53.097656 L 40.671875 53.039062 L 40.617188 52.980469 L 40.558594 52.925781 L 40.492188 52.875 L 40.425781 52.820312 L 40.355469 52.773438 L 40.277344 52.726562 L 40.195312 52.679688 L 40.109375 52.636719 L 40.015625 52.597656 L 39.917969 52.558594 L 39.816406 52.519531 L 39.707031 52.484375 L 39.597656 52.453125 L 39.480469 52.421875 L 39.230469 52.367188 L 39.09375 52.34375 L 38.957031 52.324219 L 38.8125 52.304688 L 38.660156 52.285156 L 38.503906 52.273438 L 38.339844 52.261719 L 38.171875 52.25 L 37.996094 52.246094 L 37.816406 52.242188 Z M 37.628906 52.238281 "/>
</svg>
