<?xml version="1.0" encoding="UTF-8"?>
<svg xmlns="http://www.w3.org/2000/svg" xmlns:xlink="http://www.w3.org/1999/xlink" width="504" height="360" viewBox="0 0 504 360">
<rect x="-50.4" y="-36" width="604.8" height="432" fill="rgb(100%, 100%, 100%)" fill-opacity="1"/>
<path fill-rule="nonzero" fill="rgb(74.509804%, 74.509804%, 74.509804%)" fill-opacity="1" stroke-width="0.75" stroke-linecap="round" stroke-linejoin="round" stroke="rgb(0%, 0%, 0%)" stroke-opacity="1" stroke-miterlimit="10" d="M 63.144531 278.132812 L 462.136719 278.132812 L 462.136719 216.171875 L 63.144531 216.171875 Z M 63.144531 278.132812 "/>
<path fill-rule="nonzero" fill="rgb(74.509804%, 74.509804%, 74.509804%)" fill-opacity="1" stroke-width="0.75" stroke-linecap="round" stroke-linejoin="round" stroke="rgb(0%, 0%, 0%)" stroke-opacity="1" stroke-miterlimit="10" d="M 63.144531 203.78125 L 473.757812 203.78125 L 473.757812 141.820312 L 63.144531 141.820312 Z M 63.144531 203.78125 "/>
<path fill-rule="nonzero" fill="rgb(74.509804%, 74.509804%, 74.509804%)" fill-opacity="1" stroke-width="0.75" stroke-linecap="round" stroke-linejoin="round" stroke="rgb(0%, 0%, 0%)" stroke-opacity="1" stroke-miterlimit="10" d="M 63.144531 129.425781 L 159.988281 129.425781 L 159.988281 67.464844 L 63.144531 67.464844 Z M 63.144531 129.425781 "/>
<path fill-rule="nonzero" fill="rgb(0%, 0%, 0%)" fill-opacity="1" d="M 39.890625 245.328125 L 41.761719 245.328125 L 41.761719 246.324219 L 39.890625 246.324219 L 39.890625 250.214844 L 39.070312 250.214844 L 33.503906 246.433594 L 33.503906 245.328125 L 39.058594 245.328125 L 39.058594 244.167969 L 39.890625 244.167969 Z M 34.695312 246.324219 L 34.699219 246.328125 L 34.707031 246.328125 L 34.714844 246.335938 L 34.738281 246.34375 L 34.761719 246.359375 L 34.777344 246.363281 L 34.792969 246.375 L 34.8125 246.382812 L 34.828125 246.390625 L 34.84375 246.402344 L 34.863281 246.410156 L 34.878906 246.421875 L 34.898438 246.433594 L 34.917969 246.441406 L 34.976562 246.476562 L 35 246.488281 L 35.039062 246.511719 L 35.0625 246.523438 L 35.082031 246.535156 L 35.105469 246.546875 L 35.125 246.558594 L 35.148438 246.574219 L 35.171875 246.585938 L 35.191406 246.597656 L 35.214844 246.609375 L 35.234375 246.621094 L 35.257812 246.632812 L 35.273438 246.644531 L 35.3125 246.667969 L 35.328125 246.675781 L 35.34375 246.6875 L 35.359375 246.695312 L 35.375 246.707031 L 35.390625 246.714844 L 38.507812 248.832031 L 38.519531 248.835938 L 38.527344 248.84375 L 38.5625 248.867188 L 38.574219 248.878906 L 38.589844 248.886719 L 38.601562 248.898438 L 38.617188 248.90625 L 38.632812 248.917969 L 38.644531 248.929688 L 38.675781 248.953125 L 38.691406 248.960938 L 38.707031 248.972656 L 38.726562 248.984375 L 38.867188 249.089844 L 38.878906 249.101562 L 38.957031 249.160156 L 38.96875 249.171875 L 38.984375 249.179688 L 38.996094 249.191406 L 39.007812 249.199219 L 39.019531 249.210938 L 39.03125 249.21875 L 39.039062 249.226562 L 39.050781 249.234375 L 39.058594 249.242188 L 39.058594 246.324219 Z M 34.695312 246.324219 "/>
<path fill-rule="nonzero" fill="rgb(0%, 0%, 0%)" fill-opacity="1" d="M 36.1875 172.351562 L 41.761719 172.351562 L 41.761719 173.40625 L 36.1875 173.40625 L 36.1875 174.296875 L 35.421875 174.296875 L 35.421875 173.40625 L 34.636719 173.40625 L 34.570312 173.402344 L 34.503906 173.402344 L 34.4375 173.394531 L 34.371094 173.390625 L 34.246094 173.375 L 34.1875 173.363281 L 34.125 173.355469 L 34.066406 173.34375 L 33.949219 173.3125 L 33.839844 173.273438 L 33.738281 173.226562 L 33.6875 173.199219 L 33.640625 173.171875 L 33.59375 173.140625 L 33.550781 173.109375 L 33.464844 173.03125 L 33.425781 172.992188 L 33.390625 172.949219 L 33.351562 172.902344 L 33.289062 172.800781 L 33.257812 172.746094 L 33.230469 172.691406 L 33.207031 172.632812 L 33.179688 172.570312 L 33.160156 172.507812 L 33.121094 172.367188 L 33.097656 172.210938 L 33.089844 172.128906 L 33.082031 172.042969 L 33.078125 171.953125 L 33.078125 171.707031 L 33.082031 171.667969 L 33.082031 171.628906 L 33.085938 171.589844 L 33.085938 171.550781 L 33.109375 171.316406 L 33.117188 171.28125 L 33.121094 171.246094 L 33.128906 171.210938 L 33.132812 171.179688 L 33.140625 171.144531 L 33.148438 171.117188 L 33.949219 171.117188 L 33.941406 171.15625 L 33.9375 171.179688 L 33.9375 171.199219 L 33.929688 171.246094 L 33.925781 171.273438 L 33.925781 171.296875 L 33.921875 171.324219 L 33.921875 171.351562 L 33.917969 171.375 L 33.914062 171.402344 L 33.910156 171.425781 L 33.910156 171.449219 L 33.90625 171.472656 L 33.90625 171.496094 L 33.902344 171.519531 L 33.902344 171.628906 L 33.90625 171.675781 L 33.910156 171.71875 L 33.917969 171.796875 L 33.925781 171.835938 L 33.933594 171.871094 L 33.945312 171.90625 L 33.953125 171.941406 L 33.96875 171.972656 L 33.980469 172 L 34.011719 172.054688 L 34.027344 172.078125 L 34.085938 172.148438 L 34.109375 172.167969 L 34.128906 172.1875 L 34.15625 172.207031 L 34.179688 172.222656 L 34.203125 172.234375 L 34.230469 172.25 L 34.257812 172.261719 L 34.285156 172.277344 L 34.316406 172.285156 L 34.347656 172.296875 L 34.378906 172.304688 L 34.414062 172.316406 L 34.449219 172.324219 L 34.519531 172.332031 L 34.675781 172.347656 L 34.71875 172.347656 L 34.761719 172.351562 L 35.421875 172.351562 L 35.421875 171.117188 L 36.1875 171.117188 Z M 36.1875 172.351562 "/>
<path fill-rule="nonzero" fill="rgb(0%, 0%, 0%)" fill-opacity="1" d="M 41.761719 99.613281 L 36.65625 99.613281 L 36.613281 99.617188 L 36.449219 99.617188 L 36.410156 99.621094 L 36.167969 99.621094 L 36.128906 99.625 L 36.050781 99.625 L 36.011719 99.628906 L 35.902344 99.628906 L 35.863281 99.632812 L 35.792969 99.632812 L 35.757812 99.636719 L 35.691406 99.636719 L 35.660156 99.640625 L 35.5625 99.640625 L 35.535156 99.644531 L 35.476562 99.644531 L 35.449219 99.648438 L 35.421875 99.648438 L 35.421875 98.652344 L 35.449219 98.652344 L 35.476562 98.648438 L 35.535156 98.648438 L 35.566406 98.644531 L 35.660156 98.644531 L 35.695312 98.640625 L 35.730469 98.640625 L 35.765625 98.636719 L 35.800781 98.636719 L 35.832031 98.632812 L 35.867188 98.632812 L 35.902344 98.628906 L 35.9375 98.628906 L 35.972656 98.625 L 36.046875 98.625 L 36.082031 98.621094 L 36.117188 98.621094 L 36.15625 98.617188 L 36.226562 98.617188 L 36.261719 98.613281 L 36.367188 98.613281 L 36.398438 98.609375 L 36.527344 98.609375 L 36.558594 98.605469 L 36.714844 98.605469 L 36.714844 98.582031 L 36.574219 98.535156 L 36.507812 98.515625 L 36.375 98.46875 L 36.316406 98.445312 L 36.253906 98.421875 L 36.199219 98.394531 L 36.140625 98.371094 L 36.089844 98.347656 L 36.035156 98.320312 L 35.933594 98.265625 L 35.886719 98.238281 L 35.84375 98.207031 L 35.800781 98.179688 L 35.757812 98.148438 L 35.71875 98.113281 L 35.683594 98.082031 L 35.648438 98.046875 L 35.613281 98.015625 L 35.582031 97.976562 L 35.550781 97.941406 L 35.496094 97.863281 L 35.425781 97.734375 L 35.40625 97.691406 L 35.375 97.597656 L 35.359375 97.546875 L 35.347656 97.496094 L 35.324219 97.386719 L 35.316406 97.328125 L 35.3125 97.265625 L 35.304688 97.207031 L 35.304688 97 L 35.308594 96.976562 L 35.308594 96.949219 L 35.3125 96.925781 L 35.3125 96.902344 L 35.316406 96.878906 L 35.320312 96.851562 L 35.328125 96.828125 L 35.328125 96.808594 L 35.332031 96.785156 L 35.347656 96.707031 L 35.359375 96.660156 L 35.363281 96.648438 L 36.328125 96.648438 L 36.324219 96.667969 L 36.316406 96.691406 L 36.304688 96.761719 L 36.300781 96.789062 L 36.296875 96.8125 L 36.289062 96.867188 L 36.289062 96.894531 L 36.285156 96.921875 L 36.28125 96.953125 L 36.277344 96.980469 L 36.277344 97.011719 L 36.273438 97.042969 L 36.273438 97.074219 L 36.269531 97.109375 L 36.269531 97.28125 L 36.277344 97.351562 L 36.285156 97.417969 L 36.296875 97.484375 L 36.328125 97.609375 L 36.351562 97.667969 L 36.375 97.722656 L 36.402344 97.777344 L 36.433594 97.832031 L 36.46875 97.882812 L 36.503906 97.929688 L 36.542969 97.976562 L 36.628906 98.0625 L 36.675781 98.101562 L 36.777344 98.179688 L 36.832031 98.214844 L 36.949219 98.277344 L 37.011719 98.308594 L 37.074219 98.335938 L 37.140625 98.359375 L 37.207031 98.386719 L 37.277344 98.40625 L 37.351562 98.429688 L 37.425781 98.449219 L 37.582031 98.480469 L 37.664062 98.496094 L 37.828125 98.519531 L 37.914062 98.53125 L 38.085938 98.546875 L 38.175781 98.550781 L 38.269531 98.554688 L 38.359375 98.558594 L 41.761719 98.558594 Z M 41.761719 99.613281 "/>
<path fill="none" stroke-width="0.75" stroke-linecap="round" stroke-linejoin="round" stroke="rgb(0%, 0%, 0%)" stroke-opacity="1" stroke-miterlimit="10" d="M 63.144531 286.558594 L 450.519531 286.558594 "/>
<path fill="none" stroke-width="0.75" stroke-linecap="round" stroke-linejoin="round" stroke="rgb(0%, 0%, 0%)" stroke-opacity="1" stroke-miterlimit="10" d="M 63.144531 286.558594 L 63.144531 293.761719 "/>
<path fill="none" stroke-width="0.75" stroke-linecap="round" stroke-linejoin="round" stroke="rgb(0%, 0%, 0%)" stroke-opacity="1" stroke-miterlimit="10" d="M 140.621094 286.558594 L 140.621094 293.761719 "/>
<path fill="none" stroke-width="0.75" stroke-linecap="round" stroke-linejoin="round" stroke="rgb(0%, 0%, 0%)" stroke-opacity="1" stroke-miterlimit="10" d="M 218.09375 286.558594 L 218.09375 293.761719 "/>
<path fill="none" stroke-width="0.75" stroke-linecap="round" stroke-linejoin="round" stroke="rgb(0%, 0%, 0%)" stroke-opacity="1" stroke-miterlimit="10" d="M 295.570312 286.558594 L 295.570312 293.761719 "/>
<path fill="none" stroke-width="0.75" stroke-linecap="round" stroke-linejoin="round" stroke="rgb(0%, 0%, 0%)" stroke-opacity="1" stroke-miterlimit="10" d="M 373.042969 286.558594 L 373.042969 293.761719 "/>
<path fill="none" stroke-width="0.75" stroke-linecap="round" stroke-linejoin="round" stroke="rgb(0%, 0%, 0%)" stroke-opacity="1" stroke-miterlimit="10" d="M 450.519531 286.558594 L 450.519531 293.761719 "/>
<path fill-rule="nonzero" fill="rgb(0%, 0%, 0%)" fill-opacity="1" d="M 66.015625 308.347656 L 66.011719 308.582031 L 66.003906 308.808594 L 65.992188 309.027344 L 65.976562 309.242188 L 65.957031 309.445312 L 65.933594 309.640625 L 65.902344 309.832031 L 65.867188 310.011719 L 65.828125 310.1875 L 65.785156 310.351562 L 65.738281 310.511719 L 65.691406 310.664062 L 65.636719 310.8125 L 65.582031 310.953125 L 65.519531 311.085938 L 65.457031 311.214844 L 65.390625 311.335938 L 65.320312 311.453125 L 65.246094 311.5625 L 65.171875 311.664062 L 65.09375 311.761719 L 65.011719 311.855469 L 64.839844 312.019531 L 64.75 312.09375 L 64.65625 312.160156 L 64.558594 312.226562 L 64.460938 312.28125 L 64.359375 312.335938 L 64.257812 312.378906 L 64.148438 312.421875 L 64.042969 312.457031 L 63.933594 312.492188 L 63.824219 312.519531 L 63.710938 312.542969 L 63.597656 312.5625 L 63.484375 312.578125 L 63.367188 312.589844 L 63.132812 312.597656 L 63.011719 312.59375 L 62.894531 312.589844 L 62.777344 312.578125 L 62.660156 312.5625 L 62.546875 312.542969 L 62.4375 312.519531 L 62.328125 312.492188 L 62.21875 312.457031 L 62.113281 312.421875 L 61.902344 312.335938 L 61.707031 312.226562 L 61.609375 312.160156 L 61.519531 312.09375 L 61.429688 312.019531 L 61.257812 311.855469 L 61.175781 311.761719 L 61.097656 311.664062 L 61.023438 311.5625 L 60.953125 311.453125 L 60.882812 311.339844 L 60.820312 311.21875 L 60.757812 311.089844 L 60.699219 310.957031 L 60.644531 310.816406 L 60.589844 310.671875 L 60.539062 310.515625 L 60.496094 310.359375 L 60.453125 310.191406 L 60.417969 310.019531 L 60.382812 309.835938 L 60.355469 309.644531 L 60.332031 309.449219 L 60.3125 309.246094 L 60.296875 309.03125 L 60.285156 308.8125 L 60.28125 308.585938 L 60.277344 308.347656 L 60.28125 308.105469 L 60.285156 307.867188 L 60.296875 307.640625 L 60.3125 307.421875 L 60.332031 307.210938 L 60.355469 307.007812 L 60.382812 306.8125 L 60.417969 306.628906 L 60.453125 306.453125 L 60.496094 306.285156 L 60.539062 306.125 L 60.589844 305.972656 L 60.644531 305.824219 L 60.699219 305.683594 L 60.757812 305.550781 L 60.820312 305.421875 L 60.886719 305.300781 L 60.957031 305.1875 L 61.027344 305.082031 L 61.105469 304.980469 L 61.183594 304.886719 L 61.265625 304.796875 L 61.347656 304.714844 L 61.4375 304.636719 L 61.527344 304.566406 L 61.617188 304.5 L 61.714844 304.441406 L 61.8125 304.390625 L 61.914062 304.34375 L 62.019531 304.300781 L 62.125 304.261719 L 62.34375 304.199219 L 62.457031 304.171875 L 62.683594 304.132812 L 62.800781 304.117188 L 63.042969 304.101562 L 63.285156 304.101562 L 63.398438 304.109375 L 63.515625 304.117188 L 63.628906 304.132812 L 63.847656 304.171875 L 63.957031 304.199219 L 64.066406 304.230469 L 64.171875 304.261719 L 64.273438 304.300781 L 64.378906 304.34375 L 64.476562 304.390625 L 64.574219 304.441406 L 64.667969 304.5 L 64.761719 304.566406 L 64.851562 304.636719 L 64.9375 304.714844 L 65.023438 304.796875 L 65.105469 304.886719 L 65.183594 304.980469 L 65.257812 305.082031 L 65.332031 305.1875 L 65.398438 305.300781 L 65.464844 305.421875 L 65.527344 305.550781 L 65.585938 305.683594 L 65.644531 305.824219 L 65.695312 305.972656 L 65.746094 306.125 L 65.792969 306.285156 L 65.832031 306.453125 L 65.871094 306.628906 L 65.90625 306.8125 L 65.933594 307.007812 L 65.957031 307.210938 L 65.980469 307.421875 L 65.996094 307.640625 L 66.003906 307.867188 L 66.011719 308.105469 Z M 64.941406 308.347656 L 64.941406 308.15625 L 64.9375 307.96875 L 64.929688 307.789062 L 64.921875 307.613281 L 64.914062 307.449219 L 64.898438 307.289062 L 64.882812 307.132812 L 64.867188 306.988281 L 64.847656 306.847656 L 64.824219 306.714844 L 64.800781 306.585938 L 64.773438 306.460938 L 64.746094 306.34375 L 64.714844 306.234375 L 64.679688 306.125 L 64.644531 306.023438 L 64.605469 305.925781 L 64.566406 305.835938 L 64.523438 305.75 L 64.480469 305.671875 L 64.433594 305.59375 L 64.382812 305.523438 L 64.332031 305.457031 L 64.28125 305.394531 L 64.222656 305.335938 L 64.167969 305.285156 L 64.109375 305.238281 L 64.046875 305.191406 L 63.980469 305.15625 L 63.917969 305.121094 L 63.851562 305.089844 L 63.710938 305.035156 L 63.640625 305.015625 L 63.566406 304.996094 L 63.410156 304.972656 L 63.332031 304.964844 L 63.25 304.957031 L 63.078125 304.957031 L 62.992188 304.964844 L 62.910156 304.972656 L 62.746094 304.996094 L 62.671875 305.015625 L 62.59375 305.035156 L 62.523438 305.0625 L 62.449219 305.089844 L 62.382812 305.121094 L 62.316406 305.15625 L 62.25 305.195312 L 62.1875 305.238281 L 62.125 305.289062 L 62.066406 305.34375 L 62.011719 305.398438 L 61.957031 305.460938 L 61.855469 305.601562 L 61.808594 305.675781 L 61.761719 305.757812 L 61.71875 305.84375 L 61.679688 305.933594 L 61.640625 306.03125 L 61.605469 306.132812 L 61.574219 306.238281 L 61.542969 306.351562 L 61.511719 306.46875 L 61.484375 306.589844 L 61.460938 306.71875 L 61.4375 306.855469 L 61.417969 306.992188 L 61.402344 307.140625 L 61.386719 307.292969 L 61.375 307.453125 L 61.363281 307.617188 L 61.355469 307.792969 L 61.347656 307.972656 L 61.34375 308.15625 L 61.34375 308.535156 L 61.347656 308.71875 L 61.363281 309.0625 L 61.375 309.222656 L 61.386719 309.378906 L 61.402344 309.53125 L 61.417969 309.675781 L 61.4375 309.816406 L 61.460938 309.949219 L 61.488281 310.078125 L 61.515625 310.199219 L 61.542969 310.316406 L 61.578125 310.429688 L 61.609375 310.535156 L 61.648438 310.636719 L 61.683594 310.734375 L 61.726562 310.828125 L 61.769531 310.914062 L 61.8125 310.996094 L 61.859375 311.074219 L 61.960938 311.214844 L 62.015625 311.277344 L 62.128906 311.390625 L 62.191406 311.441406 L 62.25 311.488281 L 62.382812 311.566406 L 62.449219 311.597656 L 62.519531 311.628906 L 62.589844 311.652344 L 62.664062 311.675781 L 62.738281 311.695312 L 62.894531 311.71875 L 62.976562 311.730469 L 63.058594 311.734375 L 63.226562 311.734375 L 63.304688 311.730469 L 63.386719 311.71875 L 63.464844 311.707031 L 63.539062 311.695312 L 63.613281 311.675781 L 63.683594 311.652344 L 63.757812 311.628906 L 63.824219 311.597656 L 63.894531 311.566406 L 63.957031 311.527344 L 64.023438 311.488281 L 64.085938 311.441406 L 64.144531 311.390625 L 64.257812 311.277344 L 64.308594 311.214844 L 64.410156 311.074219 L 64.457031 310.996094 L 64.5 310.914062 L 64.546875 310.828125 L 64.585938 310.734375 L 64.625 310.636719 L 64.664062 310.535156 L 64.695312 310.429688 L 64.730469 310.316406 L 64.757812 310.199219 L 64.789062 310.078125 L 64.8125 309.949219 L 64.835938 309.816406 L 64.859375 309.675781 L 64.878906 309.53125 L 64.894531 309.378906 L 64.910156 309.222656 L 64.921875 309.0625 L 64.9375 308.71875 L 64.941406 308.535156 Z M 64.941406 308.347656 "/>
<path fill-rule="nonzero" fill="rgb(0%, 0%, 0%)" fill-opacity="1" d="M 134.550781 312.480469 L 134.550781 311.734375 L 134.609375 311.601562 L 134.675781 311.46875 L 134.742188 311.339844 L 134.808594 311.214844 L 134.882812 311.089844 L 135.03125 310.855469 L 135.109375 310.742188 L 135.191406 310.636719 L 135.277344 310.527344 L 135.363281 310.425781 L 135.453125 310.320312 L 135.539062 310.222656 L 135.71875 310.027344 L 135.902344 309.84375 L 136.089844 309.664062 L 136.183594 309.578125 L 136.28125 309.496094 L 136.375 309.410156 L 136.5625 309.246094 L 136.84375 309.011719 L 137.03125 308.863281 L 137.121094 308.789062 L 137.214844 308.714844 L 137.304688 308.644531 L 137.394531 308.570312 L 137.480469 308.496094 L 137.566406 308.425781 L 137.652344 308.351562 L 137.734375 308.28125 L 137.890625 308.132812 L 137.964844 308.0625 L 138.039062 307.988281 L 138.179688 307.839844 L 138.304688 307.691406 L 138.363281 307.613281 L 138.472656 307.457031 L 138.523438 307.378906 L 138.570312 307.300781 L 138.613281 307.21875 L 138.652344 307.136719 L 138.6875 307.050781 L 138.71875 306.964844 L 138.746094 306.875 L 138.765625 306.785156 L 138.78125 306.691406 L 138.792969 306.59375 L 138.800781 306.496094 L 138.804688 306.398438 L 138.804688 306.328125 L 138.800781 306.261719 L 138.792969 306.195312 L 138.789062 306.128906 L 138.777344 306.070312 L 138.765625 306.007812 L 138.753906 305.949219 L 138.738281 305.890625 L 138.699219 305.78125 L 138.652344 305.679688 L 138.625 305.628906 L 138.570312 305.535156 L 138.539062 305.492188 L 138.46875 305.40625 L 138.433594 305.367188 L 138.394531 305.332031 L 138.351562 305.296875 L 138.3125 305.261719 L 138.265625 305.230469 L 138.222656 305.203125 L 138.175781 305.171875 L 138.023438 305.101562 L 137.859375 305.042969 L 137.800781 305.027344 L 137.683594 305.003906 L 137.621094 304.992188 L 137.496094 304.976562 L 137.429688 304.972656 L 137.367188 304.96875 L 137.234375 304.96875 L 137.171875 304.972656 L 137.113281 304.976562 L 137.050781 304.980469 L 136.992188 304.992188 L 136.929688 305 L 136.8125 305.023438 L 136.757812 305.039062 L 136.699219 305.054688 L 136.644531 305.074219 L 136.59375 305.09375 L 136.539062 305.117188 L 136.488281 305.140625 L 136.441406 305.167969 L 136.390625 305.191406 L 136.296875 305.253906 L 136.253906 305.285156 L 136.207031 305.320312 L 136.164062 305.355469 L 136.046875 305.472656 L 136.011719 305.519531 L 135.976562 305.5625 L 135.941406 305.609375 L 135.910156 305.65625 L 135.878906 305.707031 L 135.851562 305.757812 L 135.824219 305.8125 L 135.777344 305.921875 L 135.738281 306.039062 L 135.707031 306.164062 L 135.695312 306.226562 L 135.683594 306.292969 L 135.675781 306.363281 L 134.597656 306.261719 L 134.609375 306.175781 L 134.625 306.085938 L 134.640625 306 L 134.660156 305.914062 L 134.683594 305.832031 L 134.710938 305.746094 L 134.738281 305.664062 L 134.769531 305.585938 L 134.804688 305.503906 L 134.882812 305.347656 L 134.925781 305.273438 L 134.972656 305.199219 L 135.019531 305.128906 L 135.128906 304.988281 L 135.1875 304.925781 L 135.246094 304.859375 L 135.308594 304.800781 L 135.375 304.738281 L 135.445312 304.679688 L 135.59375 304.570312 L 135.667969 304.519531 L 135.832031 304.425781 L 135.917969 304.382812 L 136.097656 304.304688 L 136.191406 304.269531 L 136.289062 304.238281 L 136.492188 304.183594 L 136.597656 304.164062 L 136.707031 304.144531 L 136.820312 304.128906 L 136.933594 304.117188 L 137.175781 304.101562 L 137.417969 304.101562 L 137.539062 304.105469 L 137.65625 304.113281 L 137.769531 304.125 L 137.878906 304.136719 L 137.988281 304.152344 L 138.09375 304.171875 L 138.296875 304.21875 L 138.394531 304.246094 L 138.488281 304.277344 L 138.667969 304.347656 L 138.753906 304.386719 L 138.835938 304.429688 L 138.914062 304.472656 L 138.992188 304.523438 L 139.066406 304.570312 L 139.136719 304.625 L 139.203125 304.679688 L 139.269531 304.738281 L 139.328125 304.800781 L 139.445312 304.933594 L 139.546875 305.074219 L 139.59375 305.148438 L 139.636719 305.226562 L 139.675781 305.308594 L 139.710938 305.390625 L 139.746094 305.476562 L 139.777344 305.5625 L 139.824219 305.75 L 139.84375 305.84375 L 139.859375 305.941406 L 139.871094 306.042969 L 139.882812 306.148438 L 139.886719 306.253906 L 139.886719 306.445312 L 139.882812 306.527344 L 139.875 306.609375 L 139.863281 306.6875 L 139.851562 306.769531 L 139.8125 306.925781 L 139.789062 307.003906 L 139.765625 307.078125 L 139.734375 307.152344 L 139.707031 307.226562 L 139.601562 307.449219 L 139.523438 307.589844 L 139.480469 307.660156 L 139.386719 307.800781 L 139.335938 307.867188 L 139.289062 307.9375 L 139.234375 308.003906 L 139.183594 308.070312 L 139.128906 308.136719 L 139.011719 308.269531 L 138.953125 308.332031 L 138.890625 308.398438 L 138.828125 308.460938 L 138.761719 308.523438 L 138.695312 308.589844 L 138.496094 308.777344 L 138.425781 308.839844 L 138.359375 308.902344 L 138.289062 308.960938 L 138.148438 309.085938 L 138.078125 309.144531 L 138.007812 309.207031 L 137.933594 309.265625 L 137.863281 309.324219 L 137.789062 309.386719 L 137.71875 309.445312 L 137.644531 309.503906 L 137.574219 309.5625 L 137.5 309.625 L 137.429688 309.683594 L 137.355469 309.742188 L 137.214844 309.859375 L 137.140625 309.921875 L 137.074219 309.980469 L 137.003906 310.039062 L 136.9375 310.097656 L 136.867188 310.15625 L 136.800781 310.214844 L 136.734375 310.277344 L 136.609375 310.394531 L 136.488281 310.515625 L 136.429688 310.578125 L 136.371094 310.636719 L 136.316406 310.699219 L 136.261719 310.757812 L 136.152344 310.882812 L 136.101562 310.945312 L 136.054688 311.007812 L 136.007812 311.066406 L 135.960938 311.128906 L 135.917969 311.191406 L 135.878906 311.257812 L 135.839844 311.320312 L 135.804688 311.386719 L 135.769531 311.449219 L 135.738281 311.515625 L 135.710938 311.582031 L 140.015625 311.582031 L 140.015625 312.480469 Z M 134.550781 312.480469 "/>
<path fill-rule="nonzero" fill="rgb(0%, 0%, 0%)" fill-opacity="1" d="M 146.824219 308.347656 L 146.824219 308.582031 L 146.816406 308.808594 L 146.804688 309.027344 L 146.789062 309.242188 L 146.769531 309.445312 L 146.742188 309.640625 L 146.714844 309.832031 L 146.679688 310.011719 L 146.640625 310.1875 L 146.597656 310.351562 L 146.550781 310.511719 L 146.5 310.664062 L 146.449219 310.8125 L 146.390625 310.953125 L 146.332031 311.085938 L 146.269531 311.214844 L 146.203125 311.335938 L 146.132812 311.453125 L 146.058594 311.5625 L 145.980469 311.664062 L 145.902344 311.761719 L 145.820312 311.855469 L 145.738281 311.9375 L 145.648438 312.019531 L 145.558594 312.09375 L 145.46875 312.160156 L 145.371094 312.226562 L 145.273438 312.28125 L 145.171875 312.335938 L 144.960938 312.421875 L 144.855469 312.457031 L 144.746094 312.492188 L 144.632812 312.519531 L 144.523438 312.542969 L 144.410156 312.5625 L 144.296875 312.578125 L 144.179688 312.589844 L 144.0625 312.59375 L 143.941406 312.597656 L 143.824219 312.59375 L 143.703125 312.589844 L 143.589844 312.578125 L 143.472656 312.5625 L 143.359375 312.542969 L 143.246094 312.519531 L 143.136719 312.492188 L 143.03125 312.457031 L 142.921875 312.421875 L 142.816406 312.378906 L 142.714844 312.335938 L 142.613281 312.28125 L 142.515625 312.226562 L 142.328125 312.09375 L 142.242188 312.019531 L 142.152344 311.9375 L 142.070312 311.855469 L 141.988281 311.761719 L 141.910156 311.664062 L 141.835938 311.5625 L 141.761719 311.453125 L 141.695312 311.339844 L 141.628906 311.21875 L 141.566406 311.089844 L 141.507812 310.957031 L 141.453125 310.816406 L 141.402344 310.671875 L 141.351562 310.515625 L 141.304688 310.359375 L 141.265625 310.191406 L 141.226562 310.019531 L 141.195312 309.835938 L 141.167969 309.644531 L 141.144531 309.449219 L 141.125 309.246094 L 141.109375 309.03125 L 141.097656 308.8125 L 141.089844 308.585938 L 141.089844 308.105469 L 141.097656 307.867188 L 141.109375 307.640625 L 141.125 307.421875 L 141.144531 307.210938 L 141.167969 307.007812 L 141.195312 306.8125 L 141.226562 306.628906 L 141.265625 306.453125 L 141.304688 306.285156 L 141.351562 306.125 L 141.402344 305.972656 L 141.453125 305.824219 L 141.511719 305.683594 L 141.570312 305.550781 L 141.632812 305.421875 L 141.699219 305.300781 L 141.765625 305.1875 L 141.839844 305.082031 L 141.914062 304.980469 L 141.992188 304.886719 L 142.074219 304.796875 L 142.160156 304.714844 L 142.246094 304.636719 L 142.335938 304.566406 L 142.429688 304.5 L 142.527344 304.441406 L 142.625 304.390625 L 142.726562 304.34375 L 142.828125 304.300781 L 142.9375 304.261719 L 143.042969 304.230469 L 143.152344 304.199219 L 143.265625 304.171875 L 143.378906 304.152344 L 143.496094 304.132812 L 143.613281 304.117188 L 143.855469 304.101562 L 144.09375 304.101562 L 144.210938 304.109375 L 144.324219 304.117188 L 144.4375 304.132812 L 144.550781 304.152344 L 144.660156 304.171875 L 144.769531 304.199219 L 144.980469 304.261719 L 145.085938 304.300781 L 145.1875 304.34375 L 145.289062 304.390625 L 145.386719 304.441406 L 145.480469 304.5 L 145.574219 304.566406 L 145.664062 304.636719 L 145.75 304.714844 L 145.832031 304.796875 L 145.914062 304.886719 L 145.992188 304.980469 L 146.070312 305.082031 L 146.140625 305.1875 L 146.210938 305.300781 L 146.277344 305.421875 L 146.339844 305.550781 L 146.398438 305.683594 L 146.453125 305.824219 L 146.507812 305.972656 L 146.558594 306.125 L 146.601562 306.285156 L 146.644531 306.453125 L 146.683594 306.628906 L 146.714844 306.8125 L 146.746094 307.007812 L 146.769531 307.210938 L 146.789062 307.421875 L 146.804688 307.640625 L 146.816406 307.867188 L 146.824219 308.105469 Z M 145.753906 308.347656 L 145.753906 308.15625 L 145.75 307.96875 L 145.742188 307.789062 L 145.734375 307.613281 L 145.722656 307.449219 L 145.710938 307.289062 L 145.695312 307.132812 L 145.679688 306.988281 L 145.660156 306.847656 L 145.636719 306.714844 L 145.613281 306.585938 L 145.585938 306.460938 L 145.554688 306.34375 L 145.492188 306.125 L 145.457031 306.023438 L 145.417969 305.925781 L 145.378906 305.835938 L 145.335938 305.75 L 145.242188 305.59375 L 145.195312 305.523438 L 145.144531 305.457031 L 145.089844 305.394531 L 145.035156 305.335938 L 144.976562 305.285156 L 144.917969 305.238281 L 144.855469 305.191406 L 144.792969 305.15625 L 144.726562 305.121094 L 144.660156 305.089844 L 144.59375 305.0625 L 144.523438 305.035156 L 144.375 304.996094 L 144.300781 304.984375 L 144.222656 304.972656 L 144.144531 304.964844 L 144.0625 304.957031 L 143.890625 304.957031 L 143.71875 304.972656 L 143.636719 304.984375 L 143.558594 304.996094 L 143.480469 305.015625 L 143.40625 305.035156 L 143.332031 305.0625 L 143.261719 305.089844 L 143.191406 305.121094 L 143.125 305.15625 L 143.0625 305.195312 L 143 305.238281 L 142.9375 305.289062 L 142.878906 305.34375 L 142.824219 305.398438 L 142.769531 305.460938 L 142.714844 305.53125 L 142.667969 305.601562 L 142.617188 305.675781 L 142.574219 305.757812 L 142.53125 305.84375 L 142.492188 305.933594 L 142.453125 306.03125 L 142.417969 306.132812 L 142.382812 306.238281 L 142.351562 306.351562 L 142.324219 306.46875 L 142.296875 306.589844 L 142.273438 306.71875 L 142.25 306.855469 L 142.230469 306.992188 L 142.214844 307.140625 L 142.199219 307.292969 L 142.183594 307.453125 L 142.175781 307.617188 L 142.167969 307.792969 L 142.160156 307.972656 L 142.15625 308.15625 L 142.15625 308.535156 L 142.160156 308.71875 L 142.175781 309.0625 L 142.183594 309.222656 L 142.199219 309.378906 L 142.214844 309.53125 L 142.230469 309.675781 L 142.25 309.816406 L 142.273438 309.949219 L 142.296875 310.078125 L 142.328125 310.199219 L 142.355469 310.316406 L 142.386719 310.429688 L 142.421875 310.535156 L 142.457031 310.636719 L 142.496094 310.734375 L 142.539062 310.828125 L 142.578125 310.914062 L 142.625 310.996094 L 142.671875 311.074219 L 142.773438 311.214844 L 142.828125 311.277344 L 142.882812 311.335938 L 142.941406 311.390625 L 143 311.441406 L 143.0625 311.488281 L 143.125 311.527344 L 143.191406 311.566406 L 143.261719 311.597656 L 143.328125 311.628906 L 143.476562 311.675781 L 143.550781 311.695312 L 143.785156 311.730469 L 143.871094 311.734375 L 144.035156 311.734375 L 144.117188 311.730469 L 144.351562 311.695312 L 144.425781 311.675781 L 144.566406 311.628906 L 144.636719 311.597656 L 144.703125 311.566406 L 144.769531 311.527344 L 144.832031 311.488281 L 144.894531 311.441406 L 144.953125 311.390625 L 145.011719 311.335938 L 145.066406 311.277344 L 145.121094 311.214844 L 145.171875 311.144531 L 145.21875 311.074219 L 145.265625 310.996094 L 145.3125 310.914062 L 145.355469 310.828125 L 145.398438 310.734375 L 145.4375 310.636719 L 145.472656 310.535156 L 145.507812 310.429688 L 145.539062 310.316406 L 145.570312 310.199219 L 145.597656 310.078125 L 145.625 309.949219 L 145.648438 309.816406 L 145.671875 309.675781 L 145.691406 309.53125 L 145.707031 309.378906 L 145.722656 309.222656 L 145.734375 309.0625 L 145.75 308.71875 L 145.753906 308.535156 Z M 145.753906 308.347656 "/>
<path fill-rule="nonzero" fill="rgb(0%, 0%, 0%)" fill-opacity="1" d="M 216.582031 310.609375 L 216.582031 312.480469 L 215.585938 312.480469 L 215.585938 310.609375 L 211.695312 310.609375 L 211.695312 309.789062 L 215.476562 304.222656 L 216.582031 304.222656 L 216.582031 309.777344 L 217.742188 309.777344 L 217.742188 310.609375 Z M 215.585938 305.414062 L 215.585938 305.421875 L 215.582031 305.425781 L 215.578125 305.4375 L 215.570312 305.445312 L 215.566406 305.457031 L 215.558594 305.46875 L 215.554688 305.484375 L 215.546875 305.496094 L 215.539062 305.515625 L 215.527344 305.53125 L 215.519531 305.546875 L 215.507812 305.566406 L 215.5 305.582031 L 215.488281 305.601562 L 215.480469 305.617188 L 215.445312 305.675781 L 215.433594 305.699219 L 215.410156 305.738281 L 215.398438 305.761719 L 215.386719 305.78125 L 215.375 305.804688 L 215.363281 305.824219 L 215.351562 305.847656 L 215.339844 305.867188 L 215.324219 305.890625 L 215.3125 305.914062 L 215.300781 305.933594 L 215.289062 305.957031 L 215.253906 306.015625 L 215.246094 306.03125 L 215.234375 306.050781 L 215.222656 306.066406 L 215.214844 306.082031 L 215.203125 306.097656 L 215.195312 306.109375 L 213.078125 309.226562 L 213.074219 309.238281 L 213.066406 309.246094 L 213.035156 309.292969 L 213.023438 309.308594 L 213.011719 309.320312 L 213.003906 309.335938 L 212.96875 309.382812 L 212.960938 309.398438 L 212.785156 309.632812 L 212.773438 309.644531 L 212.738281 309.691406 L 212.730469 309.703125 L 212.71875 309.71875 L 212.710938 309.730469 L 212.691406 309.75 L 212.683594 309.761719 L 212.667969 309.777344 L 215.585938 309.777344 Z M 215.585938 305.414062 "/>
<path fill-rule="nonzero" fill="rgb(0%, 0%, 0%)" fill-opacity="1" d="M 224.300781 308.347656 L 224.296875 308.582031 L 224.289062 308.808594 L 224.277344 309.027344 L 224.261719 309.242188 L 224.242188 309.445312 L 224.21875 309.640625 L 224.1875 309.832031 L 224.152344 310.011719 L 224.113281 310.1875 L 224.070312 310.351562 L 224.023438 310.511719 L 223.976562 310.664062 L 223.921875 310.8125 L 223.867188 310.953125 L 223.804688 311.085938 L 223.742188 311.214844 L 223.675781 311.335938 L 223.605469 311.453125 L 223.53125 311.5625 L 223.457031 311.664062 L 223.378906 311.761719 L 223.296875 311.855469 L 223.125 312.019531 L 223.035156 312.09375 L 222.847656 312.226562 L 222.644531 312.335938 L 222.542969 312.378906 L 222.4375 312.421875 L 222.21875 312.492188 L 222.109375 312.519531 L 221.996094 312.542969 L 221.882812 312.5625 L 221.769531 312.578125 L 221.652344 312.589844 L 221.417969 312.597656 L 221.296875 312.59375 L 221.179688 312.589844 L 221.0625 312.578125 L 220.949219 312.5625 L 220.835938 312.542969 L 220.722656 312.519531 L 220.613281 312.492188 L 220.503906 312.457031 L 220.398438 312.421875 L 220.1875 312.335938 L 219.992188 312.226562 L 219.894531 312.160156 L 219.804688 312.09375 L 219.714844 312.019531 L 219.542969 311.855469 L 219.460938 311.761719 L 219.382812 311.664062 L 219.308594 311.5625 L 219.238281 311.453125 L 219.167969 311.339844 L 219.105469 311.21875 L 219.042969 311.089844 L 218.984375 310.957031 L 218.929688 310.816406 L 218.875 310.671875 L 218.78125 310.359375 L 218.738281 310.191406 L 218.703125 310.019531 L 218.667969 309.835938 L 218.640625 309.644531 L 218.617188 309.449219 L 218.597656 309.246094 L 218.582031 309.03125 L 218.570312 308.8125 L 218.566406 308.585938 L 218.5625 308.347656 L 218.566406 308.105469 L 218.570312 307.867188 L 218.582031 307.640625 L 218.597656 307.421875 L 218.617188 307.210938 L 218.640625 307.007812 L 218.667969 306.8125 L 218.703125 306.628906 L 218.738281 306.453125 L 218.78125 306.285156 L 218.828125 306.125 L 218.875 305.972656 L 218.929688 305.824219 L 218.984375 305.683594 L 219.042969 305.550781 L 219.105469 305.421875 L 219.171875 305.300781 L 219.242188 305.1875 L 219.3125 305.082031 L 219.390625 304.980469 L 219.46875 304.886719 L 219.550781 304.796875 L 219.632812 304.714844 L 219.722656 304.636719 L 219.8125 304.566406 L 219.90625 304.5 L 220 304.441406 L 220.097656 304.390625 L 220.199219 304.34375 L 220.304688 304.300781 L 220.410156 304.261719 L 220.628906 304.199219 L 220.742188 304.171875 L 220.96875 304.132812 L 221.089844 304.117188 L 221.207031 304.109375 L 221.328125 304.101562 L 221.570312 304.101562 L 221.6875 304.109375 L 221.800781 304.117188 L 221.914062 304.132812 L 222.023438 304.152344 L 222.136719 304.171875 L 222.242188 304.199219 L 222.351562 304.230469 L 222.457031 304.261719 L 222.558594 304.300781 L 222.664062 304.34375 L 222.761719 304.390625 L 222.859375 304.441406 L 222.957031 304.5 L 223.046875 304.566406 L 223.136719 304.636719 L 223.222656 304.714844 L 223.308594 304.796875 L 223.390625 304.886719 L 223.46875 304.980469 L 223.542969 305.082031 L 223.617188 305.1875 L 223.683594 305.300781 L 223.75 305.421875 L 223.8125 305.550781 L 223.871094 305.683594 L 223.929688 305.824219 L 223.980469 305.972656 L 224.03125 306.125 L 224.078125 306.285156 L 224.121094 306.453125 L 224.15625 306.628906 L 224.191406 306.8125 L 224.21875 307.007812 L 224.246094 307.210938 L 224.265625 307.421875 L 224.28125 307.640625 L 224.289062 307.867188 L 224.296875 308.105469 Z M 223.226562 308.347656 L 223.226562 308.15625 L 223.222656 307.96875 L 223.21875 307.789062 L 223.207031 307.613281 L 223.199219 307.449219 L 223.183594 307.289062 L 223.171875 307.132812 L 223.152344 306.988281 L 223.132812 306.847656 L 223.109375 306.714844 L 223.085938 306.585938 L 223.058594 306.460938 L 223.03125 306.34375 L 223 306.234375 L 222.964844 306.125 L 222.929688 306.023438 L 222.890625 305.925781 L 222.851562 305.835938 L 222.808594 305.75 L 222.765625 305.671875 L 222.71875 305.59375 L 222.667969 305.523438 L 222.617188 305.457031 L 222.566406 305.394531 L 222.511719 305.335938 L 222.453125 305.285156 L 222.394531 305.238281 L 222.332031 305.191406 L 222.269531 305.15625 L 222.203125 305.121094 L 222.136719 305.089844 L 221.996094 305.035156 L 221.925781 305.015625 L 221.851562 304.996094 L 221.695312 304.972656 L 221.617188 304.964844 L 221.535156 304.957031 L 221.363281 304.957031 L 221.277344 304.964844 L 221.195312 304.972656 L 221.113281 304.984375 L 221.035156 304.996094 L 220.878906 305.035156 L 220.808594 305.0625 L 220.734375 305.089844 L 220.667969 305.121094 L 220.601562 305.15625 L 220.535156 305.195312 L 220.472656 305.238281 L 220.410156 305.289062 L 220.355469 305.34375 L 220.296875 305.398438 L 220.242188 305.460938 L 220.140625 305.601562 L 220.09375 305.675781 L 220.046875 305.757812 L 220.003906 305.84375 L 219.964844 305.933594 L 219.929688 306.03125 L 219.890625 306.132812 L 219.859375 306.238281 L 219.828125 306.351562 L 219.796875 306.46875 L 219.773438 306.589844 L 219.746094 306.71875 L 219.726562 306.855469 L 219.703125 306.992188 L 219.6875 307.140625 L 219.671875 307.292969 L 219.660156 307.453125 L 219.648438 307.617188 L 219.640625 307.792969 L 219.632812 307.972656 L 219.632812 308.15625 L 219.628906 308.347656 L 219.632812 308.535156 L 219.632812 308.71875 L 219.648438 309.0625 L 219.660156 309.222656 L 219.671875 309.378906 L 219.6875 309.53125 L 219.703125 309.675781 L 219.726562 309.816406 L 219.746094 309.949219 L 219.773438 310.078125 L 219.800781 310.199219 L 219.832031 310.316406 L 219.863281 310.429688 L 219.898438 310.535156 L 219.933594 310.636719 L 219.972656 310.734375 L 220.011719 310.828125 L 220.054688 310.914062 L 220.097656 310.996094 L 220.148438 311.074219 L 220.195312 311.144531 L 220.25 311.214844 L 220.300781 311.277344 L 220.414062 311.390625 L 220.476562 311.441406 L 220.539062 311.488281 L 220.601562 311.527344 L 220.667969 311.566406 L 220.734375 311.597656 L 220.804688 311.628906 L 220.875 311.652344 L 220.949219 311.675781 L 221.023438 311.695312 L 221.179688 311.71875 L 221.261719 311.730469 L 221.34375 311.734375 L 221.511719 311.734375 L 221.59375 311.730469 L 221.75 311.707031 L 221.824219 311.695312 L 221.898438 311.675781 L 221.972656 311.652344 L 222.042969 311.628906 L 222.109375 311.597656 L 222.179688 311.566406 L 222.246094 311.527344 L 222.308594 311.488281 L 222.371094 311.441406 L 222.429688 311.390625 L 222.488281 311.335938 L 222.542969 311.277344 L 222.59375 311.214844 L 222.695312 311.074219 L 222.742188 310.996094 L 222.785156 310.914062 L 222.832031 310.828125 L 222.871094 310.734375 L 222.910156 310.636719 L 222.949219 310.535156 L 222.980469 310.429688 L 223.015625 310.316406 L 223.046875 310.199219 L 223.074219 310.078125 L 223.097656 309.949219 L 223.125 309.816406 L 223.144531 309.675781 L 223.164062 309.53125 L 223.179688 309.378906 L 223.195312 309.222656 L 223.207031 309.0625 L 223.222656 308.71875 L 223.226562 308.535156 Z M 223.226562 308.347656 "/>
<path fill-rule="nonzero" fill="rgb(0%, 0%, 0%)" fill-opacity="1" d="M 295.042969 309.777344 L 295.039062 309.902344 L 295.035156 310.023438 L 295.027344 310.140625 L 295.011719 310.261719 L 294.996094 310.375 L 294.976562 310.488281 L 294.957031 310.597656 L 294.929688 310.707031 L 294.898438 310.816406 L 294.867188 310.921875 L 294.832031 311.023438 L 294.792969 311.121094 L 294.75 311.21875 L 294.703125 311.3125 L 294.652344 311.402344 L 294.601562 311.488281 L 294.542969 311.574219 L 294.484375 311.65625 L 294.421875 311.734375 L 294.355469 311.8125 L 294.289062 311.882812 L 294.214844 311.953125 L 294.140625 312.019531 L 294.0625 312.082031 L 293.980469 312.140625 L 293.894531 312.199219 L 293.808594 312.25 L 293.71875 312.300781 L 293.621094 312.347656 L 293.523438 312.390625 L 293.421875 312.429688 L 293.320312 312.464844 L 293.210938 312.496094 L 293.101562 312.523438 L 292.988281 312.546875 L 292.753906 312.578125 L 292.628906 312.589844 L 292.503906 312.59375 L 292.375 312.597656 L 292.234375 312.59375 L 292.09375 312.585938 L 291.960938 312.574219 L 291.828125 312.554688 L 291.699219 312.527344 L 291.578125 312.5 L 291.457031 312.460938 L 291.339844 312.421875 L 291.226562 312.375 L 291.117188 312.320312 L 291.011719 312.265625 L 290.90625 312.203125 L 290.808594 312.136719 L 290.621094 311.988281 L 290.535156 311.90625 L 290.449219 311.820312 L 290.292969 311.632812 L 290.21875 311.53125 L 290.148438 311.425781 L 290.082031 311.3125 L 290.019531 311.199219 L 289.960938 311.078125 L 289.90625 310.953125 L 289.855469 310.824219 L 289.804688 310.6875 L 289.761719 310.550781 L 289.71875 310.40625 L 289.679688 310.257812 L 289.648438 310.105469 L 289.617188 309.949219 L 289.589844 309.789062 L 289.566406 309.621094 L 289.546875 309.453125 L 289.53125 309.277344 L 289.519531 309.101562 L 289.511719 308.917969 L 289.507812 308.734375 L 289.503906 308.542969 L 289.507812 308.324219 L 289.511719 308.113281 L 289.523438 307.90625 L 289.535156 307.703125 L 289.554688 307.507812 L 289.578125 307.316406 L 289.601562 307.132812 L 289.632812 306.953125 L 289.664062 306.777344 L 289.703125 306.609375 L 289.746094 306.445312 L 289.792969 306.289062 L 289.84375 306.132812 L 289.894531 305.988281 L 289.953125 305.847656 L 290.011719 305.710938 L 290.078125 305.578125 L 290.144531 305.453125 L 290.214844 305.335938 L 290.289062 305.21875 L 290.367188 305.113281 L 290.449219 305.007812 L 290.53125 304.910156 L 290.621094 304.820312 L 290.710938 304.734375 L 290.804688 304.652344 L 290.902344 304.574219 L 291.003906 304.507812 L 291.109375 304.441406 L 291.214844 304.382812 L 291.328125 304.328125 L 291.441406 304.28125 L 291.558594 304.238281 L 291.679688 304.203125 L 291.800781 304.171875 L 291.925781 304.144531 L 292.054688 304.125 L 292.1875 304.113281 L 292.320312 304.105469 L 292.457031 304.101562 L 292.542969 304.101562 L 292.707031 304.109375 L 292.785156 304.113281 L 292.867188 304.125 L 292.945312 304.132812 L 293.023438 304.144531 L 293.097656 304.15625 L 293.175781 304.171875 L 293.25 304.1875 L 293.320312 304.207031 L 293.394531 304.230469 L 293.464844 304.25 L 293.53125 304.277344 L 293.601562 304.304688 L 293.667969 304.335938 L 293.730469 304.367188 L 293.855469 304.4375 L 293.917969 304.476562 L 293.976562 304.515625 L 294.035156 304.558594 L 294.09375 304.605469 L 294.148438 304.652344 L 294.203125 304.703125 L 294.253906 304.753906 L 294.304688 304.808594 L 294.355469 304.867188 L 294.449219 304.992188 L 294.496094 305.058594 L 294.539062 305.125 L 294.617188 305.273438 L 294.65625 305.351562 L 294.691406 305.429688 L 294.753906 305.601562 L 294.785156 305.691406 L 294.8125 305.78125 L 293.804688 305.964844 L 293.769531 305.859375 L 293.730469 305.761719 L 293.6875 305.671875 L 293.640625 305.585938 L 293.589844 305.507812 L 293.535156 305.433594 L 293.476562 305.363281 L 293.414062 305.300781 L 293.347656 305.246094 L 293.277344 305.195312 L 293.207031 305.152344 L 293.128906 305.109375 L 293.054688 305.074219 L 292.972656 305.042969 L 292.890625 305.015625 L 292.808594 304.996094 L 292.71875 304.976562 L 292.632812 304.964844 L 292.539062 304.957031 L 292.359375 304.957031 L 292.277344 304.964844 L 292.191406 304.976562 L 292.113281 304.988281 L 292.03125 305.007812 L 291.957031 305.03125 L 291.878906 305.058594 L 291.804688 305.085938 L 291.730469 305.121094 L 291.660156 305.160156 L 291.589844 305.203125 L 291.523438 305.25 L 291.398438 305.359375 L 291.335938 305.417969 L 291.277344 305.480469 L 291.21875 305.550781 L 291.164062 305.621094 L 291.113281 305.695312 L 291.0625 305.777344 L 291.015625 305.859375 L 290.96875 305.945312 L 290.882812 306.132812 L 290.84375 306.234375 L 290.773438 306.445312 L 290.742188 306.558594 L 290.710938 306.675781 L 290.683594 306.796875 L 290.65625 306.921875 L 290.636719 307.050781 L 290.617188 307.183594 L 290.601562 307.320312 L 290.585938 307.464844 L 290.574219 307.609375 L 290.566406 307.757812 L 290.558594 307.910156 L 290.554688 308.070312 L 290.554688 308.230469 L 290.613281 308.128906 L 290.675781 308.027344 L 290.746094 307.933594 L 290.820312 307.847656 L 290.898438 307.761719 L 290.980469 307.683594 L 291.070312 307.613281 L 291.164062 307.542969 L 291.261719 307.480469 L 291.363281 307.421875 L 291.46875 307.371094 L 291.578125 307.320312 L 291.6875 307.28125 L 291.804688 307.242188 L 291.921875 307.210938 L 292.042969 307.1875 L 292.167969 307.167969 L 292.292969 307.152344 L 292.425781 307.144531 L 292.558594 307.140625 L 292.777344 307.148438 L 292.886719 307.160156 L 292.992188 307.171875 L 293.09375 307.1875 L 293.195312 307.207031 L 293.292969 307.230469 L 293.390625 307.257812 L 293.484375 307.289062 L 293.578125 307.324219 L 293.667969 307.363281 L 293.753906 307.402344 L 293.839844 307.449219 L 293.921875 307.496094 L 294 307.546875 L 294.078125 307.601562 L 294.152344 307.660156 L 294.222656 307.71875 L 294.355469 307.851562 L 294.421875 307.921875 L 294.480469 307.992188 L 294.539062 308.070312 L 294.59375 308.148438 L 294.695312 308.3125 L 294.742188 308.402344 L 294.785156 308.492188 L 294.824219 308.585938 L 294.894531 308.78125 L 294.925781 308.882812 L 294.953125 308.984375 L 294.976562 309.09375 L 294.996094 309.199219 L 295.011719 309.3125 L 295.035156 309.539062 L 295.039062 309.65625 Z M 293.96875 309.824219 L 293.96875 309.742188 L 293.964844 309.65625 L 293.960938 309.578125 L 293.953125 309.496094 L 293.941406 309.417969 L 293.929688 309.34375 L 293.917969 309.265625 L 293.902344 309.195312 L 293.882812 309.121094 L 293.863281 309.050781 L 293.84375 308.984375 L 293.816406 308.917969 L 293.792969 308.855469 L 293.761719 308.792969 L 293.699219 308.675781 L 293.628906 308.566406 L 293.589844 308.515625 L 293.546875 308.464844 L 293.460938 308.371094 L 293.410156 308.328125 L 293.363281 308.289062 L 293.3125 308.25 L 293.203125 308.179688 L 293.085938 308.117188 L 293.027344 308.089844 L 292.964844 308.066406 L 292.898438 308.042969 L 292.832031 308.023438 L 292.761719 308.003906 L 292.691406 307.992188 L 292.617188 307.976562 L 292.542969 307.96875 L 292.464844 307.960938 L 292.386719 307.957031 L 292.246094 307.957031 L 292.191406 307.960938 L 292.074219 307.96875 L 292.015625 307.980469 L 291.957031 307.988281 L 291.902344 308 L 291.84375 308.011719 L 291.726562 308.042969 L 291.609375 308.082031 L 291.5 308.128906 L 291.445312 308.15625 L 291.394531 308.183594 L 291.339844 308.214844 L 291.289062 308.246094 L 291.242188 308.28125 L 291.191406 308.320312 L 291.144531 308.359375 L 291.101562 308.398438 L 291.058594 308.445312 L 291.019531 308.488281 L 290.976562 308.539062 L 290.941406 308.589844 L 290.902344 308.644531 L 290.871094 308.699219 L 290.835938 308.757812 L 290.804688 308.816406 L 290.777344 308.882812 L 290.730469 309.015625 L 290.710938 309.089844 L 290.695312 309.164062 L 290.683594 309.238281 L 290.671875 309.320312 L 290.664062 309.402344 L 290.660156 309.484375 L 290.660156 309.664062 L 290.667969 309.84375 L 290.675781 309.929688 L 290.699219 310.101562 L 290.714844 310.183594 L 290.753906 310.347656 L 290.777344 310.429688 L 290.800781 310.507812 L 290.855469 310.65625 L 290.917969 310.796875 L 290.988281 310.929688 L 291.066406 311.054688 L 291.109375 311.113281 L 291.15625 311.171875 L 291.25 311.28125 L 291.300781 311.328125 L 291.355469 311.378906 L 291.464844 311.464844 L 291.582031 311.542969 L 291.644531 311.578125 L 291.769531 311.640625 L 291.902344 311.6875 L 291.972656 311.707031 L 292.042969 311.71875 L 292.117188 311.730469 L 292.1875 311.742188 L 292.265625 311.746094 L 292.414062 311.746094 L 292.488281 311.742188 L 292.5625 311.734375 L 292.632812 311.726562 L 292.699219 311.714844 L 292.769531 311.703125 L 292.832031 311.683594 L 292.898438 311.664062 L 292.960938 311.644531 L 293.019531 311.617188 L 293.082031 311.589844 L 293.136719 311.558594 L 293.195312 311.527344 L 293.25 311.492188 L 293.300781 311.457031 L 293.351562 311.417969 L 293.402344 311.375 L 293.449219 311.332031 L 293.535156 311.238281 L 293.578125 311.1875 L 293.617188 311.132812 L 293.652344 311.078125 L 293.722656 310.960938 L 293.753906 310.898438 L 293.835938 310.699219 L 293.859375 310.628906 L 293.898438 310.480469 L 293.914062 310.40625 L 293.929688 310.328125 L 293.941406 310.25 L 293.953125 310.167969 L 293.960938 310.085938 L 293.96875 309.914062 Z M 293.96875 309.824219 "/>
<path fill-rule="nonzero" fill="rgb(0%, 0%, 0%)" fill-opacity="1" d="M 301.773438 308.347656 L 301.773438 308.582031 L 301.765625 308.808594 L 301.753906 309.027344 L 301.738281 309.242188 L 301.71875 309.445312 L 301.691406 309.640625 L 301.664062 309.832031 L 301.628906 310.011719 L 301.589844 310.1875 L 301.546875 310.351562 L 301.5 310.511719 L 301.449219 310.664062 L 301.398438 310.8125 L 301.339844 310.953125 L 301.28125 311.085938 L 301.21875 311.214844 L 301.152344 311.335938 L 301.082031 311.453125 L 301.007812 311.5625 L 300.929688 311.664062 L 300.851562 311.761719 L 300.769531 311.855469 L 300.6875 311.9375 L 300.597656 312.019531 L 300.507812 312.09375 L 300.320312 312.226562 L 300.222656 312.28125 L 300.121094 312.335938 L 299.910156 312.421875 L 299.800781 312.457031 L 299.695312 312.492188 L 299.582031 312.519531 L 299.472656 312.542969 L 299.359375 312.5625 L 299.242188 312.578125 L 299.128906 312.589844 L 299.011719 312.59375 L 298.890625 312.597656 L 298.769531 312.59375 L 298.652344 312.589844 L 298.535156 312.578125 L 298.421875 312.5625 L 298.308594 312.542969 L 298.195312 312.519531 L 298.085938 312.492188 L 297.976562 312.457031 L 297.871094 312.421875 L 297.765625 312.378906 L 297.664062 312.335938 L 297.5625 312.28125 L 297.464844 312.226562 L 297.277344 312.09375 L 297.1875 312.019531 L 297.101562 311.9375 L 297.019531 311.855469 L 296.9375 311.761719 L 296.859375 311.664062 L 296.785156 311.5625 L 296.710938 311.453125 L 296.644531 311.339844 L 296.578125 311.21875 L 296.515625 311.089844 L 296.457031 310.957031 L 296.402344 310.816406 L 296.351562 310.671875 L 296.300781 310.515625 L 296.253906 310.359375 L 296.214844 310.191406 L 296.175781 310.019531 L 296.144531 309.835938 L 296.117188 309.644531 L 296.09375 309.449219 L 296.074219 309.246094 L 296.058594 309.03125 L 296.046875 308.8125 L 296.039062 308.585938 L 296.039062 308.105469 L 296.046875 307.867188 L 296.058594 307.640625 L 296.074219 307.421875 L 296.09375 307.210938 L 296.117188 307.007812 L 296.144531 306.8125 L 296.175781 306.628906 L 296.214844 306.453125 L 296.253906 306.285156 L 296.300781 306.125 L 296.351562 305.972656 L 296.402344 305.824219 L 296.460938 305.683594 L 296.519531 305.550781 L 296.582031 305.421875 L 296.648438 305.300781 L 296.714844 305.1875 L 296.789062 305.082031 L 296.863281 304.980469 L 296.941406 304.886719 L 297.023438 304.796875 L 297.109375 304.714844 L 297.195312 304.636719 L 297.285156 304.566406 L 297.378906 304.5 L 297.472656 304.441406 L 297.574219 304.390625 L 297.675781 304.34375 L 297.777344 304.300781 L 297.882812 304.261719 L 298.101562 304.199219 L 298.214844 304.171875 L 298.328125 304.152344 L 298.445312 304.132812 L 298.5625 304.117188 L 298.804688 304.101562 L 299.042969 304.101562 L 299.160156 304.109375 L 299.273438 304.117188 L 299.386719 304.132812 L 299.5 304.152344 L 299.609375 304.171875 L 299.71875 304.199219 L 299.929688 304.261719 L 300.035156 304.300781 L 300.136719 304.34375 L 300.238281 304.390625 L 300.335938 304.441406 L 300.429688 304.5 L 300.523438 304.566406 L 300.609375 304.636719 L 300.699219 304.714844 L 300.78125 304.796875 L 300.863281 304.886719 L 300.941406 304.980469 L 301.019531 305.082031 L 301.089844 305.1875 L 301.160156 305.300781 L 301.226562 305.421875 L 301.289062 305.550781 L 301.347656 305.683594 L 301.402344 305.824219 L 301.457031 305.972656 L 301.503906 306.125 L 301.550781 306.285156 L 301.59375 306.453125 L 301.632812 306.628906 L 301.664062 306.8125 L 301.695312 307.007812 L 301.71875 307.210938 L 301.738281 307.421875 L 301.753906 307.640625 L 301.765625 307.867188 L 301.773438 308.105469 Z M 300.703125 308.347656 L 300.699219 308.15625 L 300.695312 307.96875 L 300.691406 307.789062 L 300.683594 307.613281 L 300.671875 307.449219 L 300.660156 307.289062 L 300.644531 307.132812 L 300.625 306.988281 L 300.605469 306.847656 L 300.585938 306.714844 L 300.558594 306.585938 L 300.535156 306.460938 L 300.503906 306.34375 L 300.441406 306.125 L 300.402344 306.023438 L 300.367188 305.925781 L 300.324219 305.835938 L 300.285156 305.75 L 300.191406 305.59375 L 300.144531 305.523438 L 300.09375 305.457031 L 300.039062 305.394531 L 299.984375 305.335938 L 299.925781 305.285156 L 299.867188 305.238281 L 299.804688 305.191406 L 299.742188 305.15625 L 299.675781 305.121094 L 299.609375 305.089844 L 299.542969 305.0625 L 299.472656 305.035156 L 299.324219 304.996094 L 299.25 304.984375 L 299.171875 304.972656 L 299.089844 304.964844 L 299.011719 304.957031 L 298.839844 304.957031 L 298.667969 304.972656 L 298.585938 304.984375 L 298.507812 304.996094 L 298.429688 305.015625 L 298.355469 305.035156 L 298.28125 305.0625 L 298.210938 305.089844 L 298.140625 305.121094 L 298.074219 305.15625 L 298.007812 305.195312 L 297.945312 305.238281 L 297.886719 305.289062 L 297.828125 305.34375 L 297.773438 305.398438 L 297.71875 305.460938 L 297.664062 305.53125 L 297.613281 305.601562 L 297.566406 305.675781 L 297.523438 305.757812 L 297.480469 305.84375 L 297.441406 305.933594 L 297.402344 306.03125 L 297.367188 306.132812 L 297.332031 306.238281 L 297.300781 306.351562 L 297.273438 306.46875 L 297.246094 306.589844 L 297.222656 306.71875 L 297.199219 306.855469 L 297.179688 306.992188 L 297.160156 307.140625 L 297.144531 307.292969 L 297.132812 307.453125 L 297.121094 307.617188 L 297.113281 307.792969 L 297.109375 307.972656 L 297.105469 308.15625 L 297.105469 308.535156 L 297.109375 308.71875 L 297.113281 308.890625 L 297.121094 309.0625 L 297.132812 309.222656 L 297.144531 309.378906 L 297.160156 309.53125 L 297.179688 309.675781 L 297.199219 309.816406 L 297.222656 309.949219 L 297.246094 310.078125 L 297.273438 310.199219 L 297.304688 310.316406 L 297.335938 310.429688 L 297.371094 310.535156 L 297.40625 310.636719 L 297.445312 310.734375 L 297.484375 310.828125 L 297.527344 310.914062 L 297.574219 310.996094 L 297.621094 311.074219 L 297.722656 311.214844 L 297.777344 311.277344 L 297.832031 311.335938 L 297.890625 311.390625 L 297.949219 311.441406 L 298.011719 311.488281 L 298.074219 311.527344 L 298.140625 311.566406 L 298.210938 311.597656 L 298.277344 311.628906 L 298.351562 311.652344 L 298.421875 311.675781 L 298.5 311.695312 L 298.574219 311.707031 L 298.65625 311.71875 L 298.734375 311.730469 L 298.820312 311.734375 L 298.984375 311.734375 L 299.066406 311.730469 L 299.222656 311.707031 L 299.296875 311.695312 L 299.371094 311.675781 L 299.445312 311.652344 L 299.515625 311.628906 L 299.585938 311.597656 L 299.652344 311.566406 L 299.71875 311.527344 L 299.78125 311.488281 L 299.84375 311.441406 L 299.902344 311.390625 L 299.960938 311.335938 L 300.015625 311.277344 L 300.070312 311.214844 L 300.121094 311.144531 L 300.167969 311.074219 L 300.214844 310.996094 L 300.261719 310.914062 L 300.304688 310.828125 L 300.347656 310.734375 L 300.386719 310.636719 L 300.421875 310.535156 L 300.457031 310.429688 L 300.488281 310.316406 L 300.519531 310.199219 L 300.546875 310.078125 L 300.574219 309.949219 L 300.597656 309.816406 L 300.621094 309.675781 L 300.640625 309.53125 L 300.65625 309.378906 L 300.667969 309.222656 L 300.679688 309.0625 L 300.691406 308.890625 L 300.695312 308.71875 L 300.699219 308.535156 Z M 300.703125 308.347656 "/>
<path fill-rule="nonzero" fill="rgb(0%, 0%, 0%)" fill-opacity="1" d="M 372.523438 310.175781 L 372.515625 310.386719 L 372.507812 310.484375 L 372.496094 310.585938 L 372.480469 310.683594 L 372.460938 310.78125 L 372.414062 310.96875 L 372.351562 311.148438 L 372.316406 311.238281 L 372.238281 311.402344 L 372.191406 311.484375 L 372.140625 311.558594 L 372.089844 311.636719 L 372.035156 311.707031 L 371.910156 311.847656 L 371.84375 311.910156 L 371.773438 311.976562 L 371.699219 312.035156 L 371.621094 312.09375 L 371.539062 312.148438 L 371.453125 312.199219 L 371.273438 312.292969 L 371.175781 312.335938 L 371.074219 312.378906 L 370.96875 312.414062 L 370.859375 312.449219 L 370.75 312.480469 L 370.632812 312.507812 L 370.511719 312.53125 L 370.386719 312.550781 L 370.128906 312.582031 L 369.992188 312.589844 L 369.710938 312.597656 L 369.566406 312.59375 L 369.425781 312.589844 L 369.289062 312.582031 L 369.03125 312.550781 L 368.90625 312.53125 L 368.785156 312.507812 L 368.671875 312.480469 L 368.558594 312.449219 L 368.449219 312.414062 L 368.347656 312.378906 L 368.246094 312.335938 L 368.148438 312.292969 L 368.054688 312.25 L 367.964844 312.199219 L 367.878906 312.148438 L 367.796875 312.09375 L 367.71875 312.039062 L 367.644531 311.980469 L 367.570312 311.917969 L 367.503906 311.851562 L 367.441406 311.785156 L 367.378906 311.714844 L 367.269531 311.566406 L 367.21875 311.488281 L 367.171875 311.410156 L 367.128906 311.328125 L 367.089844 311.242188 L 367.054688 311.15625 L 367.023438 311.066406 L 366.996094 310.976562 L 366.949219 310.789062 L 366.917969 310.59375 L 366.90625 310.496094 L 366.898438 310.394531 L 366.894531 310.292969 L 366.890625 310.1875 L 366.890625 310.101562 L 366.894531 310.011719 L 366.902344 309.925781 L 366.925781 309.761719 L 366.957031 309.605469 L 366.976562 309.53125 L 367 309.457031 L 367.054688 309.316406 L 367.117188 309.183594 L 367.1875 309.058594 L 367.265625 308.941406 L 367.308594 308.886719 L 367.351562 308.835938 L 367.394531 308.78125 L 367.441406 308.730469 L 367.492188 308.683594 L 367.539062 308.636719 L 367.59375 308.59375 L 367.644531 308.550781 L 367.699219 308.511719 L 367.75 308.472656 L 367.808594 308.4375 L 367.863281 308.402344 L 367.921875 308.371094 L 367.980469 308.34375 L 368.042969 308.3125 L 368.101562 308.289062 L 368.164062 308.261719 L 368.289062 308.222656 L 368.347656 308.203125 L 368.472656 308.171875 L 368.539062 308.160156 L 368.539062 308.136719 L 368.46875 308.121094 L 368.402344 308.101562 L 368.335938 308.078125 L 368.273438 308.058594 L 368.148438 308.003906 L 367.972656 307.910156 L 367.917969 307.875 L 367.863281 307.835938 L 367.8125 307.800781 L 367.761719 307.757812 L 367.714844 307.71875 L 367.621094 307.632812 L 367.578125 307.585938 L 367.539062 307.539062 L 367.496094 307.492188 L 367.425781 307.390625 L 367.390625 307.335938 L 367.296875 307.171875 L 367.269531 307.113281 L 367.222656 306.996094 L 367.199219 306.933594 L 367.160156 306.808594 L 367.128906 306.683594 L 367.117188 306.617188 L 367.109375 306.554688 L 367.097656 306.488281 L 367.09375 306.421875 L 367.089844 306.351562 L 367.085938 306.285156 L 367.085938 306.128906 L 367.089844 306.046875 L 367.097656 305.960938 L 367.109375 305.878906 L 367.125 305.796875 L 367.144531 305.714844 L 367.164062 305.636719 L 367.1875 305.554688 L 367.21875 305.480469 L 367.25 305.402344 L 367.285156 305.324219 L 367.324219 305.25 L 367.363281 305.179688 L 367.457031 305.039062 L 367.507812 304.972656 L 367.5625 304.910156 L 367.621094 304.847656 L 367.683594 304.785156 L 367.746094 304.726562 L 367.8125 304.671875 L 367.882812 304.617188 L 367.957031 304.5625 L 368.113281 304.46875 L 368.195312 304.421875 L 368.285156 304.382812 L 368.371094 304.34375 L 368.464844 304.304688 L 368.5625 304.269531 L 368.660156 304.238281 L 368.761719 304.210938 L 368.867188 304.183594 L 368.972656 304.164062 L 369.085938 304.144531 L 369.199219 304.128906 L 369.316406 304.117188 L 369.558594 304.101562 L 369.820312 304.101562 L 369.949219 304.109375 L 370.074219 304.117188 L 370.195312 304.128906 L 370.3125 304.144531 L 370.429688 304.164062 L 370.539062 304.183594 L 370.648438 304.210938 L 370.75 304.238281 L 370.851562 304.269531 L 370.949219 304.304688 L 371.136719 304.382812 L 371.222656 304.425781 L 371.386719 304.519531 L 371.464844 304.570312 L 371.535156 304.621094 L 371.605469 304.675781 L 371.671875 304.734375 L 371.796875 304.851562 L 371.855469 304.914062 L 371.957031 305.046875 L 372.003906 305.113281 L 372.046875 305.183594 L 372.089844 305.257812 L 372.160156 305.40625 L 372.214844 305.5625 L 372.261719 305.726562 L 372.277344 305.804688 L 372.292969 305.890625 L 372.308594 306.054688 L 372.316406 306.140625 L 372.316406 306.296875 L 372.308594 306.429688 L 372.292969 306.5625 L 372.28125 306.625 L 372.269531 306.691406 L 372.253906 306.753906 L 372.234375 306.816406 L 372.21875 306.878906 L 372.199219 306.941406 L 372.128906 307.117188 L 372.101562 307.175781 L 372.070312 307.230469 L 372.039062 307.289062 L 372.007812 307.339844 L 371.972656 307.394531 L 371.9375 307.445312 L 371.898438 307.496094 L 371.820312 307.589844 L 371.777344 307.636719 L 371.636719 307.765625 L 371.585938 307.804688 L 371.53125 307.84375 L 371.480469 307.878906 L 371.425781 307.914062 L 371.308594 307.976562 L 371.25 308.003906 L 371.1875 308.03125 L 371.125 308.054688 L 370.992188 308.09375 L 370.921875 308.113281 L 370.851562 308.125 L 370.851562 308.148438 L 370.921875 308.164062 L 370.992188 308.175781 L 371.0625 308.195312 L 371.128906 308.210938 L 371.328125 308.28125 L 371.453125 308.335938 L 371.515625 308.367188 L 371.574219 308.398438 L 371.691406 308.46875 L 371.746094 308.503906 L 371.796875 308.546875 L 371.851562 308.585938 L 371.902344 308.632812 L 371.996094 308.726562 L 372.042969 308.777344 L 372.085938 308.828125 L 372.125 308.882812 L 372.167969 308.9375 L 372.203125 308.996094 L 372.242188 309.054688 L 372.273438 309.113281 L 372.308594 309.179688 L 372.335938 309.242188 L 372.367188 309.3125 L 372.394531 309.378906 L 372.417969 309.453125 L 372.4375 309.523438 L 372.457031 309.601562 L 372.476562 309.675781 L 372.488281 309.753906 L 372.511719 309.917969 Z M 371.222656 306.285156 L 371.21875 306.226562 L 371.21875 306.164062 L 371.214844 306.105469 L 371.199219 305.988281 L 371.191406 305.933594 L 371.15625 305.769531 L 371.140625 305.71875 L 371.121094 305.667969 L 371.105469 305.617188 L 371.082031 305.570312 L 371.0625 305.523438 L 370.980469 305.394531 L 370.917969 305.316406 L 370.882812 305.277344 L 370.804688 305.207031 L 370.71875 305.144531 L 370.671875 305.113281 L 370.625 305.085938 L 370.574219 305.058594 L 370.464844 305.011719 L 370.347656 304.972656 L 370.285156 304.953125 L 370.21875 304.9375 L 370.152344 304.925781 L 370.078125 304.914062 L 370.007812 304.902344 L 369.929688 304.894531 L 369.851562 304.890625 L 369.769531 304.886719 L 369.605469 304.886719 L 369.523438 304.890625 L 369.449219 304.894531 L 369.375 304.902344 L 369.300781 304.914062 L 369.167969 304.9375 L 369.101562 304.953125 L 368.925781 305.011719 L 368.871094 305.035156 L 368.820312 305.058594 L 368.71875 305.113281 L 368.675781 305.144531 L 368.628906 305.175781 L 368.585938 305.207031 L 368.507812 305.277344 L 368.472656 305.316406 L 368.410156 305.394531 L 368.378906 305.4375 L 368.324219 305.523438 L 368.304688 305.570312 L 368.28125 305.617188 L 368.261719 305.667969 L 368.230469 305.769531 L 368.214844 305.824219 L 368.191406 305.933594 L 368.183594 305.988281 L 368.167969 306.105469 L 368.164062 306.164062 L 368.164062 306.386719 L 368.167969 306.433594 L 368.171875 306.484375 L 368.203125 306.6875 L 368.226562 306.789062 L 368.273438 306.941406 L 368.296875 306.988281 L 368.316406 307.035156 L 368.34375 307.082031 L 368.367188 307.128906 L 368.460938 307.257812 L 368.496094 307.300781 L 368.574219 307.378906 L 368.617188 307.414062 L 368.664062 307.453125 L 368.710938 307.484375 L 368.761719 307.515625 L 368.871094 307.578125 L 368.929688 307.605469 L 369.054688 307.652344 L 369.195312 307.691406 L 369.269531 307.707031 L 369.351562 307.71875 L 369.515625 307.734375 L 369.605469 307.738281 L 369.796875 307.738281 L 369.890625 307.734375 L 369.980469 307.726562 L 370.0625 307.71875 L 370.144531 307.707031 L 370.222656 307.691406 L 370.296875 307.671875 L 370.367188 307.652344 L 370.433594 307.628906 L 370.496094 307.605469 L 370.554688 307.578125 L 370.664062 307.515625 L 370.714844 307.484375 L 370.761719 307.453125 L 370.808594 307.414062 L 370.847656 307.378906 L 370.925781 307.300781 L 371.019531 307.171875 L 371.046875 307.128906 L 371.09375 307.035156 L 371.113281 306.988281 L 371.128906 306.941406 L 371.144531 306.890625 L 371.179688 306.738281 L 371.203125 306.585938 L 371.214844 306.433594 L 371.21875 306.386719 L 371.21875 306.335938 Z M 371.425781 310.078125 L 371.425781 310.019531 L 371.414062 309.84375 L 371.398438 309.726562 L 371.386719 309.671875 L 371.375 309.613281 L 371.328125 309.449219 L 371.308594 309.394531 L 371.285156 309.339844 L 371.261719 309.289062 L 371.234375 309.238281 L 371.171875 309.144531 L 371.136719 309.097656 L 371.101562 309.054688 L 371.023438 308.96875 L 370.882812 308.851562 L 370.773438 308.78125 L 370.714844 308.75 L 370.652344 308.71875 L 370.589844 308.691406 L 370.523438 308.664062 L 370.457031 308.640625 L 370.382812 308.617188 L 370.308594 308.597656 L 370.230469 308.578125 L 370.148438 308.566406 L 370.0625 308.550781 L 369.972656 308.542969 L 369.878906 308.535156 L 369.785156 308.53125 L 369.59375 308.53125 L 369.507812 308.535156 L 369.335938 308.550781 L 369.257812 308.566406 L 369.179688 308.578125 L 369.03125 308.617188 L 368.960938 308.640625 L 368.894531 308.664062 L 368.769531 308.71875 L 368.710938 308.75 L 368.65625 308.78125 L 368.601562 308.816406 L 368.550781 308.851562 L 368.5 308.890625 L 368.453125 308.929688 L 368.410156 308.96875 L 368.367188 309.011719 L 368.328125 309.054688 L 368.257812 309.148438 L 368.226562 309.195312 L 368.195312 309.246094 L 368.140625 309.347656 L 368.09375 309.457031 L 368.074219 309.515625 L 368.058594 309.570312 L 368.039062 309.628906 L 368.027344 309.6875 L 368.015625 309.742188 L 368.003906 309.800781 L 367.996094 309.859375 L 367.988281 309.921875 L 367.980469 310.039062 L 367.980469 310.175781 L 367.988281 310.324219 L 368.003906 310.464844 L 368.015625 310.535156 L 368.039062 310.667969 L 368.058594 310.734375 L 368.074219 310.796875 L 368.09375 310.859375 L 368.140625 310.976562 L 368.167969 311.035156 L 368.195312 311.089844 L 368.226562 311.140625 L 368.296875 311.242188 L 368.332031 311.289062 L 368.375 311.335938 L 368.414062 311.382812 L 368.507812 311.460938 L 368.558594 311.5 L 368.609375 311.535156 L 368.664062 311.570312 L 368.722656 311.601562 L 368.847656 311.65625 L 368.914062 311.683594 L 368.980469 311.707031 L 369.050781 311.726562 L 369.125 311.746094 L 369.28125 311.777344 L 369.363281 311.785156 L 369.449219 311.796875 L 369.535156 311.800781 L 369.628906 311.804688 L 369.816406 311.804688 L 369.996094 311.796875 L 370.082031 311.785156 L 370.164062 311.777344 L 370.320312 311.746094 L 370.460938 311.707031 L 370.53125 311.683594 L 370.65625 311.628906 L 370.714844 311.601562 L 370.773438 311.570312 L 370.824219 311.535156 L 370.878906 311.5 L 370.972656 311.421875 L 371.015625 311.382812 L 371.058594 311.335938 L 371.097656 311.289062 L 371.132812 311.242188 L 371.167969 311.191406 L 371.199219 311.140625 L 371.253906 311.03125 L 371.300781 310.914062 L 371.320312 310.855469 L 371.339844 310.792969 L 371.371094 310.660156 L 371.382812 310.59375 L 371.394531 310.523438 L 371.402344 310.453125 L 371.414062 310.378906 L 371.417969 310.308594 L 371.421875 310.230469 L 371.425781 310.15625 Z M 371.425781 310.078125 "/>
<path fill-rule="nonzero" fill="rgb(0%, 0%, 0%)" fill-opacity="1" d="M 379.25 308.347656 L 379.246094 308.582031 L 379.238281 308.808594 L 379.226562 309.027344 L 379.210938 309.242188 L 379.191406 309.445312 L 379.167969 309.640625 L 379.136719 309.832031 L 379.101562 310.011719 L 379.0625 310.1875 L 379.019531 310.351562 L 378.972656 310.511719 L 378.925781 310.664062 L 378.871094 310.8125 L 378.816406 310.953125 L 378.753906 311.085938 L 378.691406 311.214844 L 378.625 311.335938 L 378.554688 311.453125 L 378.480469 311.5625 L 378.40625 311.664062 L 378.324219 311.761719 L 378.246094 311.855469 L 378.074219 312.019531 L 377.984375 312.09375 L 377.890625 312.160156 L 377.792969 312.226562 L 377.695312 312.28125 L 377.59375 312.335938 L 377.492188 312.378906 L 377.382812 312.421875 L 377.277344 312.457031 L 377.167969 312.492188 L 377.058594 312.519531 L 376.945312 312.542969 L 376.832031 312.5625 L 376.71875 312.578125 L 376.601562 312.589844 L 376.367188 312.597656 L 376.246094 312.59375 L 376.128906 312.589844 L 376.011719 312.578125 L 375.894531 312.5625 L 375.78125 312.542969 L 375.671875 312.519531 L 375.5625 312.492188 L 375.453125 312.457031 L 375.347656 312.421875 L 375.136719 312.335938 L 374.941406 312.226562 L 374.84375 312.160156 L 374.753906 312.09375 L 374.664062 312.019531 L 374.492188 311.855469 L 374.410156 311.761719 L 374.332031 311.664062 L 374.257812 311.5625 L 374.1875 311.453125 L 374.117188 311.339844 L 374.054688 311.21875 L 373.992188 311.089844 L 373.933594 310.957031 L 373.875 310.816406 L 373.824219 310.671875 L 373.773438 310.515625 L 373.730469 310.359375 L 373.6875 310.191406 L 373.652344 310.019531 L 373.617188 309.835938 L 373.589844 309.644531 L 373.566406 309.449219 L 373.546875 309.246094 L 373.53125 309.03125 L 373.519531 308.8125 L 373.515625 308.585938 L 373.511719 308.347656 L 373.515625 308.105469 L 373.519531 307.867188 L 373.53125 307.640625 L 373.546875 307.421875 L 373.566406 307.210938 L 373.589844 307.007812 L 373.617188 306.8125 L 373.652344 306.628906 L 373.6875 306.453125 L 373.730469 306.285156 L 373.773438 306.125 L 373.824219 305.972656 L 373.878906 305.824219 L 373.933594 305.683594 L 373.992188 305.550781 L 374.054688 305.421875 L 374.121094 305.300781 L 374.191406 305.1875 L 374.261719 305.082031 L 374.339844 304.980469 L 374.417969 304.886719 L 374.5 304.796875 L 374.582031 304.714844 L 374.671875 304.636719 L 374.761719 304.566406 L 374.851562 304.5 L 374.949219 304.441406 L 375.046875 304.390625 L 375.148438 304.34375 L 375.253906 304.300781 L 375.359375 304.261719 L 375.578125 304.199219 L 375.6875 304.171875 L 375.804688 304.152344 L 375.917969 304.132812 L 376.035156 304.117188 L 376.277344 304.101562 L 376.519531 304.101562 L 376.632812 304.109375 L 376.75 304.117188 L 376.863281 304.132812 L 377.082031 304.171875 L 377.191406 304.199219 L 377.300781 304.230469 L 377.40625 304.261719 L 377.507812 304.300781 L 377.609375 304.34375 L 377.710938 304.390625 L 377.808594 304.441406 L 377.902344 304.5 L 377.996094 304.566406 L 378.085938 304.636719 L 378.171875 304.714844 L 378.257812 304.796875 L 378.335938 304.886719 L 378.417969 304.980469 L 378.492188 305.082031 L 378.566406 305.1875 L 378.632812 305.300781 L 378.699219 305.421875 L 378.761719 305.550781 L 378.820312 305.683594 L 378.878906 305.824219 L 378.929688 305.972656 L 378.980469 306.125 L 379.027344 306.285156 L 379.066406 306.453125 L 379.105469 306.628906 L 379.140625 306.8125 L 379.167969 307.007812 L 379.191406 307.210938 L 379.210938 307.421875 L 379.226562 307.640625 L 379.238281 307.867188 L 379.246094 308.105469 Z M 378.175781 308.347656 L 378.175781 308.15625 L 378.171875 307.96875 L 378.164062 307.789062 L 378.15625 307.613281 L 378.148438 307.449219 L 378.132812 307.289062 L 378.117188 307.132812 L 378.101562 306.988281 L 378.082031 306.847656 L 378.058594 306.714844 L 378.035156 306.585938 L 378.007812 306.460938 L 377.980469 306.34375 L 377.949219 306.234375 L 377.914062 306.125 L 377.878906 306.023438 L 377.839844 305.925781 L 377.800781 305.835938 L 377.757812 305.75 L 377.714844 305.671875 L 377.667969 305.59375 L 377.617188 305.523438 L 377.566406 305.457031 L 377.511719 305.394531 L 377.457031 305.335938 L 377.402344 305.285156 L 377.339844 305.238281 L 377.28125 305.191406 L 377.214844 305.15625 L 377.152344 305.121094 L 377.085938 305.089844 L 376.945312 305.035156 L 376.875 305.015625 L 376.800781 304.996094 L 376.644531 304.972656 L 376.566406 304.964844 L 376.484375 304.957031 L 376.3125 304.957031 L 376.226562 304.964844 L 376.144531 304.972656 L 375.980469 304.996094 L 375.90625 305.015625 L 375.828125 305.035156 L 375.753906 305.0625 L 375.683594 305.089844 L 375.617188 305.121094 L 375.546875 305.15625 L 375.484375 305.195312 L 375.421875 305.238281 L 375.359375 305.289062 L 375.300781 305.34375 L 375.246094 305.398438 L 375.191406 305.460938 L 375.089844 305.601562 L 375.042969 305.675781 L 374.996094 305.757812 L 374.953125 305.84375 L 374.914062 305.933594 L 374.875 306.03125 L 374.839844 306.132812 L 374.808594 306.238281 L 374.777344 306.351562 L 374.746094 306.46875 L 374.71875 306.589844 L 374.695312 306.71875 L 374.671875 306.855469 L 374.652344 306.992188 L 374.636719 307.140625 L 374.621094 307.292969 L 374.609375 307.453125 L 374.597656 307.617188 L 374.589844 307.792969 L 374.582031 307.972656 L 374.578125 308.15625 L 374.578125 308.535156 L 374.582031 308.71875 L 374.597656 309.0625 L 374.609375 309.222656 L 374.621094 309.378906 L 374.636719 309.53125 L 374.652344 309.675781 L 374.671875 309.816406 L 374.695312 309.949219 L 374.722656 310.078125 L 374.75 310.199219 L 374.777344 310.316406 L 374.8125 310.429688 L 374.84375 310.535156 L 374.882812 310.636719 L 374.917969 310.734375 L 374.960938 310.828125 L 375.003906 310.914062 L 375.046875 310.996094 L 375.09375 311.074219 L 375.195312 311.214844 L 375.25 311.277344 L 375.304688 311.335938 L 375.363281 311.390625 L 375.425781 311.441406 L 375.484375 311.488281 L 375.617188 311.566406 L 375.683594 311.597656 L 375.753906 311.628906 L 375.824219 311.652344 L 375.898438 311.675781 L 375.972656 311.695312 L 376.128906 311.71875 L 376.210938 311.730469 L 376.292969 311.734375 L 376.460938 311.734375 L 376.539062 311.730469 L 376.621094 311.71875 L 376.695312 311.707031 L 376.773438 311.695312 L 376.847656 311.675781 L 376.917969 311.652344 L 376.992188 311.628906 L 377.058594 311.597656 L 377.128906 311.566406 L 377.191406 311.527344 L 377.257812 311.488281 L 377.316406 311.441406 L 377.378906 311.390625 L 377.433594 311.335938 L 377.488281 311.277344 L 377.542969 311.214844 L 377.644531 311.074219 L 377.691406 310.996094 L 377.734375 310.914062 L 377.777344 310.828125 L 377.820312 310.734375 L 377.859375 310.636719 L 377.894531 310.535156 L 377.929688 310.429688 L 377.964844 310.316406 L 377.992188 310.199219 L 378.023438 310.078125 L 378.046875 309.949219 L 378.070312 309.816406 L 378.09375 309.675781 L 378.113281 309.53125 L 378.128906 309.378906 L 378.144531 309.222656 L 378.15625 309.0625 L 378.171875 308.71875 L 378.175781 308.535156 Z M 378.175781 308.347656 "/>
<path fill-rule="nonzero" fill="rgb(0%, 0%, 0%)" fill-opacity="1" d="M 441.421875 312.480469 L 441.421875 311.582031 L 443.523438 311.582031 L 443.523438 305.230469 L 441.660156 306.5625 L 441.660156 305.566406 L 443.613281 304.222656 L 444.585938 304.222656 L 444.585938 311.582031 L 446.59375 311.582031 L 446.59375 312.480469 Z M 441.421875 312.480469 "/>
<path fill-rule="nonzero" fill="rgb(0%, 0%, 0%)" fill-opacity="1" d="M 453.386719 308.347656 L 453.382812 308.582031 L 453.375 308.808594 L 453.367188 309.027344 L 453.347656 309.242188 L 453.328125 309.445312 L 453.304688 309.640625 L 453.273438 309.832031 L 453.238281 310.011719 L 453.199219 310.1875 L 453.15625 310.351562 L 453.109375 310.511719 L 453.0625 310.664062 L 453.007812 310.8125 L 452.953125 310.953125 L 452.890625 311.085938 L 452.828125 311.214844 L 452.761719 311.335938 L 452.691406 311.453125 L 452.617188 311.5625 L 452.542969 311.664062 L 452.464844 311.761719 L 452.382812 311.855469 L 452.210938 312.019531 L 452.121094 312.09375 L 451.933594 312.226562 L 451.730469 312.335938 L 451.628906 312.378906 L 451.523438 312.421875 L 451.304688 312.492188 L 451.195312 312.519531 L 451.082031 312.542969 L 450.96875 312.5625 L 450.855469 312.578125 L 450.738281 312.589844 L 450.503906 312.597656 L 450.382812 312.59375 L 450.265625 312.589844 L 450.148438 312.578125 L 450.035156 312.5625 L 449.921875 312.542969 L 449.808594 312.519531 L 449.699219 312.492188 L 449.589844 312.457031 L 449.484375 312.421875 L 449.273438 312.335938 L 449.078125 312.226562 L 448.890625 312.09375 L 448.800781 312.019531 L 448.628906 311.855469 L 448.546875 311.761719 L 448.46875 311.664062 L 448.394531 311.5625 L 448.324219 311.453125 L 448.253906 311.339844 L 448.191406 311.21875 L 448.128906 311.089844 L 448.070312 310.957031 L 448.015625 310.816406 L 447.960938 310.671875 L 447.867188 310.359375 L 447.824219 310.191406 L 447.789062 310.019531 L 447.753906 309.835938 L 447.726562 309.644531 L 447.703125 309.449219 L 447.683594 309.246094 L 447.667969 309.03125 L 447.660156 308.8125 L 447.652344 308.585938 L 447.648438 308.347656 L 447.652344 308.105469 L 447.660156 307.867188 L 447.667969 307.640625 L 447.683594 307.421875 L 447.703125 307.210938 L 447.726562 307.007812 L 447.753906 306.8125 L 447.789062 306.628906 L 447.824219 306.453125 L 447.867188 306.285156 L 447.914062 306.125 L 447.960938 305.972656 L 448.015625 305.824219 L 448.070312 305.683594 L 448.128906 305.550781 L 448.191406 305.421875 L 448.257812 305.300781 L 448.328125 305.1875 L 448.398438 305.082031 L 448.476562 304.980469 L 448.554688 304.886719 L 448.636719 304.796875 L 448.71875 304.714844 L 448.808594 304.636719 L 448.898438 304.566406 L 448.992188 304.5 L 449.085938 304.441406 L 449.183594 304.390625 L 449.285156 304.34375 L 449.390625 304.300781 L 449.496094 304.261719 L 449.714844 304.199219 L 449.828125 304.171875 L 450.054688 304.132812 L 450.175781 304.117188 L 450.292969 304.109375 L 450.414062 304.101562 L 450.65625 304.101562 L 450.773438 304.109375 L 450.886719 304.117188 L 451 304.132812 L 451.109375 304.152344 L 451.222656 304.171875 L 451.328125 304.199219 L 451.4375 304.230469 L 451.542969 304.261719 L 451.644531 304.300781 L 451.75 304.34375 L 451.847656 304.390625 L 451.945312 304.441406 L 452.042969 304.5 L 452.132812 304.566406 L 452.222656 304.636719 L 452.308594 304.714844 L 452.394531 304.796875 L 452.476562 304.886719 L 452.554688 304.980469 L 452.628906 305.082031 L 452.703125 305.1875 L 452.769531 305.300781 L 452.835938 305.421875 L 452.898438 305.550781 L 452.957031 305.683594 L 453.015625 305.824219 L 453.066406 305.972656 L 453.117188 306.125 L 453.164062 306.285156 L 453.207031 306.453125 L 453.242188 306.628906 L 453.277344 306.8125 L 453.304688 307.007812 L 453.332031 307.210938 L 453.351562 307.421875 L 453.367188 307.640625 L 453.378906 307.867188 L 453.382812 308.105469 Z M 452.3125 308.347656 L 452.3125 308.15625 L 452.308594 307.96875 L 452.304688 307.789062 L 452.292969 307.613281 L 452.285156 307.449219 L 452.269531 307.289062 L 452.257812 307.132812 L 452.238281 306.988281 L 452.21875 306.847656 L 452.195312 306.714844 L 452.171875 306.585938 L 452.144531 306.460938 L 452.117188 306.34375 L 452.085938 306.234375 L 452.050781 306.125 L 452.015625 306.023438 L 451.976562 305.925781 L 451.9375 305.835938 L 451.894531 305.75 L 451.851562 305.671875 L 451.804688 305.59375 L 451.753906 305.523438 L 451.703125 305.457031 L 451.652344 305.394531 L 451.597656 305.335938 L 451.539062 305.285156 L 451.480469 305.238281 L 451.417969 305.191406 L 451.355469 305.15625 L 451.289062 305.121094 L 451.222656 305.089844 L 451.082031 305.035156 L 451.011719 305.015625 L 450.9375 304.996094 L 450.78125 304.972656 L 450.703125 304.964844 L 450.621094 304.957031 L 450.449219 304.957031 L 450.363281 304.964844 L 450.28125 304.972656 L 450.199219 304.984375 L 450.121094 304.996094 L 449.964844 305.035156 L 449.894531 305.0625 L 449.820312 305.089844 L 449.753906 305.121094 L 449.6875 305.15625 L 449.621094 305.195312 L 449.558594 305.238281 L 449.5 305.289062 L 449.382812 305.398438 L 449.328125 305.460938 L 449.226562 305.601562 L 449.179688 305.675781 L 449.132812 305.757812 L 449.09375 305.84375 L 449.050781 305.933594 L 449.015625 306.03125 L 448.976562 306.132812 L 448.945312 306.238281 L 448.914062 306.351562 L 448.882812 306.46875 L 448.859375 306.589844 L 448.832031 306.71875 L 448.8125 306.855469 L 448.789062 306.992188 L 448.773438 307.140625 L 448.757812 307.292969 L 448.746094 307.453125 L 448.734375 307.617188 L 448.726562 307.792969 L 448.71875 307.972656 L 448.71875 308.15625 L 448.714844 308.347656 L 448.71875 308.535156 L 448.71875 308.71875 L 448.734375 309.0625 L 448.746094 309.222656 L 448.757812 309.378906 L 448.773438 309.53125 L 448.789062 309.675781 L 448.8125 309.816406 L 448.832031 309.949219 L 448.859375 310.078125 L 448.886719 310.199219 L 448.917969 310.316406 L 448.949219 310.429688 L 448.984375 310.535156 L 449.019531 310.636719 L 449.058594 310.734375 L 449.097656 310.828125 L 449.140625 310.914062 L 449.183594 310.996094 L 449.234375 311.074219 L 449.28125 311.144531 L 449.335938 311.214844 L 449.386719 311.277344 L 449.5 311.390625 L 449.5625 311.441406 L 449.625 311.488281 L 449.6875 311.527344 L 449.753906 311.566406 L 449.820312 311.597656 L 449.890625 311.628906 L 449.960938 311.652344 L 450.035156 311.675781 L 450.109375 311.695312 L 450.265625 311.71875 L 450.347656 311.730469 L 450.429688 311.734375 L 450.597656 311.734375 L 450.679688 311.730469 L 450.835938 311.707031 L 450.910156 311.695312 L 450.984375 311.675781 L 451.058594 311.652344 L 451.128906 311.628906 L 451.195312 311.597656 L 451.265625 311.566406 L 451.332031 311.527344 L 451.394531 311.488281 L 451.457031 311.441406 L 451.515625 311.390625 L 451.574219 311.335938 L 451.628906 311.277344 L 451.679688 311.214844 L 451.78125 311.074219 L 451.828125 310.996094 L 451.871094 310.914062 L 451.917969 310.828125 L 451.957031 310.734375 L 451.996094 310.636719 L 452.035156 310.535156 L 452.070312 310.429688 L 452.101562 310.316406 L 452.132812 310.199219 L 452.160156 310.078125 L 452.183594 309.949219 L 452.210938 309.816406 L 452.230469 309.675781 L 452.25 309.53125 L 452.265625 309.378906 L 452.28125 309.222656 L 452.292969 309.0625 L 452.308594 308.71875 L 452.3125 308.535156 Z M 452.3125 308.347656 "/>
<path fill-rule="nonzero" fill="rgb(0%, 0%, 0%)" fill-opacity="1" d="M 460.058594 308.347656 L 460.058594 308.582031 L 460.050781 308.808594 L 460.039062 309.027344 L 460.023438 309.242188 L 460.003906 309.445312 L 459.976562 309.640625 L 459.949219 309.832031 L 459.914062 310.011719 L 459.875 310.1875 L 459.832031 310.351562 L 459.785156 310.511719 L 459.734375 310.664062 L 459.683594 310.8125 L 459.625 310.953125 L 459.566406 311.085938 L 459.503906 311.214844 L 459.4375 311.335938 L 459.367188 311.453125 L 459.292969 311.5625 L 459.214844 311.664062 L 459.136719 311.761719 L 459.054688 311.855469 L 458.972656 311.9375 L 458.882812 312.019531 L 458.792969 312.09375 L 458.703125 312.160156 L 458.605469 312.226562 L 458.507812 312.28125 L 458.40625 312.335938 L 458.195312 312.421875 L 458.089844 312.457031 L 457.980469 312.492188 L 457.867188 312.519531 L 457.757812 312.542969 L 457.644531 312.5625 L 457.527344 312.578125 L 457.414062 312.589844 L 457.296875 312.59375 L 457.175781 312.597656 L 457.058594 312.59375 L 456.9375 312.589844 L 456.820312 312.578125 L 456.707031 312.5625 L 456.59375 312.542969 L 456.480469 312.519531 L 456.371094 312.492188 L 456.265625 312.457031 L 456.15625 312.421875 L 456.050781 312.378906 L 455.949219 312.335938 L 455.847656 312.28125 L 455.75 312.226562 L 455.5625 312.09375 L 455.476562 312.019531 L 455.386719 311.9375 L 455.304688 311.855469 L 455.222656 311.761719 L 455.144531 311.664062 L 455.070312 311.5625 L 454.996094 311.453125 L 454.929688 311.339844 L 454.863281 311.21875 L 454.800781 311.089844 L 454.742188 310.957031 L 454.6875 310.816406 L 454.636719 310.671875 L 454.585938 310.515625 L 454.539062 310.359375 L 454.5 310.191406 L 454.460938 310.019531 L 454.429688 309.835938 L 454.402344 309.644531 L 454.378906 309.449219 L 454.359375 309.246094 L 454.34375 309.03125 L 454.332031 308.8125 L 454.324219 308.585938 L 454.324219 308.105469 L 454.332031 307.867188 L 454.34375 307.640625 L 454.359375 307.421875 L 454.378906 307.210938 L 454.402344 307.007812 L 454.429688 306.8125 L 454.460938 306.628906 L 454.5 306.453125 L 454.539062 306.285156 L 454.585938 306.125 L 454.636719 305.972656 L 454.6875 305.824219 L 454.746094 305.683594 L 454.804688 305.550781 L 454.867188 305.421875 L 454.933594 305.300781 L 455 305.1875 L 455.074219 305.082031 L 455.148438 304.980469 L 455.226562 304.886719 L 455.308594 304.796875 L 455.394531 304.714844 L 455.480469 304.636719 L 455.570312 304.566406 L 455.664062 304.5 L 455.761719 304.441406 L 455.859375 304.390625 L 455.960938 304.34375 L 456.0625 304.300781 L 456.171875 304.261719 L 456.277344 304.230469 L 456.386719 304.199219 L 456.5 304.171875 L 456.613281 304.152344 L 456.730469 304.132812 L 456.847656 304.117188 L 457.089844 304.101562 L 457.328125 304.101562 L 457.445312 304.109375 L 457.558594 304.117188 L 457.671875 304.132812 L 457.785156 304.152344 L 457.894531 304.171875 L 458.003906 304.199219 L 458.214844 304.261719 L 458.320312 304.300781 L 458.421875 304.34375 L 458.523438 304.390625 L 458.621094 304.441406 L 458.714844 304.5 L 458.808594 304.566406 L 458.898438 304.636719 L 458.984375 304.714844 L 459.066406 304.796875 L 459.148438 304.886719 L 459.226562 304.980469 L 459.304688 305.082031 L 459.375 305.1875 L 459.445312 305.300781 L 459.511719 305.421875 L 459.574219 305.550781 L 459.632812 305.683594 L 459.6875 305.824219 L 459.742188 305.972656 L 459.789062 306.125 L 459.835938 306.285156 L 459.878906 306.453125 L 459.917969 306.628906 L 459.949219 306.8125 L 459.980469 307.007812 L 460.003906 307.210938 L 460.023438 307.421875 L 460.039062 307.640625 L 460.050781 307.867188 L 460.058594 308.105469 Z M 458.988281 308.347656 L 458.984375 308.15625 L 458.984375 307.96875 L 458.976562 307.789062 L 458.96875 307.613281 L 458.957031 307.449219 L 458.945312 307.289062 L 458.929688 307.132812 L 458.914062 306.988281 L 458.890625 306.847656 L 458.871094 306.714844 L 458.84375 306.585938 L 458.820312 306.460938 L 458.789062 306.34375 L 458.726562 306.125 L 458.691406 306.023438 L 458.652344 305.925781 L 458.613281 305.835938 L 458.570312 305.75 L 458.476562 305.59375 L 458.429688 305.523438 L 458.378906 305.457031 L 458.324219 305.394531 L 458.269531 305.335938 L 458.210938 305.285156 L 458.152344 305.238281 L 458.089844 305.191406 L 458.027344 305.15625 L 457.960938 305.121094 L 457.894531 305.089844 L 457.828125 305.0625 L 457.757812 305.035156 L 457.609375 304.996094 L 457.535156 304.984375 L 457.457031 304.972656 L 457.378906 304.964844 L 457.296875 304.957031 L 457.125 304.957031 L 456.953125 304.972656 L 456.871094 304.984375 L 456.792969 304.996094 L 456.714844 305.015625 L 456.640625 305.035156 L 456.566406 305.0625 L 456.496094 305.089844 L 456.425781 305.121094 L 456.359375 305.15625 L 456.296875 305.195312 L 456.234375 305.238281 L 456.171875 305.289062 L 456.113281 305.34375 L 456.058594 305.398438 L 456.003906 305.460938 L 455.949219 305.53125 L 455.902344 305.601562 L 455.851562 305.675781 L 455.808594 305.757812 L 455.765625 305.84375 L 455.726562 305.933594 L 455.6875 306.03125 L 455.652344 306.132812 L 455.617188 306.238281 L 455.585938 306.351562 L 455.558594 306.46875 L 455.53125 306.589844 L 455.507812 306.71875 L 455.484375 306.855469 L 455.464844 306.992188 L 455.445312 307.140625 L 455.433594 307.292969 L 455.417969 307.453125 L 455.410156 307.617188 L 455.398438 307.792969 L 455.394531 307.972656 L 455.390625 308.15625 L 455.390625 308.535156 L 455.394531 308.71875 L 455.398438 308.890625 L 455.410156 309.0625 L 455.417969 309.222656 L 455.433594 309.378906 L 455.445312 309.53125 L 455.464844 309.675781 L 455.484375 309.816406 L 455.507812 309.949219 L 455.53125 310.078125 L 455.558594 310.199219 L 455.589844 310.316406 L 455.621094 310.429688 L 455.65625 310.535156 L 455.691406 310.636719 L 455.730469 310.734375 L 455.769531 310.828125 L 455.8125 310.914062 L 455.859375 310.996094 L 455.90625 311.074219 L 456.007812 311.214844 L 456.0625 311.277344 L 456.117188 311.335938 L 456.175781 311.390625 L 456.234375 311.441406 L 456.296875 311.488281 L 456.359375 311.527344 L 456.425781 311.566406 L 456.496094 311.597656 L 456.5625 311.628906 L 456.710938 311.675781 L 456.785156 311.695312 L 457.019531 311.730469 L 457.105469 311.734375 L 457.269531 311.734375 L 457.351562 311.730469 L 457.585938 311.695312 L 457.660156 311.675781 L 457.800781 311.628906 L 457.871094 311.597656 L 457.9375 311.566406 L 458.003906 311.527344 L 458.066406 311.488281 L 458.128906 311.441406 L 458.1875 311.390625 L 458.246094 311.335938 L 458.300781 311.277344 L 458.355469 311.214844 L 458.40625 311.144531 L 458.453125 311.074219 L 458.5 310.996094 L 458.546875 310.914062 L 458.589844 310.828125 L 458.632812 310.734375 L 458.671875 310.636719 L 458.707031 310.535156 L 458.742188 310.429688 L 458.773438 310.316406 L 458.804688 310.199219 L 458.832031 310.078125 L 458.859375 309.949219 L 458.882812 309.816406 L 458.90625 309.675781 L 458.925781 309.53125 L 458.941406 309.378906 L 458.957031 309.222656 L 458.96875 309.0625 L 458.976562 308.890625 L 458.980469 308.71875 L 458.984375 308.535156 Z M 458.988281 308.347656 "/>
</svg>
