<?xml version="1.0" encoding="UTF-8"?>
<svg xmlns="http://www.w3.org/2000/svg" xmlns:xlink="http://www.w3.org/1999/xlink" width="504" height="360" viewBox="0 0 504 360">
<rect x="-50.4" y="-36" width="604.8" height="432" fill="rgb(100%, 100%, 100%)" fill-opacity="1"/>
<path fill-rule="nonzero" fill="rgb(82.745098%, 82.745098%, 82.745098%)" fill-opacity="1" d="M 189.601562 238.632812 L 343.199219 238.632812 L 343.199219 179.382812 L 189.601562 179.382812 Z M 189.601562 238.632812 "/>
<path fill="none" stroke-width="2.25" stroke-linecap="butt" stroke-linejoin="round" stroke="rgb(0%, 0%, 0%)" stroke-opacity="1" stroke-miterlimit="10" d="M 189.601562 199.132812 L 343.199219 199.132812 "/>
<path fill="none" stroke-width="0.75" stroke-linecap="round" stroke-linejoin="round" stroke="rgb(0%, 0%, 0%)" stroke-opacity="1" stroke-dasharray="3 3" stroke-miterlimit="10" d="M 266.398438 278.132812 L 266.398438 238.632812 "/>
<path fill="none" stroke-width="0.75" stroke-linecap="round" stroke-linejoin="round" stroke="rgb(0%, 0%, 0%)" stroke-opacity="1" stroke-dasharray="3 3" stroke-miterlimit="10" d="M 266.398438 113.550781 L 266.398438 179.382812 "/>
<path fill="none" stroke-width="0.75" stroke-linecap="round" stroke-linejoin="round" stroke="rgb(0%, 0%, 0%)" stroke-opacity="1" stroke-miterlimit="10" d="M 228 278.132812 L 304.800781 278.132812 "/>
<path fill="none" stroke-width="0.75" stroke-linecap="round" stroke-linejoin="round" stroke="rgb(0%, 0%, 0%)" stroke-opacity="1" stroke-miterlimit="10" d="M 228 113.550781 L 304.800781 113.550781 "/>
<path fill="none" stroke-width="0.75" stroke-linecap="round" stroke-linejoin="round" stroke="rgb(0%, 0%, 0%)" stroke-opacity="1" stroke-miterlimit="10" d="M 189.601562 238.632812 L 343.199219 238.632812 L 343.199219 179.382812 L 189.601562 179.382812 Z M 189.601562 238.632812 "/>
<path fill="none" stroke-width="0.75" stroke-linecap="round" stroke-linejoin="round" stroke="rgb(0%, 0%, 0%)" stroke-opacity="1" stroke-miterlimit="10" d="M 269.101562 67.464844 C 269.101562 71.066406 263.699219 71.066406 263.699219 67.464844 C 263.699219 63.867188 269.101562 63.867188 269.101562 67.464844 "/>
<path fill="none" stroke-width="0.75" stroke-linecap="round" stroke-linejoin="round" stroke="rgb(0%, 0%, 0%)" stroke-opacity="1" stroke-miterlimit="10" d="M 269.101562 67.464844 C 269.101562 71.066406 263.699219 71.066406 263.699219 67.464844 C 263.699219 63.867188 269.101562 63.867188 269.101562 67.464844 "/>
<path fill="none" stroke-width="0.75" stroke-linecap="round" stroke-linejoin="round" stroke="rgb(0%, 0%, 0%)" stroke-opacity="1" stroke-miterlimit="10" d="M 269.101562 87.214844 C 269.101562 90.816406 263.699219 90.816406 263.699219 87.214844 C 263.699219 83.617188 269.101562 83.617188 269.101562 87.214844 "/>
<path fill="none" stroke-width="0.75" stroke-linecap="round" stroke-linejoin="round" stroke="rgb(0%, 0%, 0%)" stroke-opacity="1" stroke-miterlimit="10" d="M 59.039062 258.382812 L 59.039062 60.882812 "/>
<path fill="none" stroke-width="0.75" stroke-linecap="round" stroke-linejoin="round" stroke="rgb(0%, 0%, 0%)" stroke-opacity="1" stroke-miterlimit="10" d="M 59.039062 258.382812 L 51.839844 258.382812 "/>
<path fill="none" stroke-width="0.75" stroke-linecap="round" stroke-linejoin="round" stroke="rgb(0%, 0%, 0%)" stroke-opacity="1" stroke-miterlimit="10" d="M 59.039062 225.464844 L 51.839844 225.464844 "/>
<path fill="none" stroke-width="0.75" stroke-linecap="round" stroke-linejoin="round" stroke="rgb(0%, 0%, 0%)" stroke-opacity="1" stroke-miterlimit="10" d="M 59.039062 192.550781 L 51.839844 192.550781 "/>
<path fill="none" stroke-width="0.75" stroke-linecap="round" stroke-linejoin="round" stroke="rgb(0%, 0%, 0%)" stroke-opacity="1" stroke-miterlimit="10" d="M 59.039062 159.632812 L 51.839844 159.632812 "/>
<path fill="none" stroke-width="0.75" stroke-linecap="round" stroke-linejoin="round" stroke="rgb(0%, 0%, 0%)" stroke-opacity="1" stroke-miterlimit="10" d="M 59.039062 126.714844 L 51.839844 126.714844 "/>
<path fill="none" stroke-width="0.75" stroke-linecap="round" stroke-linejoin="round" stroke="rgb(0%, 0%, 0%)" stroke-opacity="1" stroke-miterlimit="10" d="M 59.039062 93.800781 L 51.839844 93.800781 "/>
<path fill="none" stroke-width="0.75" stroke-linecap="round" stroke-linejoin="round" stroke="rgb(0%, 0%, 0%)" stroke-opacity="1" stroke-miterlimit="10" d="M 59.039062 60.882812 L 51.839844 60.882812 "/>
<path fill-rule="nonzero" fill="rgb(0%, 0%, 0%)" fill-opacity="1" d="M 41.761719 264.144531 L 40.863281 264.144531 L 40.863281 262.039062 L 34.511719 262.039062 L 35.84375 263.902344 L 34.847656 263.902344 L 33.503906 261.953125 L 33.503906 260.980469 L 40.863281 260.980469 L 40.863281 258.96875 L 41.761719 258.96875 Z M 41.761719 264.144531 "/>
<path fill-rule="nonzero" fill="rgb(0%, 0%, 0%)" fill-opacity="1" d="M 39.070312 252.214844 L 39.195312 252.214844 L 39.316406 252.222656 L 39.433594 252.230469 L 39.550781 252.242188 L 39.777344 252.28125 L 39.886719 252.304688 L 39.996094 252.332031 L 40.207031 252.402344 L 40.308594 252.441406 L 40.40625 252.484375 L 40.503906 252.53125 L 40.597656 252.578125 L 40.6875 252.632812 L 40.773438 252.691406 L 40.859375 252.753906 L 40.941406 252.816406 L 41.023438 252.886719 L 41.097656 252.957031 L 41.171875 253.03125 L 41.304688 253.195312 L 41.367188 253.28125 L 41.425781 253.371094 L 41.480469 253.464844 L 41.535156 253.5625 L 41.582031 253.664062 L 41.628906 253.769531 L 41.671875 253.878906 L 41.710938 253.988281 L 41.746094 254.101562 L 41.777344 254.21875 L 41.804688 254.339844 L 41.824219 254.464844 L 41.84375 254.59375 L 41.859375 254.726562 L 41.875 255 L 41.878906 255.144531 L 41.875 255.273438 L 41.871094 255.398438 L 41.863281 255.519531 L 41.839844 255.753906 L 41.824219 255.863281 L 41.800781 255.972656 L 41.78125 256.078125 L 41.726562 256.28125 L 41.691406 256.375 L 41.660156 256.464844 L 41.625 256.554688 L 41.585938 256.640625 L 41.5 256.804688 L 41.457031 256.878906 L 41.410156 256.953125 L 41.359375 257.027344 L 41.308594 257.09375 L 41.253906 257.160156 L 41.199219 257.222656 L 41.140625 257.28125 L 41.078125 257.339844 L 41.015625 257.394531 L 40.953125 257.445312 L 40.886719 257.496094 L 40.820312 257.542969 L 40.753906 257.585938 L 40.683594 257.628906 L 40.460938 257.734375 L 40.386719 257.765625 L 40.3125 257.792969 L 40.234375 257.820312 L 40.078125 257.867188 L 39.996094 257.886719 L 39.914062 257.902344 L 39.792969 256.835938 L 39.839844 256.824219 L 39.882812 256.808594 L 39.976562 256.777344 L 40.023438 256.757812 L 40.066406 256.738281 L 40.160156 256.699219 L 40.203125 256.675781 L 40.25 256.65625 L 40.292969 256.628906 L 40.332031 256.605469 L 40.375 256.578125 L 40.492188 256.484375 L 40.570312 256.414062 L 40.605469 256.378906 L 40.640625 256.339844 L 40.675781 256.296875 L 40.707031 256.253906 L 40.738281 256.207031 L 40.792969 256.113281 L 40.820312 256.0625 L 40.847656 256.007812 L 40.894531 255.898438 L 40.917969 255.839844 L 40.933594 255.78125 L 40.953125 255.714844 L 40.96875 255.648438 L 40.980469 255.582031 L 40.992188 255.511719 L 41.007812 255.363281 L 41.011719 255.285156 L 41.015625 255.203125 L 41.015625 255.039062 L 41.011719 254.957031 L 41.003906 254.878906 L 40.996094 254.804688 L 40.972656 254.65625 L 40.957031 254.582031 L 40.917969 254.441406 L 40.894531 254.375 L 40.867188 254.308594 L 40.804688 254.183594 L 40.734375 254.066406 L 40.65625 253.957031 L 40.613281 253.90625 L 40.566406 253.855469 L 40.519531 253.808594 L 40.46875 253.761719 L 40.414062 253.714844 L 40.359375 253.671875 L 40.304688 253.632812 L 40.242188 253.59375 L 40.183594 253.558594 L 40.117188 253.523438 L 40.054688 253.492188 L 39.914062 253.4375 L 39.765625 253.390625 L 39.691406 253.371094 L 39.613281 253.355469 L 39.53125 253.339844 L 39.449219 253.328125 L 39.363281 253.320312 L 39.273438 253.3125 L 39.183594 253.308594 L 39.019531 253.308594 L 38.945312 253.3125 L 38.871094 253.320312 L 38.800781 253.328125 L 38.660156 253.351562 L 38.59375 253.371094 L 38.527344 253.386719 L 38.460938 253.410156 L 38.398438 253.433594 L 38.332031 253.457031 L 38.273438 253.484375 L 38.210938 253.515625 L 38.152344 253.546875 L 38.042969 253.617188 L 37.941406 253.695312 L 37.890625 253.738281 L 37.847656 253.785156 L 37.800781 253.832031 L 37.757812 253.878906 L 37.714844 253.929688 L 37.636719 254.039062 L 37.601562 254.097656 L 37.570312 254.15625 L 37.507812 254.28125 L 37.484375 254.347656 L 37.457031 254.414062 L 37.4375 254.480469 L 37.417969 254.550781 L 37.398438 254.625 L 37.375 254.773438 L 37.359375 254.929688 L 37.355469 255.011719 L 37.355469 255.199219 L 37.359375 255.25 L 37.359375 255.300781 L 37.367188 255.351562 L 37.375 255.445312 L 37.390625 255.539062 L 37.402344 255.582031 L 37.410156 255.625 L 37.421875 255.671875 L 37.445312 255.757812 L 37.457031 255.796875 L 37.46875 255.839844 L 37.484375 255.878906 L 37.5 255.921875 L 37.511719 255.960938 L 37.53125 256 L 37.546875 256.035156 L 37.5625 256.074219 L 37.601562 256.144531 L 37.617188 256.179688 L 37.636719 256.214844 L 37.660156 256.246094 L 37.679688 256.28125 L 37.699219 256.3125 L 37.722656 256.34375 L 37.742188 256.375 L 37.765625 256.40625 L 37.789062 256.433594 L 37.808594 256.464844 L 37.855469 256.519531 L 37.875 256.550781 L 37.945312 256.632812 L 37.945312 257.664062 L 33.503906 257.386719 L 33.503906 252.695312 L 34.402344 252.695312 L 34.402344 256.425781 L 37.019531 256.585938 L 36.976562 256.527344 L 36.9375 256.464844 L 36.894531 256.402344 L 36.855469 256.335938 L 36.820312 256.269531 L 36.78125 256.195312 L 36.746094 256.121094 L 36.683594 255.964844 L 36.652344 255.882812 L 36.621094 255.796875 L 36.59375 255.707031 L 36.570312 255.613281 L 36.550781 255.519531 L 36.53125 255.421875 L 36.519531 255.316406 L 36.507812 255.214844 L 36.5 255.105469 L 36.492188 254.992188 L 36.492188 254.878906 L 36.5 254.636719 L 36.507812 254.519531 L 36.523438 254.40625 L 36.539062 254.296875 L 36.558594 254.183594 L 36.613281 253.972656 L 36.644531 253.871094 L 36.679688 253.773438 L 36.71875 253.675781 L 36.761719 253.582031 L 36.808594 253.488281 L 36.855469 253.402344 L 36.90625 253.316406 L 36.960938 253.234375 L 37.019531 253.15625 L 37.082031 253.078125 L 37.144531 253.003906 L 37.28125 252.867188 L 37.355469 252.800781 L 37.429688 252.742188 L 37.507812 252.683594 L 37.585938 252.628906 L 37.667969 252.578125 L 37.753906 252.527344 L 37.84375 252.480469 L 37.933594 252.441406 L 38.027344 252.402344 L 38.222656 252.332031 L 38.320312 252.304688 L 38.421875 252.28125 L 38.632812 252.242188 L 38.738281 252.230469 L 38.957031 252.214844 Z M 39.070312 252.214844 "/>
<path fill-rule="nonzero" fill="rgb(0%, 0%, 0%)" fill-opacity="1" d="M 41.761719 231.535156 L 41.015625 231.535156 L 40.878906 231.476562 L 40.75 231.414062 L 40.621094 231.347656 L 40.492188 231.277344 L 40.371094 231.207031 L 40.253906 231.132812 L 40.136719 231.054688 L 40.023438 230.976562 L 39.914062 230.894531 L 39.703125 230.722656 L 39.601562 230.636719 L 39.5 230.546875 L 39.402344 230.457031 L 39.308594 230.367188 L 39.214844 230.273438 L 39.121094 230.183594 L 39.03125 230.089844 L 38.773438 229.808594 L 38.691406 229.710938 L 38.527344 229.523438 L 38.214844 229.148438 L 38.140625 229.058594 L 38.070312 228.964844 L 37.996094 228.871094 L 37.921875 228.78125 L 37.851562 228.691406 L 37.777344 228.605469 L 37.707031 228.519531 L 37.558594 228.355469 L 37.488281 228.273438 L 37.414062 228.195312 L 37.34375 228.121094 L 37.269531 228.046875 L 37.195312 227.976562 L 37.046875 227.84375 L 36.96875 227.78125 L 36.894531 227.722656 L 36.738281 227.613281 L 36.660156 227.566406 L 36.582031 227.515625 L 36.5 227.472656 L 36.417969 227.433594 L 36.332031 227.398438 L 36.246094 227.367188 L 36.15625 227.339844 L 36.0625 227.320312 L 35.972656 227.304688 L 35.875 227.292969 L 35.777344 227.285156 L 35.679688 227.28125 L 35.539062 227.289062 L 35.476562 227.292969 L 35.410156 227.300781 L 35.347656 227.308594 L 35.289062 227.320312 L 35.171875 227.351562 L 35.117188 227.367188 L 35.0625 227.386719 L 35.007812 227.410156 L 34.957031 227.433594 L 34.910156 227.460938 L 34.859375 227.488281 L 34.816406 227.515625 L 34.769531 227.550781 L 34.726562 227.582031 L 34.6875 227.617188 L 34.613281 227.691406 L 34.574219 227.734375 L 34.511719 227.820312 L 34.480469 227.867188 L 34.425781 227.960938 L 34.402344 228.011719 L 34.382812 228.066406 L 34.359375 228.117188 L 34.34375 228.171875 L 34.324219 228.230469 L 34.308594 228.285156 L 34.292969 228.34375 L 34.28125 228.40625 L 34.273438 228.464844 L 34.261719 228.527344 L 34.257812 228.589844 L 34.25 228.722656 L 34.25 228.914062 L 34.257812 228.976562 L 34.261719 229.035156 L 34.269531 229.097656 L 34.304688 229.273438 L 34.320312 229.328125 L 34.335938 229.386719 L 34.375 229.496094 L 34.445312 229.648438 L 34.472656 229.695312 L 34.503906 229.742188 L 34.53125 229.789062 L 34.566406 229.835938 L 34.636719 229.921875 L 34.671875 229.960938 L 34.714844 230.003906 L 34.753906 230.039062 L 34.796875 230.078125 L 34.84375 230.113281 L 34.9375 230.175781 L 34.988281 230.207031 L 35.089844 230.261719 L 35.144531 230.285156 L 35.203125 230.308594 L 35.257812 230.328125 L 35.320312 230.347656 L 35.378906 230.363281 L 35.441406 230.378906 L 35.574219 230.402344 L 35.644531 230.410156 L 35.542969 231.488281 L 35.453125 231.476562 L 35.367188 231.464844 L 35.195312 231.425781 L 35.109375 231.402344 L 34.945312 231.347656 L 34.863281 231.316406 L 34.785156 231.28125 L 34.628906 231.203125 L 34.550781 231.160156 L 34.480469 231.113281 L 34.40625 231.066406 L 34.335938 231.015625 L 34.269531 230.960938 L 34.203125 230.902344 L 34.078125 230.777344 L 34.019531 230.710938 L 33.960938 230.640625 L 33.90625 230.570312 L 33.851562 230.496094 L 33.800781 230.417969 L 33.707031 230.253906 L 33.664062 230.167969 L 33.625 230.082031 L 33.585938 229.988281 L 33.550781 229.894531 L 33.488281 229.699219 L 33.441406 229.488281 L 33.421875 229.378906 L 33.410156 229.265625 L 33.394531 229.152344 L 33.386719 229.035156 L 33.382812 228.914062 L 33.382812 228.667969 L 33.386719 228.546875 L 33.394531 228.433594 L 33.40625 228.316406 L 33.417969 228.207031 L 33.433594 228.097656 L 33.453125 227.992188 L 33.5 227.789062 L 33.527344 227.691406 L 33.558594 227.597656 L 33.589844 227.507812 L 33.628906 227.417969 L 33.667969 227.332031 L 33.710938 227.25 L 33.753906 227.171875 L 33.800781 227.09375 L 33.851562 227.023438 L 33.960938 226.882812 L 34.019531 226.820312 L 34.082031 226.757812 L 34.144531 226.699219 L 34.210938 226.644531 L 34.28125 226.589844 L 34.355469 226.539062 L 34.429688 226.496094 L 34.585938 226.410156 L 34.671875 226.375 L 34.753906 226.339844 L 34.933594 226.285156 L 35.027344 226.261719 L 35.125 226.242188 L 35.222656 226.226562 L 35.324219 226.214844 L 35.425781 226.207031 L 35.535156 226.199219 L 35.726562 226.199219 L 35.808594 226.207031 L 35.890625 226.210938 L 35.96875 226.222656 L 36.046875 226.238281 L 36.128906 226.253906 L 36.207031 226.273438 L 36.28125 226.296875 L 36.359375 226.324219 L 36.433594 226.351562 L 36.582031 226.414062 L 36.65625 226.449219 L 36.726562 226.484375 L 36.800781 226.523438 L 37.011719 226.652344 L 37.082031 226.699219 L 37.214844 226.800781 L 37.285156 226.851562 L 37.484375 227.015625 L 37.546875 227.074219 L 37.613281 227.132812 L 37.675781 227.195312 L 37.742188 227.257812 L 38.054688 227.589844 L 38.117188 227.660156 L 38.179688 227.726562 L 38.304688 227.867188 L 38.363281 227.9375 L 38.425781 228.007812 L 38.484375 228.082031 L 38.546875 228.152344 L 38.605469 228.226562 L 38.664062 228.296875 L 38.726562 228.367188 L 38.785156 228.441406 L 38.84375 228.511719 L 38.902344 228.585938 L 38.964844 228.65625 L 39.023438 228.730469 L 39.082031 228.800781 L 39.140625 228.875 L 39.257812 229.015625 L 39.316406 229.082031 L 39.378906 229.152344 L 39.554688 229.351562 L 39.617188 229.414062 L 39.675781 229.480469 L 39.855469 229.660156 L 39.917969 229.714844 L 39.976562 229.773438 L 40.101562 229.882812 L 40.226562 229.984375 L 40.285156 230.035156 L 40.347656 230.082031 L 40.472656 230.167969 L 40.535156 230.207031 L 40.601562 230.246094 L 40.664062 230.28125 L 40.730469 230.316406 L 40.796875 230.347656 L 40.863281 230.375 L 40.863281 226.070312 L 41.761719 226.070312 Z M 41.761719 231.535156 "/>
<path fill-rule="nonzero" fill="rgb(0%, 0%, 0%)" fill-opacity="1" d="M 37.628906 219.261719 L 37.863281 219.265625 L 38.089844 219.269531 L 38.308594 219.28125 L 38.519531 219.296875 L 38.726562 219.320312 L 38.921875 219.34375 L 39.109375 219.375 L 39.292969 219.40625 L 39.464844 219.445312 L 39.632812 219.488281 L 39.792969 219.535156 L 39.945312 219.585938 L 40.089844 219.640625 L 40.230469 219.695312 L 40.367188 219.753906 L 40.617188 219.886719 L 40.730469 219.957031 L 40.839844 220.027344 L 40.945312 220.105469 L 41.042969 220.183594 L 41.132812 220.265625 L 41.21875 220.351562 L 41.300781 220.4375 L 41.375 220.527344 L 41.441406 220.621094 L 41.503906 220.714844 L 41.5625 220.8125 L 41.613281 220.914062 L 41.660156 221.019531 L 41.703125 221.125 L 41.738281 221.234375 L 41.800781 221.453125 L 41.824219 221.5625 L 41.84375 221.675781 L 41.859375 221.792969 L 41.867188 221.90625 L 41.875 222.027344 L 41.878906 222.144531 L 41.875 222.265625 L 41.859375 222.5 L 41.84375 222.613281 L 41.824219 222.726562 L 41.800781 222.839844 L 41.738281 223.058594 L 41.703125 223.164062 L 41.660156 223.269531 L 41.613281 223.371094 L 41.5625 223.472656 L 41.503906 223.570312 L 41.441406 223.664062 L 41.375 223.757812 L 41.300781 223.847656 L 41.21875 223.933594 L 41.132812 224.015625 L 41.042969 224.097656 L 40.945312 224.175781 L 40.84375 224.253906 L 40.734375 224.324219 L 40.617188 224.390625 L 40.496094 224.457031 L 40.371094 224.519531 L 40.234375 224.578125 L 40.097656 224.632812 L 39.949219 224.6875 L 39.796875 224.734375 L 39.640625 224.78125 L 39.472656 224.824219 L 39.296875 224.859375 L 39.117188 224.890625 L 38.925781 224.917969 L 38.730469 224.945312 L 38.523438 224.964844 L 38.3125 224.976562 L 38.09375 224.988281 L 37.863281 224.996094 L 37.382812 224.996094 L 37.148438 224.988281 L 36.917969 224.976562 L 36.699219 224.964844 L 36.488281 224.945312 L 36.289062 224.917969 L 36.09375 224.890625 L 35.910156 224.859375 L 35.734375 224.824219 L 35.566406 224.78125 L 35.40625 224.734375 L 35.25 224.683594 L 35.105469 224.632812 L 34.964844 224.578125 L 34.828125 224.515625 L 34.703125 224.453125 L 34.582031 224.390625 L 34.46875 224.320312 L 34.359375 224.246094 L 34.261719 224.171875 L 34.164062 224.09375 L 34.078125 224.011719 L 33.996094 223.925781 L 33.917969 223.839844 L 33.847656 223.75 L 33.78125 223.65625 L 33.722656 223.5625 L 33.667969 223.464844 L 33.621094 223.363281 L 33.542969 223.152344 L 33.507812 223.042969 L 33.480469 222.933594 L 33.453125 222.820312 L 33.429688 222.707031 L 33.398438 222.472656 L 33.390625 222.355469 L 33.382812 222.234375 L 33.382812 221.992188 L 33.390625 221.875 L 33.398438 221.761719 L 33.429688 221.535156 L 33.453125 221.425781 L 33.480469 221.316406 L 33.507812 221.210938 L 33.542969 221.105469 L 33.582031 221 L 33.621094 220.898438 L 33.667969 220.796875 L 33.722656 220.699219 L 33.78125 220.605469 L 33.847656 220.515625 L 33.917969 220.425781 L 33.996094 220.335938 L 34.078125 220.253906 L 34.164062 220.171875 L 34.261719 220.09375 L 34.359375 220.019531 L 34.46875 219.945312 L 34.582031 219.875 L 34.703125 219.808594 L 34.828125 219.746094 L 34.964844 219.6875 L 35.105469 219.632812 L 35.25 219.578125 L 35.40625 219.53125 L 35.566406 219.484375 L 35.734375 219.441406 L 35.910156 219.402344 L 36.09375 219.371094 L 36.289062 219.339844 L 36.488281 219.316406 L 36.699219 219.296875 L 36.917969 219.28125 L 37.148438 219.269531 L 37.382812 219.265625 Z M 37.628906 220.332031 L 37.4375 220.335938 L 37.25 220.339844 L 37.070312 220.34375 L 36.894531 220.351562 L 36.726562 220.363281 L 36.566406 220.375 L 36.414062 220.390625 L 36.269531 220.410156 L 36.128906 220.429688 L 35.996094 220.449219 L 35.867188 220.476562 L 35.742188 220.503906 L 35.625 220.53125 L 35.511719 220.5625 L 35.40625 220.597656 L 35.304688 220.632812 L 35.207031 220.667969 L 35.117188 220.710938 L 35.03125 220.753906 L 34.953125 220.796875 L 34.875 220.84375 L 34.804688 220.890625 L 34.738281 220.941406 L 34.675781 220.996094 L 34.617188 221.050781 L 34.515625 221.167969 L 34.472656 221.230469 L 34.433594 221.292969 L 34.371094 221.425781 L 34.339844 221.496094 L 34.316406 221.566406 L 34.296875 221.636719 L 34.277344 221.710938 L 34.261719 221.785156 L 34.25 221.863281 L 34.242188 221.945312 L 34.238281 222.027344 L 34.238281 222.195312 L 34.242188 222.28125 L 34.25 222.367188 L 34.261719 222.449219 L 34.277344 222.527344 L 34.296875 222.605469 L 34.316406 222.679688 L 34.339844 222.753906 L 34.402344 222.894531 L 34.4375 222.960938 L 34.476562 223.027344 L 34.519531 223.089844 L 34.621094 223.207031 L 34.679688 223.265625 L 34.742188 223.320312 L 34.808594 223.371094 L 34.882812 223.421875 L 34.957031 223.46875 L 35.121094 223.554688 L 35.214844 223.597656 L 35.308594 223.632812 L 35.410156 223.667969 L 35.519531 223.703125 L 35.628906 223.734375 L 35.871094 223.789062 L 36 223.8125 L 36.132812 223.835938 L 36.273438 223.855469 L 36.421875 223.875 L 36.574219 223.890625 L 36.734375 223.902344 L 36.898438 223.914062 L 37.070312 223.921875 L 37.25 223.925781 L 37.4375 223.929688 L 37.816406 223.929688 L 37.996094 223.925781 L 38.171875 223.921875 L 38.339844 223.914062 L 38.503906 223.902344 L 38.660156 223.890625 L 38.8125 223.875 L 38.957031 223.855469 L 39.09375 223.835938 L 39.230469 223.8125 L 39.355469 223.789062 L 39.480469 223.761719 L 39.597656 223.730469 L 39.707031 223.699219 L 39.816406 223.664062 L 39.917969 223.628906 L 40.015625 223.589844 L 40.109375 223.550781 L 40.195312 223.507812 L 40.277344 223.460938 L 40.355469 223.414062 L 40.425781 223.363281 L 40.492188 223.3125 L 40.558594 223.257812 L 40.617188 223.203125 L 40.671875 223.144531 L 40.722656 223.085938 L 40.808594 222.960938 L 40.847656 222.894531 L 40.878906 222.828125 L 40.933594 222.6875 L 40.953125 222.613281 L 40.972656 222.535156 L 40.988281 222.460938 L 41 222.382812 L 41.015625 222.21875 L 41.015625 222.050781 L 41.007812 221.96875 L 41 221.890625 L 40.988281 221.8125 L 40.972656 221.738281 L 40.933594 221.589844 L 40.878906 221.449219 L 40.847656 221.382812 L 40.808594 221.316406 L 40.722656 221.191406 L 40.671875 221.132812 L 40.617188 221.074219 L 40.558594 221.019531 L 40.492188 220.964844 L 40.425781 220.914062 L 40.355469 220.867188 L 40.277344 220.820312 L 40.195312 220.773438 L 40.109375 220.730469 L 40.015625 220.691406 L 39.917969 220.652344 L 39.816406 220.613281 L 39.707031 220.578125 L 39.597656 220.546875 L 39.480469 220.515625 L 39.230469 220.460938 L 39.09375 220.4375 L 38.957031 220.417969 L 38.8125 220.398438 L 38.660156 220.378906 L 38.503906 220.367188 L 38.339844 220.355469 L 38.171875 220.34375 L 37.996094 220.339844 L 37.816406 220.335938 Z M 37.628906 220.332031 "/>
<path fill-rule="nonzero" fill="rgb(0%, 0%, 0%)" fill-opacity="1" d="M 41.761719 198.621094 L 41.015625 198.621094 L 40.878906 198.558594 L 40.75 198.496094 L 40.621094 198.429688 L 40.492188 198.359375 L 40.371094 198.289062 L 40.136719 198.140625 L 40.023438 198.058594 L 39.914062 197.976562 L 39.808594 197.894531 L 39.703125 197.804688 L 39.601562 197.71875 L 39.5 197.628906 L 39.402344 197.539062 L 39.214844 197.359375 L 39.121094 197.265625 L 39.03125 197.171875 L 38.773438 196.890625 L 38.527344 196.609375 L 38.214844 196.234375 L 38.140625 196.140625 L 38.070312 196.046875 L 37.996094 195.957031 L 37.921875 195.863281 L 37.851562 195.773438 L 37.777344 195.6875 L 37.707031 195.601562 L 37.558594 195.4375 L 37.488281 195.359375 L 37.414062 195.28125 L 37.34375 195.203125 L 37.269531 195.128906 L 37.195312 195.058594 L 37.121094 194.992188 L 37.046875 194.929688 L 36.96875 194.867188 L 36.894531 194.808594 L 36.816406 194.75 L 36.660156 194.648438 L 36.582031 194.601562 L 36.5 194.554688 L 36.417969 194.515625 L 36.332031 194.480469 L 36.246094 194.449219 L 36.15625 194.425781 L 36.0625 194.402344 L 35.972656 194.386719 L 35.875 194.375 L 35.777344 194.367188 L 35.609375 194.367188 L 35.539062 194.371094 L 35.476562 194.375 L 35.410156 194.382812 L 35.347656 194.394531 L 35.230469 194.417969 L 35.171875 194.433594 L 35.007812 194.492188 L 34.957031 194.519531 L 34.910156 194.542969 L 34.859375 194.570312 L 34.816406 194.601562 L 34.769531 194.632812 L 34.726562 194.664062 L 34.6875 194.699219 L 34.648438 194.738281 L 34.613281 194.777344 L 34.574219 194.816406 L 34.511719 194.902344 L 34.480469 194.949219 L 34.453125 194.996094 L 34.425781 195.046875 L 34.402344 195.09375 L 34.382812 195.148438 L 34.359375 195.203125 L 34.34375 195.257812 L 34.324219 195.3125 L 34.292969 195.429688 L 34.28125 195.488281 L 34.273438 195.546875 L 34.261719 195.609375 L 34.257812 195.675781 L 34.253906 195.738281 L 34.25 195.804688 L 34.25 195.996094 L 34.257812 196.058594 L 34.261719 196.121094 L 34.269531 196.179688 L 34.304688 196.355469 L 34.320312 196.414062 L 34.335938 196.46875 L 34.375 196.578125 L 34.445312 196.730469 L 34.472656 196.78125 L 34.503906 196.828125 L 34.53125 196.875 L 34.671875 197.046875 L 34.714844 197.085938 L 34.753906 197.125 L 34.796875 197.160156 L 34.84375 197.195312 L 34.890625 197.226562 L 34.9375 197.261719 L 34.988281 197.289062 L 35.039062 197.320312 L 35.089844 197.34375 L 35.144531 197.371094 L 35.203125 197.390625 L 35.257812 197.414062 L 35.320312 197.429688 L 35.378906 197.449219 L 35.441406 197.460938 L 35.507812 197.476562 L 35.574219 197.484375 L 35.644531 197.496094 L 35.542969 198.574219 L 35.453125 198.5625 L 35.367188 198.546875 L 35.195312 198.507812 L 35.109375 198.484375 L 35.027344 198.460938 L 34.863281 198.398438 L 34.707031 198.328125 L 34.628906 198.289062 L 34.550781 198.246094 L 34.480469 198.199219 L 34.40625 198.148438 L 34.335938 198.097656 L 34.269531 198.042969 L 34.203125 197.984375 L 34.140625 197.925781 L 34.078125 197.859375 L 33.960938 197.726562 L 33.851562 197.578125 L 33.800781 197.5 L 33.753906 197.421875 L 33.707031 197.335938 L 33.664062 197.253906 L 33.585938 197.074219 L 33.550781 196.980469 L 33.519531 196.882812 L 33.488281 196.78125 L 33.464844 196.679688 L 33.441406 196.570312 L 33.421875 196.460938 L 33.410156 196.351562 L 33.394531 196.234375 L 33.386719 196.117188 L 33.382812 195.996094 L 33.382812 195.75 L 33.386719 195.632812 L 33.394531 195.515625 L 33.417969 195.289062 L 33.433594 195.183594 L 33.453125 195.078125 L 33.476562 194.972656 L 33.5 194.875 L 33.527344 194.777344 L 33.589844 194.589844 L 33.667969 194.417969 L 33.753906 194.253906 L 33.800781 194.179688 L 33.851562 194.105469 L 33.90625 194.035156 L 33.960938 193.96875 L 34.019531 193.902344 L 34.082031 193.839844 L 34.144531 193.78125 L 34.210938 193.726562 L 34.28125 193.671875 L 34.429688 193.578125 L 34.507812 193.535156 L 34.585938 193.496094 L 34.671875 193.457031 L 34.753906 193.425781 L 34.84375 193.394531 L 34.933594 193.367188 L 35.027344 193.347656 L 35.125 193.328125 L 35.222656 193.3125 L 35.324219 193.296875 L 35.425781 193.289062 L 35.644531 193.28125 L 35.808594 193.289062 L 35.890625 193.296875 L 36.046875 193.320312 L 36.128906 193.335938 L 36.207031 193.355469 L 36.28125 193.378906 L 36.359375 193.40625 L 36.433594 193.433594 L 36.582031 193.496094 L 36.65625 193.53125 L 36.726562 193.570312 L 36.800781 193.609375 L 36.871094 193.648438 L 36.941406 193.691406 L 37.082031 193.785156 L 37.148438 193.832031 L 37.214844 193.882812 L 37.285156 193.933594 L 37.417969 194.042969 L 37.484375 194.101562 L 37.546875 194.15625 L 37.613281 194.21875 L 37.675781 194.28125 L 37.742188 194.34375 L 37.804688 194.40625 L 37.992188 194.605469 L 38.054688 194.675781 L 38.117188 194.742188 L 38.304688 194.953125 L 38.363281 195.023438 L 38.425781 195.09375 L 38.484375 195.164062 L 38.546875 195.234375 L 38.605469 195.308594 L 38.664062 195.378906 L 38.726562 195.453125 L 38.785156 195.523438 L 38.84375 195.597656 L 38.902344 195.667969 L 38.964844 195.742188 L 39.023438 195.8125 L 39.082031 195.886719 L 39.316406 196.167969 L 39.378906 196.234375 L 39.554688 196.433594 L 39.617188 196.5 L 39.734375 196.625 L 39.796875 196.683594 L 39.855469 196.742188 L 39.917969 196.800781 L 39.976562 196.855469 L 40.101562 196.964844 L 40.226562 197.066406 L 40.285156 197.117188 L 40.347656 197.164062 L 40.535156 197.292969 L 40.601562 197.328125 L 40.664062 197.367188 L 40.863281 197.460938 L 40.863281 193.152344 L 41.761719 193.152344 Z M 41.761719 198.621094 "/>
<path fill-rule="nonzero" fill="rgb(0%, 0%, 0%)" fill-opacity="1" d="M 39.070312 186.378906 L 39.195312 186.382812 L 39.316406 186.386719 L 39.550781 186.410156 L 39.664062 186.425781 L 39.777344 186.449219 L 39.886719 186.472656 L 39.996094 186.5 L 40.101562 186.53125 L 40.207031 186.566406 L 40.308594 186.605469 L 40.40625 186.648438 L 40.503906 186.695312 L 40.597656 186.746094 L 40.6875 186.800781 L 40.859375 186.917969 L 41.023438 187.050781 L 41.171875 187.199219 L 41.238281 187.277344 L 41.304688 187.363281 L 41.367188 187.449219 L 41.425781 187.539062 L 41.480469 187.632812 L 41.535156 187.730469 L 41.582031 187.832031 L 41.628906 187.9375 L 41.671875 188.042969 L 41.710938 188.15625 L 41.746094 188.269531 L 41.777344 188.386719 L 41.804688 188.507812 L 41.824219 188.632812 L 41.84375 188.761719 L 41.859375 188.894531 L 41.867188 189.027344 L 41.875 189.167969 L 41.878906 189.308594 L 41.875 189.4375 L 41.871094 189.5625 L 41.863281 189.683594 L 41.851562 189.804688 L 41.839844 189.917969 L 41.824219 190.03125 L 41.800781 190.140625 L 41.78125 190.246094 L 41.753906 190.347656 L 41.726562 190.445312 L 41.691406 190.542969 L 41.660156 190.632812 L 41.625 190.722656 L 41.585938 190.808594 L 41.542969 190.890625 L 41.457031 191.046875 L 41.410156 191.121094 L 41.308594 191.261719 L 41.253906 191.328125 L 41.199219 191.390625 L 41.140625 191.449219 L 41.078125 191.507812 L 41.015625 191.5625 L 40.953125 191.613281 L 40.886719 191.664062 L 40.820312 191.710938 L 40.753906 191.753906 L 40.683594 191.792969 L 40.609375 191.832031 L 40.535156 191.867188 L 40.3125 191.960938 L 40.234375 191.984375 L 40.15625 192.011719 L 40.078125 192.03125 L 39.914062 192.070312 L 39.792969 191.003906 L 39.839844 190.988281 L 39.882812 190.976562 L 39.929688 190.960938 L 39.976562 190.941406 L 40.023438 190.925781 L 40.066406 190.90625 L 40.160156 190.867188 L 40.203125 190.84375 L 40.25 190.820312 L 40.292969 190.796875 L 40.332031 190.769531 L 40.375 190.742188 L 40.414062 190.714844 L 40.492188 190.652344 L 40.570312 190.582031 L 40.675781 190.464844 L 40.707031 190.417969 L 40.738281 190.375 L 40.765625 190.328125 L 40.847656 190.175781 L 40.894531 190.066406 L 40.917969 190.007812 L 40.933594 189.945312 L 40.953125 189.882812 L 40.96875 189.816406 L 40.980469 189.75 L 40.992188 189.675781 L 41 189.605469 L 41.007812 189.527344 L 41.015625 189.371094 L 41.015625 189.203125 L 41.011719 189.125 L 40.996094 188.96875 L 40.972656 188.820312 L 40.957031 188.75 L 40.917969 188.609375 L 40.894531 188.542969 L 40.867188 188.476562 L 40.804688 188.351562 L 40.769531 188.289062 L 40.734375 188.234375 L 40.695312 188.175781 L 40.65625 188.125 L 40.613281 188.070312 L 40.566406 188.023438 L 40.519531 187.972656 L 40.46875 187.925781 L 40.359375 187.839844 L 40.304688 187.800781 L 40.242188 187.761719 L 40.183594 187.726562 L 40.117188 187.691406 L 40.054688 187.660156 L 39.914062 187.605469 L 39.765625 187.558594 L 39.691406 187.539062 L 39.613281 187.523438 L 39.53125 187.507812 L 39.449219 187.496094 L 39.363281 187.488281 L 39.273438 187.480469 L 39.183594 187.476562 L 39.019531 187.476562 L 38.945312 187.480469 L 38.871094 187.488281 L 38.800781 187.496094 L 38.660156 187.519531 L 38.59375 187.535156 L 38.460938 187.574219 L 38.398438 187.597656 L 38.332031 187.625 L 38.273438 187.652344 L 38.210938 187.683594 L 38.152344 187.714844 L 38.042969 187.785156 L 37.941406 187.863281 L 37.890625 187.90625 L 37.800781 187.996094 L 37.714844 188.097656 L 37.675781 188.148438 L 37.636719 188.207031 L 37.601562 188.261719 L 37.570312 188.320312 L 37.507812 188.445312 L 37.484375 188.511719 L 37.457031 188.578125 L 37.398438 188.789062 L 37.386719 188.863281 L 37.375 188.941406 L 37.359375 189.097656 L 37.355469 189.179688 L 37.355469 189.367188 L 37.359375 189.417969 L 37.359375 189.46875 L 37.367188 189.515625 L 37.371094 189.566406 L 37.375 189.613281 L 37.382812 189.660156 L 37.390625 189.703125 L 37.402344 189.75 L 37.410156 189.792969 L 37.46875 190.007812 L 37.5 190.085938 L 37.511719 190.125 L 37.53125 190.164062 L 37.546875 190.203125 L 37.5625 190.238281 L 37.582031 190.273438 L 37.617188 190.34375 L 37.636719 190.378906 L 37.660156 190.414062 L 37.679688 190.445312 L 37.699219 190.480469 L 37.722656 190.511719 L 37.742188 190.542969 L 37.765625 190.570312 L 37.789062 190.601562 L 37.808594 190.628906 L 37.832031 190.660156 L 37.855469 190.6875 L 37.875 190.714844 L 37.945312 190.796875 L 37.945312 191.828125 L 33.503906 191.554688 L 33.503906 186.859375 L 34.402344 186.859375 L 34.402344 190.59375 L 37.019531 190.75 L 36.976562 190.695312 L 36.9375 190.632812 L 36.894531 190.570312 L 36.855469 190.503906 L 36.820312 190.433594 L 36.78125 190.363281 L 36.746094 190.289062 L 36.683594 190.132812 L 36.621094 189.960938 L 36.59375 189.871094 L 36.570312 189.78125 L 36.53125 189.585938 L 36.519531 189.484375 L 36.507812 189.378906 L 36.5 189.273438 L 36.492188 189.160156 L 36.492188 189.046875 L 36.5 188.804688 L 36.507812 188.6875 L 36.539062 188.460938 L 36.558594 188.351562 L 36.613281 188.140625 L 36.644531 188.039062 L 36.679688 187.9375 L 36.71875 187.839844 L 36.761719 187.746094 L 36.808594 187.65625 L 36.855469 187.570312 L 36.90625 187.484375 L 36.960938 187.402344 L 37.019531 187.320312 L 37.144531 187.171875 L 37.28125 187.035156 L 37.355469 186.96875 L 37.429688 186.90625 L 37.507812 186.847656 L 37.585938 186.792969 L 37.667969 186.742188 L 37.753906 186.695312 L 37.84375 186.648438 L 37.933594 186.605469 L 38.027344 186.566406 L 38.125 186.53125 L 38.222656 186.5 L 38.320312 186.472656 L 38.421875 186.449219 L 38.527344 186.425781 L 38.632812 186.410156 L 38.738281 186.398438 L 38.847656 186.386719 L 38.957031 186.382812 Z M 39.070312 186.378906 "/>
<path fill-rule="nonzero" fill="rgb(0%, 0%, 0%)" fill-opacity="1" d="M 39.480469 160.160156 L 39.59375 160.164062 L 39.703125 160.167969 L 39.8125 160.175781 L 39.914062 160.191406 L 40.019531 160.207031 L 40.117188 160.226562 L 40.3125 160.28125 L 40.402344 160.3125 L 40.496094 160.347656 L 40.582031 160.386719 L 40.667969 160.429688 L 40.75 160.472656 L 40.90625 160.574219 L 40.980469 160.628906 L 41.050781 160.6875 L 41.121094 160.75 L 41.1875 160.816406 L 41.25 160.886719 L 41.367188 161.035156 L 41.421875 161.113281 L 41.472656 161.195312 L 41.519531 161.28125 L 41.566406 161.371094 L 41.609375 161.464844 L 41.648438 161.5625 L 41.71875 161.765625 L 41.75 161.871094 L 41.777344 161.980469 L 41.800781 162.09375 L 41.820312 162.207031 L 41.835938 162.324219 L 41.851562 162.445312 L 41.863281 162.570312 L 41.871094 162.699219 L 41.875 162.828125 L 41.878906 162.960938 L 41.875 163.113281 L 41.871094 163.257812 L 41.859375 163.398438 L 41.847656 163.535156 L 41.832031 163.667969 L 41.808594 163.796875 L 41.785156 163.917969 L 41.757812 164.035156 L 41.726562 164.148438 L 41.691406 164.257812 L 41.648438 164.359375 L 41.609375 164.457031 L 41.5625 164.554688 L 41.46875 164.734375 L 41.414062 164.816406 L 41.363281 164.898438 L 41.246094 165.046875 L 41.1875 165.117188 L 41.121094 165.183594 L 41.054688 165.246094 L 40.988281 165.304688 L 40.917969 165.363281 L 40.777344 165.464844 L 40.703125 165.511719 L 40.628906 165.550781 L 40.472656 165.628906 L 40.308594 165.691406 L 40.144531 165.746094 L 40.0625 165.769531 L 39.976562 165.789062 L 39.894531 165.808594 L 39.722656 165.839844 L 39.640625 165.851562 L 39.539062 164.761719 L 39.605469 164.75 L 39.730469 164.726562 L 39.792969 164.710938 L 39.851562 164.695312 L 40.027344 164.636719 L 40.136719 164.589844 L 40.191406 164.5625 L 40.242188 164.535156 L 40.292969 164.503906 L 40.386719 164.441406 L 40.433594 164.402344 L 40.476562 164.367188 L 40.519531 164.328125 L 40.601562 164.246094 L 40.707031 164.105469 L 40.742188 164.054688 L 40.769531 164.003906 L 40.800781 163.949219 L 40.828125 163.890625 L 40.851562 163.835938 L 40.898438 163.710938 L 40.917969 163.648438 L 40.9375 163.582031 L 40.953125 163.511719 L 40.964844 163.441406 L 40.976562 163.367188 L 40.988281 163.289062 L 40.996094 163.210938 L 41.003906 163.046875 L 41.003906 162.960938 L 41 162.804688 L 40.988281 162.65625 L 40.96875 162.515625 L 40.941406 162.378906 L 40.90625 162.25 L 40.863281 162.128906 L 40.8125 162.015625 L 40.753906 161.90625 L 40.6875 161.808594 L 40.613281 161.714844 L 40.527344 161.625 L 40.4375 161.550781 L 40.339844 161.480469 L 40.238281 161.421875 L 40.125 161.371094 L 40.003906 161.328125 L 39.875 161.296875 L 39.738281 161.273438 L 39.597656 161.261719 L 39.445312 161.257812 L 39.355469 161.257812 L 39.269531 161.265625 L 39.1875 161.273438 L 39.109375 161.289062 L 39.035156 161.308594 L 38.960938 161.332031 L 38.894531 161.355469 L 38.832031 161.386719 L 38.769531 161.421875 L 38.714844 161.460938 L 38.65625 161.503906 L 38.554688 161.589844 L 38.507812 161.636719 L 38.421875 161.738281 L 38.34375 161.847656 L 38.28125 161.964844 L 38.25 162.027344 L 38.21875 162.085938 L 38.195312 162.148438 L 38.167969 162.214844 L 38.148438 162.277344 L 38.128906 162.34375 L 38.109375 162.414062 L 38.09375 162.480469 L 38.058594 162.691406 L 38.050781 162.761719 L 38.027344 162.960938 L 38.023438 163.023438 L 38.019531 163.089844 L 38.019531 163.148438 L 38.015625 163.210938 L 38.015625 163.871094 L 37.101562 163.871094 L 37.101562 163.234375 L 37.097656 163.175781 L 37.097656 163.113281 L 37.09375 163.050781 L 37.085938 162.992188 L 37.082031 162.929688 L 37.074219 162.867188 L 37.0625 162.800781 L 37.054688 162.738281 L 37.042969 162.675781 L 37.03125 162.609375 L 37.015625 162.546875 L 36.996094 162.484375 L 36.957031 162.367188 L 36.933594 162.308594 L 36.90625 162.25 L 36.851562 162.140625 L 36.820312 162.089844 L 36.785156 162.035156 L 36.75 161.984375 L 36.671875 161.890625 L 36.628906 161.84375 L 36.582031 161.800781 L 36.488281 161.722656 L 36.433594 161.683594 L 36.382812 161.648438 L 36.265625 161.585938 L 36.203125 161.558594 L 36.136719 161.535156 L 36.066406 161.515625 L 35.996094 161.5 L 35.921875 161.488281 L 35.84375 161.480469 L 35.679688 161.472656 L 35.546875 161.476562 L 35.425781 161.488281 L 35.304688 161.507812 L 35.191406 161.535156 L 35.085938 161.570312 L 34.984375 161.613281 L 34.890625 161.664062 L 34.796875 161.722656 L 34.714844 161.792969 L 34.636719 161.867188 L 34.5625 161.945312 L 34.496094 162.035156 L 34.4375 162.132812 L 34.386719 162.234375 L 34.34375 162.347656 L 34.308594 162.46875 L 34.28125 162.59375 L 34.265625 162.726562 L 34.253906 162.871094 L 34.25 163.019531 L 34.25 163.15625 L 34.261719 163.289062 L 34.28125 163.414062 L 34.304688 163.535156 L 34.335938 163.652344 L 34.375 163.761719 L 34.421875 163.867188 L 34.476562 163.96875 L 34.539062 164.0625 L 34.605469 164.152344 L 34.679688 164.234375 L 34.761719 164.308594 L 34.847656 164.375 L 34.9375 164.4375 L 35.035156 164.488281 L 35.140625 164.535156 L 35.25 164.574219 L 35.363281 164.605469 L 35.488281 164.632812 L 35.613281 164.648438 L 35.53125 165.710938 L 35.425781 165.695312 L 35.320312 165.675781 L 35.21875 165.65625 L 35.117188 165.628906 L 35.023438 165.601562 L 34.929688 165.570312 L 34.835938 165.535156 L 34.664062 165.457031 L 34.582031 165.410156 L 34.503906 165.363281 L 34.425781 165.3125 L 34.351562 165.257812 L 34.28125 165.203125 L 34.148438 165.085938 L 34.085938 165.023438 L 34.023438 164.957031 L 33.96875 164.890625 L 33.914062 164.820312 L 33.863281 164.746094 L 33.8125 164.667969 L 33.765625 164.59375 L 33.679688 164.429688 L 33.640625 164.347656 L 33.605469 164.261719 L 33.574219 164.175781 L 33.542969 164.085938 L 33.515625 163.992188 L 33.445312 163.710938 L 33.414062 163.515625 L 33.402344 163.417969 L 33.386719 163.214844 L 33.382812 163.113281 L 33.382812 162.871094 L 33.386719 162.738281 L 33.398438 162.609375 L 33.410156 162.484375 L 33.425781 162.367188 L 33.445312 162.25 L 33.46875 162.136719 L 33.492188 162.027344 L 33.523438 161.921875 L 33.558594 161.820312 L 33.628906 161.625 L 33.671875 161.535156 L 33.714844 161.449219 L 33.757812 161.367188 L 33.808594 161.285156 L 33.910156 161.136719 L 34.027344 161.003906 L 34.085938 160.941406 L 34.148438 160.882812 L 34.210938 160.828125 L 34.277344 160.777344 L 34.34375 160.730469 L 34.414062 160.6875 L 34.488281 160.644531 L 34.5625 160.605469 L 34.636719 160.574219 L 34.71875 160.542969 L 34.796875 160.511719 L 34.960938 160.464844 L 35.042969 160.445312 L 35.128906 160.425781 L 35.300781 160.402344 L 35.386719 160.394531 L 35.476562 160.390625 L 35.640625 160.390625 L 35.78125 160.398438 L 35.851562 160.40625 L 35.917969 160.414062 L 36.050781 160.4375 L 36.183594 160.46875 L 36.246094 160.488281 L 36.308594 160.511719 L 36.371094 160.53125 L 36.488281 160.585938 L 36.546875 160.617188 L 36.601562 160.648438 L 36.710938 160.71875 L 36.761719 160.757812 L 36.816406 160.800781 L 36.863281 160.84375 L 36.914062 160.886719 L 36.960938 160.9375 L 37.003906 160.988281 L 37.050781 161.039062 L 37.089844 161.09375 L 37.132812 161.152344 L 37.171875 161.210938 L 37.210938 161.273438 L 37.25 161.339844 L 37.285156 161.402344 L 37.347656 161.542969 L 37.378906 161.617188 L 37.433594 161.773438 L 37.460938 161.855469 L 37.484375 161.941406 L 37.503906 162.027344 L 37.523438 162.117188 L 37.546875 162.117188 L 37.558594 162.019531 L 37.574219 161.921875 L 37.589844 161.832031 L 37.609375 161.738281 L 37.628906 161.652344 L 37.65625 161.566406 L 37.679688 161.484375 L 37.710938 161.402344 L 37.742188 161.324219 L 37.777344 161.25 L 37.808594 161.179688 L 37.886719 161.039062 L 37.925781 160.976562 L 37.96875 160.914062 L 38.054688 160.796875 L 38.105469 160.742188 L 38.152344 160.691406 L 38.203125 160.640625 L 38.253906 160.59375 L 38.363281 160.507812 L 38.421875 160.46875 L 38.597656 160.363281 L 38.722656 160.308594 L 38.921875 160.238281 L 38.988281 160.222656 L 39.058594 160.203125 L 39.125 160.191406 L 39.195312 160.179688 L 39.335938 160.164062 L 39.410156 160.160156 Z M 39.480469 160.160156 "/>
<path fill-rule="nonzero" fill="rgb(0%, 0%, 0%)" fill-opacity="1" d="M 37.628906 153.429688 L 37.863281 153.429688 L 38.089844 153.4375 L 38.308594 153.449219 L 38.519531 153.464844 L 38.726562 153.484375 L 38.921875 153.511719 L 39.109375 153.539062 L 39.292969 153.574219 L 39.464844 153.613281 L 39.632812 153.65625 L 39.792969 153.703125 L 39.945312 153.753906 L 40.089844 153.804688 L 40.230469 153.863281 L 40.367188 153.921875 L 40.492188 153.984375 L 40.617188 154.050781 L 40.730469 154.121094 L 40.839844 154.195312 L 40.945312 154.273438 L 41.042969 154.351562 L 41.132812 154.433594 L 41.21875 154.515625 L 41.300781 154.605469 L 41.375 154.695312 L 41.441406 154.785156 L 41.503906 154.882812 L 41.5625 154.980469 L 41.613281 155.082031 L 41.660156 155.1875 L 41.703125 155.292969 L 41.738281 155.398438 L 41.769531 155.507812 L 41.800781 155.621094 L 41.824219 155.730469 L 41.84375 155.84375 L 41.859375 155.957031 L 41.875 156.191406 L 41.878906 156.3125 L 41.875 156.429688 L 41.867188 156.550781 L 41.859375 156.664062 L 41.84375 156.78125 L 41.824219 156.894531 L 41.800781 157.003906 L 41.769531 157.117188 L 41.738281 157.222656 L 41.703125 157.332031 L 41.660156 157.4375 L 41.613281 157.539062 L 41.5625 157.640625 L 41.503906 157.738281 L 41.441406 157.832031 L 41.375 157.925781 L 41.300781 158.011719 L 41.21875 158.101562 L 41.132812 158.183594 L 41.042969 158.265625 L 40.945312 158.34375 L 40.84375 158.417969 L 40.734375 158.492188 L 40.617188 158.558594 L 40.496094 158.625 L 40.371094 158.6875 L 40.234375 158.746094 L 40.097656 158.800781 L 39.949219 158.851562 L 39.796875 158.902344 L 39.640625 158.949219 L 39.472656 158.988281 L 39.296875 159.027344 L 39.117188 159.058594 L 38.925781 159.085938 L 38.730469 159.109375 L 38.523438 159.128906 L 38.3125 159.144531 L 38.09375 159.15625 L 37.863281 159.164062 L 37.382812 159.164062 L 37.148438 159.15625 L 36.917969 159.144531 L 36.699219 159.128906 L 36.488281 159.109375 L 36.289062 159.085938 L 36.09375 159.058594 L 35.910156 159.027344 L 35.734375 158.988281 L 35.566406 158.949219 L 35.40625 158.902344 L 35.25 158.851562 L 35.105469 158.800781 L 34.964844 158.742188 L 34.828125 158.683594 L 34.703125 158.621094 L 34.582031 158.554688 L 34.46875 158.488281 L 34.359375 158.414062 L 34.261719 158.339844 L 34.164062 158.257812 L 34.078125 158.179688 L 33.996094 158.09375 L 33.917969 158.007812 L 33.847656 157.917969 L 33.78125 157.824219 L 33.722656 157.726562 L 33.667969 157.628906 L 33.621094 157.527344 L 33.582031 157.425781 L 33.542969 157.316406 L 33.507812 157.210938 L 33.480469 157.097656 L 33.453125 156.988281 L 33.429688 156.875 L 33.398438 156.640625 L 33.382812 156.398438 L 33.382812 156.160156 L 33.398438 155.925781 L 33.414062 155.816406 L 33.429688 155.703125 L 33.453125 155.59375 L 33.480469 155.484375 L 33.507812 155.378906 L 33.542969 155.273438 L 33.582031 155.167969 L 33.621094 155.066406 L 33.667969 154.964844 L 33.722656 154.867188 L 33.78125 154.773438 L 33.847656 154.679688 L 33.917969 154.589844 L 33.996094 154.503906 L 34.078125 154.421875 L 34.164062 154.339844 L 34.359375 154.183594 L 34.46875 154.113281 L 34.582031 154.042969 L 34.703125 153.976562 L 34.828125 153.914062 L 34.964844 153.855469 L 35.105469 153.800781 L 35.25 153.746094 L 35.40625 153.695312 L 35.566406 153.652344 L 35.734375 153.609375 L 35.910156 153.570312 L 36.09375 153.539062 L 36.289062 153.507812 L 36.488281 153.484375 L 36.699219 153.464844 L 36.917969 153.449219 L 37.148438 153.4375 L 37.382812 153.429688 Z M 37.628906 154.5 L 37.4375 154.5 L 37.25 154.503906 L 37.070312 154.511719 L 36.894531 154.519531 L 36.726562 154.53125 L 36.566406 154.542969 L 36.414062 154.558594 L 36.269531 154.574219 L 36.128906 154.59375 L 35.996094 154.617188 L 35.867188 154.640625 L 35.742188 154.667969 L 35.625 154.699219 L 35.511719 154.730469 L 35.40625 154.761719 L 35.304688 154.796875 L 35.207031 154.835938 L 35.117188 154.875 L 35.03125 154.917969 L 34.875 155.011719 L 34.804688 155.058594 L 34.738281 155.109375 L 34.675781 155.164062 L 34.617188 155.21875 L 34.515625 155.335938 L 34.472656 155.398438 L 34.433594 155.460938 L 34.339844 155.660156 L 34.316406 155.730469 L 34.277344 155.878906 L 34.261719 155.953125 L 34.25 156.03125 L 34.242188 156.109375 L 34.238281 156.191406 L 34.238281 156.363281 L 34.242188 156.449219 L 34.25 156.535156 L 34.261719 156.617188 L 34.277344 156.695312 L 34.296875 156.773438 L 34.316406 156.847656 L 34.339844 156.921875 L 34.402344 157.0625 L 34.4375 157.128906 L 34.476562 157.191406 L 34.519531 157.253906 L 34.570312 157.316406 L 34.621094 157.375 L 34.679688 157.429688 L 34.742188 157.484375 L 34.808594 157.539062 L 34.882812 157.585938 L 34.957031 157.636719 L 35.121094 157.722656 L 35.308594 157.800781 L 35.410156 157.835938 L 35.519531 157.871094 L 35.628906 157.902344 L 35.871094 157.957031 L 36 157.980469 L 36.132812 158.003906 L 36.273438 158.023438 L 36.421875 158.039062 L 36.574219 158.054688 L 36.734375 158.070312 L 36.898438 158.078125 L 37.070312 158.085938 L 37.25 158.09375 L 37.4375 158.097656 L 37.816406 158.097656 L 37.996094 158.09375 L 38.171875 158.085938 L 38.339844 158.078125 L 38.503906 158.070312 L 38.660156 158.054688 L 38.8125 158.039062 L 38.957031 158.023438 L 39.09375 158.003906 L 39.230469 157.980469 L 39.355469 157.957031 L 39.480469 157.925781 L 39.597656 157.898438 L 39.707031 157.867188 L 39.816406 157.832031 L 39.917969 157.796875 L 40.015625 157.757812 L 40.109375 157.714844 L 40.195312 157.675781 L 40.277344 157.628906 L 40.355469 157.582031 L 40.425781 157.53125 L 40.492188 157.480469 L 40.558594 157.425781 L 40.617188 157.371094 L 40.671875 157.3125 L 40.722656 157.253906 L 40.765625 157.191406 L 40.808594 157.125 L 40.847656 157.0625 L 40.878906 156.992188 L 40.933594 156.851562 L 40.972656 156.703125 L 40.988281 156.625 L 41 156.546875 L 41.015625 156.382812 L 41.015625 156.21875 L 41.007812 156.136719 L 41 156.058594 L 40.988281 155.980469 L 40.972656 155.902344 L 40.953125 155.828125 L 40.933594 155.757812 L 40.878906 155.617188 L 40.847656 155.550781 L 40.808594 155.484375 L 40.722656 155.359375 L 40.671875 155.300781 L 40.617188 155.242188 L 40.558594 155.1875 L 40.492188 155.132812 L 40.425781 155.082031 L 40.355469 155.035156 L 40.277344 154.988281 L 40.195312 154.941406 L 40.109375 154.898438 L 40.015625 154.855469 L 39.917969 154.816406 L 39.816406 154.78125 L 39.707031 154.746094 L 39.597656 154.714844 L 39.480469 154.683594 L 39.230469 154.628906 L 38.957031 154.582031 L 38.8125 154.5625 L 38.660156 154.546875 L 38.503906 154.53125 L 38.339844 154.519531 L 38.171875 154.511719 L 37.996094 154.503906 L 37.816406 154.5 Z M 37.628906 154.5 "/>
<path fill-rule="nonzero" fill="rgb(0%, 0%, 0%)" fill-opacity="1" d="M 39.480469 127.242188 L 39.59375 127.246094 L 39.703125 127.25 L 39.8125 127.261719 L 39.914062 127.273438 L 40.019531 127.289062 L 40.214844 127.335938 L 40.3125 127.363281 L 40.402344 127.394531 L 40.496094 127.429688 L 40.582031 127.46875 L 40.667969 127.511719 L 40.75 127.554688 L 40.90625 127.65625 L 40.980469 127.710938 L 41.121094 127.835938 L 41.1875 127.902344 L 41.25 127.96875 L 41.367188 128.117188 L 41.421875 128.199219 L 41.472656 128.28125 L 41.519531 128.367188 L 41.566406 128.457031 L 41.609375 128.550781 L 41.648438 128.644531 L 41.71875 128.847656 L 41.75 128.957031 L 41.777344 129.0625 L 41.800781 129.175781 L 41.820312 129.292969 L 41.835938 129.410156 L 41.851562 129.53125 L 41.863281 129.652344 L 41.871094 129.78125 L 41.875 129.910156 L 41.878906 130.042969 L 41.875 130.195312 L 41.871094 130.34375 L 41.859375 130.484375 L 41.847656 130.621094 L 41.832031 130.753906 L 41.808594 130.878906 L 41.785156 131 L 41.757812 131.121094 L 41.726562 131.230469 L 41.691406 131.339844 L 41.648438 131.441406 L 41.609375 131.542969 L 41.5625 131.636719 L 41.46875 131.816406 L 41.414062 131.898438 L 41.363281 131.980469 L 41.304688 132.058594 L 41.246094 132.132812 L 41.1875 132.199219 L 41.054688 132.332031 L 40.988281 132.390625 L 40.847656 132.5 L 40.777344 132.546875 L 40.703125 132.59375 L 40.628906 132.636719 L 40.550781 132.675781 L 40.472656 132.710938 L 40.308594 132.773438 L 40.144531 132.828125 L 40.0625 132.851562 L 39.976562 132.871094 L 39.894531 132.890625 L 39.722656 132.921875 L 39.640625 132.933594 L 39.539062 131.84375 L 39.605469 131.832031 L 39.730469 131.808594 L 39.792969 131.792969 L 39.910156 131.761719 L 39.96875 131.742188 L 40.027344 131.71875 L 40.082031 131.699219 L 40.136719 131.671875 L 40.191406 131.648438 L 40.242188 131.617188 L 40.292969 131.589844 L 40.339844 131.554688 L 40.386719 131.523438 L 40.433594 131.488281 L 40.519531 131.410156 L 40.601562 131.328125 L 40.636719 131.285156 L 40.671875 131.238281 L 40.742188 131.136719 L 40.769531 131.085938 L 40.800781 131.03125 L 40.828125 130.976562 L 40.851562 130.917969 L 40.898438 130.792969 L 40.917969 130.730469 L 40.9375 130.664062 L 40.953125 130.59375 L 40.964844 130.523438 L 40.976562 130.449219 L 40.988281 130.371094 L 40.996094 130.292969 L 41 130.214844 L 41.003906 130.128906 L 41.003906 130.042969 L 41 129.890625 L 40.988281 129.738281 L 40.96875 129.597656 L 40.941406 129.460938 L 40.90625 129.335938 L 40.863281 129.214844 L 40.8125 129.097656 L 40.753906 128.992188 L 40.6875 128.890625 L 40.613281 128.796875 L 40.527344 128.710938 L 40.4375 128.632812 L 40.339844 128.5625 L 40.238281 128.503906 L 40.125 128.453125 L 40.003906 128.414062 L 39.875 128.378906 L 39.738281 128.359375 L 39.597656 128.34375 L 39.445312 128.339844 L 39.355469 128.339844 L 39.269531 128.347656 L 39.1875 128.359375 L 39.109375 128.371094 L 39.035156 128.390625 L 38.960938 128.414062 L 38.894531 128.441406 L 38.769531 128.503906 L 38.714844 128.542969 L 38.65625 128.585938 L 38.554688 128.671875 L 38.507812 128.722656 L 38.464844 128.769531 L 38.421875 128.820312 L 38.34375 128.929688 L 38.28125 129.046875 L 38.21875 129.171875 L 38.195312 129.234375 L 38.167969 129.296875 L 38.109375 129.496094 L 38.09375 129.5625 L 38.058594 129.773438 L 38.050781 129.84375 L 38.027344 130.042969 L 38.023438 130.109375 L 38.019531 130.171875 L 38.019531 130.234375 L 38.015625 130.296875 L 38.015625 130.953125 L 37.101562 130.953125 L 37.101562 130.320312 L 37.097656 130.257812 L 37.097656 130.199219 L 37.09375 130.136719 L 37.085938 130.074219 L 37.082031 130.011719 L 37.074219 129.949219 L 37.0625 129.886719 L 37.054688 129.820312 L 37.03125 129.695312 L 37.015625 129.632812 L 36.976562 129.507812 L 36.957031 129.449219 L 36.933594 129.390625 L 36.851562 129.226562 L 36.820312 129.171875 L 36.785156 129.117188 L 36.75 129.066406 L 36.671875 128.972656 L 36.628906 128.925781 L 36.582031 128.882812 L 36.488281 128.804688 L 36.433594 128.765625 L 36.382812 128.730469 L 36.265625 128.667969 L 36.203125 128.644531 L 36.136719 128.621094 L 36.066406 128.601562 L 35.996094 128.585938 L 35.921875 128.574219 L 35.84375 128.5625 L 35.679688 128.554688 L 35.546875 128.558594 L 35.425781 128.570312 L 35.304688 128.59375 L 35.191406 128.621094 L 35.085938 128.65625 L 34.984375 128.699219 L 34.890625 128.75 L 34.796875 128.808594 L 34.714844 128.875 L 34.636719 128.949219 L 34.5625 129.03125 L 34.496094 129.117188 L 34.4375 129.214844 L 34.386719 129.320312 L 34.34375 129.429688 L 34.308594 129.550781 L 34.28125 129.675781 L 34.265625 129.8125 L 34.253906 129.953125 L 34.25 130.101562 L 34.25 130.238281 L 34.261719 130.371094 L 34.28125 130.496094 L 34.304688 130.617188 L 34.335938 130.734375 L 34.375 130.84375 L 34.421875 130.949219 L 34.476562 131.050781 L 34.539062 131.144531 L 34.605469 131.234375 L 34.679688 131.316406 L 34.761719 131.390625 L 34.847656 131.457031 L 34.9375 131.519531 L 35.035156 131.574219 L 35.140625 131.617188 L 35.25 131.65625 L 35.363281 131.691406 L 35.488281 131.714844 L 35.613281 131.730469 L 35.53125 132.792969 L 35.320312 132.761719 L 35.117188 132.714844 L 35.023438 132.6875 L 34.929688 132.65625 L 34.835938 132.621094 L 34.75 132.582031 L 34.664062 132.539062 L 34.582031 132.492188 L 34.503906 132.445312 L 34.425781 132.394531 L 34.351562 132.34375 L 34.28125 132.285156 L 34.214844 132.230469 L 34.148438 132.167969 L 34.085938 132.105469 L 34.023438 132.039062 L 33.96875 131.972656 L 33.914062 131.902344 L 33.8125 131.753906 L 33.765625 131.675781 L 33.722656 131.59375 L 33.679688 131.515625 L 33.640625 131.429688 L 33.605469 131.34375 L 33.574219 131.257812 L 33.542969 131.167969 L 33.515625 131.074219 L 33.492188 130.984375 L 33.46875 130.886719 L 33.445312 130.792969 L 33.414062 130.597656 L 33.402344 130.5 L 33.386719 130.296875 L 33.382812 130.195312 L 33.382812 129.957031 L 33.386719 129.824219 L 33.398438 129.695312 L 33.410156 129.570312 L 33.425781 129.449219 L 33.445312 129.332031 L 33.46875 129.21875 L 33.492188 129.109375 L 33.523438 129.003906 L 33.558594 128.902344 L 33.59375 128.804688 L 33.628906 128.710938 L 33.714844 128.53125 L 33.757812 128.449219 L 33.859375 128.292969 L 33.910156 128.222656 L 33.96875 128.152344 L 34.027344 128.085938 L 34.085938 128.027344 L 34.148438 127.96875 L 34.210938 127.914062 L 34.34375 127.8125 L 34.414062 127.769531 L 34.488281 127.726562 L 34.636719 127.65625 L 34.71875 127.625 L 34.796875 127.597656 L 34.878906 127.570312 L 34.960938 127.546875 L 35.042969 127.527344 L 35.214844 127.496094 L 35.300781 127.484375 L 35.386719 127.480469 L 35.476562 127.472656 L 35.640625 127.472656 L 35.78125 127.480469 L 35.851562 127.488281 L 35.917969 127.496094 L 36.050781 127.519531 L 36.117188 127.535156 L 36.183594 127.554688 L 36.246094 127.570312 L 36.371094 127.617188 L 36.429688 127.640625 L 36.488281 127.667969 L 36.546875 127.699219 L 36.601562 127.730469 L 36.65625 127.765625 L 36.710938 127.804688 L 36.761719 127.839844 L 36.816406 127.882812 L 36.863281 127.925781 L 36.914062 127.972656 L 36.960938 128.019531 L 37.003906 128.070312 L 37.050781 128.121094 L 37.089844 128.179688 L 37.132812 128.234375 L 37.171875 128.296875 L 37.210938 128.355469 L 37.25 128.421875 L 37.285156 128.488281 L 37.316406 128.554688 L 37.347656 128.628906 L 37.378906 128.699219 L 37.433594 128.855469 L 37.460938 128.9375 L 37.484375 129.023438 L 37.503906 129.109375 L 37.523438 129.199219 L 37.546875 129.199219 L 37.558594 129.101562 L 37.589844 128.914062 L 37.628906 128.734375 L 37.65625 128.648438 L 37.679688 128.566406 L 37.742188 128.410156 L 37.777344 128.332031 L 37.808594 128.261719 L 37.847656 128.191406 L 37.925781 128.058594 L 37.96875 127.996094 L 38.054688 127.878906 L 38.105469 127.824219 L 38.152344 127.773438 L 38.203125 127.722656 L 38.253906 127.675781 L 38.363281 127.589844 L 38.421875 127.550781 L 38.539062 127.480469 L 38.597656 127.449219 L 38.660156 127.417969 L 38.722656 127.390625 L 38.855469 127.34375 L 38.988281 127.304688 L 39.058594 127.289062 L 39.125 127.273438 L 39.195312 127.265625 L 39.265625 127.253906 L 39.335938 127.25 L 39.410156 127.246094 Z M 39.480469 127.242188 "/>
<path fill-rule="nonzero" fill="rgb(0%, 0%, 0%)" fill-opacity="1" d="M 39.070312 120.546875 L 39.195312 120.546875 L 39.316406 120.554688 L 39.433594 120.5625 L 39.550781 120.578125 L 39.664062 120.59375 L 39.777344 120.613281 L 39.886719 120.636719 L 39.996094 120.667969 L 40.101562 120.699219 L 40.207031 120.734375 L 40.308594 120.773438 L 40.40625 120.816406 L 40.503906 120.863281 L 40.597656 120.914062 L 40.6875 120.96875 L 40.773438 121.023438 L 40.859375 121.085938 L 41.023438 121.21875 L 41.097656 121.289062 L 41.171875 121.367188 L 41.238281 121.445312 L 41.304688 121.527344 L 41.367188 121.617188 L 41.425781 121.707031 L 41.480469 121.800781 L 41.535156 121.898438 L 41.582031 121.996094 L 41.628906 122.101562 L 41.671875 122.210938 L 41.710938 122.320312 L 41.746094 122.4375 L 41.777344 122.554688 L 41.804688 122.675781 L 41.824219 122.800781 L 41.84375 122.929688 L 41.859375 123.058594 L 41.867188 123.195312 L 41.875 123.335938 L 41.878906 123.476562 L 41.875 123.605469 L 41.871094 123.730469 L 41.863281 123.851562 L 41.839844 124.085938 L 41.824219 124.199219 L 41.800781 124.304688 L 41.78125 124.410156 L 41.753906 124.515625 L 41.726562 124.613281 L 41.691406 124.707031 L 41.660156 124.800781 L 41.625 124.886719 L 41.585938 124.972656 L 41.542969 125.058594 L 41.457031 125.214844 L 41.410156 125.289062 L 41.359375 125.359375 L 41.308594 125.425781 L 41.253906 125.492188 L 41.199219 125.554688 L 41.140625 125.617188 L 40.953125 125.78125 L 40.820312 125.875 L 40.753906 125.917969 L 40.683594 125.960938 L 40.609375 126 L 40.535156 126.035156 L 40.386719 126.097656 L 40.3125 126.125 L 40.234375 126.152344 L 40.078125 126.199219 L 39.996094 126.21875 L 39.914062 126.234375 L 39.792969 125.167969 L 39.839844 125.15625 L 39.882812 125.140625 L 40.023438 125.09375 L 40.066406 125.074219 L 40.113281 125.054688 L 40.160156 125.03125 L 40.203125 125.011719 L 40.25 124.988281 L 40.292969 124.964844 L 40.332031 124.9375 L 40.375 124.910156 L 40.414062 124.882812 L 40.453125 124.851562 L 40.492188 124.816406 L 40.53125 124.785156 L 40.570312 124.75 L 40.640625 124.671875 L 40.675781 124.628906 L 40.707031 124.585938 L 40.738281 124.539062 L 40.792969 124.445312 L 40.820312 124.394531 L 40.847656 124.339844 L 40.871094 124.289062 L 40.917969 124.171875 L 40.933594 124.113281 L 40.953125 124.050781 L 40.96875 123.984375 L 40.992188 123.84375 L 41.007812 123.695312 L 41.011719 123.617188 L 41.015625 123.535156 L 41.015625 123.371094 L 41.011719 123.292969 L 40.996094 123.136719 L 40.972656 122.988281 L 40.957031 122.917969 L 40.9375 122.84375 L 40.917969 122.777344 L 40.894531 122.707031 L 40.867188 122.644531 L 40.835938 122.578125 L 40.804688 122.515625 L 40.734375 122.398438 L 40.65625 122.289062 L 40.613281 122.238281 L 40.566406 122.1875 L 40.519531 122.140625 L 40.46875 122.09375 L 40.304688 121.964844 L 40.242188 121.929688 L 40.183594 121.890625 L 40.117188 121.859375 L 40.054688 121.828125 L 39.984375 121.796875 L 39.914062 121.769531 L 39.839844 121.746094 L 39.691406 121.707031 L 39.613281 121.6875 L 39.449219 121.664062 L 39.363281 121.652344 L 39.09375 121.640625 L 38.871094 121.652344 L 38.800781 121.664062 L 38.730469 121.671875 L 38.660156 121.6875 L 38.59375 121.703125 L 38.460938 121.742188 L 38.398438 121.765625 L 38.332031 121.792969 L 38.273438 121.820312 L 38.210938 121.847656 L 38.152344 121.878906 L 38.042969 121.949219 L 37.992188 121.988281 L 37.890625 122.074219 L 37.800781 122.164062 L 37.757812 122.210938 L 37.714844 122.261719 L 37.636719 122.371094 L 37.601562 122.429688 L 37.570312 122.488281 L 37.507812 122.613281 L 37.484375 122.679688 L 37.457031 122.746094 L 37.398438 122.957031 L 37.375 123.105469 L 37.367188 123.183594 L 37.359375 123.265625 L 37.355469 123.347656 L 37.355469 123.535156 L 37.359375 123.585938 L 37.359375 123.632812 L 37.367188 123.683594 L 37.375 123.777344 L 37.390625 123.871094 L 37.402344 123.914062 L 37.410156 123.960938 L 37.457031 124.132812 L 37.46875 124.171875 L 37.484375 124.214844 L 37.5 124.253906 L 37.511719 124.292969 L 37.53125 124.332031 L 37.546875 124.367188 L 37.5625 124.40625 L 37.601562 124.476562 L 37.617188 124.511719 L 37.636719 124.546875 L 37.660156 124.578125 L 37.679688 124.613281 L 37.699219 124.644531 L 37.722656 124.675781 L 37.742188 124.707031 L 37.765625 124.738281 L 37.789062 124.765625 L 37.808594 124.796875 L 37.832031 124.824219 L 37.855469 124.855469 L 37.875 124.882812 L 37.945312 124.964844 L 37.945312 125.996094 L 33.503906 125.71875 L 33.503906 121.027344 L 34.402344 121.027344 L 34.402344 124.757812 L 37.019531 124.917969 L 36.976562 124.859375 L 36.9375 124.800781 L 36.894531 124.738281 L 36.855469 124.671875 L 36.820312 124.601562 L 36.78125 124.53125 L 36.746094 124.457031 L 36.714844 124.378906 L 36.652344 124.214844 L 36.621094 124.128906 L 36.59375 124.039062 L 36.570312 123.949219 L 36.53125 123.753906 L 36.519531 123.652344 L 36.507812 123.546875 L 36.492188 123.328125 L 36.492188 123.210938 L 36.496094 123.089844 L 36.5 122.972656 L 36.507812 122.855469 L 36.539062 122.628906 L 36.558594 122.519531 L 36.585938 122.410156 L 36.613281 122.308594 L 36.644531 122.203125 L 36.679688 122.105469 L 36.71875 122.007812 L 36.761719 121.914062 L 36.855469 121.734375 L 36.90625 121.648438 L 36.960938 121.566406 L 37.019531 121.488281 L 37.082031 121.410156 L 37.144531 121.339844 L 37.214844 121.265625 L 37.28125 121.199219 L 37.429688 121.074219 L 37.507812 121.015625 L 37.585938 120.960938 L 37.667969 120.910156 L 37.753906 120.859375 L 37.933594 120.773438 L 38.027344 120.734375 L 38.125 120.699219 L 38.320312 120.636719 L 38.421875 120.613281 L 38.527344 120.59375 L 38.738281 120.5625 L 38.957031 120.546875 Z M 39.070312 120.546875 "/>
<path fill-rule="nonzero" fill="rgb(0%, 0%, 0%)" fill-opacity="1" d="M 39.890625 95.3125 L 41.761719 95.3125 L 41.761719 96.308594 L 39.890625 96.308594 L 39.890625 100.199219 L 39.070312 100.199219 L 33.503906 96.417969 L 33.503906 95.3125 L 39.058594 95.3125 L 39.058594 94.152344 L 39.890625 94.152344 Z M 34.695312 96.308594 L 34.699219 96.308594 L 34.714844 96.316406 L 34.726562 96.324219 L 34.738281 96.328125 L 34.75 96.335938 L 34.761719 96.339844 L 34.792969 96.355469 L 34.8125 96.367188 L 34.828125 96.375 L 34.84375 96.386719 L 34.863281 96.394531 L 34.878906 96.40625 L 34.898438 96.417969 L 34.917969 96.425781 L 34.976562 96.460938 L 35 96.472656 L 35.039062 96.496094 L 35.0625 96.507812 L 35.082031 96.519531 L 35.105469 96.53125 L 35.125 96.542969 L 35.148438 96.558594 L 35.171875 96.570312 L 35.191406 96.582031 L 35.214844 96.59375 L 35.234375 96.605469 L 35.257812 96.617188 L 35.273438 96.628906 L 35.3125 96.652344 L 35.328125 96.660156 L 35.34375 96.671875 L 35.359375 96.679688 L 35.375 96.691406 L 35.390625 96.699219 L 38.507812 98.816406 L 38.519531 98.820312 L 38.527344 98.828125 L 38.574219 98.859375 L 38.589844 98.871094 L 38.601562 98.882812 L 38.617188 98.890625 L 38.632812 98.902344 L 38.644531 98.914062 L 38.675781 98.9375 L 38.691406 98.945312 L 38.707031 98.957031 L 38.726562 98.96875 L 38.867188 99.074219 L 38.878906 99.085938 L 38.957031 99.144531 L 38.96875 99.15625 L 38.984375 99.164062 L 38.996094 99.175781 L 39.007812 99.183594 L 39.019531 99.195312 L 39.03125 99.203125 L 39.039062 99.210938 L 39.050781 99.21875 L 39.058594 99.226562 L 39.058594 96.308594 Z M 34.695312 96.308594 "/>
<path fill-rule="nonzero" fill="rgb(0%, 0%, 0%)" fill-opacity="1" d="M 37.628906 87.59375 L 37.863281 87.597656 L 38.089844 87.605469 L 38.308594 87.617188 L 38.519531 87.632812 L 38.726562 87.652344 L 38.921875 87.675781 L 39.109375 87.707031 L 39.292969 87.742188 L 39.464844 87.78125 L 39.632812 87.824219 L 39.792969 87.871094 L 39.945312 87.917969 L 40.089844 87.972656 L 40.230469 88.027344 L 40.367188 88.089844 L 40.492188 88.152344 L 40.617188 88.21875 L 40.730469 88.289062 L 40.839844 88.363281 L 40.945312 88.4375 L 41.042969 88.515625 L 41.132812 88.597656 L 41.21875 88.683594 L 41.300781 88.769531 L 41.375 88.859375 L 41.441406 88.953125 L 41.503906 89.050781 L 41.5625 89.148438 L 41.613281 89.25 L 41.660156 89.351562 L 41.703125 89.457031 L 41.738281 89.566406 L 41.800781 89.785156 L 41.824219 89.898438 L 41.84375 90.011719 L 41.859375 90.125 L 41.875 90.359375 L 41.878906 90.476562 L 41.875 90.597656 L 41.859375 90.832031 L 41.84375 90.949219 L 41.824219 91.0625 L 41.800781 91.171875 L 41.738281 91.390625 L 41.703125 91.496094 L 41.660156 91.601562 L 41.613281 91.707031 L 41.5625 91.804688 L 41.503906 91.902344 L 41.441406 92 L 41.375 92.089844 L 41.300781 92.179688 L 41.21875 92.265625 L 41.132812 92.351562 L 41.042969 92.433594 L 40.945312 92.511719 L 40.84375 92.585938 L 40.734375 92.65625 L 40.617188 92.726562 L 40.496094 92.789062 L 40.371094 92.851562 L 40.234375 92.910156 L 40.097656 92.964844 L 39.949219 93.019531 L 39.796875 93.066406 L 39.640625 93.113281 L 39.472656 93.15625 L 39.296875 93.191406 L 39.117188 93.226562 L 38.925781 93.253906 L 38.730469 93.277344 L 38.523438 93.296875 L 38.3125 93.3125 L 38.09375 93.324219 L 37.863281 93.328125 L 37.628906 93.332031 L 37.382812 93.328125 L 37.148438 93.324219 L 36.917969 93.3125 L 36.699219 93.296875 L 36.488281 93.277344 L 36.289062 93.253906 L 36.09375 93.226562 L 35.910156 93.191406 L 35.734375 93.15625 L 35.566406 93.113281 L 35.40625 93.066406 L 35.25 93.019531 L 35.105469 92.964844 L 34.964844 92.910156 L 34.828125 92.851562 L 34.703125 92.789062 L 34.582031 92.722656 L 34.46875 92.652344 L 34.359375 92.582031 L 34.164062 92.425781 L 34.078125 92.34375 L 33.996094 92.261719 L 33.917969 92.171875 L 33.847656 92.082031 L 33.78125 91.992188 L 33.722656 91.894531 L 33.667969 91.796875 L 33.621094 91.695312 L 33.542969 91.484375 L 33.507812 91.375 L 33.480469 91.265625 L 33.453125 91.152344 L 33.429688 91.039062 L 33.414062 90.925781 L 33.398438 90.808594 L 33.382812 90.566406 L 33.382812 90.324219 L 33.390625 90.207031 L 33.398438 90.09375 L 33.414062 89.980469 L 33.429688 89.871094 L 33.453125 89.761719 L 33.507812 89.542969 L 33.542969 89.4375 L 33.582031 89.335938 L 33.621094 89.230469 L 33.667969 89.132812 L 33.722656 89.035156 L 33.78125 88.941406 L 33.847656 88.847656 L 33.917969 88.757812 L 33.996094 88.671875 L 34.078125 88.585938 L 34.164062 88.503906 L 34.261719 88.425781 L 34.359375 88.351562 L 34.46875 88.277344 L 34.582031 88.210938 L 34.703125 88.144531 L 34.828125 88.082031 L 34.964844 88.023438 L 35.105469 87.964844 L 35.25 87.914062 L 35.40625 87.863281 L 35.566406 87.816406 L 35.734375 87.773438 L 35.910156 87.738281 L 36.09375 87.703125 L 36.289062 87.675781 L 36.488281 87.652344 L 36.699219 87.628906 L 36.917969 87.613281 L 37.148438 87.605469 L 37.382812 87.597656 Z M 37.628906 88.667969 L 37.4375 88.667969 L 37.25 88.671875 L 37.070312 88.675781 L 36.894531 88.6875 L 36.726562 88.695312 L 36.566406 88.710938 L 36.414062 88.722656 L 36.269531 88.742188 L 36.128906 88.761719 L 35.996094 88.785156 L 35.867188 88.808594 L 35.742188 88.835938 L 35.625 88.863281 L 35.511719 88.894531 L 35.40625 88.929688 L 35.304688 88.964844 L 35.207031 89.003906 L 35.117188 89.042969 L 35.03125 89.085938 L 34.953125 89.128906 L 34.875 89.175781 L 34.804688 89.226562 L 34.738281 89.277344 L 34.675781 89.328125 L 34.617188 89.386719 L 34.566406 89.441406 L 34.515625 89.5 L 34.472656 89.5625 L 34.433594 89.625 L 34.371094 89.757812 L 34.339844 89.828125 L 34.316406 89.898438 L 34.296875 89.96875 L 34.277344 90.042969 L 34.261719 90.121094 L 34.25 90.199219 L 34.242188 90.277344 L 34.238281 90.359375 L 34.238281 90.53125 L 34.242188 90.617188 L 34.25 90.699219 L 34.261719 90.78125 L 34.277344 90.863281 L 34.296875 90.9375 L 34.316406 91.015625 L 34.339844 91.085938 L 34.371094 91.160156 L 34.402344 91.226562 L 34.4375 91.292969 L 34.476562 91.359375 L 34.519531 91.421875 L 34.570312 91.484375 L 34.621094 91.542969 L 34.679688 91.597656 L 34.742188 91.652344 L 34.808594 91.703125 L 34.882812 91.753906 L 34.957031 91.800781 L 35.039062 91.847656 L 35.121094 91.890625 L 35.308594 91.96875 L 35.410156 92.003906 L 35.628906 92.066406 L 35.75 92.097656 L 35.871094 92.125 L 36 92.148438 L 36.132812 92.167969 L 36.273438 92.191406 L 36.421875 92.207031 L 36.574219 92.222656 L 36.734375 92.234375 L 36.898438 92.246094 L 37.070312 92.253906 L 37.25 92.261719 L 37.4375 92.261719 L 37.628906 92.265625 L 37.816406 92.261719 L 37.996094 92.261719 L 38.171875 92.253906 L 38.339844 92.246094 L 38.503906 92.234375 L 38.660156 92.222656 L 38.8125 92.207031 L 38.957031 92.191406 L 39.09375 92.167969 L 39.230469 92.148438 L 39.480469 92.09375 L 39.597656 92.0625 L 39.816406 92 L 39.917969 91.960938 L 40.015625 91.921875 L 40.109375 91.882812 L 40.195312 91.839844 L 40.277344 91.796875 L 40.355469 91.75 L 40.425781 91.699219 L 40.492188 91.648438 L 40.558594 91.59375 L 40.671875 91.480469 L 40.722656 91.417969 L 40.808594 91.292969 L 40.847656 91.226562 L 40.878906 91.160156 L 40.933594 91.019531 L 40.972656 90.871094 L 40.988281 90.792969 L 41 90.714844 L 41.015625 90.550781 L 41.015625 90.382812 L 41.007812 90.304688 L 41 90.222656 L 40.988281 90.144531 L 40.972656 90.070312 L 40.933594 89.921875 L 40.90625 89.851562 L 40.878906 89.785156 L 40.847656 89.714844 L 40.808594 89.648438 L 40.722656 89.523438 L 40.671875 89.464844 L 40.558594 89.351562 L 40.425781 89.25 L 40.355469 89.199219 L 40.277344 89.152344 L 40.195312 89.109375 L 40.109375 89.0625 L 40.015625 89.023438 L 39.917969 88.984375 L 39.816406 88.945312 L 39.707031 88.914062 L 39.597656 88.878906 L 39.480469 88.851562 L 39.355469 88.820312 L 39.230469 88.796875 L 38.957031 88.75 L 38.8125 88.730469 L 38.660156 88.714844 L 38.503906 88.699219 L 38.339844 88.6875 L 38.171875 88.679688 L 37.996094 88.671875 L 37.816406 88.667969 Z M 37.628906 88.667969 "/>
<path fill-rule="nonzero" fill="rgb(0%, 0%, 0%)" fill-opacity="1" d="M 39.890625 62.394531 L 41.761719 62.394531 L 41.761719 63.390625 L 39.890625 63.390625 L 39.890625 67.28125 L 39.070312 67.28125 L 33.503906 63.503906 L 33.503906 62.394531 L 39.058594 62.394531 L 39.058594 61.234375 L 39.890625 61.234375 Z M 34.695312 63.390625 L 34.699219 63.394531 L 34.714844 63.402344 L 34.738281 63.410156 L 34.761719 63.425781 L 34.792969 63.441406 L 34.8125 63.449219 L 34.828125 63.460938 L 34.84375 63.46875 L 34.863281 63.480469 L 34.878906 63.488281 L 34.917969 63.511719 L 34.9375 63.519531 L 34.976562 63.542969 L 35 63.554688 L 35.039062 63.578125 L 35.0625 63.589844 L 35.082031 63.601562 L 35.105469 63.617188 L 35.125 63.628906 L 35.171875 63.652344 L 35.191406 63.664062 L 35.214844 63.679688 L 35.234375 63.691406 L 35.273438 63.710938 L 35.3125 63.734375 L 35.328125 63.746094 L 35.34375 63.753906 L 35.359375 63.765625 L 35.375 63.773438 L 35.390625 63.785156 L 38.507812 65.898438 L 38.519531 65.90625 L 38.527344 65.910156 L 38.550781 65.925781 L 38.5625 65.9375 L 38.574219 65.945312 L 38.589844 65.953125 L 38.601562 65.964844 L 38.632812 65.988281 L 38.644531 65.996094 L 38.707031 66.042969 L 38.726562 66.050781 L 38.867188 66.15625 L 38.878906 66.167969 L 38.957031 66.226562 L 38.96875 66.238281 L 38.984375 66.25 L 38.996094 66.257812 L 39.007812 66.269531 L 39.03125 66.285156 L 39.039062 66.292969 L 39.050781 66.300781 L 39.058594 66.308594 L 39.058594 63.390625 Z M 34.695312 63.390625 "/>
<path fill-rule="nonzero" fill="rgb(0%, 0%, 0%)" fill-opacity="1" d="M 39.070312 54.714844 L 39.195312 54.714844 L 39.316406 54.722656 L 39.433594 54.730469 L 39.550781 54.742188 L 39.777344 54.78125 L 39.886719 54.804688 L 39.996094 54.832031 L 40.207031 54.902344 L 40.308594 54.941406 L 40.40625 54.984375 L 40.503906 55.03125 L 40.597656 55.078125 L 40.6875 55.132812 L 40.773438 55.191406 L 40.859375 55.253906 L 40.941406 55.316406 L 41.023438 55.386719 L 41.097656 55.457031 L 41.171875 55.53125 L 41.304688 55.695312 L 41.367188 55.78125 L 41.425781 55.871094 L 41.480469 55.964844 L 41.535156 56.0625 L 41.582031 56.164062 L 41.628906 56.269531 L 41.671875 56.378906 L 41.710938 56.488281 L 41.746094 56.601562 L 41.777344 56.71875 L 41.804688 56.839844 L 41.824219 56.964844 L 41.84375 57.09375 L 41.859375 57.226562 L 41.875 57.5 L 41.878906 57.644531 L 41.875 57.773438 L 41.871094 57.898438 L 41.863281 58.019531 L 41.839844 58.253906 L 41.824219 58.363281 L 41.800781 58.472656 L 41.78125 58.578125 L 41.726562 58.78125 L 41.691406 58.875 L 41.660156 58.964844 L 41.625 59.054688 L 41.585938 59.140625 L 41.5 59.304688 L 41.457031 59.378906 L 41.410156 59.453125 L 41.359375 59.527344 L 41.308594 59.59375 L 41.253906 59.660156 L 41.199219 59.722656 L 41.140625 59.78125 L 41.078125 59.839844 L 41.015625 59.894531 L 40.953125 59.945312 L 40.886719 59.996094 L 40.820312 60.042969 L 40.753906 60.085938 L 40.683594 60.128906 L 40.460938 60.234375 L 40.386719 60.265625 L 40.3125 60.292969 L 40.234375 60.320312 L 40.078125 60.367188 L 39.996094 60.386719 L 39.914062 60.402344 L 39.792969 59.335938 L 39.839844 59.324219 L 39.882812 59.308594 L 39.976562 59.277344 L 40.023438 59.257812 L 40.066406 59.238281 L 40.160156 59.199219 L 40.203125 59.175781 L 40.25 59.15625 L 40.292969 59.128906 L 40.332031 59.105469 L 40.375 59.078125 L 40.492188 58.984375 L 40.570312 58.914062 L 40.605469 58.878906 L 40.640625 58.839844 L 40.675781 58.796875 L 40.707031 58.753906 L 40.738281 58.707031 L 40.792969 58.613281 L 40.820312 58.5625 L 40.847656 58.507812 L 40.894531 58.398438 L 40.917969 58.339844 L 40.933594 58.28125 L 40.953125 58.214844 L 40.96875 58.148438 L 40.980469 58.082031 L 40.992188 58.011719 L 41.007812 57.863281 L 41.011719 57.785156 L 41.015625 57.703125 L 41.015625 57.539062 L 41.011719 57.457031 L 41.003906 57.378906 L 40.996094 57.304688 L 40.972656 57.15625 L 40.957031 57.082031 L 40.917969 56.941406 L 40.894531 56.875 L 40.867188 56.808594 L 40.804688 56.683594 L 40.734375 56.566406 L 40.65625 56.457031 L 40.613281 56.40625 L 40.566406 56.355469 L 40.519531 56.308594 L 40.46875 56.261719 L 40.414062 56.214844 L 40.359375 56.171875 L 40.304688 56.132812 L 40.242188 56.09375 L 40.183594 56.058594 L 40.117188 56.023438 L 40.054688 55.992188 L 39.914062 55.9375 L 39.765625 55.890625 L 39.691406 55.871094 L 39.613281 55.855469 L 39.53125 55.839844 L 39.449219 55.828125 L 39.363281 55.820312 L 39.273438 55.8125 L 39.183594 55.808594 L 39.019531 55.808594 L 38.945312 55.8125 L 38.871094 55.820312 L 38.800781 55.828125 L 38.660156 55.851562 L 38.59375 55.871094 L 38.527344 55.886719 L 38.460938 55.910156 L 38.398438 55.933594 L 38.332031 55.957031 L 38.273438 55.984375 L 38.210938 56.015625 L 38.152344 56.046875 L 38.042969 56.117188 L 37.941406 56.195312 L 37.890625 56.238281 L 37.847656 56.285156 L 37.800781 56.332031 L 37.757812 56.378906 L 37.714844 56.429688 L 37.636719 56.539062 L 37.601562 56.597656 L 37.570312 56.65625 L 37.507812 56.78125 L 37.484375 56.847656 L 37.457031 56.914062 L 37.4375 56.980469 L 37.417969 57.050781 L 37.398438 57.125 L 37.375 57.273438 L 37.359375 57.429688 L 37.355469 57.511719 L 37.355469 57.699219 L 37.359375 57.75 L 37.359375 57.800781 L 37.367188 57.851562 L 37.375 57.945312 L 37.390625 58.039062 L 37.402344 58.082031 L 37.410156 58.125 L 37.421875 58.171875 L 37.445312 58.257812 L 37.457031 58.296875 L 37.46875 58.339844 L 37.484375 58.378906 L 37.5 58.421875 L 37.511719 58.460938 L 37.53125 58.5 L 37.546875 58.535156 L 37.5625 58.574219 L 37.601562 58.644531 L 37.617188 58.679688 L 37.636719 58.714844 L 37.660156 58.746094 L 37.679688 58.78125 L 37.699219 58.8125 L 37.722656 58.84375 L 37.742188 58.875 L 37.765625 58.90625 L 37.789062 58.933594 L 37.808594 58.964844 L 37.855469 59.019531 L 37.875 59.050781 L 37.945312 59.132812 L 37.945312 60.164062 L 33.503906 59.886719 L 33.503906 55.195312 L 34.402344 55.195312 L 34.402344 58.925781 L 37.019531 59.085938 L 36.976562 59.027344 L 36.9375 58.964844 L 36.894531 58.902344 L 36.855469 58.835938 L 36.820312 58.769531 L 36.78125 58.695312 L 36.746094 58.621094 L 36.683594 58.464844 L 36.652344 58.382812 L 36.621094 58.296875 L 36.59375 58.207031 L 36.570312 58.113281 L 36.550781 58.019531 L 36.53125 57.921875 L 36.519531 57.816406 L 36.507812 57.714844 L 36.5 57.605469 L 36.492188 57.492188 L 36.492188 57.378906 L 36.5 57.136719 L 36.507812 57.019531 L 36.523438 56.90625 L 36.539062 56.796875 L 36.558594 56.683594 L 36.613281 56.472656 L 36.644531 56.371094 L 36.679688 56.273438 L 36.71875 56.175781 L 36.761719 56.082031 L 36.808594 55.988281 L 36.855469 55.902344 L 36.90625 55.816406 L 36.960938 55.734375 L 37.019531 55.65625 L 37.082031 55.578125 L 37.144531 55.503906 L 37.28125 55.367188 L 37.355469 55.300781 L 37.429688 55.242188 L 37.507812 55.183594 L 37.585938 55.128906 L 37.667969 55.078125 L 37.753906 55.027344 L 37.84375 54.980469 L 37.933594 54.941406 L 38.027344 54.902344 L 38.222656 54.832031 L 38.320312 54.804688 L 38.421875 54.78125 L 38.632812 54.742188 L 38.738281 54.730469 L 38.957031 54.714844 Z M 39.070312 54.714844 "/>
<path fill="none" stroke-width="0.75" stroke-linecap="round" stroke-linejoin="round" stroke="rgb(0%, 0%, 0%)" stroke-opacity="1" stroke-miterlimit="10" d="M 59.039062 286.558594 L 473.761719 286.558594 L 473.761719 59.039062 L 59.039062 59.039062 Z M 59.039062 286.558594 "/>
</svg>
