<?xml version="1.0" encoding="UTF-8"?>
<svg xmlns="http://www.w3.org/2000/svg" xmlns:xlink="http://www.w3.org/1999/xlink" width="504" height="360" viewBox="0 0 504 360">
<rect x="-50.4" y="-36" width="604.8" height="432" fill="rgb(100%, 100%, 100%)" fill-opacity="1"/>
<path fill-rule="nonzero" fill="rgb(74.509804%, 74.509804%, 74.509804%)" fill-opacity="1" stroke-width="0.75" stroke-linecap="round" stroke-linejoin="round" stroke="rgb(0%, 0%, 0%)" stroke-opacity="1" stroke-miterlimit="10" d="M 74.398438 284.308594 L 187.339844 284.308594 L 187.339844 65.417969 L 74.398438 65.417969 Z M 74.398438 284.308594 "/>
<path fill-rule="nonzero" fill="rgb(74.509804%, 74.509804%, 74.509804%)" fill-opacity="1" stroke-width="0.75" stroke-linecap="round" stroke-linejoin="round" stroke="rgb(0%, 0%, 0%)" stroke-opacity="1" stroke-miterlimit="10" d="M 209.929688 284.308594 L 322.871094 284.308594 L 322.871094 59.042969 L 209.929688 59.042969 Z M 209.929688 284.308594 "/>
<path fill-rule="nonzero" fill="rgb(74.509804%, 74.509804%, 74.509804%)" fill-opacity="1" stroke-width="0.75" stroke-linecap="round" stroke-linejoin="round" stroke="rgb(0%, 0%, 0%)" stroke-opacity="1" stroke-miterlimit="10" d="M 345.457031 284.308594 L 458.398438 284.308594 L 458.398438 231.179688 L 345.457031 231.179688 Z M 345.457031 284.308594 "/>
<path fill-rule="nonzero" fill="rgb(0%, 0%, 0%)" fill-opacity="1" d="M 132.695312 310.609375 L 132.695312 312.480469 L 131.699219 312.480469 L 131.699219 310.609375 L 127.808594 310.609375 L 127.808594 309.789062 L 131.589844 304.222656 L 132.695312 304.222656 L 132.695312 309.777344 L 133.855469 309.777344 L 133.855469 310.609375 Z M 131.699219 305.414062 L 131.695312 305.421875 L 131.695312 305.425781 L 131.691406 305.4375 L 131.683594 305.445312 L 131.679688 305.457031 L 131.671875 305.46875 L 131.667969 305.484375 L 131.660156 305.496094 L 131.648438 305.515625 L 131.632812 305.546875 L 131.621094 305.566406 L 131.613281 305.582031 L 131.601562 305.601562 L 131.589844 305.617188 L 131.582031 305.636719 L 131.558594 305.675781 L 131.546875 305.699219 L 131.523438 305.738281 L 131.511719 305.761719 L 131.5 305.78125 L 131.488281 305.804688 L 131.476562 305.824219 L 131.464844 305.847656 L 131.449219 305.867188 L 131.425781 305.914062 L 131.414062 305.933594 L 131.402344 305.957031 L 131.367188 306.015625 L 131.355469 306.03125 L 131.347656 306.050781 L 131.335938 306.066406 L 131.328125 306.082031 L 131.316406 306.097656 L 131.308594 306.109375 L 129.191406 309.226562 L 129.1875 309.238281 L 129.179688 309.246094 L 129.15625 309.28125 L 129.144531 309.292969 L 129.136719 309.308594 L 129.125 309.320312 L 129.117188 309.335938 L 129.070312 309.398438 L 129.0625 309.414062 L 128.898438 309.632812 L 128.886719 309.644531 L 128.851562 309.691406 L 128.84375 309.703125 L 128.832031 309.71875 L 128.824219 309.730469 L 128.804688 309.75 L 128.796875 309.761719 L 128.78125 309.777344 L 131.699219 309.777344 Z M 131.699219 305.414062 "/>
<path fill-rule="nonzero" fill="rgb(0%, 0%, 0%)" fill-opacity="1" d="M 266.847656 306.90625 L 266.847656 312.480469 L 265.792969 312.480469 L 265.792969 306.90625 L 264.902344 306.90625 L 264.902344 306.140625 L 265.792969 306.140625 L 265.792969 305.355469 L 265.804688 305.15625 L 265.808594 305.09375 L 265.824219 304.96875 L 265.835938 304.90625 L 265.847656 304.847656 L 265.859375 304.785156 L 265.871094 304.726562 L 265.886719 304.671875 L 265.90625 304.613281 L 265.925781 304.5625 L 265.949219 304.507812 L 265.972656 304.457031 L 266 304.410156 L 266.027344 304.359375 L 266.058594 304.316406 L 266.09375 304.269531 L 266.128906 304.226562 L 266.167969 304.1875 L 266.207031 304.144531 L 266.347656 304.039062 L 266.398438 304.007812 L 266.453125 303.980469 L 266.507812 303.949219 L 266.566406 303.925781 L 266.628906 303.902344 L 266.695312 303.878906 L 266.761719 303.859375 L 266.910156 303.828125 L 266.988281 303.816406 L 267.070312 303.808594 L 267.15625 303.800781 L 267.246094 303.796875 L 267.453125 303.796875 L 267.492188 303.800781 L 267.53125 303.800781 L 267.570312 303.804688 L 267.609375 303.804688 L 267.6875 303.8125 L 267.726562 303.8125 L 267.769531 303.816406 L 267.808594 303.820312 L 267.84375 303.824219 L 267.882812 303.832031 L 267.953125 303.839844 L 267.988281 303.847656 L 268.023438 303.851562 L 268.085938 303.867188 L 268.085938 304.667969 L 268.0625 304.664062 L 268.042969 304.664062 L 268.023438 304.660156 L 267.976562 304.652344 L 267.953125 304.652344 L 267.929688 304.648438 L 267.875 304.640625 L 267.851562 304.640625 L 267.824219 304.636719 L 267.800781 304.632812 L 267.773438 304.632812 L 267.75 304.628906 L 267.726562 304.628906 L 267.703125 304.625 L 267.660156 304.625 L 267.636719 304.621094 L 267.617188 304.621094 L 267.570312 304.625 L 267.523438 304.625 L 267.484375 304.628906 L 267.441406 304.632812 L 267.402344 304.640625 L 267.363281 304.644531 L 267.328125 304.652344 L 267.292969 304.664062 L 267.199219 304.699219 L 267.171875 304.714844 L 267.148438 304.730469 L 267.121094 304.746094 L 267.074219 304.785156 L 267.03125 304.828125 L 267.011719 304.851562 L 266.964844 304.921875 L 266.949219 304.949219 L 266.9375 304.976562 L 266.925781 305.007812 L 266.914062 305.035156 L 266.902344 305.066406 L 266.894531 305.097656 L 266.871094 305.203125 L 266.867188 305.238281 L 266.855469 305.355469 L 266.851562 305.398438 L 266.851562 305.4375 L 266.847656 305.484375 L 266.847656 306.140625 L 268.085938 306.140625 L 268.085938 306.90625 Z M 266.847656 306.90625 "/>
<path fill-rule="nonzero" fill="rgb(0%, 0%, 0%)" fill-opacity="1" d="M 400.761719 312.480469 L 400.761719 307.335938 L 400.757812 307.292969 L 400.757812 307.007812 L 400.753906 306.964844 L 400.753906 306.847656 L 400.75 306.808594 L 400.75 306.695312 L 400.746094 306.65625 L 400.746094 306.585938 L 400.742188 306.550781 L 400.742188 306.480469 L 400.738281 306.445312 L 400.738281 306.347656 L 400.734375 306.316406 L 400.734375 306.253906 L 400.730469 306.222656 L 400.730469 306.167969 L 400.726562 306.140625 L 401.722656 306.140625 L 401.726562 306.167969 L 401.726562 306.226562 L 401.730469 306.253906 L 401.730469 306.316406 L 401.734375 306.347656 L 401.734375 306.449219 L 401.742188 306.519531 L 401.742188 306.554688 L 401.746094 306.589844 L 401.746094 306.660156 L 401.75 306.695312 L 401.75 306.730469 L 401.753906 306.765625 L 401.753906 306.839844 L 401.757812 306.875 L 401.757812 306.910156 L 401.761719 306.945312 L 401.761719 307.015625 L 401.765625 307.050781 L 401.765625 307.21875 L 401.769531 307.25 L 401.769531 307.433594 L 401.792969 307.433594 L 401.839844 307.292969 L 401.886719 307.160156 L 401.933594 307.035156 L 401.980469 306.917969 L 402.027344 306.808594 L 402.054688 306.753906 L 402.082031 306.703125 L 402.109375 306.65625 L 402.140625 306.609375 L 402.167969 306.5625 L 402.199219 306.519531 L 402.292969 306.402344 L 402.328125 306.367188 L 402.363281 306.335938 L 402.398438 306.300781 L 402.4375 306.273438 L 402.472656 306.242188 L 402.515625 306.214844 L 402.554688 306.191406 L 402.597656 306.167969 L 402.640625 306.148438 L 402.6875 306.128906 L 402.730469 306.109375 L 402.78125 306.09375 L 402.828125 306.078125 L 402.9375 306.054688 L 402.992188 306.046875 L 403.050781 306.035156 L 403.109375 306.03125 L 403.234375 306.023438 L 403.375 306.023438 L 403.402344 306.027344 L 403.425781 306.027344 L 403.449219 306.03125 L 403.476562 306.035156 L 403.570312 306.050781 L 403.589844 306.054688 L 403.613281 306.058594 L 403.632812 306.058594 L 403.652344 306.0625 L 403.714844 306.078125 L 403.726562 306.082031 L 403.726562 307.046875 L 403.707031 307.042969 L 403.683594 307.039062 L 403.660156 307.03125 L 403.589844 307.019531 L 403.535156 307.011719 L 403.511719 307.011719 L 403.480469 307.007812 L 403.425781 307 L 403.394531 307 L 403.363281 306.996094 L 403.332031 306.996094 L 403.300781 306.992188 L 403.234375 306.992188 L 403.199219 306.988281 L 403.164062 306.988281 L 403.023438 306.996094 L 402.957031 307.003906 L 402.890625 307.015625 L 402.828125 307.03125 L 402.769531 307.050781 L 402.707031 307.070312 L 402.652344 307.09375 L 402.597656 307.121094 L 402.542969 307.152344 L 402.496094 307.1875 L 402.355469 307.304688 L 402.316406 307.351562 L 402.273438 307.398438 L 402.234375 307.445312 L 402.128906 307.609375 L 402.097656 307.667969 L 402.042969 307.792969 L 402.015625 307.859375 L 401.992188 307.925781 L 401.96875 307.996094 L 401.929688 308.144531 L 401.910156 308.222656 L 401.894531 308.300781 L 401.878906 308.382812 L 401.855469 308.546875 L 401.84375 308.632812 L 401.835938 308.71875 L 401.832031 308.808594 L 401.824219 308.898438 L 401.820312 308.988281 L 401.820312 309.082031 L 401.816406 309.175781 L 401.816406 312.480469 Z M 400.761719 312.480469 "/>
<path fill="none" stroke-width="0.75" stroke-linecap="round" stroke-linejoin="round" stroke="rgb(0%, 0%, 0%)" stroke-opacity="1" stroke-miterlimit="10" d="M 59.039062 284.308594 L 59.039062 71.789062 "/>
<path fill="none" stroke-width="0.75" stroke-linecap="round" stroke-linejoin="round" stroke="rgb(0%, 0%, 0%)" stroke-opacity="1" stroke-miterlimit="10" d="M 59.039062 284.308594 L 51.839844 284.308594 "/>
<path fill="none" stroke-width="0.75" stroke-linecap="round" stroke-linejoin="round" stroke="rgb(0%, 0%, 0%)" stroke-opacity="1" stroke-miterlimit="10" d="M 59.039062 241.804688 L 51.839844 241.804688 "/>
<path fill="none" stroke-width="0.75" stroke-linecap="round" stroke-linejoin="round" stroke="rgb(0%, 0%, 0%)" stroke-opacity="1" stroke-miterlimit="10" d="M 59.039062 199.300781 L 51.839844 199.300781 "/>
<path fill="none" stroke-width="0.75" stroke-linecap="round" stroke-linejoin="round" stroke="rgb(0%, 0%, 0%)" stroke-opacity="1" stroke-miterlimit="10" d="M 59.039062 156.796875 L 51.839844 156.796875 "/>
<path fill="none" stroke-width="0.75" stroke-linecap="round" stroke-linejoin="round" stroke="rgb(0%, 0%, 0%)" stroke-opacity="1" stroke-miterlimit="10" d="M 59.039062 114.292969 L 51.839844 114.292969 "/>
<path fill="none" stroke-width="0.75" stroke-linecap="round" stroke-linejoin="round" stroke="rgb(0%, 0%, 0%)" stroke-opacity="1" stroke-miterlimit="10" d="M 59.039062 71.789062 L 51.839844 71.789062 "/>
<path fill-rule="nonzero" fill="rgb(0%, 0%, 0%)" fill-opacity="1" d="M 37.628906 281.4375 L 37.863281 281.441406 L 38.089844 281.449219 L 38.308594 281.460938 L 38.519531 281.476562 L 38.726562 281.496094 L 38.921875 281.519531 L 39.109375 281.550781 L 39.292969 281.585938 L 39.464844 281.625 L 39.632812 281.667969 L 39.792969 281.714844 L 39.945312 281.761719 L 40.089844 281.816406 L 40.230469 281.871094 L 40.367188 281.933594 L 40.492188 281.996094 L 40.617188 282.0625 L 40.730469 282.132812 L 40.839844 282.207031 L 40.945312 282.28125 L 41.042969 282.363281 L 41.132812 282.441406 L 41.21875 282.527344 L 41.300781 282.613281 L 41.375 282.703125 L 41.441406 282.796875 L 41.503906 282.894531 L 41.5625 282.992188 L 41.613281 283.09375 L 41.660156 283.195312 L 41.703125 283.304688 L 41.738281 283.410156 L 41.800781 283.628906 L 41.824219 283.742188 L 41.84375 283.855469 L 41.859375 283.96875 L 41.875 284.203125 L 41.878906 284.320312 L 41.875 284.441406 L 41.859375 284.675781 L 41.84375 284.792969 L 41.824219 284.90625 L 41.800781 285.015625 L 41.738281 285.234375 L 41.703125 285.34375 L 41.660156 285.445312 L 41.613281 285.550781 L 41.5625 285.648438 L 41.503906 285.746094 L 41.441406 285.84375 L 41.375 285.933594 L 41.300781 286.023438 L 41.21875 286.109375 L 41.132812 286.195312 L 41.042969 286.277344 L 40.945312 286.355469 L 40.84375 286.429688 L 40.734375 286.5 L 40.617188 286.570312 L 40.496094 286.632812 L 40.371094 286.695312 L 40.097656 286.8125 L 39.949219 286.863281 L 39.796875 286.914062 L 39.640625 286.957031 L 39.472656 287 L 39.296875 287.035156 L 39.117188 287.070312 L 38.925781 287.097656 L 38.730469 287.121094 L 38.523438 287.140625 L 38.3125 287.15625 L 38.09375 287.167969 L 37.863281 287.171875 L 37.628906 287.175781 L 37.382812 287.171875 L 37.148438 287.167969 L 36.917969 287.15625 L 36.699219 287.140625 L 36.488281 287.121094 L 36.289062 287.097656 L 36.09375 287.070312 L 35.910156 287.035156 L 35.734375 287 L 35.566406 286.957031 L 35.40625 286.914062 L 35.25 286.863281 L 35.105469 286.808594 L 34.964844 286.753906 L 34.828125 286.695312 L 34.703125 286.632812 L 34.582031 286.566406 L 34.46875 286.496094 L 34.359375 286.425781 L 34.164062 286.269531 L 34.078125 286.1875 L 33.996094 286.105469 L 33.917969 286.015625 L 33.847656 285.925781 L 33.78125 285.835938 L 33.722656 285.738281 L 33.667969 285.640625 L 33.621094 285.539062 L 33.542969 285.328125 L 33.507812 285.21875 L 33.453125 285 L 33.429688 284.882812 L 33.414062 284.769531 L 33.398438 284.652344 L 33.382812 284.410156 L 33.382812 284.167969 L 33.390625 284.054688 L 33.398438 283.9375 L 33.414062 283.824219 L 33.429688 283.714844 L 33.453125 283.605469 L 33.480469 283.496094 L 33.507812 283.390625 L 33.542969 283.285156 L 33.582031 283.179688 L 33.621094 283.078125 L 33.667969 282.976562 L 33.722656 282.878906 L 33.78125 282.785156 L 33.847656 282.691406 L 33.917969 282.601562 L 33.996094 282.515625 L 34.078125 282.429688 L 34.164062 282.351562 L 34.261719 282.269531 L 34.359375 282.195312 L 34.46875 282.125 L 34.582031 282.054688 L 34.703125 281.988281 L 34.828125 281.925781 L 34.964844 281.867188 L 35.105469 281.808594 L 35.25 281.757812 L 35.40625 281.707031 L 35.566406 281.660156 L 35.734375 281.621094 L 35.910156 281.582031 L 36.09375 281.546875 L 36.289062 281.519531 L 36.488281 281.496094 L 36.699219 281.476562 L 36.917969 281.460938 L 37.148438 281.449219 L 37.382812 281.441406 Z M 37.628906 282.511719 L 37.4375 282.511719 L 37.25 282.515625 L 37.070312 282.523438 L 36.894531 282.53125 L 36.726562 282.539062 L 36.566406 282.554688 L 36.414062 282.570312 L 36.269531 282.585938 L 36.128906 282.605469 L 35.996094 282.628906 L 35.867188 282.652344 L 35.742188 282.679688 L 35.625 282.707031 L 35.511719 282.738281 L 35.40625 282.773438 L 35.304688 282.808594 L 35.207031 282.847656 L 35.117188 282.886719 L 35.03125 282.929688 L 34.953125 282.972656 L 34.875 283.019531 L 34.804688 283.070312 L 34.738281 283.121094 L 34.675781 283.175781 L 34.617188 283.230469 L 34.566406 283.285156 L 34.515625 283.347656 L 34.472656 283.40625 L 34.433594 283.472656 L 34.402344 283.535156 L 34.371094 283.601562 L 34.339844 283.671875 L 34.316406 283.742188 L 34.296875 283.8125 L 34.277344 283.886719 L 34.261719 283.964844 L 34.25 284.042969 L 34.242188 284.121094 L 34.238281 284.203125 L 34.238281 284.375 L 34.242188 284.460938 L 34.25 284.542969 L 34.261719 284.625 L 34.277344 284.707031 L 34.296875 284.785156 L 34.316406 284.859375 L 34.339844 284.933594 L 34.371094 285.003906 L 34.402344 285.070312 L 34.4375 285.140625 L 34.476562 285.203125 L 34.519531 285.265625 L 34.570312 285.328125 L 34.621094 285.386719 L 34.679688 285.441406 L 34.742188 285.496094 L 34.808594 285.546875 L 34.882812 285.597656 L 34.957031 285.644531 L 35.039062 285.691406 L 35.121094 285.734375 L 35.308594 285.8125 L 35.410156 285.847656 L 35.628906 285.910156 L 35.75 285.941406 L 35.871094 285.96875 L 36 285.992188 L 36.132812 286.015625 L 36.273438 286.035156 L 36.421875 286.050781 L 36.574219 286.066406 L 36.734375 286.078125 L 36.898438 286.089844 L 37.070312 286.097656 L 37.25 286.105469 L 37.4375 286.109375 L 37.816406 286.109375 L 37.996094 286.105469 L 38.171875 286.097656 L 38.339844 286.089844 L 38.503906 286.078125 L 38.660156 286.066406 L 38.8125 286.050781 L 38.957031 286.035156 L 39.09375 286.015625 L 39.230469 285.992188 L 39.480469 285.9375 L 39.597656 285.910156 L 39.707031 285.875 L 39.816406 285.84375 L 39.917969 285.804688 L 40.015625 285.769531 L 40.109375 285.726562 L 40.195312 285.683594 L 40.277344 285.640625 L 40.355469 285.59375 L 40.425781 285.542969 L 40.492188 285.492188 L 40.558594 285.4375 L 40.617188 285.382812 L 40.671875 285.324219 L 40.722656 285.261719 L 40.765625 285.203125 L 40.808594 285.136719 L 40.847656 285.070312 L 40.878906 285.003906 L 40.933594 284.863281 L 40.972656 284.714844 L 40.988281 284.636719 L 41 284.558594 L 41.015625 284.394531 L 41.015625 284.226562 L 41.007812 284.148438 L 41 284.066406 L 40.988281 283.992188 L 40.972656 283.914062 L 40.953125 283.839844 L 40.933594 283.769531 L 40.90625 283.695312 L 40.878906 283.628906 L 40.847656 283.558594 L 40.808594 283.496094 L 40.765625 283.429688 L 40.722656 283.371094 L 40.671875 283.308594 L 40.617188 283.253906 L 40.558594 283.199219 L 40.492188 283.144531 L 40.425781 283.09375 L 40.355469 283.042969 L 40.277344 282.996094 L 40.195312 282.953125 L 40.109375 282.910156 L 40.015625 282.867188 L 39.917969 282.828125 L 39.816406 282.792969 L 39.597656 282.722656 L 39.480469 282.695312 L 39.230469 282.640625 L 38.957031 282.59375 L 38.8125 282.574219 L 38.660156 282.558594 L 38.503906 282.542969 L 38.339844 282.53125 L 38.171875 282.523438 L 37.996094 282.515625 L 37.816406 282.511719 Z M 37.628906 282.511719 "/>
<path fill-rule="nonzero" fill="rgb(0%, 0%, 0%)" fill-opacity="1" d="M 41.761719 247.875 L 41.015625 247.875 L 40.878906 247.8125 L 40.75 247.75 L 40.621094 247.683594 L 40.492188 247.613281 L 40.371094 247.542969 L 40.136719 247.394531 L 40.023438 247.3125 L 39.914062 247.230469 L 39.808594 247.148438 L 39.703125 247.0625 L 39.5 246.882812 L 39.402344 246.792969 L 39.214844 246.613281 L 39.03125 246.429688 L 38.945312 246.335938 L 38.859375 246.238281 L 38.773438 246.144531 L 38.527344 245.863281 L 38.214844 245.488281 L 38.140625 245.394531 L 38.070312 245.300781 L 37.996094 245.210938 L 37.921875 245.117188 L 37.851562 245.027344 L 37.777344 244.941406 L 37.707031 244.855469 L 37.558594 244.691406 L 37.488281 244.613281 L 37.414062 244.535156 L 37.34375 244.457031 L 37.269531 244.386719 L 37.195312 244.3125 L 37.121094 244.246094 L 37.046875 244.183594 L 36.96875 244.121094 L 36.894531 244.0625 L 36.816406 244.003906 L 36.660156 243.902344 L 36.582031 243.855469 L 36.5 243.808594 L 36.417969 243.769531 L 36.332031 243.734375 L 36.246094 243.703125 L 36.15625 243.679688 L 36.0625 243.65625 L 35.972656 243.640625 L 35.875 243.628906 L 35.777344 243.621094 L 35.609375 243.621094 L 35.539062 243.625 L 35.476562 243.628906 L 35.410156 243.636719 L 35.347656 243.648438 L 35.230469 243.671875 L 35.171875 243.6875 L 35.007812 243.746094 L 34.957031 243.773438 L 34.910156 243.796875 L 34.859375 243.824219 L 34.816406 243.855469 L 34.769531 243.886719 L 34.726562 243.917969 L 34.6875 243.953125 L 34.648438 243.992188 L 34.613281 244.03125 L 34.574219 244.070312 L 34.511719 244.15625 L 34.480469 244.203125 L 34.453125 244.25 L 34.425781 244.300781 L 34.402344 244.351562 L 34.382812 244.402344 L 34.359375 244.457031 L 34.34375 244.511719 L 34.324219 244.566406 L 34.292969 244.683594 L 34.28125 244.742188 L 34.273438 244.800781 L 34.261719 244.863281 L 34.257812 244.929688 L 34.253906 244.992188 L 34.25 245.058594 L 34.25 245.25 L 34.257812 245.3125 L 34.261719 245.375 L 34.269531 245.433594 L 34.304688 245.609375 L 34.320312 245.667969 L 34.335938 245.722656 L 34.375 245.832031 L 34.445312 245.984375 L 34.472656 246.035156 L 34.503906 246.082031 L 34.53125 246.128906 L 34.671875 246.300781 L 34.714844 246.339844 L 34.753906 246.378906 L 34.796875 246.414062 L 34.84375 246.449219 L 34.890625 246.480469 L 34.9375 246.515625 L 34.988281 246.542969 L 35.039062 246.574219 L 35.089844 246.597656 L 35.144531 246.625 L 35.203125 246.644531 L 35.257812 246.667969 L 35.320312 246.683594 L 35.378906 246.703125 L 35.441406 246.714844 L 35.507812 246.730469 L 35.574219 246.738281 L 35.644531 246.75 L 35.542969 247.828125 L 35.453125 247.816406 L 35.367188 247.800781 L 35.195312 247.761719 L 35.109375 247.738281 L 35.027344 247.714844 L 34.863281 247.652344 L 34.707031 247.582031 L 34.628906 247.542969 L 34.550781 247.5 L 34.480469 247.453125 L 34.40625 247.402344 L 34.335938 247.351562 L 34.269531 247.296875 L 34.203125 247.238281 L 34.140625 247.179688 L 34.078125 247.113281 L 33.960938 246.980469 L 33.851562 246.832031 L 33.800781 246.753906 L 33.753906 246.675781 L 33.707031 246.59375 L 33.664062 246.507812 L 33.585938 246.328125 L 33.550781 246.234375 L 33.519531 246.136719 L 33.488281 246.035156 L 33.464844 245.933594 L 33.441406 245.824219 L 33.421875 245.714844 L 33.410156 245.605469 L 33.394531 245.488281 L 33.386719 245.371094 L 33.382812 245.25 L 33.382812 245.003906 L 33.386719 244.886719 L 33.394531 244.769531 L 33.417969 244.542969 L 33.433594 244.4375 L 33.453125 244.332031 L 33.476562 244.226562 L 33.5 244.128906 L 33.527344 244.03125 L 33.589844 243.84375 L 33.667969 243.671875 L 33.753906 243.507812 L 33.800781 243.433594 L 33.851562 243.359375 L 33.90625 243.289062 L 33.960938 243.222656 L 34.019531 243.15625 L 34.082031 243.09375 L 34.144531 243.035156 L 34.210938 242.980469 L 34.28125 242.925781 L 34.429688 242.832031 L 34.507812 242.789062 L 34.585938 242.75 L 34.671875 242.710938 L 34.753906 242.679688 L 34.84375 242.648438 L 34.933594 242.621094 L 35.027344 242.601562 L 35.125 242.582031 L 35.222656 242.566406 L 35.324219 242.550781 L 35.425781 242.542969 L 35.644531 242.535156 L 35.808594 242.542969 L 35.890625 242.550781 L 36.046875 242.574219 L 36.128906 242.589844 L 36.207031 242.609375 L 36.28125 242.632812 L 36.359375 242.660156 L 36.433594 242.6875 L 36.582031 242.75 L 36.65625 242.785156 L 36.726562 242.824219 L 36.800781 242.863281 L 36.871094 242.902344 L 36.941406 242.945312 L 37.082031 243.039062 L 37.148438 243.085938 L 37.214844 243.136719 L 37.285156 243.1875 L 37.417969 243.296875 L 37.484375 243.355469 L 37.546875 243.410156 L 37.613281 243.472656 L 37.675781 243.535156 L 37.742188 243.597656 L 37.804688 243.660156 L 37.992188 243.859375 L 38.054688 243.929688 L 38.117188 243.996094 L 38.304688 244.207031 L 38.363281 244.277344 L 38.425781 244.347656 L 38.484375 244.417969 L 38.546875 244.488281 L 38.605469 244.5625 L 38.664062 244.632812 L 38.726562 244.707031 L 38.785156 244.777344 L 38.84375 244.851562 L 38.902344 244.921875 L 38.964844 244.996094 L 39.023438 245.066406 L 39.082031 245.140625 L 39.316406 245.421875 L 39.378906 245.488281 L 39.554688 245.6875 L 39.617188 245.753906 L 39.734375 245.878906 L 39.796875 245.9375 L 39.855469 245.996094 L 39.917969 246.054688 L 39.976562 246.109375 L 40.101562 246.21875 L 40.226562 246.320312 L 40.285156 246.371094 L 40.347656 246.417969 L 40.535156 246.546875 L 40.601562 246.582031 L 40.664062 246.621094 L 40.863281 246.714844 L 40.863281 242.40625 L 41.761719 242.40625 Z M 41.761719 247.875 "/>
<path fill-rule="nonzero" fill="rgb(0%, 0%, 0%)" fill-opacity="1" d="M 37.628906 235.597656 L 37.863281 235.601562 L 38.089844 235.609375 L 38.308594 235.621094 L 38.519531 235.636719 L 38.726562 235.65625 L 38.921875 235.679688 L 39.109375 235.710938 L 39.292969 235.746094 L 39.464844 235.785156 L 39.632812 235.828125 L 39.792969 235.875 L 39.945312 235.921875 L 40.089844 235.976562 L 40.230469 236.03125 L 40.367188 236.09375 L 40.492188 236.15625 L 40.617188 236.222656 L 40.730469 236.292969 L 40.839844 236.367188 L 40.945312 236.441406 L 41.042969 236.519531 L 41.132812 236.601562 L 41.21875 236.6875 L 41.300781 236.773438 L 41.375 236.863281 L 41.441406 236.957031 L 41.503906 237.054688 L 41.5625 237.152344 L 41.613281 237.253906 L 41.660156 237.355469 L 41.703125 237.464844 L 41.738281 237.570312 L 41.800781 237.789062 L 41.824219 237.902344 L 41.84375 238.015625 L 41.859375 238.128906 L 41.875 238.363281 L 41.878906 238.480469 L 41.875 238.601562 L 41.859375 238.835938 L 41.84375 238.953125 L 41.824219 239.066406 L 41.800781 239.175781 L 41.738281 239.394531 L 41.703125 239.5 L 41.660156 239.605469 L 41.613281 239.710938 L 41.5625 239.808594 L 41.503906 239.90625 L 41.441406 240.003906 L 41.375 240.09375 L 41.300781 240.183594 L 41.21875 240.269531 L 41.132812 240.355469 L 41.042969 240.4375 L 40.945312 240.515625 L 40.84375 240.589844 L 40.734375 240.660156 L 40.617188 240.730469 L 40.496094 240.792969 L 40.371094 240.855469 L 40.234375 240.914062 L 40.097656 240.96875 L 39.949219 241.023438 L 39.796875 241.074219 L 39.640625 241.117188 L 39.472656 241.160156 L 39.296875 241.195312 L 39.117188 241.230469 L 38.925781 241.257812 L 38.730469 241.28125 L 38.523438 241.300781 L 38.3125 241.316406 L 38.09375 241.328125 L 37.863281 241.332031 L 37.628906 241.335938 L 37.382812 241.332031 L 37.148438 241.328125 L 36.917969 241.316406 L 36.699219 241.300781 L 36.488281 241.28125 L 36.289062 241.257812 L 36.09375 241.230469 L 35.910156 241.195312 L 35.734375 241.160156 L 35.566406 241.117188 L 35.40625 241.074219 L 35.25 241.023438 L 35.105469 240.96875 L 34.964844 240.914062 L 34.828125 240.855469 L 34.703125 240.792969 L 34.582031 240.726562 L 34.46875 240.65625 L 34.359375 240.585938 L 34.164062 240.429688 L 34.078125 240.347656 L 33.996094 240.265625 L 33.917969 240.175781 L 33.847656 240.085938 L 33.78125 239.996094 L 33.722656 239.898438 L 33.667969 239.800781 L 33.621094 239.699219 L 33.542969 239.488281 L 33.507812 239.378906 L 33.480469 239.269531 L 33.453125 239.15625 L 33.429688 239.042969 L 33.414062 238.929688 L 33.398438 238.8125 L 33.382812 238.570312 L 33.382812 238.328125 L 33.390625 238.214844 L 33.398438 238.097656 L 33.414062 237.984375 L 33.429688 237.875 L 33.453125 237.765625 L 33.507812 237.546875 L 33.542969 237.441406 L 33.582031 237.339844 L 33.621094 237.234375 L 33.667969 237.136719 L 33.722656 237.039062 L 33.78125 236.945312 L 33.847656 236.851562 L 33.917969 236.761719 L 33.996094 236.675781 L 34.078125 236.589844 L 34.164062 236.507812 L 34.261719 236.429688 L 34.359375 236.355469 L 34.46875 236.28125 L 34.582031 236.214844 L 34.703125 236.148438 L 34.828125 236.085938 L 34.964844 236.027344 L 35.105469 235.96875 L 35.25 235.917969 L 35.40625 235.867188 L 35.566406 235.820312 L 35.734375 235.78125 L 35.910156 235.742188 L 36.09375 235.707031 L 36.289062 235.679688 L 36.488281 235.65625 L 36.699219 235.632812 L 36.917969 235.617188 L 37.148438 235.609375 L 37.382812 235.601562 Z M 37.628906 236.671875 L 37.4375 236.671875 L 37.25 236.675781 L 37.070312 236.683594 L 36.894531 236.691406 L 36.726562 236.699219 L 36.566406 236.714844 L 36.414062 236.730469 L 36.269531 236.746094 L 36.128906 236.765625 L 35.996094 236.789062 L 35.867188 236.8125 L 35.742188 236.839844 L 35.625 236.867188 L 35.511719 236.898438 L 35.40625 236.933594 L 35.304688 236.96875 L 35.207031 237.007812 L 35.117188 237.046875 L 35.03125 237.089844 L 34.953125 237.132812 L 34.875 237.179688 L 34.804688 237.230469 L 34.738281 237.28125 L 34.675781 237.332031 L 34.617188 237.390625 L 34.566406 237.445312 L 34.515625 237.503906 L 34.472656 237.566406 L 34.433594 237.632812 L 34.402344 237.695312 L 34.371094 237.761719 L 34.339844 237.832031 L 34.316406 237.902344 L 34.296875 237.972656 L 34.277344 238.046875 L 34.261719 238.125 L 34.25 238.203125 L 34.242188 238.28125 L 34.238281 238.363281 L 34.238281 238.535156 L 34.242188 238.621094 L 34.25 238.703125 L 34.261719 238.785156 L 34.277344 238.867188 L 34.296875 238.941406 L 34.316406 239.019531 L 34.339844 239.089844 L 34.371094 239.164062 L 34.402344 239.230469 L 34.4375 239.296875 L 34.476562 239.363281 L 34.519531 239.425781 L 34.570312 239.488281 L 34.621094 239.546875 L 34.679688 239.601562 L 34.742188 239.65625 L 34.808594 239.707031 L 34.882812 239.757812 L 34.957031 239.804688 L 35.039062 239.851562 L 35.121094 239.894531 L 35.308594 239.972656 L 35.410156 240.007812 L 35.628906 240.070312 L 35.75 240.101562 L 35.871094 240.128906 L 36 240.152344 L 36.132812 240.175781 L 36.273438 240.195312 L 36.421875 240.210938 L 36.574219 240.226562 L 36.734375 240.238281 L 36.898438 240.25 L 37.070312 240.257812 L 37.25 240.265625 L 37.4375 240.269531 L 37.816406 240.269531 L 37.996094 240.265625 L 38.171875 240.257812 L 38.339844 240.25 L 38.503906 240.238281 L 38.660156 240.226562 L 38.8125 240.210938 L 38.957031 240.195312 L 39.09375 240.175781 L 39.230469 240.152344 L 39.480469 240.097656 L 39.597656 240.070312 L 39.707031 240.035156 L 39.816406 240.003906 L 39.917969 239.964844 L 40.015625 239.929688 L 40.109375 239.886719 L 40.195312 239.84375 L 40.277344 239.800781 L 40.355469 239.753906 L 40.425781 239.703125 L 40.492188 239.652344 L 40.558594 239.597656 L 40.671875 239.484375 L 40.722656 239.421875 L 40.765625 239.363281 L 40.808594 239.296875 L 40.847656 239.230469 L 40.878906 239.164062 L 40.933594 239.023438 L 40.972656 238.875 L 40.988281 238.796875 L 41 238.71875 L 41.015625 238.554688 L 41.015625 238.386719 L 41.007812 238.308594 L 41 238.226562 L 40.988281 238.148438 L 40.972656 238.074219 L 40.953125 238 L 40.933594 237.929688 L 40.90625 237.855469 L 40.878906 237.789062 L 40.847656 237.71875 L 40.808594 237.65625 L 40.765625 237.589844 L 40.722656 237.527344 L 40.671875 237.46875 L 40.558594 237.355469 L 40.425781 237.253906 L 40.355469 237.203125 L 40.277344 237.15625 L 40.195312 237.113281 L 40.109375 237.066406 L 40.015625 237.027344 L 39.917969 236.988281 L 39.816406 236.949219 L 39.707031 236.917969 L 39.597656 236.882812 L 39.480469 236.855469 L 39.355469 236.824219 L 39.230469 236.800781 L 38.957031 236.753906 L 38.8125 236.734375 L 38.660156 236.71875 L 38.503906 236.703125 L 38.339844 236.691406 L 38.171875 236.683594 L 37.996094 236.675781 L 37.816406 236.671875 Z M 37.628906 236.671875 "/>
<path fill-rule="nonzero" fill="rgb(0%, 0%, 0%)" fill-opacity="1" d="M 39.890625 200.8125 L 41.761719 200.8125 L 41.761719 201.808594 L 39.890625 201.808594 L 39.890625 205.699219 L 39.070312 205.699219 L 33.503906 201.921875 L 33.503906 200.8125 L 39.058594 200.8125 L 39.058594 199.652344 L 39.890625 199.652344 Z M 34.695312 201.808594 L 34.699219 201.8125 L 34.714844 201.820312 L 34.738281 201.828125 L 34.761719 201.84375 L 34.792969 201.859375 L 34.8125 201.867188 L 34.828125 201.875 L 34.84375 201.886719 L 34.863281 201.894531 L 34.878906 201.90625 L 34.898438 201.917969 L 34.917969 201.925781 L 34.976562 201.960938 L 35 201.972656 L 35.039062 201.996094 L 35.0625 202.007812 L 35.082031 202.019531 L 35.105469 202.03125 L 35.125 202.046875 L 35.171875 202.070312 L 35.191406 202.082031 L 35.214844 202.097656 L 35.234375 202.105469 L 35.257812 202.117188 L 35.273438 202.128906 L 35.3125 202.152344 L 35.328125 202.160156 L 35.359375 202.183594 L 35.375 202.191406 L 35.390625 202.203125 L 38.507812 204.316406 L 38.519531 204.324219 L 38.527344 204.328125 L 38.5625 204.351562 L 38.574219 204.363281 L 38.589844 204.371094 L 38.601562 204.382812 L 38.632812 204.40625 L 38.644531 204.414062 L 38.691406 204.449219 L 38.707031 204.457031 L 38.726562 204.46875 L 38.867188 204.574219 L 38.878906 204.585938 L 38.957031 204.644531 L 38.96875 204.65625 L 38.984375 204.664062 L 39.007812 204.6875 L 39.03125 204.703125 L 39.039062 204.710938 L 39.050781 204.71875 L 39.058594 204.726562 L 39.058594 201.808594 Z M 34.695312 201.808594 "/>
<path fill-rule="nonzero" fill="rgb(0%, 0%, 0%)" fill-opacity="1" d="M 37.628906 193.097656 L 37.863281 193.097656 L 38.089844 193.105469 L 38.308594 193.117188 L 38.519531 193.132812 L 38.726562 193.152344 L 38.921875 193.179688 L 39.109375 193.207031 L 39.292969 193.242188 L 39.464844 193.28125 L 39.632812 193.324219 L 39.792969 193.371094 L 39.945312 193.421875 L 40.089844 193.472656 L 40.230469 193.53125 L 40.367188 193.589844 L 40.492188 193.652344 L 40.617188 193.71875 L 40.730469 193.789062 L 40.839844 193.863281 L 40.945312 193.941406 L 41.042969 194.019531 L 41.132812 194.101562 L 41.21875 194.183594 L 41.300781 194.269531 L 41.375 194.363281 L 41.441406 194.453125 L 41.503906 194.550781 L 41.5625 194.648438 L 41.613281 194.75 L 41.660156 194.855469 L 41.703125 194.960938 L 41.738281 195.066406 L 41.800781 195.285156 L 41.824219 195.398438 L 41.84375 195.511719 L 41.859375 195.625 L 41.875 195.859375 L 41.878906 195.980469 L 41.875 196.097656 L 41.859375 196.332031 L 41.84375 196.449219 L 41.824219 196.5625 L 41.800781 196.671875 L 41.769531 196.785156 L 41.738281 196.890625 L 41.703125 197 L 41.660156 197.105469 L 41.613281 197.207031 L 41.5625 197.308594 L 41.503906 197.402344 L 41.441406 197.5 L 41.375 197.589844 L 41.300781 197.679688 L 41.21875 197.765625 L 41.132812 197.851562 L 41.042969 197.933594 L 40.945312 198.011719 L 40.84375 198.085938 L 40.734375 198.15625 L 40.617188 198.226562 L 40.496094 198.292969 L 40.371094 198.351562 L 40.097656 198.46875 L 39.949219 198.519531 L 39.796875 198.570312 L 39.640625 198.617188 L 39.472656 198.65625 L 39.296875 198.691406 L 39.117188 198.726562 L 38.925781 198.753906 L 38.730469 198.777344 L 38.523438 198.796875 L 38.3125 198.8125 L 38.09375 198.824219 L 37.863281 198.828125 L 37.628906 198.832031 L 37.382812 198.828125 L 37.148438 198.824219 L 36.917969 198.8125 L 36.699219 198.796875 L 36.488281 198.777344 L 36.289062 198.753906 L 36.09375 198.726562 L 35.910156 198.691406 L 35.734375 198.65625 L 35.566406 198.617188 L 35.40625 198.570312 L 35.25 198.519531 L 35.105469 198.46875 L 34.964844 198.410156 L 34.828125 198.351562 L 34.703125 198.289062 L 34.582031 198.222656 L 34.46875 198.152344 L 34.359375 198.082031 L 34.261719 198.007812 L 34.164062 197.925781 L 34.078125 197.84375 L 33.996094 197.761719 L 33.917969 197.675781 L 33.847656 197.585938 L 33.78125 197.492188 L 33.722656 197.394531 L 33.667969 197.296875 L 33.621094 197.195312 L 33.582031 197.09375 L 33.542969 196.984375 L 33.507812 196.878906 L 33.480469 196.765625 L 33.453125 196.65625 L 33.429688 196.542969 L 33.398438 196.308594 L 33.382812 196.066406 L 33.382812 195.824219 L 33.390625 195.710938 L 33.398438 195.59375 L 33.414062 195.480469 L 33.429688 195.371094 L 33.453125 195.261719 L 33.480469 195.152344 L 33.507812 195.046875 L 33.542969 194.941406 L 33.582031 194.835938 L 33.621094 194.734375 L 33.667969 194.632812 L 33.722656 194.535156 L 33.78125 194.441406 L 33.847656 194.347656 L 33.917969 194.257812 L 33.996094 194.171875 L 34.078125 194.085938 L 34.164062 194.007812 L 34.359375 193.851562 L 34.46875 193.78125 L 34.582031 193.710938 L 34.703125 193.644531 L 34.828125 193.582031 L 34.964844 193.523438 L 35.105469 193.464844 L 35.25 193.414062 L 35.40625 193.363281 L 35.566406 193.320312 L 35.734375 193.277344 L 35.910156 193.238281 L 36.09375 193.203125 L 36.289062 193.175781 L 36.488281 193.152344 L 36.699219 193.132812 L 36.917969 193.117188 L 37.148438 193.105469 L 37.382812 193.097656 Z M 37.628906 194.167969 L 37.4375 194.167969 L 37.25 194.171875 L 37.070312 194.179688 L 36.894531 194.1875 L 36.726562 194.199219 L 36.566406 194.210938 L 36.414062 194.226562 L 36.269531 194.242188 L 36.128906 194.261719 L 35.996094 194.285156 L 35.867188 194.308594 L 35.742188 194.335938 L 35.625 194.367188 L 35.511719 194.398438 L 35.40625 194.429688 L 35.304688 194.464844 L 35.207031 194.503906 L 35.117188 194.542969 L 35.03125 194.585938 L 34.953125 194.632812 L 34.875 194.675781 L 34.804688 194.726562 L 34.738281 194.777344 L 34.675781 194.832031 L 34.617188 194.886719 L 34.566406 194.941406 L 34.515625 195.003906 L 34.472656 195.0625 L 34.433594 195.128906 L 34.339844 195.328125 L 34.316406 195.398438 L 34.277344 195.546875 L 34.261719 195.621094 L 34.25 195.699219 L 34.242188 195.777344 L 34.238281 195.859375 L 34.238281 196.03125 L 34.242188 196.117188 L 34.25 196.199219 L 34.261719 196.28125 L 34.277344 196.363281 L 34.296875 196.441406 L 34.316406 196.515625 L 34.339844 196.589844 L 34.402344 196.730469 L 34.4375 196.796875 L 34.476562 196.859375 L 34.519531 196.921875 L 34.570312 196.984375 L 34.621094 197.042969 L 34.679688 197.097656 L 34.742188 197.152344 L 34.808594 197.203125 L 34.957031 197.304688 L 35.121094 197.390625 L 35.308594 197.46875 L 35.410156 197.503906 L 35.628906 197.566406 L 35.75 197.597656 L 35.871094 197.625 L 36 197.648438 L 36.132812 197.671875 L 36.273438 197.691406 L 36.421875 197.707031 L 36.574219 197.722656 L 36.734375 197.738281 L 36.898438 197.746094 L 37.070312 197.753906 L 37.25 197.761719 L 37.4375 197.765625 L 37.816406 197.765625 L 37.996094 197.761719 L 38.171875 197.753906 L 38.339844 197.746094 L 38.503906 197.738281 L 38.660156 197.722656 L 38.8125 197.707031 L 38.957031 197.691406 L 39.09375 197.671875 L 39.230469 197.648438 L 39.480469 197.59375 L 39.597656 197.566406 L 39.707031 197.53125 L 39.816406 197.5 L 39.917969 197.460938 L 40.015625 197.425781 L 40.109375 197.382812 L 40.195312 197.339844 L 40.277344 197.296875 L 40.355469 197.25 L 40.425781 197.199219 L 40.492188 197.148438 L 40.558594 197.09375 L 40.617188 197.039062 L 40.671875 196.980469 L 40.722656 196.921875 L 40.765625 196.859375 L 40.808594 196.792969 L 40.847656 196.730469 L 40.878906 196.660156 L 40.933594 196.519531 L 40.972656 196.371094 L 40.988281 196.292969 L 41 196.214844 L 41.015625 196.050781 L 41.015625 195.882812 L 41.007812 195.804688 L 41 195.722656 L 40.988281 195.648438 L 40.972656 195.570312 L 40.953125 195.496094 L 40.933594 195.425781 L 40.878906 195.285156 L 40.847656 195.21875 L 40.808594 195.152344 L 40.765625 195.085938 L 40.722656 195.027344 L 40.671875 194.964844 L 40.617188 194.910156 L 40.558594 194.855469 L 40.492188 194.800781 L 40.425781 194.75 L 40.355469 194.699219 L 40.277344 194.65625 L 40.195312 194.609375 L 40.109375 194.566406 L 40.015625 194.523438 L 39.917969 194.484375 L 39.816406 194.449219 L 39.597656 194.378906 L 39.480469 194.351562 L 39.230469 194.296875 L 38.957031 194.25 L 38.8125 194.230469 L 38.660156 194.214844 L 38.503906 194.199219 L 38.339844 194.1875 L 38.171875 194.179688 L 37.996094 194.171875 L 37.816406 194.167969 Z M 37.628906 194.167969 "/>
<path fill-rule="nonzero" fill="rgb(0%, 0%, 0%)" fill-opacity="1" d="M 39.058594 157.324219 L 39.183594 157.328125 L 39.304688 157.332031 L 39.421875 157.339844 L 39.539062 157.351562 L 39.65625 157.367188 L 39.769531 157.386719 L 39.878906 157.410156 L 39.988281 157.4375 L 40.097656 157.46875 L 40.203125 157.5 L 40.304688 157.535156 L 40.402344 157.574219 L 40.5 157.617188 L 40.589844 157.664062 L 40.683594 157.714844 L 40.769531 157.765625 L 40.855469 157.820312 L 40.9375 157.882812 L 41.015625 157.945312 L 41.09375 158.011719 L 41.164062 158.078125 L 41.234375 158.152344 L 41.300781 158.226562 L 41.363281 158.304688 L 41.421875 158.386719 L 41.476562 158.46875 L 41.53125 158.558594 L 41.582031 158.648438 L 41.628906 158.746094 L 41.671875 158.84375 L 41.710938 158.945312 L 41.746094 159.046875 L 41.777344 159.15625 L 41.804688 159.265625 L 41.824219 159.378906 L 41.84375 159.496094 L 41.859375 159.613281 L 41.875 159.863281 L 41.878906 159.992188 L 41.875 160.132812 L 41.867188 160.273438 L 41.851562 160.40625 L 41.832031 160.539062 L 41.808594 160.667969 L 41.777344 160.789062 L 41.742188 160.910156 L 41.699219 161.027344 L 41.652344 161.140625 L 41.601562 161.25 L 41.542969 161.355469 L 41.480469 161.460938 L 41.414062 161.558594 L 41.34375 161.652344 L 41.265625 161.746094 L 41.183594 161.832031 L 41.097656 161.917969 L 41.007812 161.996094 L 40.910156 162.074219 L 40.8125 162.148438 L 40.703125 162.21875 L 40.59375 162.28125 L 40.476562 162.347656 L 40.355469 162.40625 L 40.230469 162.460938 L 40.101562 162.511719 L 39.96875 162.5625 L 39.832031 162.605469 L 39.6875 162.648438 L 39.539062 162.6875 L 39.386719 162.71875 L 39.230469 162.75 L 39.066406 162.777344 L 38.902344 162.796875 L 38.730469 162.816406 L 38.558594 162.832031 L 38.378906 162.847656 L 38.199219 162.855469 L 37.824219 162.863281 L 37.605469 162.859375 L 37.394531 162.855469 L 37.1875 162.84375 L 36.984375 162.832031 L 36.789062 162.8125 L 36.597656 162.789062 L 36.414062 162.765625 L 36.234375 162.734375 L 36.058594 162.699219 L 35.890625 162.664062 L 35.726562 162.621094 L 35.566406 162.574219 L 35.414062 162.523438 L 35.265625 162.46875 L 35.125 162.414062 L 34.988281 162.351562 L 34.859375 162.289062 L 34.734375 162.222656 L 34.613281 162.152344 L 34.5 162.078125 L 34.390625 162 L 34.289062 161.917969 L 34.191406 161.832031 L 34.097656 161.746094 L 34.011719 161.65625 L 33.929688 161.5625 L 33.855469 161.464844 L 33.785156 161.363281 L 33.722656 161.257812 L 33.664062 161.152344 L 33.609375 161.039062 L 33.5625 160.925781 L 33.519531 160.808594 L 33.480469 160.6875 L 33.453125 160.566406 L 33.425781 160.441406 L 33.40625 160.3125 L 33.390625 160.179688 L 33.382812 160.046875 L 33.382812 159.742188 L 33.390625 159.660156 L 33.394531 159.578125 L 33.402344 159.5 L 33.425781 159.34375 L 33.4375 159.269531 L 33.453125 159.191406 L 33.46875 159.117188 L 33.488281 159.042969 L 33.507812 158.972656 L 33.53125 158.902344 L 33.558594 158.832031 L 33.613281 158.699219 L 33.648438 158.636719 L 33.679688 158.570312 L 33.71875 158.511719 L 33.757812 158.449219 L 33.796875 158.390625 L 33.882812 158.273438 L 33.929688 158.21875 L 33.980469 158.164062 L 34.089844 158.0625 L 34.148438 158.011719 L 34.207031 157.964844 L 34.273438 157.917969 L 34.335938 157.871094 L 34.40625 157.828125 L 34.476562 157.789062 L 34.554688 157.75 L 34.628906 157.710938 L 34.710938 157.675781 L 34.792969 157.644531 L 34.882812 157.609375 L 34.96875 157.582031 L 35.0625 157.554688 L 35.246094 158.5625 L 35.140625 158.597656 L 35.042969 158.636719 L 34.953125 158.675781 L 34.867188 158.722656 L 34.785156 158.773438 L 34.710938 158.828125 L 34.644531 158.886719 L 34.582031 158.953125 L 34.527344 159.019531 L 34.476562 159.089844 L 34.429688 159.160156 L 34.390625 159.234375 L 34.355469 159.3125 L 34.324219 159.394531 L 34.296875 159.476562 L 34.273438 159.558594 L 34.257812 159.644531 L 34.246094 159.734375 L 34.238281 159.828125 L 34.238281 160.007812 L 34.253906 160.171875 L 34.269531 160.253906 L 34.308594 160.410156 L 34.335938 160.488281 L 34.367188 160.5625 L 34.402344 160.632812 L 34.441406 160.707031 L 34.484375 160.773438 L 34.53125 160.84375 L 34.582031 160.90625 L 34.636719 160.96875 L 34.699219 161.03125 L 34.761719 161.089844 L 34.828125 161.144531 L 34.976562 161.253906 L 35.058594 161.304688 L 35.140625 161.351562 L 35.226562 161.398438 L 35.414062 161.484375 L 35.515625 161.523438 L 35.617188 161.558594 L 35.726562 161.59375 L 35.839844 161.625 L 35.957031 161.65625 L 36.078125 161.683594 L 36.203125 161.707031 L 36.332031 161.730469 L 36.464844 161.75 L 36.601562 161.765625 L 36.742188 161.78125 L 36.886719 161.792969 L 37.191406 161.808594 L 37.351562 161.8125 L 37.511719 161.8125 L 37.40625 161.753906 L 37.308594 161.6875 L 37.214844 161.621094 L 37.125 161.546875 L 37.042969 161.46875 L 36.964844 161.382812 L 36.890625 161.296875 L 36.824219 161.203125 L 36.761719 161.105469 L 36.703125 161.003906 L 36.648438 160.898438 L 36.601562 160.789062 L 36.558594 160.679688 L 36.523438 160.5625 L 36.492188 160.445312 L 36.46875 160.324219 L 36.449219 160.199219 L 36.433594 160.074219 L 36.425781 159.941406 L 36.421875 159.808594 L 36.429688 159.589844 L 36.4375 159.480469 L 36.453125 159.375 L 36.46875 159.273438 L 36.488281 159.171875 L 36.511719 159.074219 L 36.539062 158.976562 L 36.570312 158.882812 L 36.605469 158.789062 L 36.640625 158.699219 L 36.726562 158.527344 L 36.773438 158.445312 L 36.828125 158.367188 L 36.878906 158.289062 L 36.9375 158.214844 L 37 158.144531 L 37.0625 158.078125 L 37.132812 158.011719 L 37.199219 157.945312 L 37.347656 157.828125 L 37.425781 157.773438 L 37.507812 157.71875 L 37.679688 157.625 L 37.773438 157.582031 L 37.867188 157.542969 L 38.0625 157.472656 L 38.164062 157.441406 L 38.265625 157.414062 L 38.371094 157.390625 L 38.480469 157.371094 L 38.589844 157.355469 L 38.703125 157.339844 L 38.820312 157.332031 L 38.9375 157.328125 Z M 39.105469 158.398438 L 39.019531 158.398438 L 38.855469 158.40625 L 38.699219 158.421875 L 38.621094 158.433594 L 38.472656 158.464844 L 38.332031 158.503906 L 38.265625 158.523438 L 38.199219 158.550781 L 38.132812 158.574219 L 38.074219 158.605469 L 38.011719 158.632812 L 37.957031 158.667969 L 37.898438 158.703125 L 37.847656 158.738281 L 37.796875 158.777344 L 37.746094 158.820312 L 37.652344 158.90625 L 37.609375 158.953125 L 37.566406 159.003906 L 37.53125 159.054688 L 37.492188 159.109375 L 37.460938 159.164062 L 37.425781 159.21875 L 37.398438 159.28125 L 37.371094 159.339844 L 37.347656 159.402344 L 37.300781 159.535156 L 37.269531 159.675781 L 37.257812 159.75 L 37.25 159.824219 L 37.242188 159.902344 L 37.238281 159.980469 L 37.238281 160.175781 L 37.246094 160.234375 L 37.25 160.292969 L 37.257812 160.351562 L 37.269531 160.40625 L 37.292969 160.523438 L 37.324219 160.640625 L 37.363281 160.757812 L 37.382812 160.8125 L 37.40625 160.867188 L 37.433594 160.921875 L 37.464844 160.972656 L 37.492188 161.027344 L 37.527344 161.078125 L 37.5625 161.125 L 37.601562 161.175781 L 37.636719 161.21875 L 37.679688 161.265625 L 37.722656 161.308594 L 37.816406 161.386719 L 37.867188 161.425781 L 37.921875 161.460938 L 37.980469 161.496094 L 38.035156 161.53125 L 38.097656 161.5625 L 38.160156 161.589844 L 38.226562 161.613281 L 38.296875 161.636719 L 38.367188 161.65625 L 38.441406 161.671875 L 38.597656 161.695312 L 38.679688 161.703125 L 38.765625 161.707031 L 38.945312 161.707031 L 39.035156 161.703125 L 39.121094 161.695312 L 39.210938 161.6875 L 39.296875 161.679688 L 39.382812 161.664062 L 39.546875 161.632812 L 39.628906 161.613281 L 39.710938 161.589844 L 39.785156 161.566406 L 39.863281 161.539062 L 39.9375 161.511719 L 40.078125 161.449219 L 40.210938 161.378906 L 40.335938 161.300781 L 40.394531 161.257812 L 40.453125 161.210938 L 40.507812 161.164062 L 40.609375 161.0625 L 40.65625 161.011719 L 40.703125 160.957031 L 40.746094 160.902344 L 40.824219 160.785156 L 40.859375 160.722656 L 40.890625 160.660156 L 40.917969 160.597656 L 40.945312 160.53125 L 40.964844 160.460938 L 40.984375 160.394531 L 41 160.324219 L 41.011719 160.25 L 41.027344 160.101562 L 41.027344 159.949219 L 41.023438 159.878906 L 41.015625 159.804688 L 41.007812 159.734375 L 40.996094 159.664062 L 40.964844 159.53125 L 40.945312 159.46875 L 40.921875 159.40625 L 40.898438 159.347656 L 40.871094 159.285156 L 40.839844 159.226562 L 40.808594 159.171875 L 40.773438 159.117188 L 40.65625 158.964844 L 40.613281 158.917969 L 40.519531 158.832031 L 40.464844 158.789062 L 40.414062 158.75 L 40.355469 158.714844 L 40.300781 158.679688 L 40.238281 158.644531 L 40.175781 158.613281 L 40.113281 158.585938 L 39.980469 158.53125 L 39.910156 158.507812 L 39.761719 158.46875 L 39.6875 158.453125 L 39.609375 158.4375 L 39.527344 158.425781 L 39.449219 158.414062 L 39.363281 158.40625 L 39.28125 158.402344 L 39.195312 158.398438 Z M 39.105469 158.398438 "/>
<path fill-rule="nonzero" fill="rgb(0%, 0%, 0%)" fill-opacity="1" d="M 37.628906 150.59375 L 37.863281 150.59375 L 38.089844 150.601562 L 38.308594 150.613281 L 38.519531 150.628906 L 38.726562 150.648438 L 38.921875 150.675781 L 39.109375 150.703125 L 39.292969 150.738281 L 39.464844 150.777344 L 39.632812 150.820312 L 39.792969 150.867188 L 39.945312 150.917969 L 40.089844 150.96875 L 40.230469 151.027344 L 40.367188 151.085938 L 40.492188 151.148438 L 40.617188 151.214844 L 40.730469 151.285156 L 40.839844 151.359375 L 40.945312 151.4375 L 41.042969 151.515625 L 41.132812 151.597656 L 41.21875 151.679688 L 41.300781 151.769531 L 41.375 151.859375 L 41.441406 151.949219 L 41.503906 152.046875 L 41.5625 152.144531 L 41.613281 152.246094 L 41.660156 152.351562 L 41.703125 152.457031 L 41.738281 152.5625 L 41.769531 152.671875 L 41.800781 152.785156 L 41.824219 152.894531 L 41.84375 153.007812 L 41.859375 153.121094 L 41.875 153.355469 L 41.878906 153.476562 L 41.875 153.59375 L 41.867188 153.714844 L 41.859375 153.828125 L 41.84375 153.945312 L 41.824219 154.058594 L 41.800781 154.171875 L 41.769531 154.28125 L 41.738281 154.386719 L 41.703125 154.496094 L 41.660156 154.601562 L 41.613281 154.703125 L 41.5625 154.804688 L 41.503906 154.902344 L 41.441406 154.996094 L 41.375 155.089844 L 41.300781 155.175781 L 41.21875 155.265625 L 41.132812 155.347656 L 41.042969 155.429688 L 40.945312 155.507812 L 40.84375 155.582031 L 40.734375 155.65625 L 40.617188 155.722656 L 40.496094 155.789062 L 40.371094 155.851562 L 40.234375 155.910156 L 40.097656 155.964844 L 39.949219 156.015625 L 39.796875 156.066406 L 39.640625 156.113281 L 39.472656 156.152344 L 39.296875 156.191406 L 39.117188 156.222656 L 38.925781 156.25 L 38.730469 156.273438 L 38.523438 156.292969 L 38.3125 156.308594 L 38.09375 156.320312 L 37.863281 156.328125 L 37.382812 156.328125 L 37.148438 156.320312 L 36.917969 156.308594 L 36.699219 156.292969 L 36.488281 156.273438 L 36.289062 156.25 L 36.09375 156.222656 L 35.910156 156.191406 L 35.734375 156.152344 L 35.566406 156.113281 L 35.40625 156.066406 L 35.25 156.015625 L 35.105469 155.964844 L 34.964844 155.90625 L 34.828125 155.847656 L 34.703125 155.785156 L 34.582031 155.71875 L 34.46875 155.652344 L 34.359375 155.578125 L 34.261719 155.503906 L 34.164062 155.425781 L 34.078125 155.34375 L 33.996094 155.257812 L 33.917969 155.171875 L 33.847656 155.082031 L 33.78125 154.988281 L 33.722656 154.890625 L 33.667969 154.792969 L 33.621094 154.691406 L 33.582031 154.589844 L 33.542969 154.480469 L 33.507812 154.375 L 33.480469 154.265625 L 33.453125 154.152344 L 33.429688 154.039062 L 33.398438 153.804688 L 33.382812 153.5625 L 33.382812 153.324219 L 33.390625 153.207031 L 33.398438 153.09375 L 33.429688 152.867188 L 33.453125 152.757812 L 33.480469 152.648438 L 33.507812 152.542969 L 33.542969 152.4375 L 33.582031 152.332031 L 33.621094 152.230469 L 33.667969 152.128906 L 33.722656 152.03125 L 33.78125 151.9375 L 33.847656 151.84375 L 33.917969 151.753906 L 33.996094 151.667969 L 34.078125 151.585938 L 34.164062 151.503906 L 34.359375 151.347656 L 34.46875 151.277344 L 34.582031 151.207031 L 34.703125 151.140625 L 34.828125 151.078125 L 34.964844 151.019531 L 35.105469 150.964844 L 35.25 150.910156 L 35.40625 150.859375 L 35.566406 150.816406 L 35.734375 150.773438 L 35.910156 150.734375 L 36.09375 150.703125 L 36.289062 150.671875 L 36.488281 150.648438 L 36.699219 150.628906 L 36.917969 150.613281 L 37.148438 150.601562 L 37.382812 150.59375 Z M 37.628906 151.664062 L 37.4375 151.664062 L 37.25 151.667969 L 37.070312 151.675781 L 36.894531 151.683594 L 36.726562 151.695312 L 36.566406 151.707031 L 36.414062 151.722656 L 36.269531 151.738281 L 36.128906 151.757812 L 35.996094 151.78125 L 35.867188 151.804688 L 35.742188 151.832031 L 35.625 151.863281 L 35.511719 151.894531 L 35.40625 151.925781 L 35.304688 151.960938 L 35.207031 152 L 35.117188 152.039062 L 35.03125 152.082031 L 34.875 152.175781 L 34.804688 152.222656 L 34.738281 152.273438 L 34.675781 152.328125 L 34.617188 152.382812 L 34.515625 152.5 L 34.472656 152.5625 L 34.433594 152.625 L 34.339844 152.824219 L 34.316406 152.894531 L 34.277344 153.042969 L 34.261719 153.117188 L 34.25 153.195312 L 34.242188 153.273438 L 34.238281 153.355469 L 34.238281 153.527344 L 34.242188 153.613281 L 34.25 153.699219 L 34.261719 153.78125 L 34.277344 153.859375 L 34.296875 153.9375 L 34.316406 154.011719 L 34.339844 154.085938 L 34.402344 154.226562 L 34.4375 154.292969 L 34.476562 154.355469 L 34.519531 154.417969 L 34.570312 154.480469 L 34.621094 154.539062 L 34.679688 154.59375 L 34.742188 154.648438 L 34.808594 154.703125 L 34.882812 154.75 L 34.957031 154.800781 L 35.121094 154.886719 L 35.308594 154.964844 L 35.410156 155 L 35.519531 155.035156 L 35.628906 155.066406 L 35.871094 155.121094 L 36 155.144531 L 36.132812 155.167969 L 36.273438 155.1875 L 36.421875 155.203125 L 36.574219 155.21875 L 36.734375 155.234375 L 36.898438 155.242188 L 37.070312 155.25 L 37.25 155.257812 L 37.4375 155.261719 L 37.816406 155.261719 L 37.996094 155.257812 L 38.171875 155.25 L 38.339844 155.242188 L 38.503906 155.234375 L 38.660156 155.21875 L 38.8125 155.203125 L 38.957031 155.1875 L 39.09375 155.167969 L 39.230469 155.144531 L 39.355469 155.121094 L 39.480469 155.089844 L 39.597656 155.0625 L 39.707031 155.03125 L 39.816406 154.996094 L 39.917969 154.960938 L 40.015625 154.921875 L 40.109375 154.878906 L 40.195312 154.839844 L 40.277344 154.792969 L 40.355469 154.746094 L 40.425781 154.695312 L 40.492188 154.644531 L 40.558594 154.589844 L 40.617188 154.535156 L 40.671875 154.476562 L 40.722656 154.417969 L 40.808594 154.292969 L 40.847656 154.226562 L 40.878906 154.15625 L 40.90625 154.089844 L 40.933594 154.015625 L 40.972656 153.867188 L 40.988281 153.789062 L 41 153.710938 L 41.007812 153.632812 L 41.015625 153.546875 L 41.015625 153.382812 L 41.007812 153.300781 L 41 153.222656 L 40.988281 153.144531 L 40.972656 153.066406 L 40.953125 152.992188 L 40.933594 152.921875 L 40.878906 152.78125 L 40.847656 152.714844 L 40.808594 152.648438 L 40.722656 152.523438 L 40.671875 152.464844 L 40.617188 152.40625 L 40.558594 152.351562 L 40.492188 152.296875 L 40.425781 152.246094 L 40.355469 152.199219 L 40.277344 152.152344 L 40.195312 152.105469 L 40.109375 152.0625 L 40.015625 152.019531 L 39.917969 151.980469 L 39.816406 151.945312 L 39.707031 151.910156 L 39.597656 151.878906 L 39.480469 151.847656 L 39.230469 151.792969 L 38.957031 151.746094 L 38.8125 151.726562 L 38.660156 151.710938 L 38.503906 151.695312 L 38.339844 151.683594 L 38.171875 151.675781 L 37.996094 151.667969 L 37.816406 151.664062 Z M 37.628906 151.664062 "/>
<path fill-rule="nonzero" fill="rgb(0%, 0%, 0%)" fill-opacity="1" d="M 39.457031 114.816406 L 39.5625 114.816406 L 39.765625 114.832031 L 39.867188 114.84375 L 40.0625 114.875 L 40.15625 114.898438 L 40.25 114.925781 L 40.339844 114.953125 L 40.429688 114.984375 L 40.515625 115.019531 L 40.601562 115.058594 L 40.683594 115.101562 L 40.761719 115.144531 L 40.839844 115.195312 L 40.914062 115.246094 L 40.988281 115.304688 L 41.058594 115.363281 L 41.191406 115.496094 L 41.253906 115.566406 L 41.316406 115.640625 L 41.371094 115.714844 L 41.425781 115.796875 L 41.480469 115.882812 L 41.527344 115.972656 L 41.574219 116.066406 L 41.617188 116.164062 L 41.695312 116.367188 L 41.730469 116.476562 L 41.761719 116.589844 L 41.789062 116.707031 L 41.8125 116.824219 L 41.832031 116.949219 L 41.847656 117.078125 L 41.871094 117.34375 L 41.875 117.484375 L 41.878906 117.628906 L 41.875 117.773438 L 41.871094 117.910156 L 41.859375 118.046875 L 41.847656 118.179688 L 41.832031 118.304688 L 41.8125 118.429688 L 41.789062 118.550781 L 41.761719 118.667969 L 41.730469 118.78125 L 41.695312 118.886719 L 41.65625 118.992188 L 41.617188 119.09375 L 41.574219 119.1875 L 41.527344 119.28125 L 41.480469 119.371094 L 41.429688 119.457031 L 41.320312 119.621094 L 41.257812 119.695312 L 41.199219 119.765625 L 41.132812 119.835938 L 41.0625 119.898438 L 40.921875 120.015625 L 40.847656 120.070312 L 40.769531 120.117188 L 40.6875 120.164062 L 40.605469 120.207031 L 40.523438 120.246094 L 40.4375 120.28125 L 40.347656 120.3125 L 40.160156 120.367188 L 39.972656 120.40625 L 39.875 120.421875 L 39.773438 120.433594 L 39.675781 120.441406 L 39.574219 120.445312 L 39.378906 120.445312 L 39.292969 120.441406 L 39.207031 120.433594 L 39.125 120.425781 L 39.042969 120.414062 L 38.964844 120.398438 L 38.886719 120.378906 L 38.8125 120.359375 L 38.738281 120.335938 L 38.667969 120.3125 L 38.597656 120.28125 L 38.53125 120.253906 L 38.464844 120.21875 L 38.339844 120.148438 L 38.28125 120.113281 L 38.222656 120.070312 L 38.167969 120.03125 L 38.113281 119.988281 L 38.011719 119.894531 L 37.964844 119.847656 L 37.917969 119.796875 L 37.832031 119.695312 L 37.753906 119.585938 L 37.71875 119.53125 L 37.683594 119.472656 L 37.621094 119.355469 L 37.59375 119.296875 L 37.566406 119.234375 L 37.542969 119.171875 L 37.519531 119.113281 L 37.5 119.050781 L 37.453125 118.863281 L 37.441406 118.800781 L 37.417969 118.800781 L 37.402344 118.867188 L 37.382812 118.9375 L 37.359375 119 L 37.335938 119.066406 L 37.3125 119.128906 L 37.285156 119.191406 L 37.191406 119.367188 L 37.15625 119.421875 L 37.117188 119.472656 L 37.078125 119.527344 L 37.039062 119.574219 L 36.996094 119.625 L 36.957031 119.671875 L 36.910156 119.714844 L 36.867188 119.757812 L 36.820312 119.800781 L 36.769531 119.839844 L 36.722656 119.878906 L 36.667969 119.914062 L 36.617188 119.949219 L 36.507812 120.011719 L 36.390625 120.066406 L 36.335938 120.09375 L 36.273438 120.117188 L 36.214844 120.140625 L 36.152344 120.160156 L 35.964844 120.207031 L 35.832031 120.230469 L 35.699219 120.246094 L 35.566406 120.253906 L 35.496094 120.253906 L 35.324219 120.246094 L 35.242188 120.238281 L 35.15625 120.226562 L 35.074219 120.210938 L 34.996094 120.195312 L 34.914062 120.171875 L 34.835938 120.148438 L 34.757812 120.121094 L 34.683594 120.089844 L 34.605469 120.054688 L 34.53125 120.015625 L 34.457031 119.972656 L 34.386719 119.929688 L 34.253906 119.828125 L 34.1875 119.773438 L 34.125 119.714844 L 34.066406 119.65625 L 33.949219 119.523438 L 33.894531 119.453125 L 33.792969 119.304688 L 33.746094 119.222656 L 33.703125 119.140625 L 33.660156 119.054688 L 33.621094 118.964844 L 33.550781 118.777344 L 33.519531 118.679688 L 33.488281 118.574219 L 33.464844 118.472656 L 33.441406 118.363281 L 33.421875 118.253906 L 33.410156 118.136719 L 33.394531 118.019531 L 33.386719 117.902344 L 33.382812 117.777344 L 33.382812 117.519531 L 33.386719 117.390625 L 33.394531 117.265625 L 33.410156 117.140625 L 33.421875 117.023438 L 33.441406 116.910156 L 33.464844 116.796875 L 33.488281 116.691406 L 33.519531 116.585938 L 33.550781 116.484375 L 33.585938 116.386719 L 33.625 116.292969 L 33.664062 116.203125 L 33.75 116.03125 L 33.800781 115.953125 L 33.847656 115.875 L 33.902344 115.800781 L 33.957031 115.730469 L 34.015625 115.664062 L 34.132812 115.539062 L 34.257812 115.429688 L 34.324219 115.378906 L 34.394531 115.332031 L 34.464844 115.289062 L 34.535156 115.25 L 34.613281 115.210938 L 34.6875 115.179688 L 34.765625 115.148438 L 34.84375 115.121094 L 34.925781 115.097656 L 35.003906 115.078125 L 35.085938 115.058594 L 35.167969 115.046875 L 35.253906 115.035156 L 35.335938 115.027344 L 35.507812 115.019531 L 35.574219 115.023438 L 35.644531 115.023438 L 35.710938 115.03125 L 35.773438 115.035156 L 35.90625 115.058594 L 35.96875 115.070312 L 36.03125 115.085938 L 36.097656 115.101562 L 36.160156 115.121094 L 36.21875 115.140625 L 36.28125 115.160156 L 36.339844 115.183594 L 36.457031 115.238281 L 36.511719 115.265625 L 36.566406 115.296875 L 36.621094 115.332031 L 36.675781 115.363281 L 36.726562 115.402344 L 36.777344 115.4375 L 36.824219 115.476562 L 36.917969 115.5625 L 36.960938 115.605469 L 37.003906 115.652344 L 37.046875 115.703125 L 37.125 115.804688 L 37.195312 115.914062 L 37.226562 115.96875 L 37.257812 116.027344 L 37.285156 116.089844 L 37.308594 116.148438 L 37.332031 116.214844 L 37.355469 116.277344 L 37.375 116.347656 L 37.390625 116.414062 L 37.40625 116.484375 L 37.429688 116.484375 L 37.441406 116.414062 L 37.457031 116.34375 L 37.472656 116.277344 L 37.492188 116.207031 L 37.511719 116.140625 L 37.535156 116.074219 L 37.5625 116.011719 L 37.585938 115.949219 L 37.679688 115.761719 L 37.710938 115.703125 L 37.746094 115.648438 L 37.824219 115.539062 L 37.910156 115.4375 L 37.957031 115.386719 L 38.007812 115.339844 L 38.160156 115.210938 L 38.21875 115.171875 L 38.273438 115.132812 L 38.332031 115.097656 L 38.394531 115.0625 L 38.457031 115.03125 L 38.523438 115 L 38.589844 114.972656 L 38.660156 114.945312 L 38.730469 114.921875 L 38.804688 114.898438 L 38.878906 114.878906 L 39.035156 114.847656 L 39.117188 114.835938 L 39.28125 114.820312 L 39.367188 114.816406 Z M 35.566406 116.117188 L 35.503906 116.117188 L 35.328125 116.128906 L 35.269531 116.136719 L 35.214844 116.144531 L 35.15625 116.15625 L 35.101562 116.167969 L 34.949219 116.214844 L 34.898438 116.234375 L 34.851562 116.253906 L 34.757812 116.300781 L 34.714844 116.328125 L 34.675781 116.355469 L 34.632812 116.386719 L 34.597656 116.421875 L 34.558594 116.457031 L 34.523438 116.492188 L 34.488281 116.535156 L 34.453125 116.574219 L 34.421875 116.621094 L 34.394531 116.664062 L 34.339844 116.765625 L 34.316406 116.816406 L 34.292969 116.875 L 34.273438 116.929688 L 34.25 116.992188 L 34.21875 117.117188 L 34.203125 117.1875 L 34.191406 117.257812 L 34.175781 117.40625 L 34.171875 117.484375 L 34.167969 117.566406 L 34.167969 117.734375 L 34.175781 117.890625 L 34.183594 117.964844 L 34.191406 118.035156 L 34.203125 118.105469 L 34.21875 118.171875 L 34.25 118.296875 L 34.273438 118.355469 L 34.292969 118.410156 L 34.339844 118.519531 L 34.367188 118.570312 L 34.421875 118.664062 L 34.453125 118.707031 L 34.488281 118.75 L 34.558594 118.828125 L 34.597656 118.863281 L 34.632812 118.898438 L 34.675781 118.929688 L 34.714844 118.957031 L 34.757812 118.984375 L 34.804688 119.011719 L 34.851562 119.035156 L 34.898438 119.054688 L 35 119.09375 L 35.050781 119.109375 L 35.101562 119.121094 L 35.15625 119.136719 L 35.214844 119.144531 L 35.269531 119.15625 L 35.328125 119.160156 L 35.386719 119.167969 L 35.503906 119.175781 L 35.617188 119.175781 L 35.664062 119.171875 L 35.816406 119.160156 L 35.917969 119.144531 L 36.121094 119.097656 L 36.171875 119.082031 L 36.222656 119.0625 L 36.269531 119.042969 L 36.363281 118.996094 L 36.410156 118.96875 L 36.453125 118.941406 L 36.496094 118.910156 L 36.582031 118.839844 L 36.621094 118.804688 L 36.660156 118.761719 L 36.730469 118.675781 L 36.765625 118.625 L 36.828125 118.523438 L 36.855469 118.464844 L 36.886719 118.40625 L 36.910156 118.347656 L 36.933594 118.28125 L 36.953125 118.214844 L 36.972656 118.140625 L 36.984375 118.066406 L 37 117.988281 L 37.007812 117.90625 L 37.015625 117.820312 L 37.019531 117.730469 L 37.019531 117.542969 L 37.015625 117.449219 L 37.007812 117.359375 L 37 117.273438 L 36.984375 117.191406 L 36.972656 117.113281 L 36.953125 117.039062 L 36.933594 116.96875 L 36.886719 116.84375 L 36.855469 116.785156 L 36.828125 116.726562 L 36.796875 116.671875 L 36.765625 116.621094 L 36.730469 116.574219 L 36.660156 116.488281 L 36.621094 116.449219 L 36.582031 116.414062 L 36.539062 116.378906 L 36.496094 116.347656 L 36.410156 116.292969 L 36.316406 116.246094 L 36.222656 116.207031 L 36.171875 116.191406 L 36.070312 116.167969 L 36.019531 116.160156 L 35.96875 116.148438 L 35.917969 116.140625 L 35.867188 116.136719 L 35.816406 116.128906 L 35.664062 116.117188 Z M 39.359375 115.910156 L 39.296875 115.914062 L 39.238281 115.914062 L 39.179688 115.917969 L 39.121094 115.925781 L 39.066406 115.933594 L 39.007812 115.941406 L 38.949219 115.953125 L 38.839844 115.976562 L 38.785156 115.992188 L 38.726562 116.011719 L 38.671875 116.03125 L 38.570312 116.078125 L 38.519531 116.105469 L 38.472656 116.132812 L 38.425781 116.164062 L 38.378906 116.199219 L 38.335938 116.234375 L 38.292969 116.273438 L 38.207031 116.359375 L 38.167969 116.40625 L 38.097656 116.507812 L 38.0625 116.5625 L 38.03125 116.621094 L 38 116.683594 L 37.972656 116.746094 L 37.945312 116.8125 L 37.898438 116.953125 L 37.875 117.03125 L 37.859375 117.109375 L 37.84375 117.191406 L 37.832031 117.277344 L 37.824219 117.363281 L 37.816406 117.457031 L 37.8125 117.550781 L 37.8125 117.742188 L 37.816406 117.832031 L 37.824219 117.917969 L 37.832031 118 L 37.84375 118.082031 L 37.859375 118.160156 L 37.875 118.234375 L 37.921875 118.375 L 37.945312 118.441406 L 37.972656 118.507812 L 38 118.566406 L 38.0625 118.683594 L 38.097656 118.734375 L 38.132812 118.789062 L 38.167969 118.835938 L 38.207031 118.882812 L 38.25 118.929688 L 38.378906 119.046875 L 38.425781 119.078125 L 38.476562 119.113281 L 38.527344 119.144531 L 38.578125 119.171875 L 38.628906 119.195312 L 38.683594 119.222656 L 38.738281 119.242188 L 38.796875 119.261719 L 38.851562 119.28125 L 38.910156 119.296875 L 38.964844 119.3125 L 39.023438 119.324219 L 39.199219 119.347656 L 39.261719 119.351562 L 39.320312 119.355469 L 39.457031 119.355469 L 39.605469 119.347656 L 39.816406 119.324219 L 39.882812 119.3125 L 40.015625 119.28125 L 40.140625 119.242188 L 40.199219 119.222656 L 40.257812 119.195312 L 40.3125 119.171875 L 40.421875 119.109375 L 40.472656 119.078125 L 40.523438 119.042969 L 40.617188 118.964844 L 40.703125 118.878906 L 40.742188 118.828125 L 40.78125 118.78125 L 40.816406 118.726562 L 40.847656 118.671875 L 40.910156 118.554688 L 40.9375 118.492188 L 40.964844 118.425781 L 40.988281 118.355469 L 41.007812 118.285156 L 41.027344 118.210938 L 41.042969 118.136719 L 41.066406 117.972656 L 41.082031 117.800781 L 41.085938 117.710938 L 41.085938 117.523438 L 41.082031 117.429688 L 41.066406 117.257812 L 41.042969 117.09375 L 41.027344 117.019531 L 41.007812 116.945312 L 40.988281 116.875 L 40.964844 116.808594 L 40.9375 116.742188 L 40.910156 116.683594 L 40.878906 116.621094 L 40.816406 116.511719 L 40.78125 116.460938 L 40.742188 116.410156 L 40.703125 116.367188 L 40.660156 116.320312 L 40.617188 116.28125 L 40.570312 116.242188 L 40.523438 116.207031 L 40.472656 116.171875 L 40.421875 116.140625 L 40.367188 116.109375 L 40.3125 116.082031 L 40.195312 116.035156 L 40.136719 116.015625 L 40.074219 116 L 39.941406 115.96875 L 39.871094 115.953125 L 39.804688 115.941406 L 39.734375 115.933594 L 39.585938 115.917969 L 39.511719 115.914062 L 39.433594 115.914062 Z M 39.359375 115.910156 "/>
<path fill-rule="nonzero" fill="rgb(0%, 0%, 0%)" fill-opacity="1" d="M 37.628906 108.089844 L 37.863281 108.089844 L 38.089844 108.097656 L 38.308594 108.109375 L 38.519531 108.125 L 38.726562 108.144531 L 38.921875 108.171875 L 39.109375 108.199219 L 39.292969 108.234375 L 39.464844 108.273438 L 39.632812 108.316406 L 39.792969 108.363281 L 39.945312 108.414062 L 40.089844 108.464844 L 40.230469 108.523438 L 40.367188 108.582031 L 40.492188 108.644531 L 40.617188 108.710938 L 40.730469 108.78125 L 40.839844 108.855469 L 40.945312 108.933594 L 41.042969 109.011719 L 41.132812 109.09375 L 41.21875 109.175781 L 41.300781 109.265625 L 41.375 109.355469 L 41.441406 109.449219 L 41.503906 109.542969 L 41.5625 109.640625 L 41.613281 109.742188 L 41.660156 109.847656 L 41.703125 109.953125 L 41.738281 110.0625 L 41.769531 110.167969 L 41.800781 110.28125 L 41.824219 110.390625 L 41.84375 110.503906 L 41.859375 110.621094 L 41.867188 110.734375 L 41.875 110.851562 L 41.878906 110.972656 L 41.875 111.09375 L 41.859375 111.328125 L 41.84375 111.441406 L 41.824219 111.554688 L 41.800781 111.667969 L 41.738281 111.886719 L 41.703125 111.992188 L 41.660156 112.097656 L 41.613281 112.199219 L 41.5625 112.300781 L 41.503906 112.398438 L 41.441406 112.492188 L 41.375 112.585938 L 41.300781 112.675781 L 41.21875 112.761719 L 41.132812 112.84375 L 41.042969 112.925781 L 40.945312 113.003906 L 40.84375 113.078125 L 40.734375 113.152344 L 40.617188 113.21875 L 40.496094 113.285156 L 40.371094 113.347656 L 40.234375 113.40625 L 40.097656 113.460938 L 39.949219 113.511719 L 39.796875 113.5625 L 39.640625 113.609375 L 39.472656 113.648438 L 39.296875 113.6875 L 39.117188 113.71875 L 38.925781 113.746094 L 38.730469 113.769531 L 38.523438 113.789062 L 38.3125 113.804688 L 38.09375 113.816406 L 37.863281 113.824219 L 37.382812 113.824219 L 37.148438 113.816406 L 36.917969 113.804688 L 36.699219 113.789062 L 36.488281 113.769531 L 36.289062 113.746094 L 36.09375 113.71875 L 35.910156 113.6875 L 35.734375 113.648438 L 35.566406 113.609375 L 35.40625 113.5625 L 35.25 113.511719 L 35.105469 113.460938 L 34.964844 113.40625 L 34.828125 113.34375 L 34.703125 113.28125 L 34.582031 113.214844 L 34.46875 113.148438 L 34.359375 113.074219 L 34.261719 113 L 34.164062 112.921875 L 34.078125 112.839844 L 33.996094 112.753906 L 33.917969 112.667969 L 33.847656 112.578125 L 33.78125 112.484375 L 33.722656 112.390625 L 33.667969 112.289062 L 33.621094 112.1875 L 33.582031 112.085938 L 33.542969 111.980469 L 33.507812 111.871094 L 33.480469 111.761719 L 33.453125 111.648438 L 33.429688 111.535156 L 33.398438 111.300781 L 33.382812 111.058594 L 33.382812 110.820312 L 33.390625 110.703125 L 33.398438 110.589844 L 33.429688 110.363281 L 33.453125 110.253906 L 33.480469 110.144531 L 33.507812 110.039062 L 33.542969 109.933594 L 33.582031 109.828125 L 33.621094 109.726562 L 33.667969 109.625 L 33.722656 109.527344 L 33.78125 109.433594 L 33.847656 109.339844 L 33.917969 109.253906 L 33.996094 109.164062 L 34.078125 109.082031 L 34.164062 109 L 34.359375 108.84375 L 34.46875 108.773438 L 34.582031 108.703125 L 34.703125 108.636719 L 34.828125 108.574219 L 34.964844 108.515625 L 35.105469 108.460938 L 35.25 108.40625 L 35.40625 108.359375 L 35.566406 108.3125 L 35.734375 108.269531 L 35.910156 108.230469 L 36.09375 108.199219 L 36.289062 108.167969 L 36.488281 108.144531 L 36.699219 108.125 L 36.917969 108.109375 L 37.148438 108.097656 L 37.382812 108.089844 Z M 37.628906 109.160156 L 37.4375 109.164062 L 37.25 109.167969 L 37.070312 109.171875 L 36.894531 109.179688 L 36.726562 109.191406 L 36.566406 109.203125 L 36.414062 109.21875 L 36.269531 109.238281 L 36.128906 109.257812 L 35.996094 109.277344 L 35.867188 109.304688 L 35.742188 109.328125 L 35.625 109.359375 L 35.511719 109.390625 L 35.40625 109.421875 L 35.304688 109.460938 L 35.207031 109.496094 L 35.117188 109.539062 L 35.03125 109.578125 L 34.875 109.671875 L 34.804688 109.71875 L 34.738281 109.769531 L 34.675781 109.824219 L 34.617188 109.878906 L 34.515625 109.996094 L 34.472656 110.058594 L 34.433594 110.121094 L 34.339844 110.320312 L 34.316406 110.390625 L 34.277344 110.539062 L 34.261719 110.613281 L 34.25 110.691406 L 34.242188 110.773438 L 34.238281 110.851562 L 34.238281 111.023438 L 34.242188 111.109375 L 34.25 111.195312 L 34.261719 111.277344 L 34.277344 111.355469 L 34.296875 111.433594 L 34.316406 111.507812 L 34.339844 111.582031 L 34.402344 111.722656 L 34.4375 111.789062 L 34.476562 111.855469 L 34.519531 111.917969 L 34.621094 112.035156 L 34.679688 112.09375 L 34.742188 112.144531 L 34.808594 112.199219 L 34.882812 112.25 L 34.957031 112.296875 L 35.121094 112.382812 L 35.308594 112.460938 L 35.410156 112.496094 L 35.519531 112.53125 L 35.628906 112.5625 L 35.871094 112.617188 L 36 112.640625 L 36.132812 112.664062 L 36.273438 112.683594 L 36.421875 112.703125 L 36.574219 112.71875 L 36.734375 112.730469 L 36.898438 112.742188 L 37.070312 112.75 L 37.25 112.753906 L 37.4375 112.757812 L 37.816406 112.757812 L 37.996094 112.753906 L 38.171875 112.75 L 38.339844 112.742188 L 38.503906 112.730469 L 38.660156 112.71875 L 38.8125 112.703125 L 38.957031 112.683594 L 39.09375 112.664062 L 39.230469 112.640625 L 39.355469 112.617188 L 39.480469 112.589844 L 39.597656 112.558594 L 39.707031 112.527344 L 39.816406 112.492188 L 39.917969 112.457031 L 40.015625 112.417969 L 40.109375 112.378906 L 40.195312 112.335938 L 40.277344 112.289062 L 40.355469 112.242188 L 40.425781 112.191406 L 40.492188 112.140625 L 40.558594 112.085938 L 40.617188 112.03125 L 40.671875 111.972656 L 40.722656 111.914062 L 40.808594 111.789062 L 40.847656 111.722656 L 40.878906 111.652344 L 40.90625 111.585938 L 40.933594 111.511719 L 40.953125 111.441406 L 40.972656 111.363281 L 40.988281 111.289062 L 41 111.207031 L 41.007812 111.128906 L 41.015625 111.042969 L 41.015625 110.878906 L 41.007812 110.796875 L 41 110.71875 L 40.988281 110.640625 L 40.972656 110.566406 L 40.933594 110.417969 L 40.878906 110.277344 L 40.847656 110.210938 L 40.808594 110.144531 L 40.722656 110.019531 L 40.671875 109.960938 L 40.617188 109.902344 L 40.558594 109.847656 L 40.492188 109.792969 L 40.425781 109.742188 L 40.355469 109.695312 L 40.277344 109.648438 L 40.195312 109.601562 L 40.109375 109.558594 L 40.015625 109.515625 L 39.917969 109.476562 L 39.816406 109.441406 L 39.707031 109.40625 L 39.597656 109.375 L 39.480469 109.34375 L 39.230469 109.289062 L 38.957031 109.242188 L 38.8125 109.222656 L 38.660156 109.207031 L 38.503906 109.195312 L 38.339844 109.183594 L 38.171875 109.171875 L 37.996094 109.167969 L 37.816406 109.164062 Z M 37.628906 109.160156 "/>
<path fill-rule="nonzero" fill="rgb(0%, 0%, 0%)" fill-opacity="1" d="M 41.761719 80.886719 L 40.863281 80.886719 L 40.863281 78.785156 L 34.511719 78.785156 L 35.84375 80.648438 L 34.847656 80.648438 L 33.503906 78.695312 L 33.503906 77.722656 L 40.863281 77.722656 L 40.863281 75.714844 L 41.761719 75.714844 Z M 41.761719 80.886719 "/>
<path fill-rule="nonzero" fill="rgb(0%, 0%, 0%)" fill-opacity="1" d="M 37.628906 68.921875 L 37.863281 68.925781 L 38.089844 68.933594 L 38.308594 68.945312 L 38.519531 68.960938 L 38.726562 68.980469 L 38.921875 69.003906 L 39.109375 69.035156 L 39.292969 69.070312 L 39.464844 69.109375 L 39.632812 69.152344 L 39.792969 69.199219 L 39.945312 69.246094 L 40.089844 69.300781 L 40.230469 69.355469 L 40.367188 69.417969 L 40.492188 69.480469 L 40.617188 69.546875 L 40.730469 69.617188 L 40.839844 69.691406 L 40.945312 69.765625 L 41.042969 69.84375 L 41.132812 69.925781 L 41.21875 70.011719 L 41.300781 70.097656 L 41.375 70.1875 L 41.441406 70.28125 L 41.503906 70.375 L 41.5625 70.476562 L 41.613281 70.578125 L 41.660156 70.679688 L 41.703125 70.785156 L 41.738281 70.894531 L 41.800781 71.113281 L 41.824219 71.226562 L 41.84375 71.339844 L 41.859375 71.453125 L 41.875 71.6875 L 41.878906 71.804688 L 41.875 71.925781 L 41.859375 72.160156 L 41.84375 72.273438 L 41.824219 72.386719 L 41.800781 72.5 L 41.738281 72.71875 L 41.703125 72.824219 L 41.660156 72.929688 L 41.613281 73.035156 L 41.5625 73.132812 L 41.503906 73.230469 L 41.441406 73.328125 L 41.375 73.417969 L 41.300781 73.507812 L 41.21875 73.59375 L 41.132812 73.679688 L 41.042969 73.761719 L 40.945312 73.839844 L 40.84375 73.914062 L 40.734375 73.984375 L 40.617188 74.054688 L 40.496094 74.117188 L 40.371094 74.179688 L 40.234375 74.238281 L 40.097656 74.292969 L 39.949219 74.347656 L 39.796875 74.394531 L 39.640625 74.441406 L 39.472656 74.484375 L 39.296875 74.519531 L 39.117188 74.554688 L 38.925781 74.582031 L 38.730469 74.605469 L 38.523438 74.625 L 38.3125 74.640625 L 38.09375 74.652344 L 37.863281 74.65625 L 37.628906 74.660156 L 37.382812 74.65625 L 37.148438 74.652344 L 36.917969 74.640625 L 36.699219 74.625 L 36.488281 74.605469 L 36.289062 74.582031 L 36.09375 74.554688 L 35.910156 74.519531 L 35.734375 74.484375 L 35.566406 74.441406 L 35.40625 74.394531 L 35.25 74.347656 L 35.105469 74.292969 L 34.964844 74.238281 L 34.828125 74.179688 L 34.703125 74.117188 L 34.582031 74.050781 L 34.46875 73.980469 L 34.359375 73.910156 L 34.164062 73.753906 L 34.078125 73.671875 L 33.996094 73.589844 L 33.917969 73.5 L 33.847656 73.410156 L 33.78125 73.316406 L 33.722656 73.222656 L 33.667969 73.125 L 33.621094 73.023438 L 33.542969 72.8125 L 33.507812 72.703125 L 33.480469 72.59375 L 33.453125 72.480469 L 33.429688 72.367188 L 33.414062 72.253906 L 33.398438 72.132812 L 33.390625 72.015625 L 33.382812 71.894531 L 33.382812 71.652344 L 33.390625 71.535156 L 33.398438 71.421875 L 33.414062 71.308594 L 33.429688 71.199219 L 33.453125 71.085938 L 33.480469 70.980469 L 33.507812 70.871094 L 33.542969 70.765625 L 33.582031 70.664062 L 33.621094 70.558594 L 33.667969 70.460938 L 33.722656 70.363281 L 33.78125 70.265625 L 33.847656 70.175781 L 33.917969 70.085938 L 33.996094 70 L 34.078125 69.914062 L 34.164062 69.832031 L 34.261719 69.753906 L 34.359375 69.679688 L 34.46875 69.605469 L 34.582031 69.539062 L 34.703125 69.472656 L 34.828125 69.410156 L 34.964844 69.351562 L 35.105469 69.292969 L 35.25 69.242188 L 35.40625 69.191406 L 35.566406 69.144531 L 35.734375 69.101562 L 35.910156 69.066406 L 36.09375 69.03125 L 36.289062 69.003906 L 36.488281 68.976562 L 36.699219 68.957031 L 36.917969 68.941406 L 37.148438 68.933594 L 37.382812 68.925781 Z M 37.628906 69.996094 L 37.4375 69.996094 L 37.25 70 L 37.070312 70.003906 L 36.894531 70.015625 L 36.726562 70.023438 L 36.566406 70.039062 L 36.414062 70.050781 L 36.269531 70.070312 L 36.128906 70.089844 L 35.996094 70.113281 L 35.867188 70.136719 L 35.742188 70.164062 L 35.625 70.191406 L 35.511719 70.222656 L 35.40625 70.257812 L 35.304688 70.292969 L 35.207031 70.332031 L 35.117188 70.371094 L 35.03125 70.414062 L 34.953125 70.457031 L 34.875 70.503906 L 34.804688 70.554688 L 34.738281 70.605469 L 34.675781 70.65625 L 34.617188 70.710938 L 34.515625 70.828125 L 34.472656 70.890625 L 34.433594 70.953125 L 34.371094 71.085938 L 34.339844 71.15625 L 34.316406 71.226562 L 34.296875 71.296875 L 34.277344 71.371094 L 34.261719 71.449219 L 34.25 71.527344 L 34.242188 71.605469 L 34.238281 71.6875 L 34.238281 71.859375 L 34.242188 71.945312 L 34.25 72.027344 L 34.261719 72.109375 L 34.277344 72.1875 L 34.316406 72.34375 L 34.339844 72.414062 L 34.371094 72.488281 L 34.402344 72.554688 L 34.4375 72.621094 L 34.476562 72.6875 L 34.519531 72.75 L 34.570312 72.8125 L 34.621094 72.867188 L 34.679688 72.925781 L 34.742188 72.980469 L 34.808594 73.03125 L 34.882812 73.082031 L 34.957031 73.128906 L 35.039062 73.175781 L 35.121094 73.21875 L 35.214844 73.257812 L 35.308594 73.292969 L 35.410156 73.332031 L 35.628906 73.394531 L 35.75 73.425781 L 35.871094 73.449219 L 36 73.476562 L 36.132812 73.496094 L 36.273438 73.519531 L 36.421875 73.535156 L 36.574219 73.550781 L 36.734375 73.5625 L 36.898438 73.574219 L 37.070312 73.582031 L 37.25 73.589844 L 37.4375 73.589844 L 37.628906 73.59375 L 37.816406 73.589844 L 37.996094 73.589844 L 38.171875 73.582031 L 38.339844 73.574219 L 38.503906 73.5625 L 38.660156 73.550781 L 38.8125 73.535156 L 38.957031 73.519531 L 39.09375 73.496094 L 39.230469 73.476562 L 39.480469 73.421875 L 39.597656 73.390625 L 39.707031 73.359375 L 39.816406 73.324219 L 39.917969 73.289062 L 40.015625 73.25 L 40.109375 73.210938 L 40.195312 73.167969 L 40.277344 73.125 L 40.355469 73.074219 L 40.425781 73.027344 L 40.492188 72.972656 L 40.558594 72.921875 L 40.671875 72.808594 L 40.722656 72.746094 L 40.808594 72.621094 L 40.847656 72.554688 L 40.878906 72.488281 L 40.933594 72.347656 L 40.972656 72.199219 L 40.988281 72.121094 L 41 72.042969 L 41.015625 71.878906 L 41.015625 71.710938 L 41.007812 71.628906 L 41 71.550781 L 40.988281 71.472656 L 40.972656 71.398438 L 40.933594 71.25 L 40.90625 71.179688 L 40.878906 71.113281 L 40.847656 71.042969 L 40.808594 70.976562 L 40.722656 70.851562 L 40.671875 70.792969 L 40.617188 70.734375 L 40.558594 70.679688 L 40.425781 70.578125 L 40.355469 70.527344 L 40.277344 70.480469 L 40.195312 70.4375 L 40.109375 70.390625 L 40.015625 70.351562 L 39.917969 70.3125 L 39.816406 70.273438 L 39.707031 70.242188 L 39.597656 70.207031 L 39.480469 70.175781 L 39.355469 70.148438 L 39.230469 70.125 L 39.09375 70.097656 L 38.957031 70.078125 L 38.8125 70.058594 L 38.660156 70.042969 L 38.503906 70.027344 L 38.339844 70.015625 L 38.171875 70.007812 L 37.996094 70 L 37.816406 69.996094 Z M 37.628906 69.996094 "/>
<path fill-rule="nonzero" fill="rgb(0%, 0%, 0%)" fill-opacity="1" d="M 37.628906 62.25 L 37.863281 62.25 L 38.089844 62.257812 L 38.308594 62.269531 L 38.519531 62.285156 L 38.726562 62.304688 L 38.921875 62.332031 L 39.109375 62.359375 L 39.292969 62.394531 L 39.464844 62.433594 L 39.632812 62.476562 L 39.792969 62.523438 L 39.945312 62.574219 L 40.089844 62.625 L 40.230469 62.683594 L 40.367188 62.742188 L 40.492188 62.804688 L 40.617188 62.871094 L 40.730469 62.941406 L 40.839844 63.015625 L 40.945312 63.09375 L 41.042969 63.171875 L 41.132812 63.253906 L 41.21875 63.335938 L 41.300781 63.425781 L 41.375 63.515625 L 41.441406 63.609375 L 41.503906 63.703125 L 41.5625 63.800781 L 41.613281 63.902344 L 41.660156 64.007812 L 41.703125 64.113281 L 41.738281 64.21875 L 41.769531 64.328125 L 41.800781 64.441406 L 41.824219 64.550781 L 41.84375 64.664062 L 41.859375 64.78125 L 41.867188 64.894531 L 41.875 65.011719 L 41.878906 65.132812 L 41.875 65.25 L 41.867188 65.371094 L 41.859375 65.488281 L 41.84375 65.601562 L 41.824219 65.714844 L 41.800781 65.828125 L 41.738281 66.046875 L 41.703125 66.152344 L 41.660156 66.257812 L 41.613281 66.359375 L 41.5625 66.460938 L 41.503906 66.558594 L 41.441406 66.652344 L 41.375 66.746094 L 41.300781 66.835938 L 41.21875 66.921875 L 41.132812 67.003906 L 41.042969 67.085938 L 40.945312 67.164062 L 40.84375 67.238281 L 40.734375 67.3125 L 40.617188 67.378906 L 40.496094 67.445312 L 40.371094 67.507812 L 40.234375 67.566406 L 40.097656 67.621094 L 39.949219 67.671875 L 39.796875 67.722656 L 39.640625 67.769531 L 39.472656 67.808594 L 39.296875 67.847656 L 39.117188 67.878906 L 38.925781 67.90625 L 38.730469 67.929688 L 38.523438 67.949219 L 38.3125 67.964844 L 38.09375 67.976562 L 37.863281 67.984375 L 37.382812 67.984375 L 37.148438 67.976562 L 36.917969 67.964844 L 36.699219 67.949219 L 36.488281 67.929688 L 36.289062 67.90625 L 36.09375 67.878906 L 35.910156 67.847656 L 35.734375 67.808594 L 35.566406 67.769531 L 35.40625 67.722656 L 35.25 67.671875 L 35.105469 67.621094 L 34.964844 67.5625 L 34.828125 67.503906 L 34.703125 67.441406 L 34.582031 67.375 L 34.46875 67.308594 L 34.359375 67.234375 L 34.261719 67.160156 L 34.164062 67.082031 L 34.078125 67 L 33.996094 66.914062 L 33.917969 66.828125 L 33.847656 66.738281 L 33.78125 66.644531 L 33.722656 66.550781 L 33.667969 66.449219 L 33.621094 66.347656 L 33.582031 66.246094 L 33.542969 66.140625 L 33.507812 66.03125 L 33.480469 65.921875 L 33.453125 65.808594 L 33.429688 65.695312 L 33.398438 65.460938 L 33.382812 65.21875 L 33.382812 64.980469 L 33.390625 64.863281 L 33.398438 64.75 L 33.429688 64.523438 L 33.453125 64.414062 L 33.480469 64.304688 L 33.507812 64.199219 L 33.542969 64.09375 L 33.582031 63.988281 L 33.621094 63.886719 L 33.667969 63.785156 L 33.722656 63.6875 L 33.78125 63.59375 L 33.847656 63.5 L 33.917969 63.410156 L 33.996094 63.324219 L 34.078125 63.242188 L 34.164062 63.160156 L 34.359375 63.003906 L 34.46875 62.933594 L 34.582031 62.863281 L 34.703125 62.796875 L 34.828125 62.734375 L 34.964844 62.675781 L 35.105469 62.621094 L 35.25 62.566406 L 35.40625 62.519531 L 35.566406 62.472656 L 35.734375 62.429688 L 35.910156 62.390625 L 36.09375 62.359375 L 36.289062 62.328125 L 36.488281 62.304688 L 36.699219 62.285156 L 36.917969 62.269531 L 37.148438 62.257812 L 37.382812 62.25 Z M 37.628906 63.320312 L 37.4375 63.324219 L 37.25 63.324219 L 37.070312 63.332031 L 36.894531 63.339844 L 36.726562 63.351562 L 36.566406 63.363281 L 36.414062 63.378906 L 36.269531 63.394531 L 36.128906 63.417969 L 35.996094 63.4375 L 35.867188 63.464844 L 35.742188 63.488281 L 35.625 63.519531 L 35.511719 63.550781 L 35.40625 63.582031 L 35.304688 63.621094 L 35.207031 63.65625 L 35.117188 63.695312 L 35.03125 63.738281 L 34.875 63.832031 L 34.804688 63.878906 L 34.738281 63.929688 L 34.675781 63.984375 L 34.617188 64.039062 L 34.515625 64.15625 L 34.472656 64.21875 L 34.433594 64.28125 L 34.339844 64.480469 L 34.316406 64.550781 L 34.277344 64.699219 L 34.261719 64.773438 L 34.25 64.851562 L 34.242188 64.933594 L 34.238281 65.011719 L 34.238281 65.183594 L 34.242188 65.269531 L 34.25 65.355469 L 34.261719 65.4375 L 34.277344 65.515625 L 34.296875 65.59375 L 34.316406 65.667969 L 34.339844 65.742188 L 34.402344 65.882812 L 34.4375 65.949219 L 34.476562 66.011719 L 34.519531 66.078125 L 34.621094 66.195312 L 34.679688 66.25 L 34.742188 66.304688 L 34.808594 66.359375 L 34.882812 66.40625 L 34.957031 66.457031 L 35.121094 66.542969 L 35.308594 66.621094 L 35.410156 66.65625 L 35.519531 66.691406 L 35.628906 66.722656 L 35.871094 66.777344 L 36 66.800781 L 36.132812 66.824219 L 36.273438 66.84375 L 36.421875 66.863281 L 36.574219 66.875 L 36.734375 66.890625 L 36.898438 66.898438 L 37.070312 66.910156 L 37.25 66.914062 L 37.4375 66.917969 L 37.816406 66.917969 L 37.996094 66.914062 L 38.171875 66.910156 L 38.339844 66.898438 L 38.503906 66.890625 L 38.660156 66.875 L 38.8125 66.863281 L 38.957031 66.84375 L 39.09375 66.824219 L 39.230469 66.800781 L 39.355469 66.777344 L 39.480469 66.75 L 39.597656 66.71875 L 39.707031 66.6875 L 39.816406 66.652344 L 39.917969 66.617188 L 40.015625 66.578125 L 40.109375 66.539062 L 40.195312 66.496094 L 40.277344 66.449219 L 40.355469 66.402344 L 40.425781 66.351562 L 40.492188 66.300781 L 40.558594 66.246094 L 40.617188 66.191406 L 40.671875 66.132812 L 40.722656 66.074219 L 40.808594 65.949219 L 40.847656 65.882812 L 40.878906 65.8125 L 40.90625 65.746094 L 40.933594 65.671875 L 40.953125 65.601562 L 40.972656 65.523438 L 40.988281 65.449219 L 41 65.367188 L 41.007812 65.289062 L 41.015625 65.203125 L 41.015625 65.039062 L 41.007812 64.957031 L 41 64.878906 L 40.988281 64.800781 L 40.972656 64.722656 L 40.953125 64.652344 L 40.933594 64.578125 L 40.878906 64.4375 L 40.847656 64.371094 L 40.808594 64.304688 L 40.722656 64.179688 L 40.671875 64.121094 L 40.617188 64.0625 L 40.558594 64.007812 L 40.492188 63.953125 L 40.425781 63.902344 L 40.355469 63.855469 L 40.277344 63.808594 L 40.195312 63.761719 L 40.109375 63.71875 L 40.015625 63.675781 L 39.917969 63.636719 L 39.816406 63.601562 L 39.707031 63.566406 L 39.597656 63.535156 L 39.480469 63.503906 L 39.230469 63.449219 L 38.957031 63.402344 L 38.8125 63.382812 L 38.660156 63.367188 L 38.503906 63.351562 L 38.339844 63.34375 L 38.171875 63.332031 L 37.996094 63.328125 L 37.816406 63.324219 Z M 37.628906 63.320312 "/>
</svg>
