<?xml version="1.0" encoding="UTF-8"?>
<svg xmlns="http://www.w3.org/2000/svg" xmlns:xlink="http://www.w3.org/1999/xlink" width="504" height="360" viewBox="0 0 504 360">
<defs>
<clipPath id="clip-0">
<path clip-rule="nonzero" d="M 5.480469 353 L 470.957031 353 L 470.957031 354.523438 L 5.480469 354.523438 Z M 5.480469 353 "/>
</clipPath>
<clipPath id="clip-1">
<path clip-rule="nonzero" d="M 5.480469 246 L 470.957031 246 L 470.957031 248 L 5.480469 248 Z M 5.480469 246 "/>
</clipPath>
<clipPath id="clip-2">
<path clip-rule="nonzero" d="M 5.480469 139 L 470.957031 139 L 470.957031 141 L 5.480469 141 Z M 5.480469 139 "/>
</clipPath>
<clipPath id="clip-3">
<path clip-rule="nonzero" d="M 5.480469 32 L 470.957031 32 L 470.957031 34 L 5.480469 34 Z M 5.480469 32 "/>
</clipPath>
<clipPath id="clip-4">
<path clip-rule="nonzero" d="M 108 102 L 189 102 L 189 354.523438 L 108 354.523438 Z M 108 102 "/>
</clipPath>
<clipPath id="clip-5">
<path clip-rule="nonzero" d="M 197 134 L 279 134 L 279 354.523438 L 197 354.523438 Z M 197 134 "/>
</clipPath>
<clipPath id="clip-6">
<path clip-rule="nonzero" d="M 18 166 L 100 166 L 100 354.523438 L 18 354.523438 Z M 18 166 "/>
</clipPath>
<clipPath id="clip-7">
<path clip-rule="nonzero" d="M 376 22 L 458 22 L 458 354.523438 L 376 354.523438 Z M 376 22 "/>
</clipPath>
<clipPath id="clip-8">
<path clip-rule="nonzero" d="M 287 91 L 369 91 L 369 354.523438 L 287 354.523438 Z M 287 91 "/>
</clipPath>
</defs>
<rect x="-50.4" y="-36" width="604.8" height="432" fill="rgb(100%, 100%, 100%)" fill-opacity="1"/>
<g clip-path="url(#clip-0)">
<path fill="none" stroke-width="1.066978" stroke-linecap="butt" stroke-linejoin="round" stroke="rgb(38.431373%, 59.215686%, 90.588235%)" stroke-opacity="0.439216" stroke-miterlimit="10" d="M 5.480469 354.519531 L 470.957031 354.519531 "/>
</g>
<g clip-path="url(#clip-1)">
<path fill="none" stroke-width="1.066978" stroke-linecap="butt" stroke-linejoin="round" stroke="rgb(38.431373%, 59.215686%, 90.588235%)" stroke-opacity="0.439216" stroke-miterlimit="10" d="M 5.480469 247.289062 L 470.957031 247.289062 "/>
</g>
<g clip-path="url(#clip-2)">
<path fill="none" stroke-width="1.066978" stroke-linecap="butt" stroke-linejoin="round" stroke="rgb(38.431373%, 59.215686%, 90.588235%)" stroke-opacity="0.439216" stroke-miterlimit="10" d="M 5.480469 140.054688 L 470.957031 140.054688 "/>
</g>
<g clip-path="url(#clip-3)">
<path fill="none" stroke-width="1.066978" stroke-linecap="butt" stroke-linejoin="round" stroke="rgb(38.431373%, 59.215686%, 90.588235%)" stroke-opacity="0.439216" stroke-miterlimit="10" d="M 5.480469 32.824219 L 470.957031 32.824219 "/>
</g>
<g clip-path="url(#clip-4)">
<path fill-rule="nonzero" fill="rgb(38.431373%, 59.215686%, 90.588235%)" fill-opacity="0.439216" d="M 108.421875 354.519531 L 188.984375 354.519531 L 188.984375 102.523438 L 108.421875 102.523438 Z M 108.421875 354.519531 "/>
</g>
<g clip-path="url(#clip-5)">
<path fill-rule="nonzero" fill="rgb(38.431373%, 59.215686%, 90.588235%)" fill-opacity="0.439216" d="M 197.9375 354.519531 L 278.5 354.519531 L 278.5 134.691406 L 197.9375 134.691406 Z M 197.9375 354.519531 "/>
</g>
<g clip-path="url(#clip-6)">
<path fill-rule="nonzero" fill="rgb(38.431373%, 59.215686%, 90.588235%)" fill-opacity="0.439216" d="M 18.90625 354.519531 L 99.46875 354.519531 L 99.46875 166.863281 L 18.90625 166.863281 Z M 18.90625 354.519531 "/>
</g>
<g clip-path="url(#clip-7)">
<path fill-rule="nonzero" fill="rgb(38.431373%, 59.215686%, 90.588235%)" fill-opacity="0.439216" d="M 376.964844 354.519531 L 457.527344 354.519531 L 457.527344 22.097656 L 376.964844 22.097656 Z M 376.964844 354.519531 "/>
</g>
<g clip-path="url(#clip-8)">
<path fill-rule="nonzero" fill="rgb(38.431373%, 59.215686%, 90.588235%)" fill-opacity="0.439216" d="M 287.449219 354.519531 L 368.011719 354.519531 L 368.011719 91.800781 L 287.449219 91.800781 Z M 287.449219 354.519531 "/>
</g>
<path fill-rule="nonzero" fill="rgb(38.431373%, 59.215686%, 90.588235%)" fill-opacity="1" d="M 479.382812 354.519531 L 479.378906 354.734375 L 479.375 354.941406 L 479.363281 355.140625 L 479.347656 355.335938 L 479.332031 355.523438 L 479.308594 355.703125 L 479.28125 355.875 L 479.25 356.042969 L 479.214844 356.203125 L 479.171875 356.355469 L 479.132812 356.5 L 479.085938 356.640625 L 479.035156 356.773438 L 478.984375 356.902344 L 478.929688 357.027344 L 478.871094 357.144531 L 478.8125 357.253906 L 478.746094 357.363281 L 478.679688 357.460938 L 478.609375 357.558594 L 478.539062 357.648438 L 478.460938 357.730469 L 478.386719 357.808594 L 478.304688 357.882812 L 478.222656 357.949219 L 478.136719 358.011719 L 478.050781 358.070312 L 477.960938 358.125 L 477.867188 358.171875 L 477.773438 358.214844 L 477.675781 358.25 L 477.574219 358.285156 L 477.476562 358.316406 L 477.273438 358.363281 L 477.0625 358.394531 L 476.957031 358.402344 L 476.847656 358.410156 L 476.628906 358.410156 L 476.523438 358.402344 L 476.414062 358.394531 L 476.308594 358.378906 L 476.207031 358.363281 L 476.101562 358.339844 L 476.003906 358.316406 L 475.902344 358.285156 L 475.804688 358.25 L 475.710938 358.214844 L 475.613281 358.171875 L 475.523438 358.125 L 475.433594 358.070312 L 475.347656 358.011719 L 475.261719 357.949219 L 475.179688 357.882812 L 475.101562 357.808594 L 475.023438 357.730469 L 474.949219 357.648438 L 474.875 357.558594 L 474.808594 357.464844 L 474.742188 357.363281 L 474.679688 357.257812 L 474.621094 357.148438 L 474.5625 357.03125 L 474.511719 356.90625 L 474.457031 356.777344 L 474.410156 356.644531 L 474.367188 356.503906 L 474.324219 356.359375 L 474.285156 356.207031 L 474.25 356.046875 L 474.222656 355.878906 L 474.195312 355.707031 L 474.175781 355.527344 L 474.15625 355.339844 L 474.140625 355.144531 L 474.132812 354.941406 L 474.125 354.734375 L 474.125 354.292969 L 474.132812 354.074219 L 474.140625 353.867188 L 474.15625 353.667969 L 474.175781 353.472656 L 474.195312 353.289062 L 474.222656 353.109375 L 474.25 352.941406 L 474.285156 352.78125 L 474.324219 352.628906 L 474.367188 352.480469 L 474.410156 352.339844 L 474.460938 352.203125 L 474.511719 352.074219 L 474.566406 351.953125 L 474.621094 351.835938 L 474.683594 351.722656 L 474.746094 351.621094 L 474.8125 351.523438 L 474.882812 351.429688 L 474.953125 351.34375 L 475.027344 351.261719 L 475.105469 351.1875 L 475.1875 351.117188 L 475.269531 351.050781 L 475.355469 350.992188 L 475.441406 350.9375 L 475.53125 350.886719 L 475.625 350.84375 L 475.71875 350.804688 L 475.816406 350.773438 L 475.917969 350.742188 L 476.015625 350.714844 L 476.226562 350.667969 L 476.332031 350.652344 L 476.4375 350.640625 L 476.546875 350.632812 L 476.660156 350.625 L 476.878906 350.625 L 476.988281 350.632812 L 477.089844 350.640625 L 477.195312 350.652344 L 477.296875 350.667969 L 477.398438 350.691406 L 477.496094 350.714844 L 477.597656 350.742188 L 477.691406 350.773438 L 477.789062 350.804688 L 477.882812 350.84375 L 477.972656 350.886719 L 478.0625 350.9375 L 478.148438 350.992188 L 478.234375 351.050781 L 478.316406 351.117188 L 478.394531 351.1875 L 478.472656 351.261719 L 478.546875 351.34375 L 478.621094 351.429688 L 478.691406 351.523438 L 478.757812 351.621094 L 478.820312 351.722656 L 478.878906 351.835938 L 478.9375 351.953125 L 478.992188 352.074219 L 479.042969 352.203125 L 479.089844 352.339844 L 479.136719 352.480469 L 479.179688 352.628906 L 479.21875 352.78125 L 479.253906 352.941406 L 479.28125 353.109375 L 479.308594 353.289062 L 479.332031 353.472656 L 479.351562 353.667969 L 479.363281 353.867188 L 479.375 354.074219 L 479.378906 354.292969 Z M 478.398438 354.519531 L 478.398438 354.339844 L 478.394531 354.167969 L 478.390625 354.003906 L 478.382812 353.84375 L 478.375 353.691406 L 478.359375 353.546875 L 478.347656 353.40625 L 478.332031 353.269531 L 478.3125 353.140625 L 478.292969 353.019531 L 478.269531 352.902344 L 478.246094 352.789062 L 478.21875 352.679688 L 478.191406 352.578125 L 478.160156 352.480469 L 478.125 352.386719 L 478.09375 352.296875 L 478.054688 352.214844 L 478.015625 352.136719 L 477.976562 352.0625 L 477.933594 351.992188 L 477.839844 351.867188 L 477.792969 351.808594 L 477.691406 351.707031 L 477.636719 351.664062 L 477.578125 351.625 L 477.519531 351.589844 L 477.460938 351.558594 L 477.335938 351.503906 L 477.273438 351.480469 L 477.207031 351.460938 L 477.136719 351.445312 L 476.996094 351.421875 L 476.921875 351.414062 L 476.773438 351.40625 L 476.691406 351.410156 L 476.613281 351.414062 L 476.535156 351.421875 L 476.386719 351.445312 L 476.316406 351.460938 L 476.25 351.480469 L 476.179688 351.503906 L 476.054688 351.558594 L 475.992188 351.589844 L 475.933594 351.625 L 475.875 351.667969 L 475.820312 351.710938 L 475.765625 351.761719 L 475.714844 351.8125 L 475.664062 351.871094 L 475.617188 351.933594 L 475.570312 352 L 475.484375 352.140625 L 475.445312 352.21875 L 475.375 352.390625 L 475.34375 352.484375 L 475.3125 352.582031 L 475.28125 352.6875 L 475.257812 352.792969 L 475.230469 352.90625 L 475.210938 353.023438 L 475.1875 353.148438 L 475.171875 353.273438 L 475.15625 353.410156 L 475.140625 353.550781 L 475.128906 353.695312 L 475.121094 353.847656 L 475.113281 354.007812 L 475.105469 354.171875 L 475.101562 354.339844 L 475.101562 354.6875 L 475.105469 354.855469 L 475.113281 355.015625 L 475.121094 355.171875 L 475.128906 355.320312 L 475.140625 355.464844 L 475.15625 355.601562 L 475.171875 355.734375 L 475.1875 355.863281 L 475.210938 355.984375 L 475.234375 356.101562 L 475.257812 356.214844 L 475.285156 356.320312 L 475.316406 356.425781 L 475.347656 356.523438 L 475.378906 356.617188 L 475.414062 356.707031 L 475.492188 356.871094 L 475.53125 356.945312 L 475.574219 357.015625 L 475.621094 357.082031 L 475.667969 357.144531 L 475.71875 357.203125 L 475.769531 357.253906 L 475.824219 357.304688 L 475.878906 357.351562 L 475.933594 357.394531 L 475.992188 357.433594 L 476.054688 357.464844 L 476.113281 357.496094 L 476.179688 357.523438 L 476.246094 357.546875 L 476.3125 357.566406 L 476.378906 357.582031 L 476.449219 357.597656 L 476.523438 357.609375 L 476.597656 357.617188 L 476.671875 357.621094 L 476.828125 357.621094 L 476.902344 357.617188 L 476.972656 357.609375 L 477.042969 357.597656 L 477.113281 357.582031 L 477.179688 357.566406 L 477.25 357.546875 L 477.3125 357.523438 L 477.375 357.496094 L 477.5 357.433594 L 477.558594 357.394531 L 477.613281 357.351562 L 477.667969 357.304688 L 477.769531 357.203125 L 477.820312 357.144531 L 477.867188 357.082031 L 477.910156 357.015625 L 477.953125 356.945312 L 477.996094 356.871094 L 478.074219 356.707031 L 478.109375 356.617188 L 478.144531 356.523438 L 478.175781 356.425781 L 478.203125 356.320312 L 478.234375 356.214844 L 478.257812 356.101562 L 478.28125 355.984375 L 478.304688 355.863281 L 478.324219 355.734375 L 478.34375 355.601562 L 478.359375 355.464844 L 478.371094 355.320312 L 478.382812 355.171875 L 478.390625 355.015625 L 478.394531 354.855469 L 478.398438 354.6875 Z M 478.398438 354.519531 "/>
<path fill-rule="nonzero" fill="rgb(38.431373%, 59.215686%, 90.588235%)" fill-opacity="1" d="M 474.25 251.070312 L 474.25 250.390625 L 474.304688 250.265625 L 474.363281 250.144531 L 474.421875 250.027344 L 474.484375 249.910156 L 474.550781 249.800781 L 474.691406 249.582031 L 474.761719 249.480469 L 474.835938 249.378906 L 474.914062 249.285156 L 474.992188 249.1875 L 475.074219 249.09375 L 475.320312 248.824219 L 475.40625 248.738281 L 475.488281 248.652344 L 475.574219 248.570312 L 475.832031 248.335938 L 475.921875 248.257812 L 476.179688 248.035156 L 476.4375 247.824219 L 476.519531 247.753906 L 476.691406 247.621094 L 476.9375 247.421875 L 477.015625 247.355469 L 477.238281 247.15625 L 477.378906 247.023438 L 477.445312 246.957031 L 477.511719 246.886719 L 477.574219 246.820312 L 477.691406 246.679688 L 477.84375 246.46875 L 477.890625 246.398438 L 477.933594 246.324219 L 478.011719 246.175781 L 478.042969 246.097656 L 478.070312 246.015625 L 478.09375 245.933594 L 478.113281 245.851562 L 478.128906 245.765625 L 478.140625 245.679688 L 478.144531 245.589844 L 478.148438 245.496094 L 478.148438 245.433594 L 478.144531 245.371094 L 478.140625 245.3125 L 478.125 245.195312 L 478.101562 245.085938 L 478.085938 245.03125 L 478.070312 244.980469 L 478.050781 244.933594 L 478.03125 244.882812 L 478.007812 244.835938 L 477.960938 244.75 L 477.933594 244.707031 L 477.902344 244.664062 L 477.875 244.625 L 477.839844 244.589844 L 477.808594 244.554688 L 477.773438 244.519531 L 477.65625 244.425781 L 477.613281 244.398438 L 477.570312 244.375 L 477.523438 244.351562 L 477.480469 244.328125 L 477.429688 244.308594 L 477.382812 244.289062 L 477.28125 244.257812 L 477.226562 244.242188 L 477.175781 244.230469 L 477.121094 244.21875 L 477.0625 244.207031 L 477.007812 244.199219 L 476.890625 244.191406 L 476.828125 244.1875 L 476.710938 244.1875 L 476.652344 244.191406 L 476.597656 244.195312 L 476.539062 244.199219 L 476.429688 244.214844 L 476.375 244.226562 L 476.324219 244.238281 L 476.269531 244.25 L 476.21875 244.265625 L 476.167969 244.285156 L 476.121094 244.300781 L 476.074219 244.324219 L 476.027344 244.34375 L 475.980469 244.367188 L 475.9375 244.394531 L 475.890625 244.417969 L 475.851562 244.449219 L 475.808594 244.476562 L 475.769531 244.507812 L 475.691406 244.578125 L 475.65625 244.613281 L 475.585938 244.691406 L 475.554688 244.730469 L 475.523438 244.773438 L 475.496094 244.816406 L 475.441406 244.910156 L 475.417969 244.960938 L 475.394531 245.007812 L 475.375 245.0625 L 475.355469 245.113281 L 475.324219 245.222656 L 475.308594 245.28125 L 475.296875 245.339844 L 475.28125 245.464844 L 474.292969 245.375 L 474.300781 245.292969 L 474.316406 245.210938 L 474.332031 245.132812 L 474.371094 244.976562 L 474.394531 244.902344 L 474.421875 244.824219 L 474.449219 244.75 L 474.484375 244.679688 L 474.515625 244.605469 L 474.59375 244.464844 L 474.679688 244.332031 L 474.726562 244.269531 L 474.777344 244.207031 L 474.832031 244.144531 L 474.945312 244.03125 L 475.003906 243.976562 L 475.070312 243.921875 L 475.136719 243.871094 L 475.203125 243.824219 L 475.273438 243.777344 L 475.421875 243.691406 L 475.503906 243.652344 L 475.582031 243.613281 L 475.667969 243.578125 L 475.753906 243.546875 L 475.839844 243.519531 L 475.933594 243.492188 L 476.027344 243.46875 L 476.125 243.449219 L 476.226562 243.429688 L 476.328125 243.417969 L 476.433594 243.40625 L 476.542969 243.398438 L 476.652344 243.394531 L 476.765625 243.390625 L 476.878906 243.394531 L 476.988281 243.398438 L 477.09375 243.402344 L 477.199219 243.414062 L 477.300781 243.425781 L 477.496094 243.457031 L 477.589844 243.476562 L 477.683594 243.5 L 477.773438 243.527344 L 477.859375 243.554688 L 478.023438 243.617188 L 478.101562 243.652344 L 478.175781 243.691406 L 478.25 243.734375 L 478.320312 243.777344 L 478.453125 243.871094 L 478.511719 243.921875 L 478.574219 243.976562 L 478.683594 244.09375 L 478.734375 244.152344 L 478.828125 244.285156 L 478.871094 244.351562 L 478.910156 244.421875 L 478.945312 244.496094 L 478.980469 244.574219 L 479.011719 244.652344 L 479.039062 244.734375 L 479.0625 244.816406 L 479.101562 244.988281 L 479.117188 245.078125 L 479.132812 245.265625 L 479.140625 245.363281 L 479.140625 245.539062 L 479.136719 245.617188 L 479.128906 245.691406 L 479.117188 245.765625 L 479.105469 245.835938 L 479.089844 245.910156 L 479.074219 245.980469 L 479.027344 246.121094 L 479 246.191406 L 478.945312 246.324219 L 478.914062 246.394531 L 478.84375 246.527344 L 478.804688 246.589844 L 478.765625 246.65625 L 478.726562 246.71875 L 478.679688 246.78125 L 478.636719 246.84375 L 478.496094 247.03125 L 478.445312 247.089844 L 478.390625 247.152344 L 478.339844 247.210938 L 478.285156 247.269531 L 478.050781 247.503906 L 477.925781 247.621094 L 477.863281 247.675781 L 477.800781 247.734375 L 477.738281 247.789062 L 477.675781 247.847656 L 477.613281 247.902344 L 477.546875 247.960938 L 477.414062 248.070312 L 477.351562 248.125 L 476.6875 248.671875 L 476.625 248.726562 L 476.558594 248.78125 L 476.496094 248.832031 L 476.433594 248.886719 L 476.375 248.941406 L 476.25 249.050781 L 476.191406 249.105469 L 476.136719 249.160156 L 476.078125 249.214844 L 476.023438 249.273438 L 475.96875 249.328125 L 475.867188 249.4375 L 475.816406 249.496094 L 475.765625 249.550781 L 475.71875 249.609375 L 475.671875 249.664062 L 475.625 249.722656 L 475.582031 249.777344 L 475.503906 249.894531 L 475.464844 249.949219 L 475.429688 250.011719 L 475.367188 250.128906 L 475.339844 250.191406 L 475.3125 250.25 L 479.257812 250.25 L 479.257812 251.070312 Z M 474.25 251.070312 "/>
<path fill-rule="nonzero" fill="rgb(38.431373%, 59.215686%, 90.588235%)" fill-opacity="1" d="M 485.5 247.285156 L 485.5 247.5 L 485.492188 247.707031 L 485.480469 247.910156 L 485.46875 248.101562 L 485.449219 248.289062 L 485.425781 248.46875 L 485.398438 248.644531 L 485.367188 248.808594 L 485.332031 248.96875 L 485.292969 249.121094 L 485.25 249.269531 L 485.15625 249.542969 L 485.101562 249.671875 L 485.046875 249.792969 L 484.988281 249.910156 L 484.929688 250.023438 L 484.863281 250.128906 L 484.796875 250.230469 L 484.726562 250.324219 L 484.65625 250.414062 L 484.582031 250.496094 L 484.503906 250.578125 L 484.339844 250.71875 L 484.253906 250.78125 L 484.167969 250.839844 L 484.078125 250.890625 L 483.984375 250.9375 L 483.890625 250.980469 L 483.792969 251.019531 L 483.691406 251.050781 L 483.59375 251.082031 L 483.492188 251.109375 L 483.390625 251.128906 L 483.285156 251.148438 L 483.074219 251.171875 L 482.96875 251.175781 L 482.859375 251.179688 L 482.640625 251.171875 L 482.53125 251.160156 L 482.425781 251.148438 L 482.222656 251.109375 L 482.121094 251.082031 L 482.019531 251.050781 L 481.921875 251.019531 L 481.828125 250.980469 L 481.730469 250.9375 L 481.640625 250.890625 L 481.550781 250.839844 L 481.464844 250.78125 L 481.378906 250.71875 L 481.296875 250.648438 L 481.21875 250.578125 L 481.140625 250.496094 L 481.066406 250.414062 L 480.996094 250.324219 L 480.925781 250.230469 L 480.859375 250.132812 L 480.796875 250.027344 L 480.738281 249.914062 L 480.679688 249.796875 L 480.628906 249.675781 L 480.578125 249.546875 L 480.527344 249.414062 L 480.484375 249.273438 L 480.441406 249.128906 L 480.402344 248.976562 L 480.371094 248.816406 L 480.339844 248.648438 L 480.3125 248.476562 L 480.292969 248.292969 L 480.273438 248.105469 L 480.261719 247.910156 L 480.25 247.710938 L 480.246094 247.5 L 480.242188 247.285156 L 480.246094 247.0625 L 480.25 246.84375 L 480.261719 246.636719 L 480.273438 246.433594 L 480.292969 246.242188 L 480.3125 246.054688 L 480.339844 245.878906 L 480.371094 245.710938 L 480.402344 245.546875 L 480.441406 245.394531 L 480.484375 245.246094 L 480.527344 245.105469 L 480.578125 244.972656 L 480.628906 244.84375 L 480.683594 244.71875 L 480.738281 244.601562 L 480.800781 244.492188 L 480.863281 244.386719 L 480.929688 244.289062 L 481 244.195312 L 481.070312 244.109375 L 481.148438 244.03125 L 481.222656 243.953125 L 481.304688 243.882812 L 481.386719 243.820312 L 481.472656 243.757812 L 481.558594 243.703125 L 481.648438 243.65625 L 481.742188 243.613281 L 481.835938 243.574219 L 481.933594 243.539062 L 482.035156 243.507812 L 482.136719 243.480469 L 482.238281 243.457031 L 482.34375 243.4375 L 482.554688 243.40625 L 482.664062 243.398438 L 482.890625 243.390625 L 482.996094 243.394531 L 483.105469 243.398438 L 483.210938 243.40625 L 483.414062 243.4375 L 483.515625 243.457031 L 483.617188 243.480469 L 483.714844 243.507812 L 483.808594 243.539062 L 483.90625 243.574219 L 484 243.613281 L 484.089844 243.65625 L 484.179688 243.703125 L 484.269531 243.757812 L 484.433594 243.882812 L 484.515625 243.953125 L 484.664062 244.109375 L 484.738281 244.195312 L 484.808594 244.289062 L 484.875 244.386719 L 484.9375 244.492188 L 484.996094 244.601562 L 485.054688 244.71875 L 485.109375 244.84375 L 485.160156 244.972656 L 485.207031 245.105469 L 485.253906 245.246094 L 485.296875 245.394531 L 485.335938 245.546875 L 485.371094 245.710938 L 485.402344 245.878906 L 485.425781 246.054688 L 485.449219 246.242188 L 485.46875 246.433594 L 485.480469 246.636719 L 485.492188 246.84375 L 485.5 247.0625 Z M 484.519531 247.285156 L 484.515625 247.109375 L 484.511719 246.9375 L 484.507812 246.773438 L 484.5 246.613281 L 484.492188 246.460938 L 484.480469 246.3125 L 484.464844 246.171875 L 484.449219 246.039062 L 484.429688 245.910156 L 484.410156 245.785156 L 484.386719 245.667969 L 484.363281 245.554688 L 484.308594 245.34375 L 484.277344 245.246094 L 484.246094 245.152344 L 484.210938 245.066406 L 484.171875 244.984375 L 484.132812 244.90625 L 484.09375 244.832031 L 484.050781 244.761719 L 484.003906 244.695312 L 483.957031 244.632812 L 483.910156 244.578125 L 483.859375 244.523438 L 483.808594 244.476562 L 483.753906 244.433594 L 483.636719 244.355469 L 483.578125 244.324219 L 483.515625 244.296875 L 483.390625 244.25 L 483.324219 244.230469 L 483.253906 244.214844 L 483.1875 244.199219 L 483.113281 244.1875 L 483.042969 244.183594 L 482.964844 244.175781 L 482.808594 244.175781 L 482.730469 244.183594 L 482.652344 244.1875 L 482.578125 244.199219 L 482.507812 244.214844 L 482.433594 244.230469 L 482.367188 244.25 L 482.234375 244.296875 L 482.171875 244.324219 L 482.109375 244.359375 L 482.050781 244.394531 L 481.992188 244.433594 L 481.882812 244.527344 L 481.832031 244.582031 L 481.78125 244.640625 L 481.734375 244.699219 L 481.6875 244.765625 L 481.644531 244.835938 L 481.601562 244.910156 L 481.5625 244.988281 L 481.527344 245.070312 L 481.492188 245.160156 L 481.460938 245.253906 L 481.429688 245.351562 L 481.402344 245.453125 L 481.375 245.5625 L 481.351562 245.675781 L 481.328125 245.792969 L 481.308594 245.914062 L 481.289062 246.042969 L 481.273438 246.175781 L 481.257812 246.316406 L 481.246094 246.464844 L 481.238281 246.617188 L 481.230469 246.773438 L 481.222656 246.9375 L 481.222656 247.109375 L 481.21875 247.285156 L 481.222656 247.457031 L 481.222656 247.621094 L 481.230469 247.78125 L 481.238281 247.9375 L 481.246094 248.085938 L 481.257812 248.230469 L 481.273438 248.371094 L 481.289062 248.503906 L 481.308594 248.628906 L 481.328125 248.75 L 481.351562 248.867188 L 481.375 248.980469 L 481.402344 249.089844 L 481.433594 249.191406 L 481.464844 249.289062 L 481.496094 249.382812 L 481.53125 249.472656 L 481.570312 249.558594 L 481.648438 249.714844 L 481.691406 249.785156 L 481.785156 249.910156 L 481.835938 249.96875 L 481.886719 250.023438 L 481.941406 250.074219 L 481.996094 250.121094 L 482.050781 250.160156 L 482.109375 250.199219 L 482.171875 250.234375 L 482.234375 250.265625 L 482.296875 250.289062 L 482.429688 250.335938 L 482.5 250.351562 L 482.640625 250.375 L 482.714844 250.382812 L 482.792969 250.386719 L 482.867188 250.390625 L 482.945312 250.386719 L 483.019531 250.382812 L 483.089844 250.375 L 483.230469 250.351562 L 483.300781 250.335938 L 483.367188 250.3125 L 483.429688 250.289062 L 483.496094 250.265625 L 483.554688 250.234375 L 483.617188 250.199219 L 483.675781 250.160156 L 483.730469 250.121094 L 483.785156 250.074219 L 483.839844 250.023438 L 483.890625 249.96875 L 483.9375 249.910156 L 483.984375 249.847656 L 484.027344 249.785156 L 484.070312 249.714844 L 484.113281 249.636719 L 484.152344 249.558594 L 484.191406 249.472656 L 484.226562 249.382812 L 484.261719 249.289062 L 484.292969 249.191406 L 484.324219 249.089844 L 484.351562 248.980469 L 484.375 248.867188 L 484.398438 248.75 L 484.421875 248.628906 L 484.441406 248.503906 L 484.460938 248.371094 L 484.476562 248.230469 L 484.488281 248.085938 L 484.5 247.9375 L 484.507812 247.78125 L 484.511719 247.621094 L 484.515625 247.457031 Z M 484.519531 247.285156 "/>
<path fill-rule="nonzero" fill="rgb(38.431373%, 59.215686%, 90.588235%)" fill-opacity="1" d="M 478.425781 142.125 L 478.425781 143.839844 L 477.515625 143.839844 L 477.515625 142.125 L 473.949219 142.125 L 473.949219 141.375 L 477.410156 136.273438 L 478.425781 136.273438 L 478.425781 141.363281 L 479.492188 141.363281 L 479.492188 142.125 Z M 477.515625 137.363281 L 477.511719 137.367188 L 477.5 137.390625 L 477.496094 137.402344 L 477.488281 137.414062 L 477.484375 137.425781 L 477.476562 137.441406 L 477.46875 137.453125 L 477.453125 137.484375 L 477.441406 137.5 L 477.433594 137.515625 L 477.425781 137.535156 L 477.414062 137.550781 L 477.40625 137.566406 L 477.382812 137.605469 L 477.375 137.621094 L 477.339844 137.679688 L 477.332031 137.699219 L 477.296875 137.757812 L 477.285156 137.78125 L 477.238281 137.859375 L 477.230469 137.878906 L 477.21875 137.894531 L 477.210938 137.914062 L 477.199219 137.929688 L 477.191406 137.945312 L 477.179688 137.960938 L 477.171875 137.972656 L 477.164062 137.988281 L 477.152344 138 L 475.214844 140.859375 L 475.210938 140.867188 L 475.203125 140.878906 L 475.195312 140.886719 L 475.15625 140.945312 L 475.144531 140.957031 L 475.132812 140.972656 L 475.125 140.984375 L 475.113281 141 L 475.105469 141.015625 L 475.09375 141.027344 L 475.085938 141.042969 L 475.074219 141.058594 L 475.0625 141.070312 L 475.054688 141.085938 L 475.03125 141.117188 L 475.023438 141.128906 L 475 141.160156 L 474.988281 141.171875 L 474.980469 141.1875 L 474.96875 141.199219 L 474.957031 141.214844 L 474.945312 141.226562 L 474.9375 141.242188 L 474.925781 141.257812 L 474.902344 141.28125 L 474.894531 141.296875 L 474.886719 141.308594 L 474.875 141.316406 L 474.859375 141.339844 L 474.84375 141.355469 L 474.839844 141.363281 L 477.515625 141.363281 Z M 477.515625 137.363281 "/>
<path fill-rule="nonzero" fill="rgb(38.431373%, 59.215686%, 90.588235%)" fill-opacity="1" d="M 485.5 140.054688 L 485.5 140.269531 L 485.492188 140.476562 L 485.480469 140.675781 L 485.46875 140.871094 L 485.449219 141.058594 L 485.425781 141.238281 L 485.398438 141.410156 L 485.367188 141.578125 L 485.332031 141.738281 L 485.292969 141.890625 L 485.25 142.035156 L 485.203125 142.175781 L 485.15625 142.308594 L 485.101562 142.4375 L 485.046875 142.5625 L 484.988281 142.679688 L 484.929688 142.792969 L 484.863281 142.898438 L 484.796875 143 L 484.726562 143.09375 L 484.65625 143.183594 L 484.582031 143.265625 L 484.503906 143.34375 L 484.421875 143.417969 L 484.339844 143.484375 L 484.253906 143.546875 L 484.167969 143.605469 L 484.078125 143.660156 L 483.984375 143.707031 L 483.890625 143.75 L 483.792969 143.785156 L 483.691406 143.820312 L 483.59375 143.851562 L 483.390625 143.898438 L 483.179688 143.929688 L 482.96875 143.945312 L 482.859375 143.949219 L 482.75 143.945312 L 482.53125 143.929688 L 482.425781 143.914062 L 482.324219 143.898438 L 482.121094 143.851562 L 482.019531 143.820312 L 481.921875 143.785156 L 481.828125 143.75 L 481.730469 143.707031 L 481.640625 143.660156 L 481.550781 143.605469 L 481.464844 143.546875 L 481.378906 143.484375 L 481.296875 143.417969 L 481.21875 143.34375 L 481.140625 143.265625 L 481.066406 143.183594 L 480.996094 143.09375 L 480.925781 143 L 480.859375 142.898438 L 480.796875 142.792969 L 480.738281 142.683594 L 480.679688 142.566406 L 480.578125 142.316406 L 480.527344 142.179688 L 480.484375 142.039062 L 480.441406 141.894531 L 480.402344 141.742188 L 480.371094 141.582031 L 480.339844 141.417969 L 480.3125 141.242188 L 480.292969 141.0625 L 480.273438 140.875 L 480.261719 140.679688 L 480.25 140.476562 L 480.246094 140.269531 L 480.242188 140.054688 L 480.246094 139.828125 L 480.25 139.613281 L 480.261719 139.402344 L 480.273438 139.203125 L 480.292969 139.007812 L 480.3125 138.824219 L 480.339844 138.644531 L 480.371094 138.476562 L 480.402344 138.316406 L 480.441406 138.164062 L 480.484375 138.015625 L 480.527344 137.875 L 480.578125 137.738281 L 480.628906 137.609375 L 480.683594 137.488281 L 480.738281 137.371094 L 480.800781 137.261719 L 480.863281 137.15625 L 480.929688 137.058594 L 481 136.964844 L 481.070312 136.878906 L 481.148438 136.796875 L 481.222656 136.722656 L 481.304688 136.652344 L 481.386719 136.585938 L 481.472656 136.527344 L 481.558594 136.472656 L 481.648438 136.421875 L 481.742188 136.378906 L 481.835938 136.34375 L 481.933594 136.308594 L 482.035156 136.277344 L 482.136719 136.25 L 482.238281 136.226562 L 482.34375 136.203125 L 482.449219 136.1875 L 482.554688 136.175781 L 482.664062 136.167969 L 482.777344 136.160156 L 482.996094 136.160156 L 483.105469 136.167969 L 483.210938 136.175781 L 483.3125 136.1875 L 483.414062 136.203125 L 483.617188 136.25 L 483.714844 136.277344 L 483.808594 136.308594 L 483.90625 136.34375 L 484 136.378906 L 484.089844 136.421875 L 484.179688 136.472656 L 484.269531 136.527344 L 484.351562 136.585938 L 484.433594 136.652344 L 484.515625 136.722656 L 484.589844 136.796875 L 484.664062 136.878906 L 484.738281 136.964844 L 484.808594 137.058594 L 484.875 137.15625 L 484.9375 137.261719 L 484.996094 137.371094 L 485.054688 137.488281 L 485.109375 137.609375 L 485.160156 137.738281 L 485.207031 137.875 L 485.253906 138.015625 L 485.296875 138.164062 L 485.335938 138.316406 L 485.371094 138.476562 L 485.402344 138.644531 L 485.425781 138.824219 L 485.449219 139.007812 L 485.46875 139.203125 L 485.480469 139.402344 L 485.492188 139.613281 L 485.5 139.828125 Z M 484.519531 140.054688 L 484.515625 139.875 L 484.511719 139.703125 L 484.507812 139.539062 L 484.5 139.378906 L 484.492188 139.226562 L 484.480469 139.082031 L 484.464844 138.941406 L 484.449219 138.804688 L 484.429688 138.675781 L 484.410156 138.554688 L 484.386719 138.4375 L 484.363281 138.324219 L 484.335938 138.214844 L 484.308594 138.113281 L 484.277344 138.015625 L 484.246094 137.921875 L 484.210938 137.832031 L 484.171875 137.75 L 484.132812 137.671875 L 484.09375 137.597656 L 484.050781 137.527344 L 483.957031 137.402344 L 483.910156 137.34375 L 483.859375 137.292969 L 483.808594 137.246094 L 483.753906 137.199219 L 483.695312 137.160156 L 483.636719 137.125 L 483.578125 137.09375 L 483.453125 137.039062 L 483.390625 137.015625 L 483.324219 136.996094 L 483.253906 136.980469 L 483.1875 136.96875 L 483.113281 136.957031 L 483.042969 136.949219 L 482.964844 136.945312 L 482.808594 136.945312 L 482.730469 136.949219 L 482.652344 136.957031 L 482.578125 136.96875 L 482.507812 136.980469 L 482.433594 136.996094 L 482.367188 137.015625 L 482.300781 137.039062 L 482.234375 137.066406 L 482.171875 137.09375 L 482.109375 137.125 L 481.992188 137.203125 L 481.9375 137.246094 L 481.882812 137.296875 L 481.78125 137.40625 L 481.734375 137.46875 L 481.6875 137.535156 L 481.601562 137.675781 L 481.5625 137.753906 L 481.492188 137.925781 L 481.460938 138.019531 L 481.429688 138.117188 L 481.375 138.328125 L 481.351562 138.441406 L 481.328125 138.558594 L 481.308594 138.683594 L 481.289062 138.8125 L 481.273438 138.945312 L 481.257812 139.085938 L 481.246094 139.230469 L 481.238281 139.382812 L 481.230469 139.542969 L 481.222656 139.707031 L 481.222656 139.875 L 481.21875 140.054688 L 481.222656 140.222656 L 481.222656 140.390625 L 481.230469 140.550781 L 481.238281 140.707031 L 481.246094 140.855469 L 481.257812 141 L 481.273438 141.136719 L 481.289062 141.269531 L 481.308594 141.398438 L 481.328125 141.519531 L 481.351562 141.636719 L 481.375 141.75 L 481.402344 141.855469 L 481.433594 141.960938 L 481.464844 142.058594 L 481.496094 142.152344 L 481.53125 142.242188 L 481.609375 142.40625 L 481.648438 142.480469 L 481.691406 142.550781 L 481.738281 142.617188 L 481.785156 142.679688 L 481.835938 142.738281 L 481.886719 142.792969 L 481.996094 142.886719 L 482.050781 142.929688 L 482.109375 142.96875 L 482.171875 143.003906 L 482.296875 143.058594 L 482.363281 143.082031 L 482.429688 143.101562 L 482.570312 143.132812 L 482.640625 143.144531 L 482.714844 143.152344 L 482.792969 143.15625 L 482.945312 143.15625 L 483.019531 143.152344 L 483.089844 143.144531 L 483.160156 143.132812 L 483.300781 143.101562 L 483.367188 143.082031 L 483.429688 143.058594 L 483.496094 143.03125 L 483.554688 143.003906 L 483.617188 142.96875 L 483.675781 142.929688 L 483.730469 142.886719 L 483.839844 142.792969 L 483.890625 142.738281 L 483.9375 142.679688 L 483.984375 142.617188 L 484.027344 142.550781 L 484.070312 142.480469 L 484.113281 142.40625 L 484.191406 142.242188 L 484.226562 142.152344 L 484.261719 142.058594 L 484.292969 141.960938 L 484.324219 141.855469 L 484.351562 141.75 L 484.375 141.636719 L 484.398438 141.519531 L 484.421875 141.398438 L 484.441406 141.269531 L 484.460938 141.136719 L 484.476562 141 L 484.488281 140.855469 L 484.5 140.707031 L 484.507812 140.550781 L 484.511719 140.390625 Z M 484.519531 140.054688 "/>
<path fill-rule="nonzero" fill="rgb(38.431373%, 59.215686%, 90.588235%)" fill-opacity="1" d="M 479.328125 34.132812 L 479.328125 34.246094 L 479.324219 34.355469 L 479.316406 34.464844 L 479.304688 34.574219 L 479.289062 34.679688 L 479.25 34.882812 L 479.226562 34.984375 L 479.199219 35.082031 L 479.167969 35.179688 L 479.136719 35.273438 L 479.097656 35.363281 L 479.0625 35.449219 L 479.019531 35.535156 L 478.972656 35.621094 L 478.925781 35.699219 L 478.875 35.777344 L 478.820312 35.851562 L 478.761719 35.925781 L 478.699219 35.996094 L 478.636719 36.0625 L 478.574219 36.125 L 478.433594 36.242188 L 478.355469 36.296875 L 478.199219 36.398438 L 478.113281 36.445312 L 478.027344 36.488281 L 477.9375 36.527344 L 477.84375 36.5625 L 477.75 36.59375 L 477.652344 36.621094 L 477.550781 36.648438 L 477.445312 36.667969 L 477.339844 36.683594 L 477.230469 36.699219 L 477.003906 36.714844 L 476.886719 36.714844 L 476.753906 36.710938 L 476.628906 36.703125 L 476.503906 36.691406 L 476.382812 36.675781 L 476.265625 36.652344 L 476.152344 36.625 L 475.933594 36.554688 L 475.832031 36.511719 L 475.730469 36.460938 L 475.632812 36.410156 L 475.539062 36.351562 L 475.449219 36.292969 L 475.363281 36.226562 L 475.277344 36.15625 L 475.199219 36.082031 L 475.121094 36 L 475.046875 35.917969 L 474.976562 35.828125 L 474.910156 35.738281 L 474.84375 35.640625 L 474.785156 35.539062 L 474.726562 35.433594 L 474.671875 35.320312 L 474.621094 35.207031 L 474.574219 35.089844 L 474.527344 34.964844 L 474.488281 34.839844 L 474.449219 34.707031 L 474.414062 34.570312 L 474.382812 34.429688 L 474.355469 34.289062 L 474.332031 34.140625 L 474.3125 33.988281 L 474.292969 33.832031 L 474.277344 33.671875 L 474.269531 33.511719 L 474.261719 33.34375 L 474.253906 33.171875 L 474.253906 32.796875 L 474.269531 32.414062 L 474.28125 32.230469 L 474.300781 32.050781 L 474.320312 31.875 L 474.34375 31.707031 L 474.371094 31.539062 L 474.402344 31.378906 L 474.4375 31.226562 L 474.476562 31.074219 L 474.519531 30.929688 L 474.5625 30.789062 L 474.613281 30.65625 L 474.664062 30.527344 L 474.71875 30.402344 L 474.777344 30.28125 L 474.839844 30.167969 L 474.90625 30.058594 L 474.972656 29.953125 L 475.042969 29.851562 L 475.117188 29.757812 L 475.195312 29.667969 L 475.359375 29.503906 L 475.445312 29.429688 L 475.535156 29.363281 L 475.628906 29.296875 L 475.722656 29.238281 L 475.820312 29.183594 L 475.925781 29.136719 L 476.027344 29.09375 L 476.136719 29.054688 L 476.246094 29.019531 L 476.359375 28.992188 L 476.472656 28.96875 L 476.59375 28.949219 L 476.710938 28.9375 L 476.835938 28.929688 L 476.960938 28.925781 L 477.039062 28.929688 L 477.113281 28.929688 L 477.1875 28.933594 L 477.261719 28.941406 L 477.335938 28.945312 L 477.40625 28.957031 L 477.476562 28.964844 L 477.546875 28.980469 L 477.617188 28.992188 L 477.6875 29.007812 L 477.753906 29.023438 L 477.820312 29.042969 L 478.007812 29.113281 L 478.070312 29.140625 L 478.1875 29.203125 L 478.242188 29.234375 L 478.296875 29.269531 L 478.460938 29.386719 L 478.511719 29.429688 L 478.609375 29.527344 L 478.65625 29.578125 L 478.699219 29.628906 L 478.742188 29.683594 L 478.785156 29.742188 L 478.828125 29.804688 L 478.867188 29.867188 L 478.90625 29.933594 L 478.941406 30 L 478.976562 30.074219 L 479.007812 30.144531 L 479.039062 30.222656 L 479.066406 30.300781 L 479.09375 30.382812 L 479.121094 30.46875 L 478.195312 30.636719 L 478.164062 30.539062 L 478.128906 30.449219 L 478.089844 30.367188 L 478.046875 30.289062 L 478 30.214844 L 477.949219 30.148438 L 477.894531 30.085938 L 477.839844 30.027344 L 477.777344 29.976562 L 477.710938 29.929688 L 477.578125 29.851562 L 477.507812 29.820312 L 477.433594 29.789062 L 477.359375 29.765625 L 477.28125 29.746094 L 477.199219 29.730469 L 477.121094 29.71875 L 476.949219 29.710938 L 476.792969 29.71875 L 476.71875 29.726562 L 476.570312 29.757812 L 476.5 29.777344 L 476.429688 29.804688 L 476.363281 29.832031 L 476.296875 29.863281 L 476.230469 29.898438 L 476.167969 29.9375 L 476.105469 29.980469 L 476.046875 30.027344 L 475.988281 30.078125 L 475.933594 30.132812 L 475.878906 30.191406 L 475.828125 30.253906 L 475.777344 30.320312 L 475.726562 30.390625 L 475.683594 30.464844 L 475.636719 30.539062 L 475.554688 30.703125 L 475.519531 30.789062 L 475.480469 30.882812 L 475.449219 30.976562 L 475.386719 31.179688 L 475.359375 31.285156 L 475.332031 31.398438 L 475.3125 31.511719 L 475.289062 31.628906 L 475.257812 31.878906 L 475.246094 32.007812 L 475.234375 32.140625 L 475.21875 32.421875 L 475.214844 32.566406 L 475.214844 32.714844 L 475.269531 32.617188 L 475.328125 32.527344 L 475.390625 32.441406 L 475.460938 32.359375 L 475.53125 32.285156 L 475.609375 32.210938 L 475.6875 32.144531 L 475.773438 32.082031 L 475.863281 32.023438 L 475.957031 31.972656 L 476.054688 31.921875 L 476.152344 31.878906 L 476.253906 31.839844 L 476.359375 31.808594 L 476.46875 31.777344 L 476.578125 31.753906 L 476.695312 31.738281 L 476.808594 31.726562 L 476.929688 31.71875 L 477.050781 31.714844 L 477.152344 31.714844 L 477.253906 31.722656 L 477.351562 31.730469 L 477.449219 31.742188 L 477.636719 31.773438 L 477.816406 31.820312 L 477.902344 31.847656 L 477.988281 31.882812 L 478.070312 31.914062 L 478.148438 31.953125 L 478.226562 31.996094 L 478.300781 32.039062 L 478.375 32.085938 L 478.445312 32.136719 L 478.511719 32.1875 L 478.578125 32.242188 L 478.640625 32.300781 L 478.699219 32.363281 L 478.816406 32.496094 L 478.867188 32.5625 L 478.917969 32.636719 L 478.964844 32.710938 L 479.011719 32.789062 L 479.054688 32.867188 L 479.09375 32.953125 L 479.128906 33.039062 L 479.164062 33.128906 L 479.195312 33.21875 L 479.222656 33.308594 L 479.246094 33.40625 L 479.269531 33.5 L 479.289062 33.601562 L 479.3125 33.804688 L 479.324219 33.914062 L 479.328125 34.019531 Z M 478.347656 34.175781 L 478.34375 34.097656 L 478.34375 34.019531 L 478.335938 33.945312 L 478.332031 33.871094 L 478.320312 33.800781 L 478.3125 33.730469 L 478.300781 33.664062 L 478.285156 33.59375 L 478.269531 33.53125 L 478.25 33.464844 L 478.230469 33.402344 L 478.183594 33.285156 L 478.15625 33.226562 L 478.128906 33.171875 L 478.066406 33.070312 L 478.03125 33.019531 L 477.996094 32.972656 L 477.960938 32.929688 L 477.921875 32.882812 L 477.835938 32.804688 L 477.789062 32.765625 L 477.695312 32.695312 L 477.644531 32.664062 L 477.589844 32.636719 L 477.539062 32.609375 L 477.363281 32.539062 L 477.300781 32.523438 L 477.238281 32.503906 L 477.175781 32.492188 L 477.105469 32.480469 L 477.039062 32.472656 L 476.96875 32.464844 L 476.894531 32.460938 L 476.769531 32.460938 L 476.714844 32.464844 L 476.664062 32.46875 L 476.609375 32.472656 L 476.554688 32.480469 L 476.503906 32.488281 L 476.394531 32.511719 L 476.34375 32.527344 L 476.234375 32.558594 L 476.183594 32.574219 L 476.132812 32.597656 L 476.082031 32.617188 L 476.03125 32.640625 L 475.9375 32.695312 L 475.84375 32.757812 L 475.757812 32.828125 L 475.679688 32.90625 L 475.640625 32.949219 L 475.605469 32.996094 L 475.570312 33.039062 L 475.535156 33.089844 L 475.503906 33.140625 L 475.472656 33.195312 L 475.445312 33.25 L 475.421875 33.308594 L 475.398438 33.371094 L 475.378906 33.433594 L 475.359375 33.5 L 475.34375 33.566406 L 475.332031 33.636719 L 475.316406 33.785156 L 475.3125 33.863281 L 475.3125 34.027344 L 475.320312 34.191406 L 475.328125 34.269531 L 475.363281 34.503906 L 475.378906 34.578125 L 475.417969 34.726562 L 475.464844 34.867188 L 475.519531 35 L 475.550781 35.066406 L 475.582031 35.125 L 475.613281 35.1875 L 475.648438 35.246094 L 475.765625 35.410156 L 475.808594 35.460938 L 475.902344 35.554688 L 475.949219 35.597656 L 476.101562 35.714844 L 476.15625 35.75 L 476.214844 35.78125 L 476.332031 35.835938 L 476.390625 35.859375 L 476.515625 35.898438 L 476.648438 35.921875 L 476.714844 35.929688 L 476.78125 35.933594 L 476.851562 35.9375 L 476.921875 35.933594 L 477.054688 35.925781 L 477.121094 35.917969 L 477.246094 35.894531 L 477.304688 35.878906 L 477.421875 35.839844 L 477.53125 35.792969 L 477.585938 35.765625 L 477.6875 35.703125 L 477.78125 35.632812 L 477.867188 35.554688 L 477.910156 35.511719 L 477.949219 35.46875 L 477.988281 35.421875 L 478.023438 35.371094 L 478.054688 35.320312 L 478.089844 35.269531 L 478.121094 35.214844 L 478.175781 35.097656 L 478.199219 35.039062 L 478.222656 34.976562 L 478.246094 34.910156 L 478.261719 34.84375 L 478.28125 34.777344 L 478.296875 34.707031 L 478.308594 34.636719 L 478.320312 34.5625 L 478.335938 34.414062 L 478.34375 34.335938 L 478.34375 34.253906 Z M 478.347656 34.175781 "/>
<path fill-rule="nonzero" fill="rgb(38.431373%, 59.215686%, 90.588235%)" fill-opacity="1" d="M 485.5 32.820312 L 485.5 33.035156 L 485.492188 33.242188 L 485.480469 33.445312 L 485.46875 33.636719 L 485.449219 33.824219 L 485.425781 34.003906 L 485.398438 34.179688 L 485.367188 34.34375 L 485.332031 34.503906 L 485.292969 34.65625 L 485.25 34.804688 L 485.15625 35.078125 L 485.101562 35.207031 L 485.046875 35.328125 L 484.988281 35.445312 L 484.929688 35.558594 L 484.863281 35.664062 L 484.796875 35.765625 L 484.726562 35.859375 L 484.65625 35.949219 L 484.582031 36.035156 L 484.503906 36.113281 L 484.339844 36.253906 L 484.253906 36.316406 L 484.167969 36.375 L 484.078125 36.425781 L 483.984375 36.472656 L 483.890625 36.515625 L 483.792969 36.554688 L 483.691406 36.585938 L 483.59375 36.617188 L 483.492188 36.644531 L 483.390625 36.664062 L 483.285156 36.683594 L 483.074219 36.707031 L 482.96875 36.714844 L 482.75 36.714844 L 482.640625 36.707031 L 482.53125 36.695312 L 482.425781 36.683594 L 482.222656 36.644531 L 482.121094 36.617188 L 482.019531 36.585938 L 481.921875 36.554688 L 481.828125 36.515625 L 481.730469 36.472656 L 481.640625 36.425781 L 481.550781 36.375 L 481.464844 36.316406 L 481.378906 36.253906 L 481.296875 36.183594 L 481.21875 36.113281 L 481.140625 36.035156 L 481.066406 35.949219 L 480.996094 35.859375 L 480.925781 35.765625 L 480.859375 35.667969 L 480.796875 35.5625 L 480.738281 35.449219 L 480.679688 35.332031 L 480.628906 35.210938 L 480.578125 35.082031 L 480.527344 34.949219 L 480.484375 34.808594 L 480.441406 34.664062 L 480.402344 34.511719 L 480.371094 34.351562 L 480.339844 34.183594 L 480.3125 34.011719 L 480.292969 33.828125 L 480.273438 33.640625 L 480.261719 33.445312 L 480.25 33.246094 L 480.246094 33.035156 L 480.242188 32.820312 L 480.246094 32.597656 L 480.25 32.378906 L 480.261719 32.171875 L 480.273438 31.96875 L 480.292969 31.777344 L 480.3125 31.589844 L 480.339844 31.414062 L 480.371094 31.246094 L 480.402344 31.082031 L 480.441406 30.929688 L 480.484375 30.78125 L 480.527344 30.640625 L 480.578125 30.507812 L 480.628906 30.378906 L 480.683594 30.253906 L 480.738281 30.136719 L 480.800781 30.027344 L 480.863281 29.921875 L 480.929688 29.824219 L 481.070312 29.644531 L 481.148438 29.566406 L 481.222656 29.488281 L 481.304688 29.417969 L 481.386719 29.355469 L 481.472656 29.292969 L 481.558594 29.238281 L 481.648438 29.191406 L 481.742188 29.148438 L 481.835938 29.109375 L 481.933594 29.074219 L 482.035156 29.042969 L 482.136719 29.015625 L 482.238281 28.992188 L 482.34375 28.972656 L 482.449219 28.957031 L 482.554688 28.945312 L 482.664062 28.933594 L 482.890625 28.925781 L 482.996094 28.929688 L 483.105469 28.933594 L 483.210938 28.945312 L 483.3125 28.957031 L 483.414062 28.972656 L 483.515625 28.992188 L 483.617188 29.015625 L 483.714844 29.042969 L 483.808594 29.074219 L 483.90625 29.109375 L 484 29.148438 L 484.089844 29.191406 L 484.179688 29.238281 L 484.269531 29.292969 L 484.433594 29.417969 L 484.515625 29.488281 L 484.664062 29.644531 L 484.738281 29.734375 L 484.808594 29.824219 L 484.875 29.921875 L 484.9375 30.027344 L 484.996094 30.136719 L 485.054688 30.253906 L 485.109375 30.378906 L 485.160156 30.507812 L 485.207031 30.640625 L 485.253906 30.78125 L 485.296875 30.929688 L 485.335938 31.082031 L 485.371094 31.246094 L 485.402344 31.414062 L 485.425781 31.589844 L 485.449219 31.777344 L 485.46875 31.96875 L 485.480469 32.171875 L 485.492188 32.378906 L 485.5 32.597656 Z M 484.519531 32.820312 L 484.515625 32.644531 L 484.511719 32.472656 L 484.507812 32.308594 L 484.5 32.148438 L 484.492188 31.996094 L 484.480469 31.847656 L 484.464844 31.707031 L 484.449219 31.574219 L 484.429688 31.445312 L 484.410156 31.324219 L 484.386719 31.203125 L 484.363281 31.089844 L 484.308594 30.878906 L 484.277344 30.78125 L 484.246094 30.691406 L 484.210938 30.601562 L 484.171875 30.519531 L 484.132812 30.441406 L 484.09375 30.367188 L 484.050781 30.296875 L 484.003906 30.230469 L 483.957031 30.167969 L 483.910156 30.113281 L 483.859375 30.058594 L 483.808594 30.011719 L 483.753906 29.96875 L 483.695312 29.929688 L 483.636719 29.894531 L 483.578125 29.863281 L 483.515625 29.832031 L 483.390625 29.785156 L 483.324219 29.765625 L 483.253906 29.75 L 483.1875 29.734375 L 483.113281 29.726562 L 483.042969 29.71875 L 482.964844 29.710938 L 482.808594 29.710938 L 482.652344 29.726562 L 482.578125 29.734375 L 482.507812 29.75 L 482.433594 29.765625 L 482.367188 29.785156 L 482.234375 29.832031 L 482.109375 29.894531 L 482.050781 29.929688 L 481.992188 29.96875 L 481.882812 30.0625 L 481.832031 30.117188 L 481.78125 30.175781 L 481.734375 30.234375 L 481.6875 30.300781 L 481.644531 30.371094 L 481.601562 30.445312 L 481.5625 30.523438 L 481.527344 30.605469 L 481.492188 30.695312 L 481.460938 30.789062 L 481.429688 30.886719 L 481.402344 30.988281 L 481.375 31.097656 L 481.351562 31.210938 L 481.328125 31.328125 L 481.308594 31.449219 L 481.289062 31.578125 L 481.273438 31.710938 L 481.257812 31.851562 L 481.246094 32 L 481.238281 32.152344 L 481.230469 32.308594 L 481.222656 32.472656 L 481.222656 32.644531 L 481.21875 32.820312 L 481.222656 32.992188 L 481.222656 33.15625 L 481.230469 33.320312 L 481.238281 33.472656 L 481.246094 33.621094 L 481.257812 33.765625 L 481.273438 33.90625 L 481.289062 34.039062 L 481.328125 34.289062 L 481.375 34.515625 L 481.402344 34.625 L 481.433594 34.726562 L 481.464844 34.824219 L 481.496094 34.917969 L 481.53125 35.007812 L 481.570312 35.09375 L 481.648438 35.25 L 481.691406 35.320312 L 481.785156 35.445312 L 481.835938 35.503906 L 481.886719 35.558594 L 481.941406 35.609375 L 481.996094 35.65625 L 482.050781 35.699219 L 482.109375 35.734375 L 482.171875 35.769531 L 482.234375 35.800781 L 482.296875 35.824219 L 482.429688 35.871094 L 482.570312 35.902344 L 482.640625 35.910156 L 482.714844 35.917969 L 482.792969 35.925781 L 482.945312 35.925781 L 483.019531 35.917969 L 483.160156 35.902344 L 483.300781 35.871094 L 483.367188 35.847656 L 483.429688 35.824219 L 483.496094 35.800781 L 483.554688 35.769531 L 483.617188 35.734375 L 483.675781 35.699219 L 483.730469 35.65625 L 483.785156 35.609375 L 483.839844 35.558594 L 483.890625 35.503906 L 483.9375 35.445312 L 483.984375 35.382812 L 484.027344 35.320312 L 484.070312 35.25 L 484.113281 35.171875 L 484.152344 35.09375 L 484.191406 35.007812 L 484.226562 34.917969 L 484.261719 34.824219 L 484.292969 34.726562 L 484.324219 34.625 L 484.351562 34.515625 L 484.398438 34.289062 L 484.421875 34.164062 L 484.441406 34.039062 L 484.460938 33.90625 L 484.476562 33.765625 L 484.488281 33.621094 L 484.5 33.472656 L 484.507812 33.320312 L 484.515625 32.992188 Z M 484.519531 32.820312 "/>
<path fill-rule="nonzero" fill="rgb(38.431373%, 59.215686%, 90.588235%)" fill-opacity="1" d="M 491.601562 168.023438 L 491.40625 168.023438 L 491.308594 168.027344 L 491.214844 168.035156 L 491.125 168.039062 L 491.03125 168.046875 L 490.941406 168.058594 L 490.855469 168.066406 L 490.769531 168.078125 L 490.683594 168.09375 L 490.519531 168.125 L 490.441406 168.144531 L 490.292969 168.191406 L 490.152344 168.246094 L 490.085938 168.273438 L 490.019531 168.304688 L 489.960938 168.339844 L 489.898438 168.375 L 489.789062 168.453125 L 489.738281 168.492188 L 489.644531 168.585938 L 489.605469 168.632812 L 489.5625 168.683594 L 489.527344 168.734375 L 489.492188 168.789062 L 489.460938 168.847656 L 489.40625 168.972656 L 489.386719 169.039062 L 489.367188 169.109375 L 489.351562 169.179688 L 489.339844 169.253906 L 489.332031 169.328125 L 489.328125 169.40625 L 489.324219 169.488281 L 489.328125 169.589844 L 489.335938 169.6875 L 489.351562 169.78125 L 489.371094 169.875 L 489.394531 169.960938 L 489.425781 170.046875 L 489.460938 170.125 L 489.503906 170.203125 L 489.550781 170.277344 L 489.605469 170.347656 L 489.664062 170.414062 L 489.726562 170.476562 L 489.800781 170.535156 L 489.875 170.585938 L 490.046875 170.671875 L 490.144531 170.707031 L 490.242188 170.734375 L 490.351562 170.757812 L 490.464844 170.777344 L 490.398438 171.753906 L 490.328125 171.746094 L 490.117188 171.699219 L 490.046875 171.679688 L 489.976562 171.65625 L 489.910156 171.632812 L 489.839844 171.605469 L 489.773438 171.578125 L 489.707031 171.546875 L 489.640625 171.511719 L 489.578125 171.476562 L 489.453125 171.398438 L 489.394531 171.355469 L 489.335938 171.308594 L 489.28125 171.261719 L 489.171875 171.160156 L 489.070312 171.050781 L 489.023438 170.992188 L 488.976562 170.929688 L 488.933594 170.867188 L 488.894531 170.800781 L 488.851562 170.730469 L 488.816406 170.660156 L 488.777344 170.589844 L 488.714844 170.433594 L 488.683594 170.351562 L 488.660156 170.269531 L 488.636719 170.183594 L 488.617188 170.097656 L 488.601562 170.003906 L 488.585938 169.914062 L 488.574219 169.816406 L 488.570312 169.71875 L 488.5625 169.617188 L 488.5625 169.515625 L 488.570312 169.25 L 488.582031 169.125 L 488.597656 169.003906 L 488.621094 168.882812 L 488.644531 168.769531 L 488.675781 168.660156 L 488.710938 168.554688 L 488.75 168.453125 L 488.792969 168.355469 L 488.839844 168.261719 L 488.894531 168.171875 L 489.003906 168 L 489.066406 167.921875 L 489.132812 167.84375 L 489.199219 167.773438 L 489.273438 167.703125 L 489.347656 167.636719 L 489.425781 167.578125 L 489.511719 167.519531 L 489.597656 167.464844 L 489.683594 167.414062 L 489.871094 167.320312 L 490.066406 167.242188 L 490.167969 167.207031 L 490.273438 167.175781 L 490.382812 167.148438 L 490.496094 167.121094 L 490.609375 167.097656 L 490.722656 167.078125 L 490.839844 167.0625 L 490.960938 167.046875 L 491.203125 167.023438 L 491.453125 167.015625 L 491.582031 167.011719 L 491.695312 167.011719 L 491.808594 167.015625 L 491.917969 167.019531 L 492.027344 167.027344 L 492.132812 167.035156 L 492.234375 167.046875 L 492.332031 167.058594 L 492.429688 167.074219 L 492.523438 167.089844 L 492.703125 167.128906 L 492.789062 167.152344 L 492.953125 167.199219 L 493.035156 167.226562 L 493.109375 167.253906 L 493.1875 167.28125 L 493.328125 167.34375 L 493.398438 167.378906 L 493.464844 167.414062 L 493.527344 167.453125 L 493.589844 167.488281 L 493.648438 167.527344 L 493.707031 167.570312 L 493.816406 167.65625 L 493.867188 167.699219 L 493.960938 167.792969 L 494.003906 167.839844 L 494.050781 167.886719 L 494.167969 168.039062 L 494.238281 168.140625 L 494.269531 168.195312 L 494.296875 168.246094 L 494.324219 168.300781 L 494.351562 168.359375 L 494.378906 168.414062 L 494.425781 168.53125 L 494.445312 168.585938 L 494.464844 168.648438 L 494.496094 168.765625 L 494.511719 168.828125 L 494.523438 168.886719 L 494.546875 169.011719 L 494.558594 169.070312 L 494.574219 169.195312 L 494.582031 169.320312 L 494.585938 169.378906 L 494.589844 169.441406 L 494.589844 169.503906 L 494.585938 169.601562 L 494.578125 169.789062 L 494.554688 169.96875 L 494.539062 170.054688 L 494.523438 170.136719 L 494.503906 170.21875 L 494.480469 170.296875 L 494.453125 170.375 L 494.398438 170.523438 L 494.363281 170.59375 L 494.332031 170.664062 L 494.292969 170.730469 L 494.257812 170.792969 L 494.214844 170.855469 L 494.175781 170.917969 L 494.128906 170.972656 L 494.085938 171.03125 L 494.035156 171.085938 L 493.988281 171.136719 L 493.886719 171.238281 L 493.832031 171.28125 L 493.777344 171.328125 L 493.71875 171.367188 L 493.660156 171.410156 L 493.472656 171.515625 L 493.40625 171.546875 L 493.207031 171.628906 L 493.136719 171.652344 L 493.070312 171.671875 L 493 171.691406 L 492.925781 171.707031 L 492.855469 171.722656 L 492.777344 170.730469 L 492.875 170.710938 L 492.964844 170.691406 L 493.050781 170.664062 L 493.132812 170.632812 L 493.210938 170.597656 L 493.289062 170.554688 L 493.359375 170.511719 L 493.425781 170.460938 L 493.488281 170.40625 L 493.546875 170.347656 L 493.601562 170.285156 L 493.648438 170.214844 L 493.691406 170.140625 L 493.730469 170.0625 L 493.761719 169.976562 L 493.785156 169.886719 L 493.804688 169.792969 L 493.820312 169.691406 L 493.828125 169.589844 L 493.832031 169.476562 L 493.832031 169.398438 L 493.824219 169.316406 L 493.820312 169.242188 L 493.808594 169.167969 L 493.796875 169.097656 L 493.78125 169.03125 L 493.761719 168.964844 L 493.742188 168.902344 L 493.71875 168.84375 L 493.691406 168.785156 L 493.664062 168.730469 L 493.632812 168.679688 L 493.597656 168.628906 L 493.5625 168.582031 L 493.519531 168.535156 L 493.480469 168.492188 L 493.433594 168.453125 L 493.332031 168.375 L 493.222656 168.304688 L 493.164062 168.273438 L 493.101562 168.246094 L 492.96875 168.191406 L 492.898438 168.167969 L 492.824219 168.144531 L 492.746094 168.125 L 492.667969 168.109375 L 492.585938 168.09375 L 492.5 168.078125 L 492.414062 168.066406 L 492.320312 168.058594 L 492.226562 168.046875 L 492.128906 168.039062 L 492.03125 168.035156 L 491.929688 168.027344 L 491.824219 168.023438 Z M 491.601562 168.023438 "/>
<path fill-rule="nonzero" fill="rgb(38.431373%, 59.215686%, 90.588235%)" fill-opacity="1" d="M 491.582031 177.703125 L 491.285156 177.695312 L 491.003906 177.675781 L 490.734375 177.640625 L 490.484375 177.59375 L 490.25 177.535156 L 490.03125 177.460938 L 489.828125 177.371094 L 489.640625 177.273438 L 489.464844 177.15625 L 489.308594 177.03125 L 489.167969 176.890625 L 489.039062 176.738281 L 488.929688 176.574219 L 488.832031 176.394531 L 488.75 176.207031 L 488.683594 176.003906 L 488.628906 175.792969 L 488.59375 175.566406 L 488.570312 175.328125 L 488.5625 175.082031 L 488.5625 174.960938 L 488.578125 174.726562 L 488.589844 174.613281 L 488.609375 174.503906 L 488.628906 174.398438 L 488.652344 174.292969 L 488.679688 174.191406 L 488.710938 174.09375 L 488.746094 173.996094 L 488.824219 173.808594 L 488.871094 173.722656 L 488.921875 173.636719 L 488.976562 173.554688 L 489.035156 173.472656 L 489.09375 173.398438 L 489.160156 173.324219 L 489.230469 173.253906 L 489.304688 173.183594 L 489.378906 173.121094 L 489.460938 173.058594 L 489.546875 173 L 489.632812 172.945312 L 489.726562 172.894531 L 489.824219 172.84375 L 489.921875 172.800781 L 490.132812 172.714844 L 490.242188 172.679688 L 490.359375 172.648438 L 490.480469 172.617188 L 490.601562 172.589844 L 490.730469 172.570312 L 490.863281 172.550781 L 491 172.535156 L 491.136719 172.523438 L 491.28125 172.515625 L 491.429688 172.507812 L 491.582031 172.507812 L 492.152344 172.535156 L 492.664062 172.613281 L 493.113281 172.742188 L 493.507812 172.925781 L 493.835938 173.160156 L 494.109375 173.445312 L 494.316406 173.785156 L 494.46875 174.175781 L 494.558594 174.617188 L 494.589844 175.113281 L 494.585938 175.246094 L 494.582031 175.375 L 494.558594 175.625 L 494.542969 175.742188 L 494.496094 175.96875 L 494.46875 176.074219 L 494.4375 176.179688 L 494.402344 176.277344 L 494.363281 176.375 L 494.316406 176.46875 L 494.269531 176.558594 L 494.21875 176.644531 L 494.164062 176.726562 L 494.109375 176.804688 L 494.046875 176.878906 L 493.980469 176.953125 L 493.910156 177.019531 L 493.761719 177.144531 L 493.679688 177.203125 L 493.59375 177.257812 L 493.507812 177.308594 L 493.414062 177.359375 L 493.21875 177.445312 L 493.113281 177.484375 L 493.007812 177.519531 L 492.898438 177.550781 L 492.664062 177.605469 L 492.542969 177.628906 L 492.414062 177.648438 L 492.285156 177.664062 L 492.152344 177.675781 L 492.015625 177.6875 L 491.875 177.695312 L 491.730469 177.699219 Z M 491.582031 176.6875 L 491.714844 176.683594 L 491.84375 176.683594 L 492.085938 176.667969 L 492.199219 176.660156 L 492.308594 176.648438 L 492.414062 176.632812 L 492.511719 176.617188 L 492.609375 176.597656 L 492.699219 176.578125 L 492.785156 176.558594 L 492.867188 176.535156 L 493.023438 176.480469 L 493.164062 176.417969 L 493.226562 176.386719 L 493.289062 176.351562 L 493.347656 176.3125 L 493.402344 176.273438 L 493.453125 176.230469 L 493.546875 176.144531 L 493.625 176.050781 L 493.660156 176 L 493.691406 175.949219 L 493.746094 175.839844 L 493.765625 175.785156 L 493.789062 175.726562 L 493.835938 175.539062 L 493.847656 175.476562 L 493.855469 175.410156 L 493.863281 175.339844 L 493.871094 175.273438 L 493.875 175.199219 L 493.875 175.054688 L 493.871094 174.984375 L 493.847656 174.773438 L 493.832031 174.707031 L 493.820312 174.644531 L 493.761719 174.457031 L 493.738281 174.398438 L 493.683594 174.289062 L 493.648438 174.234375 L 493.613281 174.183594 L 493.574219 174.132812 L 493.488281 174.039062 L 493.386719 173.953125 L 493.332031 173.910156 L 493.273438 173.871094 L 493.148438 173.800781 L 493.078125 173.765625 L 493.007812 173.734375 L 492.851562 173.679688 L 492.769531 173.652344 L 492.683594 173.628906 L 492.59375 173.609375 L 492.496094 173.589844 L 492.398438 173.574219 L 492.1875 173.550781 L 492.074219 173.539062 L 491.957031 173.53125 L 491.835938 173.527344 L 491.710938 173.523438 L 491.449219 173.523438 L 491.320312 173.527344 L 491.195312 173.53125 L 491.078125 173.542969 L 490.960938 173.550781 L 490.851562 173.566406 L 490.746094 173.582031 L 490.644531 173.597656 L 490.550781 173.617188 L 490.457031 173.640625 L 490.371094 173.664062 L 490.289062 173.691406 L 490.210938 173.71875 L 490.132812 173.75 L 489.992188 173.8125 L 489.867188 173.882812 L 489.808594 173.921875 L 489.753906 173.964844 L 489.753906 173.960938 L 489.703125 174.003906 L 489.65625 174.050781 L 489.609375 174.09375 L 489.570312 174.140625 L 489.53125 174.191406 L 489.496094 174.238281 L 489.460938 174.289062 L 489.40625 174.398438 L 489.382812 174.453125 L 489.363281 174.507812 L 489.34375 174.566406 L 489.328125 174.625 L 489.292969 174.8125 L 489.285156 174.875 L 489.28125 174.9375 L 489.277344 175.003906 L 489.277344 175.144531 L 489.285156 175.285156 L 489.292969 175.355469 L 489.300781 175.421875 L 489.3125 175.488281 L 489.328125 175.554688 L 489.359375 175.679688 L 489.378906 175.742188 L 489.402344 175.800781 L 489.429688 175.855469 L 489.457031 175.914062 L 489.488281 175.964844 L 489.523438 176.019531 L 489.5625 176.070312 L 489.605469 176.117188 L 489.652344 176.164062 L 489.699219 176.207031 L 489.75 176.25 L 489.804688 176.292969 L 489.863281 176.332031 L 489.988281 176.402344 L 490.058594 176.4375 L 490.132812 176.46875 L 490.207031 176.496094 L 490.371094 176.550781 L 490.457031 176.574219 L 490.644531 176.613281 L 490.746094 176.628906 L 490.851562 176.644531 L 490.960938 176.65625 L 491.078125 176.667969 L 491.195312 176.675781 L 491.320312 176.679688 L 491.449219 176.683594 Z M 491.582031 176.6875 "/>
<path fill-rule="nonzero" fill="rgb(38.431373%, 59.215686%, 90.588235%)" fill-opacity="1" d="M 494.480469 179.851562 L 490.632812 179.851562 L 490.554688 179.855469 L 490.40625 179.863281 L 490.339844 179.871094 L 490.269531 179.878906 L 490.207031 179.886719 L 490.144531 179.898438 L 490.089844 179.910156 L 490.03125 179.921875 L 489.976562 179.9375 L 489.925781 179.953125 L 489.785156 180.011719 L 489.742188 180.035156 L 489.703125 180.058594 L 489.625 180.113281 L 489.59375 180.140625 L 489.53125 180.203125 L 489.476562 180.273438 L 489.453125 180.3125 L 489.414062 180.390625 L 489.394531 180.433594 L 489.378906 180.476562 L 489.367188 180.523438 L 489.34375 180.625 L 489.328125 180.734375 L 489.320312 180.792969 L 489.308594 180.980469 L 489.308594 181.117188 L 489.3125 181.183594 L 489.320312 181.246094 L 489.328125 181.3125 L 489.339844 181.375 L 489.351562 181.433594 L 489.367188 181.496094 L 489.382812 181.550781 L 489.40625 181.609375 L 489.425781 181.664062 L 489.480469 181.773438 L 489.542969 181.875 L 489.648438 182.015625 L 489.730469 182.097656 L 489.871094 182.214844 L 489.925781 182.25 L 489.976562 182.28125 L 490.03125 182.3125 L 490.089844 182.34375 L 490.148438 182.371094 L 490.210938 182.398438 L 490.273438 182.421875 L 490.339844 182.445312 L 490.480469 182.484375 L 490.550781 182.5 L 490.625 182.511719 L 490.78125 182.535156 L 490.863281 182.542969 L 491.027344 182.550781 L 494.480469 182.550781 L 494.480469 183.519531 L 489.40625 183.519531 L 489.367188 183.523438 L 489.292969 183.523438 L 489.253906 183.527344 L 489.144531 183.527344 L 489.109375 183.53125 L 489.007812 183.53125 L 488.976562 183.535156 L 488.917969 183.535156 L 488.890625 183.539062 L 488.8125 183.539062 L 488.789062 183.542969 L 488.746094 183.542969 L 488.730469 183.546875 L 488.6875 183.546875 L 488.679688 183.550781 L 488.671875 183.550781 L 488.671875 182.636719 L 488.683594 182.636719 L 488.695312 182.632812 L 488.71875 182.632812 L 488.734375 182.628906 L 488.792969 182.628906 L 488.816406 182.625 L 488.863281 182.625 L 488.890625 182.621094 L 488.941406 182.621094 L 488.96875 182.617188 L 488.996094 182.617188 L 489.023438 182.613281 L 489.054688 182.613281 L 489.082031 182.609375 L 489.144531 182.609375 L 489.175781 182.605469 L 489.269531 182.605469 L 489.300781 182.601562 L 489.394531 182.601562 L 489.425781 182.597656 L 489.515625 182.597656 L 489.542969 182.59375 L 489.664062 182.59375 L 489.664062 182.578125 L 489.613281 182.550781 L 489.566406 182.519531 L 489.515625 182.492188 L 489.46875 182.460938 L 489.421875 182.433594 L 489.378906 182.402344 L 489.332031 182.371094 L 489.289062 182.335938 L 489.25 182.304688 L 489.207031 182.273438 L 489.089844 182.167969 L 489.054688 182.128906 L 489.019531 182.09375 L 488.984375 182.054688 L 488.949219 182.011719 L 488.917969 181.972656 L 488.886719 181.929688 L 488.859375 181.886719 L 488.804688 181.792969 L 488.757812 181.699219 L 488.734375 181.648438 L 488.695312 181.546875 L 488.675781 181.492188 L 488.660156 181.4375 L 488.644531 181.378906 L 488.628906 181.324219 L 488.613281 181.261719 L 488.601562 181.203125 L 488.589844 181.136719 L 488.582031 181.074219 L 488.574219 181.007812 L 488.566406 180.867188 L 488.5625 180.792969 L 488.5625 180.625 L 488.566406 180.53125 L 488.574219 180.441406 L 488.582031 180.355469 L 488.59375 180.269531 L 488.605469 180.1875 L 488.636719 180.03125 L 488.660156 179.957031 L 488.679688 179.886719 L 488.761719 179.6875 L 488.867188 179.511719 L 488.910156 179.457031 L 488.953125 179.40625 L 488.996094 179.359375 L 489.046875 179.3125 L 489.148438 179.226562 L 489.207031 179.1875 L 489.265625 179.152344 L 489.328125 179.117188 L 489.460938 179.054688 L 489.53125 179.027344 L 489.679688 178.980469 L 489.757812 178.960938 L 489.839844 178.941406 L 489.925781 178.925781 L 490.105469 178.902344 L 490.199219 178.894531 L 490.296875 178.886719 L 490.398438 178.882812 L 490.503906 178.878906 L 494.480469 178.878906 Z M 494.480469 179.851562 "/>
<path fill-rule="nonzero" fill="rgb(38.431373%, 59.215686%, 90.588235%)" fill-opacity="1" d="M 488.671875 188.710938 L 492.519531 188.710938 L 492.597656 188.707031 L 492.671875 188.703125 L 492.8125 188.6875 L 492.945312 188.671875 L 493.121094 188.636719 L 493.222656 188.605469 L 493.273438 188.585938 L 493.320312 188.566406 L 493.363281 188.546875 L 493.40625 188.523438 L 493.484375 188.476562 L 493.519531 188.449219 L 493.554688 188.417969 L 493.585938 188.390625 L 493.617188 188.355469 L 493.644531 188.324219 L 493.671875 188.285156 L 493.695312 188.25 L 493.714844 188.207031 L 493.734375 188.167969 L 493.753906 188.125 L 493.765625 188.078125 L 493.78125 188.03125 L 493.792969 187.984375 L 493.804688 187.933594 L 493.816406 187.878906 L 493.824219 187.824219 L 493.832031 187.765625 L 493.835938 187.707031 L 493.839844 187.644531 L 493.839844 187.582031 L 493.84375 187.515625 L 493.839844 187.445312 L 493.832031 187.3125 L 493.824219 187.25 L 493.8125 187.1875 L 493.796875 187.125 L 493.78125 187.066406 L 493.761719 187.003906 L 493.742188 186.949219 L 493.71875 186.890625 L 493.695312 186.835938 L 493.667969 186.785156 L 493.605469 186.683594 L 493.574219 186.636719 L 493.535156 186.589844 L 493.5 186.542969 L 493.414062 186.457031 L 493.371094 186.417969 L 493.324219 186.378906 L 493.222656 186.308594 L 493.171875 186.277344 L 493.117188 186.246094 L 493 186.191406 L 492.9375 186.164062 L 492.804688 186.117188 L 492.738281 186.097656 L 492.667969 186.078125 L 492.597656 186.0625 L 492.523438 186.050781 L 492.445312 186.039062 L 492.371094 186.027344 L 492.289062 186.019531 L 492.125 186.011719 L 488.671875 186.011719 L 488.671875 185.042969 L 493.464844 185.042969 L 493.503906 185.039062 L 493.78125 185.039062 L 493.820312 185.035156 L 493.96875 185.035156 L 494.003906 185.03125 L 494.109375 185.03125 L 494.140625 185.027344 L 494.203125 185.027344 L 494.234375 185.023438 L 494.316406 185.023438 L 494.339844 185.019531 L 494.402344 185.019531 L 494.421875 185.015625 L 494.449219 185.015625 L 494.460938 185.011719 L 494.480469 185.011719 L 494.480469 185.925781 L 494.457031 185.925781 L 494.445312 185.929688 L 494.417969 185.929688 L 494.398438 185.933594 L 494.335938 185.933594 L 494.3125 185.9375 L 494.234375 185.9375 L 494.207031 185.941406 L 494.152344 185.941406 L 494.125 185.945312 L 494.0625 185.945312 L 494.03125 185.949219 L 494.003906 185.949219 L 493.972656 185.953125 L 493.941406 185.953125 L 493.910156 185.957031 L 493.847656 185.957031 L 493.816406 185.960938 L 493.75 185.960938 L 493.71875 185.964844 L 493.582031 185.964844 L 493.554688 185.96875 L 493.488281 185.96875 L 493.488281 185.984375 L 493.539062 186.011719 L 493.585938 186.039062 L 493.636719 186.070312 L 493.683594 186.097656 L 493.726562 186.128906 L 493.773438 186.160156 L 493.859375 186.222656 L 493.902344 186.257812 L 493.945312 186.289062 L 494.0625 186.394531 L 494.097656 186.429688 L 494.167969 186.507812 L 494.199219 186.550781 L 494.230469 186.589844 L 494.257812 186.632812 L 494.289062 186.675781 L 494.316406 186.722656 L 494.34375 186.765625 L 494.367188 186.8125 L 494.394531 186.863281 L 494.414062 186.914062 L 494.4375 186.964844 L 494.457031 187.015625 L 494.476562 187.070312 L 494.507812 187.179688 L 494.539062 187.296875 L 494.550781 187.359375 L 494.558594 187.421875 L 494.570312 187.488281 L 494.574219 187.554688 L 494.582031 187.625 L 494.589844 187.765625 L 494.589844 187.84375 L 494.585938 187.9375 L 494.585938 188.03125 L 494.578125 188.121094 L 494.570312 188.207031 L 494.558594 188.292969 L 494.546875 188.375 L 494.53125 188.453125 L 494.511719 188.53125 L 494.492188 188.601562 L 494.472656 188.675781 L 494.417969 188.808594 L 494.355469 188.933594 L 494.320312 188.992188 L 494.242188 189.101562 L 494.199219 189.152344 L 494.152344 189.203125 L 494.105469 189.25 L 494.054688 189.292969 L 494 189.335938 L 493.945312 189.375 L 493.820312 189.445312 L 493.757812 189.476562 L 493.617188 189.53125 L 493.542969 189.554688 L 493.464844 189.578125 L 493.386719 189.597656 L 493.304688 189.617188 L 493.222656 189.632812 L 493.042969 189.65625 L 492.949219 189.667969 L 492.851562 189.675781 L 492.648438 189.683594 L 488.671875 189.683594 Z M 488.671875 188.710938 "/>
<path fill-rule="nonzero" fill="rgb(38.431373%, 59.215686%, 90.588235%)" fill-opacity="1" d="M 488.714844 193.375 L 488.703125 193.328125 L 488.679688 193.242188 L 488.671875 193.195312 L 488.660156 193.152344 L 488.644531 193.058594 L 488.636719 193.015625 L 488.621094 192.921875 L 488.613281 192.878906 L 488.609375 192.828125 L 488.601562 192.78125 L 488.59375 192.679688 L 488.585938 192.570312 L 488.585938 192.398438 L 488.597656 192.175781 L 488.636719 191.980469 L 488.703125 191.804688 L 488.792969 191.652344 L 488.914062 191.527344 L 489.058594 191.421875 L 489.230469 191.339844 L 489.425781 191.28125 L 489.648438 191.246094 L 489.898438 191.238281 L 493.777344 191.234375 L 493.777344 190.566406 L 494.480469 190.566406 L 494.480469 191.273438 L 495.78125 191.558594 L 495.78125 192.203125 L 494.480469 192.203125 L 494.480469 193.277344 L 493.777344 193.277344 L 493.777344 192.203125 L 490.027344 192.203125 L 489.953125 192.207031 L 489.878906 192.214844 L 489.8125 192.226562 L 489.695312 192.25 L 489.644531 192.269531 L 489.597656 192.289062 L 489.554688 192.3125 L 489.519531 192.335938 L 489.488281 192.367188 L 489.457031 192.402344 L 489.433594 192.4375 L 489.410156 192.480469 L 489.394531 192.527344 L 489.378906 192.578125 L 489.367188 192.628906 L 489.359375 192.6875 L 489.355469 192.75 L 489.351562 192.816406 L 489.351562 192.871094 L 489.355469 192.898438 L 489.355469 192.925781 L 489.359375 192.953125 L 489.359375 192.980469 L 489.363281 193.003906 L 489.375 193.085938 L 489.378906 193.109375 L 489.382812 193.136719 L 489.386719 193.167969 L 489.390625 193.195312 L 489.398438 193.222656 L 489.402344 193.253906 L 489.410156 193.28125 L 489.414062 193.3125 L 489.421875 193.34375 L 489.425781 193.375 Z M 488.714844 193.375 "/>
</svg>
