<?xml version="1.0" encoding="UTF-8"?>
<svg xmlns="http://www.w3.org/2000/svg" xmlns:xlink="http://www.w3.org/1999/xlink" width="504" height="360" viewBox="0 0 504 360">
<defs>
<clipPath id="clip-0">
<path clip-rule="nonzero" d="M 18.070312 5.480469 L 498.519531 5.480469 L 498.519531 341.929688 L 18.070312 341.929688 Z M 18.070312 5.480469 "/>
</clipPath>
</defs>
<rect x="-50.4" y="-36" width="604.8" height="432" fill="rgb(100%, 100%, 100%)" fill-opacity="1"/>
<rect x="-50.4" y="-36" width="604.8" height="432" fill="rgb(100%, 100%, 100%)" fill-opacity="1"/>
<path fill="none" stroke-width="1.066978" stroke-linecap="round" stroke-linejoin="round" stroke="rgb(100%, 100%, 100%)" stroke-opacity="1" stroke-miterlimit="10" d="M 0 360 L 504 360 L 504 0 L 0 0 Z M 0 360 "/>
<g clip-path="url(#clip-0)">
<path fill-rule="nonzero" fill="rgb(92.156863%, 92.156863%, 92.156863%)" fill-opacity="1" d="M 18.070312 341.929688 L 498.519531 341.929688 L 498.519531 5.480469 L 18.070312 5.480469 Z M 18.070312 341.929688 "/>
</g>
<path fill-rule="nonzero" fill="rgb(0%, 0%, 0%)" fill-opacity="1" d="M 247.542969 349.304688 L 247.546875 349.40625 L 247.546875 349.5 L 247.550781 349.597656 L 247.554688 349.691406 L 247.5625 349.785156 L 247.578125 349.964844 L 247.589844 350.054688 L 247.601562 350.140625 L 247.613281 350.222656 L 247.628906 350.304688 L 247.648438 350.386719 L 247.667969 350.464844 L 247.738281 350.6875 L 247.765625 350.753906 L 247.828125 350.886719 L 247.863281 350.949219 L 247.898438 351.007812 L 247.933594 351.0625 L 247.972656 351.117188 L 248.015625 351.167969 L 248.058594 351.214844 L 248.105469 351.261719 L 248.15625 351.304688 L 248.257812 351.382812 L 248.3125 351.417969 L 248.371094 351.449219 L 248.433594 351.476562 L 248.496094 351.5 L 248.5625 351.523438 L 248.628906 351.539062 L 248.699219 351.554688 L 248.773438 351.566406 L 248.929688 351.582031 L 249.011719 351.582031 L 249.113281 351.578125 L 249.210938 351.570312 L 249.304688 351.558594 L 249.394531 351.539062 L 249.484375 351.511719 L 249.566406 351.480469 L 249.648438 351.445312 L 249.726562 351.402344 L 249.800781 351.355469 L 249.871094 351.304688 L 249.9375 351.246094 L 250 351.179688 L 250.054688 351.109375 L 250.105469 351.03125 L 250.152344 350.949219 L 250.191406 350.859375 L 250.226562 350.765625 L 250.257812 350.664062 L 250.28125 350.558594 L 250.300781 350.445312 L 251.277344 350.507812 L 251.265625 350.578125 L 251.253906 350.652344 L 251.222656 350.792969 L 251.203125 350.863281 L 251.179688 350.929688 L 251.15625 351 L 251.128906 351.066406 L 251.097656 351.132812 L 251.066406 351.203125 L 251.035156 351.265625 L 251 351.332031 L 250.960938 351.394531 L 250.921875 351.453125 L 250.878906 351.515625 L 250.832031 351.570312 L 250.785156 351.628906 L 250.734375 351.683594 L 250.683594 351.734375 L 250.628906 351.785156 L 250.570312 351.835938 L 250.453125 351.929688 L 250.390625 351.972656 L 250.324219 352.015625 L 250.183594 352.09375 L 250.035156 352.164062 L 249.957031 352.195312 L 249.792969 352.25 L 249.707031 352.273438 L 249.617188 352.292969 L 249.527344 352.308594 L 249.339844 352.332031 L 249.242188 352.339844 L 249.140625 352.34375 L 248.902344 352.34375 L 248.773438 352.335938 L 248.648438 352.324219 L 248.523438 352.308594 L 248.40625 352.289062 L 248.292969 352.261719 L 248.183594 352.230469 L 248.078125 352.199219 L 247.976562 352.15625 L 247.878906 352.113281 L 247.785156 352.066406 L 247.695312 352.015625 L 247.605469 351.960938 L 247.523438 351.902344 L 247.445312 351.839844 L 247.367188 351.773438 L 247.296875 351.707031 L 247.226562 351.636719 L 247.160156 351.558594 L 247.097656 351.480469 L 247.042969 351.398438 L 246.988281 351.3125 L 246.886719 351.132812 L 246.84375 351.039062 L 246.800781 350.941406 L 246.730469 350.738281 L 246.699219 350.632812 L 246.667969 350.523438 L 246.644531 350.414062 L 246.621094 350.300781 L 246.582031 350.066406 L 246.570312 349.949219 L 246.554688 349.828125 L 246.546875 349.707031 L 246.539062 349.582031 L 246.535156 349.453125 L 246.535156 349.210938 L 246.539062 349.097656 L 246.542969 348.988281 L 246.550781 348.878906 L 246.558594 348.777344 L 246.582031 348.574219 L 246.613281 348.386719 L 246.652344 348.207031 L 246.671875 348.121094 L 246.695312 348.035156 L 246.722656 347.953125 L 246.746094 347.875 L 246.773438 347.796875 L 246.835938 347.648438 L 246.867188 347.578125 L 246.898438 347.511719 L 246.9375 347.445312 L 246.972656 347.378906 L 247.011719 347.320312 L 247.050781 347.257812 L 247.09375 347.199219 L 247.132812 347.144531 L 247.175781 347.09375 L 247.222656 347.042969 L 247.265625 346.992188 L 247.3125 346.949219 L 247.363281 346.902344 L 247.410156 346.859375 L 247.460938 346.816406 L 247.507812 346.777344 L 247.558594 346.742188 L 247.609375 346.703125 L 247.664062 346.671875 L 247.714844 346.640625 L 247.769531 346.609375 L 247.878906 346.554688 L 247.9375 346.53125 L 247.996094 346.503906 L 248.050781 346.484375 L 248.109375 346.460938 L 248.167969 346.445312 L 248.226562 346.425781 L 248.289062 346.410156 L 248.347656 346.394531 L 248.472656 346.371094 L 248.53125 346.359375 L 248.71875 346.335938 L 248.777344 346.328125 L 248.902344 346.320312 L 249.125 346.320312 L 249.21875 346.324219 L 249.3125 346.332031 L 249.402344 346.339844 L 249.488281 346.351562 L 249.660156 346.382812 L 249.742188 346.40625 L 249.820312 346.425781 L 249.898438 346.453125 L 249.972656 346.480469 L 250.046875 346.511719 L 250.117188 346.542969 L 250.25 346.613281 L 250.316406 346.652344 L 250.378906 346.691406 L 250.496094 346.777344 L 250.550781 346.824219 L 250.609375 346.871094 L 250.660156 346.917969 L 250.710938 346.96875 L 250.804688 347.078125 L 250.890625 347.1875 L 250.929688 347.25 L 250.96875 347.308594 L 251.039062 347.433594 L 251.070312 347.5 L 251.125 347.632812 L 251.148438 347.699219 L 251.195312 347.839844 L 251.214844 347.910156 L 251.230469 347.980469 L 251.246094 348.054688 L 250.25 348.128906 L 250.234375 348.035156 L 250.1875 347.855469 L 250.15625 347.773438 L 250.117188 347.695312 L 250.078125 347.621094 L 250.035156 347.550781 L 249.984375 347.484375 L 249.929688 347.417969 L 249.871094 347.359375 L 249.808594 347.308594 L 249.738281 347.257812 L 249.664062 347.214844 L 249.585938 347.179688 L 249.5 347.148438 L 249.410156 347.121094 L 249.316406 347.101562 L 249.214844 347.085938 L 249.109375 347.078125 L 248.917969 347.078125 L 248.839844 347.082031 L 248.691406 347.097656 L 248.621094 347.109375 L 248.550781 347.125 L 248.425781 347.164062 L 248.363281 347.1875 L 248.308594 347.214844 L 248.253906 347.246094 L 248.203125 347.273438 L 248.152344 347.308594 L 248.058594 347.386719 L 248.015625 347.429688 L 247.972656 347.476562 L 247.933594 347.523438 L 247.898438 347.574219 L 247.863281 347.628906 L 247.828125 347.6875 L 247.796875 347.746094 L 247.765625 347.808594 L 247.738281 347.871094 L 247.691406 348.011719 L 247.667969 348.085938 L 247.648438 348.160156 L 247.628906 348.238281 L 247.613281 348.324219 L 247.601562 348.40625 L 247.578125 348.585938 L 247.570312 348.679688 L 247.5625 348.777344 L 247.554688 348.878906 L 247.550781 348.980469 L 247.546875 349.085938 L 247.546875 349.195312 Z M 247.542969 349.304688 "/>
<path fill-rule="nonzero" fill="rgb(0%, 0%, 0%)" fill-opacity="1" d="M 253.792969 352.34375 L 253.621094 352.339844 L 253.457031 352.328125 L 253.304688 352.304688 L 253.160156 352.269531 L 253.023438 352.230469 L 252.898438 352.179688 L 252.777344 352.117188 L 252.667969 352.050781 L 252.566406 351.972656 L 252.476562 351.882812 L 252.390625 351.789062 L 252.316406 351.683594 L 252.25 351.574219 L 252.195312 351.457031 L 252.144531 351.335938 L 252.105469 351.207031 L 252.074219 351.066406 L 252.054688 350.925781 L 252.039062 350.773438 L 252.035156 350.617188 L 252.039062 350.503906 L 252.042969 350.394531 L 252.054688 350.289062 L 252.070312 350.191406 L 252.089844 350.09375 L 252.113281 350 L 252.140625 349.914062 L 252.171875 349.832031 L 252.210938 349.75 L 252.25 349.675781 L 252.296875 349.601562 L 252.34375 349.535156 L 252.394531 349.46875 L 252.445312 349.40625 L 252.503906 349.34375 L 252.621094 349.234375 L 252.683594 349.1875 L 252.75 349.140625 L 252.890625 349.054688 L 252.964844 349.015625 L 253.039062 348.980469 L 253.117188 348.949219 L 253.199219 348.917969 L 253.28125 348.890625 L 253.363281 348.867188 L 253.449219 348.84375 L 253.535156 348.824219 L 253.625 348.804688 L 253.714844 348.789062 L 253.804688 348.777344 L 253.898438 348.761719 L 253.988281 348.753906 L 254.082031 348.742188 L 254.171875 348.734375 L 254.265625 348.726562 L 254.355469 348.722656 L 254.542969 348.714844 L 255.847656 348.691406 L 255.847656 348.304688 L 255.84375 348.238281 L 255.84375 348.167969 L 255.828125 348.042969 L 255.8125 347.925781 L 255.800781 347.867188 L 255.789062 347.816406 L 255.757812 347.714844 L 255.738281 347.667969 L 255.722656 347.621094 L 255.699219 347.578125 L 255.679688 347.535156 L 255.652344 347.496094 L 255.628906 347.457031 L 255.574219 347.386719 L 255.511719 347.324219 L 255.441406 347.269531 L 255.40625 347.246094 L 255.328125 347.199219 L 255.242188 347.160156 L 255.148438 347.128906 L 255.101562 347.117188 L 255.054688 347.101562 L 255.003906 347.089844 L 254.953125 347.082031 L 254.84375 347.066406 L 254.726562 347.058594 L 254.664062 347.054688 L 254.492188 347.054688 L 254.441406 347.058594 L 254.386719 347.0625 L 254.285156 347.070312 L 254.238281 347.074219 L 254.097656 347.097656 L 254.054688 347.105469 L 254.011719 347.117188 L 253.96875 347.125 L 253.925781 347.140625 L 253.886719 347.152344 L 253.847656 347.167969 L 253.8125 347.183594 L 253.773438 347.203125 L 253.738281 347.222656 L 253.707031 347.242188 L 253.671875 347.265625 L 253.640625 347.285156 L 253.613281 347.3125 L 253.582031 347.335938 L 253.554688 347.363281 L 253.527344 347.394531 L 253.480469 347.457031 L 253.457031 347.492188 L 253.417969 347.5625 L 253.398438 347.601562 L 253.382812 347.640625 L 253.367188 347.683594 L 253.351562 347.730469 L 253.339844 347.773438 L 253.328125 347.824219 L 253.320312 347.871094 L 253.308594 347.925781 L 253.300781 347.980469 L 252.292969 347.886719 L 252.316406 347.753906 L 252.332031 347.6875 L 252.351562 347.621094 L 252.390625 347.496094 L 252.414062 347.433594 L 252.496094 347.257812 L 252.527344 347.203125 L 252.5625 347.144531 L 252.597656 347.09375 L 252.636719 347.039062 L 252.679688 346.988281 L 252.722656 346.941406 L 252.769531 346.890625 L 252.816406 346.847656 L 252.867188 346.800781 L 252.921875 346.757812 L 253.039062 346.679688 L 253.101562 346.640625 L 253.167969 346.605469 L 253.234375 346.574219 L 253.304688 346.542969 L 253.378906 346.511719 L 253.453125 346.484375 L 253.53125 346.460938 L 253.613281 346.4375 L 253.699219 346.414062 L 253.789062 346.394531 L 253.882812 346.375 L 253.976562 346.363281 L 254.074219 346.347656 L 254.179688 346.335938 L 254.285156 346.328125 L 254.394531 346.324219 L 254.507812 346.320312 L 254.625 346.320312 L 254.835938 346.324219 L 255.039062 346.339844 L 255.234375 346.363281 L 255.414062 346.398438 L 255.585938 346.445312 L 255.742188 346.5 L 255.890625 346.566406 L 256.03125 346.640625 L 256.15625 346.726562 L 256.273438 346.824219 L 256.378906 346.929688 L 256.472656 347.042969 L 256.554688 347.164062 L 256.628906 347.296875 L 256.6875 347.4375 L 256.738281 347.585938 L 256.777344 347.746094 L 256.804688 347.910156 L 256.820312 348.089844 L 256.824219 348.273438 L 256.824219 350.777344 L 256.832031 350.941406 L 256.835938 351.015625 L 256.84375 351.085938 L 256.867188 351.21875 L 256.882812 351.277344 L 256.898438 351.332031 L 256.9375 351.425781 L 256.964844 351.46875 L 256.992188 351.503906 L 257.023438 351.535156 L 257.101562 351.589844 L 257.195312 351.621094 L 257.25 351.632812 L 257.308594 351.640625 L 257.449219 351.640625 L 257.464844 351.636719 L 257.496094 351.636719 L 257.511719 351.632812 L 257.53125 351.632812 L 257.5625 351.625 L 257.578125 351.625 L 257.609375 351.617188 L 257.625 351.617188 L 257.671875 351.605469 L 257.683594 351.605469 L 257.683594 352.207031 L 257.613281 352.222656 L 257.574219 352.230469 L 257.539062 352.238281 L 257.503906 352.242188 L 257.464844 352.25 L 257.429688 352.253906 L 257.394531 352.261719 L 257.355469 352.265625 L 257.25 352.277344 L 257.210938 352.28125 L 257.175781 352.285156 L 257.136719 352.285156 L 257.097656 352.289062 L 257.019531 352.289062 L 256.980469 352.292969 L 256.9375 352.292969 L 256.886719 352.289062 L 256.832031 352.289062 L 256.730469 352.28125 L 256.636719 352.265625 L 256.59375 352.257812 L 256.546875 352.246094 L 256.507812 352.234375 L 256.464844 352.222656 L 256.429688 352.207031 L 256.390625 352.1875 L 256.355469 352.171875 L 256.324219 352.152344 L 256.289062 352.128906 L 256.257812 352.105469 L 256.203125 352.058594 L 256.175781 352.03125 L 256.148438 352 L 256.125 351.972656 L 256.101562 351.9375 L 256.082031 351.90625 L 256.058594 351.871094 L 256.039062 351.835938 L 256.023438 351.796875 L 256.003906 351.757812 L 255.988281 351.71875 L 255.976562 351.679688 L 255.960938 351.636719 L 255.949219 351.589844 L 255.9375 351.546875 L 255.925781 351.496094 L 255.917969 351.449219 L 255.902344 351.347656 L 255.894531 351.292969 L 255.890625 351.238281 L 255.882812 351.183594 L 255.878906 351.125 L 255.847656 351.125 L 255.753906 351.289062 L 255.613281 351.492188 L 255.542969 351.585938 L 255.503906 351.632812 L 255.46875 351.675781 L 255.390625 351.761719 L 255.261719 351.878906 L 255.21875 351.914062 L 255.125 351.984375 L 255.074219 352.019531 L 255.023438 352.046875 L 254.972656 352.078125 L 254.921875 352.105469 L 254.867188 352.132812 L 254.8125 352.15625 L 254.695312 352.203125 L 254.636719 352.222656 L 254.574219 352.242188 L 254.511719 352.257812 L 254.449219 352.277344 L 254.382812 352.289062 L 254.316406 352.304688 L 254.246094 352.3125 L 254.175781 352.324219 L 254.101562 352.332031 L 254.027344 352.335938 L 253.949219 352.34375 Z M 254.011719 351.621094 L 254.191406 351.613281 L 254.277344 351.605469 L 254.363281 351.59375 L 254.445312 351.578125 L 254.601562 351.539062 L 254.675781 351.511719 L 254.746094 351.484375 L 254.816406 351.453125 L 254.886719 351.417969 L 254.953125 351.382812 L 255.015625 351.34375 L 255.078125 351.300781 L 255.136719 351.257812 L 255.191406 351.214844 L 255.246094 351.167969 L 255.296875 351.121094 L 255.347656 351.070312 L 255.390625 351.019531 L 255.4375 350.964844 L 255.480469 350.910156 L 255.558594 350.800781 L 255.59375 350.742188 L 255.6875 350.566406 L 255.710938 350.503906 L 255.734375 350.445312 L 255.757812 350.382812 L 255.777344 350.320312 L 255.792969 350.257812 L 255.808594 350.199219 L 255.820312 350.140625 L 255.832031 350.078125 L 255.839844 350.019531 L 255.84375 349.960938 L 255.847656 349.90625 L 255.847656 349.371094 L 254.789062 349.390625 L 254.71875 349.394531 L 254.648438 349.394531 L 254.582031 349.398438 L 254.511719 349.402344 L 254.445312 349.40625 L 254.375 349.414062 L 254.308594 349.417969 L 254.242188 349.425781 L 254.179688 349.4375 L 254.113281 349.445312 L 254.050781 349.453125 L 253.988281 349.464844 L 253.929688 349.480469 L 253.871094 349.492188 L 253.707031 349.550781 L 253.65625 349.570312 L 253.605469 349.597656 L 253.554688 349.621094 L 253.507812 349.648438 L 253.460938 349.679688 L 253.417969 349.710938 L 253.378906 349.746094 L 253.335938 349.785156 L 253.300781 349.820312 L 253.230469 349.90625 L 253.199219 349.949219 L 253.167969 350 L 253.140625 350.046875 L 253.117188 350.101562 L 253.097656 350.15625 L 253.078125 350.214844 L 253.0625 350.277344 L 253.050781 350.34375 L 253.042969 350.410156 L 253.035156 350.480469 L 253.03125 350.554688 L 253.027344 350.632812 L 253.03125 350.722656 L 253.039062 350.8125 L 253.050781 350.894531 L 253.070312 350.976562 L 253.09375 351.050781 L 253.121094 351.121094 L 253.152344 351.1875 L 253.191406 351.25 L 253.234375 351.308594 L 253.28125 351.363281 L 253.335938 351.410156 L 253.394531 351.457031 L 253.457031 351.492188 L 253.523438 351.527344 L 253.59375 351.554688 L 253.667969 351.578125 L 253.746094 351.597656 L 253.832031 351.609375 L 253.917969 351.617188 Z M 254.011719 351.621094 "/>
<path fill-rule="nonzero" fill="rgb(0%, 0%, 0%)" fill-opacity="1" d="M 258.449219 352.238281 L 258.449219 347.632812 L 258.445312 347.597656 L 258.445312 347.445312 L 258.441406 347.410156 L 258.441406 347.144531 L 258.4375 347.109375 L 258.4375 347.003906 L 258.433594 346.96875 L 258.433594 346.867188 L 258.429688 346.832031 L 258.429688 346.738281 L 258.425781 346.707031 L 258.425781 346.644531 L 258.421875 346.613281 L 258.421875 346.53125 L 258.417969 346.503906 L 258.417969 346.453125 L 258.414062 346.425781 L 259.328125 346.425781 L 259.332031 346.453125 L 259.332031 346.53125 L 259.335938 346.558594 L 259.335938 346.648438 L 259.339844 346.679688 L 259.339844 346.710938 L 259.34375 346.742188 L 259.34375 346.773438 L 259.347656 346.804688 L 259.347656 346.871094 L 259.351562 346.902344 L 259.351562 346.933594 L 259.355469 346.96875 L 259.355469 347.035156 L 259.359375 347.066406 L 259.359375 347.097656 L 259.363281 347.132812 L 259.363281 347.230469 L 259.367188 347.261719 L 259.367188 347.414062 L 259.371094 347.441406 L 259.371094 347.613281 L 259.394531 347.613281 L 259.414062 347.546875 L 259.433594 347.484375 L 259.457031 347.421875 L 259.476562 347.363281 L 259.5 347.304688 L 259.519531 347.246094 L 259.542969 347.191406 L 259.5625 347.140625 L 259.585938 347.085938 L 259.609375 347.039062 L 259.632812 346.988281 L 259.65625 346.945312 L 259.683594 346.898438 L 259.707031 346.855469 L 259.734375 346.8125 L 259.765625 346.773438 L 259.820312 346.703125 L 259.851562 346.667969 L 259.945312 346.574219 L 260.015625 346.519531 L 260.054688 346.496094 L 260.089844 346.472656 L 260.167969 346.433594 L 260.210938 346.414062 L 260.296875 346.382812 L 260.4375 346.347656 L 260.492188 346.339844 L 260.542969 346.332031 L 260.597656 346.324219 L 260.65625 346.320312 L 260.84375 346.320312 L 260.867188 346.324219 L 260.890625 346.324219 L 260.910156 346.328125 L 260.933594 346.328125 L 260.957031 346.332031 L 260.976562 346.335938 L 261 346.339844 L 261.058594 346.351562 L 261.078125 346.351562 L 261.140625 346.367188 L 261.152344 346.371094 L 261.164062 346.371094 L 261.164062 347.257812 L 261.105469 347.246094 L 261.082031 347.238281 L 261.0625 347.234375 L 261.039062 347.230469 L 261.015625 347.230469 L 260.992188 347.226562 L 260.964844 347.222656 L 260.941406 347.222656 L 260.886719 347.214844 L 260.859375 347.214844 L 260.832031 347.210938 L 260.804688 347.210938 L 260.773438 347.207031 L 260.585938 347.207031 L 260.519531 347.210938 L 260.460938 347.21875 L 260.398438 347.230469 L 260.339844 347.242188 L 260.285156 347.257812 L 260.230469 347.277344 L 260.179688 347.300781 L 260.128906 347.328125 L 260.082031 347.355469 L 260.035156 347.386719 L 259.949219 347.457031 L 259.871094 347.535156 L 259.832031 347.578125 L 259.761719 347.671875 L 259.699219 347.773438 L 259.644531 347.882812 L 259.621094 347.941406 L 259.574219 348.066406 L 259.554688 348.128906 L 259.535156 348.195312 L 259.515625 348.265625 L 259.5 348.335938 L 259.484375 348.410156 L 259.472656 348.480469 L 259.460938 348.558594 L 259.449219 348.632812 L 259.433594 348.789062 L 259.425781 348.871094 L 259.421875 348.953125 L 259.417969 349.039062 L 259.414062 349.121094 L 259.414062 352.238281 Z M 258.449219 352.238281 "/>
<path fill-rule="nonzero" fill="rgb(0%, 0%, 0%)" fill-opacity="1" d="M 263.570312 352.34375 L 263.402344 352.339844 L 263.238281 352.328125 L 263.085938 352.304688 L 262.941406 352.269531 L 262.804688 352.230469 L 262.679688 352.179688 L 262.558594 352.117188 L 262.449219 352.050781 L 262.347656 351.972656 L 262.257812 351.882812 L 262.171875 351.789062 L 262.097656 351.683594 L 262.03125 351.574219 L 261.972656 351.457031 L 261.925781 351.335938 L 261.886719 351.207031 L 261.855469 351.066406 L 261.832031 350.925781 L 261.820312 350.773438 L 261.816406 350.617188 L 261.816406 350.503906 L 261.824219 350.394531 L 261.835938 350.289062 L 261.851562 350.191406 L 261.871094 350.09375 L 261.894531 350 L 261.921875 349.914062 L 261.953125 349.832031 L 261.988281 349.75 L 262.074219 349.601562 L 262.175781 349.46875 L 262.226562 349.40625 L 262.28125 349.34375 L 262.339844 349.289062 L 262.402344 349.234375 L 262.464844 349.1875 L 262.53125 349.140625 L 262.671875 349.054688 L 262.746094 349.015625 L 262.820312 348.980469 L 262.898438 348.949219 L 262.980469 348.917969 L 263.058594 348.890625 L 263.230469 348.84375 L 263.316406 348.824219 L 263.40625 348.804688 L 263.496094 348.789062 L 263.585938 348.777344 L 263.679688 348.761719 L 263.769531 348.753906 L 263.859375 348.742188 L 264.046875 348.726562 L 264.136719 348.722656 L 264.324219 348.714844 L 265.628906 348.691406 L 265.628906 348.304688 L 265.625 348.238281 L 265.621094 348.167969 L 265.617188 348.105469 L 265.609375 348.042969 L 265.59375 347.925781 L 265.582031 347.867188 L 265.570312 347.816406 L 265.539062 347.714844 L 265.5 347.621094 L 265.480469 347.578125 L 265.457031 347.535156 L 265.410156 347.457031 L 265.355469 347.386719 L 265.292969 347.324219 L 265.222656 347.269531 L 265.1875 347.246094 L 265.148438 347.222656 L 265.105469 347.199219 L 265.066406 347.179688 L 265.023438 347.160156 L 264.929688 347.128906 L 264.882812 347.117188 L 264.835938 347.101562 L 264.785156 347.089844 L 264.734375 347.082031 L 264.625 347.066406 L 264.507812 347.058594 L 264.445312 347.054688 L 264.273438 347.054688 L 264.21875 347.058594 L 264.066406 347.070312 L 264.019531 347.074219 L 263.832031 347.105469 L 263.789062 347.117188 L 263.75 347.125 L 263.707031 347.140625 L 263.667969 347.152344 L 263.589844 347.183594 L 263.484375 347.242188 L 263.453125 347.265625 L 263.421875 347.285156 L 263.390625 347.3125 L 263.363281 347.335938 L 263.335938 347.363281 L 263.308594 347.394531 L 263.261719 347.457031 L 263.238281 347.492188 L 263.199219 347.5625 L 263.179688 347.601562 L 263.164062 347.640625 L 263.148438 347.683594 L 263.132812 347.730469 L 263.121094 347.773438 L 263.109375 347.824219 L 263.097656 347.871094 L 263.082031 347.980469 L 262.074219 347.886719 L 262.097656 347.753906 L 262.113281 347.6875 L 262.132812 347.621094 L 262.171875 347.496094 L 262.195312 347.433594 L 262.277344 347.257812 L 262.308594 347.203125 L 262.34375 347.144531 L 262.378906 347.09375 L 262.417969 347.039062 L 262.460938 346.988281 L 262.503906 346.941406 L 262.550781 346.890625 L 262.597656 346.847656 L 262.648438 346.800781 L 262.703125 346.757812 L 262.757812 346.71875 L 262.882812 346.640625 L 262.945312 346.605469 L 263.085938 346.542969 L 263.160156 346.511719 L 263.234375 346.484375 L 263.3125 346.460938 L 263.394531 346.4375 L 263.480469 346.414062 L 263.660156 346.375 L 263.757812 346.363281 L 263.855469 346.347656 L 263.960938 346.335938 L 264.066406 346.328125 L 264.175781 346.324219 L 264.289062 346.320312 L 264.40625 346.320312 L 264.617188 346.324219 L 264.820312 346.339844 L 265.011719 346.363281 L 265.195312 346.398438 L 265.363281 346.445312 L 265.523438 346.5 L 265.671875 346.566406 L 265.8125 346.640625 L 265.9375 346.726562 L 266.054688 346.824219 L 266.160156 346.929688 L 266.253906 347.042969 L 266.335938 347.164062 L 266.40625 347.296875 L 266.46875 347.4375 L 266.519531 347.585938 L 266.558594 347.746094 L 266.585938 347.910156 L 266.601562 348.089844 L 266.605469 348.273438 L 266.605469 350.777344 L 266.613281 350.941406 L 266.617188 351.015625 L 266.625 351.085938 L 266.648438 351.21875 L 266.664062 351.277344 L 266.679688 351.332031 L 266.71875 351.425781 L 266.746094 351.46875 L 266.773438 351.503906 L 266.804688 351.535156 L 266.882812 351.589844 L 266.976562 351.621094 L 267.03125 351.632812 L 267.089844 351.640625 L 267.230469 351.640625 L 267.246094 351.636719 L 267.277344 351.636719 L 267.292969 351.632812 L 267.308594 351.632812 L 267.328125 351.628906 L 267.34375 351.625 L 267.359375 351.625 L 267.390625 351.617188 L 267.40625 351.617188 L 267.453125 351.605469 L 267.464844 351.605469 L 267.464844 352.207031 L 267.394531 352.222656 L 267.355469 352.230469 L 267.320312 352.238281 L 267.285156 352.242188 L 267.246094 352.25 L 267.210938 352.253906 L 267.175781 352.261719 L 267.136719 352.265625 L 267.066406 352.273438 L 267.027344 352.277344 L 266.992188 352.28125 L 266.953125 352.285156 L 266.917969 352.285156 L 266.878906 352.289062 L 266.800781 352.289062 L 266.761719 352.292969 L 266.71875 352.292969 L 266.664062 352.289062 L 266.613281 352.289062 L 266.511719 352.28125 L 266.417969 352.265625 L 266.375 352.257812 L 266.328125 352.246094 L 266.289062 352.234375 L 266.246094 352.222656 L 266.210938 352.207031 L 266.171875 352.1875 L 266.136719 352.171875 L 266.105469 352.152344 L 266.070312 352.128906 L 266.039062 352.105469 L 266.011719 352.082031 L 265.980469 352.058594 L 265.957031 352.03125 L 265.929688 352 L 265.90625 351.972656 L 265.882812 351.9375 L 265.863281 351.90625 L 265.839844 351.871094 L 265.820312 351.835938 L 265.804688 351.796875 L 265.785156 351.757812 L 265.753906 351.679688 L 265.742188 351.636719 L 265.730469 351.589844 L 265.71875 351.546875 L 265.707031 351.496094 L 265.699219 351.449219 L 265.683594 351.347656 L 265.675781 351.292969 L 265.671875 351.238281 L 265.664062 351.183594 L 265.660156 351.125 L 265.628906 351.125 L 265.566406 351.234375 L 265.53125 351.289062 L 265.5 351.339844 L 265.394531 351.492188 L 265.324219 351.585938 L 265.285156 351.632812 L 265.25 351.675781 L 265.171875 351.761719 L 265.042969 351.878906 L 265 351.914062 L 264.90625 351.984375 L 264.855469 352.019531 L 264.804688 352.046875 L 264.753906 352.078125 L 264.703125 352.105469 L 264.648438 352.132812 L 264.589844 352.15625 L 264.535156 352.179688 L 264.476562 352.203125 L 264.414062 352.222656 L 264.355469 352.242188 L 264.292969 352.257812 L 264.230469 352.277344 L 264.164062 352.289062 L 264.097656 352.304688 L 264.027344 352.3125 L 263.957031 352.324219 L 263.882812 352.332031 L 263.808594 352.335938 L 263.730469 352.34375 Z M 263.792969 351.621094 L 263.972656 351.613281 L 264.058594 351.605469 L 264.144531 351.59375 L 264.226562 351.578125 L 264.382812 351.539062 L 264.457031 351.511719 L 264.527344 351.484375 L 264.597656 351.453125 L 264.667969 351.417969 L 264.734375 351.382812 L 264.796875 351.34375 L 264.859375 351.300781 L 264.917969 351.257812 L 264.972656 351.214844 L 265.027344 351.167969 L 265.078125 351.121094 L 265.171875 351.019531 L 265.21875 350.964844 L 265.261719 350.910156 L 265.339844 350.800781 L 265.375 350.742188 L 265.4375 350.625 L 265.464844 350.566406 L 265.492188 350.503906 L 265.515625 350.445312 L 265.539062 350.382812 L 265.558594 350.320312 L 265.574219 350.257812 L 265.589844 350.199219 L 265.601562 350.140625 L 265.613281 350.078125 L 265.621094 350.019531 L 265.625 349.960938 L 265.628906 349.90625 L 265.628906 349.371094 L 264.570312 349.390625 L 264.5 349.394531 L 264.429688 349.394531 L 264.363281 349.398438 L 264.292969 349.402344 L 264.226562 349.40625 L 264.15625 349.414062 L 264.089844 349.417969 L 264.023438 349.425781 L 263.960938 349.4375 L 263.894531 349.445312 L 263.832031 349.453125 L 263.769531 349.464844 L 263.710938 349.480469 L 263.652344 349.492188 L 263.488281 349.550781 L 263.4375 349.570312 L 263.386719 349.597656 L 263.335938 349.621094 L 263.289062 349.648438 L 263.242188 349.679688 L 263.199219 349.710938 L 263.15625 349.746094 L 263.082031 349.820312 L 263.042969 349.863281 L 262.980469 349.949219 L 262.949219 350 L 262.921875 350.046875 L 262.898438 350.101562 L 262.878906 350.15625 L 262.859375 350.214844 L 262.84375 350.277344 L 262.820312 350.410156 L 262.816406 350.480469 L 262.8125 350.554688 L 262.808594 350.632812 L 262.8125 350.722656 L 262.820312 350.8125 L 262.832031 350.894531 L 262.851562 350.976562 L 262.871094 351.050781 L 262.902344 351.121094 L 262.933594 351.1875 L 262.972656 351.25 L 263.015625 351.308594 L 263.0625 351.363281 L 263.171875 351.457031 L 263.234375 351.492188 L 263.300781 351.527344 L 263.375 351.554688 L 263.449219 351.578125 L 263.527344 351.597656 L 263.613281 351.609375 L 263.699219 351.617188 Z M 263.792969 351.621094 "/>
<path fill-rule="nonzero" fill="rgb(0%, 0%, 0%)" fill-opacity="1" d="M 270.441406 352.195312 L 270.398438 352.207031 L 270.351562 352.21875 L 270.308594 352.226562 L 270.265625 352.238281 L 270.21875 352.246094 L 270.171875 352.257812 L 270.128906 352.265625 L 270.035156 352.28125 L 269.992188 352.285156 L 269.898438 352.300781 L 269.746094 352.3125 L 269.582031 352.324219 L 269.464844 352.324219 L 269.242188 352.3125 L 269.046875 352.269531 L 268.871094 352.207031 L 268.722656 352.113281 L 268.59375 351.996094 L 268.488281 351.851562 L 268.410156 351.679688 L 268.351562 351.480469 L 268.316406 351.257812 L 268.304688 351.007812 L 268.304688 347.128906 L 267.632812 347.128906 L 267.632812 346.425781 L 268.339844 346.425781 L 268.625 345.125 L 269.269531 345.125 L 269.269531 346.425781 L 270.34375 346.425781 L 270.34375 347.128906 L 269.269531 347.128906 L 269.269531 350.796875 L 269.273438 350.878906 L 269.277344 350.957031 L 269.28125 351.027344 L 269.292969 351.09375 L 269.304688 351.15625 L 269.335938 351.265625 L 269.355469 351.3125 L 269.378906 351.351562 L 269.40625 351.390625 L 269.433594 351.421875 L 269.46875 351.449219 L 269.546875 351.496094 L 269.59375 351.515625 L 269.644531 351.527344 L 269.699219 351.539062 L 269.757812 351.550781 L 269.816406 351.554688 L 269.964844 351.554688 L 269.992188 351.550781 L 270.019531 351.550781 L 270.046875 351.546875 L 270.074219 351.546875 L 270.101562 351.542969 L 270.125 351.539062 L 270.179688 351.53125 L 270.207031 351.523438 L 270.261719 351.515625 L 270.292969 351.511719 L 270.320312 351.503906 L 270.351562 351.5 L 270.378906 351.492188 L 270.410156 351.488281 L 270.441406 351.480469 Z M 270.441406 352.195312 "/>
<path fill-rule="nonzero" fill="rgb(0%, 0%, 0%)" fill-opacity="1" d="M 10.113281 179.96875 L 10.246094 179.972656 L 10.375 179.972656 L 10.75 179.996094 L 10.871094 180.007812 L 11.105469 180.039062 L 11.222656 180.058594 L 11.332031 180.078125 L 11.445312 180.101562 L 11.550781 180.125 L 11.65625 180.15625 L 11.757812 180.1875 L 11.855469 180.222656 L 11.949219 180.257812 L 12.128906 180.34375 L 12.214844 180.386719 L 12.296875 180.4375 L 12.375 180.488281 L 12.449219 180.542969 L 12.523438 180.601562 L 12.589844 180.660156 L 12.65625 180.726562 L 12.71875 180.792969 L 12.773438 180.863281 L 12.828125 180.9375 L 12.882812 181.015625 L 12.929688 181.097656 L 12.972656 181.183594 L 13.011719 181.269531 L 13.042969 181.359375 L 13.074219 181.457031 L 13.097656 181.554688 L 13.117188 181.65625 L 13.132812 181.765625 L 13.144531 181.875 L 13.152344 181.988281 L 13.15625 182.109375 L 13.152344 182.230469 L 13.144531 182.351562 L 13.132812 182.46875 L 13.117188 182.582031 L 13.070312 182.800781 L 13.039062 182.902344 L 13.003906 183.003906 L 12.964844 183.101562 L 12.917969 183.199219 L 12.867188 183.289062 L 12.8125 183.375 L 12.75 183.457031 L 12.679688 183.535156 L 12.605469 183.609375 L 12.527344 183.679688 L 12.441406 183.746094 L 12.347656 183.804688 L 12.25 183.859375 L 12.144531 183.914062 L 12.144531 183.941406 L 12.148438 183.9375 L 12.164062 183.9375 L 12.175781 183.933594 L 12.277344 183.933594 L 12.296875 183.929688 L 12.457031 183.929688 L 12.484375 183.925781 L 12.652344 183.925781 L 12.683594 183.921875 L 12.839844 183.921875 L 12.871094 183.917969 L 15.328125 183.917969 L 15.328125 184.886719 L 8.097656 184.886719 L 8.058594 184.890625 L 7.800781 184.890625 L 7.769531 184.894531 L 7.671875 184.894531 L 7.640625 184.898438 L 7.550781 184.898438 L 7.523438 184.902344 L 7.445312 184.902344 L 7.421875 184.90625 L 7.375 184.90625 L 7.355469 184.910156 L 7.300781 184.910156 L 7.285156 184.914062 L 7.246094 184.914062 L 7.234375 184.917969 L 7.234375 183.984375 L 7.238281 183.980469 L 7.253906 183.980469 L 7.261719 183.976562 L 7.296875 183.976562 L 7.3125 183.972656 L 7.347656 183.972656 L 7.367188 183.96875 L 7.390625 183.96875 L 7.410156 183.964844 L 7.433594 183.964844 L 7.457031 183.960938 L 7.503906 183.960938 L 7.53125 183.957031 L 7.585938 183.957031 L 7.613281 183.953125 L 7.640625 183.953125 L 7.667969 183.949219 L 7.695312 183.949219 L 7.722656 183.945312 L 7.753906 183.945312 L 7.785156 183.941406 L 7.875 183.941406 L 7.90625 183.9375 L 7.9375 183.9375 L 7.96875 183.933594 L 7.996094 183.933594 L 8.027344 183.929688 L 8.171875 183.929688 L 8.171875 183.90625 L 8.0625 183.851562 L 8.011719 183.824219 L 7.960938 183.792969 L 7.914062 183.761719 L 7.867188 183.734375 L 7.820312 183.699219 L 7.777344 183.667969 L 7.738281 183.636719 L 7.621094 183.53125 L 7.585938 183.492188 L 7.550781 183.457031 L 7.519531 183.417969 L 7.484375 183.378906 L 7.457031 183.335938 L 7.429688 183.296875 L 7.375 183.210938 L 7.328125 183.117188 L 7.304688 183.074219 L 7.285156 183.023438 L 7.265625 182.976562 L 7.246094 182.925781 L 7.230469 182.878906 L 7.21875 182.824219 L 7.203125 182.773438 L 7.179688 182.664062 L 7.171875 182.609375 L 7.15625 182.492188 L 7.148438 182.429688 L 7.136719 182.242188 L 7.132812 182.175781 L 7.132812 182.109375 L 7.136719 181.988281 L 7.140625 181.875 L 7.152344 181.765625 L 7.167969 181.65625 L 7.1875 181.554688 L 7.210938 181.457031 L 7.238281 181.359375 L 7.269531 181.269531 L 7.347656 181.097656 L 7.394531 181.015625 L 7.441406 180.9375 L 7.492188 180.863281 L 7.546875 180.792969 L 7.671875 180.660156 L 7.734375 180.601562 L 7.804688 180.542969 L 7.878906 180.488281 L 8.035156 180.386719 L 8.117188 180.34375 L 8.203125 180.300781 L 8.292969 180.257812 L 8.382812 180.222656 L 8.480469 180.1875 L 8.578125 180.15625 L 8.679688 180.125 L 8.785156 180.101562 L 8.894531 180.078125 L 9.121094 180.039062 L 9.234375 180.023438 L 9.351562 180.007812 L 9.472656 179.996094 L 9.722656 179.980469 L 9.851562 179.972656 L 9.980469 179.972656 Z M 10.136719 180.984375 L 10.03125 180.984375 L 9.925781 180.988281 L 9.824219 180.992188 L 9.628906 181 L 9.441406 181.015625 L 9.351562 181.027344 L 9.179688 181.050781 L 9.097656 181.0625 L 9.019531 181.078125 L 8.941406 181.097656 L 8.792969 181.136719 L 8.722656 181.160156 L 8.65625 181.1875 L 8.59375 181.214844 L 8.53125 181.246094 L 8.414062 181.308594 L 8.359375 181.34375 L 8.308594 181.378906 L 8.214844 181.457031 L 8.171875 181.5 L 8.132812 181.546875 L 8.097656 181.59375 L 8.0625 181.644531 L 8.03125 181.695312 L 7.976562 181.804688 L 7.953125 181.863281 L 7.933594 181.925781 L 7.917969 181.992188 L 7.90625 182.058594 L 7.894531 182.128906 L 7.886719 182.203125 L 7.882812 182.277344 L 7.878906 182.355469 L 7.882812 182.417969 L 7.882812 182.480469 L 7.886719 182.546875 L 7.894531 182.605469 L 7.902344 182.667969 L 7.914062 182.726562 L 7.925781 182.789062 L 7.9375 182.847656 L 7.953125 182.90625 L 7.972656 182.960938 L 7.992188 183.019531 L 8.015625 183.074219 L 8.042969 183.125 L 8.070312 183.179688 L 8.105469 183.230469 L 8.140625 183.277344 L 8.179688 183.328125 L 8.269531 183.417969 L 8.320312 183.460938 L 8.375 183.503906 L 8.433594 183.542969 L 8.492188 183.578125 L 8.558594 183.617188 L 8.628906 183.648438 L 8.703125 183.683594 L 8.777344 183.710938 L 8.859375 183.742188 L 8.945312 183.769531 L 9.035156 183.792969 L 9.128906 183.816406 L 9.226562 183.839844 L 9.332031 183.859375 L 9.441406 183.875 L 9.554688 183.886719 L 9.675781 183.898438 L 9.800781 183.90625 L 9.933594 183.914062 L 10.070312 183.917969 L 10.332031 183.917969 L 10.566406 183.910156 L 10.675781 183.902344 L 10.78125 183.890625 L 10.886719 183.882812 L 10.984375 183.867188 L 11.171875 183.835938 L 11.257812 183.816406 L 11.34375 183.792969 L 11.5 183.746094 L 11.574219 183.71875 L 11.644531 183.691406 L 11.710938 183.660156 L 11.773438 183.628906 L 11.835938 183.59375 L 11.890625 183.558594 L 11.945312 183.519531 L 11.996094 183.480469 L 12.046875 183.4375 L 12.089844 183.394531 L 12.132812 183.347656 L 12.171875 183.300781 L 12.210938 183.25 L 12.242188 183.199219 L 12.273438 183.144531 L 12.300781 183.089844 L 12.328125 183.03125 L 12.367188 182.914062 L 12.386719 182.851562 L 12.398438 182.785156 L 12.414062 182.71875 L 12.421875 182.652344 L 12.4375 182.511719 L 12.4375 182.441406 L 12.441406 182.367188 L 12.4375 182.285156 L 12.433594 182.210938 L 12.425781 182.136719 L 12.402344 181.996094 L 12.363281 181.871094 L 12.339844 181.8125 L 12.3125 181.753906 L 12.285156 181.699219 L 12.253906 181.648438 L 12.214844 181.597656 L 12.179688 181.546875 L 12.09375 181.460938 L 12.046875 181.417969 L 12 181.378906 L 11.890625 181.308594 L 11.773438 181.246094 L 11.710938 181.214844 L 11.578125 181.160156 L 11.503906 181.136719 L 11.433594 181.117188 L 11.277344 181.078125 L 11.199219 181.0625 L 11.027344 181.039062 L 10.9375 181.027344 L 10.84375 181.015625 L 10.65625 181 L 10.351562 180.988281 L 10.246094 180.984375 Z M 10.136719 180.984375 "/>
<path fill-rule="nonzero" fill="rgb(0%, 0%, 0%)" fill-opacity="1" d="M 13.046875 178.746094 L 8.367188 178.746094 L 8.332031 178.75 L 8.066406 178.75 L 8.03125 178.753906 L 7.882812 178.753906 L 7.847656 178.757812 L 7.742188 178.757812 L 7.710938 178.761719 L 7.644531 178.761719 L 7.609375 178.765625 L 7.515625 178.765625 L 7.484375 178.769531 L 7.394531 178.769531 L 7.367188 178.773438 L 7.3125 178.773438 L 7.285156 178.777344 L 7.234375 178.777344 L 7.234375 177.863281 L 7.3125 177.863281 L 7.339844 177.859375 L 7.398438 177.859375 L 7.425781 177.855469 L 7.519531 177.855469 L 7.550781 177.851562 L 7.582031 177.851562 L 7.613281 177.847656 L 7.648438 177.847656 L 7.679688 177.84375 L 7.710938 177.84375 L 7.742188 177.839844 L 7.84375 177.839844 L 7.875 177.835938 L 7.910156 177.835938 L 7.941406 177.832031 L 7.972656 177.832031 L 8.007812 177.828125 L 8.164062 177.828125 L 8.195312 177.824219 L 8.355469 177.824219 L 8.378906 177.820312 L 8.421875 177.820312 L 8.421875 177.800781 L 8.355469 177.78125 L 8.292969 177.757812 L 8.230469 177.738281 L 8.171875 177.71875 L 8.113281 177.695312 L 8.054688 177.675781 L 8 177.652344 L 7.949219 177.628906 L 7.898438 177.609375 L 7.847656 177.585938 L 7.800781 177.5625 L 7.753906 177.535156 L 7.707031 177.511719 L 7.664062 177.484375 L 7.546875 177.402344 L 7.511719 177.371094 L 7.476562 177.34375 L 7.414062 177.28125 L 7.382812 177.246094 L 7.355469 177.210938 L 7.332031 177.175781 L 7.304688 177.140625 L 7.28125 177.101562 L 7.261719 177.066406 L 7.242188 177.023438 L 7.226562 176.984375 L 7.207031 176.941406 L 7.195312 176.898438 L 7.179688 176.851562 L 7.167969 176.804688 L 7.15625 176.753906 L 7.148438 176.703125 L 7.140625 176.648438 L 7.132812 176.539062 L 7.128906 176.480469 L 7.128906 176.351562 L 7.132812 176.328125 L 7.132812 176.304688 L 7.136719 176.28125 L 7.140625 176.261719 L 7.140625 176.238281 L 7.144531 176.214844 L 7.148438 176.195312 L 7.152344 176.171875 L 7.160156 176.132812 L 7.164062 176.117188 L 7.164062 176.097656 L 7.171875 176.066406 L 7.175781 176.054688 L 7.179688 176.039062 L 7.183594 176.027344 L 8.066406 176.027344 L 8.058594 176.066406 L 8.054688 176.089844 L 8.050781 176.109375 L 8.03125 176.226562 L 8.03125 176.253906 L 8.027344 176.28125 L 8.023438 176.304688 L 8.023438 176.332031 L 8.019531 176.363281 L 8.019531 176.390625 L 8.015625 176.417969 L 8.015625 176.609375 L 8.019531 176.671875 L 8.027344 176.734375 L 8.050781 176.851562 L 8.070312 176.910156 L 8.089844 176.960938 L 8.109375 177.015625 L 8.136719 177.066406 L 8.164062 177.113281 L 8.195312 177.15625 L 8.230469 177.203125 L 8.265625 177.242188 L 8.304688 177.285156 L 8.34375 177.324219 L 8.386719 177.359375 L 8.433594 177.398438 L 8.480469 177.429688 L 8.53125 177.464844 L 8.582031 177.496094 L 8.636719 177.523438 L 8.695312 177.550781 L 8.75 177.574219 L 8.875 177.621094 L 8.9375 177.640625 L 9.003906 177.660156 L 9.074219 177.679688 L 9.144531 177.695312 L 9.21875 177.710938 L 9.441406 177.746094 L 9.519531 177.753906 L 9.601562 177.761719 L 9.679688 177.769531 L 9.761719 177.773438 L 9.847656 177.777344 L 13.046875 177.777344 Z M 13.046875 178.746094 "/>
<path fill-rule="nonzero" fill="rgb(0%, 0%, 0%)" fill-opacity="1" d="M 6 175.109375 L 5.078125 175.109375 L 5.078125 174.144531 L 6 174.144531 Z M 13.046875 175.109375 L 7.234375 175.109375 L 7.234375 174.144531 L 13.046875 174.144531 Z M 13.046875 175.109375 "/>
<path fill-rule="nonzero" fill="rgb(0%, 0%, 0%)" fill-opacity="1" d="M 10.113281 171.925781 L 10.214844 171.921875 L 10.3125 171.921875 L 10.5 171.914062 L 10.59375 171.90625 L 10.773438 171.890625 L 10.863281 171.878906 L 10.949219 171.867188 L 11.03125 171.855469 L 11.117188 171.839844 L 11.273438 171.800781 L 11.351562 171.777344 L 11.425781 171.753906 L 11.496094 171.730469 L 11.5625 171.703125 L 11.632812 171.671875 L 11.757812 171.609375 L 11.816406 171.570312 L 11.875 171.535156 L 11.925781 171.496094 L 12.027344 171.410156 L 12.070312 171.363281 L 12.113281 171.3125 L 12.152344 171.265625 L 12.191406 171.210938 L 12.226562 171.15625 L 12.257812 171.097656 L 12.285156 171.039062 L 12.332031 170.90625 L 12.351562 170.839844 L 12.367188 170.769531 L 12.378906 170.695312 L 12.386719 170.617188 L 12.390625 170.539062 L 12.390625 170.355469 L 12.382812 170.257812 L 12.367188 170.164062 L 12.347656 170.074219 L 12.320312 169.984375 L 12.292969 169.902344 L 12.253906 169.820312 L 12.214844 169.742188 L 12.164062 169.667969 L 12.113281 169.597656 L 12.054688 169.53125 L 11.988281 169.46875 L 11.917969 169.414062 L 11.839844 169.363281 L 11.757812 169.316406 L 11.667969 169.277344 L 11.574219 169.242188 L 11.472656 169.210938 L 11.367188 169.1875 L 11.253906 169.167969 L 11.316406 168.191406 L 11.390625 168.203125 L 11.460938 168.214844 L 11.53125 168.230469 L 11.671875 168.269531 L 11.738281 168.289062 L 11.808594 168.3125 L 11.875 168.339844 L 11.945312 168.371094 L 12.078125 168.433594 L 12.140625 168.46875 L 12.265625 168.546875 L 12.324219 168.589844 L 12.382812 168.636719 L 12.4375 168.683594 L 12.492188 168.734375 L 12.597656 168.839844 L 12.738281 169.015625 L 12.78125 169.082031 L 12.824219 169.144531 L 12.902344 169.285156 L 12.972656 169.433594 L 13.003906 169.511719 L 13.058594 169.675781 L 13.082031 169.761719 L 13.101562 169.851562 L 13.117188 169.941406 L 13.140625 170.128906 L 13.148438 170.226562 L 13.15625 170.429688 L 13.152344 170.566406 L 13.144531 170.695312 L 13.132812 170.820312 L 13.117188 170.945312 L 13.097656 171.0625 L 13.070312 171.175781 L 13.042969 171.285156 L 13.007812 171.390625 L 12.96875 171.492188 L 12.921875 171.589844 L 12.875 171.683594 L 12.824219 171.777344 L 12.769531 171.863281 L 12.710938 171.945312 L 12.585938 172.101562 L 12.445312 172.242188 L 12.367188 172.308594 L 12.289062 172.371094 L 12.207031 172.425781 L 12.121094 172.480469 L 11.941406 172.582031 L 11.847656 172.625 L 11.75 172.667969 L 11.546875 172.738281 L 11.441406 172.769531 L 11.332031 172.800781 L 11.222656 172.824219 L 11.109375 172.847656 L 10.875 172.886719 L 10.757812 172.902344 L 10.636719 172.914062 L 10.515625 172.921875 L 10.390625 172.929688 L 10.265625 172.933594 L 10.019531 172.933594 L 9.90625 172.929688 L 9.796875 172.925781 L 9.585938 172.910156 L 9.484375 172.898438 L 9.386719 172.886719 L 9.289062 172.871094 L 9.195312 172.855469 L 9.015625 172.816406 L 8.929688 172.796875 L 8.84375 172.773438 L 8.761719 172.746094 L 8.683594 172.722656 L 8.605469 172.695312 L 8.457031 172.632812 L 8.386719 172.601562 L 8.320312 172.570312 L 8.253906 172.53125 L 8.191406 172.496094 L 8.066406 172.417969 L 8.011719 172.375 L 7.957031 172.335938 L 7.902344 172.292969 L 7.851562 172.246094 L 7.804688 172.203125 L 7.710938 172.109375 L 7.667969 172.058594 L 7.625 172.011719 L 7.585938 171.960938 L 7.515625 171.859375 L 7.480469 171.804688 L 7.449219 171.753906 L 7.417969 171.699219 L 7.363281 171.589844 L 7.339844 171.53125 L 7.316406 171.476562 L 7.292969 171.417969 L 7.234375 171.242188 L 7.21875 171.179688 L 7.207031 171.121094 L 7.191406 171.058594 L 7.179688 171 L 7.167969 170.9375 L 7.152344 170.8125 L 7.144531 170.753906 L 7.140625 170.691406 L 7.132812 170.628906 L 7.132812 170.566406 L 7.128906 170.503906 L 7.128906 170.34375 L 7.132812 170.25 L 7.140625 170.160156 L 7.148438 170.066406 L 7.160156 169.980469 L 7.175781 169.894531 L 7.195312 169.808594 L 7.214844 169.730469 L 7.238281 169.648438 L 7.261719 169.570312 L 7.289062 169.496094 L 7.320312 169.421875 L 7.351562 169.351562 L 7.421875 169.21875 L 7.460938 169.152344 L 7.5 169.089844 L 7.585938 168.972656 L 7.679688 168.863281 L 7.730469 168.808594 L 7.78125 168.757812 L 7.832031 168.710938 L 7.886719 168.664062 L 7.941406 168.621094 L 8 168.578125 L 8.117188 168.5 L 8.179688 168.464844 L 8.246094 168.433594 L 8.308594 168.402344 L 8.375 168.371094 L 8.441406 168.34375 L 8.511719 168.320312 L 8.578125 168.296875 L 8.648438 168.273438 L 8.71875 168.253906 L 8.789062 168.238281 L 8.863281 168.222656 L 8.9375 169.21875 L 8.84375 169.234375 L 8.753906 169.257812 L 8.667969 169.28125 L 8.582031 169.3125 L 8.503906 169.351562 L 8.429688 169.390625 L 8.359375 169.4375 L 8.292969 169.484375 L 8.230469 169.539062 L 8.171875 169.597656 L 8.117188 169.664062 L 8.066406 169.730469 L 8.023438 169.804688 L 7.988281 169.886719 L 7.957031 169.96875 L 7.929688 170.058594 L 7.910156 170.152344 L 7.898438 170.253906 L 7.886719 170.359375 L 7.886719 170.550781 L 7.890625 170.628906 L 7.90625 170.777344 L 7.9375 170.917969 L 7.953125 170.980469 L 8 171.105469 L 8.023438 171.160156 L 8.054688 171.214844 L 8.117188 171.316406 L 8.195312 171.410156 L 8.238281 171.453125 L 8.285156 171.496094 L 8.332031 171.535156 L 8.382812 171.570312 L 8.4375 171.609375 L 8.554688 171.671875 L 8.617188 171.703125 L 8.679688 171.730469 L 8.820312 171.777344 L 8.894531 171.800781 L 8.96875 171.820312 L 9.050781 171.839844 L 9.132812 171.855469 L 9.304688 171.878906 L 9.394531 171.890625 L 9.488281 171.898438 L 9.585938 171.90625 L 9.6875 171.914062 L 9.789062 171.917969 L 9.894531 171.921875 L 10.003906 171.921875 Z M 10.113281 171.925781 "/>
<path fill-rule="nonzero" fill="rgb(0%, 0%, 0%)" fill-opacity="1" d="M 10.34375 166.417969 L 10.4375 166.417969 L 10.527344 166.414062 L 10.699219 166.40625 L 10.785156 166.394531 L 10.867188 166.386719 L 10.949219 166.375 L 11.03125 166.359375 L 11.1875 166.328125 L 11.265625 166.308594 L 11.335938 166.285156 L 11.410156 166.261719 L 11.542969 166.207031 L 11.609375 166.175781 L 11.671875 166.144531 L 11.734375 166.109375 L 11.792969 166.074219 L 11.847656 166.039062 L 11.902344 165.996094 L 12.003906 165.910156 L 12.050781 165.863281 L 12.136719 165.761719 L 12.175781 165.707031 L 12.210938 165.652344 L 12.246094 165.59375 L 12.308594 165.46875 L 12.332031 165.40625 L 12.355469 165.339844 L 12.375 165.269531 L 12.40625 165.121094 L 12.417969 165.042969 L 12.421875 164.964844 L 12.429688 164.882812 L 12.429688 164.796875 L 12.425781 164.671875 L 12.417969 164.554688 L 12.40625 164.441406 L 12.390625 164.335938 L 12.367188 164.230469 L 12.339844 164.132812 L 12.304688 164.039062 L 12.269531 163.953125 L 12.226562 163.871094 L 12.175781 163.792969 L 12.125 163.71875 L 12.070312 163.648438 L 12.011719 163.585938 L 11.953125 163.527344 L 11.890625 163.472656 L 11.824219 163.421875 L 11.757812 163.378906 L 11.6875 163.339844 L 11.613281 163.304688 L 11.539062 163.277344 L 11.78125 162.429688 L 11.828125 162.445312 L 11.875 162.46875 L 11.925781 162.488281 L 11.972656 162.511719 L 12.023438 162.539062 L 12.070312 162.566406 L 12.121094 162.59375 L 12.167969 162.621094 L 12.21875 162.652344 L 12.269531 162.6875 L 12.316406 162.71875 L 12.363281 162.753906 L 12.410156 162.792969 L 12.453125 162.832031 L 12.5 162.875 L 12.628906 163.015625 L 12.667969 163.066406 L 12.746094 163.175781 L 12.785156 163.234375 L 12.820312 163.296875 L 12.851562 163.363281 L 12.886719 163.429688 L 12.917969 163.5 L 12.949219 163.574219 L 12.976562 163.648438 L 13.003906 163.726562 L 13.03125 163.808594 L 13.054688 163.890625 L 13.09375 164.070312 L 13.109375 164.164062 L 13.125 164.261719 L 13.136719 164.359375 L 13.144531 164.464844 L 13.148438 164.570312 L 13.15625 164.796875 L 13.148438 165.046875 L 13.125 165.289062 L 13.085938 165.515625 L 13.03125 165.730469 L 12.960938 165.933594 L 12.878906 166.125 L 12.777344 166.300781 L 12.664062 166.46875 L 12.53125 166.621094 L 12.386719 166.761719 L 12.226562 166.890625 L 12.050781 167.003906 L 11.859375 167.105469 L 11.652344 167.191406 L 11.433594 167.265625 L 11.195312 167.328125 L 10.945312 167.375 L 10.679688 167.40625 L 10.398438 167.425781 L 10.105469 167.433594 L 9.941406 167.433594 L 9.789062 167.425781 L 9.636719 167.414062 L 9.492188 167.402344 L 9.351562 167.382812 L 9.214844 167.359375 L 9.085938 167.335938 L 8.960938 167.304688 L 8.839844 167.269531 L 8.722656 167.230469 L 8.613281 167.1875 L 8.503906 167.140625 L 8.402344 167.09375 L 8.300781 167.042969 L 8.207031 166.988281 L 8.117188 166.929688 L 8.03125 166.871094 L 7.949219 166.808594 L 7.871094 166.742188 L 7.800781 166.671875 L 7.730469 166.597656 L 7.664062 166.523438 L 7.605469 166.449219 L 7.546875 166.367188 L 7.496094 166.289062 L 7.445312 166.203125 L 7.402344 166.117188 L 7.359375 166.027344 L 7.324219 165.9375 L 7.289062 165.84375 L 7.257812 165.75 L 7.230469 165.652344 L 7.207031 165.554688 L 7.1875 165.457031 L 7.167969 165.355469 L 7.152344 165.253906 L 7.144531 165.152344 L 7.128906 164.941406 L 7.128906 164.691406 L 7.136719 164.550781 L 7.148438 164.417969 L 7.167969 164.289062 L 7.1875 164.164062 L 7.214844 164.046875 L 7.246094 163.929688 L 7.28125 163.820312 L 7.320312 163.714844 L 7.363281 163.617188 L 7.414062 163.519531 L 7.464844 163.425781 L 7.523438 163.335938 L 7.582031 163.25 L 7.714844 163.09375 L 7.785156 163.019531 L 7.859375 162.953125 L 7.9375 162.886719 L 8.019531 162.824219 L 8.105469 162.765625 L 8.191406 162.710938 L 8.28125 162.660156 L 8.375 162.613281 L 8.570312 162.527344 L 8.671875 162.492188 L 8.777344 162.457031 L 8.996094 162.402344 L 9.109375 162.375 L 9.34375 162.335938 L 9.585938 162.304688 L 9.707031 162.292969 L 9.957031 162.277344 L 10.085938 162.273438 L 10.34375 162.273438 Z M 9.605469 163.273438 L 9.425781 163.289062 L 9.257812 163.316406 L 9.097656 163.347656 L 8.949219 163.386719 L 8.8125 163.429688 L 8.683594 163.476562 L 8.5625 163.535156 L 8.453125 163.597656 L 8.355469 163.664062 L 8.265625 163.738281 L 8.1875 163.820312 L 8.113281 163.90625 L 8.050781 164 L 7.996094 164.101562 L 7.949219 164.210938 L 7.910156 164.324219 L 7.882812 164.445312 L 7.859375 164.574219 L 7.847656 164.707031 L 7.84375 164.851562 L 7.84375 164.898438 L 7.847656 164.949219 L 7.851562 164.996094 L 7.855469 165.046875 L 7.871094 165.148438 L 7.882812 165.203125 L 7.894531 165.253906 L 7.90625 165.308594 L 7.921875 165.359375 L 7.941406 165.414062 L 7.957031 165.464844 L 8.003906 165.566406 L 8.03125 165.613281 L 8.058594 165.664062 L 8.121094 165.757812 L 8.160156 165.804688 L 8.195312 165.851562 L 8.28125 165.9375 L 8.328125 165.980469 L 8.378906 166.019531 L 8.433594 166.058594 L 8.488281 166.09375 L 8.546875 166.132812 L 8.609375 166.164062 L 8.671875 166.199219 L 8.738281 166.230469 L 8.808594 166.261719 L 8.882812 166.289062 L 9.039062 166.335938 L 9.125 166.351562 L 9.214844 166.371094 L 9.304688 166.382812 L 9.402344 166.394531 L 9.5 166.402344 L 9.605469 166.410156 Z M 9.605469 163.273438 "/>
</svg>
