<?xml version="1.0" encoding="UTF-8"?>
<svg xmlns="http://www.w3.org/2000/svg" xmlns:xlink="http://www.w3.org/1999/xlink" width="504" height="360" viewBox="0 0 504 360">
<defs>
<clipPath id="clip-0">
<path clip-rule="nonzero" d="M 80.648438 0 L 423.347656 0 L 423.347656 360 L 80.648438 360 Z M 80.648438 0 "/>
</clipPath>
<clipPath id="clip-1">
<path clip-rule="nonzero" d="M 86.128906 22.78125 L 417.871094 22.78125 L 417.871094 354.523438 L 86.128906 354.523438 Z M 86.128906 22.78125 "/>
</clipPath>
</defs>
<rect x="-50.4" y="-36" width="604.8" height="432" fill="rgb(100%, 100%, 100%)" fill-opacity="1"/>
<g clip-path="url(#clip-0)">
<path fill-rule="nonzero" fill="rgb(100%, 100%, 100%)" fill-opacity="1" stroke-width="1.066978" stroke-linecap="round" stroke-linejoin="round" stroke="rgb(100%, 100%, 100%)" stroke-opacity="1" stroke-miterlimit="10" d="M 80.648438 360 L 423.347656 360 L 423.347656 0 L 80.648438 0 Z M 80.648438 360 "/>
</g>
<g clip-path="url(#clip-1)">
<path fill-rule="nonzero" fill="rgb(92.156863%, 92.156863%, 92.156863%)" fill-opacity="1" d="M 86.128906 354.519531 L 417.871094 354.519531 L 417.871094 22.777344 L 86.128906 22.777344 Z M 86.128906 354.519531 "/>
</g>
<path fill-rule="nonzero" fill="rgb(0%, 0%, 0%)" fill-opacity="1" d="M 91.167969 14.5625 L 89.894531 14.5625 L 86.1875 5.480469 L 87.484375 5.480469 L 89.996094 11.875 L 90.015625 11.929688 L 90.113281 12.222656 L 90.132812 12.277344 L 90.191406 12.453125 L 90.210938 12.507812 L 90.226562 12.5625 L 90.265625 12.671875 L 90.28125 12.722656 L 90.300781 12.773438 L 90.316406 12.820312 L 90.332031 12.871094 L 90.347656 12.917969 L 90.363281 12.960938 L 90.382812 13.015625 L 90.398438 13.066406 L 90.417969 13.121094 L 90.433594 13.171875 L 90.453125 13.222656 L 90.46875 13.273438 L 90.488281 13.324219 L 90.503906 13.378906 L 90.519531 13.425781 L 90.539062 13.476562 L 90.570312 13.382812 L 90.601562 13.28125 L 90.617188 13.234375 L 90.636719 13.183594 L 90.652344 13.132812 L 90.671875 13.078125 L 90.6875 13.027344 L 90.707031 12.976562 L 90.753906 12.835938 L 90.785156 12.734375 L 90.804688 12.683594 L 90.820312 12.632812 L 90.835938 12.578125 L 90.855469 12.523438 L 90.875 12.464844 L 90.894531 12.410156 L 90.992188 12.117188 L 91.015625 12.054688 L 91.035156 11.996094 L 91.058594 11.933594 L 91.078125 11.875 L 93.582031 5.480469 L 94.875 5.480469 Z M 91.167969 14.5625 "/>
<path fill-rule="nonzero" fill="rgb(0%, 0%, 0%)" fill-opacity="1" d="M 95.816406 6.105469 L 95.816406 4.996094 L 96.976562 4.996094 L 96.976562 6.105469 Z M 95.816406 14.5625 L 95.816406 7.585938 L 96.976562 7.585938 L 96.976562 14.5625 Z M 95.816406 14.5625 "/>
<path fill-rule="nonzero" fill="rgb(0%, 0%, 0%)" fill-opacity="1" d="M 98.78125 14.5625 L 98.78125 8.945312 L 98.777344 8.902344 L 98.777344 8.8125 L 98.773438 8.765625 L 98.773438 8.453125 L 98.769531 8.40625 L 98.769531 8.320312 L 98.765625 8.28125 L 98.765625 8.195312 L 98.761719 8.15625 L 98.761719 8.074219 L 98.757812 8.035156 L 98.757812 7.921875 L 98.753906 7.886719 L 98.753906 7.8125 L 98.75 7.777344 L 98.75 7.710938 L 98.746094 7.679688 L 98.746094 7.617188 L 98.742188 7.585938 L 99.839844 7.585938 L 99.839844 7.648438 L 99.84375 7.679688 L 99.84375 7.746094 L 99.847656 7.78125 L 99.847656 7.851562 L 99.851562 7.890625 L 99.851562 7.929688 L 99.855469 7.964844 L 99.855469 8.003906 L 99.859375 8.042969 L 99.859375 8.082031 L 99.863281 8.117188 L 99.863281 8.15625 L 99.867188 8.195312 L 99.867188 8.234375 L 99.871094 8.277344 L 99.871094 8.316406 L 99.875 8.355469 L 99.875 8.394531 L 99.878906 8.433594 L 99.878906 8.511719 L 99.882812 8.550781 L 99.882812 8.703125 L 99.886719 8.738281 L 99.886719 8.871094 L 99.890625 8.898438 L 99.890625 9.011719 L 99.917969 9.011719 L 99.964844 8.855469 L 99.992188 8.78125 L 100.015625 8.710938 L 100.042969 8.640625 L 100.066406 8.570312 L 100.09375 8.503906 L 100.121094 8.441406 L 100.148438 8.382812 L 100.175781 8.320312 L 100.203125 8.261719 L 100.230469 8.207031 L 100.261719 8.152344 L 100.292969 8.101562 L 100.328125 8.054688 L 100.359375 8.003906 L 100.464844 7.875 L 100.503906 7.839844 L 100.539062 7.800781 L 100.582031 7.765625 L 100.621094 7.730469 L 100.664062 7.699219 L 100.707031 7.671875 L 100.800781 7.617188 L 100.847656 7.59375 L 100.894531 7.574219 L 100.949219 7.554688 L 101 7.535156 L 101.054688 7.519531 L 101.113281 7.503906 L 101.171875 7.492188 L 101.234375 7.480469 L 101.296875 7.472656 L 101.363281 7.46875 L 101.429688 7.460938 L 101.5 7.460938 L 101.574219 7.457031 L 101.601562 7.457031 L 101.628906 7.460938 L 101.683594 7.460938 L 101.792969 7.476562 L 101.816406 7.480469 L 101.84375 7.484375 L 101.9375 7.5 L 101.996094 7.511719 L 102.042969 7.523438 L 102.042969 8.585938 L 102.019531 8.578125 L 101.996094 8.574219 L 101.96875 8.570312 L 101.945312 8.5625 L 101.863281 8.550781 L 101.832031 8.546875 L 101.804688 8.542969 L 101.773438 8.539062 L 101.742188 8.539062 L 101.707031 8.535156 L 101.675781 8.53125 L 101.640625 8.527344 L 101.609375 8.527344 L 101.574219 8.523438 L 101.34375 8.523438 L 101.269531 8.527344 L 101.195312 8.539062 L 101.125 8.550781 L 101.054688 8.566406 L 100.988281 8.585938 L 100.921875 8.609375 L 100.859375 8.636719 L 100.800781 8.667969 L 100.742188 8.703125 L 100.6875 8.738281 L 100.632812 8.78125 L 100.582031 8.824219 L 100.488281 8.917969 L 100.441406 8.96875 L 100.402344 9.023438 L 100.359375 9.082031 L 100.320312 9.140625 L 100.285156 9.203125 L 100.25 9.269531 L 100.21875 9.335938 L 100.1875 9.40625 L 100.160156 9.476562 L 100.132812 9.554688 L 100.105469 9.628906 L 100.085938 9.710938 L 100.0625 9.792969 L 100.042969 9.878906 L 100.027344 9.964844 L 100.007812 10.054688 L 99.984375 10.234375 L 99.972656 10.328125 L 99.960938 10.425781 L 99.957031 10.523438 L 99.949219 10.621094 L 99.945312 10.71875 L 99.941406 10.820312 L 99.941406 14.5625 Z M 98.78125 14.5625 "/>
<path fill-rule="nonzero" fill="rgb(0%, 0%, 0%)" fill-opacity="1" d="M 103.144531 6.105469 L 103.144531 4.996094 L 104.304688 4.996094 L 104.304688 6.105469 Z M 103.144531 14.5625 L 103.144531 7.585938 L 104.304688 7.585938 L 104.304688 14.5625 Z M 103.144531 14.5625 "/>
<path fill-rule="nonzero" fill="rgb(0%, 0%, 0%)" fill-opacity="1" d="M 110.488281 13.4375 L 110.417969 13.570312 L 110.347656 13.691406 L 110.273438 13.808594 L 110.195312 13.914062 L 110.109375 14.015625 L 110.023438 14.105469 L 109.929688 14.191406 L 109.835938 14.269531 L 109.734375 14.339844 L 109.628906 14.398438 L 109.519531 14.453125 L 109.40625 14.503906 L 109.289062 14.546875 L 109.164062 14.585938 L 109.035156 14.617188 L 108.902344 14.644531 L 108.761719 14.664062 L 108.617188 14.679688 L 108.46875 14.6875 L 108.3125 14.691406 L 108.058594 14.679688 L 107.8125 14.652344 L 107.585938 14.609375 L 107.367188 14.546875 L 107.167969 14.46875 L 106.980469 14.371094 L 106.804688 14.253906 L 106.644531 14.121094 L 106.5 13.96875 L 106.367188 13.800781 L 106.25 13.613281 L 106.144531 13.40625 L 106.050781 13.183594 L 105.972656 12.941406 L 105.902344 12.683594 L 105.847656 12.402344 L 105.804688 12.105469 L 105.773438 11.792969 L 105.753906 11.457031 L 105.75 11.105469 L 105.773438 10.414062 L 105.851562 9.792969 L 105.980469 9.246094 L 106.160156 8.769531 L 106.390625 8.371094 L 106.671875 8.042969 L 107.007812 7.785156 L 107.390625 7.605469 L 107.828125 7.496094 L 108.3125 7.457031 L 108.46875 7.460938 L 108.621094 7.46875 L 108.765625 7.484375 L 108.90625 7.503906 L 109.039062 7.53125 L 109.171875 7.5625 L 109.292969 7.601562 L 109.414062 7.644531 L 109.527344 7.691406 L 109.636719 7.75 L 109.738281 7.808594 L 109.839844 7.878906 L 109.933594 7.953125 L 110.027344 8.035156 L 110.113281 8.125 L 110.195312 8.21875 L 110.273438 8.320312 L 110.347656 8.429688 L 110.417969 8.546875 L 110.488281 8.667969 L 110.5 8.667969 L 110.5 8.605469 L 110.496094 8.585938 L 110.496094 8.519531 L 110.492188 8.496094 L 110.492188 8.296875 L 110.488281 8.269531 L 110.488281 4.996094 L 111.648438 4.996094 L 111.648438 13.742188 L 111.652344 13.785156 L 111.652344 13.871094 L 111.65625 13.914062 L 111.65625 13.992188 L 111.660156 14.03125 L 111.660156 14.109375 L 111.664062 14.144531 L 111.664062 14.210938 L 111.667969 14.246094 L 111.667969 14.308594 L 111.671875 14.339844 L 111.671875 14.394531 L 111.675781 14.417969 L 111.675781 14.464844 L 111.679688 14.484375 L 111.679688 14.519531 L 111.683594 14.535156 L 111.683594 14.5625 L 110.578125 14.5625 L 110.570312 14.53125 L 110.570312 14.519531 L 110.566406 14.5 L 110.5625 14.484375 L 110.5625 14.464844 L 110.554688 14.425781 L 110.554688 14.402344 L 110.550781 14.378906 L 110.550781 14.355469 L 110.546875 14.332031 L 110.546875 14.304688 L 110.542969 14.277344 L 110.542969 14.25 L 110.539062 14.222656 L 110.539062 14.191406 L 110.535156 14.164062 L 110.535156 14.132812 L 110.53125 14.101562 L 110.53125 14.070312 L 110.527344 14.039062 L 110.527344 13.976562 L 110.523438 13.945312 L 110.523438 13.878906 L 110.519531 13.847656 L 110.519531 13.78125 L 110.515625 13.746094 L 110.515625 13.609375 L 110.511719 13.574219 L 110.511719 13.4375 Z M 106.96875 11.066406 L 106.96875 11.210938 L 106.972656 11.347656 L 106.980469 11.613281 L 106.988281 11.738281 L 107 11.859375 L 107.011719 11.976562 L 107.023438 12.089844 L 107.039062 12.199219 L 107.058594 12.304688 L 107.078125 12.40625 L 107.097656 12.503906 L 107.121094 12.597656 L 107.175781 12.777344 L 107.207031 12.859375 L 107.238281 12.9375 L 107.273438 13.015625 L 107.308594 13.085938 L 107.347656 13.15625 L 107.386719 13.21875 L 107.433594 13.28125 L 107.476562 13.335938 L 107.523438 13.390625 L 107.574219 13.441406 L 107.625 13.488281 L 107.679688 13.53125 L 107.738281 13.570312 L 107.855469 13.640625 L 107.917969 13.667969 L 107.984375 13.695312 L 108.054688 13.71875 L 108.125 13.738281 L 108.199219 13.753906 L 108.277344 13.769531 L 108.355469 13.78125 L 108.4375 13.789062 L 108.523438 13.792969 L 108.703125 13.792969 L 108.789062 13.789062 L 108.875 13.78125 L 108.960938 13.769531 L 109.039062 13.757812 L 109.121094 13.742188 L 109.199219 13.722656 L 109.347656 13.675781 L 109.417969 13.644531 L 109.484375 13.613281 L 109.554688 13.578125 L 109.679688 13.5 L 109.742188 13.453125 L 109.851562 13.351562 L 109.90625 13.292969 L 109.957031 13.234375 L 110.050781 13.101562 L 110.09375 13.027344 L 110.136719 12.949219 L 110.175781 12.867188 L 110.210938 12.785156 L 110.246094 12.695312 L 110.28125 12.601562 L 110.308594 12.503906 L 110.339844 12.402344 L 110.363281 12.296875 L 110.386719 12.1875 L 110.40625 12.074219 L 110.425781 11.957031 L 110.441406 11.832031 L 110.457031 11.703125 L 110.464844 11.570312 L 110.476562 11.433594 L 110.480469 11.289062 L 110.484375 11.140625 L 110.488281 10.988281 L 110.484375 10.84375 L 110.480469 10.703125 L 110.476562 10.566406 L 110.464844 10.433594 L 110.457031 10.308594 L 110.441406 10.183594 L 110.425781 10.066406 L 110.40625 9.953125 L 110.386719 9.84375 L 110.363281 9.738281 L 110.339844 9.640625 L 110.308594 9.542969 L 110.28125 9.449219 L 110.246094 9.359375 L 110.210938 9.273438 L 110.175781 9.191406 L 110.136719 9.117188 L 110.09375 9.042969 L 110.050781 8.972656 L 110.003906 8.910156 L 109.953125 8.847656 L 109.902344 8.789062 L 109.851562 8.734375 L 109.792969 8.683594 L 109.738281 8.636719 L 109.675781 8.59375 L 109.617188 8.554688 L 109.484375 8.484375 L 109.417969 8.457031 L 109.347656 8.429688 L 109.277344 8.40625 L 109.203125 8.386719 L 109.125 8.367188 L 109.046875 8.351562 L 108.96875 8.339844 L 108.882812 8.328125 L 108.800781 8.320312 L 108.710938 8.316406 L 108.539062 8.316406 L 108.457031 8.320312 L 108.378906 8.328125 L 108.300781 8.339844 L 108.226562 8.351562 L 108.15625 8.367188 L 108.085938 8.386719 L 108.015625 8.410156 L 107.953125 8.433594 L 107.828125 8.496094 L 107.769531 8.53125 L 107.710938 8.570312 L 107.65625 8.609375 L 107.605469 8.65625 L 107.554688 8.707031 L 107.507812 8.757812 L 107.414062 8.875 L 107.375 8.941406 L 107.332031 9.007812 L 107.292969 9.078125 L 107.257812 9.15625 L 107.226562 9.234375 L 107.191406 9.320312 L 107.164062 9.40625 L 107.109375 9.59375 L 107.0625 9.796875 L 107.046875 9.90625 L 107.027344 10.015625 L 107.003906 10.25 L 106.992188 10.375 L 106.984375 10.503906 L 106.976562 10.640625 L 106.972656 10.777344 L 106.96875 10.921875 Z M 106.96875 11.066406 "/>
<path fill-rule="nonzero" fill="rgb(0%, 0%, 0%)" fill-opacity="1" d="M 113.417969 6.105469 L 113.417969 4.996094 L 114.578125 4.996094 L 114.578125 6.105469 Z M 113.417969 14.5625 L 113.417969 7.585938 L 114.578125 7.585938 L 114.578125 14.5625 Z M 113.417969 14.5625 "/>
<path fill-rule="nonzero" fill="rgb(0%, 0%, 0%)" fill-opacity="1" d="M 121.589844 12.632812 L 121.589844 12.730469 L 121.574219 12.917969 L 121.5625 13.007812 L 121.542969 13.097656 L 121.523438 13.183594 L 121.496094 13.269531 L 121.46875 13.351562 L 121.433594 13.433594 L 121.398438 13.511719 L 121.359375 13.585938 L 121.316406 13.65625 L 121.222656 13.796875 L 121.167969 13.863281 L 121.113281 13.925781 L 120.988281 14.042969 L 120.921875 14.101562 L 120.851562 14.15625 L 120.777344 14.207031 L 120.699219 14.253906 L 120.617188 14.300781 L 120.535156 14.34375 L 120.449219 14.382812 L 120.355469 14.421875 L 120.261719 14.457031 L 120.164062 14.492188 L 120.066406 14.523438 L 119.960938 14.554688 L 119.855469 14.582031 L 119.746094 14.601562 L 119.632812 14.625 L 119.519531 14.640625 L 119.398438 14.65625 L 119.277344 14.667969 L 119.027344 14.683594 L 118.761719 14.691406 L 118.640625 14.6875 L 118.523438 14.6875 L 118.410156 14.679688 L 118.296875 14.675781 L 118.183594 14.664062 L 118.078125 14.65625 L 117.972656 14.640625 L 117.867188 14.628906 L 117.765625 14.613281 L 117.570312 14.574219 L 117.476562 14.550781 L 117.296875 14.503906 L 117.210938 14.472656 L 117.046875 14.410156 L 116.96875 14.375 L 116.890625 14.335938 L 116.816406 14.296875 L 116.742188 14.253906 L 116.671875 14.207031 L 116.605469 14.160156 L 116.539062 14.109375 L 116.476562 14.058594 L 116.417969 14.003906 L 116.359375 13.945312 L 116.300781 13.882812 L 116.25 13.820312 L 116.195312 13.753906 L 116.148438 13.683594 L 116.105469 13.613281 L 116.0625 13.535156 L 116.023438 13.457031 L 115.984375 13.375 L 115.949219 13.292969 L 115.886719 13.113281 L 115.859375 13.019531 L 115.835938 12.921875 L 116.859375 12.722656 L 116.894531 12.832031 L 116.933594 12.9375 L 116.976562 13.035156 L 117.03125 13.125 L 117.089844 13.210938 L 117.152344 13.289062 L 117.222656 13.363281 L 117.300781 13.429688 L 117.382812 13.492188 L 117.472656 13.550781 L 117.570312 13.597656 L 117.671875 13.640625 L 117.785156 13.679688 L 117.902344 13.714844 L 118.027344 13.742188 L 118.160156 13.765625 L 118.300781 13.785156 L 118.445312 13.796875 L 118.601562 13.804688 L 118.761719 13.808594 L 118.835938 13.804688 L 118.910156 13.804688 L 119.121094 13.792969 L 119.1875 13.789062 L 119.320312 13.773438 L 119.382812 13.765625 L 119.445312 13.753906 L 119.507812 13.746094 L 119.566406 13.730469 L 119.625 13.71875 L 119.683594 13.703125 L 119.738281 13.6875 L 119.792969 13.667969 L 119.894531 13.628906 L 119.988281 13.582031 L 120.074219 13.527344 L 120.152344 13.464844 L 120.1875 13.433594 L 120.21875 13.398438 L 120.253906 13.363281 L 120.335938 13.246094 L 120.359375 13.203125 L 120.382812 13.15625 L 120.402344 13.109375 L 120.417969 13.058594 L 120.441406 12.957031 L 120.453125 12.902344 L 120.460938 12.785156 L 120.464844 12.722656 L 120.460938 12.660156 L 120.457031 12.601562 L 120.449219 12.546875 L 120.441406 12.488281 L 120.410156 12.386719 L 120.390625 12.339844 L 120.367188 12.292969 L 120.34375 12.25 L 120.316406 12.207031 L 120.285156 12.167969 L 120.214844 12.089844 L 120.179688 12.054688 L 120.136719 12.019531 L 120.097656 11.988281 L 120.050781 11.953125 L 120.003906 11.921875 L 119.902344 11.867188 L 119.792969 11.8125 L 119.734375 11.789062 L 119.609375 11.742188 L 119.476562 11.695312 L 119.40625 11.675781 L 119.332031 11.65625 L 119.257812 11.632812 L 119.183594 11.613281 L 119.105469 11.59375 L 119.027344 11.570312 L 118.945312 11.550781 L 118.867188 11.527344 L 118.523438 11.433594 L 118.433594 11.410156 L 118.351562 11.386719 L 118.265625 11.363281 L 118.183594 11.339844 L 118.097656 11.316406 L 117.933594 11.269531 L 117.851562 11.242188 L 117.765625 11.21875 L 117.519531 11.136719 L 117.285156 11.042969 L 117.207031 11.007812 L 117.136719 10.972656 L 117.0625 10.933594 L 116.992188 10.894531 L 116.921875 10.851562 L 116.855469 10.808594 L 116.789062 10.761719 L 116.726562 10.714844 L 116.609375 10.613281 L 116.554688 10.558594 L 116.503906 10.5 L 116.453125 10.445312 L 116.40625 10.382812 L 116.363281 10.320312 L 116.320312 10.253906 L 116.28125 10.1875 L 116.246094 10.117188 L 116.214844 10.042969 L 116.1875 9.964844 L 116.164062 9.886719 L 116.144531 9.800781 L 116.132812 9.714844 L 116.121094 9.621094 L 116.113281 9.527344 L 116.113281 9.429688 L 116.121094 9.246094 L 116.140625 9.066406 L 116.175781 8.898438 L 116.222656 8.742188 L 116.28125 8.589844 L 116.355469 8.449219 L 116.445312 8.320312 L 116.546875 8.195312 L 116.660156 8.085938 L 116.789062 7.980469 L 116.933594 7.882812 L 117.089844 7.800781 L 117.253906 7.722656 L 117.433594 7.660156 L 117.628906 7.601562 L 117.832031 7.558594 L 118.050781 7.523438 L 118.277344 7.496094 L 118.519531 7.484375 L 118.773438 7.476562 L 119 7.480469 L 119.21875 7.492188 L 119.425781 7.515625 L 119.621094 7.542969 L 119.808594 7.578125 L 119.988281 7.625 L 120.15625 7.675781 L 120.316406 7.738281 L 120.464844 7.804688 L 120.605469 7.882812 L 120.738281 7.96875 L 120.859375 8.066406 L 120.96875 8.171875 L 121.070312 8.285156 L 121.164062 8.410156 L 121.246094 8.546875 L 121.316406 8.691406 L 121.375 8.847656 L 121.429688 9.011719 L 121.46875 9.183594 L 120.425781 9.3125 L 120.414062 9.261719 L 120.382812 9.160156 L 120.34375 9.066406 L 120.296875 8.980469 L 120.269531 8.9375 L 120.242188 8.898438 L 120.148438 8.792969 L 120.113281 8.757812 L 120.042969 8.695312 L 119.964844 8.640625 L 119.921875 8.613281 L 119.882812 8.589844 L 119.839844 8.566406 L 119.792969 8.542969 L 119.75 8.523438 L 119.703125 8.503906 L 119.652344 8.484375 L 119.605469 8.46875 L 119.503906 8.4375 L 119.449219 8.425781 L 119.398438 8.414062 L 119.34375 8.40625 L 119.289062 8.394531 L 119.234375 8.386719 L 119.175781 8.378906 L 119.121094 8.371094 L 119.066406 8.367188 L 118.949219 8.359375 L 118.894531 8.355469 L 118.621094 8.355469 L 118.476562 8.363281 L 118.339844 8.375 L 118.210938 8.390625 L 118.09375 8.414062 L 117.980469 8.441406 L 117.875 8.472656 L 117.78125 8.507812 L 117.695312 8.546875 L 117.613281 8.59375 L 117.542969 8.644531 L 117.480469 8.699219 L 117.425781 8.757812 L 117.375 8.824219 L 117.335938 8.890625 L 117.300781 8.96875 L 117.273438 9.046875 L 117.257812 9.128906 L 117.246094 9.21875 L 117.242188 9.3125 L 117.242188 9.371094 L 117.246094 9.425781 L 117.261719 9.527344 L 117.273438 9.574219 L 117.289062 9.621094 L 117.328125 9.707031 L 117.375 9.785156 L 117.4375 9.855469 L 117.472656 9.886719 L 117.507812 9.921875 L 117.542969 9.953125 L 117.582031 9.984375 L 117.667969 10.039062 L 117.761719 10.09375 L 117.8125 10.117188 L 117.921875 10.164062 L 118.039062 10.210938 L 118.097656 10.230469 L 118.164062 10.253906 L 118.226562 10.273438 L 118.292969 10.292969 L 118.503906 10.351562 L 118.578125 10.367188 L 118.726562 10.40625 L 118.882812 10.445312 L 119.046875 10.484375 L 119.128906 10.507812 L 119.183594 10.519531 L 119.242188 10.535156 L 119.351562 10.566406 L 119.410156 10.582031 L 119.464844 10.597656 L 119.640625 10.644531 L 119.695312 10.660156 L 119.753906 10.675781 L 119.8125 10.695312 L 119.867188 10.710938 L 119.925781 10.730469 L 119.980469 10.75 L 120.039062 10.769531 L 120.148438 10.808594 L 120.421875 10.925781 L 120.472656 10.949219 L 120.675781 11.058594 L 120.726562 11.089844 L 120.773438 11.117188 L 120.867188 11.179688 L 120.914062 11.214844 L 120.957031 11.246094 L 121 11.285156 L 121.042969 11.320312 L 121.085938 11.359375 L 121.125 11.398438 L 121.160156 11.4375 L 121.199219 11.480469 L 121.234375 11.523438 L 121.265625 11.566406 L 121.300781 11.613281 L 121.332031 11.660156 L 121.414062 11.8125 L 121.460938 11.921875 L 121.480469 11.976562 L 121.503906 12.035156 L 121.523438 12.09375 L 121.539062 12.15625 L 121.5625 12.28125 L 121.574219 12.347656 L 121.582031 12.417969 L 121.589844 12.558594 Z M 121.589844 12.632812 "/>
<path fill-rule="nonzero" fill="rgb(0%, 0%, 0%)" fill-opacity="1" d="M 124.550781 13.148438 L 124.550781 14.300781 L 124.546875 14.367188 L 124.546875 14.429688 L 124.542969 14.496094 L 124.542969 14.558594 L 124.539062 14.617188 L 124.535156 14.679688 L 124.53125 14.738281 L 124.523438 14.792969 L 124.519531 14.851562 L 124.511719 14.90625 L 124.507812 14.960938 L 124.492188 15.070312 L 124.480469 15.125 L 124.472656 15.175781 L 124.460938 15.226562 L 124.453125 15.277344 L 124.441406 15.324219 L 124.425781 15.371094 L 124.414062 15.421875 L 124.402344 15.46875 L 124.339844 15.65625 L 124.320312 15.699219 L 124.304688 15.746094 L 124.246094 15.875 L 124.230469 15.914062 L 124.207031 15.957031 L 124.167969 16.042969 L 124.144531 16.082031 L 124.097656 16.167969 L 124.074219 16.207031 L 124.046875 16.25 L 123.253906 16.25 L 123.3125 16.164062 L 123.363281 16.082031 L 123.417969 15.996094 L 123.464844 15.914062 L 123.511719 15.828125 L 123.554688 15.746094 L 123.632812 15.574219 L 123.667969 15.492188 L 123.730469 15.320312 L 123.757812 15.234375 L 123.78125 15.152344 L 123.820312 14.980469 L 123.835938 14.898438 L 123.847656 14.8125 L 123.855469 14.730469 L 123.859375 14.644531 L 123.859375 14.5625 L 123.292969 14.5625 L 123.292969 13.148438 Z M 124.550781 13.148438 "/>
<path fill-rule="nonzero" fill="rgb(0%, 0%, 0%)" fill-opacity="1" d="M 136.191406 11.042969 L 136.164062 11.734375 L 136.085938 12.355469 L 135.960938 12.902344 L 135.78125 13.375 L 135.550781 13.777344 L 135.265625 14.105469 L 134.933594 14.363281 L 134.546875 14.542969 L 134.113281 14.652344 L 133.625 14.691406 L 133.46875 14.6875 L 133.320312 14.679688 L 133.171875 14.664062 L 133.03125 14.644531 L 132.898438 14.617188 L 132.769531 14.585938 L 132.644531 14.550781 L 132.527344 14.507812 L 132.410156 14.460938 L 132.304688 14.40625 L 132.203125 14.34375 L 132.101562 14.277344 L 132.007812 14.199219 L 131.917969 14.117188 L 131.828125 14.027344 L 131.746094 13.933594 L 131.667969 13.828125 L 131.59375 13.71875 L 131.519531 13.601562 L 131.453125 13.476562 L 131.441406 13.476562 L 131.441406 13.546875 L 131.4375 13.578125 L 131.4375 13.648438 L 131.433594 13.683594 L 131.433594 13.753906 L 131.425781 13.824219 L 131.425781 13.898438 L 131.421875 13.933594 L 131.421875 13.964844 L 131.417969 14 L 131.417969 14.035156 L 131.414062 14.066406 L 131.414062 14.097656 L 131.40625 14.160156 L 131.40625 14.222656 L 131.402344 14.25 L 131.402344 14.277344 L 131.398438 14.304688 L 131.398438 14.332031 L 131.394531 14.355469 L 131.394531 14.378906 L 131.386719 14.425781 L 131.386719 14.464844 L 131.382812 14.484375 L 131.382812 14.515625 L 131.378906 14.527344 L 131.378906 14.546875 L 131.375 14.554688 L 131.375 14.5625 L 130.253906 14.5625 L 130.253906 14.546875 L 130.257812 14.535156 L 130.257812 14.503906 L 130.261719 14.484375 L 130.261719 14.441406 L 130.265625 14.417969 L 130.265625 14.367188 L 130.269531 14.339844 L 130.269531 14.277344 L 130.273438 14.246094 L 130.273438 14.179688 L 130.277344 14.144531 L 130.277344 14.070312 L 130.28125 14.03125 L 130.28125 13.953125 L 130.285156 13.914062 L 130.285156 13.605469 L 130.289062 13.558594 L 130.289062 13.417969 L 130.292969 13.371094 L 130.292969 4.996094 L 131.453125 4.996094 L 131.453125 7.914062 L 131.449219 7.949219 L 131.449219 8.058594 L 131.445312 8.097656 L 131.445312 8.320312 L 131.441406 8.351562 L 131.441406 8.40625 L 131.4375 8.4375 L 131.4375 8.5 L 131.433594 8.53125 L 131.433594 8.59375 L 131.429688 8.621094 L 131.429688 8.679688 L 131.425781 8.707031 L 131.453125 8.707031 L 131.519531 8.578125 L 131.589844 8.457031 L 131.664062 8.339844 L 131.742188 8.234375 L 131.828125 8.132812 L 131.914062 8.042969 L 132.003906 7.957031 L 132.101562 7.878906 L 132.199219 7.808594 L 132.304688 7.75 L 132.414062 7.691406 L 132.527344 7.644531 L 132.648438 7.601562 L 132.773438 7.5625 L 132.902344 7.53125 L 133.035156 7.503906 L 133.175781 7.484375 L 133.320312 7.46875 L 133.46875 7.460938 L 133.625 7.457031 L 133.882812 7.46875 L 134.125 7.492188 L 134.355469 7.539062 L 134.570312 7.601562 L 134.769531 7.679688 L 134.957031 7.777344 L 135.128906 7.894531 L 135.289062 8.027344 L 135.433594 8.179688 L 135.566406 8.347656 L 135.683594 8.535156 L 135.789062 8.738281 L 135.882812 8.964844 L 135.964844 9.207031 L 136.035156 9.464844 L 136.089844 9.746094 L 136.132812 10.042969 L 136.164062 10.355469 L 136.183594 10.691406 Z M 134.972656 11.082031 L 134.972656 10.9375 L 134.964844 10.664062 L 134.957031 10.535156 L 134.949219 10.410156 L 134.941406 10.289062 L 134.929688 10.171875 L 134.914062 10.058594 L 134.898438 9.949219 L 134.882812 9.84375 L 134.863281 9.742188 L 134.839844 9.644531 L 134.816406 9.550781 L 134.792969 9.460938 L 134.765625 9.375 L 134.703125 9.210938 L 134.667969 9.136719 L 134.628906 9.066406 L 134.59375 9 L 134.550781 8.933594 L 134.507812 8.871094 L 134.460938 8.8125 L 134.414062 8.757812 L 134.363281 8.707031 L 134.3125 8.660156 L 134.257812 8.617188 L 134.203125 8.578125 L 134.144531 8.542969 L 134.082031 8.507812 L 134.019531 8.480469 L 133.953125 8.453125 L 133.886719 8.429688 L 133.8125 8.410156 L 133.664062 8.378906 L 133.582031 8.367188 L 133.5 8.359375 L 133.417969 8.355469 L 133.238281 8.355469 L 133.148438 8.359375 L 133.0625 8.367188 L 132.898438 8.390625 L 132.816406 8.40625 L 132.738281 8.425781 L 132.589844 8.472656 L 132.515625 8.503906 L 132.449219 8.535156 L 132.382812 8.570312 L 132.316406 8.609375 L 132.253906 8.648438 L 132.195312 8.695312 L 132.136719 8.746094 L 132.082031 8.796875 L 131.980469 8.914062 L 131.929688 8.980469 L 131.882812 9.046875 L 131.839844 9.117188 L 131.761719 9.273438 L 131.726562 9.359375 L 131.691406 9.449219 L 131.660156 9.539062 L 131.628906 9.636719 L 131.601562 9.738281 L 131.574219 9.84375 L 131.550781 9.953125 L 131.53125 10.066406 L 131.511719 10.183594 L 131.496094 10.308594 L 131.484375 10.4375 L 131.472656 10.570312 L 131.464844 10.707031 L 131.457031 10.851562 L 131.453125 11 L 131.453125 11.296875 L 131.457031 11.441406 L 131.464844 11.578125 L 131.472656 11.710938 L 131.484375 11.839844 L 131.496094 11.960938 L 131.511719 12.082031 L 131.53125 12.195312 L 131.550781 12.304688 L 131.574219 12.40625 L 131.601562 12.507812 L 131.628906 12.605469 L 131.691406 12.785156 L 131.726562 12.871094 L 131.761719 12.953125 L 131.800781 13.03125 L 131.839844 13.101562 L 131.882812 13.171875 L 131.929688 13.238281 L 131.980469 13.300781 L 132.03125 13.359375 L 132.082031 13.414062 L 132.136719 13.464844 L 132.195312 13.511719 L 132.253906 13.554688 L 132.316406 13.597656 L 132.449219 13.667969 L 132.515625 13.695312 L 132.585938 13.722656 L 132.660156 13.746094 L 132.734375 13.765625 L 132.8125 13.785156 L 132.890625 13.796875 L 132.972656 13.8125 L 133.054688 13.820312 L 133.140625 13.828125 L 133.226562 13.832031 L 133.398438 13.832031 L 133.480469 13.828125 L 133.558594 13.820312 L 133.636719 13.808594 L 133.710938 13.796875 L 133.785156 13.777344 L 133.855469 13.761719 L 133.921875 13.738281 L 133.988281 13.710938 L 134.050781 13.683594 L 134.109375 13.652344 L 134.171875 13.617188 L 134.226562 13.578125 L 134.335938 13.492188 L 134.382812 13.441406 L 134.433594 13.386719 L 134.480469 13.332031 L 134.566406 13.207031 L 134.605469 13.140625 L 134.644531 13.066406 L 134.679688 12.992188 L 134.714844 12.914062 L 134.746094 12.832031 L 134.800781 12.652344 L 134.824219 12.558594 L 134.847656 12.460938 L 134.886719 12.25 L 134.90625 12.136719 L 134.921875 12.019531 L 134.933594 11.898438 L 134.945312 11.773438 L 134.957031 11.644531 L 134.960938 11.507812 L 134.96875 11.371094 L 134.972656 11.226562 Z M 134.972656 11.082031 "/>
<path fill-rule="nonzero" fill="rgb(0%, 0%, 0%)" fill-opacity="1" d="M 137.628906 6.105469 L 137.628906 4.996094 L 138.789062 4.996094 L 138.789062 6.105469 Z M 137.628906 14.5625 L 137.628906 7.585938 L 138.789062 7.585938 L 138.789062 14.5625 Z M 137.628906 14.5625 "/>
<path fill-rule="nonzero" fill="rgb(0%, 0%, 0%)" fill-opacity="1" d="M 144.996094 14.5625 L 144.996094 10.140625 L 144.992188 10.039062 L 144.992188 9.941406 L 144.988281 9.847656 L 144.980469 9.757812 L 144.976562 9.671875 L 144.964844 9.589844 L 144.957031 9.507812 L 144.933594 9.359375 L 144.917969 9.289062 L 144.886719 9.15625 L 144.867188 9.097656 L 144.84375 9.035156 L 144.796875 8.925781 L 144.769531 8.875 L 144.742188 8.828125 L 144.679688 8.742188 L 144.644531 8.699219 L 144.605469 8.660156 L 144.527344 8.589844 L 144.484375 8.558594 L 144.4375 8.53125 L 144.390625 8.507812 L 144.289062 8.460938 L 144.234375 8.445312 L 144.179688 8.425781 L 144.121094 8.410156 L 143.996094 8.386719 L 143.929688 8.375 L 143.859375 8.367188 L 143.789062 8.363281 L 143.714844 8.359375 L 143.636719 8.355469 L 143.476562 8.355469 L 143.394531 8.359375 L 143.316406 8.367188 L 143.238281 8.378906 L 143.164062 8.390625 L 143.089844 8.40625 L 143.019531 8.425781 L 142.945312 8.449219 L 142.878906 8.472656 L 142.808594 8.503906 L 142.746094 8.53125 L 142.683594 8.5625 L 142.621094 8.597656 L 142.5625 8.636719 L 142.503906 8.679688 L 142.394531 8.765625 L 142.339844 8.816406 L 142.292969 8.867188 L 142.242188 8.921875 L 142.195312 8.976562 L 142.152344 9.035156 L 142.074219 9.160156 L 142.035156 9.226562 L 142 9.292969 L 141.9375 9.441406 L 141.882812 9.597656 L 141.855469 9.679688 L 141.835938 9.761719 L 141.816406 9.847656 L 141.785156 10.027344 L 141.773438 10.121094 L 141.757812 10.316406 L 141.753906 10.417969 L 141.753906 14.5625 L 140.59375 14.5625 L 140.59375 8.941406 L 140.589844 8.898438 L 140.589844 8.714844 L 140.585938 8.664062 L 140.585938 8.382812 L 140.582031 8.335938 L 140.582031 8.203125 L 140.578125 8.160156 L 140.578125 8.074219 L 140.574219 8.035156 L 140.574219 7.957031 L 140.570312 7.921875 L 140.570312 7.851562 L 140.566406 7.820312 L 140.566406 7.757812 L 140.5625 7.730469 L 140.5625 7.679688 L 140.558594 7.660156 L 140.558594 7.625 L 140.554688 7.609375 L 140.554688 7.585938 L 141.648438 7.585938 L 141.652344 7.59375 L 141.652344 7.617188 L 141.65625 7.628906 L 141.65625 7.664062 L 141.660156 7.6875 L 141.660156 7.734375 L 141.664062 7.761719 L 141.664062 7.820312 L 141.667969 7.851562 L 141.667969 7.914062 L 141.671875 7.949219 L 141.671875 8.015625 L 141.675781 8.054688 L 141.675781 8.089844 L 141.679688 8.125 L 141.679688 8.164062 L 141.683594 8.199219 L 141.683594 8.234375 L 141.6875 8.273438 L 141.6875 8.3125 L 141.691406 8.347656 L 141.691406 8.425781 L 141.695312 8.464844 L 141.695312 8.535156 L 141.699219 8.570312 L 141.699219 8.78125 L 141.71875 8.78125 L 141.753906 8.71875 L 141.824219 8.601562 L 141.894531 8.492188 L 141.972656 8.382812 L 142.007812 8.332031 L 142.085938 8.230469 L 142.214844 8.089844 L 142.257812 8.046875 L 142.304688 8.007812 L 142.351562 7.964844 L 142.398438 7.925781 L 142.449219 7.890625 L 142.5 7.851562 L 142.550781 7.820312 L 142.605469 7.785156 L 142.660156 7.753906 L 142.777344 7.691406 L 142.835938 7.667969 L 142.898438 7.640625 L 143.023438 7.59375 L 143.15625 7.554688 L 143.226562 7.535156 L 143.296875 7.519531 L 143.371094 7.503906 L 143.527344 7.480469 L 143.605469 7.472656 L 143.691406 7.46875 L 143.773438 7.460938 L 143.859375 7.460938 L 143.949219 7.457031 L 144.066406 7.460938 L 144.175781 7.464844 L 144.285156 7.472656 L 144.390625 7.480469 L 144.488281 7.492188 L 144.589844 7.507812 L 144.683594 7.527344 L 144.777344 7.550781 L 144.863281 7.574219 L 144.949219 7.601562 L 145.03125 7.628906 L 145.1875 7.699219 L 145.261719 7.738281 L 145.332031 7.78125 L 145.398438 7.824219 L 145.464844 7.875 L 145.523438 7.925781 L 145.582031 7.980469 L 145.640625 8.039062 L 145.691406 8.097656 L 145.742188 8.164062 L 145.789062 8.230469 L 145.832031 8.304688 L 145.871094 8.378906 L 145.910156 8.457031 L 145.945312 8.539062 L 146.007812 8.710938 L 146.03125 8.804688 L 146.058594 8.898438 L 146.097656 9.101562 L 146.128906 9.3125 L 146.140625 9.425781 L 146.148438 9.542969 L 146.15625 9.664062 L 146.160156 9.785156 L 146.160156 14.5625 Z M 144.996094 14.5625 "/>
<path fill-rule="nonzero" fill="rgb(0%, 0%, 0%)" fill-opacity="1" d="M 152.335938 14.5625 L 152.335938 10.039062 L 152.332031 9.941406 L 152.328125 9.847656 L 152.324219 9.757812 L 152.316406 9.671875 L 152.308594 9.589844 L 152.296875 9.507812 L 152.273438 9.359375 L 152.257812 9.289062 L 152.226562 9.15625 L 152.207031 9.097656 L 152.1875 9.035156 L 152.164062 8.980469 L 152.136719 8.925781 L 152.113281 8.875 L 152.082031 8.828125 L 152.019531 8.742188 L 151.984375 8.699219 L 151.949219 8.660156 L 151.910156 8.625 L 151.867188 8.589844 L 151.824219 8.558594 L 151.78125 8.53125 L 151.730469 8.507812 L 151.683594 8.484375 L 151.628906 8.460938 L 151.574219 8.445312 L 151.519531 8.425781 L 151.460938 8.410156 L 151.402344 8.398438 L 151.269531 8.375 L 151.203125 8.367188 L 151.054688 8.359375 L 150.976562 8.355469 L 150.816406 8.355469 L 150.738281 8.359375 L 150.65625 8.367188 L 150.582031 8.378906 L 150.503906 8.390625 L 150.429688 8.40625 L 150.359375 8.425781 L 150.21875 8.472656 L 150.152344 8.503906 L 150.085938 8.53125 L 150.023438 8.5625 L 149.960938 8.597656 L 149.902344 8.636719 L 149.84375 8.679688 L 149.734375 8.765625 L 149.632812 8.867188 L 149.582031 8.921875 L 149.539062 8.976562 L 149.496094 9.035156 L 149.453125 9.097656 L 149.414062 9.160156 L 149.34375 9.292969 L 149.308594 9.367188 L 149.277344 9.441406 L 149.222656 9.597656 L 149.175781 9.761719 L 149.15625 9.847656 L 149.125 10.027344 L 149.113281 10.121094 L 149.097656 10.316406 L 149.09375 10.417969 L 149.09375 14.5625 L 147.933594 14.5625 L 147.933594 8.851562 L 147.929688 8.804688 L 147.929688 8.664062 L 147.925781 8.617188 L 147.925781 8.292969 L 147.921875 8.246094 L 147.921875 8.160156 L 147.917969 8.117188 L 147.917969 8.035156 L 147.914062 7.996094 L 147.914062 7.921875 L 147.910156 7.886719 L 147.910156 7.820312 L 147.90625 7.785156 L 147.90625 7.730469 L 147.902344 7.703125 L 147.902344 7.660156 L 147.898438 7.640625 L 147.898438 7.609375 L 147.894531 7.597656 L 147.894531 7.585938 L 148.992188 7.585938 L 148.992188 7.605469 L 148.996094 7.617188 L 148.996094 7.648438 L 149 7.664062 L 149 7.707031 L 149.003906 7.734375 L 149.003906 7.789062 L 149.007812 7.820312 L 149.007812 7.882812 L 149.011719 7.914062 L 149.011719 7.980469 L 149.015625 8.015625 L 149.015625 8.089844 L 149.019531 8.125 L 149.019531 8.164062 L 149.027344 8.234375 L 149.027344 8.273438 L 149.03125 8.3125 L 149.03125 8.386719 L 149.035156 8.425781 L 149.035156 8.5 L 149.039062 8.535156 L 149.039062 8.636719 L 149.042969 8.667969 L 149.042969 8.78125 L 149.0625 8.78125 L 149.09375 8.71875 L 149.164062 8.601562 L 149.199219 8.546875 L 149.238281 8.492188 L 149.273438 8.4375 L 149.3125 8.382812 L 149.429688 8.230469 L 149.46875 8.183594 L 149.554688 8.089844 L 149.597656 8.046875 L 149.644531 8.007812 L 149.691406 7.964844 L 149.742188 7.925781 L 149.789062 7.890625 L 149.839844 7.851562 L 149.894531 7.820312 L 149.945312 7.785156 L 150 7.753906 L 150.117188 7.691406 L 150.175781 7.667969 L 150.238281 7.640625 L 150.300781 7.617188 L 150.367188 7.59375 L 150.429688 7.574219 L 150.5 7.554688 L 150.566406 7.535156 L 150.714844 7.503906 L 150.789062 7.492188 L 150.867188 7.480469 L 150.949219 7.472656 L 151.03125 7.46875 L 151.117188 7.460938 L 151.203125 7.460938 L 151.292969 7.457031 L 151.40625 7.460938 L 151.515625 7.464844 L 151.625 7.472656 L 151.730469 7.480469 L 151.832031 7.492188 L 151.929688 7.507812 L 152.023438 7.527344 L 152.117188 7.550781 L 152.207031 7.574219 L 152.371094 7.628906 L 152.453125 7.664062 L 152.527344 7.699219 L 152.601562 7.738281 L 152.671875 7.78125 L 152.738281 7.824219 L 152.804688 7.875 L 152.867188 7.925781 L 152.925781 7.980469 L 152.980469 8.039062 L 153.03125 8.097656 L 153.082031 8.164062 L 153.128906 8.230469 L 153.214844 8.378906 L 153.25 8.457031 L 153.285156 8.539062 L 153.320312 8.625 L 153.347656 8.710938 L 153.375 8.804688 L 153.398438 8.898438 L 153.4375 9.101562 L 153.457031 9.207031 L 153.46875 9.3125 L 153.480469 9.425781 L 153.492188 9.542969 L 153.5 9.785156 L 153.503906 9.914062 L 153.503906 14.5625 Z M 152.335938 14.5625 "/>
<path fill-rule="nonzero" fill="rgb(0%, 0%, 0%)" fill-opacity="1" d="M 156.136719 11.320312 L 156.140625 11.425781 L 156.144531 11.535156 L 156.148438 11.640625 L 156.15625 11.742188 L 156.164062 11.847656 L 156.179688 11.945312 L 156.191406 12.042969 L 156.207031 12.140625 L 156.226562 12.238281 L 156.25 12.332031 L 156.273438 12.421875 L 156.328125 12.59375 L 156.359375 12.675781 L 156.394531 12.757812 L 156.429688 12.835938 L 156.507812 12.984375 L 156.550781 13.054688 L 156.597656 13.125 L 156.644531 13.1875 L 156.695312 13.25 L 156.75 13.308594 L 156.867188 13.417969 L 156.929688 13.46875 L 156.992188 13.515625 L 157.058594 13.558594 L 157.128906 13.601562 L 157.203125 13.640625 L 157.277344 13.671875 L 157.355469 13.703125 L 157.4375 13.730469 L 157.519531 13.753906 L 157.605469 13.773438 L 157.695312 13.789062 L 157.789062 13.804688 L 157.882812 13.8125 L 158.085938 13.820312 L 158.234375 13.816406 L 158.375 13.808594 L 158.511719 13.792969 L 158.640625 13.769531 L 158.761719 13.742188 L 158.882812 13.710938 L 158.992188 13.671875 L 159.097656 13.625 L 159.195312 13.574219 L 159.289062 13.515625 L 159.378906 13.453125 L 159.460938 13.390625 L 159.539062 13.320312 L 159.609375 13.25 L 159.734375 13.09375 L 159.785156 13.015625 L 159.832031 12.929688 L 159.875 12.839844 L 159.910156 12.75 L 160.925781 13.039062 L 160.90625 13.097656 L 160.878906 13.15625 L 160.855469 13.214844 L 160.824219 13.273438 L 160.796875 13.332031 L 160.761719 13.390625 L 160.730469 13.449219 L 160.695312 13.507812 L 160.578125 13.683594 L 160.535156 13.742188 L 160.441406 13.851562 L 160.335938 13.957031 L 160.28125 14.007812 L 160.222656 14.058594 L 160.160156 14.105469 L 160.097656 14.15625 L 160.027344 14.199219 L 159.957031 14.246094 L 159.882812 14.285156 L 159.804688 14.328125 L 159.726562 14.367188 L 159.640625 14.40625 L 159.554688 14.441406 L 159.367188 14.511719 L 159.269531 14.542969 L 159.171875 14.570312 L 159.066406 14.59375 L 158.957031 14.617188 L 158.847656 14.636719 L 158.730469 14.652344 L 158.609375 14.667969 L 158.484375 14.675781 L 158.355469 14.683594 L 158.222656 14.6875 L 158.085938 14.691406 L 157.78125 14.679688 L 157.496094 14.652344 L 157.222656 14.605469 L 156.964844 14.542969 L 156.722656 14.460938 L 156.492188 14.359375 L 156.28125 14.238281 L 156.082031 14.101562 L 155.894531 13.941406 L 155.726562 13.769531 L 155.574219 13.574219 L 155.4375 13.363281 L 155.316406 13.132812 L 155.210938 12.886719 L 155.121094 12.621094 L 155.050781 12.339844 L 154.992188 12.039062 L 154.953125 11.71875 L 154.929688 11.382812 L 154.921875 11.027344 L 154.921875 10.835938 L 154.929688 10.648438 L 154.941406 10.46875 L 154.960938 10.292969 L 154.980469 10.125 L 155.007812 9.960938 L 155.039062 9.804688 L 155.078125 9.65625 L 155.117188 9.511719 L 155.164062 9.371094 L 155.214844 9.238281 L 155.269531 9.109375 L 155.328125 8.984375 L 155.390625 8.867188 L 155.457031 8.753906 L 155.523438 8.644531 L 155.597656 8.542969 L 155.671875 8.445312 L 155.753906 8.351562 L 155.835938 8.265625 L 155.921875 8.179688 L 156.011719 8.101562 L 156.199219 7.960938 L 156.296875 7.898438 L 156.398438 7.839844 L 156.5 7.785156 L 156.605469 7.734375 L 156.714844 7.691406 L 156.941406 7.613281 L 157.058594 7.582031 L 157.292969 7.527344 L 157.535156 7.488281 L 157.785156 7.464844 L 157.910156 7.460938 L 158.039062 7.457031 L 158.210938 7.460938 L 158.378906 7.46875 L 158.539062 7.484375 L 158.695312 7.503906 L 158.84375 7.527344 L 158.988281 7.558594 L 159.125 7.597656 L 159.257812 7.640625 L 159.382812 7.6875 L 159.503906 7.742188 L 159.621094 7.800781 L 159.730469 7.863281 L 159.835938 7.929688 L 159.9375 8.003906 L 160.035156 8.082031 L 160.128906 8.160156 L 160.214844 8.246094 L 160.300781 8.335938 L 160.378906 8.429688 L 160.449219 8.527344 L 160.519531 8.628906 L 160.585938 8.734375 L 160.648438 8.84375 L 160.707031 8.953125 L 160.808594 9.1875 L 160.851562 9.3125 L 160.890625 9.4375 L 160.929688 9.566406 L 160.960938 9.699219 L 160.988281 9.835938 L 161.015625 9.976562 L 161.039062 10.117188 L 161.058594 10.261719 L 161.089844 10.550781 L 161.101562 10.703125 L 161.109375 10.855469 L 161.113281 11.007812 L 161.113281 11.320312 Z M 159.914062 10.429688 L 159.890625 10.214844 L 159.863281 10.011719 L 159.824219 9.820312 L 159.78125 9.644531 L 159.726562 9.476562 L 159.667969 9.324219 L 159.601562 9.179688 L 159.527344 9.050781 L 159.445312 8.929688 L 159.355469 8.824219 L 159.257812 8.726562 L 159.152344 8.640625 L 159.039062 8.566406 L 158.917969 8.5 L 158.789062 8.441406 L 158.652344 8.398438 L 158.507812 8.359375 L 158.351562 8.335938 L 158.191406 8.320312 L 158.019531 8.316406 L 157.960938 8.316406 L 157.84375 8.324219 L 157.785156 8.332031 L 157.722656 8.339844 L 157.597656 8.363281 L 157.410156 8.410156 L 157.34375 8.429688 L 157.285156 8.453125 L 157.222656 8.480469 L 157.164062 8.507812 L 157.105469 8.539062 L 156.988281 8.609375 L 156.933594 8.652344 L 156.875 8.695312 L 156.820312 8.742188 L 156.769531 8.789062 L 156.714844 8.84375 L 156.667969 8.898438 L 156.617188 8.960938 L 156.570312 9.023438 L 156.527344 9.089844 L 156.484375 9.160156 L 156.441406 9.234375 L 156.363281 9.390625 L 156.328125 9.476562 L 156.296875 9.5625 L 156.265625 9.65625 L 156.242188 9.753906 L 156.21875 9.855469 L 156.199219 9.960938 L 156.179688 10.070312 L 156.15625 10.304688 L 156.152344 10.429688 Z M 159.914062 10.429688 "/>
<path fill-rule="nonzero" fill="rgb(0%, 0%, 0%)" fill-opacity="1" d="M 166.992188 13.4375 L 166.925781 13.570312 L 166.855469 13.691406 L 166.78125 13.808594 L 166.699219 13.914062 L 166.617188 14.015625 L 166.527344 14.105469 L 166.4375 14.191406 L 166.339844 14.269531 L 166.238281 14.339844 L 166.136719 14.398438 L 166.027344 14.453125 L 165.914062 14.503906 L 165.792969 14.546875 L 165.671875 14.585938 L 165.542969 14.617188 L 165.40625 14.644531 L 165.269531 14.664062 L 165.125 14.679688 L 164.976562 14.6875 L 164.820312 14.691406 L 164.5625 14.679688 L 164.320312 14.652344 L 164.089844 14.609375 L 163.875 14.546875 L 163.671875 14.46875 L 163.484375 14.371094 L 163.3125 14.253906 L 163.152344 14.121094 L 163.007812 13.96875 L 162.875 13.800781 L 162.757812 13.613281 L 162.652344 13.40625 L 162.558594 13.183594 L 162.476562 12.941406 L 162.410156 12.683594 L 162.355469 12.402344 L 162.3125 12.105469 L 162.28125 11.792969 L 162.261719 11.457031 L 162.253906 11.105469 L 162.28125 10.414062 L 162.359375 9.792969 L 162.484375 9.246094 L 162.664062 8.769531 L 162.894531 8.371094 L 163.179688 8.042969 L 163.511719 7.785156 L 163.898438 7.605469 L 164.332031 7.496094 L 164.820312 7.457031 L 164.976562 7.460938 L 165.125 7.46875 L 165.273438 7.484375 L 165.414062 7.503906 L 165.546875 7.53125 L 165.675781 7.5625 L 165.800781 7.601562 L 165.917969 7.644531 L 166.035156 7.691406 L 166.246094 7.808594 L 166.34375 7.878906 L 166.441406 7.953125 L 166.53125 8.035156 L 166.617188 8.125 L 166.703125 8.21875 L 166.78125 8.320312 L 166.855469 8.429688 L 166.925781 8.546875 L 166.992188 8.667969 L 167.003906 8.667969 L 167.003906 8.542969 L 167 8.519531 L 167 8.382812 L 166.996094 8.355469 L 166.996094 8.238281 L 166.992188 8.210938 L 166.992188 4.996094 L 168.152344 4.996094 L 168.152344 13.652344 L 168.15625 13.699219 L 168.15625 13.785156 L 168.160156 13.828125 L 168.160156 13.914062 L 168.164062 13.953125 L 168.164062 14.03125 L 168.167969 14.070312 L 168.167969 14.144531 L 168.171875 14.179688 L 168.171875 14.246094 L 168.175781 14.277344 L 168.175781 14.339844 L 168.179688 14.367188 L 168.179688 14.417969 L 168.183594 14.441406 L 168.183594 14.484375 L 168.1875 14.503906 L 168.1875 14.535156 L 168.191406 14.546875 L 168.191406 14.5625 L 167.082031 14.5625 L 167.078125 14.546875 L 167.078125 14.53125 L 167.074219 14.519531 L 167.074219 14.5 L 167.070312 14.484375 L 167.066406 14.464844 L 167.066406 14.445312 L 167.0625 14.425781 L 167.058594 14.402344 L 167.058594 14.378906 L 167.054688 14.355469 L 167.054688 14.332031 L 167.050781 14.304688 L 167.050781 14.277344 L 167.046875 14.25 L 167.046875 14.222656 L 167.042969 14.191406 L 167.042969 14.164062 L 167.039062 14.132812 L 167.039062 14.101562 L 167.035156 14.070312 L 167.035156 14.007812 L 167.03125 13.976562 L 167.03125 13.914062 L 167.027344 13.878906 L 167.027344 13.8125 L 167.023438 13.78125 L 167.023438 13.710938 L 167.019531 13.675781 L 167.019531 13.4375 Z M 163.472656 11.066406 L 163.472656 11.210938 L 163.476562 11.347656 L 163.480469 11.480469 L 163.488281 11.613281 L 163.496094 11.738281 L 163.503906 11.859375 L 163.515625 11.976562 L 163.53125 12.089844 L 163.546875 12.199219 L 163.5625 12.304688 L 163.582031 12.40625 L 163.605469 12.503906 L 163.628906 12.597656 L 163.652344 12.6875 L 163.679688 12.777344 L 163.710938 12.859375 L 163.742188 12.9375 L 163.777344 13.015625 L 163.855469 13.15625 L 163.894531 13.21875 L 163.9375 13.28125 L 164.03125 13.390625 L 164.082031 13.441406 L 164.132812 13.488281 L 164.1875 13.53125 L 164.242188 13.570312 L 164.300781 13.605469 L 164.363281 13.640625 L 164.425781 13.667969 L 164.492188 13.695312 L 164.558594 13.71875 L 164.632812 13.738281 L 164.78125 13.769531 L 164.863281 13.78125 L 164.945312 13.789062 L 165.027344 13.792969 L 165.207031 13.792969 L 165.296875 13.789062 L 165.382812 13.78125 L 165.546875 13.757812 L 165.625 13.742188 L 165.703125 13.722656 L 165.851562 13.675781 L 165.992188 13.613281 L 166.058594 13.578125 L 166.125 13.539062 L 166.1875 13.5 L 166.246094 13.453125 L 166.304688 13.402344 L 166.359375 13.351562 L 166.460938 13.234375 L 166.554688 13.101562 L 166.601562 13.027344 L 166.640625 12.949219 L 166.71875 12.785156 L 166.753906 12.695312 L 166.785156 12.601562 L 166.816406 12.503906 L 166.84375 12.402344 L 166.871094 12.296875 L 166.894531 12.1875 L 166.914062 12.074219 L 166.933594 11.957031 L 166.949219 11.832031 L 166.960938 11.703125 L 166.972656 11.570312 L 166.980469 11.433594 L 166.988281 11.289062 L 166.992188 11.140625 L 166.992188 10.84375 L 166.988281 10.703125 L 166.980469 10.566406 L 166.972656 10.433594 L 166.949219 10.183594 L 166.933594 10.066406 L 166.914062 9.953125 L 166.894531 9.84375 L 166.871094 9.738281 L 166.816406 9.542969 L 166.785156 9.449219 L 166.753906 9.359375 L 166.71875 9.273438 L 166.679688 9.191406 L 166.601562 9.042969 L 166.554688 8.972656 L 166.460938 8.847656 L 166.410156 8.789062 L 166.355469 8.734375 L 166.300781 8.683594 L 166.242188 8.636719 L 166.183594 8.59375 L 166.121094 8.554688 L 166.058594 8.519531 L 165.992188 8.484375 L 165.851562 8.429688 L 165.78125 8.40625 L 165.632812 8.367188 L 165.554688 8.351562 L 165.390625 8.328125 L 165.304688 8.320312 L 165.21875 8.316406 L 165.046875 8.316406 L 164.964844 8.320312 L 164.886719 8.328125 L 164.808594 8.339844 L 164.734375 8.351562 L 164.660156 8.367188 L 164.589844 8.386719 L 164.457031 8.433594 L 164.394531 8.464844 L 164.335938 8.496094 L 164.273438 8.53125 L 164.164062 8.609375 L 164.113281 8.65625 L 164.011719 8.757812 L 163.964844 8.816406 L 163.921875 8.875 L 163.878906 8.941406 L 163.839844 9.007812 L 163.800781 9.078125 L 163.730469 9.234375 L 163.667969 9.40625 L 163.640625 9.5 L 163.617188 9.59375 L 163.589844 9.695312 L 163.570312 9.796875 L 163.550781 9.90625 L 163.535156 10.015625 L 163.519531 10.132812 L 163.507812 10.25 L 163.496094 10.375 L 163.488281 10.503906 L 163.480469 10.640625 L 163.476562 10.777344 L 163.472656 10.921875 Z M 163.472656 11.066406 "/>
</svg>
