<?xml version="1.0" encoding="UTF-8"?>
<svg xmlns="http://www.w3.org/2000/svg" xmlns:xlink="http://www.w3.org/1999/xlink" width="504" height="360" viewBox="0 0 504 360">
<defs>
<clipPath id="clip-0">
<path clip-rule="nonzero" d="M 80.648438 0 L 423.347656 0 L 423.347656 360 L 80.648438 360 Z M 80.648438 0 "/>
</clipPath>
<clipPath id="clip-1">
<path clip-rule="nonzero" d="M 86.128906 22.78125 L 417.871094 22.78125 L 417.871094 354.523438 L 86.128906 354.523438 Z M 86.128906 22.78125 "/>
</clipPath>
</defs>
<rect x="-50.4" y="-36" width="604.8" height="432" fill="rgb(100%, 100%, 100%)" fill-opacity="1"/>
<g clip-path="url(#clip-0)">
<path fill-rule="nonzero" fill="rgb(100%, 100%, 100%)" fill-opacity="1" stroke-width="1.066978" stroke-linecap="round" stroke-linejoin="round" stroke="rgb(100%, 100%, 100%)" stroke-opacity="1" stroke-miterlimit="10" d="M 80.648438 360 L 423.347656 360 L 423.347656 0 L 80.648438 0 Z M 80.648438 360 "/>
</g>
<g clip-path="url(#clip-1)">
<path fill-rule="nonzero" fill="rgb(92.156863%, 92.156863%, 92.156863%)" fill-opacity="1" d="M 86.128906 354.519531 L 417.871094 354.519531 L 417.871094 22.777344 L 86.128906 22.777344 Z M 86.128906 354.519531 "/>
</g>
<path fill-rule="nonzero" fill="rgb(0%, 0%, 0%)" fill-opacity="1" d="M 91.167969 14.5625 L 89.894531 14.5625 L 86.1875 5.480469 L 87.484375 5.480469 L 89.996094 11.875 L 90.015625 11.929688 L 90.113281 12.222656 L 90.132812 12.277344 L 90.191406 12.453125 L 90.210938 12.507812 L 90.226562 12.5625 L 90.265625 12.671875 L 90.28125 12.722656 L 90.300781 12.773438 L 90.316406 12.820312 L 90.332031 12.871094 L 90.347656 12.917969 L 90.363281 12.960938 L 90.382812 13.015625 L 90.398438 13.066406 L 90.417969 13.121094 L 90.433594 13.171875 L 90.453125 13.222656 L 90.46875 13.273438 L 90.488281 13.324219 L 90.503906 13.378906 L 90.519531 13.425781 L 90.539062 13.476562 L 90.570312 13.382812 L 90.601562 13.28125 L 90.617188 13.234375 L 90.636719 13.183594 L 90.652344 13.132812 L 90.671875 13.078125 L 90.6875 13.027344 L 90.707031 12.976562 L 90.753906 12.835938 L 90.785156 12.734375 L 90.804688 12.683594 L 90.820312 12.632812 L 90.835938 12.578125 L 90.855469 12.523438 L 90.875 12.464844 L 90.894531 12.410156 L 90.992188 12.117188 L 91.015625 12.054688 L 91.035156 11.996094 L 91.058594 11.933594 L 91.078125 11.875 L 93.582031 5.480469 L 94.875 5.480469 Z M 91.167969 14.5625 "/>
<path fill-rule="nonzero" fill="rgb(0%, 0%, 0%)" fill-opacity="1" d="M 95.816406 6.105469 L 95.816406 4.996094 L 96.976562 4.996094 L 96.976562 6.105469 Z M 95.816406 14.5625 L 95.816406 7.585938 L 96.976562 7.585938 L 96.976562 14.5625 Z M 95.816406 14.5625 "/>
<path fill-rule="nonzero" fill="rgb(0%, 0%, 0%)" fill-opacity="1" d="M 98.78125 14.5625 L 98.78125 8.945312 L 98.777344 8.902344 L 98.777344 8.8125 L 98.773438 8.765625 L 98.773438 8.453125 L 98.769531 8.40625 L 98.769531 8.320312 L 98.765625 8.28125 L 98.765625 8.195312 L 98.761719 8.15625 L 98.761719 8.074219 L 98.757812 8.035156 L 98.757812 7.921875 L 98.753906 7.886719 L 98.753906 7.8125 L 98.75 7.777344 L 98.75 7.710938 L 98.746094 7.679688 L 98.746094 7.617188 L 98.742188 7.585938 L 99.839844 7.585938 L 99.839844 7.648438 L 99.84375 7.679688 L 99.84375 7.746094 L 99.847656 7.78125 L 99.847656 7.851562 L 99.851562 7.890625 L 99.851562 7.929688 L 99.855469 7.964844 L 99.855469 8.003906 L 99.859375 8.042969 L 99.859375 8.082031 L 99.863281 8.117188 L 99.863281 8.15625 L 99.867188 8.195312 L 99.867188 8.234375 L 99.871094 8.277344 L 99.871094 8.316406 L 99.875 8.355469 L 99.875 8.394531 L 99.878906 8.433594 L 99.878906 8.511719 L 99.882812 8.550781 L 99.882812 8.703125 L 99.886719 8.738281 L 99.886719 8.871094 L 99.890625 8.898438 L 99.890625 9.011719 L 99.917969 9.011719 L 99.964844 8.855469 L 99.992188 8.78125 L 100.015625 8.710938 L 100.042969 8.640625 L 100.066406 8.570312 L 100.09375 8.503906 L 100.121094 8.441406 L 100.148438 8.382812 L 100.175781 8.320312 L 100.203125 8.261719 L 100.230469 8.207031 L 100.261719 8.152344 L 100.292969 8.101562 L 100.328125 8.054688 L 100.359375 8.003906 L 100.464844 7.875 L 100.503906 7.839844 L 100.539062 7.800781 L 100.582031 7.765625 L 100.621094 7.730469 L 100.664062 7.699219 L 100.707031 7.671875 L 100.800781 7.617188 L 100.847656 7.59375 L 100.894531 7.574219 L 100.949219 7.554688 L 101 7.535156 L 101.054688 7.519531 L 101.113281 7.503906 L 101.171875 7.492188 L 101.234375 7.480469 L 101.296875 7.472656 L 101.363281 7.46875 L 101.429688 7.460938 L 101.5 7.460938 L 101.574219 7.457031 L 101.601562 7.457031 L 101.628906 7.460938 L 101.683594 7.460938 L 101.792969 7.476562 L 101.816406 7.480469 L 101.84375 7.484375 L 101.9375 7.5 L 101.996094 7.511719 L 102.042969 7.523438 L 102.042969 8.585938 L 102.019531 8.578125 L 101.996094 8.574219 L 101.96875 8.570312 L 101.945312 8.5625 L 101.863281 8.550781 L 101.832031 8.546875 L 101.804688 8.542969 L 101.773438 8.539062 L 101.742188 8.539062 L 101.707031 8.535156 L 101.675781 8.53125 L 101.640625 8.527344 L 101.609375 8.527344 L 101.574219 8.523438 L 101.34375 8.523438 L 101.269531 8.527344 L 101.195312 8.539062 L 101.125 8.550781 L 101.054688 8.566406 L 100.988281 8.585938 L 100.921875 8.609375 L 100.859375 8.636719 L 100.800781 8.667969 L 100.742188 8.703125 L 100.6875 8.738281 L 100.632812 8.78125 L 100.582031 8.824219 L 100.488281 8.917969 L 100.441406 8.96875 L 100.402344 9.023438 L 100.359375 9.082031 L 100.320312 9.140625 L 100.285156 9.203125 L 100.25 9.269531 L 100.21875 9.335938 L 100.1875 9.40625 L 100.160156 9.476562 L 100.132812 9.554688 L 100.105469 9.628906 L 100.085938 9.710938 L 100.0625 9.792969 L 100.042969 9.878906 L 100.027344 9.964844 L 100.007812 10.054688 L 99.984375 10.234375 L 99.972656 10.328125 L 99.960938 10.425781 L 99.957031 10.523438 L 99.949219 10.621094 L 99.945312 10.71875 L 99.941406 10.820312 L 99.941406 14.5625 Z M 98.78125 14.5625 "/>
<path fill-rule="nonzero" fill="rgb(0%, 0%, 0%)" fill-opacity="1" d="M 103.144531 6.105469 L 103.144531 4.996094 L 104.304688 4.996094 L 104.304688 6.105469 Z M 103.144531 14.5625 L 103.144531 7.585938 L 104.304688 7.585938 L 104.304688 14.5625 Z M 103.144531 14.5625 "/>
<path fill-rule="nonzero" fill="rgb(0%, 0%, 0%)" fill-opacity="1" d="M 110.488281 13.4375 L 110.417969 13.570312 L 110.347656 13.691406 L 110.273438 13.808594 L 110.195312 13.914062 L 110.109375 14.015625 L 110.023438 14.105469 L 109.929688 14.191406 L 109.835938 14.269531 L 109.734375 14.339844 L 109.628906 14.398438 L 109.519531 14.453125 L 109.40625 14.503906 L 109.289062 14.546875 L 109.164062 14.585938 L 109.035156 14.617188 L 108.902344 14.644531 L 108.761719 14.664062 L 108.617188 14.679688 L 108.46875 14.6875 L 108.3125 14.691406 L 108.058594 14.679688 L 107.8125 14.652344 L 107.585938 14.609375 L 107.367188 14.546875 L 107.167969 14.46875 L 106.980469 14.371094 L 106.804688 14.253906 L 106.644531 14.121094 L 106.5 13.96875 L 106.367188 13.800781 L 106.25 13.613281 L 106.144531 13.40625 L 106.050781 13.183594 L 105.972656 12.941406 L 105.902344 12.683594 L 105.847656 12.402344 L 105.804688 12.105469 L 105.773438 11.792969 L 105.753906 11.457031 L 105.75 11.105469 L 105.773438 10.414062 L 105.851562 9.792969 L 105.980469 9.246094 L 106.160156 8.769531 L 106.390625 8.371094 L 106.671875 8.042969 L 107.007812 7.785156 L 107.390625 7.605469 L 107.828125 7.496094 L 108.3125 7.457031 L 108.46875 7.460938 L 108.621094 7.46875 L 108.765625 7.484375 L 108.90625 7.503906 L 109.039062 7.53125 L 109.171875 7.5625 L 109.292969 7.601562 L 109.414062 7.644531 L 109.527344 7.691406 L 109.636719 7.75 L 109.738281 7.808594 L 109.839844 7.878906 L 109.933594 7.953125 L 110.027344 8.035156 L 110.113281 8.125 L 110.195312 8.21875 L 110.273438 8.320312 L 110.347656 8.429688 L 110.417969 8.546875 L 110.488281 8.667969 L 110.5 8.667969 L 110.5 8.605469 L 110.496094 8.585938 L 110.496094 8.519531 L 110.492188 8.496094 L 110.492188 8.296875 L 110.488281 8.269531 L 110.488281 4.996094 L 111.648438 4.996094 L 111.648438 13.742188 L 111.652344 13.785156 L 111.652344 13.871094 L 111.65625 13.914062 L 111.65625 13.992188 L 111.660156 14.03125 L 111.660156 14.109375 L 111.664062 14.144531 L 111.664062 14.210938 L 111.667969 14.246094 L 111.667969 14.308594 L 111.671875 14.339844 L 111.671875 14.394531 L 111.675781 14.417969 L 111.675781 14.464844 L 111.679688 14.484375 L 111.679688 14.519531 L 111.683594 14.535156 L 111.683594 14.5625 L 110.578125 14.5625 L 110.570312 14.53125 L 110.570312 14.519531 L 110.566406 14.5 L 110.5625 14.484375 L 110.5625 14.464844 L 110.554688 14.425781 L 110.554688 14.402344 L 110.550781 14.378906 L 110.550781 14.355469 L 110.546875 14.332031 L 110.546875 14.304688 L 110.542969 14.277344 L 110.542969 14.25 L 110.539062 14.222656 L 110.539062 14.191406 L 110.535156 14.164062 L 110.535156 14.132812 L 110.53125 14.101562 L 110.53125 14.070312 L 110.527344 14.039062 L 110.527344 13.976562 L 110.523438 13.945312 L 110.523438 13.878906 L 110.519531 13.847656 L 110.519531 13.78125 L 110.515625 13.746094 L 110.515625 13.609375 L 110.511719 13.574219 L 110.511719 13.4375 Z M 106.96875 11.066406 L 106.96875 11.210938 L 106.972656 11.347656 L 106.980469 11.613281 L 106.988281 11.738281 L 107 11.859375 L 107.011719 11.976562 L 107.023438 12.089844 L 107.039062 12.199219 L 107.058594 12.304688 L 107.078125 12.40625 L 107.097656 12.503906 L 107.121094 12.597656 L 107.175781 12.777344 L 107.207031 12.859375 L 107.238281 12.9375 L 107.273438 13.015625 L 107.308594 13.085938 L 107.347656 13.15625 L 107.386719 13.21875 L 107.433594 13.28125 L 107.476562 13.335938 L 107.523438 13.390625 L 107.574219 13.441406 L 107.625 13.488281 L 107.679688 13.53125 L 107.738281 13.570312 L 107.855469 13.640625 L 107.917969 13.667969 L 107.984375 13.695312 L 108.054688 13.71875 L 108.125 13.738281 L 108.199219 13.753906 L 108.277344 13.769531 L 108.355469 13.78125 L 108.4375 13.789062 L 108.523438 13.792969 L 108.703125 13.792969 L 108.789062 13.789062 L 108.875 13.78125 L 108.960938 13.769531 L 109.039062 13.757812 L 109.121094 13.742188 L 109.199219 13.722656 L 109.347656 13.675781 L 109.417969 13.644531 L 109.484375 13.613281 L 109.554688 13.578125 L 109.679688 13.5 L 109.742188 13.453125 L 109.851562 13.351562 L 109.90625 13.292969 L 109.957031 13.234375 L 110.050781 13.101562 L 110.09375 13.027344 L 110.136719 12.949219 L 110.175781 12.867188 L 110.210938 12.785156 L 110.246094 12.695312 L 110.28125 12.601562 L 110.308594 12.503906 L 110.339844 12.402344 L 110.363281 12.296875 L 110.386719 12.1875 L 110.40625 12.074219 L 110.425781 11.957031 L 110.441406 11.832031 L 110.457031 11.703125 L 110.464844 11.570312 L 110.476562 11.433594 L 110.480469 11.289062 L 110.484375 11.140625 L 110.488281 10.988281 L 110.484375 10.84375 L 110.480469 10.703125 L 110.476562 10.566406 L 110.464844 10.433594 L 110.457031 10.308594 L 110.441406 10.183594 L 110.425781 10.066406 L 110.40625 9.953125 L 110.386719 9.84375 L 110.363281 9.738281 L 110.339844 9.640625 L 110.308594 9.542969 L 110.28125 9.449219 L 110.246094 9.359375 L 110.210938 9.273438 L 110.175781 9.191406 L 110.136719 9.117188 L 110.09375 9.042969 L 110.050781 8.972656 L 110.003906 8.910156 L 109.953125 8.847656 L 109.902344 8.789062 L 109.851562 8.734375 L 109.792969 8.683594 L 109.738281 8.636719 L 109.675781 8.59375 L 109.617188 8.554688 L 109.484375 8.484375 L 109.417969 8.457031 L 109.347656 8.429688 L 109.277344 8.40625 L 109.203125 8.386719 L 109.125 8.367188 L 109.046875 8.351562 L 108.96875 8.339844 L 108.882812 8.328125 L 108.800781 8.320312 L 108.710938 8.316406 L 108.539062 8.316406 L 108.457031 8.320312 L 108.378906 8.328125 L 108.300781 8.339844 L 108.226562 8.351562 L 108.15625 8.367188 L 108.085938 8.386719 L 108.015625 8.410156 L 107.953125 8.433594 L 107.828125 8.496094 L 107.769531 8.53125 L 107.710938 8.570312 L 107.65625 8.609375 L 107.605469 8.65625 L 107.554688 8.707031 L 107.507812 8.757812 L 107.414062 8.875 L 107.375 8.941406 L 107.332031 9.007812 L 107.292969 9.078125 L 107.257812 9.15625 L 107.226562 9.234375 L 107.191406 9.320312 L 107.164062 9.40625 L 107.109375 9.59375 L 107.0625 9.796875 L 107.046875 9.90625 L 107.027344 10.015625 L 107.003906 10.25 L 106.992188 10.375 L 106.984375 10.503906 L 106.976562 10.640625 L 106.972656 10.777344 L 106.96875 10.921875 Z M 106.96875 11.066406 "/>
<path fill-rule="nonzero" fill="rgb(0%, 0%, 0%)" fill-opacity="1" d="M 113.417969 6.105469 L 113.417969 4.996094 L 114.578125 4.996094 L 114.578125 6.105469 Z M 113.417969 14.5625 L 113.417969 7.585938 L 114.578125 7.585938 L 114.578125 14.5625 Z M 113.417969 14.5625 "/>
<path fill-rule="nonzero" fill="rgb(0%, 0%, 0%)" fill-opacity="1" d="M 121.589844 12.632812 L 121.589844 12.730469 L 121.574219 12.917969 L 121.5625 13.007812 L 121.542969 13.097656 L 121.523438 13.183594 L 121.496094 13.269531 L 121.46875 13.351562 L 121.433594 13.433594 L 121.398438 13.511719 L 121.359375 13.585938 L 121.316406 13.65625 L 121.222656 13.796875 L 121.167969 13.863281 L 121.113281 13.925781 L 120.988281 14.042969 L 120.921875 14.101562 L 120.851562 14.15625 L 120.777344 14.207031 L 120.699219 14.253906 L 120.617188 14.300781 L 120.535156 14.34375 L 120.449219 14.382812 L 120.355469 14.421875 L 120.261719 14.457031 L 120.164062 14.492188 L 120.066406 14.523438 L 119.960938 14.554688 L 119.855469 14.582031 L 119.746094 14.601562 L 119.632812 14.625 L 119.519531 14.640625 L 119.398438 14.65625 L 119.277344 14.667969 L 119.027344 14.683594 L 118.761719 14.691406 L 118.640625 14.6875 L 118.523438 14.6875 L 118.410156 14.679688 L 118.296875 14.675781 L 118.183594 14.664062 L 118.078125 14.65625 L 117.972656 14.640625 L 117.867188 14.628906 L 117.765625 14.613281 L 117.570312 14.574219 L 117.476562 14.550781 L 117.296875 14.503906 L 117.210938 14.472656 L 117.046875 14.410156 L 116.96875 14.375 L 116.890625 14.335938 L 116.816406 14.296875 L 116.742188 14.253906 L 116.671875 14.207031 L 116.605469 14.160156 L 116.539062 14.109375 L 116.476562 14.058594 L 116.417969 14.003906 L 116.359375 13.945312 L 116.300781 13.882812 L 116.25 13.820312 L 116.195312 13.753906 L 116.148438 13.683594 L 116.105469 13.613281 L 116.0625 13.535156 L 116.023438 13.457031 L 115.984375 13.375 L 115.949219 13.292969 L 115.886719 13.113281 L 115.859375 13.019531 L 115.835938 12.921875 L 116.859375 12.722656 L 116.894531 12.832031 L 116.933594 12.9375 L 116.976562 13.035156 L 117.03125 13.125 L 117.089844 13.210938 L 117.152344 13.289062 L 117.222656 13.363281 L 117.300781 13.429688 L 117.382812 13.492188 L 117.472656 13.550781 L 117.570312 13.597656 L 117.671875 13.640625 L 117.785156 13.679688 L 117.902344 13.714844 L 118.027344 13.742188 L 118.160156 13.765625 L 118.300781 13.785156 L 118.445312 13.796875 L 118.601562 13.804688 L 118.761719 13.808594 L 118.835938 13.804688 L 118.910156 13.804688 L 119.121094 13.792969 L 119.1875 13.789062 L 119.320312 13.773438 L 119.382812 13.765625 L 119.445312 13.753906 L 119.507812 13.746094 L 119.566406 13.730469 L 119.625 13.71875 L 119.683594 13.703125 L 119.738281 13.6875 L 119.792969 13.667969 L 119.894531 13.628906 L 119.988281 13.582031 L 120.074219 13.527344 L 120.152344 13.464844 L 120.1875 13.433594 L 120.21875 13.398438 L 120.253906 13.363281 L 120.335938 13.246094 L 120.359375 13.203125 L 120.382812 13.15625 L 120.402344 13.109375 L 120.417969 13.058594 L 120.441406 12.957031 L 120.453125 12.902344 L 120.460938 12.785156 L 120.464844 12.722656 L 120.460938 12.660156 L 120.457031 12.601562 L 120.449219 12.546875 L 120.441406 12.488281 L 120.410156 12.386719 L 120.390625 12.339844 L 120.367188 12.292969 L 120.34375 12.25 L 120.316406 12.207031 L 120.285156 12.167969 L 120.214844 12.089844 L 120.179688 12.054688 L 120.136719 12.019531 L 120.097656 11.988281 L 120.050781 11.953125 L 120.003906 11.921875 L 119.902344 11.867188 L 119.792969 11.8125 L 119.734375 11.789062 L 119.609375 11.742188 L 119.476562 11.695312 L 119.40625 11.675781 L 119.332031 11.65625 L 119.257812 11.632812 L 119.183594 11.613281 L 119.105469 11.59375 L 119.027344 11.570312 L 118.945312 11.550781 L 118.867188 11.527344 L 118.523438 11.433594 L 118.433594 11.410156 L 118.351562 11.386719 L 118.265625 11.363281 L 118.183594 11.339844 L 118.097656 11.316406 L 117.933594 11.269531 L 117.851562 11.242188 L 117.765625 11.21875 L 117.519531 11.136719 L 117.285156 11.042969 L 117.207031 11.007812 L 117.136719 10.972656 L 117.0625 10.933594 L 116.992188 10.894531 L 116.921875 10.851562 L 116.855469 10.808594 L 116.789062 10.761719 L 116.726562 10.714844 L 116.609375 10.613281 L 116.554688 10.558594 L 116.503906 10.5 L 116.453125 10.445312 L 116.40625 10.382812 L 116.363281 10.320312 L 116.320312 10.253906 L 116.28125 10.1875 L 116.246094 10.117188 L 116.214844 10.042969 L 116.1875 9.964844 L 116.164062 9.886719 L 116.144531 9.800781 L 116.132812 9.714844 L 116.121094 9.621094 L 116.113281 9.527344 L 116.113281 9.429688 L 116.121094 9.246094 L 116.140625 9.066406 L 116.175781 8.898438 L 116.222656 8.742188 L 116.28125 8.589844 L 116.355469 8.449219 L 116.445312 8.320312 L 116.546875 8.195312 L 116.660156 8.085938 L 116.789062 7.980469 L 116.933594 7.882812 L 117.089844 7.800781 L 117.253906 7.722656 L 117.433594 7.660156 L 117.628906 7.601562 L 117.832031 7.558594 L 118.050781 7.523438 L 118.277344 7.496094 L 118.519531 7.484375 L 118.773438 7.476562 L 119 7.480469 L 119.21875 7.492188 L 119.425781 7.515625 L 119.621094 7.542969 L 119.808594 7.578125 L 119.988281 7.625 L 120.15625 7.675781 L 120.316406 7.738281 L 120.464844 7.804688 L 120.605469 7.882812 L 120.738281 7.96875 L 120.859375 8.066406 L 120.96875 8.171875 L 121.070312 8.285156 L 121.164062 8.410156 L 121.246094 8.546875 L 121.316406 8.691406 L 121.375 8.847656 L 121.429688 9.011719 L 121.46875 9.183594 L 120.425781 9.3125 L 120.414062 9.261719 L 120.382812 9.160156 L 120.34375 9.066406 L 120.296875 8.980469 L 120.269531 8.9375 L 120.242188 8.898438 L 120.148438 8.792969 L 120.113281 8.757812 L 120.042969 8.695312 L 119.964844 8.640625 L 119.921875 8.613281 L 119.882812 8.589844 L 119.839844 8.566406 L 119.792969 8.542969 L 119.75 8.523438 L 119.703125 8.503906 L 119.652344 8.484375 L 119.605469 8.46875 L 119.503906 8.4375 L 119.449219 8.425781 L 119.398438 8.414062 L 119.34375 8.40625 L 119.289062 8.394531 L 119.234375 8.386719 L 119.175781 8.378906 L 119.121094 8.371094 L 119.066406 8.367188 L 118.949219 8.359375 L 118.894531 8.355469 L 118.621094 8.355469 L 118.476562 8.363281 L 118.339844 8.375 L 118.210938 8.390625 L 118.09375 8.414062 L 117.980469 8.441406 L 117.875 8.472656 L 117.78125 8.507812 L 117.695312 8.546875 L 117.613281 8.59375 L 117.542969 8.644531 L 117.480469 8.699219 L 117.425781 8.757812 L 117.375 8.824219 L 117.335938 8.890625 L 117.300781 8.96875 L 117.273438 9.046875 L 117.257812 9.128906 L 117.246094 9.21875 L 117.242188 9.3125 L 117.242188 9.371094 L 117.246094 9.425781 L 117.261719 9.527344 L 117.273438 9.574219 L 117.289062 9.621094 L 117.328125 9.707031 L 117.375 9.785156 L 117.4375 9.855469 L 117.472656 9.886719 L 117.507812 9.921875 L 117.542969 9.953125 L 117.582031 9.984375 L 117.667969 10.039062 L 117.761719 10.09375 L 117.8125 10.117188 L 117.921875 10.164062 L 118.039062 10.210938 L 118.097656 10.230469 L 118.164062 10.253906 L 118.226562 10.273438 L 118.292969 10.292969 L 118.503906 10.351562 L 118.578125 10.367188 L 118.726562 10.40625 L 118.882812 10.445312 L 119.046875 10.484375 L 119.128906 10.507812 L 119.183594 10.519531 L 119.242188 10.535156 L 119.351562 10.566406 L 119.410156 10.582031 L 119.464844 10.597656 L 119.640625 10.644531 L 119.695312 10.660156 L 119.753906 10.675781 L 119.8125 10.695312 L 119.867188 10.710938 L 119.925781 10.730469 L 119.980469 10.75 L 120.039062 10.769531 L 120.148438 10.808594 L 120.421875 10.925781 L 120.472656 10.949219 L 120.675781 11.058594 L 120.726562 11.089844 L 120.773438 11.117188 L 120.867188 11.179688 L 120.914062 11.214844 L 120.957031 11.246094 L 121 11.285156 L 121.042969 11.320312 L 121.085938 11.359375 L 121.125 11.398438 L 121.160156 11.4375 L 121.199219 11.480469 L 121.234375 11.523438 L 121.265625 11.566406 L 121.300781 11.613281 L 121.332031 11.660156 L 121.414062 11.8125 L 121.460938 11.921875 L 121.480469 11.976562 L 121.503906 12.035156 L 121.523438 12.09375 L 121.539062 12.15625 L 121.5625 12.28125 L 121.574219 12.347656 L 121.582031 12.417969 L 121.589844 12.558594 Z M 121.589844 12.632812 "/>
<path fill-rule="nonzero" fill="rgb(0%, 0%, 0%)" fill-opacity="1" d="M 124.550781 13.148438 L 124.550781 14.300781 L 124.546875 14.367188 L 124.546875 14.429688 L 124.542969 14.496094 L 124.542969 14.558594 L 124.539062 14.617188 L 124.535156 14.679688 L 124.53125 14.738281 L 124.523438 14.792969 L 124.519531 14.851562 L 124.511719 14.90625 L 124.507812 14.960938 L 124.492188 15.070312 L 124.480469 15.125 L 124.472656 15.175781 L 124.460938 15.226562 L 124.453125 15.277344 L 124.441406 15.324219 L 124.425781 15.371094 L 124.414062 15.421875 L 124.402344 15.46875 L 124.339844 15.65625 L 124.320312 15.699219 L 124.304688 15.746094 L 124.246094 15.875 L 124.230469 15.914062 L 124.207031 15.957031 L 124.167969 16.042969 L 124.144531 16.082031 L 124.097656 16.167969 L 124.074219 16.207031 L 124.046875 16.25 L 123.253906 16.25 L 123.3125 16.164062 L 123.363281 16.082031 L 123.417969 15.996094 L 123.464844 15.914062 L 123.511719 15.828125 L 123.554688 15.746094 L 123.632812 15.574219 L 123.667969 15.492188 L 123.730469 15.320312 L 123.757812 15.234375 L 123.78125 15.152344 L 123.820312 14.980469 L 123.835938 14.898438 L 123.847656 14.8125 L 123.855469 14.730469 L 123.859375 14.644531 L 123.859375 14.5625 L 123.292969 14.5625 L 123.292969 13.148438 Z M 124.550781 13.148438 "/>
<path fill-rule="nonzero" fill="rgb(0%, 0%, 0%)" fill-opacity="1" d="M 131.175781 11.042969 L 131.175781 11.160156 L 131.183594 11.394531 L 131.1875 11.503906 L 131.195312 11.617188 L 131.207031 11.726562 L 131.242188 12.042969 L 131.257812 12.144531 L 131.277344 12.242188 L 131.300781 12.339844 L 131.324219 12.433594 L 131.378906 12.613281 L 131.410156 12.699219 L 131.441406 12.78125 L 131.476562 12.863281 L 131.515625 12.9375 L 131.554688 13.015625 L 131.597656 13.085938 L 131.644531 13.152344 L 131.691406 13.214844 L 131.742188 13.277344 L 131.792969 13.335938 L 131.851562 13.390625 L 131.90625 13.441406 L 131.96875 13.488281 L 132.03125 13.53125 L 132.097656 13.574219 L 132.167969 13.613281 L 132.242188 13.648438 L 132.316406 13.675781 L 132.394531 13.703125 L 132.476562 13.726562 L 132.5625 13.742188 L 132.652344 13.757812 L 132.742188 13.765625 L 132.835938 13.773438 L 132.933594 13.773438 L 133.058594 13.769531 L 133.175781 13.761719 L 133.289062 13.746094 L 133.398438 13.722656 L 133.503906 13.691406 L 133.605469 13.652344 L 133.699219 13.609375 L 133.792969 13.558594 L 133.882812 13.503906 L 133.964844 13.4375 L 134.046875 13.367188 L 134.121094 13.289062 L 134.1875 13.207031 L 134.25 13.113281 L 134.304688 13.015625 L 134.351562 12.90625 L 134.394531 12.792969 L 134.429688 12.671875 L 134.460938 12.542969 L 134.480469 12.40625 L 135.65625 12.484375 L 135.609375 12.742188 L 135.585938 12.824219 L 135.5625 12.910156 L 135.507812 13.074219 L 135.476562 13.15625 L 135.441406 13.238281 L 135.363281 13.394531 L 135.320312 13.472656 L 135.226562 13.621094 L 135.175781 13.691406 L 135.121094 13.761719 L 135.003906 13.894531 L 134.941406 13.957031 L 134.875 14.019531 L 134.808594 14.078125 L 134.738281 14.136719 L 134.664062 14.191406 L 134.589844 14.242188 L 134.507812 14.292969 L 134.34375 14.386719 L 134.164062 14.472656 L 134.070312 14.507812 L 133.972656 14.542969 L 133.875 14.574219 L 133.769531 14.601562 L 133.664062 14.625 L 133.554688 14.644531 L 133.445312 14.660156 L 133.210938 14.683594 L 132.96875 14.691406 L 132.804688 14.6875 L 132.648438 14.679688 L 132.5 14.664062 L 132.351562 14.644531 L 132.210938 14.621094 L 132.074219 14.589844 L 131.941406 14.554688 L 131.816406 14.511719 L 131.691406 14.464844 L 131.574219 14.414062 L 131.460938 14.355469 L 131.355469 14.292969 L 131.25 14.226562 L 131.152344 14.15625 L 131.054688 14.082031 L 130.964844 14.003906 L 130.875 13.921875 L 130.792969 13.835938 L 130.714844 13.746094 L 130.640625 13.652344 L 130.570312 13.550781 L 130.507812 13.449219 L 130.445312 13.34375 L 130.386719 13.234375 L 130.335938 13.121094 L 130.285156 13.003906 L 130.238281 12.882812 L 130.199219 12.761719 L 130.160156 12.632812 L 130.125 12.503906 L 130.09375 12.371094 L 130.066406 12.234375 L 130.042969 12.097656 L 130.023438 11.957031 L 130.003906 11.8125 L 129.988281 11.667969 L 129.980469 11.523438 L 129.96875 11.371094 L 129.964844 11.222656 L 129.964844 10.929688 L 129.96875 10.792969 L 129.972656 10.660156 L 129.984375 10.53125 L 129.992188 10.40625 L 130.007812 10.285156 L 130.019531 10.167969 L 130.039062 10.050781 L 130.058594 9.9375 L 130.082031 9.828125 L 130.105469 9.722656 L 130.128906 9.621094 L 130.15625 9.519531 L 130.1875 9.417969 L 130.25 9.230469 L 130.285156 9.140625 L 130.363281 8.96875 L 130.402344 8.890625 L 130.445312 8.808594 L 130.492188 8.730469 L 130.535156 8.65625 L 130.582031 8.585938 L 130.632812 8.515625 L 130.683594 8.449219 L 130.734375 8.386719 L 130.789062 8.324219 L 130.84375 8.269531 L 130.898438 8.210938 L 130.957031 8.15625 L 131.074219 8.054688 L 131.132812 8.007812 L 131.195312 7.964844 L 131.253906 7.921875 L 131.316406 7.882812 L 131.382812 7.84375 L 131.445312 7.808594 L 131.511719 7.773438 L 131.644531 7.710938 L 131.855469 7.628906 L 131.925781 7.609375 L 131.996094 7.585938 L 132.066406 7.566406 L 132.214844 7.535156 L 132.285156 7.519531 L 132.507812 7.484375 L 132.65625 7.46875 L 132.878906 7.457031 L 132.953125 7.457031 L 133.070312 7.460938 L 133.183594 7.464844 L 133.296875 7.472656 L 133.402344 7.484375 L 133.613281 7.515625 L 133.710938 7.539062 L 133.8125 7.5625 L 133.90625 7.589844 L 134 7.621094 L 134.089844 7.652344 L 134.175781 7.6875 L 134.261719 7.726562 L 134.425781 7.8125 L 134.5 7.855469 L 134.578125 7.90625 L 134.71875 8.007812 L 134.785156 8.0625 L 134.851562 8.121094 L 134.976562 8.238281 L 135.03125 8.300781 L 135.089844 8.367188 L 135.140625 8.433594 L 135.191406 8.503906 L 135.285156 8.644531 L 135.328125 8.722656 L 135.367188 8.796875 L 135.4375 8.953125 L 135.472656 9.035156 L 135.503906 9.117188 L 135.53125 9.199219 L 135.554688 9.28125 L 135.578125 9.367188 L 135.617188 9.539062 L 134.425781 9.628906 L 134.402344 9.515625 L 134.378906 9.40625 L 134.308594 9.203125 L 134.265625 9.109375 L 134.214844 9.019531 L 134.164062 8.933594 L 134.039062 8.777344 L 133.964844 8.707031 L 133.890625 8.644531 L 133.808594 8.585938 L 133.71875 8.535156 L 133.625 8.488281 L 133.523438 8.453125 L 133.414062 8.421875 L 133.300781 8.398438 L 133.179688 8.378906 L 133.054688 8.371094 L 132.921875 8.367188 L 132.824219 8.367188 L 132.730469 8.375 L 132.640625 8.382812 L 132.550781 8.394531 L 132.464844 8.410156 L 132.386719 8.425781 L 132.230469 8.472656 L 132.089844 8.535156 L 131.964844 8.605469 L 131.847656 8.691406 L 131.792969 8.738281 L 131.742188 8.789062 L 131.691406 8.84375 L 131.644531 8.902344 L 131.597656 8.964844 L 131.554688 9.03125 L 131.515625 9.097656 L 131.476562 9.167969 L 131.441406 9.242188 L 131.410156 9.320312 L 131.378906 9.402344 L 131.351562 9.488281 L 131.324219 9.578125 L 131.300781 9.667969 L 131.277344 9.761719 L 131.257812 9.863281 L 131.242188 9.964844 L 131.230469 10.070312 L 131.21875 10.179688 L 131.207031 10.292969 L 131.195312 10.410156 L 131.1875 10.527344 L 131.179688 10.777344 L 131.175781 10.90625 Z M 131.175781 11.042969 "/>
<path fill-rule="nonzero" fill="rgb(0%, 0%, 0%)" fill-opacity="1" d="M 142.789062 11.066406 L 142.78125 11.425781 L 142.757812 11.761719 L 142.71875 12.082031 L 142.660156 12.382812 L 142.589844 12.664062 L 142.5 12.925781 L 142.394531 13.171875 L 142.273438 13.398438 L 142.136719 13.605469 L 141.984375 13.792969 L 141.816406 13.964844 L 141.632812 14.117188 L 141.4375 14.25 L 141.222656 14.367188 L 140.996094 14.464844 L 140.753906 14.546875 L 140.5 14.609375 L 140.230469 14.652344 L 139.945312 14.679688 L 139.644531 14.691406 L 139.5 14.6875 L 139.359375 14.679688 L 139.222656 14.671875 L 139.085938 14.65625 L 138.957031 14.636719 L 138.699219 14.582031 L 138.578125 14.550781 L 138.460938 14.511719 L 138.34375 14.46875 L 138.230469 14.425781 L 138.121094 14.375 L 137.910156 14.257812 L 137.8125 14.195312 L 137.71875 14.125 L 137.625 14.050781 L 137.535156 13.972656 L 137.371094 13.800781 L 137.292969 13.707031 L 137.21875 13.609375 L 137.148438 13.507812 L 137.085938 13.402344 L 137.023438 13.292969 L 136.90625 13.058594 L 136.855469 12.933594 L 136.808594 12.804688 L 136.765625 12.671875 L 136.726562 12.535156 L 136.691406 12.390625 L 136.660156 12.242188 L 136.632812 12.085938 L 136.609375 11.929688 L 136.589844 11.765625 L 136.578125 11.597656 L 136.566406 11.425781 L 136.558594 11.25 L 136.558594 11.066406 L 136.589844 10.382812 L 136.683594 9.769531 L 136.839844 9.226562 L 137.058594 8.757812 L 137.339844 8.359375 L 137.683594 8.035156 L 138.089844 7.78125 L 138.558594 7.601562 L 139.089844 7.496094 L 139.683594 7.457031 L 139.84375 7.460938 L 140 7.46875 L 140.152344 7.476562 L 140.296875 7.496094 L 140.4375 7.515625 L 140.578125 7.539062 L 140.710938 7.570312 L 140.839844 7.601562 L 140.960938 7.640625 L 141.082031 7.683594 L 141.199219 7.730469 L 141.3125 7.78125 L 141.523438 7.898438 L 141.621094 7.964844 L 141.714844 8.035156 L 141.804688 8.109375 L 141.890625 8.1875 L 141.972656 8.273438 L 142.050781 8.359375 L 142.125 8.453125 L 142.191406 8.550781 L 142.257812 8.652344 L 142.320312 8.757812 L 142.378906 8.867188 L 142.433594 8.984375 L 142.484375 9.101562 L 142.53125 9.226562 L 142.570312 9.355469 L 142.609375 9.488281 L 142.644531 9.625 L 142.675781 9.769531 L 142.703125 9.914062 L 142.726562 10.066406 L 142.746094 10.222656 L 142.761719 10.382812 L 142.773438 10.546875 L 142.78125 10.714844 L 142.789062 10.890625 Z M 141.570312 11.066406 L 141.570312 10.90625 L 141.566406 10.753906 L 141.558594 10.605469 L 141.550781 10.464844 L 141.539062 10.328125 L 141.527344 10.195312 L 141.507812 10.070312 L 141.488281 9.949219 L 141.46875 9.835938 L 141.441406 9.726562 L 141.417969 9.625 L 141.390625 9.523438 L 141.359375 9.429688 L 141.289062 9.25 L 141.253906 9.167969 L 141.210938 9.089844 L 141.167969 9.015625 L 141.125 8.949219 L 141.074219 8.882812 L 141.027344 8.820312 L 140.976562 8.765625 L 140.921875 8.710938 L 140.867188 8.660156 L 140.808594 8.613281 L 140.75 8.574219 L 140.6875 8.535156 L 140.625 8.5 L 140.558594 8.472656 L 140.417969 8.417969 L 140.347656 8.398438 L 140.273438 8.378906 L 140.117188 8.347656 L 140.039062 8.335938 L 139.875 8.320312 L 139.789062 8.316406 L 139.613281 8.316406 L 139.527344 8.320312 L 139.445312 8.328125 L 139.359375 8.335938 L 139.277344 8.347656 L 139.199219 8.363281 L 139.121094 8.382812 L 139.046875 8.402344 L 138.96875 8.425781 L 138.898438 8.449219 L 138.828125 8.476562 L 138.757812 8.511719 L 138.695312 8.546875 L 138.628906 8.585938 L 138.570312 8.628906 L 138.507812 8.675781 L 138.453125 8.726562 L 138.394531 8.78125 L 138.34375 8.839844 L 138.292969 8.902344 L 138.242188 8.96875 L 138.195312 9.035156 L 138.152344 9.109375 L 138.109375 9.1875 L 138.070312 9.269531 L 138.03125 9.359375 L 137.996094 9.449219 L 137.964844 9.542969 L 137.933594 9.644531 L 137.90625 9.746094 L 137.878906 9.855469 L 137.859375 9.96875 L 137.839844 10.085938 L 137.820312 10.210938 L 137.808594 10.339844 L 137.796875 10.476562 L 137.789062 10.617188 L 137.78125 10.761719 L 137.777344 10.910156 L 137.777344 11.226562 L 137.78125 11.382812 L 137.789062 11.53125 L 137.796875 11.671875 L 137.8125 11.808594 L 137.828125 11.941406 L 137.84375 12.070312 L 137.867188 12.191406 L 137.890625 12.304688 L 137.917969 12.414062 L 137.945312 12.519531 L 137.976562 12.617188 L 138.046875 12.804688 L 138.085938 12.890625 L 138.125 12.972656 L 138.167969 13.050781 L 138.210938 13.125 L 138.257812 13.195312 L 138.304688 13.257812 L 138.355469 13.320312 L 138.410156 13.378906 L 138.460938 13.429688 L 138.519531 13.480469 L 138.578125 13.527344 L 138.636719 13.570312 L 138.699219 13.609375 L 138.761719 13.644531 L 138.824219 13.675781 L 138.890625 13.703125 L 139.03125 13.75 L 139.101562 13.769531 L 139.171875 13.785156 L 139.246094 13.800781 L 139.320312 13.8125 L 139.398438 13.820312 L 139.472656 13.828125 L 139.550781 13.832031 L 139.71875 13.832031 L 139.804688 13.828125 L 139.890625 13.820312 L 139.972656 13.8125 L 140.136719 13.789062 L 140.214844 13.773438 L 140.363281 13.734375 L 140.4375 13.710938 L 140.507812 13.683594 L 140.578125 13.652344 L 140.644531 13.617188 L 140.707031 13.578125 L 140.769531 13.535156 L 140.832031 13.488281 L 140.890625 13.4375 L 141 13.328125 L 141.050781 13.265625 L 141.097656 13.199219 L 141.144531 13.128906 L 141.191406 13.054688 L 141.234375 12.976562 L 141.273438 12.894531 L 141.308594 12.808594 L 141.378906 12.621094 L 141.410156 12.519531 L 141.4375 12.414062 L 141.460938 12.304688 L 141.484375 12.191406 L 141.503906 12.070312 L 141.523438 11.941406 L 141.539062 11.808594 L 141.550781 11.671875 L 141.558594 11.53125 L 141.566406 11.382812 L 141.570312 11.226562 Z M 141.570312 11.066406 "/>
<path fill-rule="nonzero" fill="rgb(0%, 0%, 0%)" fill-opacity="1" d="M 148.660156 14.5625 L 148.660156 9.941406 L 148.65625 9.847656 L 148.648438 9.757812 L 148.644531 9.671875 L 148.632812 9.589844 L 148.625 9.507812 L 148.613281 9.433594 L 148.597656 9.359375 L 148.585938 9.289062 L 148.570312 9.222656 L 148.550781 9.15625 L 148.535156 9.097656 L 148.511719 9.035156 L 148.464844 8.925781 L 148.4375 8.875 L 148.410156 8.828125 L 148.347656 8.742188 L 148.3125 8.699219 L 148.273438 8.660156 L 148.195312 8.589844 L 148.152344 8.558594 L 148.105469 8.53125 L 148.058594 8.507812 L 147.957031 8.460938 L 147.902344 8.445312 L 147.847656 8.425781 L 147.789062 8.410156 L 147.664062 8.386719 L 147.597656 8.375 L 147.527344 8.367188 L 147.457031 8.363281 L 147.382812 8.359375 L 147.304688 8.355469 L 147.144531 8.355469 L 147.0625 8.359375 L 146.984375 8.367188 L 146.90625 8.378906 L 146.832031 8.390625 L 146.757812 8.40625 L 146.683594 8.425781 L 146.542969 8.472656 L 146.476562 8.503906 L 146.414062 8.53125 L 146.347656 8.5625 L 146.289062 8.597656 L 146.226562 8.636719 L 146.171875 8.679688 L 146.113281 8.722656 L 146.0625 8.765625 L 146.007812 8.816406 L 145.957031 8.867188 L 145.863281 8.976562 L 145.820312 9.035156 L 145.742188 9.160156 L 145.703125 9.226562 L 145.667969 9.292969 L 145.605469 9.441406 L 145.574219 9.519531 L 145.550781 9.597656 L 145.523438 9.679688 L 145.503906 9.761719 L 145.484375 9.847656 L 145.464844 9.9375 L 145.453125 10.027344 L 145.441406 10.121094 L 145.429688 10.21875 L 145.425781 10.316406 L 145.421875 10.417969 L 145.421875 14.5625 L 144.261719 14.5625 L 144.261719 9.074219 L 144.257812 9.03125 L 144.257812 8.757812 L 144.253906 8.714844 L 144.253906 8.425781 L 144.25 8.382812 L 144.25 8.203125 L 144.246094 8.160156 L 144.246094 8.074219 L 144.242188 8.035156 L 144.242188 7.957031 L 144.238281 7.921875 L 144.238281 7.851562 L 144.234375 7.820312 L 144.234375 7.757812 L 144.230469 7.730469 L 144.230469 7.679688 L 144.226562 7.660156 L 144.226562 7.625 L 144.222656 7.609375 L 144.222656 7.585938 L 145.316406 7.585938 L 145.316406 7.59375 L 145.320312 7.605469 L 145.320312 7.628906 L 145.324219 7.648438 L 145.324219 7.6875 L 145.328125 7.707031 L 145.328125 7.761719 L 145.332031 7.789062 L 145.332031 7.851562 L 145.335938 7.882812 L 145.335938 7.949219 L 145.339844 7.980469 L 145.339844 8.054688 L 145.34375 8.089844 L 145.34375 8.125 L 145.347656 8.164062 L 145.351562 8.199219 L 145.351562 8.234375 L 145.355469 8.273438 L 145.355469 8.3125 L 145.359375 8.347656 L 145.359375 8.425781 L 145.363281 8.464844 L 145.363281 8.535156 L 145.367188 8.570312 L 145.367188 8.78125 L 145.386719 8.78125 L 145.421875 8.71875 L 145.492188 8.601562 L 145.5625 8.492188 L 145.601562 8.4375 L 145.636719 8.382812 L 145.753906 8.230469 L 145.796875 8.183594 L 145.835938 8.136719 L 145.878906 8.089844 L 145.925781 8.046875 L 145.972656 8.007812 L 146.019531 7.964844 L 146.066406 7.925781 L 146.117188 7.890625 L 146.167969 7.851562 L 146.21875 7.820312 L 146.273438 7.785156 L 146.382812 7.722656 L 146.441406 7.691406 L 146.503906 7.667969 L 146.5625 7.640625 L 146.628906 7.617188 L 146.691406 7.59375 L 146.824219 7.554688 L 146.894531 7.535156 L 146.964844 7.519531 L 147.039062 7.503906 L 147.195312 7.480469 L 147.273438 7.472656 L 147.355469 7.46875 L 147.441406 7.460938 L 147.527344 7.460938 L 147.617188 7.457031 L 147.84375 7.464844 L 147.953125 7.472656 L 148.054688 7.480469 L 148.15625 7.492188 L 148.257812 7.507812 L 148.351562 7.527344 L 148.53125 7.574219 L 148.617188 7.601562 L 148.699219 7.628906 L 148.855469 7.699219 L 148.929688 7.738281 L 149 7.78125 L 149.066406 7.824219 L 149.191406 7.925781 L 149.25 7.980469 L 149.359375 8.097656 L 149.410156 8.164062 L 149.457031 8.230469 L 149.5 8.304688 L 149.539062 8.378906 L 149.578125 8.457031 L 149.613281 8.539062 L 149.644531 8.625 L 149.671875 8.710938 L 149.699219 8.804688 L 149.722656 8.898438 L 149.746094 9 L 149.765625 9.101562 L 149.796875 9.3125 L 149.808594 9.425781 L 149.816406 9.542969 L 149.824219 9.664062 L 149.828125 9.785156 L 149.828125 14.5625 Z M 148.660156 14.5625 "/>
<path fill-rule="nonzero" fill="rgb(0%, 0%, 0%)" fill-opacity="1" d="M 154.257812 14.507812 L 154.203125 14.523438 L 154.148438 14.535156 L 154.097656 14.550781 L 154.042969 14.5625 L 153.988281 14.570312 L 153.878906 14.59375 L 153.714844 14.617188 L 153.660156 14.628906 L 153.601562 14.636719 L 153.542969 14.640625 L 153.484375 14.648438 L 153.359375 14.65625 L 153.292969 14.660156 L 153.222656 14.664062 L 153.082031 14.664062 L 152.820312 14.648438 L 152.582031 14.601562 L 152.375 14.523438 L 152.191406 14.410156 L 152.039062 14.269531 L 151.914062 14.09375 L 151.816406 13.890625 L 151.746094 13.652344 L 151.707031 13.386719 L 151.691406 13.085938 L 151.691406 8.429688 L 150.886719 8.429688 L 150.886719 7.585938 L 151.738281 7.585938 L 152.078125 6.027344 L 152.851562 6.027344 L 152.851562 7.585938 L 154.140625 7.585938 L 154.140625 8.429688 L 152.851562 8.429688 L 152.851562 12.929688 L 152.859375 13.023438 L 152.867188 13.109375 L 152.878906 13.1875 L 152.890625 13.261719 L 152.910156 13.332031 L 152.929688 13.390625 L 152.953125 13.449219 L 152.980469 13.5 L 153.011719 13.542969 L 153.046875 13.582031 L 153.132812 13.644531 L 153.183594 13.671875 L 153.238281 13.691406 L 153.300781 13.710938 L 153.363281 13.722656 L 153.433594 13.734375 L 153.507812 13.742188 L 153.652344 13.742188 L 153.6875 13.738281 L 153.71875 13.738281 L 153.75 13.734375 L 153.78125 13.734375 L 153.816406 13.730469 L 153.878906 13.722656 L 153.910156 13.714844 L 153.972656 13.707031 L 154.007812 13.699219 L 154.042969 13.695312 L 154.074219 13.6875 L 154.109375 13.679688 L 154.148438 13.675781 L 154.21875 13.660156 L 154.257812 13.652344 Z M 154.257812 14.507812 "/>
<path fill-rule="nonzero" fill="rgb(0%, 0%, 0%)" fill-opacity="1" d="M 155.234375 6.105469 L 155.234375 4.996094 L 156.394531 4.996094 L 156.394531 6.105469 Z M 155.234375 14.5625 L 155.234375 7.585938 L 156.394531 7.585938 L 156.394531 14.5625 Z M 155.234375 14.5625 "/>
<path fill-rule="nonzero" fill="rgb(0%, 0%, 0%)" fill-opacity="1" d="M 162.601562 14.5625 L 162.601562 9.941406 L 162.597656 9.847656 L 162.589844 9.757812 L 162.582031 9.671875 L 162.566406 9.507812 L 162.554688 9.433594 L 162.539062 9.359375 L 162.527344 9.289062 L 162.511719 9.222656 L 162.492188 9.15625 L 162.472656 9.097656 L 162.453125 9.035156 L 162.40625 8.925781 L 162.378906 8.875 L 162.351562 8.828125 L 162.289062 8.742188 L 162.253906 8.699219 L 162.214844 8.660156 L 162.136719 8.589844 L 162.09375 8.558594 L 162.046875 8.53125 L 162 8.507812 L 161.898438 8.460938 L 161.84375 8.445312 L 161.789062 8.425781 L 161.730469 8.410156 L 161.605469 8.386719 L 161.539062 8.375 L 161.46875 8.367188 L 161.398438 8.363281 L 161.324219 8.359375 L 161.246094 8.355469 L 161.085938 8.355469 L 161.003906 8.359375 L 160.925781 8.367188 L 160.847656 8.378906 L 160.773438 8.390625 L 160.699219 8.40625 L 160.625 8.425781 L 160.484375 8.472656 L 160.417969 8.503906 L 160.351562 8.53125 L 160.289062 8.5625 L 160.230469 8.597656 L 160.167969 8.636719 L 160.113281 8.679688 L 160.054688 8.722656 L 160.003906 8.765625 L 159.949219 8.816406 L 159.898438 8.867188 L 159.804688 8.976562 L 159.761719 9.035156 L 159.683594 9.160156 L 159.644531 9.226562 L 159.609375 9.292969 L 159.546875 9.441406 L 159.515625 9.519531 L 159.488281 9.597656 L 159.464844 9.679688 L 159.445312 9.761719 L 159.425781 9.847656 L 159.40625 9.9375 L 159.394531 10.027344 L 159.382812 10.121094 L 159.371094 10.21875 L 159.367188 10.316406 L 159.359375 10.519531 L 159.359375 14.5625 L 158.199219 14.5625 L 158.199219 8.757812 L 158.195312 8.714844 L 158.195312 8.425781 L 158.191406 8.382812 L 158.191406 8.246094 L 158.1875 8.203125 L 158.1875 8.117188 L 158.183594 8.074219 L 158.183594 7.957031 L 158.179688 7.921875 L 158.179688 7.851562 L 158.175781 7.820312 L 158.175781 7.757812 L 158.171875 7.730469 L 158.171875 7.679688 L 158.167969 7.660156 L 158.167969 7.625 L 158.164062 7.609375 L 158.164062 7.585938 L 159.257812 7.585938 L 159.257812 7.59375 L 159.261719 7.605469 L 159.261719 7.628906 L 159.265625 7.648438 L 159.265625 7.6875 L 159.269531 7.707031 L 159.269531 7.761719 L 159.273438 7.789062 L 159.273438 7.851562 L 159.277344 7.882812 L 159.277344 7.949219 L 159.28125 7.980469 L 159.28125 8.054688 L 159.285156 8.089844 L 159.285156 8.125 L 159.289062 8.164062 L 159.289062 8.199219 L 159.292969 8.234375 L 159.296875 8.273438 L 159.296875 8.347656 L 159.300781 8.386719 L 159.300781 8.425781 L 159.304688 8.464844 L 159.304688 8.570312 L 159.308594 8.605469 L 159.308594 8.78125 L 159.328125 8.78125 L 159.363281 8.71875 L 159.433594 8.601562 L 159.503906 8.492188 L 159.542969 8.4375 L 159.578125 8.382812 L 159.695312 8.230469 L 159.738281 8.183594 L 159.777344 8.136719 L 159.820312 8.089844 L 159.867188 8.046875 L 159.914062 8.007812 L 159.960938 7.964844 L 160.007812 7.925781 L 160.058594 7.890625 L 160.109375 7.851562 L 160.160156 7.820312 L 160.214844 7.785156 L 160.324219 7.722656 L 160.382812 7.691406 L 160.445312 7.667969 L 160.503906 7.640625 L 160.566406 7.617188 L 160.632812 7.59375 L 160.765625 7.554688 L 160.835938 7.535156 L 160.90625 7.519531 L 160.980469 7.503906 L 161.136719 7.480469 L 161.214844 7.472656 L 161.296875 7.46875 L 161.382812 7.460938 L 161.46875 7.460938 L 161.558594 7.457031 L 161.785156 7.464844 L 161.996094 7.480469 L 162.097656 7.492188 L 162.195312 7.507812 L 162.292969 7.527344 L 162.472656 7.574219 L 162.558594 7.601562 L 162.640625 7.628906 L 162.796875 7.699219 L 162.871094 7.738281 L 162.941406 7.78125 L 163.007812 7.824219 L 163.132812 7.925781 L 163.191406 7.980469 L 163.300781 8.097656 L 163.351562 8.164062 L 163.398438 8.230469 L 163.441406 8.304688 L 163.480469 8.378906 L 163.519531 8.457031 L 163.554688 8.539062 L 163.585938 8.625 L 163.613281 8.710938 L 163.640625 8.804688 L 163.664062 8.898438 L 163.6875 9 L 163.707031 9.101562 L 163.738281 9.3125 L 163.75 9.425781 L 163.757812 9.542969 L 163.765625 9.664062 L 163.769531 9.785156 L 163.769531 14.5625 Z M 162.601562 14.5625 "/>
<path fill-rule="nonzero" fill="rgb(0%, 0%, 0%)" fill-opacity="1" d="M 166.652344 7.585938 L 166.652344 12.207031 L 166.65625 12.300781 L 166.664062 12.390625 L 166.667969 12.476562 L 166.675781 12.558594 L 166.6875 12.640625 L 166.695312 12.714844 L 166.707031 12.789062 L 166.722656 12.859375 L 166.738281 12.925781 L 166.757812 12.992188 L 166.777344 13.050781 L 166.796875 13.113281 L 166.820312 13.167969 L 166.847656 13.222656 L 166.902344 13.324219 L 166.933594 13.371094 L 166.964844 13.414062 L 167 13.453125 L 167.039062 13.492188 L 167.078125 13.527344 L 167.117188 13.558594 L 167.203125 13.621094 L 167.25 13.644531 L 167.351562 13.691406 L 167.40625 13.710938 L 167.460938 13.726562 L 167.519531 13.742188 L 167.582031 13.753906 L 167.648438 13.765625 L 167.714844 13.773438 L 167.785156 13.78125 L 167.855469 13.785156 L 167.929688 13.789062 L 168.007812 13.792969 L 168.167969 13.792969 L 168.25 13.789062 L 168.328125 13.78125 L 168.40625 13.769531 L 168.480469 13.757812 L 168.554688 13.742188 L 168.695312 13.703125 L 168.761719 13.679688 L 168.828125 13.652344 L 168.960938 13.589844 L 169.019531 13.550781 L 169.082031 13.515625 L 169.140625 13.472656 L 169.195312 13.429688 L 169.246094 13.382812 L 169.300781 13.335938 L 169.347656 13.285156 L 169.398438 13.234375 L 169.441406 13.175781 L 169.488281 13.117188 L 169.53125 13.054688 L 169.570312 12.992188 L 169.609375 12.925781 L 169.644531 12.855469 L 169.675781 12.785156 L 169.738281 12.636719 L 169.765625 12.554688 L 169.789062 12.472656 L 169.808594 12.390625 L 169.828125 12.300781 L 169.847656 12.214844 L 169.871094 12.027344 L 169.882812 11.929688 L 169.886719 11.832031 L 169.894531 11.628906 L 169.894531 7.585938 L 171.054688 7.585938 L 171.054688 13.628906 L 171.058594 13.675781 L 171.058594 13.769531 L 171.0625 13.816406 L 171.0625 13.90625 L 171.066406 13.949219 L 171.066406 14.035156 L 171.070312 14.078125 L 171.070312 14.15625 L 171.074219 14.191406 L 171.074219 14.296875 L 171.078125 14.328125 L 171.078125 14.390625 L 171.082031 14.417969 L 171.082031 14.46875 L 171.085938 14.488281 L 171.085938 14.523438 L 171.089844 14.539062 L 171.089844 14.5625 L 169.996094 14.5625 L 169.996094 14.554688 L 169.992188 14.542969 L 169.992188 14.519531 L 169.988281 14.5 L 169.988281 14.460938 L 169.984375 14.4375 L 169.984375 14.386719 L 169.980469 14.359375 L 169.980469 14.296875 L 169.976562 14.265625 L 169.976562 14.234375 L 169.972656 14.203125 L 169.972656 14.167969 L 169.96875 14.136719 L 169.964844 14.101562 L 169.964844 14.066406 L 169.960938 14.027344 L 169.960938 13.953125 L 169.957031 13.914062 L 169.957031 13.839844 L 169.953125 13.804688 L 169.953125 13.726562 L 169.949219 13.691406 L 169.949219 13.582031 L 169.945312 13.546875 L 169.945312 13.367188 L 169.925781 13.367188 L 169.890625 13.429688 L 169.820312 13.546875 L 169.75 13.65625 L 169.710938 13.710938 L 169.675781 13.765625 L 169.558594 13.917969 L 169.515625 13.964844 L 169.476562 14.011719 L 169.433594 14.058594 L 169.339844 14.144531 L 169.246094 14.222656 L 169.144531 14.300781 L 169.09375 14.335938 L 168.929688 14.429688 L 168.871094 14.457031 L 168.808594 14.484375 L 168.75 14.507812 L 168.6875 14.53125 L 168.621094 14.554688 L 168.488281 14.59375 L 168.417969 14.613281 L 168.347656 14.628906 L 168.273438 14.640625 L 168.195312 14.65625 L 168.117188 14.664062 L 168.039062 14.675781 L 167.957031 14.679688 L 167.871094 14.6875 L 167.785156 14.6875 L 167.695312 14.691406 L 167.46875 14.683594 L 167.257812 14.667969 L 167.15625 14.65625 L 167.058594 14.640625 L 166.960938 14.621094 L 166.78125 14.574219 L 166.695312 14.546875 L 166.613281 14.519531 L 166.457031 14.449219 L 166.382812 14.410156 L 166.3125 14.367188 L 166.246094 14.320312 L 166.183594 14.273438 L 166.121094 14.222656 L 166.0625 14.167969 L 166.007812 14.109375 L 165.953125 14.046875 L 165.902344 13.984375 L 165.855469 13.917969 L 165.8125 13.847656 L 165.769531 13.769531 L 165.734375 13.695312 L 165.695312 13.613281 L 165.632812 13.441406 L 165.605469 13.347656 L 165.582031 13.253906 L 165.5625 13.15625 L 165.542969 13.054688 L 165.527344 12.949219 L 165.515625 12.839844 L 165.503906 12.726562 L 165.496094 12.609375 L 165.488281 12.488281 L 165.484375 12.363281 L 165.484375 7.585938 Z M 166.652344 7.585938 "/>
<path fill-rule="nonzero" fill="rgb(0%, 0%, 0%)" fill-opacity="1" d="M 178.753906 11.066406 L 178.746094 11.425781 L 178.722656 11.761719 L 178.683594 12.082031 L 178.625 12.382812 L 178.554688 12.664062 L 178.464844 12.925781 L 178.359375 13.171875 L 178.238281 13.398438 L 178.101562 13.605469 L 177.949219 13.792969 L 177.78125 13.964844 L 177.597656 14.117188 L 177.402344 14.25 L 177.1875 14.367188 L 176.960938 14.464844 L 176.71875 14.546875 L 176.464844 14.609375 L 176.195312 14.652344 L 175.910156 14.679688 L 175.609375 14.691406 L 175.464844 14.6875 L 175.324219 14.679688 L 175.1875 14.671875 L 175.050781 14.65625 L 174.921875 14.636719 L 174.664062 14.582031 L 174.542969 14.550781 L 174.425781 14.511719 L 174.308594 14.46875 L 174.195312 14.425781 L 174.085938 14.375 L 173.875 14.257812 L 173.777344 14.195312 L 173.683594 14.125 L 173.589844 14.050781 L 173.5 13.972656 L 173.335938 13.800781 L 173.257812 13.707031 L 173.183594 13.609375 L 173.113281 13.507812 L 173.050781 13.402344 L 172.988281 13.292969 L 172.871094 13.058594 L 172.820312 12.933594 L 172.773438 12.804688 L 172.730469 12.671875 L 172.691406 12.535156 L 172.65625 12.390625 L 172.625 12.242188 L 172.597656 12.085938 L 172.574219 11.929688 L 172.554688 11.765625 L 172.542969 11.597656 L 172.53125 11.425781 L 172.523438 11.25 L 172.523438 11.066406 L 172.554688 10.382812 L 172.648438 9.769531 L 172.804688 9.226562 L 173.023438 8.757812 L 173.304688 8.359375 L 173.648438 8.035156 L 174.054688 7.78125 L 174.523438 7.601562 L 175.054688 7.496094 L 175.648438 7.457031 L 175.808594 7.460938 L 175.964844 7.46875 L 176.117188 7.476562 L 176.261719 7.496094 L 176.402344 7.515625 L 176.542969 7.539062 L 176.675781 7.570312 L 176.804688 7.601562 L 176.925781 7.640625 L 177.046875 7.683594 L 177.164062 7.730469 L 177.277344 7.78125 L 177.488281 7.898438 L 177.585938 7.964844 L 177.679688 8.035156 L 177.769531 8.109375 L 177.855469 8.1875 L 177.9375 8.273438 L 178.015625 8.359375 L 178.089844 8.453125 L 178.15625 8.550781 L 178.222656 8.652344 L 178.285156 8.757812 L 178.34375 8.867188 L 178.398438 8.984375 L 178.449219 9.101562 L 178.496094 9.226562 L 178.535156 9.355469 L 178.574219 9.488281 L 178.609375 9.625 L 178.640625 9.769531 L 178.667969 9.914062 L 178.691406 10.066406 L 178.710938 10.222656 L 178.726562 10.382812 L 178.738281 10.546875 L 178.746094 10.714844 L 178.753906 10.890625 Z M 177.535156 11.066406 L 177.535156 10.90625 L 177.53125 10.753906 L 177.523438 10.605469 L 177.515625 10.464844 L 177.503906 10.328125 L 177.492188 10.195312 L 177.472656 10.070312 L 177.453125 9.949219 L 177.433594 9.835938 L 177.40625 9.726562 L 177.382812 9.625 L 177.355469 9.523438 L 177.324219 9.429688 L 177.253906 9.25 L 177.21875 9.167969 L 177.175781 9.089844 L 177.132812 9.015625 L 177.089844 8.949219 L 177.039062 8.882812 L 176.992188 8.820312 L 176.941406 8.765625 L 176.886719 8.710938 L 176.832031 8.660156 L 176.773438 8.613281 L 176.714844 8.574219 L 176.652344 8.535156 L 176.589844 8.5 L 176.523438 8.472656 L 176.382812 8.417969 L 176.3125 8.398438 L 176.238281 8.378906 L 176.082031 8.347656 L 176.003906 8.335938 L 175.839844 8.320312 L 175.753906 8.316406 L 175.578125 8.316406 L 175.492188 8.320312 L 175.410156 8.328125 L 175.324219 8.335938 L 175.242188 8.347656 L 175.164062 8.363281 L 175.085938 8.382812 L 175.011719 8.402344 L 174.933594 8.425781 L 174.863281 8.449219 L 174.792969 8.476562 L 174.722656 8.511719 L 174.660156 8.546875 L 174.59375 8.585938 L 174.535156 8.628906 L 174.472656 8.675781 L 174.417969 8.726562 L 174.359375 8.78125 L 174.308594 8.839844 L 174.257812 8.902344 L 174.207031 8.96875 L 174.160156 9.035156 L 174.117188 9.109375 L 174.074219 9.1875 L 174.035156 9.269531 L 173.996094 9.359375 L 173.960938 9.449219 L 173.929688 9.542969 L 173.898438 9.644531 L 173.871094 9.746094 L 173.84375 9.855469 L 173.824219 9.96875 L 173.804688 10.085938 L 173.785156 10.210938 L 173.773438 10.339844 L 173.761719 10.476562 L 173.753906 10.617188 L 173.746094 10.761719 L 173.742188 10.910156 L 173.742188 11.226562 L 173.746094 11.382812 L 173.753906 11.53125 L 173.761719 11.671875 L 173.777344 11.808594 L 173.792969 11.941406 L 173.808594 12.070312 L 173.832031 12.191406 L 173.855469 12.304688 L 173.882812 12.414062 L 173.910156 12.519531 L 173.941406 12.617188 L 174.011719 12.804688 L 174.050781 12.890625 L 174.089844 12.972656 L 174.132812 13.050781 L 174.175781 13.125 L 174.222656 13.195312 L 174.269531 13.257812 L 174.320312 13.320312 L 174.375 13.378906 L 174.425781 13.429688 L 174.484375 13.480469 L 174.542969 13.527344 L 174.601562 13.570312 L 174.664062 13.609375 L 174.726562 13.644531 L 174.789062 13.675781 L 174.855469 13.703125 L 174.996094 13.75 L 175.066406 13.769531 L 175.136719 13.785156 L 175.210938 13.800781 L 175.285156 13.8125 L 175.363281 13.820312 L 175.4375 13.828125 L 175.515625 13.832031 L 175.683594 13.832031 L 175.769531 13.828125 L 175.855469 13.820312 L 175.9375 13.8125 L 176.101562 13.789062 L 176.179688 13.773438 L 176.328125 13.734375 L 176.402344 13.710938 L 176.472656 13.683594 L 176.542969 13.652344 L 176.609375 13.617188 L 176.671875 13.578125 L 176.734375 13.535156 L 176.796875 13.488281 L 176.855469 13.4375 L 176.964844 13.328125 L 177.015625 13.265625 L 177.0625 13.199219 L 177.109375 13.128906 L 177.15625 13.054688 L 177.199219 12.976562 L 177.238281 12.894531 L 177.273438 12.808594 L 177.34375 12.621094 L 177.375 12.519531 L 177.402344 12.414062 L 177.425781 12.304688 L 177.449219 12.191406 L 177.46875 12.070312 L 177.488281 11.941406 L 177.503906 11.808594 L 177.515625 11.671875 L 177.523438 11.53125 L 177.53125 11.382812 L 177.535156 11.226562 Z M 177.535156 11.066406 "/>
<path fill-rule="nonzero" fill="rgb(0%, 0%, 0%)" fill-opacity="1" d="M 181.332031 7.585938 L 181.332031 12.109375 L 181.335938 12.207031 L 181.339844 12.300781 L 181.34375 12.390625 L 181.351562 12.476562 L 181.367188 12.640625 L 181.390625 12.789062 L 181.402344 12.859375 L 181.421875 12.925781 L 181.4375 12.992188 L 181.457031 13.050781 L 181.480469 13.113281 L 181.503906 13.167969 L 181.53125 13.222656 L 181.554688 13.273438 L 181.585938 13.324219 L 181.617188 13.371094 L 181.648438 13.414062 L 181.71875 13.492188 L 181.757812 13.527344 L 181.886719 13.621094 L 181.933594 13.644531 L 182.035156 13.691406 L 182.085938 13.710938 L 182.203125 13.742188 L 182.328125 13.765625 L 182.398438 13.773438 L 182.464844 13.78125 L 182.613281 13.789062 L 182.691406 13.792969 L 182.851562 13.792969 L 182.933594 13.789062 L 183.011719 13.78125 L 183.160156 13.757812 L 183.234375 13.742188 L 183.308594 13.722656 L 183.375 13.703125 L 183.445312 13.679688 L 183.511719 13.652344 L 183.578125 13.621094 L 183.640625 13.589844 L 183.703125 13.550781 L 183.761719 13.515625 L 183.820312 13.472656 L 183.875 13.429688 L 183.929688 13.382812 L 183.980469 13.335938 L 184.03125 13.285156 L 184.078125 13.234375 L 184.171875 13.117188 L 184.210938 13.054688 L 184.253906 12.992188 L 184.289062 12.925781 L 184.359375 12.785156 L 184.390625 12.710938 L 184.417969 12.636719 L 184.472656 12.472656 L 184.492188 12.390625 L 184.511719 12.300781 L 184.527344 12.214844 L 184.542969 12.121094 L 184.554688 12.027344 L 184.570312 11.832031 L 184.574219 11.730469 L 184.574219 7.585938 L 185.734375 7.585938 L 185.734375 13.535156 L 185.738281 13.582031 L 185.738281 13.675781 L 185.742188 13.722656 L 185.742188 13.816406 L 185.746094 13.859375 L 185.746094 13.949219 L 185.75 13.992188 L 185.75 14.078125 L 185.753906 14.117188 L 185.753906 14.191406 L 185.757812 14.226562 L 185.757812 14.296875 L 185.761719 14.328125 L 185.761719 14.390625 L 185.765625 14.417969 L 185.765625 14.46875 L 185.769531 14.488281 L 185.769531 14.539062 L 185.773438 14.550781 L 185.773438 14.5625 L 184.679688 14.5625 L 184.675781 14.554688 L 184.675781 14.53125 L 184.671875 14.519531 L 184.671875 14.484375 L 184.667969 14.460938 L 184.667969 14.414062 L 184.664062 14.386719 L 184.664062 14.328125 L 184.660156 14.296875 L 184.660156 14.265625 L 184.65625 14.234375 L 184.65625 14.203125 L 184.652344 14.167969 L 184.652344 14.136719 L 184.644531 14.066406 L 184.644531 13.988281 L 184.640625 13.953125 L 184.640625 13.878906 L 184.636719 13.839844 L 184.636719 13.765625 L 184.632812 13.726562 L 184.632812 13.617188 L 184.628906 13.582031 L 184.628906 13.421875 L 184.625 13.394531 L 184.625 13.367188 L 184.609375 13.367188 L 184.574219 13.429688 L 184.503906 13.546875 L 184.433594 13.65625 L 184.355469 13.765625 L 184.320312 13.816406 L 184.28125 13.867188 L 184.238281 13.917969 L 184.199219 13.964844 L 184.113281 14.058594 L 184.070312 14.101562 L 184.023438 14.144531 L 183.929688 14.222656 L 183.828125 14.300781 L 183.777344 14.335938 L 183.667969 14.398438 L 183.609375 14.429688 L 183.492188 14.484375 L 183.304688 14.554688 L 183.171875 14.59375 L 183.101562 14.613281 L 183.027344 14.628906 L 182.957031 14.640625 L 182.878906 14.65625 L 182.800781 14.664062 L 182.722656 14.675781 L 182.636719 14.679688 L 182.554688 14.6875 L 182.464844 14.6875 L 182.378906 14.691406 L 182.261719 14.6875 L 182.152344 14.683594 L 182.042969 14.675781 L 181.9375 14.667969 L 181.835938 14.65625 L 181.738281 14.640625 L 181.644531 14.621094 L 181.550781 14.597656 L 181.464844 14.574219 L 181.378906 14.546875 L 181.296875 14.519531 L 181.214844 14.484375 L 181.140625 14.449219 L 181.066406 14.410156 L 180.996094 14.367188 L 180.863281 14.273438 L 180.804688 14.222656 L 180.746094 14.167969 L 180.6875 14.109375 L 180.585938 13.984375 L 180.539062 13.917969 L 180.496094 13.847656 L 180.453125 13.769531 L 180.414062 13.695312 L 180.378906 13.613281 L 180.316406 13.441406 L 180.289062 13.347656 L 180.265625 13.253906 L 180.246094 13.15625 L 180.226562 13.054688 L 180.210938 12.949219 L 180.195312 12.839844 L 180.1875 12.726562 L 180.175781 12.609375 L 180.171875 12.488281 L 180.167969 12.363281 L 180.167969 7.585938 Z M 181.332031 7.585938 "/>
<path fill-rule="nonzero" fill="rgb(0%, 0%, 0%)" fill-opacity="1" d="M 192.773438 12.632812 L 192.773438 12.730469 L 192.757812 12.917969 L 192.726562 13.097656 L 192.679688 13.269531 L 192.617188 13.433594 L 192.582031 13.511719 L 192.542969 13.585938 L 192.5 13.65625 L 192.453125 13.726562 L 192.402344 13.796875 L 192.351562 13.863281 L 192.292969 13.925781 L 192.234375 13.984375 L 192.101562 14.101562 L 192.03125 14.15625 L 191.957031 14.207031 L 191.882812 14.253906 L 191.800781 14.300781 L 191.71875 14.34375 L 191.539062 14.421875 L 191.445312 14.457031 L 191.347656 14.492188 L 191.144531 14.554688 L 191.035156 14.582031 L 190.929688 14.601562 L 190.816406 14.625 L 190.582031 14.65625 L 190.460938 14.667969 L 190.335938 14.675781 L 190.207031 14.683594 L 190.078125 14.6875 L 189.945312 14.691406 L 189.824219 14.6875 L 189.707031 14.6875 L 189.589844 14.679688 L 189.476562 14.675781 L 189.367188 14.664062 L 189.257812 14.65625 L 189.152344 14.640625 L 189.050781 14.628906 L 188.949219 14.613281 L 188.847656 14.59375 L 188.753906 14.574219 L 188.660156 14.550781 L 188.480469 14.503906 L 188.308594 14.441406 L 188.230469 14.410156 L 188.148438 14.375 L 188.074219 14.335938 L 187.996094 14.296875 L 187.925781 14.253906 L 187.855469 14.207031 L 187.789062 14.160156 L 187.722656 14.109375 L 187.660156 14.058594 L 187.597656 14.003906 L 187.539062 13.945312 L 187.429688 13.820312 L 187.378906 13.753906 L 187.285156 13.613281 L 187.242188 13.535156 L 187.203125 13.457031 L 187.132812 13.292969 L 187.097656 13.203125 L 187.070312 13.113281 L 187.042969 13.019531 L 187.019531 12.921875 L 188.042969 12.722656 L 188.074219 12.832031 L 188.113281 12.9375 L 188.160156 13.035156 L 188.210938 13.125 L 188.269531 13.210938 L 188.335938 13.289062 L 188.40625 13.363281 L 188.480469 13.429688 L 188.566406 13.492188 L 188.65625 13.550781 L 188.75 13.597656 L 188.855469 13.640625 L 188.964844 13.679688 L 189.085938 13.714844 L 189.210938 13.742188 L 189.34375 13.765625 L 189.480469 13.785156 L 189.628906 13.796875 L 189.78125 13.804688 L 189.945312 13.808594 L 190.019531 13.804688 L 190.089844 13.804688 L 190.164062 13.800781 L 190.234375 13.796875 L 190.300781 13.792969 L 190.371094 13.789062 L 190.4375 13.78125 L 190.5 13.773438 L 190.566406 13.765625 L 190.628906 13.753906 L 190.691406 13.746094 L 190.75 13.730469 L 190.808594 13.71875 L 190.867188 13.703125 L 190.921875 13.6875 L 191.074219 13.628906 L 191.167969 13.582031 L 191.253906 13.527344 L 191.332031 13.464844 L 191.367188 13.433594 L 191.402344 13.398438 L 191.433594 13.363281 L 191.464844 13.324219 L 191.492188 13.285156 L 191.515625 13.246094 L 191.542969 13.203125 L 191.582031 13.109375 L 191.613281 13.007812 L 191.625 12.957031 L 191.632812 12.902344 L 191.640625 12.84375 L 191.644531 12.785156 L 191.644531 12.660156 L 191.640625 12.601562 L 191.632812 12.546875 L 191.621094 12.488281 L 191.609375 12.4375 L 191.59375 12.386719 L 191.574219 12.339844 L 191.550781 12.292969 L 191.527344 12.25 L 191.496094 12.207031 L 191.433594 12.128906 L 191.398438 12.089844 L 191.320312 12.019531 L 191.277344 11.988281 L 191.234375 11.953125 L 191.1875 11.921875 L 191.085938 11.867188 L 190.976562 11.8125 L 190.914062 11.789062 L 190.855469 11.765625 L 190.792969 11.742188 L 190.726562 11.71875 L 190.65625 11.695312 L 190.589844 11.675781 L 190.515625 11.65625 L 190.441406 11.632812 L 190.363281 11.613281 L 190.289062 11.59375 L 190.210938 11.570312 L 190.128906 11.550781 L 189.964844 11.503906 L 189.792969 11.457031 L 189.703125 11.433594 L 189.53125 11.386719 L 189.449219 11.363281 L 189.363281 11.339844 L 189.199219 11.292969 L 189.113281 11.269531 L 189.03125 11.242188 L 188.949219 11.21875 L 188.703125 11.136719 L 188.621094 11.105469 L 188.464844 11.042969 L 188.316406 10.972656 L 188.246094 10.933594 L 188.171875 10.894531 L 188.105469 10.851562 L 188.035156 10.808594 L 187.910156 10.714844 L 187.792969 10.613281 L 187.738281 10.558594 L 187.6875 10.5 L 187.636719 10.445312 L 187.542969 10.320312 L 187.5 10.253906 L 187.460938 10.1875 L 187.425781 10.117188 L 187.394531 10.042969 L 187.347656 9.886719 L 187.328125 9.800781 L 187.3125 9.714844 L 187.296875 9.527344 L 187.296875 9.429688 L 187.300781 9.246094 L 187.320312 9.066406 L 187.355469 8.898438 L 187.402344 8.742188 L 187.464844 8.589844 L 187.539062 8.449219 L 187.625 8.320312 L 187.726562 8.195312 L 187.84375 8.085938 L 187.972656 7.980469 L 188.113281 7.882812 L 188.269531 7.800781 L 188.4375 7.722656 L 188.617188 7.660156 L 188.808594 7.601562 L 189.015625 7.558594 L 189.230469 7.523438 L 189.460938 7.496094 L 189.703125 7.484375 L 189.957031 7.476562 L 190.183594 7.480469 L 190.398438 7.492188 L 190.605469 7.515625 L 190.804688 7.542969 L 190.992188 7.578125 L 191.167969 7.625 L 191.339844 7.675781 L 191.496094 7.738281 L 191.648438 7.804688 L 191.789062 7.882812 L 191.917969 7.96875 L 192.039062 8.066406 L 192.152344 8.171875 L 192.253906 8.285156 L 192.34375 8.410156 L 192.425781 8.546875 L 192.496094 8.691406 L 192.558594 8.847656 L 192.609375 9.011719 L 192.652344 9.183594 L 191.605469 9.3125 L 191.59375 9.261719 L 191.5625 9.160156 L 191.546875 9.113281 L 191.523438 9.066406 L 191.503906 9.023438 L 191.476562 8.980469 L 191.453125 8.9375 L 191.425781 8.898438 L 191.363281 8.828125 L 191.328125 8.792969 L 191.296875 8.757812 L 191.261719 8.726562 L 191.222656 8.695312 L 191.105469 8.613281 L 190.976562 8.542969 L 190.835938 8.484375 L 190.785156 8.46875 L 190.738281 8.453125 L 190.683594 8.4375 L 190.632812 8.425781 L 190.578125 8.414062 L 190.523438 8.40625 L 190.46875 8.394531 L 190.304688 8.371094 L 190.246094 8.367188 L 190.191406 8.363281 L 190.074219 8.355469 L 189.804688 8.355469 L 189.660156 8.363281 L 189.523438 8.375 L 189.394531 8.390625 L 189.273438 8.414062 L 189.160156 8.441406 L 189.058594 8.472656 L 188.964844 8.507812 L 188.875 8.546875 L 188.796875 8.59375 L 188.726562 8.644531 L 188.664062 8.699219 L 188.605469 8.757812 L 188.558594 8.824219 L 188.515625 8.890625 L 188.484375 8.96875 L 188.457031 9.046875 L 188.4375 9.128906 L 188.425781 9.21875 L 188.421875 9.3125 L 188.425781 9.371094 L 188.429688 9.425781 L 188.433594 9.476562 L 188.445312 9.527344 L 188.457031 9.574219 L 188.472656 9.621094 L 188.488281 9.664062 L 188.507812 9.707031 L 188.53125 9.746094 L 188.558594 9.785156 L 188.585938 9.820312 L 188.6875 9.921875 L 188.765625 9.984375 L 188.851562 10.039062 L 188.945312 10.09375 L 188.996094 10.117188 L 189.160156 10.1875 L 189.21875 10.210938 L 189.28125 10.230469 L 189.34375 10.253906 L 189.542969 10.3125 L 189.613281 10.332031 L 189.6875 10.351562 L 189.761719 10.367188 L 189.910156 10.40625 L 190.066406 10.445312 L 190.148438 10.464844 L 190.226562 10.484375 L 190.3125 10.507812 L 190.367188 10.519531 L 190.421875 10.535156 L 190.480469 10.550781 L 190.535156 10.566406 L 190.59375 10.582031 L 190.648438 10.597656 L 190.707031 10.613281 L 190.761719 10.628906 L 190.9375 10.675781 L 190.992188 10.695312 L 191.050781 10.710938 L 191.109375 10.730469 L 191.273438 10.789062 L 191.332031 10.808594 L 191.496094 10.878906 L 191.546875 10.902344 L 191.65625 10.949219 L 191.859375 11.058594 L 191.90625 11.089844 L 191.957031 11.117188 L 192.050781 11.179688 L 192.097656 11.214844 L 192.140625 11.246094 L 192.183594 11.285156 L 192.226562 11.320312 L 192.34375 11.4375 L 192.449219 11.566406 L 192.511719 11.660156 L 192.542969 11.710938 L 192.570312 11.761719 L 192.59375 11.8125 L 192.621094 11.867188 L 192.644531 11.921875 L 192.664062 11.976562 L 192.703125 12.09375 L 192.734375 12.21875 L 192.746094 12.28125 L 192.757812 12.347656 L 192.765625 12.417969 L 192.773438 12.558594 Z M 192.773438 12.632812 "/>
</svg>
