<?xml version="1.0" encoding="UTF-8"?>
<svg xmlns="http://www.w3.org/2000/svg" xmlns:xlink="http://www.w3.org/1999/xlink" width="504" height="360" viewBox="0 0 504 360">
<defs>
<clipPath id="clip-0">
<path clip-rule="nonzero" d="M 37.683594 5.480469 L 498.519531 5.480469 L 498.519531 329.121094 L 37.683594 329.121094 Z M 37.683594 5.480469 "/>
</clipPath>
<clipPath id="clip-1">
<path clip-rule="nonzero" d="M 37.683594 277 L 498.519531 277 L 498.519531 278 L 37.683594 278 Z M 37.683594 277 "/>
</clipPath>
<clipPath id="clip-2">
<path clip-rule="nonzero" d="M 37.683594 203 L 498.519531 203 L 498.519531 205 L 37.683594 205 Z M 37.683594 203 "/>
</clipPath>
<clipPath id="clip-3">
<path clip-rule="nonzero" d="M 37.683594 130 L 498.519531 130 L 498.519531 131 L 37.683594 131 Z M 37.683594 130 "/>
</clipPath>
<clipPath id="clip-4">
<path clip-rule="nonzero" d="M 37.683594 56 L 498.519531 56 L 498.519531 58 L 37.683594 58 Z M 37.683594 56 "/>
</clipPath>
<clipPath id="clip-5">
<path clip-rule="nonzero" d="M 37.683594 313 L 498.519531 313 L 498.519531 315 L 37.683594 315 Z M 37.683594 313 "/>
</clipPath>
<clipPath id="clip-6">
<path clip-rule="nonzero" d="M 37.683594 240 L 498.519531 240 L 498.519531 242 L 37.683594 242 Z M 37.683594 240 "/>
</clipPath>
<clipPath id="clip-7">
<path clip-rule="nonzero" d="M 37.683594 166 L 498.519531 166 L 498.519531 168 L 37.683594 168 Z M 37.683594 166 "/>
</clipPath>
<clipPath id="clip-8">
<path clip-rule="nonzero" d="M 37.683594 93 L 498.519531 93 L 498.519531 95 L 37.683594 95 Z M 37.683594 93 "/>
</clipPath>
<clipPath id="clip-9">
<path clip-rule="nonzero" d="M 37.683594 19 L 498.519531 19 L 498.519531 21 L 37.683594 21 Z M 37.683594 19 "/>
</clipPath>
<clipPath id="clip-10">
<path clip-rule="nonzero" d="M 123 5.480469 L 125 5.480469 L 125 329.121094 L 123 329.121094 Z M 123 5.480469 "/>
</clipPath>
<clipPath id="clip-11">
<path clip-rule="nonzero" d="M 267 5.480469 L 269 5.480469 L 269 329.121094 L 267 329.121094 Z M 267 5.480469 "/>
</clipPath>
<clipPath id="clip-12">
<path clip-rule="nonzero" d="M 411 5.480469 L 413 5.480469 L 413 329.121094 L 411 329.121094 Z M 411 5.480469 "/>
</clipPath>
<clipPath id="clip-13">
<path clip-rule="nonzero" d="M 123 5.480469 L 125 5.480469 L 125 292 L 123 292 Z M 123 5.480469 "/>
</clipPath>
<clipPath id="clip-14">
<path clip-rule="nonzero" d="M 267 5.480469 L 269 5.480469 L 269 195 L 267 195 Z M 267 5.480469 "/>
</clipPath>
<clipPath id="clip-15">
<path clip-rule="nonzero" d="M 411 5.480469 L 413 5.480469 L 413 145 L 411 145 Z M 411 5.480469 "/>
</clipPath>
<clipPath id="clip-16">
<path clip-rule="nonzero" d="M 123 5.480469 L 125 5.480469 L 125 91 L 123 91 Z M 123 5.480469 "/>
</clipPath>
<clipPath id="clip-17">
<path clip-rule="nonzero" d="M 214 5.480469 L 323 5.480469 L 323 85 L 214 85 Z M 214 5.480469 "/>
</clipPath>
<clipPath id="clip-18">
<path clip-rule="nonzero" d="M 213 5.480469 L 323 5.480469 L 323 86 L 213 86 Z M 213 5.480469 "/>
</clipPath>
<clipPath id="clip-19">
<path clip-rule="nonzero" d="M 411 5.480469 L 413 5.480469 L 413 145 L 411 145 Z M 411 5.480469 "/>
</clipPath>
</defs>
<rect x="-50.4" y="-36" width="604.8" height="432" fill="rgb(100%, 100%, 100%)" fill-opacity="1"/>
<rect x="-50.4" y="-36" width="604.8" height="432" fill="rgb(100%, 100%, 100%)" fill-opacity="1"/>
<path fill="none" stroke-width="1.066978" stroke-linecap="round" stroke-linejoin="round" stroke="rgb(100%, 100%, 100%)" stroke-opacity="1" stroke-miterlimit="10" d="M 0 360 L 504 360 L 504 0 L 0 0 Z M 0 360 "/>
<g clip-path="url(#clip-0)">
<path fill-rule="nonzero" fill="rgb(92.156863%, 92.156863%, 92.156863%)" fill-opacity="1" d="M 37.683594 329.117188 L 498.519531 329.117188 L 498.519531 5.476562 L 37.683594 5.476562 Z M 37.683594 329.117188 "/>
</g>
<g clip-path="url(#clip-1)">
<path fill="none" stroke-width="0.533489" stroke-linecap="butt" stroke-linejoin="round" stroke="rgb(100%, 100%, 100%)" stroke-opacity="1" stroke-miterlimit="10" d="M 37.683594 277.628906 L 498.519531 277.628906 "/>
</g>
<g clip-path="url(#clip-2)">
<path fill="none" stroke-width="0.533489" stroke-linecap="butt" stroke-linejoin="round" stroke="rgb(100%, 100%, 100%)" stroke-opacity="1" stroke-miterlimit="10" d="M 37.683594 204.074219 L 498.519531 204.074219 "/>
</g>
<g clip-path="url(#clip-3)">
<path fill="none" stroke-width="0.533489" stroke-linecap="butt" stroke-linejoin="round" stroke="rgb(100%, 100%, 100%)" stroke-opacity="1" stroke-miterlimit="10" d="M 37.683594 130.523438 L 498.519531 130.523438 "/>
</g>
<g clip-path="url(#clip-4)">
<path fill="none" stroke-width="0.533489" stroke-linecap="butt" stroke-linejoin="round" stroke="rgb(100%, 100%, 100%)" stroke-opacity="1" stroke-miterlimit="10" d="M 37.683594 56.96875 L 498.519531 56.96875 "/>
</g>
<g clip-path="url(#clip-5)">
<path fill="none" stroke-width="1.066978" stroke-linecap="butt" stroke-linejoin="round" stroke="rgb(100%, 100%, 100%)" stroke-opacity="1" stroke-miterlimit="10" d="M 37.683594 314.40625 L 498.519531 314.40625 "/>
</g>
<g clip-path="url(#clip-6)">
<path fill="none" stroke-width="1.066978" stroke-linecap="butt" stroke-linejoin="round" stroke="rgb(100%, 100%, 100%)" stroke-opacity="1" stroke-miterlimit="10" d="M 37.683594 240.851562 L 498.519531 240.851562 "/>
</g>
<g clip-path="url(#clip-7)">
<path fill="none" stroke-width="1.066978" stroke-linecap="butt" stroke-linejoin="round" stroke="rgb(100%, 100%, 100%)" stroke-opacity="1" stroke-miterlimit="10" d="M 37.683594 167.300781 L 498.519531 167.300781 "/>
</g>
<g clip-path="url(#clip-8)">
<path fill="none" stroke-width="1.066978" stroke-linecap="butt" stroke-linejoin="round" stroke="rgb(100%, 100%, 100%)" stroke-opacity="1" stroke-miterlimit="10" d="M 37.683594 93.746094 L 498.519531 93.746094 "/>
</g>
<g clip-path="url(#clip-9)">
<path fill="none" stroke-width="1.066978" stroke-linecap="butt" stroke-linejoin="round" stroke="rgb(100%, 100%, 100%)" stroke-opacity="1" stroke-miterlimit="10" d="M 37.683594 20.191406 L 498.519531 20.191406 "/>
</g>
<g clip-path="url(#clip-10)">
<path fill="none" stroke-width="1.066978" stroke-linecap="butt" stroke-linejoin="round" stroke="rgb(100%, 100%, 100%)" stroke-opacity="1" stroke-miterlimit="10" d="M 124.089844 329.117188 L 124.089844 5.480469 "/>
</g>
<g clip-path="url(#clip-11)">
<path fill="none" stroke-width="1.066978" stroke-linecap="butt" stroke-linejoin="round" stroke="rgb(100%, 100%, 100%)" stroke-opacity="1" stroke-miterlimit="10" d="M 268.101562 329.117188 L 268.101562 5.480469 "/>
</g>
<g clip-path="url(#clip-12)">
<path fill="none" stroke-width="1.066978" stroke-linecap="butt" stroke-linejoin="round" stroke="rgb(100%, 100%, 100%)" stroke-opacity="1" stroke-miterlimit="10" d="M 412.113281 329.117188 L 412.113281 5.480469 "/>
</g>
<g clip-path="url(#clip-13)">
<path fill="none" stroke-width="1.066978" stroke-linecap="butt" stroke-linejoin="round" stroke="rgb(0%, 0%, 0%)" stroke-opacity="1" stroke-miterlimit="10" d="M 124.089844 -59.25 L 124.089844 290.871094 "/>
</g>
<path fill="none" stroke-width="1.066978" stroke-linecap="butt" stroke-linejoin="round" stroke="rgb(0%, 0%, 0%)" stroke-opacity="1" stroke-miterlimit="10" d="M 106.089844 290.871094 L 142.09375 290.871094 "/>
<g clip-path="url(#clip-14)">
<path fill="none" stroke-width="1.066978" stroke-linecap="butt" stroke-linejoin="round" stroke="rgb(0%, 0%, 0%)" stroke-opacity="1" stroke-miterlimit="10" d="M 268.101562 -300.507812 L 268.101562 193.777344 "/>
</g>
<path fill="none" stroke-width="1.066978" stroke-linecap="butt" stroke-linejoin="round" stroke="rgb(0%, 0%, 0%)" stroke-opacity="1" stroke-miterlimit="10" d="M 250.101562 193.777344 L 286.105469 193.777344 "/>
<g clip-path="url(#clip-15)">
<path fill="none" stroke-width="1.066978" stroke-linecap="butt" stroke-linejoin="round" stroke="rgb(0%, 0%, 0%)" stroke-opacity="1" stroke-miterlimit="10" d="M 412.113281 -359.351562 L 412.113281 143.761719 "/>
</g>
<path fill="none" stroke-width="1.066978" stroke-linecap="butt" stroke-linejoin="round" stroke="rgb(0%, 0%, 0%)" stroke-opacity="1" stroke-miterlimit="10" d="M 394.113281 143.761719 L 430.113281 143.761719 "/>
<g clip-path="url(#clip-16)">
<path fill="none" stroke-width="1.066978" stroke-linecap="butt" stroke-linejoin="round" stroke="rgb(0%, 0%, 0%)" stroke-opacity="1" stroke-miterlimit="10" d="M 124.089844 90.066406 L 124.089844 -59.25 "/>
</g>
<path fill="none" stroke-width="1.066978" stroke-linecap="butt" stroke-linejoin="round" stroke="rgb(0%, 0%, 0%)" stroke-opacity="1" stroke-miterlimit="10" d="M 124.089844 205.546875 L 124.089844 290.871094 "/>
<path fill-rule="nonzero" fill="rgb(11.764706%, 56.470588%, 100%)" fill-opacity="0.501961" stroke-width="1.066978" stroke-linecap="butt" stroke-linejoin="miter" stroke="rgb(0%, 0%, 0%)" stroke-opacity="1" stroke-miterlimit="10" d="M 70.085938 90.066406 L 70.085938 205.546875 L 178.09375 205.546875 L 178.09375 90.066406 Z M 70.085938 90.066406 "/>
<path fill="none" stroke-width="2.133957" stroke-linecap="butt" stroke-linejoin="miter" stroke="rgb(0%, 0%, 0%)" stroke-opacity="1" stroke-miterlimit="10" d="M 70.085938 162.886719 L 178.09375 162.886719 "/>
<path fill="none" stroke-width="1.066978" stroke-linecap="butt" stroke-linejoin="round" stroke="rgb(0%, 0%, 0%)" stroke-opacity="1" stroke-miterlimit="10" d="M 268.101562 84.917969 L 268.101562 193.777344 "/>
<g clip-path="url(#clip-17)">
<path fill-rule="nonzero" fill="rgb(11.764706%, 56.470588%, 100%)" fill-opacity="0.501961" d="M 214.097656 -149.71875 L 214.097656 84.917969 L 322.105469 84.917969 L 322.105469 -149.71875 Z M 214.097656 -149.71875 "/>
</g>
<g clip-path="url(#clip-18)">
<path fill="none" stroke-width="1.066978" stroke-linecap="butt" stroke-linejoin="miter" stroke="rgb(0%, 0%, 0%)" stroke-opacity="1" stroke-miterlimit="10" d="M 214.097656 -149.71875 L 214.097656 84.917969 L 322.105469 84.917969 L 322.105469 -149.71875 Z M 214.097656 -149.71875 "/>
</g>
<g clip-path="url(#clip-19)">
<path fill="none" stroke-width="1.066978" stroke-linecap="butt" stroke-linejoin="round" stroke="rgb(0%, 0%, 0%)" stroke-opacity="1" stroke-miterlimit="10" d="M 412.113281 0.332031 L 412.113281 143.761719 "/>
</g>
<path fill-rule="nonzero" fill="rgb(30.196078%, 30.196078%, 30.196078%)" fill-opacity="1" d="M 18.738281 317.433594 L 18.738281 316.777344 L 20.28125 316.777344 L 20.28125 312.121094 L 18.917969 313.09375 L 18.917969 312.363281 L 20.347656 311.378906 L 21.058594 311.378906 L 21.058594 316.777344 L 22.535156 316.777344 L 22.535156 317.433594 Z M 18.738281 317.433594 "/>
<path fill-rule="nonzero" fill="rgb(30.196078%, 30.196078%, 30.196078%)" fill-opacity="1" d="M 27.515625 314.40625 L 27.511719 314.578125 L 27.507812 314.742188 L 27.5 314.902344 L 27.488281 315.058594 L 27.472656 315.207031 L 27.453125 315.351562 L 27.433594 315.492188 L 27.40625 315.625 L 27.378906 315.753906 L 27.347656 315.875 L 27.3125 315.992188 L 27.277344 316.101562 L 27.238281 316.210938 L 27.195312 316.3125 L 27.152344 316.410156 L 27.105469 316.507812 L 27.058594 316.59375 L 27.003906 316.679688 L 26.953125 316.761719 L 26.835938 316.910156 L 26.777344 316.976562 L 26.714844 317.039062 L 26.652344 317.097656 L 26.585938 317.152344 L 26.519531 317.203125 L 26.449219 317.246094 L 26.375 317.289062 L 26.300781 317.328125 L 26.226562 317.363281 L 26.070312 317.417969 L 25.90625 317.464844 L 25.742188 317.496094 L 25.660156 317.507812 L 25.574219 317.515625 L 25.488281 317.519531 L 25.3125 317.519531 L 25.226562 317.515625 L 25.140625 317.507812 L 25.054688 317.496094 L 24.890625 317.464844 L 24.808594 317.441406 L 24.730469 317.417969 L 24.574219 317.363281 L 24.5 317.328125 L 24.425781 317.289062 L 24.285156 317.203125 L 24.21875 317.152344 L 24.152344 317.097656 L 24.089844 317.039062 L 24.027344 316.976562 L 23.96875 316.910156 L 23.910156 316.835938 L 23.855469 316.761719 L 23.800781 316.683594 L 23.753906 316.597656 L 23.703125 316.507812 L 23.660156 316.414062 L 23.617188 316.316406 L 23.574219 316.214844 L 23.535156 316.105469 L 23.5 315.996094 L 23.464844 315.878906 L 23.4375 315.757812 L 23.410156 315.628906 L 23.386719 315.496094 L 23.363281 315.355469 L 23.347656 315.210938 L 23.332031 315.0625 L 23.320312 314.90625 L 23.3125 314.746094 L 23.308594 314.578125 L 23.308594 314.226562 L 23.3125 314.050781 L 23.320312 313.882812 L 23.332031 313.722656 L 23.347656 313.570312 L 23.363281 313.421875 L 23.386719 313.28125 L 23.410156 313.144531 L 23.4375 313.015625 L 23.464844 312.894531 L 23.5 312.773438 L 23.535156 312.660156 L 23.574219 312.554688 L 23.617188 312.449219 L 23.660156 312.351562 L 23.707031 312.257812 L 23.753906 312.171875 L 23.804688 312.085938 L 23.859375 312.007812 L 23.914062 311.933594 L 24.03125 311.800781 L 24.09375 311.738281 L 24.15625 311.683594 L 24.289062 311.582031 L 24.359375 311.539062 L 24.433594 311.5 L 24.507812 311.464844 L 24.582031 311.4375 L 24.660156 311.410156 L 24.742188 311.382812 L 24.820312 311.363281 L 24.902344 311.34375 L 25.074219 311.3125 L 25.246094 311.296875 L 25.425781 311.289062 L 25.597656 311.296875 L 25.679688 311.304688 L 25.765625 311.3125 L 25.847656 311.328125 L 25.925781 311.34375 L 26.007812 311.363281 L 26.085938 311.382812 L 26.160156 311.410156 L 26.238281 311.4375 L 26.3125 311.464844 L 26.386719 311.5 L 26.457031 311.539062 L 26.527344 311.582031 L 26.597656 311.632812 L 26.660156 311.683594 L 26.726562 311.738281 L 26.785156 311.800781 L 26.847656 311.867188 L 26.902344 311.933594 L 26.960938 312.007812 L 27.011719 312.085938 L 27.113281 312.257812 L 27.15625 312.351562 L 27.199219 312.449219 L 27.242188 312.554688 L 27.28125 312.660156 L 27.316406 312.773438 L 27.351562 312.894531 L 27.382812 313.015625 L 27.410156 313.144531 L 27.433594 313.28125 L 27.457031 313.421875 L 27.472656 313.570312 L 27.488281 313.722656 L 27.5 313.882812 L 27.507812 314.050781 L 27.511719 314.226562 Z M 26.726562 314.40625 L 26.726562 314.261719 L 26.722656 314.125 L 26.714844 313.867188 L 26.707031 313.746094 L 26.695312 313.628906 L 26.6875 313.515625 L 26.671875 313.40625 L 26.660156 313.304688 L 26.640625 313.207031 L 26.625 313.113281 L 26.605469 313.023438 L 26.582031 312.933594 L 26.558594 312.851562 L 26.535156 312.773438 L 26.507812 312.699219 L 26.480469 312.628906 L 26.453125 312.5625 L 26.421875 312.5 L 26.386719 312.441406 L 26.355469 312.386719 L 26.320312 312.332031 L 26.242188 312.238281 L 26.203125 312.195312 L 26.160156 312.15625 L 26.117188 312.121094 L 26.070312 312.089844 L 26.023438 312.0625 L 25.976562 312.039062 L 25.925781 312.015625 L 25.878906 311.996094 L 25.824219 311.976562 L 25.773438 311.960938 L 25.664062 311.9375 L 25.546875 311.921875 L 25.488281 311.917969 L 25.363281 311.917969 L 25.296875 311.921875 L 25.238281 311.929688 L 25.175781 311.9375 L 25.117188 311.949219 L 25.0625 311.960938 L 25.007812 311.976562 L 24.953125 311.996094 L 24.902344 312.015625 L 24.800781 312.0625 L 24.707031 312.125 L 24.664062 312.160156 L 24.621094 312.199219 L 24.578125 312.242188 L 24.5 312.335938 L 24.429688 312.445312 L 24.394531 312.503906 L 24.367188 312.566406 L 24.335938 312.632812 L 24.308594 312.703125 L 24.28125 312.777344 L 24.257812 312.855469 L 24.234375 312.941406 L 24.214844 313.027344 L 24.195312 313.117188 L 24.175781 313.210938 L 24.160156 313.308594 L 24.144531 313.410156 L 24.121094 313.628906 L 24.109375 313.746094 L 24.101562 313.871094 L 24.097656 313.996094 L 24.09375 314.128906 L 24.089844 314.265625 L 24.089844 314.542969 L 24.09375 314.675781 L 24.097656 314.804688 L 24.101562 314.925781 L 24.109375 315.046875 L 24.132812 315.273438 L 24.144531 315.378906 L 24.160156 315.480469 L 24.175781 315.578125 L 24.195312 315.671875 L 24.214844 315.761719 L 24.238281 315.847656 L 24.261719 315.929688 L 24.285156 316.007812 L 24.3125 316.085938 L 24.339844 316.15625 L 24.402344 316.289062 L 24.433594 316.347656 L 24.503906 316.457031 L 24.542969 316.507812 L 24.582031 316.550781 L 24.625 316.59375 L 24.664062 316.636719 L 24.710938 316.671875 L 24.753906 316.707031 L 24.800781 316.738281 L 24.851562 316.765625 L 24.898438 316.789062 L 24.949219 316.808594 L 25.003906 316.828125 L 25.113281 316.859375 L 25.167969 316.867188 L 25.226562 316.878906 L 25.285156 316.882812 L 25.410156 316.890625 L 25.585938 316.878906 L 25.644531 316.867188 L 25.699219 316.859375 L 25.753906 316.84375 L 25.804688 316.828125 L 25.859375 316.808594 L 25.910156 316.789062 L 25.957031 316.765625 L 26.007812 316.738281 L 26.054688 316.707031 L 26.140625 316.636719 L 26.226562 316.550781 L 26.265625 316.507812 L 26.300781 316.457031 L 26.371094 316.347656 L 26.40625 316.289062 L 26.46875 316.15625 L 26.496094 316.085938 L 26.523438 316.007812 L 26.546875 315.929688 L 26.570312 315.847656 L 26.59375 315.761719 L 26.613281 315.671875 L 26.632812 315.578125 L 26.652344 315.480469 L 26.667969 315.378906 L 26.683594 315.273438 L 26.695312 315.160156 L 26.703125 315.046875 L 26.71875 314.804688 L 26.722656 314.675781 L 26.726562 314.542969 Z M 26.726562 314.40625 "/>
<path fill-rule="nonzero" fill="rgb(30.196078%, 30.196078%, 30.196078%)" fill-opacity="1" d="M 32.410156 314.40625 L 32.40625 314.578125 L 32.402344 314.742188 L 32.394531 314.902344 L 32.382812 315.058594 L 32.367188 315.207031 L 32.347656 315.351562 L 32.328125 315.492188 L 32.300781 315.625 L 32.273438 315.753906 L 32.242188 315.875 L 32.207031 315.992188 L 32.171875 316.101562 L 32.132812 316.210938 L 32.089844 316.3125 L 32.046875 316.410156 L 32 316.507812 L 31.953125 316.59375 L 31.898438 316.679688 L 31.847656 316.761719 L 31.730469 316.910156 L 31.671875 316.976562 L 31.609375 317.039062 L 31.546875 317.097656 L 31.480469 317.152344 L 31.414062 317.203125 L 31.34375 317.246094 L 31.269531 317.289062 L 31.195312 317.328125 L 31.121094 317.363281 L 31.042969 317.390625 L 30.960938 317.417969 L 30.882812 317.441406 L 30.800781 317.464844 L 30.636719 317.496094 L 30.550781 317.507812 L 30.46875 317.515625 L 30.382812 317.519531 L 30.207031 317.519531 L 30.121094 317.515625 L 30.035156 317.507812 L 29.949219 317.496094 L 29.785156 317.464844 L 29.703125 317.441406 L 29.625 317.417969 L 29.46875 317.363281 L 29.394531 317.328125 L 29.320312 317.289062 L 29.179688 317.203125 L 29.113281 317.152344 L 29.046875 317.097656 L 28.980469 317.039062 L 28.921875 316.976562 L 28.859375 316.910156 L 28.75 316.761719 L 28.695312 316.683594 L 28.644531 316.597656 L 28.597656 316.507812 L 28.554688 316.414062 L 28.511719 316.316406 L 28.46875 316.214844 L 28.429688 316.105469 L 28.394531 315.996094 L 28.359375 315.878906 L 28.332031 315.757812 L 28.304688 315.628906 L 28.28125 315.496094 L 28.257812 315.355469 L 28.242188 315.210938 L 28.226562 315.0625 L 28.214844 314.90625 L 28.207031 314.746094 L 28.203125 314.578125 L 28.203125 314.226562 L 28.207031 314.050781 L 28.214844 313.882812 L 28.226562 313.722656 L 28.242188 313.570312 L 28.257812 313.421875 L 28.28125 313.28125 L 28.304688 313.144531 L 28.332031 313.015625 L 28.359375 312.894531 L 28.394531 312.773438 L 28.429688 312.660156 L 28.46875 312.554688 L 28.511719 312.449219 L 28.554688 312.351562 L 28.601562 312.257812 L 28.648438 312.171875 L 28.699219 312.085938 L 28.753906 312.007812 L 28.808594 311.933594 L 28.925781 311.800781 L 28.988281 311.738281 L 29.050781 311.683594 L 29.183594 311.582031 L 29.253906 311.539062 L 29.328125 311.5 L 29.402344 311.464844 L 29.476562 311.4375 L 29.554688 311.410156 L 29.636719 311.382812 L 29.714844 311.363281 L 29.796875 311.34375 L 29.882812 311.328125 L 29.964844 311.3125 L 30.054688 311.304688 L 30.140625 311.296875 L 30.320312 311.289062 L 30.492188 311.296875 L 30.574219 311.304688 L 30.660156 311.3125 L 30.738281 311.328125 L 30.820312 311.34375 L 30.898438 311.363281 L 30.980469 311.382812 L 31.054688 311.410156 L 31.132812 311.4375 L 31.207031 311.464844 L 31.28125 311.5 L 31.351562 311.539062 L 31.421875 311.582031 L 31.554688 311.683594 L 31.621094 311.738281 L 31.679688 311.800781 L 31.742188 311.867188 L 31.796875 311.933594 L 31.855469 312.007812 L 31.90625 312.085938 L 32.007812 312.257812 L 32.050781 312.351562 L 32.09375 312.449219 L 32.136719 312.554688 L 32.175781 312.660156 L 32.210938 312.773438 L 32.246094 312.894531 L 32.277344 313.015625 L 32.304688 313.144531 L 32.328125 313.28125 L 32.351562 313.421875 L 32.367188 313.570312 L 32.382812 313.722656 L 32.394531 313.882812 L 32.402344 314.050781 L 32.40625 314.226562 Z M 31.621094 314.40625 L 31.621094 314.261719 L 31.617188 314.125 L 31.609375 313.867188 L 31.601562 313.746094 L 31.589844 313.628906 L 31.578125 313.515625 L 31.566406 313.40625 L 31.550781 313.304688 L 31.535156 313.207031 L 31.519531 313.113281 L 31.5 313.023438 L 31.476562 312.933594 L 31.453125 312.851562 L 31.429688 312.773438 L 31.402344 312.699219 L 31.375 312.628906 L 31.347656 312.5625 L 31.316406 312.5 L 31.28125 312.441406 L 31.25 312.386719 L 31.210938 312.332031 L 31.175781 312.285156 L 31.136719 312.238281 L 31.097656 312.195312 L 31.054688 312.15625 L 31.011719 312.121094 L 30.964844 312.089844 L 30.917969 312.0625 L 30.871094 312.039062 L 30.820312 312.015625 L 30.71875 311.976562 L 30.667969 311.960938 L 30.558594 311.9375 L 30.441406 311.921875 L 30.382812 311.917969 L 30.253906 311.917969 L 30.191406 311.921875 L 30.132812 311.929688 L 30.070312 311.9375 L 30.011719 311.949219 L 29.957031 311.960938 L 29.902344 311.976562 L 29.847656 311.996094 L 29.796875 312.015625 L 29.695312 312.0625 L 29.601562 312.125 L 29.558594 312.160156 L 29.515625 312.199219 L 29.472656 312.242188 L 29.394531 312.335938 L 29.324219 312.445312 L 29.289062 312.503906 L 29.257812 312.566406 L 29.230469 312.632812 L 29.203125 312.703125 L 29.175781 312.777344 L 29.152344 312.855469 L 29.105469 313.027344 L 29.085938 313.117188 L 29.070312 313.210938 L 29.054688 313.308594 L 29.039062 313.410156 L 29.015625 313.628906 L 29.003906 313.746094 L 28.996094 313.871094 L 28.992188 313.996094 L 28.988281 314.128906 L 28.984375 314.265625 L 28.984375 314.542969 L 28.988281 314.675781 L 28.992188 314.804688 L 28.996094 314.925781 L 29.003906 315.046875 L 29.027344 315.273438 L 29.039062 315.378906 L 29.054688 315.480469 L 29.070312 315.578125 L 29.089844 315.671875 L 29.109375 315.761719 L 29.132812 315.847656 L 29.15625 315.929688 L 29.179688 316.007812 L 29.207031 316.085938 L 29.234375 316.15625 L 29.261719 316.222656 L 29.292969 316.289062 L 29.328125 316.347656 L 29.398438 316.457031 L 29.4375 316.507812 L 29.476562 316.550781 L 29.519531 316.59375 L 29.558594 316.636719 L 29.605469 316.671875 L 29.648438 316.707031 L 29.695312 316.738281 L 29.746094 316.765625 L 29.792969 316.789062 L 29.84375 316.808594 L 29.898438 316.828125 L 30.007812 316.859375 L 30.0625 316.867188 L 30.121094 316.878906 L 30.179688 316.882812 L 30.304688 316.890625 L 30.480469 316.878906 L 30.539062 316.867188 L 30.59375 316.859375 L 30.648438 316.84375 L 30.699219 316.828125 L 30.753906 316.808594 L 30.804688 316.789062 L 30.851562 316.765625 L 30.902344 316.738281 L 30.949219 316.707031 L 31.035156 316.636719 L 31.078125 316.59375 L 31.15625 316.507812 L 31.195312 316.457031 L 31.265625 316.347656 L 31.300781 316.289062 L 31.332031 316.222656 L 31.359375 316.15625 L 31.390625 316.085938 L 31.417969 316.007812 L 31.441406 315.929688 L 31.464844 315.847656 L 31.488281 315.761719 L 31.507812 315.671875 L 31.527344 315.578125 L 31.546875 315.480469 L 31.5625 315.378906 L 31.574219 315.273438 L 31.589844 315.160156 L 31.597656 315.046875 L 31.613281 314.804688 L 31.617188 314.675781 L 31.621094 314.542969 Z M 31.621094 314.40625 "/>
<path fill-rule="nonzero" fill="rgb(30.196078%, 30.196078%, 30.196078%)" fill-opacity="1" d="M 18.738281 243.878906 L 18.738281 243.222656 L 20.28125 243.222656 L 20.28125 238.566406 L 18.917969 239.539062 L 18.917969 238.808594 L 20.347656 237.824219 L 21.058594 237.824219 L 21.058594 243.222656 L 22.535156 243.222656 L 22.535156 243.878906 Z M 18.738281 243.878906 "/>
<path fill-rule="nonzero" fill="rgb(30.196078%, 30.196078%, 30.196078%)" fill-opacity="1" d="M 23.40625 243.878906 L 23.40625 243.335938 L 23.453125 243.234375 L 23.496094 243.136719 L 23.546875 243.042969 L 23.648438 242.863281 L 23.703125 242.773438 L 23.757812 242.691406 L 23.816406 242.605469 L 23.878906 242.527344 L 23.9375 242.449219 L 24.003906 242.371094 L 24.066406 242.296875 L 24.132812 242.222656 L 24.332031 242.011719 L 24.398438 241.945312 L 24.46875 241.878906 L 24.535156 241.816406 L 24.746094 241.628906 L 24.8125 241.570312 L 24.953125 241.453125 L 25.019531 241.394531 L 25.089844 241.335938 L 25.15625 241.28125 L 25.226562 241.226562 L 25.292969 241.171875 L 25.359375 241.121094 L 25.492188 241.011719 L 25.558594 240.960938 L 25.621094 240.90625 L 25.679688 240.855469 L 25.742188 240.800781 L 25.796875 240.746094 L 25.855469 240.695312 L 25.964844 240.585938 L 26.066406 240.476562 L 26.160156 240.367188 L 26.203125 240.3125 L 26.242188 240.253906 L 26.28125 240.199219 L 26.320312 240.140625 L 26.355469 240.082031 L 26.386719 240.023438 L 26.441406 239.898438 L 26.464844 239.835938 L 26.484375 239.769531 L 26.5 239.703125 L 26.511719 239.636719 L 26.519531 239.566406 L 26.523438 239.492188 L 26.527344 239.421875 L 26.523438 239.371094 L 26.523438 239.320312 L 26.519531 239.269531 L 26.511719 239.222656 L 26.507812 239.179688 L 26.5 239.132812 L 26.488281 239.089844 L 26.476562 239.050781 L 26.464844 239.007812 L 26.433594 238.929688 L 26.414062 238.890625 L 26.375 238.820312 L 26.355469 238.789062 L 26.332031 238.753906 L 26.308594 238.722656 L 26.28125 238.695312 L 26.253906 238.664062 L 26.226562 238.636719 L 26.195312 238.613281 L 26.164062 238.585938 L 26.132812 238.5625 L 25.992188 238.484375 L 25.914062 238.453125 L 25.871094 238.441406 L 25.832031 238.425781 L 25.789062 238.414062 L 25.746094 238.40625 L 25.703125 238.394531 L 25.660156 238.390625 L 25.613281 238.382812 L 25.472656 238.371094 L 25.375 238.371094 L 25.328125 238.375 L 25.285156 238.378906 L 25.238281 238.382812 L 25.195312 238.386719 L 25.109375 238.402344 L 25.023438 238.425781 L 24.945312 238.449219 L 24.828125 238.496094 L 24.757812 238.535156 L 24.6875 238.582031 L 24.65625 238.605469 L 24.621094 238.628906 L 24.589844 238.65625 L 24.5625 238.683594 L 24.53125 238.710938 L 24.476562 238.773438 L 24.453125 238.808594 L 24.425781 238.839844 L 24.402344 238.878906 L 24.382812 238.914062 L 24.359375 238.953125 L 24.339844 238.988281 L 24.324219 239.03125 L 24.308594 239.070312 L 24.277344 239.15625 L 24.265625 239.203125 L 24.253906 239.246094 L 24.246094 239.296875 L 24.238281 239.34375 L 24.230469 239.394531 L 23.441406 239.320312 L 23.449219 239.257812 L 23.460938 239.191406 L 23.472656 239.128906 L 23.503906 239.003906 L 23.523438 238.941406 L 23.59375 238.765625 L 23.621094 238.707031 L 23.652344 238.648438 L 23.714844 238.539062 L 23.75 238.488281 L 23.789062 238.4375 L 23.832031 238.386719 L 23.871094 238.339844 L 23.964844 238.246094 L 24.011719 238.203125 L 24.0625 238.160156 L 24.226562 238.042969 L 24.285156 238.007812 L 24.472656 237.914062 L 24.539062 237.886719 L 24.609375 237.859375 L 24.679688 237.835938 L 24.753906 237.816406 L 24.832031 237.796875 L 24.988281 237.765625 L 25.070312 237.753906 L 25.15625 237.746094 L 25.242188 237.742188 L 25.421875 237.734375 L 25.511719 237.738281 L 25.597656 237.738281 L 25.683594 237.746094 L 25.847656 237.761719 L 25.925781 237.773438 L 26.082031 237.804688 L 26.152344 237.824219 L 26.226562 237.84375 L 26.292969 237.867188 L 26.363281 237.890625 L 26.488281 237.945312 L 26.550781 237.976562 L 26.609375 238.007812 L 26.664062 238.042969 L 26.71875 238.082031 L 26.769531 238.121094 L 26.816406 238.160156 L 26.867188 238.203125 L 26.996094 238.34375 L 27.035156 238.394531 L 27.105469 238.503906 L 27.136719 238.5625 L 27.191406 238.679688 L 27.214844 238.742188 L 27.238281 238.808594 L 27.257812 238.875 L 27.289062 239.015625 L 27.300781 239.085938 L 27.308594 239.160156 L 27.316406 239.238281 L 27.320312 239.316406 L 27.320312 239.453125 L 27.316406 239.515625 L 27.3125 239.574219 L 27.304688 239.632812 L 27.28125 239.75 L 27.265625 239.808594 L 27.25 239.863281 L 27.210938 239.972656 L 27.164062 240.082031 L 27.109375 240.191406 L 27.082031 240.242188 L 27.050781 240.296875 L 26.988281 240.398438 L 26.917969 240.5 L 26.878906 240.546875 L 26.84375 240.597656 L 26.804688 240.648438 L 26.761719 240.695312 L 26.722656 240.742188 L 26.679688 240.792969 L 26.636719 240.839844 L 26.449219 241.027344 L 26.398438 241.074219 L 26.351562 241.117188 L 26.25 241.210938 L 26.199219 241.253906 L 26.148438 241.300781 L 26.097656 241.34375 L 26.046875 241.390625 L 25.992188 241.433594 L 25.941406 241.480469 L 25.886719 241.523438 L 25.835938 241.566406 L 25.78125 241.609375 L 25.730469 241.65625 L 25.675781 241.699219 L 25.625 241.742188 L 25.570312 241.785156 L 25.519531 241.828125 L 25.464844 241.875 L 25.410156 241.917969 L 25.105469 242.175781 L 25.058594 242.21875 L 25.007812 242.265625 L 24.960938 242.308594 L 24.917969 242.351562 L 24.871094 242.394531 L 24.828125 242.441406 L 24.742188 242.527344 L 24.699219 242.574219 L 24.660156 242.617188 L 24.582031 242.710938 L 24.546875 242.753906 L 24.507812 242.800781 L 24.472656 242.84375 L 24.378906 242.984375 L 24.351562 243.03125 L 24.328125 243.078125 L 24.300781 243.125 L 24.277344 243.175781 L 24.257812 243.222656 L 27.414062 243.222656 L 27.414062 243.878906 Z M 23.40625 243.878906 "/>
<path fill-rule="nonzero" fill="rgb(30.196078%, 30.196078%, 30.196078%)" fill-opacity="1" d="M 32.382812 241.90625 L 32.382812 242 L 32.378906 242.085938 L 32.371094 242.175781 L 32.359375 242.261719 L 32.347656 242.34375 L 32.316406 242.507812 L 32.246094 242.742188 L 32.183594 242.890625 L 32.152344 242.960938 L 32.074219 243.09375 L 32.03125 243.160156 L 31.988281 243.21875 L 31.941406 243.28125 L 31.890625 243.339844 L 31.78125 243.449219 L 31.722656 243.5 L 31.664062 243.546875 L 31.597656 243.59375 L 31.53125 243.636719 L 31.464844 243.675781 L 31.394531 243.714844 L 31.320312 243.75 L 31.242188 243.785156 L 31.164062 243.816406 L 31.082031 243.84375 L 30.996094 243.871094 L 30.910156 243.890625 L 30.730469 243.929688 L 30.636719 243.941406 L 30.539062 243.953125 L 30.441406 243.960938 L 30.339844 243.964844 L 30.140625 243.964844 L 30.046875 243.960938 L 29.957031 243.957031 L 29.871094 243.949219 L 29.707031 243.925781 L 29.625 243.910156 L 29.546875 243.894531 L 29.472656 243.875 L 29.402344 243.855469 L 29.332031 243.832031 L 29.265625 243.804688 L 29.199219 243.78125 L 29.136719 243.753906 L 29.074219 243.722656 L 29.015625 243.691406 L 28.960938 243.65625 L 28.90625 243.625 L 28.851562 243.585938 L 28.804688 243.550781 L 28.753906 243.507812 L 28.710938 243.46875 L 28.664062 243.425781 L 28.625 243.382812 L 28.582031 243.335938 L 28.546875 243.289062 L 28.507812 243.242188 L 28.476562 243.191406 L 28.441406 243.140625 L 28.414062 243.089844 L 28.386719 243.035156 L 28.359375 242.984375 L 28.3125 242.875 L 28.289062 242.816406 L 28.273438 242.761719 L 28.253906 242.703125 L 28.222656 242.585938 L 28.210938 242.527344 L 28.992188 242.4375 L 29.003906 242.472656 L 29.011719 242.503906 L 29.035156 242.574219 L 29.050781 242.605469 L 29.0625 242.640625 L 29.078125 242.671875 L 29.09375 242.707031 L 29.109375 242.738281 L 29.125 242.773438 L 29.164062 242.835938 L 29.183594 242.863281 L 29.203125 242.894531 L 29.226562 242.921875 L 29.25 242.953125 L 29.277344 242.980469 L 29.300781 243.007812 L 29.328125 243.035156 L 29.359375 243.058594 L 29.386719 243.085938 L 29.421875 243.109375 L 29.453125 243.128906 L 29.488281 243.152344 L 29.523438 243.171875 L 29.640625 243.230469 L 29.679688 243.246094 L 29.722656 243.261719 L 29.769531 243.277344 L 29.8125 243.289062 L 29.863281 243.296875 L 29.914062 243.308594 L 29.964844 243.316406 L 30.019531 243.324219 L 30.074219 243.328125 L 30.132812 243.332031 L 30.191406 243.332031 L 30.25 243.335938 L 30.3125 243.332031 L 30.371094 243.332031 L 30.425781 243.328125 L 30.484375 243.320312 L 30.539062 243.3125 L 30.59375 243.300781 L 30.695312 243.277344 L 30.796875 243.246094 L 30.84375 243.222656 L 30.890625 243.203125 L 30.9375 243.179688 L 30.980469 243.15625 L 31.066406 243.101562 L 31.105469 243.070312 L 31.140625 243.039062 L 31.179688 243.003906 L 31.25 242.933594 L 31.3125 242.855469 L 31.339844 242.8125 L 31.371094 242.769531 L 31.394531 242.722656 L 31.421875 242.675781 L 31.445312 242.628906 L 31.484375 242.527344 L 31.503906 242.472656 L 31.519531 242.417969 L 31.53125 242.363281 L 31.546875 242.304688 L 31.554688 242.246094 L 31.570312 242.121094 L 31.574219 242.058594 L 31.578125 241.992188 L 31.578125 241.871094 L 31.570312 241.761719 L 31.566406 241.710938 L 31.554688 241.65625 L 31.546875 241.605469 L 31.535156 241.558594 L 31.519531 241.507812 L 31.507812 241.460938 L 31.449219 241.320312 L 31.429688 241.277344 L 31.40625 241.234375 L 31.296875 241.078125 L 31.265625 241.042969 L 31.230469 241.011719 L 31.195312 240.976562 L 31.125 240.914062 L 31.085938 240.886719 L 31.042969 240.859375 L 31.003906 240.832031 L 30.957031 240.808594 L 30.914062 240.785156 L 30.867188 240.761719 L 30.820312 240.742188 L 30.667969 240.695312 L 30.613281 240.683594 L 30.5625 240.671875 L 30.503906 240.664062 L 30.449219 240.65625 L 30.390625 240.652344 L 30.328125 240.648438 L 30.230469 240.648438 L 30.191406 240.652344 L 30.15625 240.652344 L 30.117188 240.65625 L 30.082031 240.65625 L 30.011719 240.664062 L 29.976562 240.671875 L 29.945312 240.675781 L 29.910156 240.683594 L 29.753906 240.722656 L 29.722656 240.734375 L 29.695312 240.746094 L 29.664062 240.753906 L 29.636719 240.765625 L 29.605469 240.777344 L 29.578125 240.789062 L 29.550781 240.804688 L 29.527344 240.816406 L 29.5 240.828125 L 29.476562 240.84375 L 29.449219 240.859375 L 29.425781 240.871094 L 29.402344 240.886719 L 29.375 240.902344 L 29.351562 240.917969 L 29.332031 240.933594 L 29.308594 240.949219 L 29.289062 240.96875 L 29.265625 240.984375 L 29.246094 241 L 29.222656 241.015625 L 29.203125 241.03125 L 29.183594 241.050781 L 29.144531 241.082031 L 28.386719 241.082031 L 28.589844 237.824219 L 32.03125 237.824219 L 32.03125 238.484375 L 29.292969 238.484375 L 29.175781 240.402344 L 29.21875 240.371094 L 29.265625 240.34375 L 29.308594 240.3125 L 29.460938 240.230469 L 29.515625 240.203125 L 29.691406 240.132812 L 29.753906 240.113281 L 29.820312 240.089844 L 29.890625 240.074219 L 29.957031 240.058594 L 30.105469 240.035156 L 30.183594 240.027344 L 30.261719 240.023438 L 30.425781 240.015625 L 30.605469 240.023438 L 30.691406 240.03125 L 30.773438 240.039062 L 30.855469 240.050781 L 30.9375 240.066406 L 31.015625 240.085938 L 31.089844 240.105469 L 31.167969 240.128906 L 31.238281 240.15625 L 31.3125 240.183594 L 31.445312 240.246094 L 31.511719 240.285156 L 31.574219 240.320312 L 31.632812 240.363281 L 31.691406 240.402344 L 31.75 240.449219 L 31.800781 240.496094 L 31.855469 240.546875 L 31.949219 240.648438 L 31.996094 240.703125 L 32.039062 240.761719 L 32.117188 240.878906 L 32.152344 240.941406 L 32.214844 241.074219 L 32.246094 241.144531 L 32.292969 241.285156 L 32.316406 241.359375 L 32.347656 241.507812 L 32.371094 241.664062 L 32.378906 241.742188 L 32.382812 241.824219 Z M 32.382812 241.90625 "/>
<path fill-rule="nonzero" fill="rgb(30.196078%, 30.196078%, 30.196078%)" fill-opacity="1" d="M 18.738281 170.324219 L 18.738281 169.667969 L 20.28125 169.667969 L 20.28125 165.011719 L 18.917969 165.984375 L 18.917969 165.253906 L 20.347656 164.273438 L 21.058594 164.273438 L 21.058594 169.667969 L 22.535156 169.667969 L 22.535156 170.324219 Z M 18.738281 170.324219 "/>
<path fill-rule="nonzero" fill="rgb(30.196078%, 30.196078%, 30.196078%)" fill-opacity="1" d="M 27.488281 168.355469 L 27.488281 168.445312 L 27.484375 168.53125 L 27.476562 168.621094 L 27.464844 168.707031 L 27.453125 168.789062 L 27.421875 168.953125 L 27.402344 169.03125 L 27.378906 169.109375 L 27.351562 169.1875 L 27.289062 169.335938 L 27.257812 169.40625 L 27.179688 169.539062 L 27.136719 169.605469 L 27.09375 169.667969 L 27.046875 169.726562 L 26.996094 169.785156 L 26.886719 169.894531 L 26.828125 169.945312 L 26.769531 169.992188 L 26.703125 170.039062 L 26.640625 170.082031 L 26.5 170.160156 L 26.425781 170.195312 L 26.347656 170.230469 L 26.269531 170.261719 L 26.1875 170.289062 L 26.101562 170.316406 L 26.015625 170.339844 L 25.929688 170.359375 L 25.835938 170.375 L 25.742188 170.386719 L 25.644531 170.398438 L 25.546875 170.40625 L 25.445312 170.410156 L 25.246094 170.410156 L 25.152344 170.40625 L 25.066406 170.402344 L 24.976562 170.394531 L 24.8125 170.371094 L 24.730469 170.355469 L 24.652344 170.339844 L 24.578125 170.320312 L 24.507812 170.300781 L 24.4375 170.277344 L 24.371094 170.253906 L 24.304688 170.226562 L 24.242188 170.199219 L 24.179688 170.167969 L 24.121094 170.136719 L 24.066406 170.105469 L 24.011719 170.070312 L 23.960938 170.03125 L 23.910156 169.996094 L 23.859375 169.953125 L 23.816406 169.914062 L 23.769531 169.871094 L 23.730469 169.828125 L 23.6875 169.78125 L 23.652344 169.734375 L 23.613281 169.6875 L 23.582031 169.636719 L 23.546875 169.585938 L 23.492188 169.484375 L 23.464844 169.429688 L 23.417969 169.320312 L 23.398438 169.261719 L 23.378906 169.207031 L 23.359375 169.148438 L 23.328125 169.03125 L 23.316406 168.972656 L 24.097656 168.882812 L 24.109375 168.917969 L 24.117188 168.949219 L 24.140625 169.019531 L 24.15625 169.050781 L 24.167969 169.085938 L 24.183594 169.117188 L 24.199219 169.152344 L 24.214844 169.183594 L 24.230469 169.21875 L 24.269531 169.28125 L 24.289062 169.308594 L 24.308594 169.339844 L 24.332031 169.367188 L 24.355469 169.398438 L 24.382812 169.425781 L 24.40625 169.453125 L 24.433594 169.480469 L 24.464844 169.503906 L 24.496094 169.53125 L 24.527344 169.554688 L 24.558594 169.574219 L 24.59375 169.597656 L 24.628906 169.617188 L 24.746094 169.675781 L 24.785156 169.691406 L 24.828125 169.707031 L 24.875 169.722656 L 24.96875 169.746094 L 25.070312 169.761719 L 25.125 169.769531 L 25.179688 169.773438 L 25.296875 169.78125 L 25.417969 169.78125 L 25.476562 169.777344 L 25.53125 169.773438 L 25.589844 169.765625 L 25.644531 169.757812 L 25.699219 169.746094 L 25.75 169.734375 L 25.804688 169.722656 L 25.851562 169.707031 L 25.902344 169.691406 L 25.953125 169.671875 L 25.996094 169.648438 L 26.042969 169.625 L 26.085938 169.601562 L 26.171875 169.546875 L 26.25 169.484375 L 26.355469 169.378906 L 26.417969 169.300781 L 26.449219 169.257812 L 26.476562 169.214844 L 26.5 169.167969 L 26.527344 169.121094 L 26.550781 169.074219 L 26.589844 168.972656 L 26.609375 168.917969 L 26.640625 168.808594 L 26.652344 168.75 L 26.660156 168.691406 L 26.675781 168.566406 L 26.679688 168.503906 L 26.683594 168.4375 L 26.683594 168.316406 L 26.675781 168.207031 L 26.671875 168.15625 L 26.664062 168.101562 L 26.652344 168.054688 L 26.628906 167.953125 L 26.613281 167.90625 L 26.574219 167.8125 L 26.554688 167.769531 L 26.535156 167.722656 L 26.511719 167.679688 L 26.429688 167.5625 L 26.402344 167.527344 L 26.371094 167.488281 L 26.335938 167.457031 L 26.300781 167.421875 L 26.230469 167.359375 L 26.191406 167.332031 L 26.148438 167.304688 L 26.109375 167.277344 L 26.0625 167.253906 L 26.019531 167.230469 L 25.972656 167.207031 L 25.925781 167.1875 L 25.773438 167.140625 L 25.722656 167.128906 L 25.667969 167.117188 L 25.609375 167.109375 L 25.554688 167.101562 L 25.4375 167.09375 L 25.335938 167.09375 L 25.296875 167.097656 L 25.261719 167.097656 L 25.222656 167.101562 L 25.1875 167.101562 L 25.152344 167.105469 L 25.117188 167.113281 L 25.085938 167.117188 L 25.050781 167.121094 L 25.019531 167.128906 L 24.984375 167.136719 L 24.890625 167.160156 L 24.859375 167.171875 L 24.828125 167.179688 L 24.800781 167.191406 L 24.769531 167.199219 L 24.742188 167.210938 L 24.710938 167.222656 L 24.683594 167.234375 L 24.660156 167.25 L 24.605469 167.273438 L 24.582031 167.289062 L 24.554688 167.304688 L 24.53125 167.320312 L 24.507812 167.332031 L 24.484375 167.347656 L 24.460938 167.367188 L 24.414062 167.398438 L 24.394531 167.414062 L 24.371094 167.429688 L 24.351562 167.445312 L 24.328125 167.460938 L 24.308594 167.476562 L 24.289062 167.496094 L 24.25 167.527344 L 23.492188 167.527344 L 23.695312 164.273438 L 27.136719 164.273438 L 27.136719 164.929688 L 24.398438 164.929688 L 24.28125 166.851562 L 24.324219 166.820312 L 24.417969 166.757812 L 24.464844 166.730469 L 24.566406 166.675781 L 24.621094 166.652344 L 24.679688 166.625 L 24.796875 166.578125 L 24.863281 166.558594 L 24.925781 166.539062 L 24.996094 166.519531 L 25.066406 166.503906 L 25.136719 166.492188 L 25.210938 166.480469 L 25.289062 166.472656 L 25.367188 166.46875 L 25.449219 166.464844 L 25.621094 166.464844 L 25.710938 166.46875 L 25.796875 166.476562 L 25.878906 166.484375 L 25.960938 166.496094 L 26.042969 166.511719 L 26.199219 166.550781 L 26.273438 166.574219 L 26.34375 166.601562 L 26.417969 166.628906 L 26.484375 166.660156 L 26.617188 166.730469 L 26.679688 166.765625 L 26.855469 166.894531 L 26.910156 166.941406 L 26.960938 166.992188 L 27.007812 167.042969 L 27.058594 167.09375 L 27.101562 167.148438 L 27.144531 167.207031 L 27.183594 167.265625 L 27.222656 167.328125 L 27.292969 167.453125 L 27.324219 167.519531 L 27.378906 167.660156 L 27.402344 167.730469 L 27.421875 167.804688 L 27.453125 167.953125 L 27.476562 168.109375 L 27.484375 168.191406 L 27.488281 168.269531 Z M 27.488281 168.355469 "/>
<path fill-rule="nonzero" fill="rgb(30.196078%, 30.196078%, 30.196078%)" fill-opacity="1" d="M 32.410156 167.296875 L 32.40625 167.46875 L 32.402344 167.632812 L 32.394531 167.796875 L 32.382812 167.949219 L 32.367188 168.101562 L 32.347656 168.246094 L 32.328125 168.382812 L 32.300781 168.515625 L 32.273438 168.644531 L 32.242188 168.765625 L 32.207031 168.882812 L 32.171875 168.996094 L 32.132812 169.101562 L 32.046875 169.304688 L 32 169.398438 L 31.953125 169.488281 L 31.898438 169.570312 L 31.847656 169.652344 L 31.789062 169.730469 L 31.730469 169.800781 L 31.671875 169.867188 L 31.609375 169.929688 L 31.546875 169.988281 L 31.480469 170.042969 L 31.414062 170.09375 L 31.34375 170.140625 L 31.195312 170.21875 L 31.121094 170.253906 L 31.042969 170.28125 L 30.960938 170.308594 L 30.882812 170.335938 L 30.800781 170.355469 L 30.636719 170.386719 L 30.550781 170.398438 L 30.46875 170.40625 L 30.382812 170.410156 L 30.207031 170.410156 L 30.121094 170.40625 L 30.035156 170.398438 L 29.949219 170.386719 L 29.785156 170.355469 L 29.703125 170.335938 L 29.46875 170.253906 L 29.394531 170.21875 L 29.320312 170.179688 L 29.25 170.140625 L 29.179688 170.09375 L 29.113281 170.042969 L 29.046875 169.988281 L 28.980469 169.929688 L 28.921875 169.867188 L 28.859375 169.800781 L 28.804688 169.730469 L 28.695312 169.574219 L 28.644531 169.488281 L 28.597656 169.398438 L 28.554688 169.304688 L 28.511719 169.207031 L 28.46875 169.105469 L 28.429688 169 L 28.394531 168.886719 L 28.359375 168.769531 L 28.332031 168.648438 L 28.304688 168.519531 L 28.28125 168.386719 L 28.257812 168.246094 L 28.242188 168.101562 L 28.226562 167.953125 L 28.214844 167.796875 L 28.207031 167.636719 L 28.203125 167.46875 L 28.203125 167.117188 L 28.207031 166.941406 L 28.214844 166.777344 L 28.226562 166.617188 L 28.242188 166.460938 L 28.257812 166.3125 L 28.28125 166.171875 L 28.304688 166.035156 L 28.332031 165.90625 L 28.359375 165.785156 L 28.394531 165.667969 L 28.429688 165.554688 L 28.46875 165.445312 L 28.554688 165.242188 L 28.648438 165.0625 L 28.699219 164.976562 L 28.753906 164.898438 L 28.808594 164.824219 L 28.925781 164.691406 L 29.050781 164.574219 L 29.117188 164.523438 L 29.183594 164.476562 L 29.253906 164.433594 L 29.328125 164.394531 L 29.402344 164.359375 L 29.476562 164.328125 L 29.554688 164.300781 L 29.636719 164.273438 L 29.714844 164.253906 L 29.796875 164.234375 L 29.882812 164.21875 L 29.964844 164.203125 L 30.054688 164.195312 L 30.140625 164.1875 L 30.320312 164.179688 L 30.492188 164.1875 L 30.574219 164.195312 L 30.660156 164.203125 L 30.738281 164.21875 L 30.820312 164.234375 L 30.898438 164.253906 L 30.980469 164.273438 L 31.054688 164.300781 L 31.132812 164.328125 L 31.207031 164.359375 L 31.28125 164.394531 L 31.351562 164.433594 L 31.421875 164.476562 L 31.488281 164.523438 L 31.554688 164.574219 L 31.621094 164.632812 L 31.679688 164.691406 L 31.742188 164.757812 L 31.796875 164.824219 L 31.855469 164.898438 L 31.90625 164.976562 L 31.957031 165.0625 L 32.007812 165.152344 L 32.050781 165.242188 L 32.136719 165.445312 L 32.175781 165.554688 L 32.210938 165.667969 L 32.246094 165.785156 L 32.277344 165.90625 L 32.304688 166.035156 L 32.328125 166.171875 L 32.351562 166.3125 L 32.367188 166.460938 L 32.382812 166.617188 L 32.394531 166.777344 L 32.402344 166.941406 L 32.40625 167.117188 Z M 31.621094 167.296875 L 31.621094 167.15625 L 31.617188 167.019531 L 31.613281 166.886719 L 31.609375 166.757812 L 31.601562 166.636719 L 31.589844 166.519531 L 31.578125 166.40625 L 31.566406 166.296875 L 31.550781 166.195312 L 31.535156 166.097656 L 31.519531 166.003906 L 31.5 165.914062 L 31.476562 165.828125 L 31.453125 165.746094 L 31.429688 165.667969 L 31.402344 165.589844 L 31.375 165.519531 L 31.347656 165.453125 L 31.316406 165.390625 L 31.28125 165.332031 L 31.25 165.277344 L 31.210938 165.226562 L 31.175781 165.175781 L 31.136719 165.128906 L 31.097656 165.089844 L 31.054688 165.050781 L 31.011719 165.015625 L 30.964844 164.980469 L 30.917969 164.953125 L 30.871094 164.929688 L 30.820312 164.90625 L 30.71875 164.867188 L 30.667969 164.851562 L 30.558594 164.828125 L 30.441406 164.8125 L 30.382812 164.808594 L 30.253906 164.808594 L 30.191406 164.8125 L 30.132812 164.820312 L 30.070312 164.828125 L 30.011719 164.839844 L 29.957031 164.851562 L 29.902344 164.867188 L 29.847656 164.886719 L 29.796875 164.90625 L 29.695312 164.953125 L 29.601562 165.015625 L 29.558594 165.050781 L 29.515625 165.089844 L 29.472656 165.132812 L 29.433594 165.179688 L 29.394531 165.230469 L 29.359375 165.28125 L 29.324219 165.335938 L 29.289062 165.394531 L 29.257812 165.457031 L 29.230469 165.523438 L 29.175781 165.671875 L 29.152344 165.75 L 29.128906 165.832031 L 29.105469 165.917969 L 29.085938 166.007812 L 29.070312 166.101562 L 29.054688 166.199219 L 29.039062 166.300781 L 29.027344 166.410156 L 29.015625 166.523438 L 29.003906 166.640625 L 28.996094 166.761719 L 28.992188 166.886719 L 28.988281 167.019531 L 28.984375 167.15625 L 28.984375 167.433594 L 28.988281 167.566406 L 28.992188 167.695312 L 28.996094 167.820312 L 29.003906 167.9375 L 29.015625 168.054688 L 29.027344 168.164062 L 29.039062 168.269531 L 29.054688 168.371094 L 29.070312 168.46875 L 29.089844 168.5625 L 29.109375 168.652344 L 29.132812 168.738281 L 29.179688 168.902344 L 29.207031 168.976562 L 29.234375 169.046875 L 29.261719 169.113281 L 29.292969 169.179688 L 29.328125 169.238281 L 29.398438 169.347656 L 29.4375 169.398438 L 29.476562 169.445312 L 29.558594 169.527344 L 29.605469 169.5625 L 29.648438 169.597656 L 29.695312 169.628906 L 29.746094 169.65625 L 29.792969 169.679688 L 29.84375 169.699219 L 29.898438 169.71875 L 30.007812 169.75 L 30.0625 169.761719 L 30.121094 169.769531 L 30.179688 169.773438 L 30.304688 169.78125 L 30.480469 169.769531 L 30.539062 169.761719 L 30.59375 169.75 L 30.648438 169.734375 L 30.699219 169.71875 L 30.753906 169.699219 L 30.804688 169.679688 L 30.851562 169.65625 L 30.902344 169.628906 L 30.949219 169.597656 L 31.035156 169.527344 L 31.078125 169.488281 L 31.117188 169.445312 L 31.15625 169.398438 L 31.195312 169.347656 L 31.265625 169.238281 L 31.300781 169.179688 L 31.332031 169.113281 L 31.359375 169.046875 L 31.390625 168.976562 L 31.417969 168.902344 L 31.464844 168.738281 L 31.488281 168.652344 L 31.507812 168.5625 L 31.527344 168.46875 L 31.546875 168.371094 L 31.5625 168.269531 L 31.574219 168.164062 L 31.589844 168.054688 L 31.605469 167.820312 L 31.613281 167.695312 L 31.617188 167.566406 L 31.621094 167.433594 Z M 31.621094 167.296875 "/>
<path fill-rule="nonzero" fill="rgb(30.196078%, 30.196078%, 30.196078%)" fill-opacity="1" d="M 18.738281 96.773438 L 18.738281 96.113281 L 20.28125 96.113281 L 20.28125 91.457031 L 18.917969 92.433594 L 18.917969 91.703125 L 20.347656 90.71875 L 21.058594 90.71875 L 21.058594 96.113281 L 22.535156 96.113281 L 22.535156 96.773438 Z M 18.738281 96.773438 "/>
<path fill-rule="nonzero" fill="rgb(30.196078%, 30.196078%, 30.196078%)" fill-opacity="1" d="M 27.414062 91.34375 L 27.324219 91.484375 L 27.234375 91.621094 L 27.0625 91.894531 L 26.976562 92.027344 L 26.8125 92.292969 L 26.734375 92.425781 L 26.578125 92.683594 L 26.429688 92.941406 L 26.289062 93.199219 L 26.15625 93.457031 L 26.09375 93.589844 L 25.976562 93.847656 L 25.921875 93.980469 L 25.867188 94.109375 L 25.816406 94.238281 L 25.765625 94.371094 L 25.71875 94.503906 L 25.632812 94.769531 L 25.59375 94.90625 L 25.523438 95.179688 L 25.460938 95.453125 L 25.414062 95.734375 L 25.394531 95.875 L 25.378906 96.019531 L 25.363281 96.167969 L 25.347656 96.464844 L 25.339844 96.617188 L 25.339844 96.773438 L 24.53125 96.773438 L 24.535156 96.625 L 24.539062 96.484375 L 24.546875 96.339844 L 24.558594 96.195312 L 24.574219 96.054688 L 24.59375 95.910156 L 24.640625 95.628906 L 24.703125 95.347656 L 24.738281 95.210938 L 24.777344 95.070312 L 24.816406 94.933594 L 24.859375 94.792969 L 24.953125 94.519531 L 25.003906 94.382812 L 25.054688 94.25 L 25.109375 94.113281 L 25.167969 93.980469 L 25.226562 93.84375 L 25.351562 93.578125 L 25.417969 93.441406 L 25.484375 93.3125 L 25.695312 92.914062 L 25.769531 92.785156 L 25.925781 92.527344 L 26.003906 92.394531 L 26.082031 92.265625 L 26.164062 92.140625 L 26.410156 91.753906 L 26.496094 91.628906 L 26.582031 91.5 L 26.667969 91.375 L 23.414062 91.375 L 23.414062 90.71875 L 27.414062 90.71875 Z M 27.414062 91.34375 "/>
<path fill-rule="nonzero" fill="rgb(30.196078%, 30.196078%, 30.196078%)" fill-opacity="1" d="M 32.382812 94.800781 L 32.382812 94.890625 L 32.378906 94.980469 L 32.371094 95.066406 L 32.359375 95.152344 L 32.347656 95.234375 L 32.316406 95.398438 L 32.292969 95.480469 L 32.269531 95.558594 L 32.246094 95.632812 L 32.183594 95.78125 L 32.152344 95.851562 L 32.074219 95.984375 L 32.03125 96.050781 L 31.988281 96.113281 L 31.941406 96.171875 L 31.890625 96.230469 L 31.78125 96.339844 L 31.722656 96.390625 L 31.664062 96.4375 L 31.597656 96.484375 L 31.53125 96.527344 L 31.464844 96.566406 L 31.394531 96.605469 L 31.320312 96.640625 L 31.242188 96.675781 L 31.164062 96.707031 L 31.082031 96.734375 L 30.996094 96.761719 L 30.910156 96.785156 L 30.820312 96.804688 L 30.730469 96.820312 L 30.636719 96.832031 L 30.539062 96.84375 L 30.441406 96.851562 L 30.339844 96.855469 L 30.234375 96.859375 L 30.046875 96.851562 L 29.957031 96.847656 L 29.871094 96.839844 L 29.625 96.804688 L 29.546875 96.785156 L 29.472656 96.765625 L 29.402344 96.746094 L 29.332031 96.722656 L 29.265625 96.699219 L 29.199219 96.671875 L 29.136719 96.644531 L 29.074219 96.613281 L 29.015625 96.582031 L 28.960938 96.550781 L 28.851562 96.480469 L 28.804688 96.441406 L 28.753906 96.402344 L 28.710938 96.359375 L 28.664062 96.316406 L 28.625 96.273438 L 28.582031 96.226562 L 28.546875 96.179688 L 28.507812 96.132812 L 28.476562 96.082031 L 28.441406 96.03125 L 28.386719 95.929688 L 28.359375 95.875 L 28.289062 95.710938 L 28.273438 95.652344 L 28.253906 95.59375 L 28.222656 95.476562 L 28.210938 95.417969 L 28.992188 95.328125 L 29.003906 95.363281 L 29.011719 95.394531 L 29.035156 95.464844 L 29.050781 95.496094 L 29.0625 95.53125 L 29.078125 95.5625 L 29.09375 95.597656 L 29.109375 95.628906 L 29.125 95.664062 L 29.164062 95.726562 L 29.183594 95.753906 L 29.203125 95.785156 L 29.226562 95.816406 L 29.25 95.84375 L 29.277344 95.871094 L 29.300781 95.898438 L 29.328125 95.925781 L 29.359375 95.949219 L 29.386719 95.976562 L 29.421875 96 L 29.453125 96.023438 L 29.523438 96.0625 L 29.640625 96.121094 L 29.679688 96.136719 L 29.722656 96.152344 L 29.769531 96.167969 L 29.8125 96.179688 L 29.863281 96.191406 L 29.964844 96.207031 L 30.019531 96.214844 L 30.074219 96.21875 L 30.191406 96.226562 L 30.3125 96.226562 L 30.371094 96.222656 L 30.425781 96.21875 L 30.484375 96.210938 L 30.59375 96.195312 L 30.644531 96.183594 L 30.796875 96.136719 L 30.84375 96.117188 L 30.9375 96.070312 L 30.980469 96.046875 L 31.066406 95.992188 L 31.105469 95.960938 L 31.140625 95.929688 L 31.179688 95.894531 L 31.25 95.824219 L 31.3125 95.746094 L 31.339844 95.703125 L 31.371094 95.660156 L 31.394531 95.613281 L 31.421875 95.566406 L 31.445312 95.519531 L 31.484375 95.417969 L 31.503906 95.363281 L 31.519531 95.308594 L 31.53125 95.253906 L 31.546875 95.195312 L 31.554688 95.136719 L 31.570312 95.011719 L 31.574219 94.949219 L 31.578125 94.882812 L 31.578125 94.761719 L 31.570312 94.652344 L 31.566406 94.601562 L 31.554688 94.550781 L 31.546875 94.5 L 31.535156 94.449219 L 31.519531 94.398438 L 31.507812 94.351562 L 31.46875 94.257812 L 31.449219 94.214844 L 31.429688 94.167969 L 31.40625 94.128906 L 31.378906 94.085938 L 31.324219 94.007812 L 31.296875 93.972656 L 31.265625 93.9375 L 31.195312 93.867188 L 31.125 93.804688 L 31.085938 93.777344 L 31.042969 93.75 L 31.003906 93.722656 L 30.957031 93.699219 L 30.914062 93.675781 L 30.820312 93.636719 L 30.769531 93.617188 L 30.667969 93.585938 L 30.613281 93.574219 L 30.5625 93.5625 L 30.503906 93.554688 L 30.449219 93.550781 L 30.390625 93.542969 L 30.328125 93.542969 L 30.269531 93.539062 L 30.230469 93.539062 L 30.191406 93.542969 L 30.15625 93.542969 L 30.117188 93.546875 L 29.976562 93.5625 L 29.945312 93.566406 L 29.910156 93.574219 L 29.785156 93.605469 L 29.753906 93.617188 L 29.722656 93.625 L 29.695312 93.636719 L 29.664062 93.644531 L 29.636719 93.65625 L 29.605469 93.667969 L 29.578125 93.679688 L 29.550781 93.695312 L 29.527344 93.707031 L 29.5 93.722656 L 29.476562 93.734375 L 29.449219 93.75 L 29.402344 93.78125 L 29.375 93.796875 L 29.351562 93.8125 L 29.332031 93.828125 L 29.308594 93.84375 L 29.289062 93.859375 L 29.265625 93.875 L 29.246094 93.890625 L 29.222656 93.90625 L 29.203125 93.921875 L 29.183594 93.941406 L 29.144531 93.972656 L 28.386719 93.972656 L 28.589844 90.71875 L 32.03125 90.71875 L 32.03125 91.375 L 29.292969 91.375 L 29.175781 93.296875 L 29.21875 93.265625 L 29.265625 93.234375 L 29.308594 93.203125 L 29.460938 93.121094 L 29.515625 93.097656 L 29.574219 93.070312 L 29.691406 93.023438 L 29.753906 93.003906 L 29.820312 92.984375 L 29.890625 92.964844 L 29.957031 92.949219 L 30.105469 92.925781 L 30.183594 92.917969 L 30.261719 92.914062 L 30.34375 92.910156 L 30.515625 92.910156 L 30.605469 92.914062 L 30.691406 92.921875 L 30.773438 92.929688 L 30.855469 92.941406 L 30.9375 92.957031 L 31.015625 92.976562 L 31.089844 92.996094 L 31.167969 93.019531 L 31.238281 93.046875 L 31.3125 93.074219 L 31.378906 93.105469 L 31.511719 93.175781 L 31.574219 93.210938 L 31.75 93.339844 L 31.800781 93.386719 L 31.855469 93.4375 L 31.949219 93.539062 L 31.996094 93.597656 L 32.039062 93.652344 L 32.078125 93.710938 L 32.117188 93.773438 L 32.152344 93.835938 L 32.183594 93.898438 L 32.214844 93.964844 L 32.246094 94.035156 L 32.292969 94.175781 L 32.316406 94.25 L 32.347656 94.398438 L 32.371094 94.554688 L 32.378906 94.636719 L 32.382812 94.714844 Z M 32.382812 94.800781 "/>
<path fill-rule="nonzero" fill="rgb(30.196078%, 30.196078%, 30.196078%)" fill-opacity="1" d="M 18.511719 23.21875 L 18.511719 22.671875 L 18.605469 22.476562 L 18.652344 22.382812 L 18.703125 22.289062 L 18.753906 22.199219 L 18.808594 22.113281 L 18.867188 22.027344 L 18.921875 21.945312 L 18.984375 21.863281 L 19.046875 21.785156 L 19.171875 21.636719 L 19.304688 21.488281 L 19.371094 21.417969 L 19.4375 21.351562 L 19.503906 21.28125 L 19.574219 21.21875 L 19.640625 21.152344 L 19.78125 21.027344 L 19.851562 20.96875 L 19.917969 20.90625 L 20.058594 20.789062 L 20.125 20.730469 L 20.195312 20.675781 L 20.261719 20.617188 L 20.332031 20.5625 L 20.398438 20.511719 L 20.464844 20.457031 L 20.535156 20.402344 L 20.597656 20.351562 L 20.664062 20.296875 L 20.726562 20.242188 L 20.785156 20.191406 L 20.847656 20.136719 L 20.90625 20.085938 L 21.015625 19.976562 L 21.070312 19.925781 L 21.125 19.871094 L 21.21875 19.761719 L 21.265625 19.703125 L 21.351562 19.59375 L 21.386719 19.535156 L 21.425781 19.476562 L 21.460938 19.417969 L 21.523438 19.300781 L 21.546875 19.238281 L 21.570312 19.171875 L 21.589844 19.109375 L 21.605469 19.039062 L 21.617188 18.972656 L 21.625 18.902344 L 21.628906 18.832031 L 21.632812 18.757812 L 21.632812 18.707031 L 21.628906 18.65625 L 21.621094 18.5625 L 21.613281 18.515625 L 21.605469 18.472656 L 21.570312 18.34375 L 21.539062 18.265625 L 21.519531 18.230469 L 21.5 18.191406 L 21.480469 18.160156 L 21.460938 18.125 L 21.414062 18.0625 L 21.386719 18.03125 L 21.332031 17.976562 L 21.300781 17.949219 L 21.238281 17.902344 L 21.203125 17.878906 L 21.171875 17.859375 L 21.132812 17.839844 L 21.097656 17.824219 L 21.058594 17.804688 L 21.019531 17.792969 L 20.980469 17.777344 L 20.851562 17.742188 L 20.765625 17.726562 L 20.71875 17.71875 L 20.625 17.710938 L 20.578125 17.710938 L 20.527344 17.707031 L 20.480469 17.710938 L 20.4375 17.710938 L 20.390625 17.714844 L 20.347656 17.71875 L 20.300781 17.726562 L 20.257812 17.730469 L 20.214844 17.742188 L 20.171875 17.75 L 20.128906 17.761719 L 20.050781 17.785156 L 19.972656 17.816406 L 19.933594 17.835938 L 19.828125 17.894531 L 19.792969 17.917969 L 19.761719 17.941406 L 19.726562 17.964844 L 19.695312 17.992188 L 19.636719 18.050781 L 19.582031 18.113281 L 19.558594 18.144531 L 19.53125 18.179688 L 19.507812 18.214844 L 19.488281 18.25 L 19.464844 18.289062 L 19.445312 18.328125 L 19.414062 18.40625 L 19.382812 18.492188 L 19.371094 18.539062 L 19.363281 18.585938 L 19.351562 18.632812 L 19.34375 18.679688 L 19.335938 18.730469 L 18.546875 18.660156 L 18.554688 18.59375 L 18.566406 18.53125 L 18.578125 18.464844 L 18.609375 18.339844 L 18.628906 18.28125 L 18.652344 18.21875 L 18.699219 18.101562 L 18.726562 18.042969 L 18.820312 17.878906 L 18.859375 17.824219 L 18.894531 17.773438 L 18.9375 17.726562 L 18.976562 17.675781 L 19.023438 17.628906 L 19.117188 17.542969 L 19.167969 17.5 L 19.222656 17.457031 L 19.277344 17.417969 L 19.332031 17.382812 L 19.390625 17.347656 L 19.453125 17.3125 L 19.515625 17.28125 L 19.582031 17.25 L 19.648438 17.222656 L 19.714844 17.199219 L 19.785156 17.175781 L 19.859375 17.152344 L 19.9375 17.132812 L 20.015625 17.117188 L 20.09375 17.105469 L 20.175781 17.09375 L 20.347656 17.078125 L 20.4375 17.074219 L 20.617188 17.074219 L 20.789062 17.082031 L 20.871094 17.089844 L 21.035156 17.113281 L 21.109375 17.125 L 21.1875 17.140625 L 21.257812 17.160156 L 21.332031 17.179688 L 21.402344 17.203125 L 21.46875 17.226562 L 21.59375 17.28125 L 21.65625 17.3125 L 21.714844 17.347656 L 21.824219 17.417969 L 21.875 17.457031 L 21.925781 17.5 L 21.972656 17.542969 L 22.0625 17.632812 L 22.140625 17.734375 L 22.175781 17.785156 L 22.210938 17.839844 L 22.242188 17.898438 L 22.269531 17.957031 L 22.324219 18.082031 L 22.34375 18.144531 L 22.363281 18.210938 L 22.394531 18.351562 L 22.40625 18.421875 L 22.414062 18.496094 L 22.421875 18.574219 L 22.425781 18.652344 L 22.425781 18.792969 L 22.417969 18.910156 L 22.410156 18.972656 L 22.398438 19.027344 L 22.386719 19.085938 L 22.371094 19.144531 L 22.355469 19.199219 L 22.335938 19.257812 L 22.316406 19.3125 L 22.269531 19.421875 L 22.242188 19.472656 L 22.1875 19.582031 L 22.160156 19.632812 L 22.125 19.683594 L 22.09375 19.734375 L 22.023438 19.835938 L 21.984375 19.886719 L 21.949219 19.933594 L 21.910156 19.984375 L 21.867188 20.03125 L 21.828125 20.082031 L 21.742188 20.175781 L 21.554688 20.363281 L 21.503906 20.410156 L 21.457031 20.457031 L 21.40625 20.5 L 21.304688 20.59375 L 21.253906 20.636719 L 21.203125 20.683594 L 21.152344 20.726562 L 21.097656 20.773438 L 21.046875 20.816406 L 20.992188 20.859375 L 20.941406 20.902344 L 20.890625 20.949219 L 20.78125 21.035156 L 20.730469 21.078125 L 20.675781 21.125 L 20.625 21.167969 L 20.515625 21.253906 L 20.261719 21.46875 L 20.210938 21.515625 L 20.117188 21.601562 L 20.066406 21.644531 L 19.890625 21.820312 L 19.847656 21.867188 L 19.804688 21.910156 L 19.765625 21.957031 L 19.726562 22 L 19.6875 22.046875 L 19.652344 22.089844 L 19.613281 22.136719 L 19.582031 22.183594 L 19.546875 22.226562 L 19.515625 22.273438 L 19.488281 22.320312 L 19.457031 22.367188 L 19.433594 22.414062 L 19.40625 22.464844 L 19.382812 22.511719 L 19.363281 22.558594 L 22.519531 22.558594 L 22.519531 23.21875 Z M 18.511719 23.21875 "/>
<path fill-rule="nonzero" fill="rgb(30.196078%, 30.196078%, 30.196078%)" fill-opacity="1" d="M 27.515625 20.1875 L 27.511719 20.359375 L 27.507812 20.527344 L 27.5 20.6875 L 27.488281 20.84375 L 27.472656 20.992188 L 27.453125 21.136719 L 27.433594 21.273438 L 27.40625 21.40625 L 27.378906 21.535156 L 27.347656 21.65625 L 27.3125 21.773438 L 27.277344 21.886719 L 27.238281 21.992188 L 27.195312 22.097656 L 27.152344 22.195312 L 27.105469 22.289062 L 27.058594 22.378906 L 27.003906 22.464844 L 26.953125 22.542969 L 26.894531 22.621094 L 26.835938 22.691406 L 26.777344 22.757812 L 26.714844 22.820312 L 26.652344 22.878906 L 26.585938 22.933594 L 26.519531 22.984375 L 26.449219 23.03125 L 26.375 23.074219 L 26.226562 23.144531 L 26.148438 23.175781 L 26.070312 23.203125 L 25.988281 23.226562 L 25.90625 23.246094 L 25.742188 23.277344 L 25.660156 23.289062 L 25.574219 23.296875 L 25.488281 23.300781 L 25.398438 23.304688 L 25.226562 23.296875 L 25.140625 23.289062 L 25.054688 23.277344 L 24.890625 23.246094 L 24.808594 23.226562 L 24.730469 23.203125 L 24.652344 23.175781 L 24.574219 23.144531 L 24.425781 23.074219 L 24.355469 23.03125 L 24.285156 22.984375 L 24.21875 22.933594 L 24.152344 22.878906 L 24.089844 22.820312 L 24.027344 22.757812 L 23.96875 22.691406 L 23.910156 22.621094 L 23.800781 22.464844 L 23.753906 22.378906 L 23.703125 22.292969 L 23.660156 22.199219 L 23.617188 22.101562 L 23.574219 21.996094 L 23.535156 21.890625 L 23.5 21.777344 L 23.464844 21.660156 L 23.4375 21.539062 L 23.410156 21.410156 L 23.386719 21.277344 L 23.363281 21.140625 L 23.347656 20.996094 L 23.332031 20.84375 L 23.320312 20.6875 L 23.3125 20.527344 L 23.308594 20.359375 L 23.308594 20.007812 L 23.3125 19.835938 L 23.320312 19.667969 L 23.332031 19.507812 L 23.347656 19.351562 L 23.363281 19.203125 L 23.386719 19.0625 L 23.410156 18.925781 L 23.4375 18.796875 L 23.464844 18.675781 L 23.5 18.558594 L 23.535156 18.445312 L 23.574219 18.335938 L 23.617188 18.234375 L 23.660156 18.136719 L 23.707031 18.042969 L 23.753906 17.953125 L 23.804688 17.871094 L 23.859375 17.792969 L 23.914062 17.71875 L 23.972656 17.648438 L 24.03125 17.582031 L 24.15625 17.464844 L 24.222656 17.414062 L 24.289062 17.367188 L 24.359375 17.324219 L 24.433594 17.285156 L 24.507812 17.25 L 24.582031 17.21875 L 24.660156 17.191406 L 24.742188 17.167969 L 24.820312 17.144531 L 24.902344 17.125 L 24.988281 17.109375 L 25.160156 17.085938 L 25.246094 17.078125 L 25.335938 17.074219 L 25.511719 17.074219 L 25.597656 17.078125 L 25.679688 17.085938 L 25.765625 17.097656 L 25.847656 17.109375 L 25.925781 17.125 L 26.007812 17.144531 L 26.085938 17.167969 L 26.160156 17.191406 L 26.238281 17.21875 L 26.3125 17.25 L 26.386719 17.285156 L 26.457031 17.324219 L 26.527344 17.367188 L 26.597656 17.414062 L 26.660156 17.464844 L 26.726562 17.523438 L 26.785156 17.582031 L 26.847656 17.648438 L 26.902344 17.71875 L 26.960938 17.792969 L 27.011719 17.871094 L 27.0625 17.953125 L 27.113281 18.042969 L 27.15625 18.136719 L 27.199219 18.234375 L 27.242188 18.335938 L 27.28125 18.445312 L 27.316406 18.558594 L 27.351562 18.675781 L 27.382812 18.796875 L 27.410156 18.925781 L 27.433594 19.0625 L 27.457031 19.203125 L 27.472656 19.351562 L 27.488281 19.507812 L 27.5 19.667969 L 27.507812 19.835938 L 27.511719 20.007812 Z M 26.726562 20.1875 L 26.726562 20.046875 L 26.722656 19.910156 L 26.71875 19.777344 L 26.714844 19.648438 L 26.707031 19.527344 L 26.695312 19.410156 L 26.6875 19.296875 L 26.671875 19.191406 L 26.660156 19.085938 L 26.640625 18.988281 L 26.625 18.894531 L 26.605469 18.804688 L 26.582031 18.71875 L 26.558594 18.636719 L 26.535156 18.558594 L 26.507812 18.484375 L 26.480469 18.414062 L 26.453125 18.347656 L 26.421875 18.28125 L 26.386719 18.222656 L 26.355469 18.167969 L 26.320312 18.117188 L 26.28125 18.066406 L 26.203125 17.980469 L 26.160156 17.941406 L 26.117188 17.90625 L 26.023438 17.84375 L 25.976562 17.820312 L 25.925781 17.796875 L 25.878906 17.777344 L 25.824219 17.757812 L 25.773438 17.742188 L 25.664062 17.71875 L 25.605469 17.710938 L 25.488281 17.703125 L 25.425781 17.699219 L 25.363281 17.703125 L 25.296875 17.707031 L 25.238281 17.710938 L 25.175781 17.71875 L 25.117188 17.730469 L 25.0625 17.742188 L 25.007812 17.757812 L 24.953125 17.777344 L 24.902344 17.796875 L 24.851562 17.820312 L 24.800781 17.847656 L 24.753906 17.875 L 24.707031 17.90625 L 24.578125 18.023438 L 24.539062 18.070312 L 24.5 18.121094 L 24.464844 18.171875 L 24.394531 18.289062 L 24.367188 18.351562 L 24.335938 18.417969 L 24.308594 18.488281 L 24.28125 18.5625 L 24.257812 18.640625 L 24.234375 18.722656 L 24.214844 18.808594 L 24.195312 18.898438 L 24.175781 18.992188 L 24.160156 19.089844 L 24.144531 19.195312 L 24.132812 19.300781 L 24.121094 19.414062 L 24.109375 19.53125 L 24.101562 19.652344 L 24.097656 19.777344 L 24.09375 19.910156 L 24.089844 20.046875 L 24.089844 20.324219 L 24.09375 20.457031 L 24.097656 20.585938 L 24.101562 20.710938 L 24.109375 20.828125 L 24.121094 20.945312 L 24.132812 21.054688 L 24.144531 21.160156 L 24.160156 21.261719 L 24.175781 21.359375 L 24.195312 21.453125 L 24.214844 21.542969 L 24.261719 21.714844 L 24.285156 21.792969 L 24.3125 21.867188 L 24.339844 21.9375 L 24.371094 22.007812 L 24.402344 22.070312 L 24.433594 22.128906 L 24.46875 22.1875 L 24.503906 22.238281 L 24.542969 22.289062 L 24.582031 22.335938 L 24.664062 22.417969 L 24.710938 22.457031 L 24.753906 22.488281 L 24.800781 22.519531 L 24.851562 22.546875 L 24.898438 22.570312 L 24.949219 22.59375 L 25.113281 22.640625 L 25.167969 22.652344 L 25.285156 22.667969 L 25.347656 22.671875 L 25.46875 22.671875 L 25.527344 22.667969 L 25.644531 22.652344 L 25.699219 22.640625 L 25.753906 22.625 L 25.804688 22.609375 L 25.859375 22.59375 L 25.910156 22.570312 L 25.957031 22.546875 L 26.007812 22.519531 L 26.054688 22.488281 L 26.097656 22.457031 L 26.183594 22.378906 L 26.226562 22.335938 L 26.265625 22.289062 L 26.335938 22.1875 L 26.40625 22.070312 L 26.4375 22.007812 L 26.46875 21.9375 L 26.496094 21.867188 L 26.523438 21.792969 L 26.546875 21.714844 L 26.59375 21.542969 L 26.613281 21.453125 L 26.632812 21.359375 L 26.652344 21.261719 L 26.667969 21.160156 L 26.683594 21.054688 L 26.695312 20.945312 L 26.710938 20.710938 L 26.71875 20.585938 L 26.722656 20.457031 L 26.726562 20.324219 Z M 26.726562 20.1875 "/>
<path fill-rule="nonzero" fill="rgb(30.196078%, 30.196078%, 30.196078%)" fill-opacity="1" d="M 32.410156 20.1875 L 32.40625 20.359375 L 32.402344 20.527344 L 32.394531 20.6875 L 32.382812 20.84375 L 32.367188 20.992188 L 32.347656 21.136719 L 32.328125 21.273438 L 32.300781 21.40625 L 32.273438 21.535156 L 32.242188 21.65625 L 32.207031 21.773438 L 32.171875 21.886719 L 32.132812 21.992188 L 32.089844 22.097656 L 32.046875 22.195312 L 32 22.289062 L 31.953125 22.378906 L 31.898438 22.464844 L 31.847656 22.542969 L 31.789062 22.621094 L 31.730469 22.691406 L 31.671875 22.757812 L 31.609375 22.820312 L 31.546875 22.878906 L 31.480469 22.933594 L 31.414062 22.984375 L 31.34375 23.03125 L 31.269531 23.074219 L 31.121094 23.144531 L 31.042969 23.175781 L 30.960938 23.203125 L 30.882812 23.226562 L 30.800781 23.246094 L 30.636719 23.277344 L 30.550781 23.289062 L 30.46875 23.296875 L 30.382812 23.300781 L 30.292969 23.304688 L 30.121094 23.296875 L 30.035156 23.289062 L 29.949219 23.277344 L 29.785156 23.246094 L 29.703125 23.226562 L 29.625 23.203125 L 29.546875 23.175781 L 29.46875 23.144531 L 29.320312 23.074219 L 29.25 23.03125 L 29.179688 22.984375 L 29.113281 22.933594 L 29.046875 22.878906 L 28.980469 22.820312 L 28.921875 22.757812 L 28.859375 22.691406 L 28.804688 22.621094 L 28.695312 22.464844 L 28.644531 22.378906 L 28.597656 22.292969 L 28.554688 22.199219 L 28.511719 22.101562 L 28.46875 21.996094 L 28.429688 21.890625 L 28.394531 21.777344 L 28.359375 21.660156 L 28.332031 21.539062 L 28.304688 21.410156 L 28.28125 21.277344 L 28.257812 21.140625 L 28.242188 20.996094 L 28.226562 20.84375 L 28.214844 20.6875 L 28.207031 20.527344 L 28.203125 20.359375 L 28.203125 20.007812 L 28.207031 19.835938 L 28.214844 19.667969 L 28.226562 19.507812 L 28.242188 19.351562 L 28.257812 19.203125 L 28.28125 19.0625 L 28.304688 18.925781 L 28.332031 18.796875 L 28.359375 18.675781 L 28.394531 18.558594 L 28.429688 18.445312 L 28.46875 18.335938 L 28.511719 18.234375 L 28.554688 18.136719 L 28.601562 18.042969 L 28.648438 17.953125 L 28.699219 17.871094 L 28.753906 17.792969 L 28.808594 17.71875 L 28.867188 17.648438 L 28.925781 17.582031 L 29.050781 17.464844 L 29.117188 17.414062 L 29.183594 17.367188 L 29.253906 17.324219 L 29.328125 17.285156 L 29.402344 17.25 L 29.476562 17.21875 L 29.554688 17.191406 L 29.636719 17.167969 L 29.714844 17.144531 L 29.796875 17.125 L 29.882812 17.109375 L 29.964844 17.097656 L 30.054688 17.085938 L 30.140625 17.078125 L 30.230469 17.074219 L 30.40625 17.074219 L 30.492188 17.078125 L 30.574219 17.085938 L 30.660156 17.097656 L 30.738281 17.109375 L 30.820312 17.125 L 30.898438 17.144531 L 30.980469 17.167969 L 31.054688 17.191406 L 31.132812 17.21875 L 31.207031 17.25 L 31.28125 17.285156 L 31.351562 17.324219 L 31.421875 17.367188 L 31.488281 17.414062 L 31.554688 17.464844 L 31.621094 17.523438 L 31.679688 17.582031 L 31.742188 17.648438 L 31.796875 17.71875 L 31.855469 17.792969 L 31.90625 17.871094 L 31.957031 17.953125 L 32.007812 18.042969 L 32.050781 18.136719 L 32.09375 18.234375 L 32.136719 18.335938 L 32.175781 18.445312 L 32.210938 18.558594 L 32.246094 18.675781 L 32.277344 18.796875 L 32.304688 18.925781 L 32.328125 19.0625 L 32.351562 19.203125 L 32.367188 19.351562 L 32.382812 19.507812 L 32.394531 19.667969 L 32.402344 19.835938 L 32.40625 20.007812 Z M 31.621094 20.1875 L 31.621094 20.046875 L 31.617188 19.910156 L 31.613281 19.777344 L 31.609375 19.648438 L 31.601562 19.527344 L 31.589844 19.410156 L 31.578125 19.296875 L 31.566406 19.191406 L 31.550781 19.085938 L 31.535156 18.988281 L 31.519531 18.894531 L 31.5 18.804688 L 31.476562 18.71875 L 31.453125 18.636719 L 31.429688 18.558594 L 31.402344 18.484375 L 31.375 18.414062 L 31.347656 18.347656 L 31.316406 18.28125 L 31.28125 18.222656 L 31.25 18.167969 L 31.210938 18.117188 L 31.175781 18.066406 L 31.097656 17.980469 L 31.054688 17.941406 L 31.011719 17.90625 L 30.917969 17.84375 L 30.871094 17.820312 L 30.820312 17.796875 L 30.71875 17.757812 L 30.667969 17.742188 L 30.558594 17.71875 L 30.5 17.710938 L 30.382812 17.703125 L 30.320312 17.699219 L 30.253906 17.703125 L 30.191406 17.707031 L 30.132812 17.710938 L 30.070312 17.71875 L 30.011719 17.730469 L 29.957031 17.742188 L 29.902344 17.757812 L 29.847656 17.777344 L 29.796875 17.796875 L 29.746094 17.820312 L 29.695312 17.847656 L 29.648438 17.875 L 29.601562 17.90625 L 29.472656 18.023438 L 29.433594 18.070312 L 29.394531 18.121094 L 29.359375 18.171875 L 29.289062 18.289062 L 29.257812 18.351562 L 29.230469 18.417969 L 29.203125 18.488281 L 29.175781 18.5625 L 29.152344 18.640625 L 29.128906 18.722656 L 29.105469 18.808594 L 29.085938 18.898438 L 29.070312 18.992188 L 29.054688 19.089844 L 29.039062 19.195312 L 29.027344 19.300781 L 29.015625 19.414062 L 29.003906 19.53125 L 28.996094 19.652344 L 28.992188 19.777344 L 28.988281 19.910156 L 28.984375 20.046875 L 28.984375 20.324219 L 28.988281 20.457031 L 28.992188 20.585938 L 28.996094 20.710938 L 29.003906 20.828125 L 29.015625 20.945312 L 29.027344 21.054688 L 29.039062 21.160156 L 29.054688 21.261719 L 29.070312 21.359375 L 29.089844 21.453125 L 29.109375 21.542969 L 29.15625 21.714844 L 29.179688 21.792969 L 29.207031 21.867188 L 29.261719 22.007812 L 29.292969 22.070312 L 29.363281 22.1875 L 29.398438 22.238281 L 29.4375 22.289062 L 29.476562 22.335938 L 29.558594 22.417969 L 29.605469 22.457031 L 29.648438 22.488281 L 29.695312 22.519531 L 29.746094 22.546875 L 29.792969 22.570312 L 29.84375 22.59375 L 30.007812 22.640625 L 30.0625 22.652344 L 30.179688 22.667969 L 30.242188 22.671875 L 30.363281 22.671875 L 30.421875 22.667969 L 30.539062 22.652344 L 30.59375 22.640625 L 30.648438 22.625 L 30.699219 22.609375 L 30.753906 22.59375 L 30.804688 22.570312 L 30.851562 22.546875 L 30.902344 22.519531 L 30.949219 22.488281 L 30.992188 22.457031 L 31.078125 22.378906 L 31.117188 22.335938 L 31.15625 22.289062 L 31.195312 22.238281 L 31.230469 22.1875 L 31.300781 22.070312 L 31.332031 22.007812 L 31.359375 21.9375 L 31.390625 21.867188 L 31.417969 21.792969 L 31.441406 21.714844 L 31.488281 21.542969 L 31.507812 21.453125 L 31.527344 21.359375 L 31.546875 21.261719 L 31.5625 21.160156 L 31.574219 21.054688 L 31.589844 20.945312 L 31.605469 20.710938 L 31.613281 20.585938 L 31.617188 20.457031 L 31.621094 20.324219 Z M 31.621094 20.1875 "/>
<path fill="none" stroke-width="1.066978" stroke-linecap="butt" stroke-linejoin="round" stroke="rgb(20%, 20%, 20%)" stroke-opacity="1" stroke-miterlimit="10" d="M 34.945312 314.40625 L 37.683594 314.40625 "/>
<path fill="none" stroke-width="1.066978" stroke-linecap="butt" stroke-linejoin="round" stroke="rgb(20%, 20%, 20%)" stroke-opacity="1" stroke-miterlimit="10" d="M 34.945312 240.851562 L 37.683594 240.851562 "/>
<path fill="none" stroke-width="1.066978" stroke-linecap="butt" stroke-linejoin="round" stroke="rgb(20%, 20%, 20%)" stroke-opacity="1" stroke-miterlimit="10" d="M 34.945312 167.300781 L 37.683594 167.300781 "/>
<path fill="none" stroke-width="1.066978" stroke-linecap="butt" stroke-linejoin="round" stroke="rgb(20%, 20%, 20%)" stroke-opacity="1" stroke-miterlimit="10" d="M 34.945312 93.746094 L 37.683594 93.746094 "/>
<path fill="none" stroke-width="1.066978" stroke-linecap="butt" stroke-linejoin="round" stroke="rgb(20%, 20%, 20%)" stroke-opacity="1" stroke-miterlimit="10" d="M 34.945312 20.191406 L 37.683594 20.191406 "/>
<path fill="none" stroke-width="1.066978" stroke-linecap="butt" stroke-linejoin="round" stroke="rgb(20%, 20%, 20%)" stroke-opacity="1" stroke-miterlimit="10" d="M 124.089844 331.859375 L 124.089844 329.117188 "/>
<path fill="none" stroke-width="1.066978" stroke-linecap="butt" stroke-linejoin="round" stroke="rgb(20%, 20%, 20%)" stroke-opacity="1" stroke-miterlimit="10" d="M 268.101562 331.859375 L 268.101562 329.117188 "/>
<path fill="none" stroke-width="1.066978" stroke-linecap="butt" stroke-linejoin="round" stroke="rgb(20%, 20%, 20%)" stroke-opacity="1" stroke-miterlimit="10" d="M 412.113281 331.859375 L 412.113281 329.117188 "/>
<path fill-rule="nonzero" fill="rgb(30.196078%, 30.196078%, 30.196078%)" fill-opacity="1" d="M 126.171875 340.105469 L 125.476562 338.332031 L 122.71875 338.332031 L 122.023438 340.105469 L 121.171875 340.105469 L 123.644531 334.050781 L 124.574219 334.050781 L 127.007812 340.105469 Z M 124.457031 335.695312 L 124.441406 335.660156 L 124.429688 335.625 L 124.414062 335.59375 L 124.402344 335.558594 L 124.386719 335.523438 L 124.363281 335.453125 L 124.347656 335.417969 L 124.300781 335.277344 L 124.289062 335.246094 L 124.277344 335.210938 L 124.253906 335.148438 L 124.246094 335.117188 L 124.234375 335.085938 L 124.226562 335.058594 L 124.214844 335.03125 L 124.207031 335 L 124.195312 334.972656 L 124.1875 334.945312 L 124.179688 334.921875 L 124.171875 334.894531 L 124.164062 334.871094 L 124.15625 334.851562 L 124.148438 334.828125 L 124.132812 334.789062 L 124.128906 334.769531 L 124.121094 334.753906 L 124.113281 334.722656 L 124.105469 334.699219 L 124.105469 334.6875 L 124.101562 334.679688 L 124.101562 334.671875 L 124.097656 334.667969 L 124.097656 334.671875 L 124.09375 334.679688 L 124.09375 334.6875 L 124.082031 334.722656 L 124.078125 334.738281 L 124.070312 334.753906 L 124.066406 334.769531 L 124.058594 334.789062 L 124.054688 334.808594 L 124.046875 334.832031 L 124.039062 334.851562 L 124.023438 334.898438 L 124.015625 334.925781 L 124.007812 334.949219 L 124 334.976562 L 123.988281 335.003906 L 123.980469 335.035156 L 123.96875 335.0625 L 123.960938 335.09375 L 123.914062 335.21875 L 123.902344 335.253906 L 123.890625 335.285156 L 123.832031 335.460938 L 123.816406 335.496094 L 123.769531 335.636719 L 123.753906 335.667969 L 123.742188 335.703125 L 122.96875 337.695312 L 125.234375 337.695312 Z M 124.457031 335.695312 "/>
<path fill-rule="nonzero" fill="rgb(30.196078%, 30.196078%, 30.196078%)" fill-opacity="1" d="M 270.574219 338.398438 L 270.566406 338.578125 L 270.554688 338.660156 L 270.542969 338.746094 L 270.527344 338.824219 L 270.507812 338.902344 L 270.484375 338.976562 L 270.457031 339.046875 L 270.425781 339.117188 L 270.390625 339.183594 L 270.355469 339.246094 L 270.316406 339.308594 L 270.273438 339.367188 L 270.132812 339.53125 L 270.023438 339.625 L 269.964844 339.671875 L 269.90625 339.714844 L 269.84375 339.753906 L 269.78125 339.789062 L 269.648438 339.859375 L 269.578125 339.886719 L 269.503906 339.917969 L 269.429688 339.941406 L 269.355469 339.96875 L 269.199219 340.007812 L 269.117188 340.027344 L 268.953125 340.058594 L 268.78125 340.082031 L 268.699219 340.089844 L 268.609375 340.09375 L 268.523438 340.101562 L 268.4375 340.101562 L 268.347656 340.105469 L 265.890625 340.105469 L 265.890625 334.050781 L 268.1875 334.050781 L 268.382812 334.058594 L 268.472656 334.0625 L 268.566406 334.070312 L 268.652344 334.082031 L 268.742188 334.09375 L 268.824219 334.105469 L 268.988281 334.136719 L 269.066406 334.152344 L 269.140625 334.171875 L 269.214844 334.195312 L 269.285156 334.21875 L 269.351562 334.242188 L 269.417969 334.269531 L 269.480469 334.296875 L 269.542969 334.328125 L 269.601562 334.363281 L 269.710938 334.433594 L 269.761719 334.472656 L 269.8125 334.515625 L 269.898438 334.601562 L 269.941406 334.648438 L 270.011719 334.75 L 270.042969 334.800781 L 270.074219 334.859375 L 270.101562 334.914062 L 270.128906 334.972656 L 270.148438 335.03125 L 270.167969 335.09375 L 270.183594 335.160156 L 270.195312 335.226562 L 270.207031 335.296875 L 270.214844 335.367188 L 270.21875 335.441406 L 270.21875 335.621094 L 270.214844 335.667969 L 270.207031 335.71875 L 270.203125 335.765625 L 270.195312 335.8125 L 270.160156 335.953125 L 270.148438 335.996094 L 270.132812 336.039062 L 270.117188 336.085938 L 270.097656 336.125 L 270.058594 336.210938 L 269.988281 336.328125 L 269.933594 336.40625 L 269.871094 336.476562 L 269.839844 336.507812 L 269.808594 336.542969 L 269.769531 336.574219 L 269.734375 336.605469 L 269.695312 336.632812 L 269.65625 336.664062 L 269.570312 336.71875 L 269.484375 336.765625 L 269.4375 336.789062 L 269.386719 336.8125 L 269.339844 336.832031 L 269.289062 336.851562 L 269.125 336.898438 L 269.070312 336.910156 L 269.28125 336.945312 L 269.347656 336.957031 L 269.414062 336.976562 L 269.476562 336.992188 L 269.539062 337.011719 L 269.597656 337.03125 L 269.714844 337.078125 L 269.824219 337.132812 L 269.875 337.160156 L 269.925781 337.191406 L 270.019531 337.253906 L 270.148438 337.359375 L 270.1875 337.398438 L 270.257812 337.476562 L 270.292969 337.519531 L 270.324219 337.5625 L 270.351562 337.605469 L 270.40625 337.699219 L 270.429688 337.746094 L 270.453125 337.796875 L 270.492188 337.898438 L 270.507812 337.953125 L 270.523438 338.003906 L 270.539062 338.058594 L 270.546875 338.113281 L 270.558594 338.167969 L 270.5625 338.222656 L 270.570312 338.28125 L 270.570312 338.339844 Z M 269.394531 335.617188 L 269.390625 335.523438 L 269.382812 335.433594 L 269.367188 335.347656 L 269.34375 335.269531 L 269.3125 335.199219 L 269.273438 335.132812 L 269.230469 335.070312 L 269.179688 335.011719 L 269.125 334.960938 L 269.058594 334.917969 L 268.992188 334.878906 L 268.914062 334.84375 L 268.832031 334.808594 L 268.742188 334.78125 L 268.648438 334.761719 L 268.550781 334.742188 L 268.445312 334.726562 L 268.332031 334.714844 L 268.214844 334.710938 L 268.089844 334.707031 L 266.710938 334.707031 L 266.710938 336.625 L 268.089844 336.625 L 268.160156 336.621094 L 268.230469 336.621094 L 268.296875 336.617188 L 268.359375 336.613281 L 268.421875 336.605469 L 268.539062 336.589844 L 268.648438 336.566406 L 268.699219 336.554688 L 268.75 336.539062 L 268.796875 336.523438 L 268.839844 336.507812 L 268.925781 336.46875 L 268.964844 336.445312 L 269.003906 336.425781 L 269.039062 336.402344 L 269.070312 336.378906 L 269.132812 336.324219 L 269.1875 336.269531 L 269.214844 336.238281 L 269.238281 336.207031 L 269.257812 336.175781 L 269.296875 336.105469 L 269.328125 336.035156 L 269.339844 335.996094 L 269.351562 335.960938 L 269.363281 335.917969 L 269.378906 335.839844 L 269.382812 335.796875 L 269.390625 335.753906 L 269.394531 335.710938 Z M 269.742188 338.332031 L 269.742188 338.277344 L 269.734375 338.167969 L 269.726562 338.117188 L 269.714844 338.066406 L 269.691406 337.972656 L 269.675781 337.929688 L 269.636719 337.84375 L 269.589844 337.765625 L 269.566406 337.730469 L 269.539062 337.695312 L 269.507812 337.660156 L 269.445312 337.597656 L 269.410156 337.566406 L 269.375 337.539062 L 269.335938 337.511719 L 269.296875 337.488281 L 269.210938 337.441406 L 269.070312 337.382812 L 268.96875 337.351562 L 268.914062 337.335938 L 268.859375 337.324219 L 268.800781 337.3125 L 268.746094 337.300781 L 268.628906 337.285156 L 268.566406 337.277344 L 268.441406 337.269531 L 268.375 337.265625 L 266.710938 337.265625 L 266.710938 339.445312 L 268.425781 339.445312 L 268.488281 339.441406 L 268.605469 339.433594 L 268.660156 339.429688 L 268.71875 339.421875 L 268.828125 339.40625 L 268.878906 339.394531 L 268.933594 339.382812 L 268.984375 339.371094 L 269.03125 339.355469 L 269.082031 339.339844 L 269.125 339.324219 L 269.171875 339.304688 L 269.214844 339.285156 L 269.257812 339.261719 L 269.335938 339.214844 L 269.375 339.1875 L 269.410156 339.160156 L 269.445312 339.128906 L 269.476562 339.097656 L 269.507812 339.0625 L 269.5625 338.992188 L 269.589844 338.953125 L 269.613281 338.914062 L 269.636719 338.871094 L 269.65625 338.828125 L 269.675781 338.78125 L 269.691406 338.730469 L 269.703125 338.683594 L 269.726562 338.574219 L 269.734375 338.515625 L 269.742188 338.398438 Z M 269.742188 338.332031 "/>
<path fill-rule="nonzero" fill="rgb(30.196078%, 30.196078%, 30.196078%)" fill-opacity="1" d="M 412.339844 334.628906 L 412.136719 334.636719 L 412.039062 334.644531 L 411.945312 334.65625 L 411.851562 334.671875 L 411.761719 334.691406 L 411.589844 334.738281 L 411.503906 334.769531 L 411.425781 334.800781 L 411.347656 334.835938 L 411.269531 334.875 L 411.128906 334.960938 L 411.058594 335.011719 L 410.996094 335.0625 L 410.929688 335.113281 L 410.8125 335.230469 L 410.757812 335.292969 L 410.707031 335.355469 L 410.65625 335.425781 L 410.609375 335.492188 L 410.523438 335.640625 L 410.484375 335.71875 L 410.414062 335.882812 L 410.382812 335.96875 L 410.355469 336.054688 L 410.328125 336.148438 L 410.304688 336.238281 L 410.285156 336.332031 L 410.265625 336.429688 L 410.25 336.527344 L 410.238281 336.628906 L 410.230469 336.730469 L 410.222656 336.835938 L 410.21875 336.941406 L 410.214844 337.050781 L 410.222656 337.261719 L 410.238281 337.472656 L 410.253906 337.570312 L 410.269531 337.671875 L 410.289062 337.769531 L 410.308594 337.863281 L 410.363281 338.050781 L 410.394531 338.140625 L 410.429688 338.226562 L 410.464844 338.308594 L 410.503906 338.390625 L 410.542969 338.46875 L 410.589844 338.546875 L 410.632812 338.621094 L 410.734375 338.761719 L 410.789062 338.828125 L 410.84375 338.890625 L 410.964844 339.011719 L 411.03125 339.066406 L 411.097656 339.117188 L 411.167969 339.167969 L 411.238281 339.214844 L 411.3125 339.257812 L 411.386719 339.296875 L 411.46875 339.335938 L 411.546875 339.371094 L 411.71875 339.425781 L 411.804688 339.449219 L 411.894531 339.46875 L 411.988281 339.488281 L 412.082031 339.5 L 412.175781 339.507812 L 412.273438 339.511719 L 412.375 339.515625 L 412.445312 339.515625 L 412.578125 339.507812 L 412.710938 339.492188 L 412.773438 339.484375 L 412.835938 339.472656 L 412.894531 339.457031 L 412.957031 339.441406 L 413.015625 339.425781 L 413.070312 339.40625 L 413.128906 339.382812 L 413.183594 339.363281 L 413.238281 339.335938 L 413.289062 339.3125 L 413.34375 339.285156 L 413.394531 339.257812 L 413.441406 339.226562 L 413.492188 339.195312 L 413.539062 339.164062 L 413.585938 339.128906 L 413.628906 339.09375 L 413.675781 339.058594 L 413.804688 338.941406 L 413.960938 338.769531 L 413.996094 338.722656 L 414.03125 338.671875 L 414.066406 338.625 L 414.101562 338.574219 L 414.164062 338.472656 L 414.195312 338.417969 L 414.226562 338.367188 L 414.257812 338.3125 L 414.285156 338.257812 L 414.957031 338.589844 L 414.921875 338.660156 L 414.886719 338.726562 L 414.851562 338.789062 L 414.8125 338.855469 L 414.773438 338.917969 L 414.730469 338.980469 L 414.691406 339.042969 L 414.644531 339.105469 L 414.503906 339.28125 L 414.453125 339.335938 L 414.398438 339.390625 L 414.347656 339.445312 L 414.289062 339.496094 L 414.234375 339.546875 L 414.171875 339.59375 L 414.113281 339.640625 L 414.050781 339.6875 L 413.917969 339.773438 L 413.785156 339.851562 L 413.710938 339.886719 L 413.640625 339.921875 L 413.566406 339.957031 L 413.488281 339.988281 L 413.332031 340.042969 L 413.25 340.070312 L 413.167969 340.09375 L 412.996094 340.132812 L 412.90625 340.148438 L 412.726562 340.171875 L 412.628906 340.179688 L 412.535156 340.183594 L 412.433594 340.1875 L 412.335938 340.191406 L 412.191406 340.1875 L 412.046875 340.179688 L 411.910156 340.167969 L 411.777344 340.152344 L 411.644531 340.132812 L 411.394531 340.078125 L 411.273438 340.042969 L 411.160156 340.003906 L 411.046875 339.957031 L 410.9375 339.910156 L 410.832031 339.855469 L 410.730469 339.800781 L 410.632812 339.738281 L 410.539062 339.675781 L 410.449219 339.609375 L 410.363281 339.539062 L 410.277344 339.464844 L 410.199219 339.386719 L 410.121094 339.304688 L 410.050781 339.21875 L 409.980469 339.128906 L 409.917969 339.039062 L 409.855469 338.941406 L 409.796875 338.84375 L 409.695312 338.640625 L 409.648438 338.53125 L 409.605469 338.421875 L 409.566406 338.308594 L 409.53125 338.191406 L 409.5 338.074219 L 409.472656 337.953125 L 409.449219 337.832031 L 409.429688 337.707031 L 409.398438 337.449219 L 409.390625 337.316406 L 409.382812 337.050781 L 409.390625 336.769531 L 409.398438 336.636719 L 409.414062 336.503906 L 409.429688 336.375 L 409.453125 336.246094 L 409.476562 336.125 L 409.539062 335.882812 L 409.617188 335.65625 L 409.664062 335.546875 L 409.710938 335.441406 L 409.761719 335.339844 L 409.816406 335.238281 L 409.875 335.144531 L 409.9375 335.050781 L 410.003906 334.964844 L 410.074219 334.878906 L 410.148438 334.796875 L 410.226562 334.71875 L 410.304688 334.644531 L 410.390625 334.570312 L 410.476562 334.503906 L 410.664062 334.378906 L 410.761719 334.324219 L 410.863281 334.273438 L 410.96875 334.222656 L 411.074219 334.179688 L 411.1875 334.136719 L 411.300781 334.101562 L 411.417969 334.066406 L 411.539062 334.039062 L 411.664062 334.015625 L 411.792969 333.996094 L 411.921875 333.980469 L 412.054688 333.96875 L 412.191406 333.960938 L 412.332031 333.960938 L 412.519531 333.964844 L 412.703125 333.976562 L 412.882812 333.992188 L 413.054688 334.019531 L 413.21875 334.054688 L 413.375 334.09375 L 413.527344 334.144531 L 413.675781 334.203125 L 413.8125 334.265625 L 413.945312 334.335938 L 414.074219 334.417969 L 414.191406 334.503906 L 414.304688 334.597656 L 414.410156 334.699219 L 414.507812 334.808594 L 414.601562 334.921875 L 414.6875 335.046875 L 414.765625 335.175781 L 414.835938 335.3125 L 414.898438 335.460938 L 414.121094 335.71875 L 414.105469 335.675781 L 414.066406 335.589844 L 414.042969 335.546875 L 413.996094 335.46875 L 413.972656 335.425781 L 413.890625 335.308594 L 413.828125 335.230469 L 413.796875 335.195312 L 413.761719 335.15625 L 413.726562 335.121094 L 413.6875 335.089844 L 413.648438 335.054688 L 413.609375 335.023438 L 413.480469 334.929688 L 413.386719 334.875 L 413.335938 334.851562 L 413.285156 334.824219 L 413.234375 334.800781 L 413.179688 334.78125 L 413.125 334.757812 L 413.007812 334.71875 L 412.890625 334.6875 L 412.828125 334.675781 L 412.695312 334.652344 L 412.628906 334.644531 L 412.558594 334.636719 L 412.488281 334.632812 L 412.414062 334.628906 Z M 412.339844 334.628906 "/>
<path fill-rule="nonzero" fill="rgb(0%, 0%, 0%)" fill-opacity="1" d="M 269.65625 352.238281 L 268.089844 349.851562 L 266.519531 352.238281 L 265.476562 352.238281 L 267.542969 349.25 L 265.574219 346.425781 L 266.640625 346.425781 L 268.089844 348.6875 L 269.53125 346.425781 L 270.609375 346.425781 L 268.640625 349.242188 L 270.734375 352.238281 Z M 269.65625 352.238281 "/>
<path fill-rule="nonzero" fill="rgb(0%, 0%, 0%)" fill-opacity="1" d="M 13.046875 166.804688 L 13.152344 166.84375 L 13.253906 166.886719 L 13.351562 166.929688 L 13.453125 166.96875 L 13.640625 167.054688 L 13.730469 167.097656 L 13.820312 167.136719 L 14.078125 167.265625 L 14.15625 167.308594 L 14.234375 167.355469 L 14.3125 167.398438 L 14.382812 167.445312 L 14.457031 167.496094 L 14.523438 167.542969 L 14.589844 167.59375 L 14.652344 167.644531 L 14.710938 167.695312 L 14.828125 167.804688 L 14.878906 167.859375 L 14.929688 167.917969 L 14.976562 167.972656 L 15.019531 168.035156 L 15.0625 168.09375 L 15.101562 168.15625 L 15.136719 168.21875 L 15.167969 168.28125 L 15.199219 168.347656 L 15.226562 168.414062 L 15.273438 168.554688 L 15.304688 168.703125 L 15.316406 168.78125 L 15.324219 168.859375 L 15.328125 168.941406 L 15.328125 169.199219 L 15.324219 169.234375 L 15.324219 169.296875 L 15.320312 169.328125 L 15.320312 169.363281 L 15.300781 169.519531 L 15.296875 169.554688 L 15.292969 169.585938 L 15.277344 169.65625 L 15.269531 169.6875 L 14.546875 169.6875 L 14.550781 169.667969 L 14.550781 169.648438 L 14.558594 169.601562 L 14.558594 169.582031 L 14.5625 169.558594 L 14.5625 169.53125 L 14.566406 169.507812 L 14.566406 169.457031 L 14.570312 169.433594 L 14.570312 169.40625 L 14.574219 169.382812 L 14.574219 169.339844 L 14.578125 169.316406 L 14.578125 169.238281 L 14.574219 169.152344 L 14.566406 169.070312 L 14.550781 168.988281 L 14.527344 168.90625 L 14.5 168.828125 L 14.464844 168.75 L 14.421875 168.671875 L 14.375 168.597656 L 14.320312 168.523438 L 14.261719 168.449219 L 14.195312 168.375 L 14.121094 168.304688 L 14.039062 168.238281 L 13.949219 168.171875 L 13.851562 168.105469 L 13.746094 168.042969 L 13.632812 167.980469 L 13.511719 167.921875 L 13.386719 167.863281 L 13.25 167.808594 L 13.019531 167.71875 L 7.234375 170.023438 L 7.234375 168.992188 L 10.449219 167.765625 L 10.476562 167.753906 L 10.507812 167.742188 L 10.578125 167.71875 L 10.617188 167.707031 L 10.65625 167.691406 L 10.699219 167.679688 L 10.785156 167.648438 L 10.835938 167.632812 L 10.882812 167.613281 L 10.929688 167.597656 L 10.980469 167.582031 L 11.027344 167.5625 L 11.074219 167.546875 L 11.125 167.53125 L 11.171875 167.515625 L 11.222656 167.496094 L 11.316406 167.464844 L 11.367188 167.449219 L 11.414062 167.433594 L 11.457031 167.414062 L 11.503906 167.398438 L 11.546875 167.386719 L 11.632812 167.355469 L 11.671875 167.339844 L 11.714844 167.328125 L 11.753906 167.316406 L 11.789062 167.300781 L 11.824219 167.292969 L 11.855469 167.28125 L 11.910156 167.265625 L 11.933594 167.257812 L 11.953125 167.25 L 11.984375 167.242188 L 11.996094 167.238281 L 11.949219 167.226562 L 11.929688 167.21875 L 11.90625 167.214844 L 11.882812 167.203125 L 11.828125 167.1875 L 11.796875 167.175781 L 11.726562 167.152344 L 11.691406 167.136719 L 11.652344 167.125 L 11.617188 167.109375 L 11.578125 167.097656 L 11.539062 167.082031 L 11.496094 167.070312 L 11.457031 167.054688 L 11.113281 166.929688 L 11.066406 166.914062 L 11.023438 166.894531 L 10.808594 166.816406 L 10.769531 166.804688 L 10.730469 166.789062 L 10.695312 166.777344 L 10.65625 166.765625 L 10.621094 166.753906 L 10.589844 166.742188 L 10.554688 166.730469 L 7.234375 165.589844 L 7.234375 164.570312 Z M 13.046875 166.804688 "/>
</svg>
