<?xml version="1.0" encoding="UTF-8"?>
<svg xmlns="http://www.w3.org/2000/svg" xmlns:xlink="http://www.w3.org/1999/xlink" width="504" height="360" viewBox="0 0 504 360">
<defs>
<clipPath id="clip-0">
<path clip-rule="nonzero" d="M 37.683594 5.480469 L 498.519531 5.480469 L 498.519531 329.121094 L 37.683594 329.121094 Z M 37.683594 5.480469 "/>
</clipPath>
<clipPath id="clip-1">
<path clip-rule="nonzero" d="M 37.683594 269 L 498.519531 269 L 498.519531 270 L 37.683594 270 Z M 37.683594 269 "/>
</clipPath>
<clipPath id="clip-2">
<path clip-rule="nonzero" d="M 37.683594 180 L 498.519531 180 L 498.519531 181 L 37.683594 181 Z M 37.683594 180 "/>
</clipPath>
<clipPath id="clip-3">
<path clip-rule="nonzero" d="M 37.683594 90 L 498.519531 90 L 498.519531 92 L 37.683594 92 Z M 37.683594 90 "/>
</clipPath>
<clipPath id="clip-4">
<path clip-rule="nonzero" d="M 37.683594 313 L 498.519531 313 L 498.519531 315 L 37.683594 315 Z M 37.683594 313 "/>
</clipPath>
<clipPath id="clip-5">
<path clip-rule="nonzero" d="M 37.683594 224 L 498.519531 224 L 498.519531 226 L 37.683594 226 Z M 37.683594 224 "/>
</clipPath>
<clipPath id="clip-6">
<path clip-rule="nonzero" d="M 37.683594 135 L 498.519531 135 L 498.519531 137 L 37.683594 137 Z M 37.683594 135 "/>
</clipPath>
<clipPath id="clip-7">
<path clip-rule="nonzero" d="M 37.683594 45 L 498.519531 45 L 498.519531 47 L 37.683594 47 Z M 37.683594 45 "/>
</clipPath>
<clipPath id="clip-8">
<path clip-rule="nonzero" d="M 165 5.480469 L 167 5.480469 L 167 329.121094 L 165 329.121094 Z M 165 5.480469 "/>
</clipPath>
<clipPath id="clip-9">
<path clip-rule="nonzero" d="M 293 5.480469 L 295 5.480469 L 295 329.121094 L 293 329.121094 Z M 293 5.480469 "/>
</clipPath>
<clipPath id="clip-10">
<path clip-rule="nonzero" d="M 421 5.480469 L 423 5.480469 L 423 329.121094 L 421 329.121094 Z M 421 5.480469 "/>
</clipPath>
</defs>
<rect x="-50.4" y="-36" width="604.8" height="432" fill="rgb(100%, 100%, 100%)" fill-opacity="1"/>
<rect x="-50.4" y="-36" width="604.8" height="432" fill="rgb(100%, 100%, 100%)" fill-opacity="1"/>
<path fill="none" stroke-width="1.066978" stroke-linecap="round" stroke-linejoin="round" stroke="rgb(100%, 100%, 100%)" stroke-opacity="1" stroke-miterlimit="10" d="M 0 360 L 504 360 L 504 0 L 0 0 Z M 0 360 "/>
<g clip-path="url(#clip-0)">
<path fill-rule="nonzero" fill="rgb(92.156863%, 92.156863%, 92.156863%)" fill-opacity="1" d="M 37.683594 329.117188 L 498.519531 329.117188 L 498.519531 5.476562 L 37.683594 5.476562 Z M 37.683594 329.117188 "/>
</g>
<g clip-path="url(#clip-1)">
<path fill="none" stroke-width="0.533489" stroke-linecap="butt" stroke-linejoin="round" stroke="rgb(100%, 100%, 100%)" stroke-opacity="1" stroke-miterlimit="10" d="M 37.683594 269.695312 L 498.519531 269.695312 "/>
</g>
<g clip-path="url(#clip-2)">
<path fill="none" stroke-width="0.533489" stroke-linecap="butt" stroke-linejoin="round" stroke="rgb(100%, 100%, 100%)" stroke-opacity="1" stroke-miterlimit="10" d="M 37.683594 180.265625 L 498.519531 180.265625 "/>
</g>
<g clip-path="url(#clip-3)">
<path fill="none" stroke-width="0.533489" stroke-linecap="butt" stroke-linejoin="round" stroke="rgb(100%, 100%, 100%)" stroke-opacity="1" stroke-miterlimit="10" d="M 37.683594 90.839844 L 498.519531 90.839844 "/>
</g>
<g clip-path="url(#clip-4)">
<path fill="none" stroke-width="1.066978" stroke-linecap="butt" stroke-linejoin="round" stroke="rgb(100%, 100%, 100%)" stroke-opacity="1" stroke-miterlimit="10" d="M 37.683594 314.40625 L 498.519531 314.40625 "/>
</g>
<g clip-path="url(#clip-5)">
<path fill="none" stroke-width="1.066978" stroke-linecap="butt" stroke-linejoin="round" stroke="rgb(100%, 100%, 100%)" stroke-opacity="1" stroke-miterlimit="10" d="M 37.683594 224.980469 L 498.519531 224.980469 "/>
</g>
<g clip-path="url(#clip-6)">
<path fill="none" stroke-width="1.066978" stroke-linecap="butt" stroke-linejoin="round" stroke="rgb(100%, 100%, 100%)" stroke-opacity="1" stroke-miterlimit="10" d="M 37.683594 135.550781 L 498.519531 135.550781 "/>
</g>
<g clip-path="url(#clip-7)">
<path fill="none" stroke-width="1.066978" stroke-linecap="butt" stroke-linejoin="round" stroke="rgb(100%, 100%, 100%)" stroke-opacity="1" stroke-miterlimit="10" d="M 37.683594 46.125 L 498.519531 46.125 "/>
</g>
<g clip-path="url(#clip-8)">
<path fill="none" stroke-width="1.066978" stroke-linecap="butt" stroke-linejoin="round" stroke="rgb(100%, 100%, 100%)" stroke-opacity="1" stroke-miterlimit="10" d="M 165.695312 329.117188 L 165.695312 5.480469 "/>
</g>
<g clip-path="url(#clip-9)">
<path fill="none" stroke-width="1.066978" stroke-linecap="butt" stroke-linejoin="round" stroke="rgb(100%, 100%, 100%)" stroke-opacity="1" stroke-miterlimit="10" d="M 293.703125 329.117188 L 293.703125 5.480469 "/>
</g>
<g clip-path="url(#clip-10)">
<path fill="none" stroke-width="1.066978" stroke-linecap="butt" stroke-linejoin="round" stroke="rgb(100%, 100%, 100%)" stroke-opacity="1" stroke-miterlimit="10" d="M 421.714844 329.117188 L 421.714844 5.480469 "/>
</g>
<path fill="none" stroke-width="1.066978" stroke-linecap="butt" stroke-linejoin="round" stroke="rgb(0%, 0%, 0%)" stroke-opacity="1" stroke-miterlimit="10" d="M 149.691406 111.40625 L 181.695312 111.40625 "/>
<path fill="none" stroke-width="1.066978" stroke-linecap="butt" stroke-linejoin="round" stroke="rgb(0%, 0%, 0%)" stroke-opacity="1" stroke-miterlimit="10" d="M 165.695312 111.40625 L 165.695312 217.824219 "/>
<path fill="none" stroke-width="1.066978" stroke-linecap="butt" stroke-linejoin="round" stroke="rgb(0%, 0%, 0%)" stroke-opacity="1" stroke-miterlimit="10" d="M 149.691406 217.824219 L 181.695312 217.824219 "/>
<path fill="none" stroke-width="1.066978" stroke-linecap="butt" stroke-linejoin="round" stroke="rgb(0%, 0%, 0%)" stroke-opacity="1" stroke-miterlimit="10" d="M 277.703125 38.074219 L 309.707031 38.074219 "/>
<path fill="none" stroke-width="1.066978" stroke-linecap="butt" stroke-linejoin="round" stroke="rgb(0%, 0%, 0%)" stroke-opacity="1" stroke-miterlimit="10" d="M 293.703125 38.074219 L 293.703125 188.3125 "/>
<path fill="none" stroke-width="1.066978" stroke-linecap="butt" stroke-linejoin="round" stroke="rgb(0%, 0%, 0%)" stroke-opacity="1" stroke-miterlimit="10" d="M 277.703125 188.3125 L 309.707031 188.3125 "/>
<path fill="none" stroke-width="1.066978" stroke-linecap="butt" stroke-linejoin="round" stroke="rgb(0%, 0%, 0%)" stroke-opacity="1" stroke-miterlimit="10" d="M 405.714844 20.191406 L 437.714844 20.191406 "/>
<path fill="none" stroke-width="1.066978" stroke-linecap="butt" stroke-linejoin="round" stroke="rgb(0%, 0%, 0%)" stroke-opacity="1" stroke-miterlimit="10" d="M 421.714844 20.191406 L 421.714844 173.113281 "/>
<path fill="none" stroke-width="1.066978" stroke-linecap="butt" stroke-linejoin="round" stroke="rgb(0%, 0%, 0%)" stroke-opacity="1" stroke-miterlimit="10" d="M 405.714844 173.113281 L 437.714844 173.113281 "/>
<path fill="none" stroke-width="1.066978" stroke-linecap="butt" stroke-linejoin="round" stroke="rgb(0%, 0%, 0%)" stroke-opacity="1" stroke-miterlimit="10" d="M 165.695312 156.792969 L 165.695312 111.40625 "/>
<path fill="none" stroke-width="1.066978" stroke-linecap="butt" stroke-linejoin="round" stroke="rgb(0%, 0%, 0%)" stroke-opacity="1" stroke-miterlimit="10" d="M 165.695312 191.890625 L 165.695312 217.824219 "/>
<path fill-rule="nonzero" fill="rgb(11.764706%, 56.470588%, 100%)" fill-opacity="0.501961" stroke-width="1.066978" stroke-linecap="butt" stroke-linejoin="miter" stroke="rgb(0%, 0%, 0%)" stroke-opacity="1" stroke-miterlimit="10" d="M 117.691406 156.792969 L 117.691406 191.890625 L 213.699219 191.890625 L 213.699219 156.792969 Z M 117.691406 156.792969 "/>
<path fill="none" stroke-width="2.133957" stroke-linecap="butt" stroke-linejoin="miter" stroke="rgb(0%, 0%, 0%)" stroke-opacity="1" stroke-miterlimit="10" d="M 117.691406 178.925781 L 213.699219 178.925781 "/>
<path fill="none" stroke-width="1.066978" stroke-linecap="butt" stroke-linejoin="round" stroke="rgb(0%, 0%, 0%)" stroke-opacity="1" stroke-miterlimit="10" d="M 293.703125 83.90625 L 293.703125 38.074219 "/>
<path fill="none" stroke-width="1.066978" stroke-linecap="butt" stroke-linejoin="round" stroke="rgb(0%, 0%, 0%)" stroke-opacity="1" stroke-miterlimit="10" d="M 293.703125 155.226562 L 293.703125 188.3125 "/>
<path fill-rule="nonzero" fill="rgb(11.764706%, 56.470588%, 100%)" fill-opacity="0.501961" stroke-width="1.066978" stroke-linecap="butt" stroke-linejoin="miter" stroke="rgb(0%, 0%, 0%)" stroke-opacity="1" stroke-miterlimit="10" d="M 245.699219 83.90625 L 245.699219 155.226562 L 341.707031 155.226562 L 341.707031 83.90625 Z M 245.699219 83.90625 "/>
<path fill="none" stroke-width="2.133957" stroke-linecap="butt" stroke-linejoin="miter" stroke="rgb(0%, 0%, 0%)" stroke-opacity="1" stroke-miterlimit="10" d="M 245.699219 116.773438 L 341.707031 116.773438 "/>
<path fill="none" stroke-width="1.066978" stroke-linecap="butt" stroke-linejoin="round" stroke="rgb(0%, 0%, 0%)" stroke-opacity="1" stroke-miterlimit="10" d="M 421.714844 72.953125 L 421.714844 20.191406 "/>
<path fill="none" stroke-width="1.066978" stroke-linecap="butt" stroke-linejoin="round" stroke="rgb(0%, 0%, 0%)" stroke-opacity="1" stroke-miterlimit="10" d="M 421.714844 129.515625 L 421.714844 173.113281 "/>
<path fill-rule="nonzero" fill="rgb(11.764706%, 56.470588%, 100%)" fill-opacity="0.501961" stroke-width="1.066978" stroke-linecap="butt" stroke-linejoin="miter" stroke="rgb(0%, 0%, 0%)" stroke-opacity="1" stroke-miterlimit="10" d="M 373.710938 72.953125 L 373.710938 129.515625 L 469.71875 129.515625 L 469.71875 72.953125 Z M 373.710938 72.953125 "/>
<path fill="none" stroke-width="2.133957" stroke-linecap="butt" stroke-linejoin="miter" stroke="rgb(0%, 0%, 0%)" stroke-opacity="1" stroke-miterlimit="10" d="M 373.710938 92.625 L 469.71875 92.625 "/>
<path fill-rule="nonzero" fill="rgb(30.196078%, 30.196078%, 30.196078%)" fill-opacity="1" d="M 32.410156 314.40625 L 32.40625 314.578125 L 32.402344 314.742188 L 32.394531 314.902344 L 32.382812 315.058594 L 32.367188 315.207031 L 32.347656 315.351562 L 32.328125 315.492188 L 32.300781 315.625 L 32.273438 315.753906 L 32.242188 315.875 L 32.207031 315.992188 L 32.171875 316.101562 L 32.132812 316.210938 L 32.089844 316.3125 L 32.046875 316.410156 L 32 316.507812 L 31.953125 316.59375 L 31.898438 316.679688 L 31.847656 316.761719 L 31.730469 316.910156 L 31.671875 316.976562 L 31.609375 317.039062 L 31.546875 317.097656 L 31.480469 317.152344 L 31.414062 317.203125 L 31.34375 317.246094 L 31.269531 317.289062 L 31.195312 317.328125 L 31.121094 317.363281 L 31.042969 317.390625 L 30.960938 317.417969 L 30.882812 317.441406 L 30.800781 317.464844 L 30.636719 317.496094 L 30.550781 317.507812 L 30.46875 317.515625 L 30.382812 317.519531 L 30.207031 317.519531 L 30.121094 317.515625 L 30.035156 317.507812 L 29.949219 317.496094 L 29.785156 317.464844 L 29.703125 317.441406 L 29.625 317.417969 L 29.46875 317.363281 L 29.394531 317.328125 L 29.320312 317.289062 L 29.179688 317.203125 L 29.113281 317.152344 L 29.046875 317.097656 L 28.980469 317.039062 L 28.921875 316.976562 L 28.859375 316.910156 L 28.75 316.761719 L 28.695312 316.683594 L 28.644531 316.597656 L 28.597656 316.507812 L 28.554688 316.414062 L 28.511719 316.316406 L 28.46875 316.214844 L 28.429688 316.105469 L 28.394531 315.996094 L 28.359375 315.878906 L 28.332031 315.757812 L 28.304688 315.628906 L 28.28125 315.496094 L 28.257812 315.355469 L 28.242188 315.210938 L 28.226562 315.0625 L 28.214844 314.90625 L 28.207031 314.746094 L 28.203125 314.578125 L 28.203125 314.226562 L 28.207031 314.050781 L 28.214844 313.882812 L 28.226562 313.722656 L 28.242188 313.570312 L 28.257812 313.421875 L 28.28125 313.28125 L 28.304688 313.144531 L 28.332031 313.015625 L 28.359375 312.894531 L 28.394531 312.773438 L 28.429688 312.660156 L 28.46875 312.554688 L 28.511719 312.449219 L 28.554688 312.351562 L 28.601562 312.257812 L 28.648438 312.171875 L 28.699219 312.085938 L 28.753906 312.007812 L 28.808594 311.933594 L 28.925781 311.800781 L 28.988281 311.738281 L 29.050781 311.683594 L 29.183594 311.582031 L 29.253906 311.539062 L 29.328125 311.5 L 29.402344 311.464844 L 29.476562 311.4375 L 29.554688 311.410156 L 29.636719 311.382812 L 29.714844 311.363281 L 29.796875 311.34375 L 29.882812 311.328125 L 29.964844 311.3125 L 30.054688 311.304688 L 30.140625 311.296875 L 30.320312 311.289062 L 30.492188 311.296875 L 30.574219 311.304688 L 30.660156 311.3125 L 30.738281 311.328125 L 30.820312 311.34375 L 30.898438 311.363281 L 30.980469 311.382812 L 31.054688 311.410156 L 31.132812 311.4375 L 31.207031 311.464844 L 31.28125 311.5 L 31.351562 311.539062 L 31.421875 311.582031 L 31.554688 311.683594 L 31.621094 311.738281 L 31.679688 311.800781 L 31.742188 311.867188 L 31.796875 311.933594 L 31.855469 312.007812 L 31.90625 312.085938 L 32.007812 312.257812 L 32.050781 312.351562 L 32.09375 312.449219 L 32.136719 312.554688 L 32.175781 312.660156 L 32.210938 312.773438 L 32.246094 312.894531 L 32.277344 313.015625 L 32.304688 313.144531 L 32.328125 313.28125 L 32.351562 313.421875 L 32.367188 313.570312 L 32.382812 313.722656 L 32.394531 313.882812 L 32.402344 314.050781 L 32.40625 314.226562 Z M 31.621094 314.40625 L 31.621094 314.261719 L 31.617188 314.125 L 31.609375 313.867188 L 31.601562 313.746094 L 31.589844 313.628906 L 31.578125 313.515625 L 31.566406 313.40625 L 31.550781 313.304688 L 31.535156 313.207031 L 31.519531 313.113281 L 31.5 313.023438 L 31.476562 312.933594 L 31.453125 312.851562 L 31.429688 312.773438 L 31.402344 312.699219 L 31.375 312.628906 L 31.347656 312.5625 L 31.316406 312.5 L 31.28125 312.441406 L 31.25 312.386719 L 31.210938 312.332031 L 31.175781 312.285156 L 31.136719 312.238281 L 31.097656 312.195312 L 31.054688 312.15625 L 31.011719 312.121094 L 30.964844 312.089844 L 30.917969 312.0625 L 30.871094 312.039062 L 30.820312 312.015625 L 30.71875 311.976562 L 30.667969 311.960938 L 30.558594 311.9375 L 30.441406 311.921875 L 30.382812 311.917969 L 30.253906 311.917969 L 30.191406 311.921875 L 30.132812 311.929688 L 30.070312 311.9375 L 30.011719 311.949219 L 29.957031 311.960938 L 29.902344 311.976562 L 29.847656 311.996094 L 29.796875 312.015625 L 29.695312 312.0625 L 29.601562 312.125 L 29.558594 312.160156 L 29.515625 312.199219 L 29.472656 312.242188 L 29.394531 312.335938 L 29.324219 312.445312 L 29.289062 312.503906 L 29.257812 312.566406 L 29.230469 312.632812 L 29.203125 312.703125 L 29.175781 312.777344 L 29.152344 312.855469 L 29.105469 313.027344 L 29.085938 313.117188 L 29.070312 313.210938 L 29.054688 313.308594 L 29.039062 313.410156 L 29.015625 313.628906 L 29.003906 313.746094 L 28.996094 313.871094 L 28.992188 313.996094 L 28.988281 314.128906 L 28.984375 314.265625 L 28.984375 314.542969 L 28.988281 314.675781 L 28.992188 314.804688 L 28.996094 314.925781 L 29.003906 315.046875 L 29.027344 315.273438 L 29.039062 315.378906 L 29.054688 315.480469 L 29.070312 315.578125 L 29.089844 315.671875 L 29.109375 315.761719 L 29.132812 315.847656 L 29.15625 315.929688 L 29.179688 316.007812 L 29.207031 316.085938 L 29.234375 316.15625 L 29.261719 316.222656 L 29.292969 316.289062 L 29.328125 316.347656 L 29.398438 316.457031 L 29.4375 316.507812 L 29.476562 316.550781 L 29.519531 316.59375 L 29.558594 316.636719 L 29.605469 316.671875 L 29.648438 316.707031 L 29.695312 316.738281 L 29.746094 316.765625 L 29.792969 316.789062 L 29.84375 316.808594 L 29.898438 316.828125 L 30.007812 316.859375 L 30.0625 316.867188 L 30.121094 316.878906 L 30.179688 316.882812 L 30.304688 316.890625 L 30.480469 316.878906 L 30.539062 316.867188 L 30.59375 316.859375 L 30.648438 316.84375 L 30.699219 316.828125 L 30.753906 316.808594 L 30.804688 316.789062 L 30.851562 316.765625 L 30.902344 316.738281 L 30.949219 316.707031 L 31.035156 316.636719 L 31.078125 316.59375 L 31.15625 316.507812 L 31.195312 316.457031 L 31.265625 316.347656 L 31.300781 316.289062 L 31.332031 316.222656 L 31.359375 316.15625 L 31.390625 316.085938 L 31.417969 316.007812 L 31.441406 315.929688 L 31.464844 315.847656 L 31.488281 315.761719 L 31.507812 315.671875 L 31.527344 315.578125 L 31.546875 315.480469 L 31.5625 315.378906 L 31.574219 315.273438 L 31.589844 315.160156 L 31.597656 315.046875 L 31.613281 314.804688 L 31.617188 314.675781 L 31.621094 314.542969 Z M 31.621094 314.40625 "/>
<path fill-rule="nonzero" fill="rgb(30.196078%, 30.196078%, 30.196078%)" fill-opacity="1" d="M 18.738281 228.007812 L 18.738281 227.347656 L 20.28125 227.347656 L 20.28125 222.691406 L 18.917969 223.667969 L 18.917969 222.9375 L 20.347656 221.953125 L 21.058594 221.953125 L 21.058594 227.347656 L 22.535156 227.347656 L 22.535156 228.007812 Z M 18.738281 228.007812 "/>
<path fill-rule="nonzero" fill="rgb(30.196078%, 30.196078%, 30.196078%)" fill-opacity="1" d="M 27.515625 224.976562 L 27.511719 225.148438 L 27.507812 225.316406 L 27.5 225.476562 L 27.488281 225.632812 L 27.472656 225.78125 L 27.453125 225.925781 L 27.433594 226.0625 L 27.40625 226.195312 L 27.378906 226.324219 L 27.347656 226.445312 L 27.3125 226.5625 L 27.277344 226.675781 L 27.238281 226.78125 L 27.195312 226.886719 L 27.152344 226.984375 L 27.105469 227.078125 L 27.058594 227.167969 L 27.003906 227.253906 L 26.953125 227.332031 L 26.894531 227.410156 L 26.835938 227.480469 L 26.777344 227.546875 L 26.714844 227.609375 L 26.652344 227.667969 L 26.585938 227.722656 L 26.519531 227.773438 L 26.449219 227.820312 L 26.375 227.863281 L 26.226562 227.933594 L 26.148438 227.964844 L 26.070312 227.992188 L 25.988281 228.015625 L 25.824219 228.054688 L 25.660156 228.078125 L 25.574219 228.085938 L 25.488281 228.089844 L 25.398438 228.09375 L 25.226562 228.085938 L 25.140625 228.078125 L 25.054688 228.066406 L 24.972656 228.054688 L 24.808594 228.015625 L 24.730469 227.992188 L 24.652344 227.964844 L 24.574219 227.933594 L 24.425781 227.863281 L 24.355469 227.820312 L 24.285156 227.773438 L 24.21875 227.722656 L 24.152344 227.667969 L 24.089844 227.609375 L 24.027344 227.546875 L 23.96875 227.480469 L 23.910156 227.410156 L 23.855469 227.335938 L 23.800781 227.253906 L 23.753906 227.171875 L 23.703125 227.082031 L 23.660156 226.988281 L 23.617188 226.890625 L 23.574219 226.785156 L 23.535156 226.679688 L 23.464844 226.453125 L 23.410156 226.203125 L 23.363281 225.929688 L 23.347656 225.785156 L 23.332031 225.632812 L 23.320312 225.476562 L 23.3125 225.316406 L 23.308594 225.148438 L 23.308594 224.796875 L 23.3125 224.625 L 23.320312 224.457031 L 23.332031 224.296875 L 23.347656 224.140625 L 23.363281 223.992188 L 23.386719 223.851562 L 23.410156 223.714844 L 23.4375 223.585938 L 23.464844 223.464844 L 23.5 223.347656 L 23.535156 223.234375 L 23.574219 223.125 L 23.617188 223.023438 L 23.660156 222.925781 L 23.707031 222.832031 L 23.753906 222.742188 L 23.804688 222.660156 L 23.859375 222.582031 L 23.914062 222.507812 L 23.972656 222.4375 L 24.03125 222.371094 L 24.09375 222.3125 L 24.15625 222.257812 L 24.222656 222.203125 L 24.289062 222.15625 L 24.359375 222.113281 L 24.433594 222.074219 L 24.507812 222.039062 L 24.582031 222.007812 L 24.660156 221.980469 L 24.742188 221.957031 L 24.820312 221.933594 L 24.902344 221.914062 L 24.988281 221.898438 L 25.160156 221.875 L 25.246094 221.867188 L 25.335938 221.863281 L 25.511719 221.863281 L 25.597656 221.867188 L 25.679688 221.875 L 25.765625 221.886719 L 25.847656 221.898438 L 25.925781 221.914062 L 26.007812 221.933594 L 26.085938 221.957031 L 26.160156 221.980469 L 26.238281 222.007812 L 26.3125 222.039062 L 26.386719 222.074219 L 26.457031 222.113281 L 26.527344 222.15625 L 26.597656 222.203125 L 26.660156 222.257812 L 26.726562 222.3125 L 26.785156 222.371094 L 26.847656 222.4375 L 26.902344 222.507812 L 26.960938 222.582031 L 27.011719 222.660156 L 27.0625 222.742188 L 27.113281 222.832031 L 27.15625 222.925781 L 27.199219 223.023438 L 27.242188 223.125 L 27.28125 223.234375 L 27.316406 223.347656 L 27.351562 223.464844 L 27.382812 223.585938 L 27.410156 223.714844 L 27.433594 223.851562 L 27.457031 223.992188 L 27.472656 224.140625 L 27.488281 224.296875 L 27.5 224.457031 L 27.507812 224.625 L 27.511719 224.796875 Z M 26.726562 224.976562 L 26.726562 224.835938 L 26.722656 224.699219 L 26.71875 224.566406 L 26.714844 224.4375 L 26.707031 224.316406 L 26.695312 224.199219 L 26.6875 224.085938 L 26.671875 223.980469 L 26.660156 223.875 L 26.640625 223.777344 L 26.625 223.683594 L 26.605469 223.59375 L 26.582031 223.507812 L 26.558594 223.425781 L 26.535156 223.347656 L 26.507812 223.273438 L 26.480469 223.203125 L 26.453125 223.136719 L 26.421875 223.074219 L 26.386719 223.015625 L 26.355469 222.957031 L 26.320312 222.90625 L 26.28125 222.855469 L 26.203125 222.769531 L 26.160156 222.730469 L 26.117188 222.695312 L 26.070312 222.664062 L 25.976562 222.609375 L 25.925781 222.585938 L 25.878906 222.566406 L 25.824219 222.546875 L 25.773438 222.53125 L 25.664062 222.507812 L 25.605469 222.5 L 25.488281 222.492188 L 25.425781 222.488281 L 25.363281 222.492188 L 25.296875 222.496094 L 25.238281 222.5 L 25.175781 222.507812 L 25.117188 222.519531 L 25.0625 222.53125 L 25.007812 222.546875 L 24.953125 222.566406 L 24.902344 222.585938 L 24.851562 222.609375 L 24.800781 222.636719 L 24.753906 222.664062 L 24.707031 222.695312 L 24.621094 222.773438 L 24.578125 222.816406 L 24.539062 222.859375 L 24.5 222.910156 L 24.464844 222.960938 L 24.394531 223.078125 L 24.367188 223.140625 L 24.335938 223.207031 L 24.308594 223.277344 L 24.28125 223.351562 L 24.257812 223.429688 L 24.234375 223.511719 L 24.214844 223.597656 L 24.195312 223.6875 L 24.175781 223.78125 L 24.160156 223.878906 L 24.144531 223.984375 L 24.132812 224.089844 L 24.121094 224.203125 L 24.109375 224.320312 L 24.101562 224.441406 L 24.09375 224.699219 L 24.089844 224.835938 L 24.089844 225.113281 L 24.09375 225.246094 L 24.097656 225.375 L 24.101562 225.5 L 24.109375 225.617188 L 24.121094 225.734375 L 24.132812 225.84375 L 24.144531 225.949219 L 24.160156 226.054688 L 24.175781 226.152344 L 24.195312 226.246094 L 24.214844 226.335938 L 24.238281 226.421875 L 24.261719 226.503906 L 24.285156 226.582031 L 24.3125 226.65625 L 24.339844 226.726562 L 24.371094 226.796875 L 24.402344 226.859375 L 24.433594 226.917969 L 24.46875 226.976562 L 24.503906 227.027344 L 24.542969 227.078125 L 24.582031 227.125 L 24.664062 227.207031 L 24.710938 227.246094 L 24.753906 227.277344 L 24.800781 227.308594 L 24.851562 227.335938 L 24.898438 227.359375 L 24.949219 227.382812 L 25.003906 227.398438 L 25.058594 227.417969 L 25.167969 227.441406 L 25.285156 227.457031 L 25.347656 227.460938 L 25.46875 227.460938 L 25.527344 227.457031 L 25.644531 227.441406 L 25.753906 227.417969 L 25.804688 227.398438 L 25.859375 227.382812 L 25.910156 227.359375 L 25.957031 227.335938 L 26.007812 227.308594 L 26.054688 227.277344 L 26.097656 227.246094 L 26.183594 227.167969 L 26.226562 227.125 L 26.265625 227.078125 L 26.335938 226.976562 L 26.40625 226.859375 L 26.4375 226.796875 L 26.46875 226.726562 L 26.496094 226.65625 L 26.523438 226.582031 L 26.546875 226.503906 L 26.570312 226.421875 L 26.59375 226.335938 L 26.613281 226.246094 L 26.632812 226.152344 L 26.652344 226.054688 L 26.683594 225.84375 L 26.695312 225.734375 L 26.710938 225.5 L 26.71875 225.375 L 26.722656 225.246094 L 26.726562 225.113281 Z M 26.726562 224.976562 "/>
<path fill-rule="nonzero" fill="rgb(30.196078%, 30.196078%, 30.196078%)" fill-opacity="1" d="M 32.410156 224.976562 L 32.40625 225.148438 L 32.402344 225.316406 L 32.394531 225.476562 L 32.382812 225.632812 L 32.367188 225.78125 L 32.347656 225.925781 L 32.328125 226.0625 L 32.300781 226.195312 L 32.273438 226.324219 L 32.242188 226.445312 L 32.207031 226.5625 L 32.171875 226.675781 L 32.132812 226.78125 L 32.089844 226.886719 L 32.046875 226.984375 L 32 227.078125 L 31.953125 227.167969 L 31.898438 227.253906 L 31.847656 227.332031 L 31.789062 227.410156 L 31.730469 227.480469 L 31.671875 227.546875 L 31.609375 227.609375 L 31.546875 227.667969 L 31.480469 227.722656 L 31.414062 227.773438 L 31.34375 227.820312 L 31.269531 227.863281 L 31.121094 227.933594 L 31.042969 227.964844 L 30.960938 227.992188 L 30.882812 228.015625 L 30.71875 228.054688 L 30.636719 228.066406 L 30.550781 228.078125 L 30.46875 228.085938 L 30.382812 228.089844 L 30.292969 228.09375 L 30.121094 228.085938 L 30.035156 228.078125 L 29.949219 228.066406 L 29.867188 228.054688 L 29.703125 228.015625 L 29.625 227.992188 L 29.546875 227.964844 L 29.46875 227.933594 L 29.320312 227.863281 L 29.25 227.820312 L 29.179688 227.773438 L 29.113281 227.722656 L 29.046875 227.667969 L 28.980469 227.609375 L 28.921875 227.546875 L 28.859375 227.480469 L 28.804688 227.410156 L 28.75 227.335938 L 28.695312 227.253906 L 28.644531 227.171875 L 28.597656 227.082031 L 28.554688 226.988281 L 28.511719 226.890625 L 28.46875 226.785156 L 28.429688 226.679688 L 28.359375 226.453125 L 28.304688 226.203125 L 28.257812 225.929688 L 28.242188 225.785156 L 28.226562 225.632812 L 28.214844 225.476562 L 28.207031 225.316406 L 28.203125 225.148438 L 28.203125 224.796875 L 28.207031 224.625 L 28.214844 224.457031 L 28.226562 224.296875 L 28.242188 224.140625 L 28.257812 223.992188 L 28.28125 223.851562 L 28.304688 223.714844 L 28.332031 223.585938 L 28.359375 223.464844 L 28.394531 223.347656 L 28.429688 223.234375 L 28.46875 223.125 L 28.511719 223.023438 L 28.554688 222.925781 L 28.601562 222.832031 L 28.648438 222.742188 L 28.699219 222.660156 L 28.753906 222.582031 L 28.808594 222.507812 L 28.867188 222.4375 L 28.925781 222.371094 L 28.988281 222.3125 L 29.050781 222.257812 L 29.117188 222.203125 L 29.183594 222.15625 L 29.253906 222.113281 L 29.328125 222.074219 L 29.402344 222.039062 L 29.476562 222.007812 L 29.554688 221.980469 L 29.636719 221.957031 L 29.714844 221.933594 L 29.796875 221.914062 L 29.882812 221.898438 L 29.964844 221.886719 L 30.054688 221.875 L 30.140625 221.867188 L 30.230469 221.863281 L 30.40625 221.863281 L 30.492188 221.867188 L 30.574219 221.875 L 30.660156 221.886719 L 30.738281 221.898438 L 30.820312 221.914062 L 30.898438 221.933594 L 30.980469 221.957031 L 31.054688 221.980469 L 31.132812 222.007812 L 31.207031 222.039062 L 31.28125 222.074219 L 31.351562 222.113281 L 31.421875 222.15625 L 31.488281 222.203125 L 31.621094 222.3125 L 31.679688 222.371094 L 31.742188 222.4375 L 31.796875 222.507812 L 31.855469 222.582031 L 31.90625 222.660156 L 31.957031 222.742188 L 32.007812 222.832031 L 32.050781 222.925781 L 32.09375 223.023438 L 32.136719 223.125 L 32.175781 223.234375 L 32.210938 223.347656 L 32.246094 223.464844 L 32.277344 223.585938 L 32.304688 223.714844 L 32.328125 223.851562 L 32.351562 223.992188 L 32.367188 224.140625 L 32.382812 224.296875 L 32.394531 224.457031 L 32.402344 224.625 L 32.40625 224.796875 Z M 31.621094 224.976562 L 31.621094 224.835938 L 31.617188 224.699219 L 31.613281 224.566406 L 31.609375 224.4375 L 31.601562 224.316406 L 31.589844 224.199219 L 31.578125 224.085938 L 31.566406 223.980469 L 31.550781 223.875 L 31.535156 223.777344 L 31.519531 223.683594 L 31.5 223.59375 L 31.476562 223.507812 L 31.453125 223.425781 L 31.429688 223.347656 L 31.402344 223.273438 L 31.375 223.203125 L 31.347656 223.136719 L 31.316406 223.074219 L 31.28125 223.015625 L 31.25 222.957031 L 31.210938 222.90625 L 31.175781 222.855469 L 31.097656 222.769531 L 31.054688 222.730469 L 31.011719 222.695312 L 30.964844 222.664062 L 30.871094 222.609375 L 30.820312 222.585938 L 30.71875 222.546875 L 30.667969 222.53125 L 30.558594 222.507812 L 30.5 222.5 L 30.382812 222.492188 L 30.320312 222.488281 L 30.253906 222.492188 L 30.191406 222.496094 L 30.132812 222.5 L 30.070312 222.507812 L 30.011719 222.519531 L 29.957031 222.53125 L 29.902344 222.546875 L 29.847656 222.566406 L 29.796875 222.585938 L 29.746094 222.609375 L 29.695312 222.636719 L 29.648438 222.664062 L 29.601562 222.695312 L 29.515625 222.773438 L 29.472656 222.816406 L 29.433594 222.859375 L 29.394531 222.910156 L 29.359375 222.960938 L 29.289062 223.078125 L 29.257812 223.140625 L 29.230469 223.207031 L 29.203125 223.277344 L 29.175781 223.351562 L 29.152344 223.429688 L 29.128906 223.511719 L 29.105469 223.597656 L 29.085938 223.6875 L 29.070312 223.78125 L 29.054688 223.878906 L 29.039062 223.984375 L 29.027344 224.089844 L 29.015625 224.203125 L 29.003906 224.320312 L 28.996094 224.441406 L 28.988281 224.699219 L 28.984375 224.835938 L 28.984375 225.113281 L 28.988281 225.246094 L 28.992188 225.375 L 28.996094 225.5 L 29.003906 225.617188 L 29.015625 225.734375 L 29.027344 225.84375 L 29.039062 225.949219 L 29.054688 226.054688 L 29.070312 226.152344 L 29.089844 226.246094 L 29.109375 226.335938 L 29.132812 226.421875 L 29.15625 226.503906 L 29.179688 226.582031 L 29.207031 226.65625 L 29.261719 226.796875 L 29.292969 226.859375 L 29.363281 226.976562 L 29.398438 227.027344 L 29.4375 227.078125 L 29.476562 227.125 L 29.558594 227.207031 L 29.605469 227.246094 L 29.648438 227.277344 L 29.695312 227.308594 L 29.746094 227.335938 L 29.792969 227.359375 L 29.84375 227.382812 L 29.898438 227.398438 L 29.953125 227.417969 L 30.0625 227.441406 L 30.179688 227.457031 L 30.242188 227.460938 L 30.363281 227.460938 L 30.421875 227.457031 L 30.539062 227.441406 L 30.648438 227.417969 L 30.699219 227.398438 L 30.753906 227.382812 L 30.804688 227.359375 L 30.851562 227.335938 L 30.902344 227.308594 L 30.949219 227.277344 L 30.992188 227.246094 L 31.078125 227.167969 L 31.117188 227.125 L 31.15625 227.078125 L 31.195312 227.027344 L 31.230469 226.976562 L 31.300781 226.859375 L 31.332031 226.796875 L 31.359375 226.726562 L 31.390625 226.65625 L 31.417969 226.582031 L 31.441406 226.503906 L 31.464844 226.421875 L 31.488281 226.335938 L 31.507812 226.246094 L 31.527344 226.152344 L 31.546875 226.054688 L 31.5625 225.949219 L 31.574219 225.84375 L 31.589844 225.734375 L 31.605469 225.5 L 31.613281 225.375 L 31.617188 225.246094 L 31.621094 225.113281 Z M 31.621094 224.976562 "/>
<path fill-rule="nonzero" fill="rgb(30.196078%, 30.196078%, 30.196078%)" fill-opacity="1" d="M 18.511719 138.578125 L 18.511719 138.035156 L 18.558594 137.933594 L 18.605469 137.835938 L 18.652344 137.742188 L 18.753906 137.5625 L 18.808594 137.472656 L 18.867188 137.386719 L 18.921875 137.304688 L 19.109375 137.070312 L 19.171875 136.996094 L 19.238281 136.921875 L 19.4375 136.710938 L 19.503906 136.644531 L 19.574219 136.578125 L 19.640625 136.515625 L 19.851562 136.328125 L 19.917969 136.269531 L 19.988281 136.207031 L 20.058594 136.148438 L 20.125 136.09375 L 20.195312 136.035156 L 20.261719 135.980469 L 20.332031 135.925781 L 20.398438 135.871094 L 20.464844 135.820312 L 20.535156 135.765625 L 20.597656 135.710938 L 20.664062 135.660156 L 20.726562 135.605469 L 20.785156 135.550781 L 20.847656 135.5 L 20.90625 135.445312 L 20.960938 135.394531 L 21.125 135.230469 L 21.265625 135.066406 L 21.308594 135.011719 L 21.351562 134.953125 L 21.386719 134.898438 L 21.425781 134.839844 L 21.460938 134.78125 L 21.492188 134.722656 L 21.523438 134.660156 L 21.570312 134.535156 L 21.589844 134.46875 L 21.605469 134.402344 L 21.617188 134.332031 L 21.625 134.265625 L 21.632812 134.117188 L 21.632812 134.066406 L 21.628906 134.019531 L 21.625 133.96875 L 21.621094 133.921875 L 21.613281 133.878906 L 21.605469 133.832031 L 21.582031 133.746094 L 21.570312 133.707031 L 21.539062 133.628906 L 21.519531 133.589844 L 21.460938 133.484375 L 21.414062 133.421875 L 21.386719 133.394531 L 21.359375 133.363281 L 21.332031 133.335938 L 21.300781 133.3125 L 21.269531 133.285156 L 21.238281 133.261719 L 21.203125 133.242188 L 21.171875 133.222656 L 21.132812 133.203125 L 21.097656 133.183594 L 21.019531 133.152344 L 20.980469 133.140625 L 20.9375 133.125 L 20.894531 133.113281 L 20.851562 133.105469 L 20.808594 133.09375 L 20.765625 133.085938 L 20.578125 133.070312 L 20.480469 133.070312 L 20.4375 133.074219 L 20.390625 133.078125 L 20.347656 133.082031 L 20.300781 133.085938 L 20.214844 133.101562 L 20.171875 133.113281 L 20.128906 133.121094 L 20.089844 133.136719 L 20.050781 133.148438 L 19.933594 133.195312 L 19.863281 133.234375 L 19.792969 133.28125 L 19.761719 133.304688 L 19.726562 133.328125 L 19.695312 133.355469 L 19.667969 133.382812 L 19.636719 133.410156 L 19.582031 133.472656 L 19.558594 133.507812 L 19.53125 133.539062 L 19.507812 133.574219 L 19.488281 133.613281 L 19.464844 133.652344 L 19.445312 133.6875 L 19.429688 133.730469 L 19.414062 133.769531 L 19.382812 133.855469 L 19.371094 133.902344 L 19.363281 133.945312 L 19.351562 133.996094 L 19.34375 134.042969 L 19.335938 134.09375 L 18.546875 134.019531 L 18.554688 133.957031 L 18.566406 133.890625 L 18.578125 133.828125 L 18.609375 133.703125 L 18.628906 133.640625 L 18.699219 133.464844 L 18.726562 133.40625 L 18.757812 133.347656 L 18.820312 133.238281 L 18.859375 133.1875 L 18.894531 133.136719 L 18.9375 133.085938 L 18.976562 133.039062 L 19.070312 132.945312 L 19.117188 132.902344 L 19.167969 132.859375 L 19.332031 132.742188 L 19.390625 132.707031 L 19.453125 132.675781 L 19.515625 132.640625 L 19.714844 132.558594 L 19.785156 132.535156 L 19.859375 132.515625 L 19.9375 132.496094 L 20.09375 132.464844 L 20.175781 132.453125 L 20.261719 132.445312 L 20.347656 132.441406 L 20.527344 132.433594 L 20.617188 132.4375 L 20.703125 132.4375 L 20.789062 132.445312 L 20.953125 132.460938 L 21.035156 132.472656 L 21.109375 132.488281 L 21.1875 132.503906 L 21.257812 132.523438 L 21.332031 132.542969 L 21.402344 132.566406 L 21.46875 132.589844 L 21.59375 132.644531 L 21.65625 132.675781 L 21.714844 132.707031 L 21.769531 132.742188 L 21.824219 132.78125 L 21.925781 132.859375 L 21.972656 132.902344 L 22.015625 132.949219 L 22.0625 132.996094 L 22.101562 133.042969 L 22.140625 133.09375 L 22.210938 133.203125 L 22.242188 133.261719 L 22.296875 133.378906 L 22.324219 133.441406 L 22.363281 133.574219 L 22.394531 133.714844 L 22.40625 133.785156 L 22.421875 133.933594 L 22.425781 134.011719 L 22.425781 134.152344 L 22.421875 134.214844 L 22.417969 134.273438 L 22.410156 134.332031 L 22.386719 134.449219 L 22.371094 134.503906 L 22.355469 134.5625 L 22.316406 134.671875 L 22.269531 134.78125 L 22.214844 134.890625 L 22.160156 134.992188 L 22.125 135.046875 L 22.09375 135.097656 L 22.023438 135.199219 L 21.984375 135.246094 L 21.949219 135.296875 L 21.910156 135.34375 L 21.867188 135.394531 L 21.828125 135.441406 L 21.785156 135.492188 L 21.742188 135.539062 L 21.554688 135.726562 L 21.503906 135.769531 L 21.457031 135.816406 L 21.355469 135.910156 L 21.304688 135.953125 L 21.253906 136 L 21.203125 136.042969 L 21.152344 136.089844 L 21.097656 136.132812 L 21.046875 136.179688 L 20.992188 136.222656 L 20.890625 136.308594 L 20.835938 136.351562 L 20.78125 136.398438 L 20.730469 136.441406 L 20.675781 136.484375 L 20.625 136.527344 L 20.570312 136.574219 L 20.515625 136.617188 L 20.210938 136.875 L 20.117188 136.960938 L 20.066406 137.007812 L 20.023438 137.050781 L 19.976562 137.09375 L 19.933594 137.140625 L 19.847656 137.226562 L 19.804688 137.273438 L 19.765625 137.316406 L 19.726562 137.363281 L 19.6875 137.40625 L 19.652344 137.453125 L 19.613281 137.5 L 19.582031 137.542969 L 19.546875 137.589844 L 19.515625 137.636719 L 19.488281 137.683594 L 19.457031 137.730469 L 19.433594 137.777344 L 19.40625 137.824219 L 19.382812 137.871094 L 19.363281 137.921875 L 22.519531 137.921875 L 22.519531 138.578125 Z M 18.511719 138.578125 "/>
<path fill-rule="nonzero" fill="rgb(30.196078%, 30.196078%, 30.196078%)" fill-opacity="1" d="M 27.515625 135.550781 L 27.511719 135.722656 L 27.507812 135.886719 L 27.5 136.046875 L 27.488281 136.203125 L 27.472656 136.351562 L 27.453125 136.496094 L 27.433594 136.636719 L 27.40625 136.769531 L 27.378906 136.898438 L 27.347656 137.019531 L 27.3125 137.136719 L 27.277344 137.246094 L 27.238281 137.355469 L 27.195312 137.457031 L 27.152344 137.554688 L 27.105469 137.652344 L 27.058594 137.738281 L 27.003906 137.824219 L 26.953125 137.90625 L 26.835938 138.054688 L 26.777344 138.121094 L 26.714844 138.183594 L 26.652344 138.242188 L 26.585938 138.296875 L 26.519531 138.347656 L 26.449219 138.390625 L 26.375 138.433594 L 26.300781 138.472656 L 26.226562 138.507812 L 26.070312 138.5625 L 25.90625 138.609375 L 25.742188 138.640625 L 25.660156 138.652344 L 25.574219 138.660156 L 25.488281 138.664062 L 25.3125 138.664062 L 25.226562 138.660156 L 25.140625 138.652344 L 25.054688 138.640625 L 24.890625 138.609375 L 24.808594 138.585938 L 24.730469 138.5625 L 24.574219 138.507812 L 24.5 138.472656 L 24.425781 138.433594 L 24.285156 138.347656 L 24.21875 138.296875 L 24.152344 138.242188 L 24.089844 138.183594 L 24.027344 138.121094 L 23.96875 138.054688 L 23.910156 137.980469 L 23.855469 137.90625 L 23.800781 137.828125 L 23.753906 137.742188 L 23.703125 137.652344 L 23.660156 137.558594 L 23.617188 137.460938 L 23.574219 137.359375 L 23.535156 137.25 L 23.5 137.140625 L 23.464844 137.023438 L 23.4375 136.902344 L 23.410156 136.773438 L 23.386719 136.640625 L 23.363281 136.5 L 23.347656 136.355469 L 23.332031 136.207031 L 23.320312 136.050781 L 23.3125 135.890625 L 23.308594 135.722656 L 23.308594 135.371094 L 23.3125 135.195312 L 23.320312 135.03125 L 23.332031 134.867188 L 23.347656 134.714844 L 23.363281 134.566406 L 23.386719 134.425781 L 23.410156 134.289062 L 23.4375 134.160156 L 23.464844 134.039062 L 23.5 133.917969 L 23.535156 133.804688 L 23.574219 133.699219 L 23.617188 133.59375 L 23.660156 133.496094 L 23.707031 133.402344 L 23.753906 133.316406 L 23.804688 133.230469 L 23.859375 133.152344 L 23.914062 133.078125 L 24.03125 132.945312 L 24.09375 132.882812 L 24.15625 132.828125 L 24.222656 132.777344 L 24.289062 132.730469 L 24.359375 132.683594 L 24.433594 132.644531 L 24.507812 132.609375 L 24.582031 132.582031 L 24.660156 132.554688 L 24.742188 132.527344 L 24.820312 132.507812 L 24.902344 132.488281 L 25.074219 132.457031 L 25.246094 132.441406 L 25.425781 132.433594 L 25.597656 132.441406 L 25.679688 132.449219 L 25.765625 132.457031 L 25.847656 132.472656 L 25.925781 132.488281 L 26.007812 132.507812 L 26.085938 132.527344 L 26.160156 132.554688 L 26.238281 132.582031 L 26.3125 132.609375 L 26.386719 132.644531 L 26.457031 132.683594 L 26.597656 132.777344 L 26.660156 132.828125 L 26.726562 132.882812 L 26.785156 132.945312 L 26.847656 133.011719 L 26.902344 133.078125 L 26.960938 133.152344 L 27.011719 133.230469 L 27.113281 133.402344 L 27.15625 133.496094 L 27.199219 133.59375 L 27.242188 133.699219 L 27.28125 133.804688 L 27.316406 133.917969 L 27.351562 134.039062 L 27.382812 134.160156 L 27.410156 134.289062 L 27.433594 134.425781 L 27.457031 134.566406 L 27.472656 134.714844 L 27.488281 134.867188 L 27.5 135.03125 L 27.507812 135.195312 L 27.511719 135.371094 Z M 26.726562 135.550781 L 26.726562 135.40625 L 26.722656 135.269531 L 26.714844 135.011719 L 26.707031 134.890625 L 26.695312 134.773438 L 26.6875 134.660156 L 26.671875 134.550781 L 26.660156 134.449219 L 26.640625 134.351562 L 26.625 134.257812 L 26.605469 134.167969 L 26.558594 133.996094 L 26.535156 133.917969 L 26.507812 133.84375 L 26.480469 133.773438 L 26.453125 133.707031 L 26.421875 133.644531 L 26.386719 133.585938 L 26.355469 133.53125 L 26.320312 133.476562 L 26.242188 133.382812 L 26.203125 133.339844 L 26.160156 133.300781 L 26.117188 133.265625 L 26.070312 133.234375 L 26.023438 133.207031 L 25.976562 133.183594 L 25.925781 133.160156 L 25.878906 133.140625 L 25.824219 133.121094 L 25.773438 133.105469 L 25.664062 133.082031 L 25.546875 133.066406 L 25.488281 133.0625 L 25.363281 133.0625 L 25.296875 133.066406 L 25.238281 133.074219 L 25.175781 133.082031 L 25.117188 133.09375 L 25.0625 133.105469 L 25.007812 133.121094 L 24.953125 133.140625 L 24.902344 133.160156 L 24.800781 133.207031 L 24.707031 133.269531 L 24.664062 133.304688 L 24.621094 133.34375 L 24.578125 133.386719 L 24.5 133.480469 L 24.429688 133.589844 L 24.394531 133.648438 L 24.367188 133.710938 L 24.335938 133.777344 L 24.308594 133.847656 L 24.28125 133.921875 L 24.234375 134.085938 L 24.214844 134.171875 L 24.195312 134.261719 L 24.175781 134.355469 L 24.160156 134.453125 L 24.144531 134.554688 L 24.132812 134.664062 L 24.109375 134.890625 L 24.101562 135.015625 L 24.097656 135.140625 L 24.09375 135.273438 L 24.089844 135.410156 L 24.089844 135.6875 L 24.09375 135.820312 L 24.097656 135.949219 L 24.101562 136.070312 L 24.109375 136.191406 L 24.132812 136.417969 L 24.144531 136.523438 L 24.160156 136.625 L 24.175781 136.722656 L 24.195312 136.816406 L 24.214844 136.90625 L 24.238281 136.992188 L 24.261719 137.074219 L 24.285156 137.152344 L 24.3125 137.230469 L 24.339844 137.300781 L 24.402344 137.433594 L 24.433594 137.492188 L 24.503906 137.601562 L 24.542969 137.652344 L 24.582031 137.695312 L 24.625 137.738281 L 24.664062 137.78125 L 24.710938 137.816406 L 24.753906 137.851562 L 24.800781 137.882812 L 24.851562 137.910156 L 24.898438 137.933594 L 24.949219 137.953125 L 25.003906 137.972656 L 25.113281 138.003906 L 25.167969 138.011719 L 25.226562 138.023438 L 25.285156 138.027344 L 25.410156 138.035156 L 25.585938 138.023438 L 25.644531 138.011719 L 25.699219 138.003906 L 25.753906 137.988281 L 25.804688 137.972656 L 25.859375 137.953125 L 25.910156 137.933594 L 25.957031 137.910156 L 26.007812 137.882812 L 26.054688 137.851562 L 26.140625 137.78125 L 26.226562 137.695312 L 26.265625 137.652344 L 26.300781 137.601562 L 26.371094 137.492188 L 26.40625 137.433594 L 26.46875 137.300781 L 26.496094 137.230469 L 26.523438 137.152344 L 26.546875 137.074219 L 26.570312 136.992188 L 26.59375 136.90625 L 26.613281 136.816406 L 26.632812 136.722656 L 26.652344 136.625 L 26.667969 136.523438 L 26.683594 136.417969 L 26.695312 136.304688 L 26.703125 136.191406 L 26.71875 135.949219 L 26.722656 135.820312 L 26.726562 135.6875 Z M 26.726562 135.550781 "/>
<path fill-rule="nonzero" fill="rgb(30.196078%, 30.196078%, 30.196078%)" fill-opacity="1" d="M 32.410156 135.550781 L 32.40625 135.722656 L 32.402344 135.886719 L 32.394531 136.046875 L 32.382812 136.203125 L 32.367188 136.351562 L 32.347656 136.496094 L 32.328125 136.636719 L 32.300781 136.769531 L 32.273438 136.898438 L 32.242188 137.019531 L 32.207031 137.136719 L 32.171875 137.246094 L 32.132812 137.355469 L 32.089844 137.457031 L 32.046875 137.554688 L 32 137.652344 L 31.953125 137.738281 L 31.898438 137.824219 L 31.847656 137.90625 L 31.730469 138.054688 L 31.671875 138.121094 L 31.609375 138.183594 L 31.546875 138.242188 L 31.480469 138.296875 L 31.414062 138.347656 L 31.34375 138.390625 L 31.269531 138.433594 L 31.195312 138.472656 L 31.121094 138.507812 L 31.042969 138.535156 L 30.960938 138.5625 L 30.882812 138.585938 L 30.800781 138.609375 L 30.636719 138.640625 L 30.550781 138.652344 L 30.46875 138.660156 L 30.382812 138.664062 L 30.207031 138.664062 L 30.121094 138.660156 L 30.035156 138.652344 L 29.949219 138.640625 L 29.785156 138.609375 L 29.703125 138.585938 L 29.625 138.5625 L 29.46875 138.507812 L 29.394531 138.472656 L 29.320312 138.433594 L 29.179688 138.347656 L 29.113281 138.296875 L 29.046875 138.242188 L 28.980469 138.183594 L 28.921875 138.121094 L 28.859375 138.054688 L 28.75 137.90625 L 28.695312 137.828125 L 28.644531 137.742188 L 28.597656 137.652344 L 28.554688 137.558594 L 28.511719 137.460938 L 28.46875 137.359375 L 28.429688 137.25 L 28.394531 137.140625 L 28.359375 137.023438 L 28.332031 136.902344 L 28.304688 136.773438 L 28.28125 136.640625 L 28.257812 136.5 L 28.242188 136.355469 L 28.226562 136.207031 L 28.214844 136.050781 L 28.207031 135.890625 L 28.203125 135.722656 L 28.203125 135.371094 L 28.207031 135.195312 L 28.214844 135.03125 L 28.226562 134.867188 L 28.242188 134.714844 L 28.257812 134.566406 L 28.28125 134.425781 L 28.304688 134.289062 L 28.332031 134.160156 L 28.359375 134.039062 L 28.394531 133.917969 L 28.429688 133.804688 L 28.46875 133.699219 L 28.511719 133.59375 L 28.554688 133.496094 L 28.601562 133.402344 L 28.648438 133.316406 L 28.699219 133.230469 L 28.753906 133.152344 L 28.808594 133.078125 L 28.925781 132.945312 L 28.988281 132.882812 L 29.050781 132.828125 L 29.117188 132.777344 L 29.183594 132.730469 L 29.253906 132.683594 L 29.328125 132.644531 L 29.402344 132.609375 L 29.476562 132.582031 L 29.554688 132.554688 L 29.636719 132.527344 L 29.714844 132.507812 L 29.796875 132.488281 L 29.882812 132.472656 L 29.964844 132.457031 L 30.054688 132.449219 L 30.140625 132.441406 L 30.320312 132.433594 L 30.492188 132.441406 L 30.574219 132.449219 L 30.660156 132.457031 L 30.738281 132.472656 L 30.820312 132.488281 L 30.898438 132.507812 L 30.980469 132.527344 L 31.054688 132.554688 L 31.132812 132.582031 L 31.207031 132.609375 L 31.28125 132.644531 L 31.351562 132.683594 L 31.421875 132.730469 L 31.488281 132.777344 L 31.554688 132.828125 L 31.621094 132.882812 L 31.679688 132.945312 L 31.742188 133.011719 L 31.796875 133.078125 L 31.855469 133.152344 L 31.90625 133.230469 L 32.007812 133.402344 L 32.050781 133.496094 L 32.09375 133.59375 L 32.136719 133.699219 L 32.175781 133.804688 L 32.210938 133.917969 L 32.246094 134.039062 L 32.277344 134.160156 L 32.304688 134.289062 L 32.328125 134.425781 L 32.351562 134.566406 L 32.367188 134.714844 L 32.382812 134.867188 L 32.394531 135.03125 L 32.402344 135.195312 L 32.40625 135.371094 Z M 31.621094 135.550781 L 31.621094 135.40625 L 31.617188 135.269531 L 31.609375 135.011719 L 31.601562 134.890625 L 31.589844 134.773438 L 31.578125 134.660156 L 31.566406 134.550781 L 31.550781 134.449219 L 31.535156 134.351562 L 31.519531 134.257812 L 31.5 134.167969 L 31.453125 133.996094 L 31.429688 133.917969 L 31.402344 133.84375 L 31.375 133.773438 L 31.347656 133.707031 L 31.316406 133.644531 L 31.28125 133.585938 L 31.25 133.53125 L 31.210938 133.476562 L 31.175781 133.429688 L 31.136719 133.382812 L 31.097656 133.339844 L 31.054688 133.300781 L 31.011719 133.265625 L 30.964844 133.234375 L 30.917969 133.207031 L 30.871094 133.183594 L 30.820312 133.160156 L 30.71875 133.121094 L 30.667969 133.105469 L 30.558594 133.082031 L 30.441406 133.066406 L 30.382812 133.0625 L 30.253906 133.0625 L 30.191406 133.066406 L 30.132812 133.074219 L 30.070312 133.082031 L 30.011719 133.09375 L 29.957031 133.105469 L 29.902344 133.121094 L 29.847656 133.140625 L 29.796875 133.160156 L 29.695312 133.207031 L 29.601562 133.269531 L 29.558594 133.304688 L 29.515625 133.34375 L 29.472656 133.386719 L 29.394531 133.480469 L 29.324219 133.589844 L 29.289062 133.648438 L 29.257812 133.710938 L 29.230469 133.777344 L 29.203125 133.847656 L 29.175781 133.921875 L 29.128906 134.085938 L 29.105469 134.171875 L 29.085938 134.261719 L 29.070312 134.355469 L 29.054688 134.453125 L 29.039062 134.554688 L 29.027344 134.664062 L 29.003906 134.890625 L 28.996094 135.015625 L 28.992188 135.140625 L 28.988281 135.273438 L 28.984375 135.410156 L 28.984375 135.6875 L 28.988281 135.820312 L 28.992188 135.949219 L 28.996094 136.070312 L 29.003906 136.191406 L 29.027344 136.417969 L 29.039062 136.523438 L 29.054688 136.625 L 29.070312 136.722656 L 29.089844 136.816406 L 29.109375 136.90625 L 29.132812 136.992188 L 29.15625 137.074219 L 29.179688 137.152344 L 29.207031 137.230469 L 29.234375 137.300781 L 29.261719 137.367188 L 29.292969 137.433594 L 29.328125 137.492188 L 29.398438 137.601562 L 29.4375 137.652344 L 29.476562 137.695312 L 29.519531 137.738281 L 29.558594 137.78125 L 29.605469 137.816406 L 29.648438 137.851562 L 29.695312 137.882812 L 29.746094 137.910156 L 29.792969 137.933594 L 29.84375 137.953125 L 29.898438 137.972656 L 30.007812 138.003906 L 30.0625 138.011719 L 30.121094 138.023438 L 30.179688 138.027344 L 30.304688 138.035156 L 30.480469 138.023438 L 30.539062 138.011719 L 30.59375 138.003906 L 30.648438 137.988281 L 30.699219 137.972656 L 30.753906 137.953125 L 30.804688 137.933594 L 30.851562 137.910156 L 30.902344 137.882812 L 30.949219 137.851562 L 31.035156 137.78125 L 31.078125 137.738281 L 31.15625 137.652344 L 31.195312 137.601562 L 31.265625 137.492188 L 31.300781 137.433594 L 31.332031 137.367188 L 31.359375 137.300781 L 31.390625 137.230469 L 31.417969 137.152344 L 31.441406 137.074219 L 31.464844 136.992188 L 31.488281 136.90625 L 31.507812 136.816406 L 31.527344 136.722656 L 31.546875 136.625 L 31.5625 136.523438 L 31.574219 136.417969 L 31.589844 136.304688 L 31.597656 136.191406 L 31.613281 135.949219 L 31.617188 135.820312 L 31.621094 135.6875 Z M 31.621094 135.550781 "/>
<path fill-rule="nonzero" fill="rgb(30.196078%, 30.196078%, 30.196078%)" fill-opacity="1" d="M 22.578125 47.480469 L 22.570312 47.644531 L 22.566406 47.722656 L 22.554688 47.800781 L 22.542969 47.875 L 22.527344 47.949219 L 22.511719 48.019531 L 22.488281 48.089844 L 22.441406 48.222656 L 22.410156 48.289062 L 22.382812 48.351562 L 22.3125 48.46875 L 22.234375 48.578125 L 22.191406 48.632812 L 22.144531 48.683594 L 22.042969 48.777344 L 21.992188 48.820312 L 21.9375 48.863281 L 21.878906 48.902344 L 21.816406 48.941406 L 21.753906 48.976562 L 21.621094 49.039062 L 21.550781 49.070312 L 21.476562 49.097656 L 21.320312 49.144531 L 21.242188 49.164062 L 21.160156 49.179688 L 21.074219 49.195312 L 20.902344 49.21875 L 20.714844 49.234375 L 20.621094 49.234375 L 20.523438 49.238281 L 20.304688 49.230469 L 20.203125 49.226562 L 20.101562 49.214844 L 20.003906 49.203125 L 19.910156 49.1875 L 19.820312 49.171875 L 19.734375 49.148438 L 19.652344 49.125 L 19.574219 49.101562 L 19.425781 49.039062 L 19.355469 49.007812 L 19.222656 48.9375 L 19.105469 48.859375 L 19.046875 48.816406 L 18.992188 48.773438 L 18.941406 48.730469 L 18.847656 48.636719 L 18.761719 48.535156 L 18.722656 48.484375 L 18.652344 48.375 L 18.621094 48.320312 L 18.59375 48.265625 L 18.566406 48.207031 L 18.542969 48.148438 L 18.523438 48.085938 L 18.5 48.027344 L 18.480469 47.964844 L 18.464844 47.90625 L 18.449219 47.84375 L 18.4375 47.78125 L 18.421875 47.722656 L 18.40625 47.597656 L 19.203125 47.523438 L 19.21875 47.617188 L 19.230469 47.664062 L 19.242188 47.707031 L 19.253906 47.753906 L 19.265625 47.796875 L 19.28125 47.839844 L 19.292969 47.878906 L 19.3125 47.921875 L 19.328125 47.960938 L 19.367188 48.039062 L 19.4375 48.144531 L 19.464844 48.179688 L 19.519531 48.242188 L 19.550781 48.273438 L 19.613281 48.328125 L 19.648438 48.355469 L 19.683594 48.378906 L 19.722656 48.402344 L 19.757812 48.425781 L 19.800781 48.449219 L 19.839844 48.46875 L 19.882812 48.488281 L 19.925781 48.503906 L 20.019531 48.535156 L 20.171875 48.570312 L 20.28125 48.585938 L 20.398438 48.59375 L 20.460938 48.597656 L 20.523438 48.597656 L 20.636719 48.59375 L 20.746094 48.585938 L 20.851562 48.570312 L 20.949219 48.550781 L 21.042969 48.523438 L 21.132812 48.492188 L 21.21875 48.457031 L 21.296875 48.414062 L 21.371094 48.363281 L 21.4375 48.308594 L 21.503906 48.25 L 21.558594 48.183594 L 21.609375 48.113281 L 21.652344 48.035156 L 21.691406 47.953125 L 21.71875 47.863281 L 21.742188 47.769531 L 21.761719 47.671875 L 21.769531 47.566406 L 21.773438 47.453125 L 21.773438 47.386719 L 21.769531 47.324219 L 21.761719 47.265625 L 21.75 47.207031 L 21.734375 47.152344 L 21.71875 47.101562 L 21.699219 47.050781 L 21.652344 46.957031 L 21.625 46.917969 L 21.59375 46.875 L 21.5625 46.839844 L 21.527344 46.800781 L 21.492188 46.765625 L 21.421875 46.703125 L 21.378906 46.675781 L 21.339844 46.648438 L 21.296875 46.621094 L 21.253906 46.597656 L 21.210938 46.578125 L 21.164062 46.554688 L 21.117188 46.535156 L 20.976562 46.488281 L 20.824219 46.453125 L 20.671875 46.429688 L 20.621094 46.425781 L 20.574219 46.417969 L 20.523438 46.414062 L 20.476562 46.410156 L 20.429688 46.410156 L 20.382812 46.40625 L 19.855469 46.40625 L 19.855469 45.734375 L 20.367188 45.734375 L 20.410156 45.730469 L 20.457031 45.730469 L 20.5 45.726562 L 20.546875 45.71875 L 20.59375 45.714844 L 20.78125 45.683594 L 20.828125 45.671875 L 20.871094 45.65625 L 20.914062 45.644531 L 20.960938 45.628906 L 21 45.609375 L 21.042969 45.59375 L 21.085938 45.574219 L 21.203125 45.503906 L 21.238281 45.476562 L 21.277344 45.449219 L 21.308594 45.417969 L 21.34375 45.386719 L 21.375 45.355469 L 21.40625 45.320312 L 21.433594 45.285156 L 21.460938 45.246094 L 21.484375 45.207031 L 21.511719 45.164062 L 21.53125 45.121094 L 21.550781 45.074219 L 21.566406 45.027344 L 21.582031 44.976562 L 21.59375 44.925781 L 21.601562 44.871094 L 21.609375 44.8125 L 21.613281 44.753906 L 21.613281 44.597656 L 21.601562 44.503906 L 21.589844 44.417969 L 21.570312 44.335938 L 21.542969 44.257812 L 21.511719 44.183594 L 21.472656 44.113281 L 21.429688 44.046875 L 21.382812 43.984375 L 21.328125 43.925781 L 21.265625 43.871094 L 21.203125 43.824219 L 21.132812 43.78125 L 21.054688 43.746094 L 20.972656 43.714844 L 20.886719 43.6875 L 20.792969 43.667969 L 20.695312 43.652344 L 20.589844 43.644531 L 20.378906 43.644531 L 20.285156 43.652344 L 20.191406 43.667969 L 20.101562 43.683594 L 20.015625 43.707031 L 19.859375 43.769531 L 19.785156 43.8125 L 19.714844 43.855469 L 19.652344 43.90625 L 19.589844 43.960938 L 19.535156 44.019531 L 19.488281 44.082031 L 19.441406 44.148438 L 19.402344 44.222656 L 19.367188 44.296875 L 19.339844 44.378906 L 19.316406 44.460938 L 19.296875 44.550781 L 19.285156 44.644531 L 18.507812 44.582031 L 18.519531 44.503906 L 18.53125 44.429688 L 18.546875 44.351562 L 18.585938 44.210938 L 18.609375 44.140625 L 18.636719 44.074219 L 18.664062 44.011719 L 18.726562 43.886719 L 18.761719 43.828125 L 18.839844 43.71875 L 18.878906 43.667969 L 18.921875 43.617188 L 18.964844 43.570312 L 19.011719 43.523438 L 19.058594 43.480469 L 19.109375 43.4375 L 19.160156 43.398438 L 19.214844 43.359375 L 19.269531 43.324219 L 19.328125 43.289062 L 19.445312 43.226562 L 19.570312 43.171875 L 19.632812 43.148438 L 19.699219 43.125 L 19.765625 43.105469 L 19.835938 43.085938 L 19.90625 43.070312 L 19.972656 43.054688 L 20.046875 43.042969 L 20.117188 43.03125 L 20.191406 43.023438 L 20.261719 43.015625 L 20.335938 43.011719 L 20.414062 43.007812 L 20.589844 43.007812 L 20.6875 43.011719 L 20.78125 43.019531 L 20.871094 43.027344 L 20.960938 43.039062 L 21.046875 43.054688 L 21.128906 43.070312 L 21.210938 43.089844 L 21.433594 43.160156 L 21.5 43.191406 L 21.566406 43.21875 L 21.632812 43.25 L 21.808594 43.355469 L 21.859375 43.394531 L 21.910156 43.4375 L 22.003906 43.523438 L 22.046875 43.570312 L 22.125 43.664062 L 22.160156 43.714844 L 22.222656 43.816406 L 22.25 43.871094 L 22.320312 44.046875 L 22.339844 44.105469 L 22.355469 44.164062 L 22.371094 44.226562 L 22.382812 44.289062 L 22.398438 44.414062 L 22.40625 44.480469 L 22.410156 44.542969 L 22.410156 44.664062 L 22.398438 44.816406 L 22.382812 44.917969 L 22.375 44.964844 L 22.363281 45.015625 L 22.351562 45.0625 L 22.335938 45.109375 L 22.320312 45.152344 L 22.304688 45.199219 L 22.265625 45.285156 L 22.21875 45.371094 L 22.195312 45.410156 L 22.140625 45.488281 L 22.109375 45.523438 L 22.078125 45.5625 L 22.007812 45.632812 L 21.972656 45.664062 L 21.933594 45.695312 L 21.890625 45.726562 L 21.851562 45.757812 L 21.804688 45.789062 L 21.761719 45.816406 L 21.714844 45.84375 L 21.664062 45.867188 L 21.613281 45.894531 L 21.5625 45.917969 L 21.507812 45.9375 L 21.453125 45.960938 L 21.394531 45.980469 L 21.335938 45.996094 L 21.273438 46.015625 L 21.207031 46.03125 L 21.140625 46.042969 L 21.140625 46.0625 L 21.214844 46.070312 L 21.285156 46.082031 L 21.417969 46.105469 L 21.484375 46.125 L 21.546875 46.140625 L 21.605469 46.160156 L 21.664062 46.183594 L 21.722656 46.203125 L 21.777344 46.230469 L 21.832031 46.253906 L 21.933594 46.308594 L 21.980469 46.339844 L 22.023438 46.371094 L 22.070312 46.402344 L 22.109375 46.4375 L 22.152344 46.46875 L 22.1875 46.507812 L 22.226562 46.542969 L 22.257812 46.582031 L 22.292969 46.621094 L 22.324219 46.660156 L 22.378906 46.746094 L 22.425781 46.832031 L 22.449219 46.878906 L 22.488281 46.972656 L 22.503906 47.019531 L 22.519531 47.070312 L 22.53125 47.121094 L 22.542969 47.167969 L 22.554688 47.21875 L 22.5625 47.269531 L 22.570312 47.324219 L 22.578125 47.425781 Z M 22.578125 47.480469 "/>
<path fill-rule="nonzero" fill="rgb(30.196078%, 30.196078%, 30.196078%)" fill-opacity="1" d="M 27.515625 46.121094 L 27.511719 46.292969 L 27.507812 46.460938 L 27.5 46.621094 L 27.488281 46.777344 L 27.472656 46.925781 L 27.453125 47.070312 L 27.433594 47.207031 L 27.40625 47.34375 L 27.378906 47.46875 L 27.347656 47.589844 L 27.3125 47.707031 L 27.277344 47.820312 L 27.238281 47.925781 L 27.195312 48.03125 L 27.152344 48.128906 L 27.105469 48.222656 L 27.058594 48.3125 L 27.003906 48.398438 L 26.953125 48.476562 L 26.894531 48.554688 L 26.835938 48.625 L 26.777344 48.691406 L 26.714844 48.753906 L 26.652344 48.8125 L 26.585938 48.867188 L 26.519531 48.917969 L 26.449219 48.964844 L 26.375 49.007812 L 26.226562 49.078125 L 26.148438 49.109375 L 26.070312 49.136719 L 25.988281 49.160156 L 25.824219 49.199219 L 25.660156 49.222656 L 25.574219 49.230469 L 25.488281 49.234375 L 25.398438 49.238281 L 25.226562 49.230469 L 25.140625 49.222656 L 25.054688 49.210938 L 24.972656 49.199219 L 24.808594 49.160156 L 24.730469 49.136719 L 24.652344 49.109375 L 24.574219 49.078125 L 24.425781 49.007812 L 24.355469 48.964844 L 24.285156 48.917969 L 24.21875 48.867188 L 24.152344 48.8125 L 24.089844 48.753906 L 24.027344 48.691406 L 23.96875 48.625 L 23.910156 48.554688 L 23.855469 48.480469 L 23.800781 48.398438 L 23.753906 48.316406 L 23.703125 48.226562 L 23.660156 48.132812 L 23.617188 48.035156 L 23.574219 47.929688 L 23.535156 47.824219 L 23.464844 47.597656 L 23.410156 47.347656 L 23.363281 47.074219 L 23.347656 46.929688 L 23.332031 46.777344 L 23.320312 46.621094 L 23.3125 46.460938 L 23.308594 46.292969 L 23.308594 45.941406 L 23.3125 45.769531 L 23.320312 45.601562 L 23.332031 45.441406 L 23.347656 45.285156 L 23.363281 45.136719 L 23.386719 44.996094 L 23.410156 44.859375 L 23.4375 44.730469 L 23.464844 44.609375 L 23.5 44.492188 L 23.535156 44.378906 L 23.574219 44.269531 L 23.617188 44.167969 L 23.660156 44.070312 L 23.707031 43.976562 L 23.753906 43.886719 L 23.804688 43.804688 L 23.859375 43.726562 L 23.914062 43.652344 L 23.972656 43.582031 L 24.03125 43.515625 L 24.09375 43.457031 L 24.15625 43.402344 L 24.222656 43.347656 L 24.289062 43.300781 L 24.359375 43.257812 L 24.433594 43.21875 L 24.507812 43.183594 L 24.582031 43.152344 L 24.660156 43.125 L 24.742188 43.101562 L 24.820312 43.078125 L 24.902344 43.058594 L 24.988281 43.042969 L 25.160156 43.019531 L 25.246094 43.011719 L 25.335938 43.007812 L 25.511719 43.007812 L 25.597656 43.011719 L 25.679688 43.019531 L 25.765625 43.03125 L 25.847656 43.042969 L 25.925781 43.058594 L 26.007812 43.078125 L 26.085938 43.101562 L 26.160156 43.125 L 26.238281 43.152344 L 26.3125 43.183594 L 26.386719 43.21875 L 26.457031 43.257812 L 26.527344 43.300781 L 26.597656 43.347656 L 26.660156 43.402344 L 26.726562 43.457031 L 26.785156 43.515625 L 26.847656 43.582031 L 26.902344 43.652344 L 26.960938 43.726562 L 27.011719 43.804688 L 27.0625 43.886719 L 27.113281 43.976562 L 27.15625 44.070312 L 27.199219 44.167969 L 27.242188 44.269531 L 27.28125 44.378906 L 27.316406 44.492188 L 27.351562 44.609375 L 27.382812 44.730469 L 27.410156 44.859375 L 27.433594 44.996094 L 27.457031 45.136719 L 27.472656 45.285156 L 27.488281 45.441406 L 27.5 45.601562 L 27.507812 45.769531 L 27.511719 45.941406 Z M 26.726562 46.121094 L 26.726562 45.980469 L 26.722656 45.84375 L 26.71875 45.710938 L 26.714844 45.582031 L 26.707031 45.460938 L 26.695312 45.34375 L 26.6875 45.230469 L 26.671875 45.125 L 26.660156 45.019531 L 26.640625 44.921875 L 26.625 44.828125 L 26.605469 44.738281 L 26.582031 44.652344 L 26.558594 44.570312 L 26.535156 44.492188 L 26.507812 44.417969 L 26.480469 44.347656 L 26.453125 44.28125 L 26.421875 44.21875 L 26.386719 44.160156 L 26.355469 44.101562 L 26.320312 44.050781 L 26.28125 44 L 26.203125 43.914062 L 26.160156 43.875 L 26.117188 43.839844 L 26.070312 43.808594 L 25.976562 43.753906 L 25.925781 43.730469 L 25.878906 43.710938 L 25.824219 43.691406 L 25.773438 43.675781 L 25.664062 43.652344 L 25.605469 43.644531 L 25.488281 43.636719 L 25.425781 43.632812 L 25.363281 43.636719 L 25.296875 43.640625 L 25.238281 43.644531 L 25.175781 43.652344 L 25.117188 43.664062 L 25.0625 43.675781 L 25.007812 43.691406 L 24.953125 43.710938 L 24.902344 43.730469 L 24.851562 43.753906 L 24.800781 43.78125 L 24.753906 43.808594 L 24.707031 43.84375 L 24.664062 43.878906 L 24.621094 43.917969 L 24.578125 43.960938 L 24.539062 44.003906 L 24.5 44.054688 L 24.464844 44.105469 L 24.394531 44.222656 L 24.367188 44.285156 L 24.335938 44.351562 L 24.308594 44.421875 L 24.28125 44.496094 L 24.257812 44.574219 L 24.234375 44.65625 L 24.214844 44.742188 L 24.195312 44.832031 L 24.175781 44.925781 L 24.144531 45.128906 L 24.132812 45.234375 L 24.121094 45.347656 L 24.109375 45.464844 L 24.101562 45.585938 L 24.09375 45.84375 L 24.089844 45.980469 L 24.089844 46.257812 L 24.09375 46.390625 L 24.097656 46.519531 L 24.101562 46.644531 L 24.109375 46.761719 L 24.121094 46.878906 L 24.132812 46.988281 L 24.144531 47.09375 L 24.160156 47.199219 L 24.175781 47.296875 L 24.195312 47.390625 L 24.214844 47.480469 L 24.238281 47.566406 L 24.261719 47.648438 L 24.285156 47.726562 L 24.3125 47.800781 L 24.339844 47.871094 L 24.371094 47.941406 L 24.402344 48.003906 L 24.433594 48.0625 L 24.46875 48.121094 L 24.503906 48.171875 L 24.542969 48.222656 L 24.582031 48.269531 L 24.664062 48.351562 L 24.710938 48.390625 L 24.753906 48.421875 L 24.800781 48.453125 L 24.851562 48.480469 L 24.898438 48.503906 L 24.949219 48.527344 L 25.003906 48.542969 L 25.058594 48.5625 L 25.167969 48.585938 L 25.285156 48.601562 L 25.347656 48.605469 L 25.46875 48.605469 L 25.527344 48.601562 L 25.644531 48.585938 L 25.753906 48.5625 L 25.804688 48.542969 L 25.859375 48.527344 L 25.910156 48.503906 L 25.957031 48.480469 L 26.007812 48.453125 L 26.054688 48.421875 L 26.097656 48.390625 L 26.183594 48.3125 L 26.226562 48.269531 L 26.265625 48.222656 L 26.335938 48.121094 L 26.40625 48.003906 L 26.4375 47.941406 L 26.46875 47.871094 L 26.496094 47.800781 L 26.523438 47.726562 L 26.546875 47.648438 L 26.570312 47.566406 L 26.59375 47.480469 L 26.613281 47.390625 L 26.632812 47.296875 L 26.652344 47.199219 L 26.683594 46.988281 L 26.695312 46.878906 L 26.710938 46.644531 L 26.71875 46.519531 L 26.722656 46.390625 L 26.726562 46.257812 Z M 26.726562 46.121094 "/>
<path fill-rule="nonzero" fill="rgb(30.196078%, 30.196078%, 30.196078%)" fill-opacity="1" d="M 32.410156 46.121094 L 32.40625 46.292969 L 32.402344 46.460938 L 32.394531 46.621094 L 32.382812 46.777344 L 32.367188 46.925781 L 32.347656 47.070312 L 32.328125 47.207031 L 32.300781 47.34375 L 32.273438 47.46875 L 32.242188 47.589844 L 32.207031 47.707031 L 32.171875 47.820312 L 32.132812 47.925781 L 32.089844 48.03125 L 32.046875 48.128906 L 32 48.222656 L 31.953125 48.3125 L 31.898438 48.398438 L 31.847656 48.476562 L 31.789062 48.554688 L 31.730469 48.625 L 31.671875 48.691406 L 31.609375 48.753906 L 31.546875 48.8125 L 31.480469 48.867188 L 31.414062 48.917969 L 31.34375 48.964844 L 31.269531 49.007812 L 31.121094 49.078125 L 31.042969 49.109375 L 30.960938 49.136719 L 30.882812 49.160156 L 30.71875 49.199219 L 30.636719 49.210938 L 30.550781 49.222656 L 30.46875 49.230469 L 30.382812 49.234375 L 30.292969 49.238281 L 30.121094 49.230469 L 30.035156 49.222656 L 29.949219 49.210938 L 29.867188 49.199219 L 29.703125 49.160156 L 29.625 49.136719 L 29.546875 49.109375 L 29.46875 49.078125 L 29.320312 49.007812 L 29.25 48.964844 L 29.179688 48.917969 L 29.113281 48.867188 L 29.046875 48.8125 L 28.980469 48.753906 L 28.921875 48.691406 L 28.859375 48.625 L 28.804688 48.554688 L 28.75 48.480469 L 28.695312 48.398438 L 28.644531 48.316406 L 28.597656 48.226562 L 28.554688 48.132812 L 28.511719 48.035156 L 28.46875 47.929688 L 28.429688 47.824219 L 28.359375 47.597656 L 28.304688 47.347656 L 28.257812 47.074219 L 28.242188 46.929688 L 28.226562 46.777344 L 28.214844 46.621094 L 28.207031 46.460938 L 28.203125 46.292969 L 28.203125 45.941406 L 28.207031 45.769531 L 28.214844 45.601562 L 28.226562 45.441406 L 28.242188 45.285156 L 28.257812 45.136719 L 28.28125 44.996094 L 28.304688 44.859375 L 28.332031 44.730469 L 28.359375 44.609375 L 28.394531 44.492188 L 28.429688 44.378906 L 28.46875 44.269531 L 28.511719 44.167969 L 28.554688 44.070312 L 28.601562 43.976562 L 28.648438 43.886719 L 28.699219 43.804688 L 28.753906 43.726562 L 28.808594 43.652344 L 28.867188 43.582031 L 28.925781 43.515625 L 28.988281 43.457031 L 29.050781 43.402344 L 29.117188 43.347656 L 29.183594 43.300781 L 29.253906 43.257812 L 29.328125 43.21875 L 29.402344 43.183594 L 29.476562 43.152344 L 29.554688 43.125 L 29.636719 43.101562 L 29.714844 43.078125 L 29.796875 43.058594 L 29.882812 43.042969 L 29.964844 43.03125 L 30.054688 43.019531 L 30.140625 43.011719 L 30.230469 43.007812 L 30.40625 43.007812 L 30.492188 43.011719 L 30.574219 43.019531 L 30.660156 43.03125 L 30.738281 43.042969 L 30.820312 43.058594 L 30.898438 43.078125 L 30.980469 43.101562 L 31.054688 43.125 L 31.132812 43.152344 L 31.207031 43.183594 L 31.28125 43.21875 L 31.351562 43.257812 L 31.421875 43.300781 L 31.488281 43.347656 L 31.621094 43.457031 L 31.679688 43.515625 L 31.742188 43.582031 L 31.796875 43.652344 L 31.855469 43.726562 L 31.90625 43.804688 L 31.957031 43.886719 L 32.007812 43.976562 L 32.050781 44.070312 L 32.09375 44.167969 L 32.136719 44.269531 L 32.175781 44.378906 L 32.210938 44.492188 L 32.246094 44.609375 L 32.277344 44.730469 L 32.304688 44.859375 L 32.328125 44.996094 L 32.351562 45.136719 L 32.367188 45.285156 L 32.382812 45.441406 L 32.394531 45.601562 L 32.402344 45.769531 L 32.40625 45.941406 Z M 31.621094 46.121094 L 31.621094 45.980469 L 31.617188 45.84375 L 31.613281 45.710938 L 31.609375 45.582031 L 31.601562 45.460938 L 31.589844 45.34375 L 31.578125 45.230469 L 31.566406 45.125 L 31.550781 45.019531 L 31.535156 44.921875 L 31.519531 44.828125 L 31.5 44.738281 L 31.476562 44.652344 L 31.453125 44.570312 L 31.429688 44.492188 L 31.402344 44.417969 L 31.375 44.347656 L 31.347656 44.28125 L 31.316406 44.21875 L 31.28125 44.160156 L 31.25 44.101562 L 31.210938 44.050781 L 31.175781 44 L 31.097656 43.914062 L 31.054688 43.875 L 31.011719 43.839844 L 30.964844 43.808594 L 30.871094 43.753906 L 30.820312 43.730469 L 30.71875 43.691406 L 30.667969 43.675781 L 30.558594 43.652344 L 30.5 43.644531 L 30.382812 43.636719 L 30.320312 43.632812 L 30.253906 43.636719 L 30.191406 43.640625 L 30.132812 43.644531 L 30.070312 43.652344 L 30.011719 43.664062 L 29.957031 43.675781 L 29.902344 43.691406 L 29.847656 43.710938 L 29.796875 43.730469 L 29.746094 43.753906 L 29.695312 43.78125 L 29.648438 43.808594 L 29.601562 43.84375 L 29.558594 43.878906 L 29.515625 43.917969 L 29.472656 43.960938 L 29.433594 44.003906 L 29.394531 44.054688 L 29.359375 44.105469 L 29.289062 44.222656 L 29.257812 44.285156 L 29.230469 44.351562 L 29.203125 44.421875 L 29.175781 44.496094 L 29.152344 44.574219 L 29.128906 44.65625 L 29.105469 44.742188 L 29.085938 44.832031 L 29.070312 44.925781 L 29.039062 45.128906 L 29.027344 45.234375 L 29.015625 45.347656 L 29.003906 45.464844 L 28.996094 45.585938 L 28.988281 45.84375 L 28.984375 45.980469 L 28.984375 46.257812 L 28.988281 46.390625 L 28.992188 46.519531 L 28.996094 46.644531 L 29.003906 46.761719 L 29.015625 46.878906 L 29.027344 46.988281 L 29.039062 47.09375 L 29.054688 47.199219 L 29.070312 47.296875 L 29.089844 47.390625 L 29.109375 47.480469 L 29.132812 47.566406 L 29.15625 47.648438 L 29.179688 47.726562 L 29.207031 47.800781 L 29.261719 47.941406 L 29.292969 48.003906 L 29.363281 48.121094 L 29.398438 48.171875 L 29.4375 48.222656 L 29.476562 48.269531 L 29.558594 48.351562 L 29.605469 48.390625 L 29.648438 48.421875 L 29.695312 48.453125 L 29.746094 48.480469 L 29.792969 48.503906 L 29.84375 48.527344 L 29.898438 48.542969 L 29.953125 48.5625 L 30.0625 48.585938 L 30.179688 48.601562 L 30.242188 48.605469 L 30.363281 48.605469 L 30.421875 48.601562 L 30.539062 48.585938 L 30.648438 48.5625 L 30.699219 48.542969 L 30.753906 48.527344 L 30.804688 48.503906 L 30.851562 48.480469 L 30.902344 48.453125 L 30.949219 48.421875 L 30.992188 48.390625 L 31.078125 48.3125 L 31.117188 48.269531 L 31.15625 48.222656 L 31.195312 48.171875 L 31.230469 48.121094 L 31.300781 48.003906 L 31.332031 47.941406 L 31.359375 47.871094 L 31.390625 47.800781 L 31.417969 47.726562 L 31.441406 47.648438 L 31.464844 47.566406 L 31.488281 47.480469 L 31.507812 47.390625 L 31.527344 47.296875 L 31.546875 47.199219 L 31.5625 47.09375 L 31.574219 46.988281 L 31.589844 46.878906 L 31.605469 46.644531 L 31.613281 46.519531 L 31.617188 46.390625 L 31.621094 46.257812 Z M 31.621094 46.121094 "/>
<path fill="none" stroke-width="1.066978" stroke-linecap="butt" stroke-linejoin="round" stroke="rgb(20%, 20%, 20%)" stroke-opacity="1" stroke-miterlimit="10" d="M 34.945312 314.40625 L 37.683594 314.40625 "/>
<path fill="none" stroke-width="1.066978" stroke-linecap="butt" stroke-linejoin="round" stroke="rgb(20%, 20%, 20%)" stroke-opacity="1" stroke-miterlimit="10" d="M 34.945312 224.980469 L 37.683594 224.980469 "/>
<path fill="none" stroke-width="1.066978" stroke-linecap="butt" stroke-linejoin="round" stroke="rgb(20%, 20%, 20%)" stroke-opacity="1" stroke-miterlimit="10" d="M 34.945312 135.550781 L 37.683594 135.550781 "/>
<path fill="none" stroke-width="1.066978" stroke-linecap="butt" stroke-linejoin="round" stroke="rgb(20%, 20%, 20%)" stroke-opacity="1" stroke-miterlimit="10" d="M 34.945312 46.125 L 37.683594 46.125 "/>
<path fill="none" stroke-width="1.066978" stroke-linecap="butt" stroke-linejoin="round" stroke="rgb(20%, 20%, 20%)" stroke-opacity="1" stroke-miterlimit="10" d="M 165.695312 331.859375 L 165.695312 329.117188 "/>
<path fill="none" stroke-width="1.066978" stroke-linecap="butt" stroke-linejoin="round" stroke="rgb(20%, 20%, 20%)" stroke-opacity="1" stroke-miterlimit="10" d="M 293.703125 331.859375 L 293.703125 329.117188 "/>
<path fill="none" stroke-width="1.066978" stroke-linecap="butt" stroke-linejoin="round" stroke="rgb(20%, 20%, 20%)" stroke-opacity="1" stroke-miterlimit="10" d="M 421.714844 331.859375 L 421.714844 329.117188 "/>
<path fill-rule="nonzero" fill="rgb(30.196078%, 30.196078%, 30.196078%)" fill-opacity="1" d="M 167.773438 340.105469 L 167.082031 338.332031 L 164.324219 338.332031 L 163.628906 340.105469 L 162.777344 340.105469 L 165.246094 334.050781 L 166.179688 334.050781 L 168.613281 340.105469 Z M 166.058594 335.695312 L 166.046875 335.660156 L 166.03125 335.625 L 166.019531 335.59375 L 166.003906 335.558594 L 165.992188 335.523438 L 165.976562 335.488281 L 165.953125 335.417969 L 165.9375 335.382812 L 165.902344 335.277344 L 165.890625 335.246094 L 165.878906 335.210938 L 165.867188 335.179688 L 165.859375 335.148438 L 165.847656 335.117188 L 165.839844 335.085938 L 165.828125 335.058594 L 165.820312 335.03125 L 165.808594 335 L 165.792969 334.945312 L 165.78125 334.921875 L 165.773438 334.894531 L 165.765625 334.871094 L 165.757812 334.851562 L 165.75 334.828125 L 165.742188 334.808594 L 165.738281 334.789062 L 165.730469 334.769531 L 165.71875 334.722656 L 165.707031 334.6875 L 165.707031 334.679688 L 165.703125 334.671875 L 165.703125 334.667969 L 165.699219 334.671875 L 165.699219 334.679688 L 165.695312 334.6875 L 165.683594 334.722656 L 165.675781 334.753906 L 165.667969 334.769531 L 165.664062 334.789062 L 165.65625 334.808594 L 165.652344 334.832031 L 165.644531 334.851562 L 165.628906 334.898438 L 165.621094 334.925781 L 165.609375 334.949219 L 165.59375 335.003906 L 165.582031 335.035156 L 165.574219 335.0625 L 165.550781 335.125 L 165.542969 335.15625 L 165.519531 335.21875 L 165.507812 335.253906 L 165.496094 335.285156 L 165.484375 335.320312 L 165.46875 335.355469 L 165.398438 335.566406 L 165.382812 335.601562 L 165.371094 335.636719 L 165.359375 335.667969 L 165.347656 335.703125 L 164.574219 337.695312 L 166.835938 337.695312 Z M 166.058594 335.695312 "/>
<path fill-rule="nonzero" fill="rgb(30.196078%, 30.196078%, 30.196078%)" fill-opacity="1" d="M 296.175781 338.398438 L 296.167969 338.578125 L 296.160156 338.660156 L 296.144531 338.746094 L 296.128906 338.824219 L 296.109375 338.902344 L 296.085938 338.976562 L 296.058594 339.046875 L 296.027344 339.117188 L 295.996094 339.183594 L 295.917969 339.308594 L 295.875 339.367188 L 295.832031 339.421875 L 295.78125 339.476562 L 295.734375 339.53125 L 295.570312 339.671875 L 295.507812 339.714844 L 295.445312 339.753906 L 295.382812 339.789062 L 295.25 339.859375 L 295.179688 339.886719 L 295.105469 339.917969 L 295.035156 339.941406 L 294.957031 339.96875 L 294.800781 340.007812 L 294.71875 340.027344 L 294.554688 340.058594 L 294.46875 340.070312 L 294.386719 340.082031 L 294.300781 340.089844 L 294.214844 340.09375 L 294.125 340.101562 L 294.039062 340.101562 L 293.949219 340.105469 L 291.492188 340.105469 L 291.492188 334.050781 L 293.789062 334.050781 L 293.984375 334.058594 L 294.078125 334.0625 L 294.167969 334.070312 L 294.257812 334.082031 L 294.34375 334.09375 L 294.425781 334.105469 L 294.589844 334.136719 L 294.667969 334.152344 L 294.742188 334.171875 L 294.816406 334.195312 L 294.886719 334.21875 L 294.953125 334.242188 L 295.019531 334.269531 L 295.082031 334.296875 L 295.144531 334.328125 L 295.203125 334.363281 L 295.3125 334.433594 L 295.363281 334.472656 L 295.414062 334.515625 L 295.5 334.601562 L 295.542969 334.648438 L 295.648438 334.800781 L 295.675781 334.859375 L 295.703125 334.914062 L 295.730469 334.972656 L 295.75 335.03125 L 295.769531 335.09375 L 295.800781 335.226562 L 295.816406 335.367188 L 295.820312 335.441406 L 295.824219 335.519531 L 295.820312 335.570312 L 295.820312 335.621094 L 295.816406 335.667969 L 295.8125 335.71875 L 295.796875 335.8125 L 295.785156 335.859375 L 295.777344 335.90625 L 295.761719 335.953125 L 295.75 335.996094 L 295.734375 336.039062 L 295.71875 336.085938 L 295.703125 336.125 L 295.683594 336.167969 L 295.660156 336.210938 L 295.640625 336.25 L 295.617188 336.289062 L 295.535156 336.40625 L 295.503906 336.441406 L 295.476562 336.476562 L 295.441406 336.507812 L 295.410156 336.542969 L 295.375 336.574219 L 295.335938 336.605469 L 295.296875 336.632812 L 295.257812 336.664062 L 295.171875 336.71875 L 295.085938 336.765625 L 295.039062 336.789062 L 294.988281 336.8125 L 294.941406 336.832031 L 294.890625 336.851562 L 294.726562 336.898438 L 294.671875 336.910156 L 294.882812 336.945312 L 294.949219 336.957031 L 295.015625 336.976562 L 295.078125 336.992188 L 295.140625 337.011719 L 295.199219 337.03125 L 295.316406 337.078125 L 295.425781 337.132812 L 295.476562 337.160156 L 295.527344 337.191406 L 295.621094 337.253906 L 295.667969 337.289062 L 295.707031 337.324219 L 295.75 337.359375 L 295.789062 337.398438 L 295.859375 337.476562 L 295.894531 337.519531 L 295.925781 337.5625 L 295.953125 337.605469 L 295.984375 337.652344 L 296.03125 337.746094 L 296.054688 337.796875 L 296.09375 337.898438 L 296.113281 337.953125 L 296.125 338.003906 L 296.140625 338.058594 L 296.148438 338.113281 L 296.160156 338.167969 L 296.164062 338.222656 L 296.171875 338.28125 L 296.175781 338.339844 Z M 294.996094 335.617188 L 294.996094 335.523438 L 294.984375 335.433594 L 294.96875 335.347656 L 294.945312 335.269531 L 294.914062 335.199219 L 294.875 335.132812 L 294.832031 335.070312 L 294.78125 335.011719 L 294.726562 334.960938 L 294.664062 334.917969 L 294.59375 334.878906 L 294.515625 334.84375 L 294.433594 334.808594 L 294.347656 334.78125 L 294.253906 334.761719 L 294.152344 334.742188 L 294.046875 334.726562 L 293.933594 334.714844 L 293.816406 334.710938 L 293.691406 334.707031 L 292.3125 334.707031 L 292.3125 336.625 L 293.691406 336.625 L 293.761719 336.621094 L 293.832031 336.621094 L 293.898438 336.617188 L 293.960938 336.613281 L 294.085938 336.597656 L 294.140625 336.589844 L 294.199219 336.578125 L 294.300781 336.554688 L 294.351562 336.539062 L 294.398438 336.523438 L 294.441406 336.507812 L 294.527344 336.46875 L 294.566406 336.445312 L 294.605469 336.425781 L 294.640625 336.402344 L 294.671875 336.378906 L 294.707031 336.351562 L 294.734375 336.324219 L 294.765625 336.296875 L 294.789062 336.269531 L 294.816406 336.238281 L 294.839844 336.207031 L 294.859375 336.175781 L 294.898438 336.105469 L 294.929688 336.035156 L 294.941406 335.996094 L 294.953125 335.960938 L 294.964844 335.917969 L 294.980469 335.839844 L 294.988281 335.796875 L 294.996094 335.710938 Z M 295.34375 338.332031 L 295.34375 338.277344 L 295.335938 338.167969 L 295.320312 338.066406 L 295.308594 338.019531 L 295.292969 337.972656 L 295.277344 337.929688 L 295.238281 337.84375 L 295.191406 337.765625 L 295.167969 337.730469 L 295.113281 337.660156 L 295.082031 337.628906 L 295.011719 337.566406 L 294.976562 337.539062 L 294.9375 337.511719 L 294.898438 337.488281 L 294.8125 337.441406 L 294.671875 337.382812 L 294.570312 337.351562 L 294.515625 337.335938 L 294.40625 337.3125 L 294.347656 337.300781 L 294.230469 337.285156 L 294.167969 337.277344 L 294.042969 337.269531 L 293.976562 337.265625 L 292.3125 337.265625 L 292.3125 339.445312 L 294.03125 339.445312 L 294.265625 339.429688 L 294.429688 339.40625 L 294.480469 339.394531 L 294.535156 339.382812 L 294.585938 339.371094 L 294.636719 339.355469 L 294.730469 339.324219 L 294.816406 339.285156 L 294.859375 339.261719 L 294.9375 339.214844 L 294.976562 339.1875 L 295.011719 339.160156 L 295.046875 339.128906 L 295.078125 339.097656 L 295.109375 339.0625 L 295.164062 338.992188 L 295.191406 338.953125 L 295.214844 338.914062 L 295.238281 338.871094 L 295.257812 338.828125 L 295.277344 338.78125 L 295.292969 338.730469 L 295.308594 338.683594 L 295.320312 338.628906 L 295.328125 338.574219 L 295.335938 338.515625 L 295.34375 338.398438 Z M 295.34375 338.332031 "/>
<path fill-rule="nonzero" fill="rgb(30.196078%, 30.196078%, 30.196078%)" fill-opacity="1" d="M 421.941406 334.628906 L 421.738281 334.636719 L 421.640625 334.644531 L 421.546875 334.65625 L 421.453125 334.671875 L 421.363281 334.691406 L 421.273438 334.714844 L 421.1875 334.738281 L 421.023438 334.800781 L 420.945312 334.835938 L 420.871094 334.875 L 420.796875 334.917969 L 420.726562 334.960938 L 420.59375 335.0625 L 420.53125 335.113281 L 420.414062 335.230469 L 420.359375 335.292969 L 420.308594 335.355469 L 420.257812 335.425781 L 420.210938 335.492188 L 420.125 335.640625 L 420.085938 335.71875 L 420.015625 335.882812 L 419.953125 336.054688 L 419.929688 336.148438 L 419.90625 336.238281 L 419.882812 336.332031 L 419.851562 336.527344 L 419.828125 336.730469 L 419.820312 336.941406 L 419.816406 337.050781 L 419.824219 337.261719 L 419.839844 337.472656 L 419.855469 337.570312 L 419.871094 337.671875 L 419.890625 337.769531 L 419.910156 337.863281 L 419.964844 338.050781 L 419.996094 338.140625 L 420.027344 338.226562 L 420.105469 338.390625 L 420.144531 338.46875 L 420.1875 338.546875 L 420.234375 338.621094 L 420.335938 338.761719 L 420.390625 338.828125 L 420.445312 338.890625 L 420.503906 338.953125 L 420.566406 339.011719 L 420.632812 339.066406 L 420.765625 339.167969 L 420.839844 339.214844 L 420.914062 339.257812 L 420.988281 339.296875 L 421.066406 339.335938 L 421.148438 339.371094 L 421.320312 339.425781 L 421.40625 339.449219 L 421.496094 339.46875 L 421.589844 339.488281 L 421.679688 339.5 L 421.777344 339.507812 L 421.972656 339.515625 L 422.042969 339.515625 L 422.113281 339.511719 L 422.179688 339.507812 L 422.3125 339.492188 L 422.375 339.484375 L 422.4375 339.472656 L 422.613281 339.425781 L 422.671875 339.40625 L 422.730469 339.382812 L 422.785156 339.363281 L 422.839844 339.335938 L 422.890625 339.3125 L 422.945312 339.285156 L 422.996094 339.257812 L 423.042969 339.226562 L 423.09375 339.195312 L 423.140625 339.164062 L 423.1875 339.128906 L 423.230469 339.09375 L 423.277344 339.058594 L 423.363281 338.980469 L 423.445312 338.898438 L 423.523438 338.8125 L 423.558594 338.769531 L 423.597656 338.722656 L 423.632812 338.671875 L 423.667969 338.625 L 423.699219 338.574219 L 423.734375 338.523438 L 423.765625 338.472656 L 423.796875 338.417969 L 423.828125 338.367188 L 423.859375 338.3125 L 423.886719 338.257812 L 424.558594 338.589844 L 424.523438 338.660156 L 424.488281 338.726562 L 424.453125 338.789062 L 424.414062 338.855469 L 424.375 338.917969 L 424.246094 339.105469 L 424.105469 339.28125 L 424.054688 339.335938 L 423.945312 339.445312 L 423.890625 339.496094 L 423.832031 339.546875 L 423.773438 339.59375 L 423.648438 339.6875 L 423.585938 339.730469 L 423.519531 339.773438 L 423.453125 339.8125 L 423.382812 339.851562 L 423.242188 339.921875 L 423.167969 339.957031 L 423.089844 339.988281 L 422.933594 340.042969 L 422.851562 340.070312 L 422.769531 340.09375 L 422.597656 340.132812 L 422.507812 340.148438 L 422.417969 340.160156 L 422.324219 340.171875 L 422.230469 340.179688 L 421.9375 340.191406 L 421.789062 340.1875 L 421.648438 340.179688 L 421.511719 340.167969 L 421.375 340.152344 L 421.246094 340.132812 L 421.117188 340.105469 L 420.996094 340.078125 L 420.875 340.042969 L 420.757812 340.003906 L 420.539062 339.910156 L 420.433594 339.855469 L 420.332031 339.800781 L 420.234375 339.738281 L 420.140625 339.675781 L 420.050781 339.609375 L 419.964844 339.539062 L 419.878906 339.464844 L 419.800781 339.386719 L 419.722656 339.304688 L 419.652344 339.21875 L 419.582031 339.128906 L 419.519531 339.039062 L 419.457031 338.941406 L 419.398438 338.84375 L 419.296875 338.640625 L 419.25 338.53125 L 419.207031 338.421875 L 419.167969 338.308594 L 419.132812 338.191406 L 419.101562 338.074219 L 419.074219 337.953125 L 419.050781 337.832031 L 419.03125 337.707031 L 419.011719 337.578125 L 419 337.449219 L 418.984375 337.183594 L 418.984375 336.910156 L 418.992188 336.769531 L 419 336.636719 L 419.015625 336.503906 L 419.03125 336.375 L 419.054688 336.246094 L 419.078125 336.125 L 419.140625 335.882812 L 419.175781 335.769531 L 419.21875 335.65625 L 419.261719 335.546875 L 419.3125 335.441406 L 419.363281 335.339844 L 419.417969 335.238281 L 419.476562 335.144531 L 419.539062 335.050781 L 419.605469 334.964844 L 419.675781 334.878906 L 419.75 334.796875 L 419.824219 334.71875 L 419.90625 334.644531 L 419.992188 334.570312 L 420.078125 334.503906 L 420.167969 334.441406 L 420.265625 334.378906 L 420.363281 334.324219 L 420.464844 334.273438 L 420.570312 334.222656 L 420.675781 334.179688 L 420.789062 334.136719 L 420.902344 334.101562 L 421.019531 334.066406 L 421.140625 334.039062 L 421.265625 334.015625 L 421.390625 333.996094 L 421.523438 333.980469 L 421.65625 333.96875 L 421.792969 333.960938 L 421.929688 333.960938 L 422.121094 333.964844 L 422.304688 333.976562 L 422.484375 333.992188 L 422.652344 334.019531 L 422.820312 334.054688 L 422.976562 334.09375 L 423.128906 334.144531 L 423.273438 334.203125 L 423.414062 334.265625 L 423.546875 334.335938 L 423.671875 334.417969 L 423.792969 334.503906 L 423.90625 334.597656 L 424.011719 334.699219 L 424.109375 334.808594 L 424.203125 334.921875 L 424.285156 335.046875 L 424.363281 335.175781 L 424.4375 335.3125 L 424.5 335.460938 L 423.722656 335.71875 L 423.707031 335.675781 L 423.667969 335.589844 L 423.644531 335.546875 L 423.597656 335.46875 L 423.574219 335.425781 L 423.492188 335.308594 L 423.429688 335.230469 L 423.398438 335.195312 L 423.363281 335.15625 L 423.328125 335.121094 L 423.289062 335.089844 L 423.25 335.054688 L 423.210938 335.023438 L 423.082031 334.929688 L 422.988281 334.875 L 422.9375 334.851562 L 422.886719 334.824219 L 422.835938 334.800781 L 422.78125 334.78125 L 422.726562 334.757812 L 422.609375 334.71875 L 422.550781 334.703125 L 422.488281 334.6875 L 422.363281 334.664062 L 422.296875 334.652344 L 422.230469 334.644531 L 422.160156 334.636719 L 422.085938 334.632812 L 422.015625 334.628906 Z M 421.941406 334.628906 "/>
<path fill-rule="nonzero" fill="rgb(0%, 0%, 0%)" fill-opacity="1" d="M 269.65625 352.238281 L 268.089844 349.851562 L 266.519531 352.238281 L 265.476562 352.238281 L 267.542969 349.25 L 265.574219 346.425781 L 266.640625 346.425781 L 268.089844 348.6875 L 269.53125 346.425781 L 270.609375 346.425781 L 268.640625 349.242188 L 270.734375 352.238281 Z M 269.65625 352.238281 "/>
<path fill-rule="nonzero" fill="rgb(0%, 0%, 0%)" fill-opacity="1" d="M 13.046875 166.804688 L 13.152344 166.84375 L 13.253906 166.886719 L 13.351562 166.929688 L 13.453125 166.96875 L 13.640625 167.054688 L 13.730469 167.097656 L 13.820312 167.136719 L 14.078125 167.265625 L 14.15625 167.308594 L 14.234375 167.355469 L 14.3125 167.398438 L 14.382812 167.445312 L 14.457031 167.496094 L 14.523438 167.542969 L 14.589844 167.59375 L 14.652344 167.644531 L 14.710938 167.695312 L 14.828125 167.804688 L 14.878906 167.859375 L 14.929688 167.917969 L 14.976562 167.972656 L 15.019531 168.035156 L 15.0625 168.09375 L 15.101562 168.15625 L 15.136719 168.21875 L 15.167969 168.28125 L 15.199219 168.347656 L 15.226562 168.414062 L 15.273438 168.554688 L 15.304688 168.703125 L 15.316406 168.78125 L 15.324219 168.859375 L 15.328125 168.941406 L 15.328125 169.199219 L 15.324219 169.234375 L 15.324219 169.296875 L 15.320312 169.328125 L 15.320312 169.363281 L 15.300781 169.519531 L 15.296875 169.554688 L 15.292969 169.585938 L 15.277344 169.65625 L 15.269531 169.6875 L 14.546875 169.6875 L 14.550781 169.667969 L 14.550781 169.648438 L 14.558594 169.601562 L 14.558594 169.582031 L 14.5625 169.558594 L 14.5625 169.53125 L 14.566406 169.507812 L 14.566406 169.457031 L 14.570312 169.433594 L 14.570312 169.40625 L 14.574219 169.382812 L 14.574219 169.339844 L 14.578125 169.316406 L 14.578125 169.238281 L 14.574219 169.152344 L 14.566406 169.070312 L 14.550781 168.988281 L 14.527344 168.90625 L 14.5 168.828125 L 14.464844 168.75 L 14.421875 168.671875 L 14.375 168.597656 L 14.320312 168.523438 L 14.261719 168.449219 L 14.195312 168.375 L 14.121094 168.304688 L 14.039062 168.238281 L 13.949219 168.171875 L 13.851562 168.105469 L 13.746094 168.042969 L 13.632812 167.980469 L 13.511719 167.921875 L 13.386719 167.863281 L 13.25 167.808594 L 13.019531 167.71875 L 7.234375 170.023438 L 7.234375 168.992188 L 10.449219 167.765625 L 10.476562 167.753906 L 10.507812 167.742188 L 10.578125 167.71875 L 10.617188 167.707031 L 10.65625 167.691406 L 10.699219 167.679688 L 10.785156 167.648438 L 10.835938 167.632812 L 10.882812 167.613281 L 10.929688 167.597656 L 10.980469 167.582031 L 11.027344 167.5625 L 11.074219 167.546875 L 11.125 167.53125 L 11.171875 167.515625 L 11.222656 167.496094 L 11.316406 167.464844 L 11.367188 167.449219 L 11.414062 167.433594 L 11.457031 167.414062 L 11.503906 167.398438 L 11.546875 167.386719 L 11.632812 167.355469 L 11.671875 167.339844 L 11.714844 167.328125 L 11.753906 167.316406 L 11.789062 167.300781 L 11.824219 167.292969 L 11.855469 167.28125 L 11.910156 167.265625 L 11.933594 167.257812 L 11.953125 167.25 L 11.984375 167.242188 L 11.996094 167.238281 L 11.949219 167.226562 L 11.929688 167.21875 L 11.90625 167.214844 L 11.882812 167.203125 L 11.828125 167.1875 L 11.796875 167.175781 L 11.726562 167.152344 L 11.691406 167.136719 L 11.652344 167.125 L 11.617188 167.109375 L 11.578125 167.097656 L 11.539062 167.082031 L 11.496094 167.070312 L 11.457031 167.054688 L 11.113281 166.929688 L 11.066406 166.914062 L 11.023438 166.894531 L 10.808594 166.816406 L 10.769531 166.804688 L 10.730469 166.789062 L 10.695312 166.777344 L 10.65625 166.765625 L 10.621094 166.753906 L 10.589844 166.742188 L 10.554688 166.730469 L 7.234375 165.589844 L 7.234375 164.570312 Z M 13.046875 166.804688 "/>
</svg>
