<?xml version="1.0" encoding="UTF-8"?>
<svg xmlns="http://www.w3.org/2000/svg" xmlns:xlink="http://www.w3.org/1999/xlink" width="504" height="360" viewBox="0 0 504 360">
<defs>
<clipPath id="clip-0">
<path clip-rule="nonzero" d="M 37.082031 5.480469 L 498.519531 5.480469 L 498.519531 329.121094 L 37.082031 329.121094 Z M 37.082031 5.480469 "/>
</clipPath>
<clipPath id="clip-1">
<path clip-rule="nonzero" d="M 37.082031 304 L 498.519531 304 L 498.519531 306 L 37.082031 306 Z M 37.082031 304 "/>
</clipPath>
<clipPath id="clip-2">
<path clip-rule="nonzero" d="M 37.082031 213 L 498.519531 213 L 498.519531 214 L 37.082031 214 Z M 37.082031 213 "/>
</clipPath>
<clipPath id="clip-3">
<path clip-rule="nonzero" d="M 37.082031 121 L 498.519531 121 L 498.519531 122 L 37.082031 122 Z M 37.082031 121 "/>
</clipPath>
<clipPath id="clip-4">
<path clip-rule="nonzero" d="M 37.082031 29 L 498.519531 29 L 498.519531 30 L 37.082031 30 Z M 37.082031 29 "/>
</clipPath>
<clipPath id="clip-5">
<path clip-rule="nonzero" d="M 110 5.480469 L 111 5.480469 L 111 329.121094 L 110 329.121094 Z M 110 5.480469 "/>
</clipPath>
<clipPath id="clip-6">
<path clip-rule="nonzero" d="M 215 5.480469 L 216 5.480469 L 216 329.121094 L 215 329.121094 Z M 215 5.480469 "/>
</clipPath>
<clipPath id="clip-7">
<path clip-rule="nonzero" d="M 319 5.480469 L 321 5.480469 L 321 329.121094 L 319 329.121094 Z M 319 5.480469 "/>
</clipPath>
<clipPath id="clip-8">
<path clip-rule="nonzero" d="M 424 5.480469 L 426 5.480469 L 426 329.121094 L 424 329.121094 Z M 424 5.480469 "/>
</clipPath>
<clipPath id="clip-9">
<path clip-rule="nonzero" d="M 37.082031 258 L 498.519531 258 L 498.519531 260 L 37.082031 260 Z M 37.082031 258 "/>
</clipPath>
<clipPath id="clip-10">
<path clip-rule="nonzero" d="M 37.082031 166 L 498.519531 166 L 498.519531 168 L 37.082031 168 Z M 37.082031 166 "/>
</clipPath>
<clipPath id="clip-11">
<path clip-rule="nonzero" d="M 37.082031 74 L 498.519531 74 L 498.519531 76 L 37.082031 76 Z M 37.082031 74 "/>
</clipPath>
<clipPath id="clip-12">
<path clip-rule="nonzero" d="M 57 5.480469 L 59 5.480469 L 59 329.121094 L 57 329.121094 Z M 57 5.480469 "/>
</clipPath>
<clipPath id="clip-13">
<path clip-rule="nonzero" d="M 162 5.480469 L 164 5.480469 L 164 329.121094 L 162 329.121094 Z M 162 5.480469 "/>
</clipPath>
<clipPath id="clip-14">
<path clip-rule="nonzero" d="M 267 5.480469 L 269 5.480469 L 269 329.121094 L 267 329.121094 Z M 267 5.480469 "/>
</clipPath>
<clipPath id="clip-15">
<path clip-rule="nonzero" d="M 372 5.480469 L 374 5.480469 L 374 329.121094 L 372 329.121094 Z M 372 5.480469 "/>
</clipPath>
<clipPath id="clip-16">
<path clip-rule="nonzero" d="M 477 5.480469 L 479 5.480469 L 479 329.121094 L 477 329.121094 Z M 477 5.480469 "/>
</clipPath>
</defs>
<rect x="-50.4" y="-36" width="604.8" height="432" fill="rgb(100%, 100%, 100%)" fill-opacity="1"/>
<rect x="-50.4" y="-36" width="604.8" height="432" fill="rgb(100%, 100%, 100%)" fill-opacity="1"/>
<path fill="none" stroke-width="1.066978" stroke-linecap="round" stroke-linejoin="round" stroke="rgb(100%, 100%, 100%)" stroke-opacity="1" stroke-miterlimit="10" d="M 0 360 L 504 360 L 504 0 L 0 0 Z M 0 360 "/>
<g clip-path="url(#clip-0)">
<path fill-rule="nonzero" fill="rgb(92.156863%, 92.156863%, 92.156863%)" fill-opacity="1" d="M 37.082031 329.117188 L 498.519531 329.117188 L 498.519531 5.476562 L 37.082031 5.476562 Z M 37.082031 329.117188 "/>
</g>
<g clip-path="url(#clip-1)">
<path fill="none" stroke-width="0.533489" stroke-linecap="butt" stroke-linejoin="round" stroke="rgb(100%, 100%, 100%)" stroke-opacity="1" stroke-miterlimit="10" d="M 37.082031 305.214844 L 498.519531 305.214844 "/>
</g>
<g clip-path="url(#clip-2)">
<path fill="none" stroke-width="0.533489" stroke-linecap="butt" stroke-linejoin="round" stroke="rgb(100%, 100%, 100%)" stroke-opacity="1" stroke-miterlimit="10" d="M 37.082031 213.269531 L 498.519531 213.269531 "/>
</g>
<g clip-path="url(#clip-3)">
<path fill="none" stroke-width="0.533489" stroke-linecap="butt" stroke-linejoin="round" stroke="rgb(100%, 100%, 100%)" stroke-opacity="1" stroke-miterlimit="10" d="M 37.082031 121.328125 L 498.519531 121.328125 "/>
</g>
<g clip-path="url(#clip-4)">
<path fill="none" stroke-width="0.533489" stroke-linecap="butt" stroke-linejoin="round" stroke="rgb(100%, 100%, 100%)" stroke-opacity="1" stroke-miterlimit="10" d="M 37.082031 29.382812 L 498.519531 29.382812 "/>
</g>
<g clip-path="url(#clip-5)">
<path fill="none" stroke-width="0.533489" stroke-linecap="butt" stroke-linejoin="round" stroke="rgb(100%, 100%, 100%)" stroke-opacity="1" stroke-miterlimit="10" d="M 110.492188 329.117188 L 110.492188 5.480469 "/>
</g>
<g clip-path="url(#clip-6)">
<path fill="none" stroke-width="0.533489" stroke-linecap="butt" stroke-linejoin="round" stroke="rgb(100%, 100%, 100%)" stroke-opacity="1" stroke-miterlimit="10" d="M 215.367188 329.117188 L 215.367188 5.480469 "/>
</g>
<g clip-path="url(#clip-7)">
<path fill="none" stroke-width="0.533489" stroke-linecap="butt" stroke-linejoin="round" stroke="rgb(100%, 100%, 100%)" stroke-opacity="1" stroke-miterlimit="10" d="M 320.238281 329.117188 L 320.238281 5.480469 "/>
</g>
<g clip-path="url(#clip-8)">
<path fill="none" stroke-width="0.533489" stroke-linecap="butt" stroke-linejoin="round" stroke="rgb(100%, 100%, 100%)" stroke-opacity="1" stroke-miterlimit="10" d="M 425.109375 329.117188 L 425.109375 5.480469 "/>
</g>
<g clip-path="url(#clip-9)">
<path fill="none" stroke-width="1.066978" stroke-linecap="butt" stroke-linejoin="round" stroke="rgb(100%, 100%, 100%)" stroke-opacity="1" stroke-miterlimit="10" d="M 37.082031 259.242188 L 498.519531 259.242188 "/>
</g>
<g clip-path="url(#clip-10)">
<path fill="none" stroke-width="1.066978" stroke-linecap="butt" stroke-linejoin="round" stroke="rgb(100%, 100%, 100%)" stroke-opacity="1" stroke-miterlimit="10" d="M 37.082031 167.300781 L 498.519531 167.300781 "/>
</g>
<g clip-path="url(#clip-11)">
<path fill="none" stroke-width="1.066978" stroke-linecap="butt" stroke-linejoin="round" stroke="rgb(100%, 100%, 100%)" stroke-opacity="1" stroke-miterlimit="10" d="M 37.082031 75.355469 L 498.519531 75.355469 "/>
</g>
<g clip-path="url(#clip-12)">
<path fill="none" stroke-width="1.066978" stroke-linecap="butt" stroke-linejoin="round" stroke="rgb(100%, 100%, 100%)" stroke-opacity="1" stroke-miterlimit="10" d="M 58.058594 329.117188 L 58.058594 5.480469 "/>
</g>
<g clip-path="url(#clip-13)">
<path fill="none" stroke-width="1.066978" stroke-linecap="butt" stroke-linejoin="round" stroke="rgb(100%, 100%, 100%)" stroke-opacity="1" stroke-miterlimit="10" d="M 162.929688 329.117188 L 162.929688 5.480469 "/>
</g>
<g clip-path="url(#clip-14)">
<path fill="none" stroke-width="1.066978" stroke-linecap="butt" stroke-linejoin="round" stroke="rgb(100%, 100%, 100%)" stroke-opacity="1" stroke-miterlimit="10" d="M 267.800781 329.117188 L 267.800781 5.480469 "/>
</g>
<g clip-path="url(#clip-15)">
<path fill="none" stroke-width="1.066978" stroke-linecap="butt" stroke-linejoin="round" stroke="rgb(100%, 100%, 100%)" stroke-opacity="1" stroke-miterlimit="10" d="M 372.675781 329.117188 L 372.675781 5.480469 "/>
</g>
<g clip-path="url(#clip-16)">
<path fill="none" stroke-width="1.066978" stroke-linecap="butt" stroke-linejoin="round" stroke="rgb(100%, 100%, 100%)" stroke-opacity="1" stroke-miterlimit="10" d="M 477.546875 329.117188 L 477.546875 5.480469 "/>
</g>
<path fill="none" stroke-width="1.066978" stroke-linecap="butt" stroke-linejoin="round" stroke="rgb(0%, 0%, 0%)" stroke-opacity="1" stroke-miterlimit="10" d="M 58.058594 314.40625 L 59.105469 312.210938 L 60.15625 310.039062 L 61.203125 307.886719 L 62.253906 305.757812 L 63.300781 303.648438 L 64.347656 301.5625 L 65.398438 299.496094 L 66.445312 297.449219 L 67.496094 295.429688 L 68.542969 293.425781 L 69.59375 291.445312 L 70.640625 289.484375 L 71.691406 287.546875 L 72.738281 285.625 L 73.789062 283.726562 L 74.835938 281.851562 L 75.886719 279.992188 L 76.933594 278.15625 L 77.984375 276.339844 L 79.03125 274.539062 L 80.082031 272.761719 L 81.128906 271.003906 L 82.175781 269.269531 L 83.226562 267.550781 L 84.273438 265.851562 L 85.324219 264.171875 L 86.371094 262.507812 L 87.421875 260.867188 L 88.46875 259.246094 L 89.519531 257.640625 L 90.566406 256.058594 L 91.617188 254.492188 L 92.664062 252.941406 L 93.714844 251.414062 L 94.761719 249.902344 L 95.8125 248.410156 L 96.859375 246.933594 L 97.910156 245.476562 L 98.957031 244.039062 L 100.007812 242.617188 L 101.054688 241.214844 L 102.101562 239.828125 L 103.152344 238.460938 L 104.199219 237.109375 L 105.25 235.777344 L 106.296875 234.457031 L 107.347656 233.160156 L 108.394531 231.875 L 109.445312 230.609375 L 110.492188 229.359375 L 111.542969 228.128906 L 112.589844 226.910156 L 113.640625 225.710938 L 114.6875 224.527344 L 115.738281 223.359375 L 116.785156 222.207031 L 117.835938 221.070312 L 118.882812 219.949219 L 119.933594 218.847656 L 120.980469 217.757812 L 122.027344 216.683594 L 123.078125 215.625 L 124.125 214.582031 L 125.175781 213.554688 L 126.222656 212.542969 L 127.273438 211.542969 L 128.320312 210.558594 L 129.371094 209.59375 L 130.417969 208.636719 L 131.46875 207.699219 L 132.515625 206.773438 L 133.566406 205.863281 L 134.613281 204.964844 L 135.664062 204.082031 L 136.710938 203.214844 L 137.761719 202.359375 L 138.808594 201.515625 L 139.859375 200.691406 L 140.90625 199.875 L 141.953125 199.074219 L 143.003906 198.285156 L 144.050781 197.511719 L 145.101562 196.75 L 146.148438 196 L 147.199219 195.265625 L 148.246094 194.542969 L 149.296875 193.832031 L 150.34375 193.132812 L 151.394531 192.449219 L 152.441406 191.773438 L 153.492188 191.113281 L 154.539062 190.464844 L 155.589844 189.824219 L 156.636719 189.199219 L 157.6875 188.585938 L 158.734375 187.984375 L 159.78125 187.390625 L 160.832031 186.8125 L 161.878906 186.246094 L 162.929688 185.6875 L 163.976562 185.140625 L 165.027344 184.605469 L 166.074219 184.082031 L 167.125 183.566406 L 168.171875 183.066406 L 169.222656 182.570312 L 170.269531 182.089844 L 171.320312 181.617188 L 172.367188 181.15625 L 173.417969 180.703125 L 174.464844 180.261719 L 175.515625 179.832031 L 176.5625 179.40625 L 177.613281 178.996094 L 178.660156 178.589844 L 179.707031 178.199219 L 180.757812 177.8125 L 181.804688 177.4375 L 182.855469 177.070312 L 183.902344 176.714844 L 184.953125 176.363281 L 186 176.023438 L 187.050781 175.695312 L 188.097656 175.371094 L 189.148438 175.054688 L 190.195312 174.75 L 191.246094 174.453125 L 192.292969 174.164062 L 193.34375 173.878906 L 194.390625 173.605469 L 195.441406 173.339844 L 196.488281 173.082031 L 197.539062 172.828125 L 198.585938 172.585938 L 199.632812 172.347656 L 200.683594 172.121094 L 201.730469 171.898438 L 202.78125 171.679688 L 203.828125 171.472656 L 204.878906 171.269531 L 205.925781 171.074219 L 206.976562 170.886719 L 208.023438 170.703125 L 209.074219 170.527344 L 210.121094 170.359375 L 211.171875 170.195312 L 212.21875 170.035156 L 213.269531 169.882812 L 214.316406 169.738281 L 215.367188 169.597656 L 216.414062 169.460938 L 217.464844 169.332031 L 218.511719 169.207031 L 219.558594 169.089844 L 220.609375 168.972656 L 221.65625 168.867188 L 222.707031 168.761719 L 223.753906 168.660156 L 224.804688 168.566406 L 225.851562 168.476562 L 226.902344 168.390625 L 227.949219 168.308594 L 229 168.230469 L 230.046875 168.15625 L 231.097656 168.085938 L 232.144531 168.023438 L 233.195312 167.960938 L 234.242188 167.902344 L 235.292969 167.847656 L 237.386719 167.746094 L 238.4375 167.703125 L 239.484375 167.660156 L 240.535156 167.621094 L 241.582031 167.585938 L 242.632812 167.554688 L 243.679688 167.523438 L 244.730469 167.496094 L 245.777344 167.46875 L 246.828125 167.445312 L 247.875 167.425781 L 248.925781 167.40625 L 249.972656 167.390625 L 251.023438 167.375 L 252.070312 167.359375 L 253.121094 167.347656 L 254.167969 167.339844 L 255.21875 167.332031 L 257.3125 167.316406 L 258.363281 167.3125 L 259.410156 167.308594 L 260.460938 167.304688 L 261.507812 167.304688 L 262.558594 167.300781 L 268.851562 167.300781 L 269.898438 167.296875 L 273.046875 167.296875 L 274.09375 167.292969 L 275.144531 167.292969 L 277.238281 167.285156 L 278.289062 167.28125 L 279.335938 167.273438 L 280.386719 167.265625 L 281.433594 167.257812 L 282.484375 167.25 L 283.53125 167.238281 L 284.582031 167.222656 L 285.628906 167.207031 L 286.679688 167.191406 L 287.726562 167.171875 L 288.777344 167.152344 L 289.824219 167.128906 L 290.875 167.101562 L 291.921875 167.074219 L 292.972656 167.042969 L 294.019531 167.011719 L 295.070312 166.976562 L 296.117188 166.9375 L 297.164062 166.894531 L 298.214844 166.851562 L 299.261719 166.800781 L 300.3125 166.75 L 301.359375 166.695312 L 302.410156 166.636719 L 303.457031 166.574219 L 304.507812 166.511719 L 305.554688 166.441406 L 306.605469 166.367188 L 307.652344 166.289062 L 308.703125 166.207031 L 309.75 166.121094 L 310.800781 166.03125 L 311.847656 165.9375 L 312.898438 165.835938 L 313.945312 165.734375 L 314.992188 165.625 L 316.042969 165.507812 L 317.089844 165.390625 L 318.140625 165.265625 L 319.1875 165.136719 L 320.238281 165 L 321.285156 164.859375 L 322.335938 164.714844 L 323.382812 164.5625 L 324.433594 164.402344 L 325.480469 164.238281 L 326.53125 164.070312 L 327.578125 163.894531 L 328.628906 163.710938 L 329.675781 163.523438 L 330.726562 163.328125 L 331.773438 163.125 L 332.824219 162.917969 L 333.871094 162.699219 L 334.917969 162.476562 L 335.96875 162.25 L 337.015625 162.011719 L 338.066406 161.769531 L 339.113281 161.515625 L 340.164062 161.257812 L 341.210938 160.992188 L 342.261719 160.71875 L 343.308594 160.433594 L 344.359375 160.144531 L 345.40625 159.847656 L 346.457031 159.542969 L 347.503906 159.226562 L 348.554688 158.902344 L 349.601562 158.574219 L 350.652344 158.234375 L 351.699219 157.882812 L 352.75 157.527344 L 353.796875 157.160156 L 354.84375 156.785156 L 355.894531 156.398438 L 356.941406 156.007812 L 357.992188 155.601562 L 359.039062 155.191406 L 360.089844 154.765625 L 361.136719 154.335938 L 362.1875 153.894531 L 363.234375 153.441406 L 364.285156 152.980469 L 365.332031 152.507812 L 366.382812 152.027344 L 367.429688 151.53125 L 368.480469 151.03125 L 369.527344 150.515625 L 370.578125 149.992188 L 371.625 149.457031 L 372.675781 148.910156 L 373.722656 148.351562 L 374.769531 147.785156 L 375.820312 147.207031 L 376.867188 146.613281 L 377.917969 146.011719 L 378.964844 145.398438 L 380.015625 144.773438 L 381.0625 144.132812 L 382.113281 143.484375 L 383.160156 142.824219 L 384.210938 142.148438 L 385.257812 141.464844 L 386.308594 140.765625 L 387.355469 140.054688 L 388.40625 139.332031 L 389.453125 138.597656 L 390.503906 137.847656 L 391.550781 137.085938 L 392.597656 136.3125 L 393.648438 135.523438 L 394.695312 134.722656 L 395.746094 133.90625 L 396.792969 133.082031 L 397.84375 132.238281 L 398.890625 131.382812 L 399.941406 130.515625 L 400.988281 129.632812 L 402.039062 128.734375 L 403.085938 127.824219 L 404.136719 126.898438 L 405.183594 125.960938 L 406.234375 125.003906 L 407.28125 124.039062 L 408.332031 123.054688 L 409.378906 122.054688 L 410.429688 121.042969 L 411.476562 120.015625 L 412.523438 118.972656 L 413.574219 117.914062 L 414.621094 116.839844 L 415.671875 115.75 L 416.71875 114.648438 L 417.769531 113.527344 L 418.816406 112.390625 L 419.867188 111.238281 L 420.914062 110.070312 L 421.964844 108.886719 L 423.011719 107.6875 L 424.0625 106.46875 L 425.109375 105.238281 L 426.160156 103.988281 L 427.207031 102.722656 L 428.257812 101.4375 L 429.304688 100.140625 L 430.355469 98.820312 L 431.402344 97.488281 L 432.449219 96.136719 L 433.5 94.769531 L 434.546875 93.382812 L 435.597656 91.980469 L 436.644531 90.558594 L 437.695312 89.121094 L 438.742188 87.664062 L 439.792969 86.1875 L 440.839844 84.695312 L 441.890625 83.183594 L 442.9375 81.65625 L 443.988281 80.105469 L 445.035156 78.539062 L 446.085938 76.957031 L 447.132812 75.351562 L 448.183594 73.730469 L 449.230469 72.089844 L 450.28125 70.425781 L 451.328125 68.746094 L 452.375 67.046875 L 453.425781 65.328125 L 454.472656 63.59375 L 455.523438 61.835938 L 456.570312 60.058594 L 457.621094 58.257812 L 458.667969 56.441406 L 459.71875 54.605469 L 460.765625 52.746094 L 461.816406 50.871094 L 462.863281 48.972656 L 463.914062 47.050781 L 464.960938 45.113281 L 466.011719 43.152344 L 467.058594 41.171875 L 468.109375 39.167969 L 469.15625 37.148438 L 470.203125 35.101562 L 471.253906 33.035156 L 472.300781 30.949219 L 473.351562 28.839844 L 474.398438 26.710938 L 475.449219 24.558594 L 476.496094 22.386719 L 477.546875 20.191406 "/>
<path fill-rule="nonzero" fill="rgb(30.196078%, 30.196078%, 30.196078%)" fill-opacity="1" d="M 24.71875 260.273438 L 24.71875 259.585938 L 26.867188 259.585938 L 26.867188 260.273438 Z M 24.71875 260.273438 "/>
<path fill-rule="nonzero" fill="rgb(30.196078%, 30.196078%, 30.196078%)" fill-opacity="1" d="M 31.78125 260.296875 L 31.78125 260.386719 L 31.777344 260.476562 L 31.769531 260.5625 L 31.746094 260.734375 L 31.730469 260.816406 L 31.714844 260.894531 L 31.695312 260.976562 L 31.671875 261.054688 L 31.617188 261.203125 L 31.582031 261.277344 L 31.550781 261.347656 L 31.511719 261.417969 L 31.472656 261.484375 L 31.386719 261.609375 L 31.339844 261.667969 L 31.289062 261.726562 L 31.234375 261.785156 L 31.179688 261.835938 L 31.121094 261.886719 L 31.0625 261.933594 L 31 261.980469 L 30.933594 262.023438 L 30.863281 262.066406 L 30.792969 262.101562 L 30.71875 262.140625 L 30.5625 262.203125 L 30.480469 262.234375 L 30.308594 262.28125 L 30.222656 262.300781 L 30.035156 262.332031 L 29.839844 262.347656 L 29.738281 262.351562 L 29.632812 262.355469 L 29.539062 262.355469 L 29.445312 262.351562 L 29.359375 262.34375 L 29.269531 262.335938 L 29.1875 262.328125 L 29.105469 262.316406 L 29.023438 262.300781 L 28.945312 262.285156 L 28.871094 262.265625 L 28.730469 262.21875 L 28.664062 262.195312 L 28.597656 262.167969 L 28.535156 262.140625 L 28.472656 262.109375 L 28.414062 262.078125 L 28.359375 262.046875 L 28.304688 262.011719 L 28.253906 261.976562 L 28.203125 261.9375 L 28.15625 261.898438 L 28.0625 261.8125 L 28.023438 261.769531 L 27.980469 261.722656 L 27.945312 261.675781 L 27.90625 261.628906 L 27.875 261.582031 L 27.839844 261.53125 L 27.8125 261.476562 L 27.785156 261.425781 L 27.757812 261.371094 L 27.710938 261.261719 L 27.691406 261.207031 L 27.671875 261.148438 L 27.652344 261.09375 L 27.621094 260.976562 L 27.609375 260.914062 L 28.390625 260.824219 L 28.402344 260.859375 L 28.410156 260.894531 L 28.421875 260.925781 L 28.433594 260.960938 L 28.449219 260.996094 L 28.460938 261.027344 L 28.476562 261.0625 L 28.492188 261.09375 L 28.507812 261.128906 L 28.523438 261.160156 L 28.582031 261.253906 L 28.601562 261.28125 L 28.625 261.3125 L 28.648438 261.339844 L 28.675781 261.367188 L 28.699219 261.394531 L 28.726562 261.421875 L 28.757812 261.449219 L 28.851562 261.519531 L 28.886719 261.539062 L 28.921875 261.5625 L 28.960938 261.582031 L 29 261.597656 L 29.039062 261.617188 L 29.078125 261.632812 L 29.121094 261.648438 L 29.167969 261.664062 L 29.261719 261.6875 L 29.363281 261.703125 L 29.417969 261.710938 L 29.472656 261.714844 L 29.589844 261.722656 L 29.710938 261.722656 L 29.769531 261.71875 L 29.824219 261.714844 L 29.882812 261.707031 L 29.992188 261.691406 L 30.042969 261.679688 L 30.097656 261.664062 L 30.148438 261.648438 L 30.195312 261.632812 L 30.246094 261.613281 L 30.292969 261.589844 L 30.335938 261.570312 L 30.464844 261.488281 L 30.542969 261.425781 L 30.578125 261.394531 L 30.613281 261.359375 L 30.648438 261.320312 L 30.710938 261.242188 L 30.742188 261.199219 L 30.769531 261.15625 L 30.792969 261.113281 L 30.820312 261.066406 L 30.84375 261.015625 L 30.863281 260.96875 L 30.882812 260.914062 L 30.902344 260.863281 L 30.917969 260.808594 L 30.933594 260.75 L 30.945312 260.691406 L 30.953125 260.632812 L 30.964844 260.574219 L 30.96875 260.511719 L 30.972656 260.445312 L 30.976562 260.382812 L 30.976562 260.257812 L 30.972656 260.203125 L 30.96875 260.152344 L 30.964844 260.097656 L 30.957031 260.046875 L 30.933594 259.945312 L 30.921875 259.898438 L 30.90625 259.847656 L 30.886719 259.800781 L 30.867188 259.757812 L 30.847656 259.710938 L 30.828125 259.667969 L 30.804688 259.625 L 30.777344 259.582031 L 30.722656 259.503906 L 30.695312 259.46875 L 30.664062 259.433594 L 30.628906 259.398438 L 30.597656 259.363281 L 30.558594 259.332031 L 30.523438 259.300781 L 30.484375 259.273438 L 30.441406 259.246094 L 30.402344 259.21875 L 30.359375 259.195312 L 30.3125 259.171875 L 30.21875 259.132812 L 30.167969 259.113281 L 30.066406 259.082031 L 30.015625 259.070312 L 29.960938 259.0625 L 29.902344 259.050781 L 29.847656 259.046875 L 29.730469 259.039062 L 29.554688 259.039062 L 29.519531 259.042969 L 29.480469 259.046875 L 29.410156 259.054688 L 29.378906 259.058594 L 29.34375 259.066406 L 29.3125 259.070312 L 29.277344 259.078125 L 29.214844 259.09375 L 29.183594 259.105469 L 29.121094 259.121094 L 29.09375 259.132812 L 29.0625 259.144531 L 29.035156 259.15625 L 29.003906 259.167969 L 28.980469 259.179688 L 28.925781 259.203125 L 28.898438 259.21875 L 28.875 259.230469 L 28.847656 259.246094 L 28.707031 259.339844 L 28.6875 259.355469 L 28.664062 259.371094 L 28.644531 259.386719 L 28.621094 259.402344 L 28.601562 259.421875 L 28.5625 259.453125 L 28.542969 259.472656 L 27.785156 259.472656 L 27.988281 256.214844 L 31.429688 256.214844 L 31.429688 256.871094 L 28.691406 256.871094 L 28.574219 258.792969 L 28.617188 258.761719 L 28.664062 258.730469 L 28.710938 258.703125 L 28.757812 258.671875 L 28.859375 258.617188 L 28.914062 258.59375 L 28.972656 258.570312 L 29.03125 258.542969 L 29.089844 258.523438 L 29.15625 258.5 L 29.21875 258.480469 L 29.289062 258.460938 L 29.359375 258.449219 L 29.429688 258.433594 L 29.503906 258.425781 L 29.660156 258.410156 L 29.742188 258.40625 L 29.914062 258.40625 L 30.003906 258.410156 L 30.089844 258.417969 L 30.253906 258.441406 L 30.335938 258.457031 L 30.414062 258.472656 L 30.492188 258.492188 L 30.566406 258.515625 L 30.636719 258.542969 L 30.710938 258.570312 L 30.777344 258.601562 L 30.910156 258.671875 L 30.972656 258.710938 L 31.03125 258.75 L 31.148438 258.835938 L 31.203125 258.886719 L 31.253906 258.933594 L 31.300781 258.984375 L 31.351562 259.039062 L 31.4375 259.148438 L 31.476562 259.207031 L 31.515625 259.269531 L 31.585938 259.394531 L 31.617188 259.464844 L 31.644531 259.53125 L 31.671875 259.601562 L 31.695312 259.671875 L 31.714844 259.746094 L 31.730469 259.820312 L 31.746094 259.898438 L 31.757812 259.972656 L 31.769531 260.050781 L 31.777344 260.132812 L 31.78125 260.214844 Z M 31.78125 260.296875 "/>
<path fill-rule="nonzero" fill="rgb(30.196078%, 30.196078%, 30.196078%)" fill-opacity="1" d="M 31.808594 167.296875 L 31.804688 167.46875 L 31.800781 167.632812 L 31.792969 167.796875 L 31.78125 167.949219 L 31.765625 168.101562 L 31.746094 168.246094 L 31.726562 168.382812 L 31.699219 168.515625 L 31.671875 168.644531 L 31.640625 168.765625 L 31.605469 168.882812 L 31.570312 168.996094 L 31.53125 169.101562 L 31.445312 169.304688 L 31.398438 169.398438 L 31.351562 169.488281 L 31.300781 169.570312 L 31.246094 169.652344 L 31.1875 169.730469 L 31.132812 169.800781 L 31.070312 169.867188 L 31.007812 169.929688 L 30.945312 169.988281 L 30.878906 170.042969 L 30.8125 170.09375 L 30.742188 170.140625 L 30.59375 170.21875 L 30.519531 170.253906 L 30.363281 170.308594 L 30.28125 170.335938 L 30.199219 170.355469 L 30.035156 170.386719 L 29.953125 170.398438 L 29.867188 170.40625 L 29.78125 170.410156 L 29.605469 170.410156 L 29.519531 170.40625 L 29.433594 170.398438 L 29.347656 170.386719 L 29.183594 170.355469 L 29.101562 170.335938 L 28.867188 170.253906 L 28.792969 170.21875 L 28.71875 170.179688 L 28.648438 170.140625 L 28.578125 170.09375 L 28.511719 170.042969 L 28.445312 169.988281 L 28.382812 169.929688 L 28.320312 169.867188 L 28.261719 169.800781 L 28.203125 169.730469 L 28.09375 169.574219 L 28.046875 169.488281 L 27.996094 169.398438 L 27.953125 169.304688 L 27.910156 169.207031 L 27.867188 169.105469 L 27.828125 169 L 27.792969 168.886719 L 27.757812 168.769531 L 27.730469 168.648438 L 27.703125 168.519531 L 27.679688 168.386719 L 27.65625 168.246094 L 27.640625 168.101562 L 27.625 167.953125 L 27.613281 167.796875 L 27.605469 167.636719 L 27.601562 167.46875 L 27.601562 167.117188 L 27.605469 166.941406 L 27.613281 166.777344 L 27.625 166.617188 L 27.640625 166.460938 L 27.65625 166.3125 L 27.679688 166.171875 L 27.703125 166.035156 L 27.730469 165.90625 L 27.757812 165.785156 L 27.792969 165.667969 L 27.828125 165.554688 L 27.867188 165.445312 L 27.953125 165.242188 L 28.046875 165.0625 L 28.097656 164.976562 L 28.152344 164.898438 L 28.207031 164.824219 L 28.324219 164.691406 L 28.449219 164.574219 L 28.515625 164.523438 L 28.585938 164.476562 L 28.652344 164.433594 L 28.726562 164.394531 L 28.800781 164.359375 L 28.875 164.328125 L 28.953125 164.300781 L 29.035156 164.273438 L 29.113281 164.253906 L 29.199219 164.234375 L 29.28125 164.21875 L 29.367188 164.203125 L 29.539062 164.1875 L 29.71875 164.179688 L 29.890625 164.1875 L 29.972656 164.195312 L 30.058594 164.203125 L 30.140625 164.21875 L 30.21875 164.234375 L 30.300781 164.253906 L 30.378906 164.273438 L 30.453125 164.300781 L 30.53125 164.328125 L 30.605469 164.359375 L 30.679688 164.394531 L 30.75 164.433594 L 30.820312 164.476562 L 30.890625 164.523438 L 30.953125 164.574219 L 31.019531 164.632812 L 31.078125 164.691406 L 31.140625 164.757812 L 31.195312 164.824219 L 31.253906 164.898438 L 31.304688 164.976562 L 31.355469 165.0625 L 31.40625 165.152344 L 31.449219 165.242188 L 31.496094 165.34375 L 31.535156 165.445312 L 31.574219 165.554688 L 31.609375 165.667969 L 31.644531 165.785156 L 31.675781 165.90625 L 31.703125 166.035156 L 31.726562 166.171875 L 31.75 166.3125 L 31.765625 166.460938 L 31.78125 166.617188 L 31.792969 166.777344 L 31.800781 166.941406 L 31.804688 167.117188 Z M 31.019531 167.296875 L 31.019531 167.019531 L 31.011719 166.886719 L 31.007812 166.757812 L 31 166.636719 L 30.988281 166.519531 L 30.980469 166.40625 L 30.964844 166.296875 L 30.953125 166.195312 L 30.933594 166.097656 L 30.917969 166.003906 L 30.898438 165.914062 L 30.875 165.828125 L 30.851562 165.746094 L 30.828125 165.667969 L 30.800781 165.589844 L 30.773438 165.519531 L 30.746094 165.453125 L 30.714844 165.390625 L 30.679688 165.332031 L 30.648438 165.277344 L 30.613281 165.226562 L 30.574219 165.175781 L 30.535156 165.128906 L 30.496094 165.089844 L 30.453125 165.050781 L 30.410156 165.015625 L 30.363281 164.980469 L 30.316406 164.953125 L 30.269531 164.929688 L 30.21875 164.90625 L 30.171875 164.886719 L 30.117188 164.867188 L 30.066406 164.851562 L 29.957031 164.828125 L 29.839844 164.8125 L 29.78125 164.808594 L 29.65625 164.808594 L 29.589844 164.8125 L 29.53125 164.820312 L 29.46875 164.828125 L 29.410156 164.839844 L 29.355469 164.851562 L 29.300781 164.867188 L 29.246094 164.886719 L 29.195312 164.90625 L 29.09375 164.953125 L 29 165.015625 L 28.957031 165.050781 L 28.914062 165.089844 L 28.871094 165.132812 L 28.832031 165.179688 L 28.792969 165.230469 L 28.757812 165.28125 L 28.722656 165.335938 L 28.691406 165.394531 L 28.660156 165.457031 L 28.628906 165.523438 L 28.574219 165.671875 L 28.550781 165.75 L 28.527344 165.832031 L 28.507812 165.917969 L 28.488281 166.007812 L 28.46875 166.101562 L 28.453125 166.199219 L 28.4375 166.300781 L 28.425781 166.410156 L 28.414062 166.523438 L 28.402344 166.640625 L 28.398438 166.761719 L 28.390625 166.886719 L 28.386719 167.019531 L 28.382812 167.15625 L 28.382812 167.433594 L 28.386719 167.566406 L 28.390625 167.695312 L 28.398438 167.820312 L 28.402344 167.9375 L 28.414062 168.054688 L 28.425781 168.164062 L 28.4375 168.269531 L 28.453125 168.371094 L 28.46875 168.46875 L 28.488281 168.5625 L 28.507812 168.652344 L 28.53125 168.738281 L 28.578125 168.902344 L 28.605469 168.976562 L 28.632812 169.046875 L 28.695312 169.179688 L 28.726562 169.238281 L 28.796875 169.347656 L 28.835938 169.398438 L 28.875 169.445312 L 28.917969 169.488281 L 28.960938 169.527344 L 29.046875 169.597656 L 29.09375 169.628906 L 29.144531 169.65625 L 29.191406 169.679688 L 29.242188 169.699219 L 29.296875 169.71875 L 29.40625 169.75 L 29.460938 169.761719 L 29.519531 169.769531 L 29.578125 169.773438 L 29.703125 169.78125 L 29.878906 169.769531 L 29.9375 169.761719 L 29.992188 169.75 L 30.046875 169.734375 L 30.097656 169.71875 L 30.152344 169.699219 L 30.203125 169.679688 L 30.25 169.65625 L 30.300781 169.628906 L 30.347656 169.597656 L 30.433594 169.527344 L 30.476562 169.488281 L 30.519531 169.445312 L 30.558594 169.398438 L 30.59375 169.347656 L 30.664062 169.238281 L 30.699219 169.179688 L 30.761719 169.046875 L 30.789062 168.976562 L 30.816406 168.902344 L 30.863281 168.738281 L 30.886719 168.652344 L 30.90625 168.5625 L 30.925781 168.46875 L 30.945312 168.371094 L 30.960938 168.269531 L 30.976562 168.164062 L 30.988281 168.054688 L 30.996094 167.9375 L 31.007812 167.820312 L 31.011719 167.695312 L 31.015625 167.566406 L 31.019531 167.433594 Z M 31.019531 167.296875 "/>
<path fill-rule="nonzero" fill="rgb(30.196078%, 30.196078%, 30.196078%)" fill-opacity="1" d="M 31.78125 76.410156 L 31.78125 76.5 L 31.777344 76.589844 L 31.769531 76.675781 L 31.746094 76.847656 L 31.714844 77.011719 L 31.695312 77.089844 L 31.671875 77.167969 L 31.644531 77.246094 L 31.617188 77.320312 L 31.582031 77.390625 L 31.550781 77.460938 L 31.511719 77.53125 L 31.472656 77.597656 L 31.386719 77.722656 L 31.339844 77.785156 L 31.289062 77.839844 L 31.234375 77.898438 L 31.179688 77.949219 L 31.0625 78.050781 L 31 78.09375 L 30.933594 78.136719 L 30.863281 78.179688 L 30.792969 78.21875 L 30.71875 78.253906 L 30.640625 78.289062 L 30.5625 78.320312 L 30.480469 78.347656 L 30.308594 78.394531 L 30.222656 78.414062 L 30.035156 78.445312 L 29.9375 78.457031 L 29.839844 78.464844 L 29.738281 78.46875 L 29.539062 78.46875 L 29.445312 78.464844 L 29.359375 78.460938 L 29.269531 78.453125 L 29.105469 78.429688 L 29.023438 78.414062 L 28.945312 78.398438 L 28.871094 78.378906 L 28.800781 78.355469 L 28.730469 78.335938 L 28.597656 78.28125 L 28.472656 78.226562 L 28.414062 78.195312 L 28.304688 78.125 L 28.253906 78.089844 L 28.203125 78.050781 L 28.15625 78.011719 L 28.109375 77.96875 L 28.0625 77.929688 L 28.023438 77.882812 L 27.980469 77.839844 L 27.945312 77.792969 L 27.90625 77.742188 L 27.875 77.695312 L 27.839844 77.644531 L 27.8125 77.59375 L 27.757812 77.484375 L 27.734375 77.433594 L 27.710938 77.375 L 27.671875 77.265625 L 27.652344 77.207031 L 27.621094 77.089844 L 27.609375 77.03125 L 28.390625 76.9375 L 28.402344 76.972656 L 28.410156 77.007812 L 28.421875 77.042969 L 28.433594 77.074219 L 28.449219 77.109375 L 28.460938 77.140625 L 28.476562 77.175781 L 28.492188 77.207031 L 28.507812 77.242188 L 28.523438 77.273438 L 28.601562 77.398438 L 28.648438 77.453125 L 28.675781 77.480469 L 28.699219 77.507812 L 28.726562 77.535156 L 28.757812 77.5625 L 28.851562 77.632812 L 28.886719 77.65625 L 28.921875 77.675781 L 29 77.714844 L 29.039062 77.730469 L 29.078125 77.75 L 29.121094 77.765625 L 29.261719 77.800781 L 29.3125 77.8125 L 29.363281 77.820312 L 29.417969 77.824219 L 29.472656 77.832031 L 29.53125 77.835938 L 29.710938 77.835938 L 29.769531 77.832031 L 29.824219 77.828125 L 29.882812 77.824219 L 29.9375 77.816406 L 29.992188 77.804688 L 30.042969 77.792969 L 30.097656 77.78125 L 30.148438 77.765625 L 30.195312 77.746094 L 30.246094 77.726562 L 30.292969 77.707031 L 30.335938 77.683594 L 30.378906 77.65625 L 30.421875 77.632812 L 30.464844 77.601562 L 30.503906 77.574219 L 30.542969 77.539062 L 30.578125 77.507812 L 30.613281 77.472656 L 30.648438 77.433594 L 30.679688 77.398438 L 30.710938 77.355469 L 30.742188 77.316406 L 30.769531 77.269531 L 30.792969 77.226562 L 30.820312 77.179688 L 30.84375 77.132812 L 30.882812 77.03125 L 30.902344 76.976562 L 30.933594 76.867188 L 30.945312 76.808594 L 30.953125 76.75 L 30.964844 76.6875 L 30.972656 76.5625 L 30.976562 76.496094 L 30.976562 76.371094 L 30.972656 76.316406 L 30.96875 76.265625 L 30.964844 76.210938 L 30.957031 76.160156 L 30.933594 76.058594 L 30.921875 76.011719 L 30.90625 75.964844 L 30.847656 75.824219 L 30.828125 75.78125 L 30.804688 75.738281 L 30.777344 75.699219 L 30.75 75.65625 L 30.722656 75.621094 L 30.695312 75.582031 L 30.664062 75.546875 L 30.597656 75.480469 L 30.558594 75.445312 L 30.523438 75.417969 L 30.484375 75.386719 L 30.441406 75.359375 L 30.402344 75.335938 L 30.359375 75.308594 L 30.3125 75.289062 L 30.265625 75.265625 L 30.21875 75.246094 L 30.167969 75.226562 L 30.117188 75.210938 L 30.015625 75.1875 L 29.960938 75.175781 L 29.902344 75.167969 L 29.847656 75.160156 L 29.730469 75.152344 L 29.589844 75.152344 L 29.554688 75.15625 L 29.519531 75.15625 L 29.480469 75.160156 L 29.410156 75.167969 L 29.378906 75.175781 L 29.34375 75.179688 L 29.3125 75.1875 L 29.277344 75.195312 L 29.246094 75.199219 L 29.214844 75.210938 L 29.152344 75.226562 L 29.121094 75.238281 L 29.09375 75.246094 L 29.0625 75.257812 L 29.035156 75.269531 L 29.003906 75.28125 L 28.980469 75.292969 L 28.953125 75.304688 L 28.925781 75.320312 L 28.898438 75.332031 L 28.875 75.347656 L 28.847656 75.359375 L 28.707031 75.453125 L 28.6875 75.46875 L 28.664062 75.484375 L 28.644531 75.503906 L 28.621094 75.519531 L 28.582031 75.550781 L 28.5625 75.570312 L 28.542969 75.585938 L 27.785156 75.585938 L 27.988281 72.328125 L 31.429688 72.328125 L 31.429688 72.984375 L 28.691406 72.984375 L 28.574219 74.90625 L 28.617188 74.875 L 28.664062 74.84375 L 28.757812 74.789062 L 28.859375 74.734375 L 28.914062 74.707031 L 29.089844 74.636719 L 29.15625 74.613281 L 29.21875 74.59375 L 29.359375 74.5625 L 29.429688 74.550781 L 29.503906 74.539062 L 29.660156 74.523438 L 29.742188 74.519531 L 29.828125 74.519531 L 29.914062 74.523438 L 30.003906 74.527344 L 30.089844 74.53125 L 30.253906 74.554688 L 30.335938 74.570312 L 30.414062 74.585938 L 30.492188 74.609375 L 30.566406 74.632812 L 30.636719 74.65625 L 30.710938 74.6875 L 30.84375 74.75 L 30.910156 74.785156 L 30.972656 74.824219 L 31.03125 74.863281 L 31.089844 74.90625 L 31.148438 74.953125 L 31.203125 75 L 31.253906 75.046875 L 31.300781 75.101562 L 31.351562 75.152344 L 31.394531 75.207031 L 31.4375 75.265625 L 31.515625 75.382812 L 31.550781 75.445312 L 31.585938 75.511719 L 31.617188 75.578125 L 31.644531 75.644531 L 31.671875 75.714844 L 31.695312 75.789062 L 31.714844 75.859375 L 31.730469 75.933594 L 31.746094 76.011719 L 31.769531 76.167969 L 31.777344 76.246094 L 31.78125 76.328125 Z M 31.78125 76.410156 "/>
<path fill="none" stroke-width="1.066978" stroke-linecap="butt" stroke-linejoin="round" stroke="rgb(20%, 20%, 20%)" stroke-opacity="1" stroke-miterlimit="10" d="M 34.34375 259.242188 L 37.082031 259.242188 "/>
<path fill="none" stroke-width="1.066978" stroke-linecap="butt" stroke-linejoin="round" stroke="rgb(20%, 20%, 20%)" stroke-opacity="1" stroke-miterlimit="10" d="M 34.34375 167.300781 L 37.082031 167.300781 "/>
<path fill="none" stroke-width="1.066978" stroke-linecap="butt" stroke-linejoin="round" stroke="rgb(20%, 20%, 20%)" stroke-opacity="1" stroke-miterlimit="10" d="M 34.34375 75.355469 L 37.082031 75.355469 "/>
<path fill="none" stroke-width="1.066978" stroke-linecap="butt" stroke-linejoin="round" stroke="rgb(20%, 20%, 20%)" stroke-opacity="1" stroke-miterlimit="10" d="M 58.058594 331.859375 L 58.058594 329.117188 "/>
<path fill="none" stroke-width="1.066978" stroke-linecap="butt" stroke-linejoin="round" stroke="rgb(20%, 20%, 20%)" stroke-opacity="1" stroke-miterlimit="10" d="M 162.929688 331.859375 L 162.929688 329.117188 "/>
<path fill="none" stroke-width="1.066978" stroke-linecap="butt" stroke-linejoin="round" stroke="rgb(20%, 20%, 20%)" stroke-opacity="1" stroke-miterlimit="10" d="M 267.800781 331.859375 L 267.800781 329.117188 "/>
<path fill="none" stroke-width="1.066978" stroke-linecap="butt" stroke-linejoin="round" stroke="rgb(20%, 20%, 20%)" stroke-opacity="1" stroke-miterlimit="10" d="M 372.675781 331.859375 L 372.675781 329.117188 "/>
<path fill="none" stroke-width="1.066978" stroke-linecap="butt" stroke-linejoin="round" stroke="rgb(20%, 20%, 20%)" stroke-opacity="1" stroke-miterlimit="10" d="M 477.546875 331.859375 L 477.546875 329.117188 "/>
<path fill-rule="nonzero" fill="rgb(30.196078%, 30.196078%, 30.196078%)" fill-opacity="1" d="M 54.535156 338.109375 L 54.535156 337.421875 L 56.683594 337.421875 L 56.683594 338.109375 Z M 54.535156 338.109375 "/>
<path fill-rule="nonzero" fill="rgb(30.196078%, 30.196078%, 30.196078%)" fill-opacity="1" d="M 57.519531 340.105469 L 57.519531 339.558594 L 57.5625 339.460938 L 57.65625 339.265625 L 57.707031 339.175781 L 57.761719 339.085938 L 57.871094 338.914062 L 57.988281 338.75 L 58.050781 338.671875 L 58.113281 338.597656 L 58.246094 338.449219 L 58.308594 338.375 L 58.375 338.304688 L 58.511719 338.167969 L 58.578125 338.105469 L 58.648438 338.039062 L 58.714844 337.976562 L 58.785156 337.914062 L 58.855469 337.855469 L 58.925781 337.792969 L 58.992188 337.734375 L 59.132812 337.617188 L 59.199219 337.5625 L 59.269531 337.503906 L 59.335938 337.449219 L 59.402344 337.398438 L 59.472656 337.34375 L 59.539062 337.289062 L 59.605469 337.238281 L 59.730469 337.128906 L 59.792969 337.078125 L 59.851562 337.023438 L 59.910156 336.972656 L 59.96875 336.917969 L 60.023438 336.863281 L 60.078125 336.8125 L 60.179688 336.703125 L 60.226562 336.648438 L 60.269531 336.589844 L 60.355469 336.480469 L 60.394531 336.421875 L 60.5 336.246094 L 60.527344 336.1875 L 60.554688 336.125 L 60.59375 335.992188 L 60.609375 335.925781 L 60.621094 335.859375 L 60.636719 335.71875 L 60.636719 335.59375 L 60.632812 335.542969 L 60.625 335.449219 L 60.617188 335.402344 L 60.609375 335.359375 L 60.574219 335.230469 L 60.542969 335.152344 L 60.527344 335.117188 L 60.507812 335.078125 L 60.488281 335.046875 L 60.464844 335.011719 L 60.417969 334.949219 L 60.390625 334.917969 L 60.308594 334.835938 L 60.277344 334.8125 L 60.242188 334.789062 L 60.210938 334.765625 L 60.140625 334.726562 L 60.101562 334.710938 L 60.0625 334.691406 L 60.023438 334.679688 L 59.984375 334.664062 L 59.945312 334.652344 L 59.859375 334.628906 L 59.816406 334.621094 L 59.769531 334.613281 L 59.726562 334.605469 L 59.632812 334.597656 L 59.582031 334.597656 L 59.53125 334.59375 L 59.488281 334.597656 L 59.441406 334.597656 L 59.394531 334.601562 L 59.351562 334.605469 L 59.308594 334.613281 L 59.265625 334.617188 L 59.222656 334.628906 L 59.179688 334.636719 L 59.09375 334.660156 L 59.054688 334.671875 L 58.976562 334.703125 L 58.941406 334.722656 L 58.902344 334.742188 L 58.832031 334.78125 L 58.800781 334.804688 L 58.765625 334.828125 L 58.734375 334.851562 L 58.671875 334.90625 L 58.644531 334.9375 L 58.617188 334.964844 L 58.589844 335 L 58.5625 335.03125 L 58.492188 335.136719 L 58.433594 335.253906 L 58.417969 335.292969 L 58.402344 335.335938 L 58.390625 335.378906 L 58.367188 335.472656 L 58.359375 335.519531 L 58.347656 335.566406 L 58.34375 335.617188 L 57.550781 335.546875 L 57.5625 335.480469 L 57.570312 335.414062 L 57.617188 335.226562 L 57.636719 335.167969 L 57.65625 335.105469 L 57.679688 335.046875 L 57.734375 334.929688 L 57.761719 334.875 L 57.792969 334.820312 L 57.863281 334.710938 L 57.902344 334.660156 L 57.941406 334.613281 L 57.984375 334.5625 L 58.027344 334.515625 L 58.074219 334.472656 L 58.226562 334.34375 L 58.28125 334.304688 L 58.339844 334.269531 L 58.398438 334.230469 L 58.457031 334.199219 L 58.519531 334.167969 L 58.585938 334.136719 L 58.652344 334.109375 L 58.722656 334.085938 L 58.792969 334.058594 L 58.941406 334.019531 L 59.019531 334.003906 L 59.183594 333.980469 L 59.265625 333.972656 L 59.351562 333.964844 L 59.441406 333.960938 L 59.621094 333.960938 L 59.710938 333.964844 L 59.792969 333.96875 L 59.878906 333.976562 L 59.960938 333.988281 L 60.117188 334.011719 L 60.191406 334.027344 L 60.265625 334.046875 L 60.335938 334.066406 L 60.40625 334.089844 L 60.472656 334.113281 L 60.539062 334.140625 L 60.601562 334.167969 L 60.660156 334.199219 L 60.71875 334.234375 L 60.828125 334.304688 L 60.878906 334.34375 L 60.929688 334.386719 L 61.023438 334.472656 L 61.066406 334.519531 L 61.183594 334.671875 L 61.214844 334.726562 L 61.277344 334.84375 L 61.304688 334.90625 L 61.351562 335.03125 L 61.371094 335.097656 L 61.386719 335.167969 L 61.410156 335.308594 L 61.421875 335.382812 L 61.433594 335.617188 L 61.429688 335.679688 L 61.429688 335.738281 L 61.40625 335.914062 L 61.390625 335.972656 L 61.378906 336.03125 L 61.359375 336.085938 L 61.34375 336.144531 L 61.273438 336.308594 L 61.25 336.359375 L 61.222656 336.414062 L 61.195312 336.464844 L 61.164062 336.519531 L 61.132812 336.570312 L 61.097656 336.621094 L 61.066406 336.671875 L 61.027344 336.722656 L 60.992188 336.773438 L 60.953125 336.820312 L 60.914062 336.871094 L 60.875 336.917969 L 60.832031 336.96875 L 60.746094 337.0625 L 60.699219 337.109375 L 60.65625 337.15625 L 60.605469 337.203125 L 60.511719 337.296875 L 60.460938 337.34375 L 60.410156 337.386719 L 60.359375 337.433594 L 60.3125 337.480469 L 60.261719 337.523438 L 60.207031 337.570312 L 60.15625 337.613281 L 60.105469 337.660156 L 60.050781 337.703125 L 60 337.746094 L 59.945312 337.789062 L 59.894531 337.835938 L 59.839844 337.878906 L 59.789062 337.921875 L 59.734375 337.964844 L 59.683594 338.011719 L 59.574219 338.097656 L 59.523438 338.140625 L 59.46875 338.183594 L 59.265625 338.355469 L 59.21875 338.398438 L 59.167969 338.445312 L 59.027344 338.574219 L 58.894531 338.707031 L 58.851562 338.753906 L 58.8125 338.796875 L 58.773438 338.84375 L 58.730469 338.886719 L 58.695312 338.933594 L 58.65625 338.976562 L 58.585938 339.070312 L 58.554688 339.113281 L 58.492188 339.207031 L 58.4375 339.300781 L 58.414062 339.347656 L 58.390625 339.398438 L 58.367188 339.445312 L 61.527344 339.445312 L 61.527344 340.105469 Z M 57.519531 340.105469 "/>
<path fill-rule="nonzero" fill="rgb(30.196078%, 30.196078%, 30.196078%)" fill-opacity="1" d="M 159.40625 338.109375 L 159.40625 337.421875 L 161.554688 337.421875 L 161.554688 338.109375 Z M 159.40625 338.109375 "/>
<path fill-rule="nonzero" fill="rgb(30.196078%, 30.196078%, 30.196078%)" fill-opacity="1" d="M 162.617188 340.105469 L 162.617188 339.445312 L 164.160156 339.445312 L 164.160156 334.789062 L 162.792969 335.765625 L 162.792969 335.035156 L 164.226562 334.050781 L 164.9375 334.050781 L 164.9375 339.445312 L 166.410156 339.445312 L 166.410156 340.105469 Z M 162.617188 340.105469 "/>
<path fill-rule="nonzero" fill="rgb(30.196078%, 30.196078%, 30.196078%)" fill-opacity="1" d="M 269.90625 337.074219 L 269.902344 337.246094 L 269.898438 337.414062 L 269.890625 337.574219 L 269.878906 337.730469 L 269.863281 337.878906 L 269.84375 338.023438 L 269.824219 338.160156 L 269.796875 338.292969 L 269.769531 338.421875 L 269.738281 338.542969 L 269.703125 338.660156 L 269.667969 338.773438 L 269.628906 338.878906 L 269.585938 338.984375 L 269.542969 339.082031 L 269.496094 339.175781 L 269.449219 339.265625 L 269.394531 339.351562 L 269.34375 339.429688 L 269.285156 339.507812 L 269.226562 339.578125 L 269.167969 339.644531 L 269.105469 339.707031 L 269.042969 339.765625 L 268.976562 339.820312 L 268.910156 339.871094 L 268.839844 339.917969 L 268.765625 339.960938 L 268.617188 340.03125 L 268.539062 340.0625 L 268.460938 340.089844 L 268.378906 340.113281 L 268.296875 340.132812 L 268.132812 340.164062 L 268.050781 340.175781 L 267.964844 340.183594 L 267.878906 340.1875 L 267.789062 340.191406 L 267.617188 340.183594 L 267.53125 340.175781 L 267.445312 340.164062 L 267.28125 340.132812 L 267.199219 340.113281 L 267.121094 340.089844 L 267.042969 340.0625 L 266.964844 340.03125 L 266.816406 339.960938 L 266.746094 339.917969 L 266.675781 339.871094 L 266.609375 339.820312 L 266.542969 339.765625 L 266.480469 339.707031 L 266.417969 339.644531 L 266.359375 339.578125 L 266.300781 339.507812 L 266.191406 339.351562 L 266.144531 339.265625 L 266.09375 339.179688 L 266.050781 339.085938 L 266.007812 338.988281 L 265.964844 338.882812 L 265.925781 338.777344 L 265.890625 338.664062 L 265.855469 338.546875 L 265.828125 338.425781 L 265.800781 338.296875 L 265.777344 338.164062 L 265.753906 338.027344 L 265.738281 337.882812 L 265.722656 337.730469 L 265.710938 337.574219 L 265.703125 337.414062 L 265.699219 337.246094 L 265.699219 336.894531 L 265.703125 336.722656 L 265.710938 336.554688 L 265.722656 336.394531 L 265.738281 336.238281 L 265.753906 336.089844 L 265.777344 335.949219 L 265.800781 335.8125 L 265.828125 335.683594 L 265.855469 335.5625 L 265.890625 335.445312 L 265.925781 335.332031 L 265.964844 335.222656 L 266.007812 335.121094 L 266.050781 335.023438 L 266.097656 334.929688 L 266.144531 334.839844 L 266.195312 334.757812 L 266.25 334.679688 L 266.304688 334.605469 L 266.363281 334.535156 L 266.421875 334.46875 L 266.546875 334.351562 L 266.613281 334.300781 L 266.679688 334.253906 L 266.75 334.210938 L 266.824219 334.171875 L 266.898438 334.136719 L 266.972656 334.105469 L 267.050781 334.078125 L 267.132812 334.054688 L 267.210938 334.03125 L 267.292969 334.011719 L 267.378906 333.996094 L 267.550781 333.972656 L 267.636719 333.964844 L 267.726562 333.960938 L 267.902344 333.960938 L 267.988281 333.964844 L 268.070312 333.972656 L 268.15625 333.984375 L 268.238281 333.996094 L 268.316406 334.011719 L 268.398438 334.03125 L 268.476562 334.054688 L 268.550781 334.078125 L 268.628906 334.105469 L 268.703125 334.136719 L 268.777344 334.171875 L 268.847656 334.210938 L 268.917969 334.253906 L 268.988281 334.300781 L 269.050781 334.351562 L 269.117188 334.410156 L 269.175781 334.46875 L 269.238281 334.535156 L 269.292969 334.605469 L 269.351562 334.679688 L 269.402344 334.757812 L 269.453125 334.839844 L 269.503906 334.929688 L 269.546875 335.023438 L 269.589844 335.121094 L 269.632812 335.222656 L 269.671875 335.332031 L 269.707031 335.445312 L 269.742188 335.5625 L 269.773438 335.683594 L 269.800781 335.8125 L 269.824219 335.949219 L 269.847656 336.089844 L 269.863281 336.238281 L 269.878906 336.394531 L 269.890625 336.554688 L 269.898438 336.722656 L 269.902344 336.894531 Z M 269.117188 337.074219 L 269.117188 336.933594 L 269.113281 336.796875 L 269.109375 336.664062 L 269.105469 336.535156 L 269.097656 336.414062 L 269.085938 336.296875 L 269.078125 336.183594 L 269.0625 336.078125 L 269.050781 335.972656 L 269.03125 335.875 L 269.015625 335.78125 L 268.996094 335.691406 L 268.972656 335.605469 L 268.949219 335.523438 L 268.925781 335.445312 L 268.898438 335.371094 L 268.871094 335.300781 L 268.84375 335.234375 L 268.8125 335.167969 L 268.777344 335.109375 L 268.746094 335.054688 L 268.710938 335.003906 L 268.671875 334.953125 L 268.59375 334.867188 L 268.550781 334.828125 L 268.507812 334.792969 L 268.414062 334.730469 L 268.367188 334.707031 L 268.316406 334.683594 L 268.269531 334.664062 L 268.214844 334.644531 L 268.164062 334.628906 L 268.054688 334.605469 L 267.9375 334.589844 L 267.878906 334.589844 L 267.816406 334.585938 L 267.753906 334.589844 L 267.6875 334.589844 L 267.628906 334.597656 L 267.566406 334.605469 L 267.507812 334.617188 L 267.453125 334.628906 L 267.398438 334.644531 L 267.34375 334.664062 L 267.292969 334.683594 L 267.242188 334.707031 L 267.191406 334.734375 L 267.144531 334.761719 L 267.097656 334.792969 L 266.96875 334.910156 L 266.929688 334.957031 L 266.890625 335.007812 L 266.855469 335.058594 L 266.785156 335.175781 L 266.757812 335.238281 L 266.726562 335.304688 L 266.699219 335.375 L 266.671875 335.449219 L 266.648438 335.527344 L 266.625 335.609375 L 266.605469 335.695312 L 266.585938 335.785156 L 266.566406 335.878906 L 266.550781 335.976562 L 266.535156 336.082031 L 266.523438 336.1875 L 266.511719 336.300781 L 266.5 336.417969 L 266.492188 336.539062 L 266.488281 336.664062 L 266.484375 336.796875 L 266.480469 336.933594 L 266.480469 337.210938 L 266.484375 337.34375 L 266.488281 337.472656 L 266.492188 337.597656 L 266.5 337.714844 L 266.511719 337.832031 L 266.523438 337.941406 L 266.535156 338.046875 L 266.550781 338.148438 L 266.566406 338.246094 L 266.585938 338.339844 L 266.605469 338.429688 L 266.652344 338.601562 L 266.675781 338.679688 L 266.703125 338.753906 L 266.730469 338.824219 L 266.761719 338.894531 L 266.792969 338.957031 L 266.824219 339.015625 L 266.859375 339.074219 L 266.894531 339.125 L 266.933594 339.175781 L 266.972656 339.222656 L 267.054688 339.304688 L 267.101562 339.34375 L 267.144531 339.375 L 267.191406 339.40625 L 267.242188 339.433594 L 267.289062 339.457031 L 267.339844 339.480469 L 267.503906 339.527344 L 267.558594 339.539062 L 267.675781 339.554688 L 267.738281 339.558594 L 267.859375 339.558594 L 267.917969 339.554688 L 268.035156 339.539062 L 268.089844 339.527344 L 268.144531 339.511719 L 268.195312 339.496094 L 268.25 339.480469 L 268.300781 339.457031 L 268.347656 339.433594 L 268.398438 339.40625 L 268.445312 339.375 L 268.488281 339.34375 L 268.574219 339.265625 L 268.617188 339.222656 L 268.65625 339.175781 L 268.726562 339.074219 L 268.796875 338.957031 L 268.828125 338.894531 L 268.859375 338.824219 L 268.886719 338.753906 L 268.914062 338.679688 L 268.9375 338.601562 L 268.984375 338.429688 L 269.003906 338.339844 L 269.023438 338.246094 L 269.042969 338.148438 L 269.058594 338.046875 L 269.074219 337.941406 L 269.085938 337.832031 L 269.101562 337.597656 L 269.109375 337.472656 L 269.113281 337.34375 L 269.117188 337.210938 Z M 269.117188 337.074219 "/>
<path fill-rule="nonzero" fill="rgb(30.196078%, 30.196078%, 30.196078%)" fill-opacity="1" d="M 370.898438 340.105469 L 370.898438 339.445312 L 372.441406 339.445312 L 372.441406 334.789062 L 371.074219 335.765625 L 371.074219 335.035156 L 372.503906 334.050781 L 373.21875 334.050781 L 373.21875 339.445312 L 374.691406 339.445312 L 374.691406 340.105469 Z M 370.898438 340.105469 "/>
<path fill-rule="nonzero" fill="rgb(30.196078%, 30.196078%, 30.196078%)" fill-opacity="1" d="M 475.542969 340.105469 L 475.542969 339.558594 L 475.585938 339.460938 L 475.679688 339.265625 L 475.730469 339.175781 L 475.785156 339.085938 L 475.894531 338.914062 L 476.011719 338.75 L 476.074219 338.671875 L 476.136719 338.597656 L 476.269531 338.449219 L 476.332031 338.375 L 476.398438 338.304688 L 476.46875 338.238281 L 476.535156 338.167969 L 476.601562 338.105469 L 476.671875 338.039062 L 476.742188 337.976562 L 476.808594 337.914062 L 476.878906 337.855469 L 476.949219 337.792969 L 477.015625 337.734375 L 477.15625 337.617188 L 477.222656 337.5625 L 477.292969 337.503906 L 477.359375 337.449219 L 477.429688 337.398438 L 477.5625 337.289062 L 477.628906 337.238281 L 477.753906 337.128906 L 477.816406 337.078125 L 477.875 337.023438 L 477.933594 336.972656 L 477.992188 336.917969 L 478.046875 336.863281 L 478.101562 336.8125 L 478.203125 336.703125 L 478.25 336.648438 L 478.292969 336.589844 L 478.339844 336.535156 L 478.378906 336.480469 L 478.417969 336.421875 L 478.523438 336.246094 L 478.550781 336.1875 L 478.578125 336.125 L 478.617188 335.992188 L 478.632812 335.925781 L 478.644531 335.859375 L 478.660156 335.71875 L 478.660156 335.59375 L 478.65625 335.542969 L 478.648438 335.449219 L 478.640625 335.402344 L 478.625 335.316406 L 478.613281 335.273438 L 478.597656 335.230469 L 478.566406 335.152344 L 478.550781 335.117188 L 478.53125 335.078125 L 478.511719 335.046875 L 478.488281 335.011719 L 478.417969 334.917969 L 478.390625 334.890625 L 478.359375 334.863281 L 478.332031 334.835938 L 478.300781 334.8125 L 478.265625 334.789062 L 478.234375 334.765625 L 478.164062 334.726562 L 478.125 334.710938 L 478.089844 334.691406 L 478.046875 334.679688 L 478.007812 334.664062 L 477.96875 334.652344 L 477.882812 334.628906 L 477.839844 334.621094 L 477.792969 334.613281 L 477.75 334.605469 L 477.65625 334.597656 L 477.605469 334.597656 L 477.558594 334.59375 L 477.511719 334.597656 L 477.464844 334.597656 L 477.421875 334.601562 L 477.375 334.605469 L 477.332031 334.613281 L 477.289062 334.617188 L 477.246094 334.628906 L 477.203125 334.636719 L 477.117188 334.660156 L 477.078125 334.671875 L 477 334.703125 L 476.964844 334.722656 L 476.925781 334.742188 L 476.855469 334.78125 L 476.824219 334.804688 L 476.789062 334.828125 L 476.757812 334.851562 L 476.695312 334.90625 L 476.667969 334.9375 L 476.640625 334.964844 L 476.613281 335 L 476.585938 335.03125 L 476.515625 335.136719 L 476.457031 335.253906 L 476.441406 335.292969 L 476.425781 335.335938 L 476.414062 335.378906 L 476.390625 335.472656 L 476.375 335.566406 L 476.367188 335.617188 L 475.574219 335.546875 L 475.585938 335.480469 L 475.59375 335.414062 L 475.640625 335.226562 L 475.660156 335.167969 L 475.679688 335.105469 L 475.703125 335.046875 L 475.757812 334.929688 L 475.785156 334.875 L 475.816406 334.820312 L 475.886719 334.710938 L 475.925781 334.660156 L 475.964844 334.613281 L 476.007812 334.5625 L 476.050781 334.515625 L 476.097656 334.472656 L 476.25 334.34375 L 476.304688 334.304688 L 476.363281 334.269531 L 476.421875 334.230469 L 476.480469 334.199219 L 476.542969 334.167969 L 476.609375 334.136719 L 476.675781 334.109375 L 476.746094 334.085938 L 476.816406 334.058594 L 476.964844 334.019531 L 477.042969 334.003906 L 477.207031 333.980469 L 477.289062 333.972656 L 477.378906 333.964844 L 477.464844 333.960938 L 477.644531 333.960938 L 477.734375 333.964844 L 477.820312 333.96875 L 477.902344 333.976562 L 477.984375 333.988281 L 478.140625 334.011719 L 478.214844 334.027344 L 478.289062 334.046875 L 478.359375 334.066406 L 478.429688 334.089844 L 478.496094 334.113281 L 478.5625 334.140625 L 478.625 334.167969 L 478.683594 334.199219 L 478.800781 334.269531 L 478.851562 334.304688 L 478.902344 334.34375 L 478.953125 334.386719 L 479.046875 334.472656 L 479.089844 334.519531 L 479.207031 334.671875 L 479.238281 334.726562 L 479.300781 334.84375 L 479.328125 334.90625 L 479.375 335.03125 L 479.394531 335.097656 L 479.425781 335.238281 L 479.433594 335.308594 L 479.445312 335.382812 L 479.457031 335.617188 L 479.453125 335.679688 L 479.453125 335.738281 L 479.429688 335.914062 L 479.414062 335.972656 L 479.402344 336.03125 L 479.382812 336.085938 L 479.367188 336.144531 L 479.296875 336.308594 L 479.273438 336.359375 L 479.246094 336.414062 L 479.21875 336.464844 L 479.1875 336.519531 L 479.15625 336.570312 L 479.121094 336.621094 L 479.089844 336.671875 L 479.050781 336.722656 L 479.015625 336.773438 L 478.976562 336.820312 L 478.9375 336.871094 L 478.898438 336.917969 L 478.855469 336.96875 L 478.726562 337.109375 L 478.632812 337.203125 L 478.582031 337.25 L 478.535156 337.296875 L 478.484375 337.34375 L 478.433594 337.386719 L 478.386719 337.433594 L 478.335938 337.480469 L 478.285156 337.523438 L 478.230469 337.570312 L 478.179688 337.613281 L 478.128906 337.660156 L 478.074219 337.703125 L 478.023438 337.746094 L 477.96875 337.789062 L 477.917969 337.835938 L 477.863281 337.878906 L 477.8125 337.921875 L 477.757812 337.964844 L 477.707031 338.011719 L 477.652344 338.054688 L 477.601562 338.097656 L 477.546875 338.140625 L 477.496094 338.183594 L 477.441406 338.226562 L 477.289062 338.355469 L 477.242188 338.398438 L 477.191406 338.445312 L 477.050781 338.574219 L 477.007812 338.621094 L 476.960938 338.664062 L 476.917969 338.707031 L 476.875 338.753906 L 476.835938 338.796875 L 476.796875 338.84375 L 476.757812 338.886719 L 476.71875 338.933594 L 476.679688 338.976562 L 476.609375 339.070312 L 476.578125 339.113281 L 476.515625 339.207031 L 476.460938 339.300781 L 476.4375 339.347656 L 476.414062 339.398438 L 476.390625 339.445312 L 479.550781 339.445312 L 479.550781 340.105469 Z M 475.542969 340.105469 "/>
<path fill-rule="nonzero" fill="rgb(0%, 0%, 0%)" fill-opacity="1" d="M 269.355469 352.238281 L 267.789062 349.851562 L 266.21875 352.238281 L 265.175781 352.238281 L 267.242188 349.25 L 265.273438 346.425781 L 266.339844 346.425781 L 267.789062 348.6875 L 269.230469 346.425781 L 270.308594 346.425781 L 268.339844 349.242188 L 270.433594 352.238281 Z M 269.355469 352.238281 "/>
<path fill-rule="nonzero" fill="rgb(0%, 0%, 0%)" fill-opacity="1" d="M 11.269531 185.363281 L 16.375 185.363281 L 16.375 186.332031 L 11.269531 186.332031 L 11.269531 187.148438 L 10.566406 187.148438 L 10.566406 186.332031 L 9.847656 186.332031 L 9.785156 186.328125 L 9.722656 186.328125 L 9.664062 186.320312 L 9.605469 186.316406 L 9.488281 186.300781 L 9.378906 186.285156 L 9.324219 186.273438 L 9.269531 186.257812 L 9.21875 186.246094 L 9.167969 186.226562 L 9.117188 186.210938 L 9.070312 186.1875 L 9.023438 186.167969 L 8.976562 186.140625 L 8.933594 186.117188 L 8.890625 186.085938 L 8.851562 186.058594 L 8.773438 185.988281 L 8.703125 185.910156 L 8.640625 185.824219 L 8.609375 185.777344 L 8.582031 185.726562 L 8.558594 185.675781 L 8.511719 185.566406 L 8.492188 185.507812 L 8.476562 185.445312 L 8.460938 185.378906 L 8.445312 185.308594 L 8.4375 185.234375 L 8.425781 185.160156 L 8.421875 185.082031 L 8.417969 185 L 8.417969 184.773438 L 8.421875 184.738281 L 8.421875 184.703125 L 8.425781 184.667969 L 8.425781 184.632812 L 8.429688 184.59375 L 8.4375 184.523438 L 8.441406 184.484375 L 8.445312 184.449219 L 8.449219 184.417969 L 8.453125 184.382812 L 8.457031 184.351562 L 8.464844 184.320312 L 8.46875 184.289062 L 8.476562 184.261719 L 8.480469 184.230469 L 9.21875 184.230469 L 9.207031 184.289062 L 9.207031 184.308594 L 9.203125 184.332031 L 9.199219 184.351562 L 9.199219 184.375 L 9.191406 184.421875 L 9.191406 184.445312 L 9.183594 184.492188 L 9.183594 184.515625 L 9.179688 184.539062 L 9.179688 184.558594 L 9.175781 184.582031 L 9.175781 184.742188 L 9.179688 184.785156 L 9.1875 184.855469 L 9.203125 184.925781 L 9.210938 184.957031 L 9.222656 184.988281 L 9.246094 185.042969 L 9.257812 185.066406 L 9.304688 185.136719 L 9.382812 185.214844 L 9.40625 185.230469 L 9.425781 185.246094 L 9.449219 185.257812 L 9.472656 185.273438 L 9.5 185.285156 L 9.527344 185.292969 L 9.582031 185.316406 L 9.613281 185.324219 L 9.640625 185.332031 L 9.671875 185.335938 L 9.707031 185.34375 L 9.738281 185.347656 L 9.808594 185.355469 L 9.847656 185.359375 L 9.882812 185.359375 L 9.921875 185.363281 L 10.566406 185.363281 L 10.566406 184.230469 L 11.269531 184.230469 Z M 11.269531 185.363281 "/>
<path fill-rule="nonzero" fill="rgb(0%, 0%, 0%)" fill-opacity="1" d="M 15.496094 182.5625 L 15.597656 182.5625 L 15.695312 182.558594 L 15.796875 182.554688 L 15.894531 182.550781 L 15.992188 182.542969 L 16.085938 182.535156 L 16.183594 182.527344 L 16.371094 182.503906 L 16.464844 182.488281 L 16.554688 182.472656 L 16.648438 182.453125 L 16.738281 182.433594 L 16.824219 182.414062 L 16.914062 182.390625 L 17.085938 182.335938 L 17.171875 182.304688 L 17.253906 182.273438 L 17.417969 182.203125 L 17.582031 182.125 L 17.660156 182.082031 L 17.816406 181.988281 L 17.890625 181.941406 L 18.039062 181.832031 L 18.109375 181.777344 L 18.179688 181.71875 L 18.25 181.65625 L 18.316406 181.589844 L 18.378906 181.523438 L 18.445312 181.453125 L 18.507812 181.378906 L 18.566406 181.304688 L 18.625 181.226562 L 18.683594 181.144531 L 18.738281 181.058594 L 19.304688 181.160156 L 19.226562 181.285156 L 19.152344 181.410156 L 19.074219 181.53125 L 18.996094 181.648438 L 18.914062 181.765625 L 18.832031 181.878906 L 18.667969 182.089844 L 18.582031 182.195312 L 18.5 182.292969 L 18.410156 182.390625 L 18.324219 182.480469 L 18.230469 182.570312 L 18.140625 182.65625 L 18.046875 182.738281 L 17.851562 182.894531 L 17.75 182.96875 L 17.648438 183.039062 L 17.546875 183.105469 L 17.4375 183.167969 L 17.332031 183.230469 L 17.21875 183.285156 L 17.109375 183.339844 L 16.992188 183.390625 L 16.875 183.4375 L 16.757812 183.480469 L 16.632812 183.523438 L 16.511719 183.5625 L 16.382812 183.597656 L 16.253906 183.628906 L 15.988281 183.683594 L 15.707031 183.722656 L 15.558594 183.738281 L 15.410156 183.75 L 15.261719 183.757812 L 15.105469 183.761719 L 14.945312 183.765625 L 14.859375 183.765625 L 14.769531 183.761719 L 14.679688 183.761719 L 14.320312 183.746094 L 14.230469 183.738281 L 14.136719 183.730469 L 14.046875 183.722656 L 13.859375 183.707031 L 13.765625 183.695312 L 13.570312 183.671875 L 13.164062 183.609375 L 13.058594 183.589844 L 12.808594 183.542969 L 12.566406 183.496094 L 12.328125 183.441406 L 12.097656 183.386719 L 11.871094 183.328125 L 11.652344 183.265625 L 11.441406 183.199219 L 11.234375 183.132812 L 10.84375 182.984375 L 10.65625 182.90625 L 10.472656 182.824219 L 10.292969 182.738281 L 10.117188 182.648438 L 9.945312 182.558594 L 9.78125 182.460938 L 9.617188 182.359375 L 9.460938 182.257812 L 9.308594 182.148438 L 9.160156 182.039062 L 9.015625 181.921875 L 8.875 181.804688 L 8.734375 181.679688 L 8.601562 181.550781 L 8.472656 181.421875 L 8.34375 181.285156 L 8.21875 181.148438 L 7.984375 180.859375 L 7.871094 180.710938 L 7.757812 180.554688 L 7.652344 180.394531 L 7.542969 180.230469 L 7.4375 180.0625 L 7.332031 179.890625 L 7.230469 179.714844 L 7.128906 179.53125 L 7.03125 179.347656 L 6.835938 178.964844 L 7.402344 179.0625 L 7.488281 179.226562 L 7.582031 179.386719 L 7.679688 179.539062 L 7.78125 179.6875 L 7.882812 179.828125 L 7.992188 179.964844 L 8.101562 180.09375 L 8.21875 180.21875 L 8.339844 180.339844 L 8.460938 180.453125 L 8.585938 180.5625 L 8.714844 180.667969 L 8.84375 180.769531 L 9.109375 180.957031 L 9.25 181.046875 L 9.386719 181.132812 L 9.53125 181.214844 L 9.675781 181.292969 L 9.824219 181.367188 L 9.972656 181.4375 L 10.121094 181.503906 L 10.273438 181.566406 L 10.429688 181.628906 L 10.585938 181.6875 L 10.742188 181.742188 L 10.902344 181.796875 L 11.0625 181.847656 L 11.222656 181.894531 L 11.386719 181.9375 L 11.554688 181.980469 L 11.71875 182.019531 L 11.886719 182.058594 L 12.050781 182.09375 L 12.21875 182.132812 L 12.386719 182.164062 L 12.554688 182.199219 L 13.058594 182.292969 L 13.1875 182.316406 L 13.3125 182.339844 L 13.6875 182.398438 L 13.808594 182.417969 L 13.933594 182.4375 L 14.058594 182.453125 L 14.179688 182.472656 L 14.300781 182.488281 L 14.425781 182.503906 L 14.667969 182.527344 L 14.785156 182.535156 L 15.027344 182.550781 L 15.378906 182.5625 Z M 15.496094 182.5625 "/>
<path fill-rule="nonzero" fill="rgb(0%, 0%, 0%)" fill-opacity="1" d="M 16.375 175.367188 L 13.992188 176.929688 L 16.375 178.503906 L 16.375 179.546875 L 13.390625 177.476562 L 10.566406 179.449219 L 10.566406 178.378906 L 12.828125 176.929688 L 10.566406 175.488281 L 10.566406 174.410156 L 13.378906 176.382812 L 16.375 174.285156 Z M 16.375 175.367188 "/>
<path fill-rule="nonzero" fill="rgb(0%, 0%, 0%)" fill-opacity="1" d="M 19.304688 174.820312 L 18.738281 174.71875 L 18.652344 174.554688 L 18.558594 174.398438 L 18.460938 174.246094 L 18.359375 174.097656 L 18.257812 173.957031 L 18.148438 173.820312 L 18.035156 173.691406 L 17.921875 173.566406 L 17.800781 173.449219 L 17.679688 173.335938 L 17.554688 173.226562 L 17.425781 173.125 L 17.292969 173.023438 L 17.160156 172.925781 L 17.027344 172.835938 L 16.890625 172.746094 L 16.75 172.660156 L 16.605469 172.578125 L 16.464844 172.503906 L 16.316406 172.429688 L 16.167969 172.359375 L 16.015625 172.289062 L 15.863281 172.226562 L 15.707031 172.164062 L 15.550781 172.105469 L 15.394531 172.050781 L 15.234375 171.996094 L 15.074219 171.949219 L 14.910156 171.902344 L 14.746094 171.859375 L 14.578125 171.816406 L 14.410156 171.777344 L 14.242188 171.734375 L 14.074219 171.695312 L 13.402344 171.554688 L 13.230469 171.519531 L 13.058594 171.488281 L 12.933594 171.46875 L 12.8125 171.445312 L 12.5625 171.40625 L 12.441406 171.386719 L 12.316406 171.367188 L 12.195312 171.351562 L 12.074219 171.332031 L 11.832031 171.300781 L 11.710938 171.289062 L 11.589844 171.273438 L 11.46875 171.265625 L 11.347656 171.253906 L 11.230469 171.246094 L 11.109375 171.238281 L 10.875 171.230469 L 10.757812 171.230469 L 10.644531 171.226562 L 10.542969 171.230469 L 10.445312 171.230469 L 10.34375 171.234375 L 10.246094 171.238281 L 10.148438 171.246094 L 10.054688 171.253906 L 9.957031 171.265625 L 9.863281 171.273438 L 9.769531 171.289062 L 9.675781 171.300781 L 9.585938 171.316406 L 9.492188 171.335938 L 9.402344 171.355469 L 9.3125 171.378906 L 9.140625 171.425781 L 9.054688 171.453125 L 8.96875 171.484375 L 8.886719 171.515625 L 8.640625 171.621094 L 8.558594 171.664062 L 8.480469 171.703125 L 8.324219 171.796875 L 8.25 171.847656 L 8.101562 171.957031 L 8.03125 172.011719 L 7.960938 172.074219 L 7.890625 172.132812 L 7.757812 172.265625 L 7.695312 172.335938 L 7.632812 172.410156 L 7.515625 172.566406 L 7.457031 172.648438 L 7.402344 172.730469 L 6.835938 172.632812 L 6.914062 172.503906 L 6.992188 172.378906 L 7.070312 172.257812 L 7.148438 172.140625 L 7.230469 172.023438 L 7.394531 171.804688 L 7.480469 171.699219 L 7.5625 171.597656 L 7.648438 171.496094 L 7.734375 171.398438 L 7.820312 171.308594 L 7.910156 171.21875 L 8.003906 171.128906 L 8.191406 170.964844 L 8.289062 170.890625 L 8.390625 170.816406 L 8.59375 170.675781 L 8.699219 170.613281 L 8.808594 170.550781 L 9.027344 170.441406 L 9.144531 170.390625 L 9.257812 170.339844 L 9.5 170.253906 L 9.625 170.214844 L 9.75 170.179688 L 9.878906 170.148438 L 10.011719 170.121094 L 10.148438 170.09375 L 10.429688 170.054688 L 10.574219 170.039062 L 10.726562 170.027344 L 10.878906 170.019531 L 11.035156 170.015625 L 11.195312 170.011719 L 11.359375 170.015625 L 11.53125 170.019531 L 11.707031 170.027344 L 11.886719 170.042969 L 12.070312 170.058594 L 12.257812 170.078125 L 12.453125 170.101562 L 12.652344 170.128906 L 12.851562 170.160156 L 13.058594 170.195312 L 13.3125 170.238281 L 13.554688 170.289062 L 13.792969 170.34375 L 14.023438 170.398438 L 14.25 170.457031 L 14.46875 170.519531 L 14.683594 170.585938 L 14.886719 170.65625 L 15.089844 170.730469 L 15.28125 170.804688 L 15.472656 170.882812 L 15.65625 170.964844 L 15.835938 171.050781 L 16.007812 171.140625 L 16.179688 171.234375 L 16.347656 171.332031 L 16.507812 171.433594 L 16.667969 171.539062 L 16.820312 171.644531 L 16.96875 171.757812 L 17.113281 171.875 L 17.253906 171.992188 L 17.394531 172.113281 L 17.53125 172.242188 L 17.660156 172.371094 L 17.789062 172.507812 L 17.914062 172.648438 L 18.035156 172.789062 L 18.261719 173.085938 L 18.375 173.242188 L 18.484375 173.398438 L 18.59375 173.5625 L 18.804688 173.898438 L 18.910156 174.074219 L 19.011719 174.253906 L 19.109375 174.4375 Z M 19.304688 174.820312 "/>
<path fill-rule="nonzero" fill="rgb(0%, 0%, 0%)" fill-opacity="1" d="M 13.550781 160.675781 L 14.097656 160.675781 L 14.097656 165.792969 L 13.550781 165.792969 Z M 11.347656 160.675781 L 11.898438 160.675781 L 11.898438 165.792969 L 11.347656 165.792969 Z M 11.347656 160.675781 "/>
<path fill-rule="nonzero" fill="rgb(0%, 0%, 0%)" fill-opacity="1" d="M 16.375 152.773438 L 13.992188 154.335938 L 16.375 155.910156 L 16.375 156.953125 L 13.390625 154.886719 L 10.566406 156.855469 L 10.566406 155.789062 L 12.828125 154.335938 L 10.566406 152.898438 L 10.566406 151.816406 L 13.378906 153.789062 L 16.375 151.695312 Z M 16.375 152.773438 "/>
<path fill-rule="nonzero" fill="rgb(0%, 0%, 0%)" fill-opacity="1" d="M 9.394531 147.632812 L 9.464844 147.632812 L 9.535156 147.636719 L 9.605469 147.644531 L 9.671875 147.652344 L 9.738281 147.664062 L 9.800781 147.675781 L 9.867188 147.691406 L 9.984375 147.730469 L 10.101562 147.777344 L 10.15625 147.804688 L 10.207031 147.832031 L 10.257812 147.863281 L 10.308594 147.898438 L 10.355469 147.933594 L 10.402344 147.972656 L 10.445312 148.011719 L 10.488281 148.054688 L 10.527344 148.097656 L 10.566406 148.144531 L 10.601562 148.191406 L 10.636719 148.242188 L 10.671875 148.296875 L 10.703125 148.351562 L 10.757812 148.46875 L 10.785156 148.53125 L 10.808594 148.597656 L 10.847656 148.730469 L 10.867188 148.800781 L 10.882812 148.871094 L 10.894531 148.945312 L 10.90625 149.023438 L 10.914062 149.097656 L 10.921875 149.179688 L 10.929688 149.34375 L 10.929688 149.527344 L 10.925781 149.621094 L 10.921875 149.710938 L 10.910156 149.800781 L 10.902344 149.882812 L 10.886719 149.964844 L 10.871094 150.042969 L 10.855469 150.117188 L 10.832031 150.191406 L 10.8125 150.261719 L 10.785156 150.328125 L 10.757812 150.390625 L 10.730469 150.449219 L 10.667969 150.566406 L 10.636719 150.621094 L 10.601562 150.671875 L 10.5625 150.722656 L 10.527344 150.769531 L 10.488281 150.8125 L 10.445312 150.855469 L 10.359375 150.933594 L 10.316406 150.96875 L 10.269531 151.003906 L 10.226562 151.035156 L 10.175781 151.066406 L 10.128906 151.09375 L 10.027344 151.140625 L 9.925781 151.179688 L 9.871094 151.199219 L 9.820312 151.214844 L 9.765625 151.230469 L 9.710938 151.242188 L 9.660156 151.257812 L 9.605469 151.265625 L 9.550781 151.277344 L 9.496094 151.28125 L 9.429688 150.582031 L 9.472656 150.578125 L 9.515625 150.570312 L 9.554688 150.5625 L 9.59375 150.550781 L 9.632812 150.542969 L 9.671875 150.53125 L 9.707031 150.519531 L 9.742188 150.503906 L 9.78125 150.488281 L 9.816406 150.476562 L 9.847656 150.457031 L 9.882812 150.4375 L 9.914062 150.421875 L 9.945312 150.398438 L 9.976562 150.378906 L 10.03125 150.332031 L 10.058594 150.304688 L 10.085938 150.28125 L 10.113281 150.253906 L 10.136719 150.222656 L 10.160156 150.195312 L 10.179688 150.164062 L 10.203125 150.132812 L 10.222656 150.097656 L 10.238281 150.0625 L 10.257812 150.027344 L 10.304688 149.910156 L 10.316406 149.871094 L 10.328125 149.828125 L 10.335938 149.78125 L 10.347656 149.738281 L 10.355469 149.6875 L 10.359375 149.640625 L 10.367188 149.539062 L 10.371094 149.484375 L 10.371094 149.429688 L 10.367188 149.328125 L 10.359375 149.234375 L 10.347656 149.144531 L 10.332031 149.054688 L 10.308594 148.972656 L 10.28125 148.894531 L 10.210938 148.753906 L 10.167969 148.6875 L 10.117188 148.628906 L 10.066406 148.574219 L 10.007812 148.523438 L 9.945312 148.480469 L 9.878906 148.441406 L 9.804688 148.410156 L 9.730469 148.382812 L 9.648438 148.363281 L 9.558594 148.347656 L 9.46875 148.339844 L 9.371094 148.335938 L 9.3125 148.335938 L 9.257812 148.339844 L 9.15625 148.355469 L 9.105469 148.367188 L 9.0625 148.382812 L 9.015625 148.398438 L 8.976562 148.417969 L 8.9375 148.441406 L 8.902344 148.46875 L 8.867188 148.492188 L 8.832031 148.519531 L 8.769531 148.582031 L 8.714844 148.644531 L 8.6875 148.679688 L 8.664062 148.714844 L 8.644531 148.753906 L 8.621094 148.789062 L 8.601562 148.828125 L 8.585938 148.867188 L 8.566406 148.910156 L 8.550781 148.949219 L 8.539062 148.992188 L 8.523438 149.035156 L 8.511719 149.078125 L 8.496094 149.164062 L 8.480469 149.257812 L 8.476562 149.300781 L 8.46875 149.34375 L 8.460938 149.429688 L 8.457031 149.46875 L 8.457031 149.511719 L 8.453125 149.550781 L 8.453125 150.011719 L 7.867188 150.011719 L 7.867188 149.566406 L 7.859375 149.488281 L 7.859375 149.449219 L 7.851562 149.410156 L 7.847656 149.367188 L 7.84375 149.328125 L 7.835938 149.285156 L 7.828125 149.246094 L 7.820312 149.203125 L 7.808594 149.164062 L 7.800781 149.125 L 7.785156 149.085938 L 7.773438 149.046875 L 7.757812 149.011719 L 7.742188 148.972656 L 7.726562 148.9375 L 7.707031 148.902344 L 7.6875 148.871094 L 7.640625 148.800781 L 7.617188 148.769531 L 7.589844 148.742188 L 7.5625 148.710938 L 7.535156 148.683594 L 7.503906 148.660156 L 7.472656 148.632812 L 7.4375 148.609375 L 7.40625 148.585938 L 7.328125 148.546875 L 7.289062 148.53125 L 7.246094 148.515625 L 7.203125 148.503906 L 7.15625 148.492188 L 7.109375 148.484375 L 7.007812 148.476562 L 6.953125 148.472656 L 6.871094 148.476562 L 6.789062 148.484375 L 6.714844 148.496094 L 6.640625 148.515625 L 6.574219 148.539062 L 6.507812 148.566406 L 6.445312 148.597656 L 6.390625 148.636719 L 6.335938 148.679688 L 6.285156 148.726562 L 6.238281 148.777344 L 6.195312 148.835938 L 6.15625 148.898438 L 6.125 148.964844 L 6.097656 149.035156 L 6.074219 149.113281 L 6.058594 149.195312 L 6.046875 149.28125 L 6.039062 149.371094 L 6.035156 149.46875 L 6.039062 149.554688 L 6.046875 149.640625 L 6.054688 149.71875 L 6.074219 149.796875 L 6.09375 149.871094 L 6.117188 149.941406 L 6.148438 150.011719 L 6.183594 150.074219 L 6.222656 150.136719 L 6.265625 150.191406 L 6.3125 150.246094 L 6.363281 150.292969 L 6.417969 150.335938 L 6.480469 150.375 L 6.542969 150.410156 L 6.609375 150.441406 L 6.679688 150.464844 L 6.753906 150.484375 L 6.832031 150.5 L 6.910156 150.511719 L 6.859375 151.191406 L 6.789062 151.183594 L 6.65625 151.160156 L 6.59375 151.140625 L 6.53125 151.125 L 6.472656 151.105469 L 6.414062 151.082031 L 6.359375 151.058594 L 6.304688 151.03125 L 6.25 151 L 6.148438 150.9375 L 6.101562 150.902344 L 6.058594 150.867188 L 6.011719 150.832031 L 5.929688 150.75 L 5.894531 150.710938 L 5.855469 150.667969 L 5.820312 150.621094 L 5.757812 150.527344 L 5.726562 150.476562 L 5.699219 150.425781 L 5.671875 150.371094 L 5.648438 150.320312 L 5.625 150.265625 L 5.601562 150.207031 L 5.582031 150.148438 L 5.535156 149.972656 L 5.5 149.785156 L 5.492188 149.722656 L 5.488281 149.65625 L 5.484375 149.59375 L 5.480469 149.527344 L 5.480469 149.371094 L 5.484375 149.289062 L 5.488281 149.203125 L 5.496094 149.125 L 5.507812 149.046875 L 5.519531 148.972656 L 5.535156 148.898438 L 5.550781 148.828125 L 5.570312 148.761719 L 5.59375 148.695312 L 5.613281 148.632812 L 5.640625 148.574219 L 5.664062 148.515625 L 5.691406 148.460938 L 5.722656 148.40625 L 5.785156 148.304688 L 5.820312 148.257812 L 5.855469 148.214844 L 5.894531 148.171875 L 5.929688 148.132812 L 5.972656 148.097656 L 6.011719 148.0625 L 6.054688 148.027344 L 6.097656 147.996094 L 6.144531 147.96875 L 6.1875 147.941406 L 6.238281 147.917969 L 6.285156 147.898438 L 6.335938 147.875 L 6.386719 147.859375 L 6.441406 147.839844 L 6.492188 147.828125 L 6.546875 147.8125 L 6.601562 147.804688 L 6.65625 147.792969 L 6.710938 147.789062 L 6.765625 147.78125 L 6.824219 147.78125 L 6.882812 147.777344 L 6.929688 147.78125 L 6.972656 147.78125 L 7.019531 147.785156 L 7.0625 147.789062 L 7.109375 147.796875 L 7.152344 147.800781 L 7.195312 147.808594 L 7.234375 147.820312 L 7.277344 147.832031 L 7.316406 147.84375 L 7.359375 147.855469 L 7.4375 147.886719 L 7.472656 147.90625 L 7.511719 147.925781 L 7.546875 147.945312 L 7.617188 147.992188 L 7.648438 148.015625 L 7.683594 148.042969 L 7.746094 148.097656 L 7.777344 148.128906 L 7.804688 148.164062 L 7.832031 148.195312 L 7.859375 148.230469 L 7.914062 148.308594 L 7.960938 148.386719 L 7.984375 148.429688 L 8.003906 148.472656 L 8.027344 148.519531 L 8.046875 148.566406 L 8.0625 148.617188 L 8.082031 148.667969 L 8.097656 148.71875 L 8.109375 148.773438 L 8.125 148.832031 L 8.136719 148.886719 L 8.152344 148.886719 L 8.167969 148.761719 L 8.191406 148.644531 L 8.238281 148.480469 L 8.277344 148.378906 L 8.300781 148.332031 L 8.320312 148.285156 L 8.34375 148.242188 L 8.371094 148.195312 L 8.394531 148.15625 L 8.449219 148.078125 L 8.480469 148.039062 L 8.511719 148.003906 L 8.605469 147.910156 L 8.675781 147.855469 L 8.714844 147.828125 L 8.75 147.804688 L 8.789062 147.785156 L 8.828125 147.761719 L 8.867188 147.746094 L 8.90625 147.726562 L 8.992188 147.695312 L 9.121094 147.660156 L 9.164062 147.652344 L 9.210938 147.644531 L 9.253906 147.640625 L 9.347656 147.632812 Z M 9.394531 147.632812 "/>
</svg>
