<?xml version="1.0" encoding="UTF-8"?>
<svg xmlns="http://www.w3.org/2000/svg" xmlns:xlink="http://www.w3.org/1999/xlink" width="504" height="360" viewBox="0 0 504 360">
<rect x="-50.4" y="-36" width="604.8" height="432" fill="rgb(100%, 100%, 100%)" fill-opacity="1"/>
<path fill-rule="nonzero" fill="rgb(0%, 0%, 0%)" fill-opacity="1" stroke-width="0.75" stroke-linecap="round" stroke-linejoin="round" stroke="rgb(0%, 0%, 0%)" stroke-opacity="1" stroke-miterlimit="10" d="M 74.398438 284.308594 L 106.941406 284.308594 L 106.941406 261.78125 L 74.398438 261.78125 Z M 74.398438 284.308594 "/>
<path fill-rule="nonzero" fill="rgb(87.45098%, 32.54902%, 41.960784%)" fill-opacity="1" stroke-width="0.75" stroke-linecap="round" stroke-linejoin="round" stroke="rgb(0%, 0%, 0%)" stroke-opacity="1" stroke-miterlimit="10" d="M 113.449219 284.308594 L 145.992188 284.308594 L 145.992188 239.253906 L 113.449219 239.253906 Z M 113.449219 284.308594 "/>
<path fill-rule="nonzero" fill="rgb(38.039216%, 81.568627%, 30.980392%)" fill-opacity="1" stroke-width="0.75" stroke-linecap="round" stroke-linejoin="round" stroke="rgb(0%, 0%, 0%)" stroke-opacity="1" stroke-miterlimit="10" d="M 152.5 284.308594 L 185.042969 284.308594 L 185.042969 216.726562 L 152.5 216.726562 Z M 152.5 284.308594 "/>
<path fill-rule="nonzero" fill="rgb(13.333333%, 59.215686%, 90.196078%)" fill-opacity="1" stroke-width="0.75" stroke-linecap="round" stroke-linejoin="round" stroke="rgb(0%, 0%, 0%)" stroke-opacity="1" stroke-miterlimit="10" d="M 191.550781 284.308594 L 224.09375 284.308594 L 224.09375 194.203125 L 191.550781 194.203125 Z M 191.550781 284.308594 "/>
<path fill-rule="nonzero" fill="rgb(15.686275%, 88.627451%, 89.803922%)" fill-opacity="1" stroke-width="0.75" stroke-linecap="round" stroke-linejoin="round" stroke="rgb(0%, 0%, 0%)" stroke-opacity="1" stroke-miterlimit="10" d="M 230.601562 284.308594 L 263.144531 284.308594 L 263.144531 171.675781 L 230.601562 171.675781 Z M 230.601562 284.308594 "/>
<path fill-rule="nonzero" fill="rgb(80.392157%, 4.313725%, 73.72549%)" fill-opacity="1" stroke-width="0.75" stroke-linecap="round" stroke-linejoin="round" stroke="rgb(0%, 0%, 0%)" stroke-opacity="1" stroke-miterlimit="10" d="M 269.652344 284.308594 L 302.195312 284.308594 L 302.195312 149.148438 L 269.652344 149.148438 Z M 269.652344 284.308594 "/>
<path fill-rule="nonzero" fill="rgb(96.078431%, 78.039216%, 6.27451%)" fill-opacity="1" stroke-width="0.75" stroke-linecap="round" stroke-linejoin="round" stroke="rgb(0%, 0%, 0%)" stroke-opacity="1" stroke-miterlimit="10" d="M 308.707031 284.308594 L 341.25 284.308594 L 341.25 126.621094 L 308.707031 126.621094 Z M 308.707031 284.308594 "/>
<path fill-rule="nonzero" fill="rgb(61.960784%, 61.960784%, 61.960784%)" fill-opacity="1" stroke-width="0.75" stroke-linecap="round" stroke-linejoin="round" stroke="rgb(0%, 0%, 0%)" stroke-opacity="1" stroke-miterlimit="10" d="M 347.757812 284.308594 L 380.300781 284.308594 L 380.300781 104.09375 L 347.757812 104.09375 Z M 347.757812 284.308594 "/>
<path fill-rule="nonzero" fill="rgb(0%, 0%, 0%)" fill-opacity="1" stroke-width="0.75" stroke-linecap="round" stroke-linejoin="round" stroke="rgb(0%, 0%, 0%)" stroke-opacity="1" stroke-miterlimit="10" d="M 386.808594 284.308594 L 419.351562 284.308594 L 419.351562 81.566406 L 386.808594 81.566406 Z M 386.808594 284.308594 "/>
<path fill-rule="nonzero" fill="rgb(87.45098%, 32.54902%, 41.960784%)" fill-opacity="1" stroke-width="0.75" stroke-linecap="round" stroke-linejoin="round" stroke="rgb(0%, 0%, 0%)" stroke-opacity="1" stroke-miterlimit="10" d="M 425.859375 284.308594 L 458.402344 284.308594 L 458.402344 59.042969 L 425.859375 59.042969 Z M 425.859375 284.308594 "/>
<path fill="none" stroke-width="0.75" stroke-linecap="round" stroke-linejoin="round" stroke="rgb(0%, 0%, 0%)" stroke-opacity="1" stroke-miterlimit="10" d="M 59.039062 284.308594 L 59.039062 59.039062 "/>
<path fill="none" stroke-width="0.75" stroke-linecap="round" stroke-linejoin="round" stroke="rgb(0%, 0%, 0%)" stroke-opacity="1" stroke-miterlimit="10" d="M 59.039062 284.308594 L 51.839844 284.308594 "/>
<path fill="none" stroke-width="0.75" stroke-linecap="round" stroke-linejoin="round" stroke="rgb(0%, 0%, 0%)" stroke-opacity="1" stroke-miterlimit="10" d="M 59.039062 239.253906 L 51.839844 239.253906 "/>
<path fill="none" stroke-width="0.75" stroke-linecap="round" stroke-linejoin="round" stroke="rgb(0%, 0%, 0%)" stroke-opacity="1" stroke-miterlimit="10" d="M 59.039062 194.199219 L 51.839844 194.199219 "/>
<path fill="none" stroke-width="0.75" stroke-linecap="round" stroke-linejoin="round" stroke="rgb(0%, 0%, 0%)" stroke-opacity="1" stroke-miterlimit="10" d="M 59.039062 149.148438 L 51.839844 149.148438 "/>
<path fill="none" stroke-width="0.75" stroke-linecap="round" stroke-linejoin="round" stroke="rgb(0%, 0%, 0%)" stroke-opacity="1" stroke-miterlimit="10" d="M 59.039062 104.09375 L 51.839844 104.09375 "/>
<path fill="none" stroke-width="0.75" stroke-linecap="round" stroke-linejoin="round" stroke="rgb(0%, 0%, 0%)" stroke-opacity="1" stroke-miterlimit="10" d="M 59.039062 59.039062 L 51.839844 59.039062 "/>
<path fill-rule="nonzero" fill="rgb(0%, 0%, 0%)" fill-opacity="1" d="M 37.628906 281.4375 L 37.863281 281.441406 L 38.089844 281.449219 L 38.308594 281.460938 L 38.519531 281.476562 L 38.726562 281.496094 L 38.921875 281.519531 L 39.109375 281.550781 L 39.292969 281.585938 L 39.464844 281.625 L 39.632812 281.667969 L 39.792969 281.714844 L 39.945312 281.761719 L 40.089844 281.816406 L 40.230469 281.871094 L 40.367188 281.933594 L 40.492188 281.996094 L 40.617188 282.0625 L 40.730469 282.132812 L 40.839844 282.207031 L 40.945312 282.28125 L 41.042969 282.363281 L 41.132812 282.441406 L 41.21875 282.527344 L 41.300781 282.613281 L 41.375 282.703125 L 41.441406 282.796875 L 41.503906 282.894531 L 41.5625 282.992188 L 41.613281 283.09375 L 41.660156 283.195312 L 41.703125 283.304688 L 41.738281 283.410156 L 41.800781 283.628906 L 41.824219 283.742188 L 41.84375 283.855469 L 41.859375 283.96875 L 41.875 284.203125 L 41.878906 284.320312 L 41.875 284.441406 L 41.859375 284.675781 L 41.84375 284.792969 L 41.824219 284.90625 L 41.800781 285.015625 L 41.738281 285.234375 L 41.703125 285.34375 L 41.660156 285.445312 L 41.613281 285.550781 L 41.5625 285.648438 L 41.503906 285.746094 L 41.441406 285.84375 L 41.375 285.933594 L 41.300781 286.023438 L 41.21875 286.109375 L 41.132812 286.195312 L 41.042969 286.277344 L 40.945312 286.355469 L 40.84375 286.429688 L 40.734375 286.5 L 40.617188 286.570312 L 40.496094 286.632812 L 40.371094 286.695312 L 40.097656 286.8125 L 39.949219 286.863281 L 39.796875 286.914062 L 39.640625 286.957031 L 39.472656 287 L 39.296875 287.035156 L 39.117188 287.070312 L 38.925781 287.097656 L 38.730469 287.121094 L 38.523438 287.140625 L 38.3125 287.15625 L 38.09375 287.167969 L 37.863281 287.171875 L 37.628906 287.175781 L 37.382812 287.171875 L 37.148438 287.167969 L 36.917969 287.15625 L 36.699219 287.140625 L 36.488281 287.121094 L 36.289062 287.097656 L 36.09375 287.070312 L 35.910156 287.035156 L 35.734375 287 L 35.566406 286.957031 L 35.40625 286.914062 L 35.25 286.863281 L 35.105469 286.808594 L 34.964844 286.753906 L 34.828125 286.695312 L 34.703125 286.632812 L 34.582031 286.566406 L 34.46875 286.496094 L 34.359375 286.425781 L 34.164062 286.269531 L 34.078125 286.1875 L 33.996094 286.105469 L 33.917969 286.015625 L 33.847656 285.925781 L 33.78125 285.835938 L 33.722656 285.738281 L 33.667969 285.640625 L 33.621094 285.539062 L 33.542969 285.328125 L 33.507812 285.21875 L 33.453125 285 L 33.429688 284.882812 L 33.414062 284.769531 L 33.398438 284.652344 L 33.382812 284.410156 L 33.382812 284.167969 L 33.390625 284.054688 L 33.398438 283.9375 L 33.414062 283.824219 L 33.429688 283.714844 L 33.453125 283.605469 L 33.480469 283.496094 L 33.507812 283.390625 L 33.542969 283.285156 L 33.582031 283.179688 L 33.621094 283.078125 L 33.667969 282.976562 L 33.722656 282.878906 L 33.78125 282.785156 L 33.847656 282.691406 L 33.917969 282.601562 L 33.996094 282.515625 L 34.078125 282.429688 L 34.164062 282.351562 L 34.261719 282.269531 L 34.359375 282.195312 L 34.46875 282.125 L 34.582031 282.054688 L 34.703125 281.988281 L 34.828125 281.925781 L 34.964844 281.867188 L 35.105469 281.808594 L 35.25 281.757812 L 35.40625 281.707031 L 35.566406 281.660156 L 35.734375 281.621094 L 35.910156 281.582031 L 36.09375 281.546875 L 36.289062 281.519531 L 36.488281 281.496094 L 36.699219 281.476562 L 36.917969 281.460938 L 37.148438 281.449219 L 37.382812 281.441406 Z M 37.628906 282.511719 L 37.4375 282.511719 L 37.25 282.515625 L 37.070312 282.523438 L 36.894531 282.53125 L 36.726562 282.539062 L 36.566406 282.554688 L 36.414062 282.570312 L 36.269531 282.585938 L 36.128906 282.605469 L 35.996094 282.628906 L 35.867188 282.652344 L 35.742188 282.679688 L 35.625 282.707031 L 35.511719 282.738281 L 35.40625 282.773438 L 35.304688 282.808594 L 35.207031 282.847656 L 35.117188 282.886719 L 35.03125 282.929688 L 34.953125 282.972656 L 34.875 283.019531 L 34.804688 283.070312 L 34.738281 283.121094 L 34.675781 283.175781 L 34.617188 283.230469 L 34.566406 283.285156 L 34.515625 283.347656 L 34.472656 283.40625 L 34.433594 283.472656 L 34.402344 283.535156 L 34.371094 283.601562 L 34.339844 283.671875 L 34.316406 283.742188 L 34.296875 283.8125 L 34.277344 283.886719 L 34.261719 283.964844 L 34.25 284.042969 L 34.242188 284.121094 L 34.238281 284.203125 L 34.238281 284.375 L 34.242188 284.460938 L 34.25 284.542969 L 34.261719 284.625 L 34.277344 284.707031 L 34.296875 284.785156 L 34.316406 284.859375 L 34.339844 284.933594 L 34.371094 285.003906 L 34.402344 285.070312 L 34.4375 285.140625 L 34.476562 285.203125 L 34.519531 285.265625 L 34.570312 285.328125 L 34.621094 285.386719 L 34.679688 285.441406 L 34.742188 285.496094 L 34.808594 285.546875 L 34.882812 285.597656 L 34.957031 285.644531 L 35.039062 285.691406 L 35.121094 285.734375 L 35.308594 285.8125 L 35.410156 285.847656 L 35.628906 285.910156 L 35.75 285.941406 L 35.871094 285.96875 L 36 285.992188 L 36.132812 286.015625 L 36.273438 286.035156 L 36.421875 286.050781 L 36.574219 286.066406 L 36.734375 286.078125 L 36.898438 286.089844 L 37.070312 286.097656 L 37.25 286.105469 L 37.4375 286.109375 L 37.816406 286.109375 L 37.996094 286.105469 L 38.171875 286.097656 L 38.339844 286.089844 L 38.503906 286.078125 L 38.660156 286.066406 L 38.8125 286.050781 L 38.957031 286.035156 L 39.09375 286.015625 L 39.230469 285.992188 L 39.480469 285.9375 L 39.597656 285.910156 L 39.707031 285.875 L 39.816406 285.84375 L 39.917969 285.804688 L 40.015625 285.769531 L 40.109375 285.726562 L 40.195312 285.683594 L 40.277344 285.640625 L 40.355469 285.59375 L 40.425781 285.542969 L 40.492188 285.492188 L 40.558594 285.4375 L 40.617188 285.382812 L 40.671875 285.324219 L 40.722656 285.261719 L 40.765625 285.203125 L 40.808594 285.136719 L 40.847656 285.070312 L 40.878906 285.003906 L 40.933594 284.863281 L 40.972656 284.714844 L 40.988281 284.636719 L 41 284.558594 L 41.015625 284.394531 L 41.015625 284.226562 L 41.007812 284.148438 L 41 284.066406 L 40.988281 283.992188 L 40.972656 283.914062 L 40.953125 283.839844 L 40.933594 283.769531 L 40.90625 283.695312 L 40.878906 283.628906 L 40.847656 283.558594 L 40.808594 283.496094 L 40.765625 283.429688 L 40.722656 283.371094 L 40.671875 283.308594 L 40.617188 283.253906 L 40.558594 283.199219 L 40.492188 283.144531 L 40.425781 283.09375 L 40.355469 283.042969 L 40.277344 282.996094 L 40.195312 282.953125 L 40.109375 282.910156 L 40.015625 282.867188 L 39.917969 282.828125 L 39.816406 282.792969 L 39.597656 282.722656 L 39.480469 282.695312 L 39.230469 282.640625 L 38.957031 282.59375 L 38.8125 282.574219 L 38.660156 282.558594 L 38.503906 282.542969 L 38.339844 282.53125 L 38.171875 282.523438 L 37.996094 282.515625 L 37.816406 282.511719 Z M 37.628906 282.511719 "/>
<path fill-rule="nonzero" fill="rgb(0%, 0%, 0%)" fill-opacity="1" d="M 41.761719 241.988281 L 41.015625 241.988281 L 40.878906 241.925781 L 40.75 241.863281 L 40.621094 241.796875 L 40.492188 241.726562 L 40.371094 241.65625 L 40.253906 241.582031 L 40.136719 241.503906 L 40.023438 241.425781 L 39.914062 241.34375 L 39.808594 241.261719 L 39.703125 241.171875 L 39.601562 241.085938 L 39.5 240.996094 L 39.402344 240.90625 L 39.214844 240.726562 L 39.121094 240.632812 L 39.03125 240.539062 L 38.773438 240.257812 L 38.527344 239.976562 L 38.449219 239.878906 L 38.371094 239.789062 L 38.214844 239.601562 L 38.140625 239.507812 L 38.070312 239.414062 L 37.996094 239.320312 L 37.921875 239.230469 L 37.851562 239.140625 L 37.777344 239.054688 L 37.707031 238.96875 L 37.558594 238.804688 L 37.488281 238.726562 L 37.414062 238.648438 L 37.34375 238.570312 L 37.269531 238.496094 L 37.195312 238.425781 L 37.046875 238.292969 L 36.96875 238.234375 L 36.894531 238.175781 L 36.816406 238.117188 L 36.660156 238.015625 L 36.582031 237.96875 L 36.5 237.921875 L 36.417969 237.882812 L 36.332031 237.847656 L 36.246094 237.816406 L 36.15625 237.792969 L 36.0625 237.769531 L 35.972656 237.753906 L 35.875 237.742188 L 35.777344 237.734375 L 35.609375 237.734375 L 35.539062 237.738281 L 35.476562 237.742188 L 35.410156 237.75 L 35.347656 237.757812 L 35.289062 237.769531 L 35.171875 237.800781 L 35.007812 237.859375 L 34.957031 237.882812 L 34.910156 237.910156 L 34.859375 237.9375 L 34.816406 237.96875 L 34.769531 238 L 34.726562 238.03125 L 34.6875 238.066406 L 34.648438 238.105469 L 34.613281 238.144531 L 34.574219 238.183594 L 34.511719 238.269531 L 34.480469 238.316406 L 34.425781 238.410156 L 34.402344 238.460938 L 34.382812 238.515625 L 34.359375 238.570312 L 34.34375 238.625 L 34.324219 238.679688 L 34.292969 238.796875 L 34.28125 238.855469 L 34.273438 238.914062 L 34.261719 238.976562 L 34.257812 239.042969 L 34.253906 239.105469 L 34.25 239.171875 L 34.25 239.363281 L 34.257812 239.425781 L 34.261719 239.488281 L 34.269531 239.546875 L 34.304688 239.722656 L 34.320312 239.78125 L 34.335938 239.835938 L 34.375 239.945312 L 34.445312 240.097656 L 34.472656 240.144531 L 34.503906 240.195312 L 34.53125 240.238281 L 34.566406 240.285156 L 34.671875 240.414062 L 34.714844 240.453125 L 34.753906 240.492188 L 34.796875 240.527344 L 34.84375 240.5625 L 34.890625 240.59375 L 34.9375 240.628906 L 34.988281 240.65625 L 35.039062 240.6875 L 35.089844 240.710938 L 35.144531 240.738281 L 35.203125 240.757812 L 35.257812 240.777344 L 35.320312 240.796875 L 35.378906 240.8125 L 35.441406 240.828125 L 35.507812 240.84375 L 35.574219 240.851562 L 35.644531 240.863281 L 35.542969 241.941406 L 35.453125 241.929688 L 35.367188 241.914062 L 35.195312 241.875 L 35.109375 241.851562 L 35.027344 241.828125 L 34.863281 241.765625 L 34.707031 241.695312 L 34.550781 241.609375 L 34.480469 241.566406 L 34.40625 241.515625 L 34.335938 241.464844 L 34.269531 241.410156 L 34.203125 241.351562 L 34.140625 241.292969 L 34.078125 241.226562 L 34.019531 241.160156 L 33.960938 241.089844 L 33.90625 241.019531 L 33.851562 240.945312 L 33.800781 240.867188 L 33.753906 240.789062 L 33.707031 240.703125 L 33.664062 240.621094 L 33.585938 240.441406 L 33.550781 240.347656 L 33.519531 240.25 L 33.488281 240.148438 L 33.464844 240.046875 L 33.441406 239.9375 L 33.421875 239.828125 L 33.410156 239.71875 L 33.394531 239.601562 L 33.386719 239.484375 L 33.382812 239.363281 L 33.382812 239.117188 L 33.386719 239 L 33.394531 238.882812 L 33.417969 238.65625 L 33.433594 238.550781 L 33.453125 238.445312 L 33.476562 238.339844 L 33.5 238.242188 L 33.527344 238.144531 L 33.589844 237.957031 L 33.628906 237.867188 L 33.667969 237.785156 L 33.710938 237.699219 L 33.753906 237.621094 L 33.800781 237.546875 L 33.851562 237.472656 L 33.90625 237.402344 L 33.960938 237.335938 L 34.019531 237.269531 L 34.082031 237.207031 L 34.144531 237.148438 L 34.210938 237.09375 L 34.28125 237.039062 L 34.429688 236.945312 L 34.507812 236.902344 L 34.585938 236.863281 L 34.671875 236.824219 L 34.753906 236.792969 L 34.84375 236.761719 L 34.933594 236.734375 L 35.027344 236.710938 L 35.125 236.691406 L 35.222656 236.675781 L 35.324219 236.664062 L 35.425781 236.65625 L 35.644531 236.648438 L 35.808594 236.65625 L 35.890625 236.664062 L 35.96875 236.671875 L 36.046875 236.6875 L 36.128906 236.703125 L 36.207031 236.722656 L 36.28125 236.746094 L 36.359375 236.773438 L 36.433594 236.800781 L 36.582031 236.863281 L 36.65625 236.898438 L 36.726562 236.9375 L 36.800781 236.972656 L 36.941406 237.058594 L 37.082031 237.152344 L 37.148438 237.199219 L 37.214844 237.25 L 37.285156 237.300781 L 37.484375 237.464844 L 37.546875 237.523438 L 37.613281 237.585938 L 37.675781 237.644531 L 37.804688 237.773438 L 37.992188 237.972656 L 38.054688 238.042969 L 38.117188 238.109375 L 38.242188 238.25 L 38.304688 238.316406 L 38.363281 238.390625 L 38.425781 238.460938 L 38.484375 238.53125 L 38.546875 238.601562 L 38.605469 238.675781 L 38.664062 238.746094 L 38.726562 238.820312 L 38.785156 238.890625 L 38.84375 238.964844 L 38.902344 239.035156 L 38.964844 239.109375 L 39.023438 239.179688 L 39.082031 239.253906 L 39.316406 239.535156 L 39.378906 239.601562 L 39.554688 239.800781 L 39.617188 239.867188 L 39.675781 239.929688 L 39.855469 240.109375 L 39.917969 240.167969 L 39.976562 240.222656 L 40.101562 240.332031 L 40.226562 240.433594 L 40.285156 240.484375 L 40.347656 240.53125 L 40.535156 240.660156 L 40.601562 240.695312 L 40.664062 240.734375 L 40.863281 240.828125 L 40.863281 236.519531 L 41.761719 236.519531 Z M 41.761719 241.988281 "/>
<path fill-rule="nonzero" fill="rgb(0%, 0%, 0%)" fill-opacity="1" d="M 39.890625 192.375 L 41.761719 192.375 L 41.761719 193.371094 L 39.890625 193.371094 L 39.890625 197.261719 L 39.070312 197.261719 L 33.503906 193.484375 L 33.503906 192.375 L 39.058594 192.375 L 39.058594 191.214844 L 39.890625 191.214844 Z M 34.695312 193.371094 L 34.699219 193.375 L 34.714844 193.382812 L 34.738281 193.390625 L 34.761719 193.40625 L 34.792969 193.421875 L 34.8125 193.429688 L 34.828125 193.4375 L 34.84375 193.449219 L 34.863281 193.460938 L 34.878906 193.46875 L 34.917969 193.492188 L 34.9375 193.5 L 34.976562 193.523438 L 35 193.535156 L 35.039062 193.558594 L 35.0625 193.570312 L 35.082031 193.582031 L 35.105469 193.59375 L 35.125 193.609375 L 35.171875 193.632812 L 35.191406 193.644531 L 35.214844 193.660156 L 35.234375 193.671875 L 35.257812 193.679688 L 35.273438 193.691406 L 35.3125 193.714844 L 35.328125 193.722656 L 35.359375 193.746094 L 35.375 193.753906 L 35.390625 193.765625 L 38.507812 195.878906 L 38.519531 195.886719 L 38.527344 195.890625 L 38.5625 195.914062 L 38.574219 195.925781 L 38.589844 195.933594 L 38.601562 195.945312 L 38.632812 195.96875 L 38.644531 195.976562 L 38.691406 196.011719 L 38.707031 196.019531 L 38.726562 196.03125 L 38.867188 196.136719 L 38.878906 196.148438 L 38.957031 196.207031 L 38.96875 196.21875 L 38.984375 196.230469 L 38.996094 196.238281 L 39.007812 196.25 L 39.03125 196.265625 L 39.039062 196.273438 L 39.050781 196.28125 L 39.058594 196.289062 L 39.058594 193.371094 Z M 34.695312 193.371094 "/>
<path fill-rule="nonzero" fill="rgb(0%, 0%, 0%)" fill-opacity="1" d="M 39.058594 146.335938 L 39.183594 146.339844 L 39.304688 146.34375 L 39.421875 146.351562 L 39.65625 146.382812 L 39.769531 146.402344 L 39.878906 146.421875 L 39.988281 146.449219 L 40.097656 146.480469 L 40.203125 146.511719 L 40.304688 146.546875 L 40.402344 146.589844 L 40.5 146.628906 L 40.589844 146.675781 L 40.683594 146.726562 L 40.769531 146.777344 L 40.855469 146.835938 L 40.9375 146.894531 L 41.015625 146.957031 L 41.09375 147.023438 L 41.164062 147.089844 L 41.234375 147.164062 L 41.300781 147.238281 L 41.363281 147.316406 L 41.421875 147.398438 L 41.53125 147.570312 L 41.582031 147.664062 L 41.628906 147.757812 L 41.671875 147.855469 L 41.710938 147.957031 L 41.746094 148.058594 L 41.777344 148.167969 L 41.804688 148.277344 L 41.824219 148.390625 L 41.84375 148.507812 L 41.859375 148.625 L 41.875 148.875 L 41.878906 149.003906 L 41.875 149.144531 L 41.867188 149.285156 L 41.851562 149.417969 L 41.832031 149.550781 L 41.808594 149.679688 L 41.777344 149.804688 L 41.742188 149.921875 L 41.699219 150.039062 L 41.652344 150.152344 L 41.601562 150.261719 L 41.542969 150.367188 L 41.480469 150.472656 L 41.414062 150.570312 L 41.34375 150.664062 L 41.265625 150.757812 L 41.183594 150.84375 L 41.097656 150.929688 L 41.007812 151.007812 L 40.910156 151.085938 L 40.8125 151.160156 L 40.703125 151.230469 L 40.59375 151.296875 L 40.476562 151.359375 L 40.355469 151.417969 L 40.230469 151.472656 L 40.101562 151.523438 L 39.96875 151.574219 L 39.832031 151.617188 L 39.6875 151.660156 L 39.539062 151.699219 L 39.386719 151.730469 L 39.230469 151.761719 L 39.066406 151.789062 L 38.902344 151.8125 L 38.730469 151.832031 L 38.558594 151.847656 L 38.378906 151.859375 L 38.199219 151.867188 L 37.824219 151.875 L 37.605469 151.871094 L 37.394531 151.867188 L 37.1875 151.855469 L 36.984375 151.84375 L 36.789062 151.824219 L 36.597656 151.804688 L 36.414062 151.777344 L 36.234375 151.746094 L 36.058594 151.714844 L 35.890625 151.675781 L 35.726562 151.632812 L 35.566406 151.585938 L 35.414062 151.535156 L 35.265625 151.484375 L 35.125 151.425781 L 34.988281 151.367188 L 34.859375 151.300781 L 34.734375 151.234375 L 34.613281 151.164062 L 34.5 151.089844 L 34.390625 151.011719 L 34.289062 150.929688 L 34.191406 150.847656 L 34.097656 150.757812 L 34.011719 150.667969 L 33.929688 150.574219 L 33.855469 150.476562 L 33.785156 150.375 L 33.722656 150.269531 L 33.664062 150.164062 L 33.609375 150.050781 L 33.5625 149.9375 L 33.519531 149.820312 L 33.480469 149.699219 L 33.453125 149.578125 L 33.425781 149.453125 L 33.40625 149.324219 L 33.390625 149.191406 L 33.382812 149.058594 L 33.382812 148.753906 L 33.390625 148.671875 L 33.394531 148.59375 L 33.402344 148.511719 L 33.425781 148.355469 L 33.4375 148.28125 L 33.453125 148.203125 L 33.46875 148.128906 L 33.488281 148.058594 L 33.507812 147.984375 L 33.53125 147.914062 L 33.558594 147.847656 L 33.585938 147.777344 L 33.613281 147.710938 L 33.648438 147.648438 L 33.679688 147.585938 L 33.757812 147.460938 L 33.796875 147.402344 L 33.882812 147.285156 L 33.929688 147.230469 L 33.980469 147.175781 L 34.089844 147.074219 L 34.148438 147.023438 L 34.207031 146.976562 L 34.273438 146.929688 L 34.335938 146.882812 L 34.40625 146.839844 L 34.476562 146.800781 L 34.554688 146.761719 L 34.628906 146.722656 L 34.710938 146.6875 L 34.792969 146.65625 L 34.882812 146.625 L 34.96875 146.59375 L 35.0625 146.566406 L 35.246094 147.574219 L 35.140625 147.609375 L 35.042969 147.648438 L 34.953125 147.691406 L 34.867188 147.738281 L 34.785156 147.789062 L 34.710938 147.84375 L 34.644531 147.902344 L 34.582031 147.964844 L 34.527344 148.03125 L 34.476562 148.101562 L 34.429688 148.171875 L 34.390625 148.25 L 34.355469 148.324219 L 34.324219 148.40625 L 34.296875 148.488281 L 34.273438 148.570312 L 34.257812 148.660156 L 34.246094 148.746094 L 34.238281 148.839844 L 34.238281 149.019531 L 34.246094 149.101562 L 34.253906 149.1875 L 34.269531 149.265625 L 34.289062 149.347656 L 34.308594 149.425781 L 34.335938 149.5 L 34.367188 149.574219 L 34.402344 149.648438 L 34.441406 149.71875 L 34.484375 149.789062 L 34.53125 149.855469 L 34.582031 149.917969 L 34.636719 149.984375 L 34.761719 150.101562 L 34.828125 150.160156 L 34.902344 150.214844 L 34.976562 150.265625 L 35.058594 150.316406 L 35.140625 150.363281 L 35.226562 150.410156 L 35.414062 150.496094 L 35.515625 150.535156 L 35.617188 150.570312 L 35.726562 150.605469 L 35.839844 150.636719 L 35.957031 150.667969 L 36.078125 150.695312 L 36.203125 150.722656 L 36.332031 150.742188 L 36.464844 150.761719 L 36.601562 150.777344 L 36.742188 150.792969 L 36.886719 150.804688 L 37.191406 150.820312 L 37.351562 150.824219 L 37.511719 150.824219 L 37.40625 150.765625 L 37.308594 150.703125 L 37.214844 150.632812 L 37.125 150.558594 L 37.042969 150.480469 L 36.964844 150.398438 L 36.890625 150.308594 L 36.824219 150.214844 L 36.761719 150.117188 L 36.703125 150.015625 L 36.648438 149.910156 L 36.601562 149.800781 L 36.558594 149.691406 L 36.523438 149.574219 L 36.492188 149.457031 L 36.46875 149.335938 L 36.449219 149.210938 L 36.433594 149.085938 L 36.425781 148.953125 L 36.421875 148.820312 L 36.429688 148.601562 L 36.4375 148.492188 L 36.453125 148.386719 L 36.46875 148.285156 L 36.488281 148.183594 L 36.511719 148.085938 L 36.539062 147.988281 L 36.570312 147.894531 L 36.605469 147.800781 L 36.640625 147.710938 L 36.726562 147.539062 L 36.773438 147.457031 L 36.828125 147.378906 L 36.878906 147.300781 L 36.9375 147.226562 L 37 147.15625 L 37.0625 147.089844 L 37.132812 147.023438 L 37.199219 146.957031 L 37.347656 146.839844 L 37.425781 146.785156 L 37.507812 146.734375 L 37.59375 146.683594 L 37.679688 146.636719 L 37.773438 146.59375 L 37.867188 146.554688 L 38.0625 146.484375 L 38.164062 146.453125 L 38.265625 146.425781 L 38.371094 146.402344 L 38.480469 146.382812 L 38.589844 146.367188 L 38.703125 146.355469 L 38.820312 146.34375 L 38.9375 146.339844 Z M 39.105469 147.410156 L 39.019531 147.410156 L 38.855469 147.417969 L 38.777344 147.425781 L 38.621094 147.449219 L 38.546875 147.460938 L 38.472656 147.476562 L 38.332031 147.515625 L 38.132812 147.585938 L 38.074219 147.617188 L 38.011719 147.648438 L 37.957031 147.679688 L 37.898438 147.714844 L 37.847656 147.75 L 37.796875 147.789062 L 37.746094 147.832031 L 37.652344 147.917969 L 37.609375 147.96875 L 37.566406 148.015625 L 37.53125 148.066406 L 37.492188 148.121094 L 37.460938 148.175781 L 37.425781 148.234375 L 37.371094 148.351562 L 37.347656 148.417969 L 37.324219 148.480469 L 37.300781 148.546875 L 37.269531 148.6875 L 37.257812 148.761719 L 37.25 148.835938 L 37.242188 148.914062 L 37.238281 148.992188 L 37.238281 149.1875 L 37.246094 149.246094 L 37.25 149.304688 L 37.257812 149.363281 L 37.269531 149.421875 L 37.28125 149.476562 L 37.292969 149.535156 L 37.324219 149.652344 L 37.363281 149.769531 L 37.382812 149.824219 L 37.40625 149.878906 L 37.433594 149.933594 L 37.464844 149.988281 L 37.492188 150.039062 L 37.527344 150.089844 L 37.5625 150.136719 L 37.601562 150.1875 L 37.636719 150.234375 L 37.722656 150.320312 L 37.769531 150.363281 L 37.816406 150.402344 L 37.867188 150.4375 L 37.921875 150.476562 L 37.980469 150.507812 L 38.035156 150.542969 L 38.097656 150.574219 L 38.160156 150.601562 L 38.226562 150.625 L 38.296875 150.648438 L 38.367188 150.667969 L 38.441406 150.683594 L 38.597656 150.707031 L 38.679688 150.714844 L 38.765625 150.71875 L 38.945312 150.71875 L 39.035156 150.714844 L 39.121094 150.710938 L 39.210938 150.703125 L 39.382812 150.679688 L 39.464844 150.664062 L 39.628906 150.625 L 39.710938 150.601562 L 39.785156 150.578125 L 39.863281 150.550781 L 39.9375 150.523438 L 40.078125 150.460938 L 40.210938 150.390625 L 40.335938 150.3125 L 40.394531 150.269531 L 40.453125 150.222656 L 40.507812 150.175781 L 40.558594 150.128906 L 40.609375 150.078125 L 40.703125 149.96875 L 40.746094 149.914062 L 40.824219 149.796875 L 40.859375 149.734375 L 40.890625 149.671875 L 40.917969 149.609375 L 40.945312 149.542969 L 40.964844 149.476562 L 40.984375 149.40625 L 41 149.335938 L 41.011719 149.265625 L 41.019531 149.191406 L 41.027344 149.113281 L 41.027344 148.964844 L 41.023438 148.890625 L 41.015625 148.816406 L 41.007812 148.746094 L 40.996094 148.679688 L 40.980469 148.609375 L 40.964844 148.546875 L 40.945312 148.480469 L 40.921875 148.417969 L 40.898438 148.359375 L 40.871094 148.300781 L 40.808594 148.183594 L 40.773438 148.128906 L 40.65625 147.976562 L 40.613281 147.929688 L 40.519531 147.84375 L 40.464844 147.800781 L 40.414062 147.761719 L 40.355469 147.726562 L 40.300781 147.691406 L 40.238281 147.65625 L 40.175781 147.625 L 40.113281 147.597656 L 39.980469 147.542969 L 39.910156 147.519531 L 39.761719 147.480469 L 39.6875 147.464844 L 39.609375 147.449219 L 39.527344 147.4375 L 39.449219 147.425781 L 39.363281 147.417969 L 39.28125 147.414062 L 39.195312 147.410156 Z M 39.105469 147.410156 "/>
<path fill-rule="nonzero" fill="rgb(0%, 0%, 0%)" fill-opacity="1" d="M 39.457031 101.277344 L 39.5625 101.28125 L 39.664062 101.285156 L 39.765625 101.292969 L 39.867188 101.304688 L 39.964844 101.320312 L 40.0625 101.339844 L 40.15625 101.359375 L 40.25 101.386719 L 40.339844 101.414062 L 40.429688 101.449219 L 40.601562 101.519531 L 40.683594 101.5625 L 40.839844 101.65625 L 40.988281 101.765625 L 41.058594 101.828125 L 41.125 101.890625 L 41.191406 101.957031 L 41.253906 102.027344 L 41.316406 102.101562 L 41.371094 102.179688 L 41.425781 102.261719 L 41.480469 102.347656 L 41.527344 102.433594 L 41.574219 102.527344 L 41.617188 102.625 L 41.65625 102.726562 L 41.695312 102.832031 L 41.730469 102.9375 L 41.761719 103.050781 L 41.789062 103.167969 L 41.8125 103.289062 L 41.832031 103.414062 L 41.847656 103.539062 L 41.859375 103.671875 L 41.871094 103.808594 L 41.875 103.945312 L 41.878906 104.089844 L 41.875 104.234375 L 41.871094 104.375 L 41.847656 104.640625 L 41.832031 104.769531 L 41.8125 104.894531 L 41.789062 105.011719 L 41.761719 105.128906 L 41.730469 105.242188 L 41.695312 105.351562 L 41.617188 105.554688 L 41.574219 105.652344 L 41.480469 105.832031 L 41.429688 105.917969 L 41.375 106.003906 L 41.320312 106.082031 L 41.257812 106.15625 L 41.199219 106.230469 L 41.132812 106.296875 L 40.992188 106.421875 L 40.921875 106.476562 L 40.847656 106.53125 L 40.769531 106.582031 L 40.6875 106.628906 L 40.605469 106.667969 L 40.523438 106.710938 L 40.4375 106.746094 L 40.347656 106.777344 L 40.253906 106.804688 L 40.066406 106.851562 L 39.972656 106.867188 L 39.875 106.882812 L 39.773438 106.894531 L 39.675781 106.902344 L 39.574219 106.90625 L 39.46875 106.910156 L 39.378906 106.90625 L 39.207031 106.898438 L 39.042969 106.875 L 38.886719 106.84375 L 38.8125 106.824219 L 38.738281 106.800781 L 38.597656 106.746094 L 38.464844 106.683594 L 38.339844 106.613281 L 38.222656 106.535156 L 38.113281 106.449219 L 38.0625 106.40625 L 38.011719 106.359375 L 37.917969 106.257812 L 37.832031 106.15625 L 37.753906 106.046875 L 37.683594 105.9375 L 37.652344 105.878906 L 37.621094 105.816406 L 37.59375 105.757812 L 37.566406 105.695312 L 37.542969 105.636719 L 37.519531 105.574219 L 37.5 105.511719 L 37.453125 105.324219 L 37.441406 105.261719 L 37.417969 105.261719 L 37.402344 105.332031 L 37.382812 105.398438 L 37.359375 105.464844 L 37.3125 105.589844 L 37.285156 105.652344 L 37.191406 105.828125 L 37.15625 105.882812 L 37.117188 105.9375 L 37.039062 106.039062 L 36.996094 106.085938 L 36.957031 106.132812 L 36.910156 106.175781 L 36.867188 106.21875 L 36.820312 106.261719 L 36.769531 106.300781 L 36.722656 106.339844 L 36.667969 106.375 L 36.617188 106.410156 L 36.507812 106.472656 L 36.390625 106.527344 L 36.335938 106.554688 L 36.273438 106.578125 L 36.214844 106.601562 L 36.089844 106.640625 L 36.027344 106.65625 L 35.964844 106.667969 L 35.898438 106.683594 L 35.699219 106.707031 L 35.566406 106.714844 L 35.410156 106.714844 L 35.324219 106.707031 L 35.242188 106.699219 L 35.15625 106.6875 L 35.074219 106.675781 L 34.996094 106.65625 L 34.914062 106.636719 L 34.757812 106.582031 L 34.683594 106.550781 L 34.605469 106.515625 L 34.53125 106.476562 L 34.457031 106.433594 L 34.386719 106.390625 L 34.320312 106.34375 L 34.1875 106.234375 L 34.125 106.179688 L 34.007812 106.054688 L 33.949219 105.984375 L 33.894531 105.914062 L 33.84375 105.84375 L 33.792969 105.765625 L 33.746094 105.6875 L 33.660156 105.515625 L 33.621094 105.425781 L 33.585938 105.335938 L 33.550781 105.238281 L 33.519531 105.140625 L 33.488281 105.039062 L 33.464844 104.933594 L 33.441406 104.824219 L 33.421875 104.714844 L 33.410156 104.601562 L 33.394531 104.484375 L 33.386719 104.363281 L 33.382812 104.238281 L 33.382812 103.980469 L 33.386719 103.851562 L 33.394531 103.726562 L 33.410156 103.605469 L 33.421875 103.484375 L 33.441406 103.371094 L 33.464844 103.257812 L 33.488281 103.152344 L 33.519531 103.046875 L 33.550781 102.949219 L 33.585938 102.851562 L 33.625 102.753906 L 33.664062 102.664062 L 33.75 102.492188 L 33.800781 102.414062 L 33.847656 102.335938 L 33.902344 102.261719 L 33.957031 102.195312 L 34.074219 102.0625 L 34.132812 102.003906 L 34.195312 101.945312 L 34.257812 101.890625 L 34.324219 101.84375 L 34.464844 101.75 L 34.535156 101.710938 L 34.613281 101.675781 L 34.6875 101.640625 L 34.765625 101.609375 L 34.84375 101.585938 L 34.925781 101.5625 L 35.003906 101.539062 L 35.167969 101.507812 L 35.253906 101.496094 L 35.335938 101.488281 L 35.421875 101.484375 L 35.574219 101.484375 L 35.644531 101.488281 L 35.710938 101.492188 L 35.773438 101.5 L 35.839844 101.507812 L 35.90625 101.519531 L 35.96875 101.53125 L 36.03125 101.546875 L 36.097656 101.5625 L 36.160156 101.582031 L 36.21875 101.601562 L 36.28125 101.625 L 36.398438 101.671875 L 36.457031 101.699219 L 36.621094 101.792969 L 36.675781 101.828125 L 36.726562 101.863281 L 36.777344 101.902344 L 36.871094 101.980469 L 36.917969 102.023438 L 37.046875 102.164062 L 37.125 102.265625 L 37.195312 102.375 L 37.257812 102.492188 L 37.285156 102.550781 L 37.332031 102.675781 L 37.355469 102.742188 L 37.375 102.808594 L 37.40625 102.949219 L 37.429688 102.949219 L 37.441406 102.878906 L 37.472656 102.738281 L 37.511719 102.605469 L 37.535156 102.539062 L 37.5625 102.472656 L 37.585938 102.410156 L 37.648438 102.285156 L 37.710938 102.167969 L 37.746094 102.109375 L 37.824219 102 L 37.910156 101.898438 L 37.957031 101.851562 L 38.058594 101.757812 L 38.160156 101.671875 L 38.21875 101.632812 L 38.273438 101.59375 L 38.332031 101.558594 L 38.394531 101.523438 L 38.457031 101.492188 L 38.523438 101.460938 L 38.589844 101.433594 L 38.660156 101.40625 L 38.730469 101.382812 L 38.804688 101.359375 L 38.878906 101.339844 L 39.035156 101.308594 L 39.117188 101.296875 L 39.28125 101.28125 L 39.367188 101.28125 Z M 35.566406 102.578125 L 35.503906 102.578125 L 35.386719 102.585938 L 35.328125 102.59375 L 35.269531 102.597656 L 35.214844 102.609375 L 35.15625 102.617188 L 35.101562 102.632812 L 35.050781 102.644531 L 34.949219 102.675781 L 34.898438 102.695312 L 34.851562 102.714844 L 34.757812 102.761719 L 34.714844 102.789062 L 34.675781 102.820312 L 34.632812 102.851562 L 34.597656 102.882812 L 34.558594 102.917969 L 34.488281 102.996094 L 34.453125 103.039062 L 34.421875 103.082031 L 34.367188 103.175781 L 34.339844 103.226562 L 34.292969 103.335938 L 34.273438 103.394531 L 34.25 103.453125 L 34.234375 103.515625 L 34.203125 103.648438 L 34.191406 103.71875 L 34.183594 103.792969 L 34.175781 103.871094 L 34.171875 103.949219 L 34.167969 104.03125 L 34.167969 104.195312 L 34.175781 104.351562 L 34.183594 104.425781 L 34.191406 104.496094 L 34.203125 104.566406 L 34.21875 104.632812 L 34.25 104.757812 L 34.273438 104.816406 L 34.292969 104.875 L 34.316406 104.929688 L 34.339844 104.980469 L 34.367188 105.03125 L 34.421875 105.125 L 34.453125 105.171875 L 34.488281 105.210938 L 34.523438 105.253906 L 34.558594 105.292969 L 34.597656 105.328125 L 34.632812 105.359375 L 34.675781 105.390625 L 34.714844 105.421875 L 34.757812 105.449219 L 34.898438 105.519531 L 34.949219 105.539062 L 35.101562 105.585938 L 35.15625 105.597656 L 35.214844 105.609375 L 35.269531 105.617188 L 35.328125 105.625 L 35.503906 105.636719 L 35.664062 105.636719 L 35.765625 105.628906 L 35.96875 105.597656 L 36.070312 105.574219 L 36.171875 105.542969 L 36.222656 105.523438 L 36.269531 105.503906 L 36.363281 105.457031 L 36.410156 105.429688 L 36.453125 105.402344 L 36.539062 105.339844 L 36.582031 105.304688 L 36.660156 105.226562 L 36.695312 105.183594 L 36.765625 105.089844 L 36.796875 105.039062 L 36.828125 104.984375 L 36.855469 104.929688 L 36.886719 104.871094 L 36.910156 104.808594 L 36.933594 104.742188 L 36.953125 104.675781 L 36.972656 104.605469 L 36.984375 104.527344 L 37 104.449219 L 37.007812 104.367188 L 37.015625 104.28125 L 37.019531 104.195312 L 37.019531 104.003906 L 37.015625 103.910156 L 37.007812 103.820312 L 37 103.734375 L 36.984375 103.652344 L 36.972656 103.578125 L 36.953125 103.503906 L 36.933594 103.433594 L 36.910156 103.367188 L 36.886719 103.304688 L 36.855469 103.246094 L 36.828125 103.1875 L 36.765625 103.085938 L 36.695312 102.992188 L 36.660156 102.949219 L 36.621094 102.910156 L 36.582031 102.875 L 36.453125 102.78125 L 36.410156 102.753906 L 36.316406 102.707031 L 36.269531 102.6875 L 36.222656 102.671875 L 36.121094 102.640625 L 36.070312 102.632812 L 36.019531 102.621094 L 35.867188 102.597656 L 35.816406 102.59375 L 35.765625 102.585938 L 35.714844 102.582031 L 35.664062 102.582031 L 35.617188 102.578125 Z M 39.359375 102.375 L 39.296875 102.375 L 39.121094 102.386719 L 39.066406 102.394531 L 39.007812 102.402344 L 38.949219 102.414062 L 38.894531 102.425781 L 38.785156 102.457031 L 38.726562 102.472656 L 38.671875 102.492188 L 38.570312 102.539062 L 38.519531 102.566406 L 38.378906 102.660156 L 38.25 102.777344 L 38.207031 102.824219 L 38.167969 102.871094 L 38.132812 102.917969 L 38.0625 103.027344 L 38 103.144531 L 37.945312 103.277344 L 37.921875 103.34375 L 37.875 103.492188 L 37.859375 103.570312 L 37.84375 103.652344 L 37.832031 103.738281 L 37.816406 103.917969 L 37.8125 104.015625 L 37.8125 104.207031 L 37.816406 104.292969 L 37.824219 104.378906 L 37.832031 104.460938 L 37.84375 104.542969 L 37.859375 104.621094 L 37.875 104.695312 L 37.898438 104.769531 L 37.921875 104.839844 L 37.945312 104.90625 L 37.972656 104.96875 L 38 105.027344 L 38.0625 105.144531 L 38.097656 105.199219 L 38.132812 105.25 L 38.167969 105.296875 L 38.207031 105.34375 L 38.25 105.390625 L 38.292969 105.433594 L 38.335938 105.472656 L 38.378906 105.507812 L 38.425781 105.542969 L 38.527344 105.605469 L 38.628906 105.660156 L 38.738281 105.707031 L 38.796875 105.726562 L 38.851562 105.742188 L 38.910156 105.757812 L 38.964844 105.773438 L 39.082031 105.796875 L 39.199219 105.8125 L 39.261719 105.816406 L 39.320312 105.816406 L 39.382812 105.820312 L 39.457031 105.816406 L 39.53125 105.816406 L 39.605469 105.8125 L 39.746094 105.796875 L 39.816406 105.785156 L 39.882812 105.773438 L 40.015625 105.742188 L 40.078125 105.726562 L 40.140625 105.707031 L 40.257812 105.660156 L 40.367188 105.605469 L 40.421875 105.574219 L 40.523438 105.503906 L 40.617188 105.425781 L 40.703125 105.339844 L 40.742188 105.292969 L 40.78125 105.242188 L 40.816406 105.1875 L 40.878906 105.078125 L 40.910156 105.015625 L 40.9375 104.953125 L 40.964844 104.886719 L 40.988281 104.820312 L 41.007812 104.75 L 41.027344 104.675781 L 41.042969 104.597656 L 41.054688 104.519531 L 41.066406 104.4375 L 41.074219 104.351562 L 41.082031 104.261719 L 41.085938 104.171875 L 41.085938 103.984375 L 41.082031 103.894531 L 41.074219 103.804688 L 41.066406 103.71875 L 41.054688 103.636719 L 41.042969 103.558594 L 41.027344 103.480469 L 41.007812 103.40625 L 40.988281 103.335938 L 40.964844 103.269531 L 40.910156 103.144531 L 40.847656 103.027344 L 40.816406 102.972656 L 40.78125 102.921875 L 40.703125 102.828125 L 40.617188 102.742188 L 40.570312 102.703125 L 40.523438 102.667969 L 40.472656 102.632812 L 40.421875 102.601562 L 40.3125 102.546875 L 40.253906 102.519531 L 40.136719 102.480469 L 40.074219 102.460938 L 39.941406 102.429688 L 39.871094 102.417969 L 39.804688 102.40625 L 39.734375 102.394531 L 39.660156 102.386719 L 39.511719 102.378906 L 39.433594 102.375 Z M 39.359375 102.375 "/>
<path fill-rule="nonzero" fill="rgb(0%, 0%, 0%)" fill-opacity="1" d="M 41.761719 64.800781 L 40.863281 64.800781 L 40.863281 62.695312 L 34.511719 62.695312 L 35.84375 64.558594 L 34.847656 64.558594 L 33.503906 62.609375 L 33.503906 61.636719 L 40.863281 61.636719 L 40.863281 59.625 L 41.761719 59.625 Z M 41.761719 64.800781 "/>
<path fill-rule="nonzero" fill="rgb(0%, 0%, 0%)" fill-opacity="1" d="M 37.628906 52.835938 L 37.863281 52.835938 L 38.089844 52.84375 L 38.308594 52.855469 L 38.519531 52.871094 L 38.726562 52.890625 L 38.921875 52.917969 L 39.109375 52.945312 L 39.292969 52.980469 L 39.464844 53.019531 L 39.632812 53.0625 L 39.792969 53.109375 L 39.945312 53.160156 L 40.089844 53.210938 L 40.230469 53.269531 L 40.367188 53.328125 L 40.492188 53.390625 L 40.617188 53.457031 L 40.730469 53.527344 L 40.839844 53.601562 L 40.945312 53.679688 L 41.042969 53.757812 L 41.132812 53.839844 L 41.21875 53.921875 L 41.300781 54.011719 L 41.375 54.101562 L 41.441406 54.191406 L 41.503906 54.289062 L 41.5625 54.386719 L 41.613281 54.488281 L 41.660156 54.59375 L 41.703125 54.699219 L 41.738281 54.804688 L 41.769531 54.914062 L 41.800781 55.027344 L 41.824219 55.136719 L 41.84375 55.25 L 41.859375 55.367188 L 41.867188 55.480469 L 41.875 55.597656 L 41.878906 55.71875 L 41.875 55.835938 L 41.867188 55.957031 L 41.859375 56.074219 L 41.84375 56.1875 L 41.824219 56.300781 L 41.800781 56.414062 L 41.769531 56.523438 L 41.738281 56.628906 L 41.703125 56.738281 L 41.660156 56.84375 L 41.613281 56.945312 L 41.5625 57.046875 L 41.503906 57.144531 L 41.441406 57.238281 L 41.375 57.332031 L 41.300781 57.421875 L 41.21875 57.507812 L 41.132812 57.589844 L 41.042969 57.671875 L 40.945312 57.75 L 40.84375 57.824219 L 40.734375 57.898438 L 40.617188 57.964844 L 40.496094 58.03125 L 40.371094 58.09375 L 40.234375 58.152344 L 40.097656 58.207031 L 39.949219 58.257812 L 39.796875 58.308594 L 39.640625 58.355469 L 39.472656 58.394531 L 39.296875 58.433594 L 39.117188 58.464844 L 38.925781 58.492188 L 38.730469 58.515625 L 38.523438 58.535156 L 38.3125 58.550781 L 38.09375 58.5625 L 37.863281 58.570312 L 37.382812 58.570312 L 37.148438 58.5625 L 36.917969 58.550781 L 36.699219 58.535156 L 36.488281 58.515625 L 36.289062 58.492188 L 36.09375 58.464844 L 35.910156 58.433594 L 35.734375 58.394531 L 35.566406 58.355469 L 35.40625 58.308594 L 35.25 58.257812 L 35.105469 58.207031 L 34.964844 58.148438 L 34.828125 58.089844 L 34.703125 58.027344 L 34.582031 57.960938 L 34.46875 57.894531 L 34.359375 57.820312 L 34.261719 57.746094 L 34.164062 57.667969 L 34.078125 57.585938 L 33.996094 57.5 L 33.917969 57.414062 L 33.847656 57.324219 L 33.78125 57.230469 L 33.722656 57.132812 L 33.667969 57.035156 L 33.621094 56.933594 L 33.582031 56.832031 L 33.542969 56.722656 L 33.507812 56.617188 L 33.480469 56.507812 L 33.453125 56.394531 L 33.429688 56.28125 L 33.398438 56.046875 L 33.382812 55.804688 L 33.382812 55.566406 L 33.390625 55.449219 L 33.398438 55.335938 L 33.429688 55.109375 L 33.453125 55 L 33.480469 54.890625 L 33.507812 54.785156 L 33.542969 54.679688 L 33.582031 54.574219 L 33.621094 54.472656 L 33.667969 54.371094 L 33.722656 54.273438 L 33.78125 54.179688 L 33.847656 54.085938 L 33.917969 53.996094 L 33.996094 53.910156 L 34.078125 53.828125 L 34.164062 53.746094 L 34.359375 53.589844 L 34.46875 53.519531 L 34.582031 53.449219 L 34.703125 53.382812 L 34.828125 53.320312 L 34.964844 53.261719 L 35.105469 53.207031 L 35.25 53.152344 L 35.40625 53.105469 L 35.566406 53.058594 L 35.734375 53.015625 L 35.910156 52.976562 L 36.09375 52.945312 L 36.289062 52.914062 L 36.488281 52.890625 L 36.699219 52.871094 L 36.917969 52.855469 L 37.148438 52.84375 L 37.382812 52.835938 Z M 37.628906 53.90625 L 37.4375 53.910156 L 37.25 53.910156 L 37.070312 53.917969 L 36.894531 53.925781 L 36.726562 53.9375 L 36.566406 53.949219 L 36.414062 53.964844 L 36.269531 53.980469 L 36.128906 54.003906 L 35.996094 54.023438 L 35.867188 54.050781 L 35.742188 54.074219 L 35.625 54.105469 L 35.511719 54.136719 L 35.40625 54.167969 L 35.304688 54.203125 L 35.207031 54.242188 L 35.117188 54.28125 L 35.03125 54.324219 L 34.875 54.417969 L 34.804688 54.464844 L 34.738281 54.515625 L 34.675781 54.570312 L 34.617188 54.625 L 34.515625 54.742188 L 34.472656 54.804688 L 34.433594 54.867188 L 34.339844 55.066406 L 34.316406 55.136719 L 34.277344 55.285156 L 34.261719 55.359375 L 34.25 55.4375 L 34.242188 55.515625 L 34.238281 55.597656 L 34.238281 55.769531 L 34.242188 55.855469 L 34.25 55.941406 L 34.261719 56.023438 L 34.277344 56.101562 L 34.296875 56.179688 L 34.316406 56.253906 L 34.339844 56.328125 L 34.402344 56.46875 L 34.4375 56.535156 L 34.476562 56.597656 L 34.519531 56.664062 L 34.621094 56.78125 L 34.679688 56.835938 L 34.742188 56.890625 L 34.808594 56.945312 L 34.882812 56.992188 L 34.957031 57.042969 L 35.121094 57.128906 L 35.308594 57.207031 L 35.410156 57.242188 L 35.519531 57.277344 L 35.628906 57.308594 L 35.871094 57.363281 L 36 57.386719 L 36.132812 57.410156 L 36.273438 57.429688 L 36.421875 57.449219 L 36.574219 57.460938 L 36.734375 57.476562 L 36.898438 57.484375 L 37.070312 57.496094 L 37.25 57.5 L 37.4375 57.503906 L 37.816406 57.503906 L 37.996094 57.5 L 38.171875 57.496094 L 38.339844 57.484375 L 38.503906 57.476562 L 38.660156 57.460938 L 38.8125 57.449219 L 38.957031 57.429688 L 39.09375 57.410156 L 39.230469 57.386719 L 39.355469 57.363281 L 39.480469 57.335938 L 39.597656 57.304688 L 39.707031 57.273438 L 39.816406 57.238281 L 39.917969 57.203125 L 40.015625 57.164062 L 40.109375 57.125 L 40.195312 57.082031 L 40.277344 57.035156 L 40.355469 56.988281 L 40.425781 56.9375 L 40.492188 56.886719 L 40.558594 56.832031 L 40.617188 56.777344 L 40.671875 56.71875 L 40.722656 56.660156 L 40.808594 56.535156 L 40.847656 56.46875 L 40.878906 56.398438 L 40.90625 56.332031 L 40.933594 56.257812 L 40.972656 56.109375 L 40.988281 56.03125 L 41 55.953125 L 41.007812 55.875 L 41.015625 55.789062 L 41.015625 55.625 L 41.007812 55.542969 L 41 55.464844 L 40.988281 55.386719 L 40.972656 55.308594 L 40.953125 55.234375 L 40.933594 55.164062 L 40.878906 55.023438 L 40.847656 54.957031 L 40.808594 54.890625 L 40.722656 54.765625 L 40.671875 54.707031 L 40.617188 54.648438 L 40.558594 54.59375 L 40.492188 54.539062 L 40.425781 54.488281 L 40.355469 54.441406 L 40.277344 54.394531 L 40.195312 54.347656 L 40.109375 54.304688 L 40.015625 54.261719 L 39.917969 54.222656 L 39.816406 54.1875 L 39.707031 54.152344 L 39.597656 54.121094 L 39.480469 54.089844 L 39.230469 54.035156 L 38.957031 53.988281 L 38.8125 53.96875 L 38.660156 53.953125 L 38.503906 53.9375 L 38.339844 53.929688 L 38.171875 53.917969 L 37.996094 53.914062 L 37.816406 53.910156 Z M 37.628906 53.90625 "/>
</svg>
