<?xml version="1.0" encoding="UTF-8"?>
<svg xmlns="http://www.w3.org/2000/svg" xmlns:xlink="http://www.w3.org/1999/xlink" width="504" height="360" viewBox="0 0 504 360">
<rect x="-50.4" y="-36" width="604.8" height="432" fill="rgb(100%, 100%, 100%)" fill-opacity="1"/>
<path fill="none" stroke-width="0.75" stroke-linecap="round" stroke-linejoin="round" stroke="rgb(0%, 0%, 0%)" stroke-opacity="1" stroke-miterlimit="10" d="M 65.367188 279.464844 C 65.367188 283.066406 59.964844 283.066406 59.964844 279.464844 C 59.964844 275.867188 65.367188 275.867188 65.367188 279.464844 "/>
<path fill="none" stroke-width="0.75" stroke-linecap="round" stroke-linejoin="round" stroke="rgb(0%, 0%, 0%)" stroke-opacity="1" stroke-miterlimit="10" d="M 79.441406 255.761719 C 79.441406 259.363281 74.039062 259.363281 74.039062 255.761719 C 74.039062 252.164062 79.441406 252.164062 79.441406 255.761719 "/>
<path fill="none" stroke-width="0.75" stroke-linecap="round" stroke-linejoin="round" stroke="rgb(0%, 0%, 0%)" stroke-opacity="1" stroke-miterlimit="10" d="M 93.515625 232.058594 C 93.515625 235.660156 88.113281 235.660156 88.113281 232.058594 C 88.113281 228.460938 93.515625 228.460938 93.515625 232.058594 "/>
<path fill="none" stroke-width="0.75" stroke-linecap="round" stroke-linejoin="round" stroke="rgb(0%, 0%, 0%)" stroke-opacity="1" stroke-miterlimit="10" d="M 107.589844 208.355469 C 107.589844 211.957031 102.1875 211.957031 102.1875 208.355469 C 102.1875 204.753906 107.589844 204.753906 107.589844 208.355469 "/>
<path fill="none" stroke-width="0.75" stroke-linecap="round" stroke-linejoin="round" stroke="rgb(0%, 0%, 0%)" stroke-opacity="1" stroke-miterlimit="10" d="M 121.664062 184.652344 C 121.664062 188.25 116.261719 188.25 116.261719 184.652344 C 116.261719 181.050781 121.664062 181.050781 121.664062 184.652344 "/>
<path fill="none" stroke-width="0.75" stroke-linecap="round" stroke-linejoin="round" stroke="rgb(0%, 0%, 0%)" stroke-opacity="1" stroke-miterlimit="10" d="M 135.738281 160.949219 C 135.738281 164.546875 130.335938 164.546875 130.335938 160.949219 C 130.335938 157.347656 135.738281 157.347656 135.738281 160.949219 "/>
<path fill="none" stroke-width="0.75" stroke-linecap="round" stroke-linejoin="round" stroke="rgb(0%, 0%, 0%)" stroke-opacity="1" stroke-miterlimit="10" d="M 149.8125 137.246094 C 149.8125 140.84375 144.410156 140.84375 144.410156 137.246094 C 144.410156 133.644531 149.8125 133.644531 149.8125 137.246094 "/>
<path fill="none" stroke-width="0.75" stroke-linecap="round" stroke-linejoin="round" stroke="rgb(0%, 0%, 0%)" stroke-opacity="1" stroke-miterlimit="10" d="M 163.886719 113.539062 C 163.886719 117.140625 158.484375 117.140625 158.484375 113.539062 C 158.484375 109.941406 163.886719 109.941406 163.886719 113.539062 "/>
<path fill="none" stroke-width="0.75" stroke-linecap="round" stroke-linejoin="round" stroke="rgb(0%, 0%, 0%)" stroke-opacity="1" stroke-miterlimit="10" d="M 177.960938 89.835938 C 177.960938 93.4375 172.558594 93.4375 172.558594 89.835938 C 172.558594 86.238281 177.960938 86.238281 177.960938 89.835938 "/>
<path fill="none" stroke-width="0.75" stroke-linecap="round" stroke-linejoin="round" stroke="rgb(0%, 0%, 0%)" stroke-opacity="1" stroke-miterlimit="10" d="M 192.035156 66.132812 C 192.035156 69.734375 186.632812 69.734375 186.632812 66.132812 C 186.632812 62.535156 192.035156 62.535156 192.035156 66.132812 "/>
<path fill="none" stroke-width="0.75" stroke-linecap="round" stroke-linejoin="round" stroke="rgb(0%, 0%, 0%)" stroke-opacity="1" stroke-miterlimit="10" d="M 57.601562 288 L 194.398438 288 L 194.398438 57.601562 L 57.601562 57.601562 Z M 57.601562 288 "/>
<path fill-rule="nonzero" fill="rgb(0%, 0%, 0%)" fill-opacity="1" d="M 127.695312 342.71875 L 125.988281 340.117188 L 124.273438 342.71875 L 123.132812 342.71875 L 125.390625 339.460938 L 123.242188 336.378906 L 124.40625 336.378906 L 125.988281 338.847656 L 127.558594 336.378906 L 128.734375 336.378906 L 126.585938 339.449219 L 128.871094 342.71875 Z M 127.695312 342.71875 "/>
<path fill-rule="nonzero" fill="rgb(0%, 0%, 0%)" fill-opacity="1" d="M 11.519531 172.261719 L 11.632812 172.304688 L 11.746094 172.351562 L 11.855469 172.394531 L 12.066406 172.488281 L 12.167969 172.53125 L 12.363281 172.625 L 12.550781 172.71875 L 12.730469 172.8125 L 12.816406 172.859375 L 12.980469 172.960938 L 13.054688 173.011719 L 13.203125 173.121094 L 13.269531 173.175781 L 13.402344 173.292969 L 13.519531 173.410156 L 13.574219 173.472656 L 13.625 173.535156 L 13.71875 173.667969 L 13.761719 173.734375 L 13.800781 173.800781 L 13.835938 173.871094 L 13.867188 173.945312 L 13.898438 174.015625 L 13.925781 174.09375 L 13.964844 174.25 L 13.980469 174.332031 L 13.996094 174.417969 L 14.003906 174.503906 L 14.007812 174.589844 L 14.011719 174.679688 L 14.011719 174.71875 L 14.007812 174.757812 L 14.007812 174.910156 L 14.003906 174.945312 L 14.003906 174.980469 L 14 175.015625 L 14 175.050781 L 13.996094 175.085938 L 13.992188 175.117188 L 13.980469 175.222656 L 13.972656 175.261719 L 13.96875 175.296875 L 13.960938 175.332031 L 13.953125 175.371094 L 13.945312 175.40625 L 13.15625 175.40625 L 13.15625 175.386719 L 13.164062 175.339844 L 13.167969 175.3125 L 13.167969 175.289062 L 13.171875 175.261719 L 13.171875 175.238281 L 13.175781 175.210938 L 13.175781 175.183594 L 13.179688 175.15625 L 13.179688 175.128906 L 13.183594 175.101562 L 13.183594 175.074219 L 13.1875 175.050781 L 13.1875 174.957031 L 13.191406 174.9375 L 13.191406 174.914062 L 13.1875 174.824219 L 13.175781 174.734375 L 13.160156 174.644531 L 13.132812 174.554688 L 13.101562 174.46875 L 13.066406 174.382812 L 13.019531 174.296875 L 12.96875 174.214844 L 12.910156 174.132812 L 12.84375 174.054688 L 12.769531 173.976562 L 12.691406 173.898438 L 12.601562 173.824219 L 12.503906 173.75 L 12.394531 173.679688 L 12.28125 173.613281 L 12.160156 173.542969 L 12.027344 173.480469 L 11.890625 173.417969 L 11.742188 173.355469 L 11.492188 173.257812 L 5.179688 175.769531 L 5.179688 174.644531 L 8.683594 173.308594 L 8.714844 173.296875 L 8.75 173.285156 L 8.789062 173.273438 L 8.867188 173.242188 L 8.910156 173.230469 L 8.957031 173.214844 L 9.003906 173.195312 L 9.105469 173.164062 L 9.160156 173.144531 L 9.210938 173.125 L 9.265625 173.109375 L 9.316406 173.089844 L 9.371094 173.070312 L 9.421875 173.054688 L 9.476562 173.035156 L 9.527344 173.015625 L 9.582031 173 L 9.632812 172.980469 L 9.683594 172.964844 L 9.738281 172.945312 L 9.785156 172.925781 L 9.835938 172.910156 L 9.976562 172.863281 L 10.019531 172.847656 L 10.066406 172.832031 L 10.109375 172.816406 L 10.1875 172.792969 L 10.25 172.769531 L 10.304688 172.753906 L 10.324219 172.746094 L 10.34375 172.742188 L 10.359375 172.738281 L 10.371094 172.734375 L 10.359375 172.730469 L 10.320312 172.722656 L 10.300781 172.714844 L 10.277344 172.707031 L 10.25 172.699219 L 10.222656 172.6875 L 10.191406 172.675781 L 10.121094 172.652344 L 10.082031 172.640625 L 10.039062 172.625 L 10 172.609375 L 9.957031 172.59375 L 9.914062 172.582031 L 9.785156 172.535156 L 9.738281 172.515625 L 9.644531 172.484375 L 9.597656 172.464844 L 9.550781 172.449219 L 9.503906 172.429688 L 9.457031 172.414062 L 9.410156 172.394531 L 9.359375 172.378906 L 9.3125 172.359375 L 9.265625 172.34375 L 9.21875 172.324219 L 9.167969 172.308594 L 9.125 172.292969 L 9.078125 172.273438 L 9.035156 172.257812 L 8.992188 172.246094 L 8.914062 172.214844 L 8.835938 172.191406 L 8.800781 172.179688 L 5.179688 170.9375 L 5.179688 169.824219 Z M 11.519531 172.261719 "/>
</svg>
