<?xml version="1.0" encoding="UTF-8"?>
<svg xmlns="http://www.w3.org/2000/svg" xmlns:xlink="http://www.w3.org/1999/xlink" width="504" height="360" viewBox="0 0 504 360">
<rect x="-50.4" y="-36" width="604.8" height="432" fill="rgb(100%, 100%, 100%)" fill-opacity="1"/>
<path fill-rule="nonzero" fill="rgb(100%, 0%, 0%)" fill-opacity="1" stroke-width="0.75" stroke-linecap="round" stroke-linejoin="round" stroke="rgb(0%, 0%, 0%)" stroke-opacity="1" stroke-miterlimit="10" d="M 74.398438 284.308594 L 95.972656 284.308594 L 95.972656 269.289062 L 74.398438 269.289062 Z M 74.398438 284.308594 "/>
<path fill-rule="nonzero" fill="rgb(100%, 60%, 0%)" fill-opacity="1" stroke-width="0.75" stroke-linecap="round" stroke-linejoin="round" stroke="rgb(0%, 0%, 0%)" stroke-opacity="1" stroke-miterlimit="10" d="M 100.289062 284.308594 L 121.863281 284.308594 L 121.863281 254.273438 L 100.289062 254.273438 Z M 100.289062 284.308594 "/>
<path fill-rule="nonzero" fill="rgb(80%, 100%, 0%)" fill-opacity="1" stroke-width="0.75" stroke-linecap="round" stroke-linejoin="round" stroke="rgb(0%, 0%, 0%)" stroke-opacity="1" stroke-miterlimit="10" d="M 126.175781 284.308594 L 147.75 284.308594 L 147.75 239.253906 L 126.175781 239.253906 Z M 126.175781 284.308594 "/>
<path fill-rule="nonzero" fill="rgb(20%, 100%, 0%)" fill-opacity="1" stroke-width="0.75" stroke-linecap="round" stroke-linejoin="round" stroke="rgb(0%, 0%, 0%)" stroke-opacity="1" stroke-miterlimit="10" d="M 152.0625 284.308594 L 173.636719 284.308594 L 173.636719 224.238281 L 152.0625 224.238281 Z M 152.0625 284.308594 "/>
<path fill-rule="nonzero" fill="rgb(0%, 100%, 40%)" fill-opacity="1" stroke-width="0.75" stroke-linecap="round" stroke-linejoin="round" stroke="rgb(0%, 0%, 0%)" stroke-opacity="1" stroke-miterlimit="10" d="M 177.949219 284.308594 L 199.523438 284.308594 L 199.523438 209.21875 L 177.949219 209.21875 Z M 177.949219 284.308594 "/>
<path fill-rule="nonzero" fill="rgb(0%, 100%, 100%)" fill-opacity="1" stroke-width="0.75" stroke-linecap="round" stroke-linejoin="round" stroke="rgb(0%, 0%, 0%)" stroke-opacity="1" stroke-miterlimit="10" d="M 203.839844 284.308594 L 225.414062 284.308594 L 225.414062 194.203125 L 203.839844 194.203125 Z M 203.839844 284.308594 "/>
<path fill-rule="nonzero" fill="rgb(0%, 40%, 100%)" fill-opacity="1" stroke-width="0.75" stroke-linecap="round" stroke-linejoin="round" stroke="rgb(0%, 0%, 0%)" stroke-opacity="1" stroke-miterlimit="10" d="M 229.726562 284.308594 L 251.300781 284.308594 L 251.300781 179.183594 L 229.726562 179.183594 Z M 229.726562 284.308594 "/>
<path fill-rule="nonzero" fill="rgb(20%, 0%, 100%)" fill-opacity="1" stroke-width="0.75" stroke-linecap="round" stroke-linejoin="round" stroke="rgb(0%, 0%, 0%)" stroke-opacity="1" stroke-miterlimit="10" d="M 255.613281 284.308594 L 277.1875 284.308594 L 277.1875 164.167969 L 255.613281 164.167969 Z M 255.613281 284.308594 "/>
<path fill-rule="nonzero" fill="rgb(80%, 0%, 100%)" fill-opacity="1" stroke-width="0.75" stroke-linecap="round" stroke-linejoin="round" stroke="rgb(0%, 0%, 0%)" stroke-opacity="1" stroke-miterlimit="10" d="M 281.5 284.308594 L 303.074219 284.308594 L 303.074219 149.148438 L 281.5 149.148438 Z M 281.5 284.308594 "/>
<path fill-rule="nonzero" fill="rgb(100%, 0%, 60%)" fill-opacity="1" stroke-width="0.75" stroke-linecap="round" stroke-linejoin="round" stroke="rgb(0%, 0%, 0%)" stroke-opacity="1" stroke-miterlimit="10" d="M 307.390625 284.308594 L 328.964844 284.308594 L 328.964844 134.128906 L 307.390625 134.128906 Z M 307.390625 284.308594 "/>
<path fill-rule="nonzero" fill="rgb(100%, 0%, 0%)" fill-opacity="1" stroke-width="0.75" stroke-linecap="round" stroke-linejoin="round" stroke="rgb(0%, 0%, 0%)" stroke-opacity="1" stroke-miterlimit="10" d="M 333.277344 284.308594 L 354.851562 284.308594 L 354.851562 119.113281 L 333.277344 119.113281 Z M 333.277344 284.308594 "/>
<path fill-rule="nonzero" fill="rgb(100%, 60%, 0%)" fill-opacity="1" stroke-width="0.75" stroke-linecap="round" stroke-linejoin="round" stroke="rgb(0%, 0%, 0%)" stroke-opacity="1" stroke-miterlimit="10" d="M 359.164062 284.308594 L 380.738281 284.308594 L 380.738281 104.09375 L 359.164062 104.09375 Z M 359.164062 284.308594 "/>
<path fill-rule="nonzero" fill="rgb(80%, 100%, 0%)" fill-opacity="1" stroke-width="0.75" stroke-linecap="round" stroke-linejoin="round" stroke="rgb(0%, 0%, 0%)" stroke-opacity="1" stroke-miterlimit="10" d="M 385.050781 284.308594 L 406.625 284.308594 L 406.625 89.078125 L 385.050781 89.078125 Z M 385.050781 284.308594 "/>
<path fill-rule="nonzero" fill="rgb(20%, 100%, 0%)" fill-opacity="1" stroke-width="0.75" stroke-linecap="round" stroke-linejoin="round" stroke="rgb(0%, 0%, 0%)" stroke-opacity="1" stroke-miterlimit="10" d="M 410.9375 284.308594 L 432.511719 284.308594 L 432.511719 74.058594 L 410.9375 74.058594 Z M 410.9375 284.308594 "/>
<path fill-rule="nonzero" fill="rgb(0%, 100%, 40%)" fill-opacity="1" stroke-width="0.75" stroke-linecap="round" stroke-linejoin="round" stroke="rgb(0%, 0%, 0%)" stroke-opacity="1" stroke-miterlimit="10" d="M 436.828125 284.308594 L 458.402344 284.308594 L 458.402344 59.042969 L 436.828125 59.042969 Z M 436.828125 284.308594 "/>
<path fill="none" stroke-width="0.75" stroke-linecap="round" stroke-linejoin="round" stroke="rgb(0%, 0%, 0%)" stroke-opacity="1" stroke-miterlimit="10" d="M 59.039062 284.308594 L 59.039062 74.058594 "/>
<path fill="none" stroke-width="0.75" stroke-linecap="round" stroke-linejoin="round" stroke="rgb(0%, 0%, 0%)" stroke-opacity="1" stroke-miterlimit="10" d="M 59.039062 284.308594 L 51.839844 284.308594 "/>
<path fill="none" stroke-width="0.75" stroke-linecap="round" stroke-linejoin="round" stroke="rgb(0%, 0%, 0%)" stroke-opacity="1" stroke-miterlimit="10" d="M 59.039062 254.273438 L 51.839844 254.273438 "/>
<path fill="none" stroke-width="0.75" stroke-linecap="round" stroke-linejoin="round" stroke="rgb(0%, 0%, 0%)" stroke-opacity="1" stroke-miterlimit="10" d="M 59.039062 224.234375 L 51.839844 224.234375 "/>
<path fill="none" stroke-width="0.75" stroke-linecap="round" stroke-linejoin="round" stroke="rgb(0%, 0%, 0%)" stroke-opacity="1" stroke-miterlimit="10" d="M 59.039062 194.199219 L 51.839844 194.199219 "/>
<path fill="none" stroke-width="0.75" stroke-linecap="round" stroke-linejoin="round" stroke="rgb(0%, 0%, 0%)" stroke-opacity="1" stroke-miterlimit="10" d="M 59.039062 164.164062 L 51.839844 164.164062 "/>
<path fill="none" stroke-width="0.75" stroke-linecap="round" stroke-linejoin="round" stroke="rgb(0%, 0%, 0%)" stroke-opacity="1" stroke-miterlimit="10" d="M 59.039062 134.128906 L 51.839844 134.128906 "/>
<path fill="none" stroke-width="0.75" stroke-linecap="round" stroke-linejoin="round" stroke="rgb(0%, 0%, 0%)" stroke-opacity="1" stroke-miterlimit="10" d="M 59.039062 104.09375 L 51.839844 104.09375 "/>
<path fill="none" stroke-width="0.75" stroke-linecap="round" stroke-linejoin="round" stroke="rgb(0%, 0%, 0%)" stroke-opacity="1" stroke-miterlimit="10" d="M 59.039062 74.058594 L 51.839844 74.058594 "/>
<path fill-rule="nonzero" fill="rgb(0%, 0%, 0%)" fill-opacity="1" d="M 37.628906 281.4375 L 37.863281 281.441406 L 38.089844 281.449219 L 38.308594 281.460938 L 38.519531 281.476562 L 38.726562 281.496094 L 38.921875 281.519531 L 39.109375 281.550781 L 39.292969 281.585938 L 39.464844 281.625 L 39.632812 281.667969 L 39.792969 281.714844 L 39.945312 281.761719 L 40.089844 281.816406 L 40.230469 281.871094 L 40.367188 281.933594 L 40.492188 281.996094 L 40.617188 282.0625 L 40.730469 282.132812 L 40.839844 282.207031 L 40.945312 282.28125 L 41.042969 282.363281 L 41.132812 282.441406 L 41.21875 282.527344 L 41.300781 282.613281 L 41.375 282.703125 L 41.441406 282.796875 L 41.503906 282.894531 L 41.5625 282.992188 L 41.613281 283.09375 L 41.660156 283.195312 L 41.703125 283.304688 L 41.738281 283.410156 L 41.800781 283.628906 L 41.824219 283.742188 L 41.84375 283.855469 L 41.859375 283.96875 L 41.875 284.203125 L 41.878906 284.320312 L 41.875 284.441406 L 41.859375 284.675781 L 41.84375 284.792969 L 41.824219 284.90625 L 41.800781 285.015625 L 41.738281 285.234375 L 41.703125 285.34375 L 41.660156 285.445312 L 41.613281 285.550781 L 41.5625 285.648438 L 41.503906 285.746094 L 41.441406 285.84375 L 41.375 285.933594 L 41.300781 286.023438 L 41.21875 286.109375 L 41.132812 286.195312 L 41.042969 286.277344 L 40.945312 286.355469 L 40.84375 286.429688 L 40.734375 286.5 L 40.617188 286.570312 L 40.496094 286.632812 L 40.371094 286.695312 L 40.097656 286.8125 L 39.949219 286.863281 L 39.796875 286.914062 L 39.640625 286.957031 L 39.472656 287 L 39.296875 287.035156 L 39.117188 287.070312 L 38.925781 287.097656 L 38.730469 287.121094 L 38.523438 287.140625 L 38.3125 287.15625 L 38.09375 287.167969 L 37.863281 287.171875 L 37.628906 287.175781 L 37.382812 287.171875 L 37.148438 287.167969 L 36.917969 287.15625 L 36.699219 287.140625 L 36.488281 287.121094 L 36.289062 287.097656 L 36.09375 287.070312 L 35.910156 287.035156 L 35.734375 287 L 35.566406 286.957031 L 35.40625 286.914062 L 35.25 286.863281 L 35.105469 286.808594 L 34.964844 286.753906 L 34.828125 286.695312 L 34.703125 286.632812 L 34.582031 286.566406 L 34.46875 286.496094 L 34.359375 286.425781 L 34.164062 286.269531 L 34.078125 286.1875 L 33.996094 286.105469 L 33.917969 286.015625 L 33.847656 285.925781 L 33.78125 285.835938 L 33.722656 285.738281 L 33.667969 285.640625 L 33.621094 285.539062 L 33.542969 285.328125 L 33.507812 285.21875 L 33.453125 285 L 33.429688 284.882812 L 33.414062 284.769531 L 33.398438 284.652344 L 33.382812 284.410156 L 33.382812 284.167969 L 33.390625 284.054688 L 33.398438 283.9375 L 33.414062 283.824219 L 33.429688 283.714844 L 33.453125 283.605469 L 33.480469 283.496094 L 33.507812 283.390625 L 33.542969 283.285156 L 33.582031 283.179688 L 33.621094 283.078125 L 33.667969 282.976562 L 33.722656 282.878906 L 33.78125 282.785156 L 33.847656 282.691406 L 33.917969 282.601562 L 33.996094 282.515625 L 34.078125 282.429688 L 34.164062 282.351562 L 34.261719 282.269531 L 34.359375 282.195312 L 34.46875 282.125 L 34.582031 282.054688 L 34.703125 281.988281 L 34.828125 281.925781 L 34.964844 281.867188 L 35.105469 281.808594 L 35.25 281.757812 L 35.40625 281.707031 L 35.566406 281.660156 L 35.734375 281.621094 L 35.910156 281.582031 L 36.09375 281.546875 L 36.289062 281.519531 L 36.488281 281.496094 L 36.699219 281.476562 L 36.917969 281.460938 L 37.148438 281.449219 L 37.382812 281.441406 Z M 37.628906 282.511719 L 37.4375 282.511719 L 37.25 282.515625 L 37.070312 282.523438 L 36.894531 282.53125 L 36.726562 282.539062 L 36.566406 282.554688 L 36.414062 282.570312 L 36.269531 282.585938 L 36.128906 282.605469 L 35.996094 282.628906 L 35.867188 282.652344 L 35.742188 282.679688 L 35.625 282.707031 L 35.511719 282.738281 L 35.40625 282.773438 L 35.304688 282.808594 L 35.207031 282.847656 L 35.117188 282.886719 L 35.03125 282.929688 L 34.953125 282.972656 L 34.875 283.019531 L 34.804688 283.070312 L 34.738281 283.121094 L 34.675781 283.175781 L 34.617188 283.230469 L 34.566406 283.285156 L 34.515625 283.347656 L 34.472656 283.40625 L 34.433594 283.472656 L 34.402344 283.535156 L 34.371094 283.601562 L 34.339844 283.671875 L 34.316406 283.742188 L 34.296875 283.8125 L 34.277344 283.886719 L 34.261719 283.964844 L 34.25 284.042969 L 34.242188 284.121094 L 34.238281 284.203125 L 34.238281 284.375 L 34.242188 284.460938 L 34.25 284.542969 L 34.261719 284.625 L 34.277344 284.707031 L 34.296875 284.785156 L 34.316406 284.859375 L 34.339844 284.933594 L 34.371094 285.003906 L 34.402344 285.070312 L 34.4375 285.140625 L 34.476562 285.203125 L 34.519531 285.265625 L 34.570312 285.328125 L 34.621094 285.386719 L 34.679688 285.441406 L 34.742188 285.496094 L 34.808594 285.546875 L 34.882812 285.597656 L 34.957031 285.644531 L 35.039062 285.691406 L 35.121094 285.734375 L 35.308594 285.8125 L 35.410156 285.847656 L 35.628906 285.910156 L 35.75 285.941406 L 35.871094 285.96875 L 36 285.992188 L 36.132812 286.015625 L 36.273438 286.035156 L 36.421875 286.050781 L 36.574219 286.066406 L 36.734375 286.078125 L 36.898438 286.089844 L 37.070312 286.097656 L 37.25 286.105469 L 37.4375 286.109375 L 37.816406 286.109375 L 37.996094 286.105469 L 38.171875 286.097656 L 38.339844 286.089844 L 38.503906 286.078125 L 38.660156 286.066406 L 38.8125 286.050781 L 38.957031 286.035156 L 39.09375 286.015625 L 39.230469 285.992188 L 39.480469 285.9375 L 39.597656 285.910156 L 39.707031 285.875 L 39.816406 285.84375 L 39.917969 285.804688 L 40.015625 285.769531 L 40.109375 285.726562 L 40.195312 285.683594 L 40.277344 285.640625 L 40.355469 285.59375 L 40.425781 285.542969 L 40.492188 285.492188 L 40.558594 285.4375 L 40.617188 285.382812 L 40.671875 285.324219 L 40.722656 285.261719 L 40.765625 285.203125 L 40.808594 285.136719 L 40.847656 285.070312 L 40.878906 285.003906 L 40.933594 284.863281 L 40.972656 284.714844 L 40.988281 284.636719 L 41 284.558594 L 41.015625 284.394531 L 41.015625 284.226562 L 41.007812 284.148438 L 41 284.066406 L 40.988281 283.992188 L 40.972656 283.914062 L 40.953125 283.839844 L 40.933594 283.769531 L 40.90625 283.695312 L 40.878906 283.628906 L 40.847656 283.558594 L 40.808594 283.496094 L 40.765625 283.429688 L 40.722656 283.371094 L 40.671875 283.308594 L 40.617188 283.253906 L 40.558594 283.199219 L 40.492188 283.144531 L 40.425781 283.09375 L 40.355469 283.042969 L 40.277344 282.996094 L 40.195312 282.953125 L 40.109375 282.910156 L 40.015625 282.867188 L 39.917969 282.828125 L 39.816406 282.792969 L 39.597656 282.722656 L 39.480469 282.695312 L 39.230469 282.640625 L 38.957031 282.59375 L 38.8125 282.574219 L 38.660156 282.558594 L 38.503906 282.542969 L 38.339844 282.53125 L 38.171875 282.523438 L 37.996094 282.515625 L 37.816406 282.511719 Z M 37.628906 282.511719 "/>
<path fill-rule="nonzero" fill="rgb(0%, 0%, 0%)" fill-opacity="1" d="M 41.761719 257.003906 L 41.015625 257.003906 L 40.878906 256.945312 L 40.492188 256.746094 L 40.371094 256.675781 L 40.253906 256.601562 L 40.136719 256.523438 L 40.023438 256.445312 L 39.914062 256.363281 L 39.703125 256.191406 L 39.601562 256.101562 L 39.5 256.015625 L 39.402344 255.925781 L 39.308594 255.835938 L 39.214844 255.742188 L 39.121094 255.652344 L 39.03125 255.558594 L 38.773438 255.277344 L 38.691406 255.179688 L 38.527344 254.992188 L 38.214844 254.617188 L 38.140625 254.527344 L 38.070312 254.433594 L 37.996094 254.339844 L 37.921875 254.25 L 37.851562 254.160156 L 37.777344 254.074219 L 37.707031 253.988281 L 37.632812 253.902344 L 37.558594 253.824219 L 37.488281 253.742188 L 37.414062 253.664062 L 37.34375 253.589844 L 37.269531 253.515625 L 37.195312 253.445312 L 37.046875 253.3125 L 36.96875 253.25 L 36.894531 253.191406 L 36.738281 253.082031 L 36.660156 253.03125 L 36.582031 252.984375 L 36.5 252.941406 L 36.417969 252.902344 L 36.332031 252.867188 L 36.246094 252.835938 L 36.15625 252.808594 L 36.0625 252.789062 L 35.972656 252.773438 L 35.875 252.761719 L 35.777344 252.753906 L 35.679688 252.75 L 35.609375 252.753906 L 35.539062 252.753906 L 35.476562 252.761719 L 35.410156 252.769531 L 35.347656 252.777344 L 35.289062 252.789062 L 35.171875 252.820312 L 35.117188 252.835938 L 35.0625 252.855469 L 35.007812 252.878906 L 34.957031 252.902344 L 34.910156 252.929688 L 34.859375 252.957031 L 34.816406 252.984375 L 34.769531 253.015625 L 34.726562 253.050781 L 34.648438 253.121094 L 34.613281 253.160156 L 34.574219 253.203125 L 34.480469 253.332031 L 34.453125 253.382812 L 34.425781 253.429688 L 34.402344 253.480469 L 34.382812 253.53125 L 34.359375 253.585938 L 34.34375 253.640625 L 34.324219 253.699219 L 34.308594 253.753906 L 34.292969 253.8125 L 34.28125 253.871094 L 34.273438 253.933594 L 34.261719 253.996094 L 34.257812 254.058594 L 34.25 254.191406 L 34.25 254.382812 L 34.257812 254.445312 L 34.261719 254.503906 L 34.269531 254.566406 L 34.304688 254.742188 L 34.320312 254.796875 L 34.335938 254.855469 L 34.355469 254.910156 L 34.375 254.960938 L 34.398438 255.015625 L 34.445312 255.117188 L 34.472656 255.164062 L 34.503906 255.210938 L 34.53125 255.257812 L 34.566406 255.304688 L 34.636719 255.390625 L 34.671875 255.429688 L 34.714844 255.46875 L 34.753906 255.507812 L 34.796875 255.542969 L 34.890625 255.613281 L 34.9375 255.644531 L 34.988281 255.675781 L 35.089844 255.730469 L 35.144531 255.753906 L 35.203125 255.777344 L 35.257812 255.796875 L 35.320312 255.816406 L 35.378906 255.832031 L 35.441406 255.847656 L 35.574219 255.871094 L 35.644531 255.878906 L 35.542969 256.957031 L 35.453125 256.945312 L 35.28125 256.914062 L 35.195312 256.894531 L 35.109375 256.871094 L 34.945312 256.816406 L 34.863281 256.785156 L 34.785156 256.75 L 34.628906 256.671875 L 34.550781 256.628906 L 34.480469 256.582031 L 34.40625 256.535156 L 34.335938 256.480469 L 34.203125 256.371094 L 34.078125 256.246094 L 34.019531 256.179688 L 33.960938 256.109375 L 33.90625 256.039062 L 33.851562 255.960938 L 33.800781 255.886719 L 33.707031 255.722656 L 33.664062 255.636719 L 33.625 255.550781 L 33.585938 255.457031 L 33.550781 255.363281 L 33.488281 255.167969 L 33.441406 254.957031 L 33.421875 254.847656 L 33.410156 254.734375 L 33.394531 254.621094 L 33.386719 254.503906 L 33.382812 254.382812 L 33.382812 254.136719 L 33.386719 254.015625 L 33.394531 253.898438 L 33.40625 253.785156 L 33.417969 253.675781 L 33.433594 253.566406 L 33.453125 253.460938 L 33.5 253.257812 L 33.527344 253.160156 L 33.558594 253.066406 L 33.589844 252.976562 L 33.628906 252.886719 L 33.667969 252.800781 L 33.710938 252.71875 L 33.753906 252.640625 L 33.800781 252.5625 L 33.851562 252.488281 L 33.90625 252.417969 L 33.960938 252.351562 L 34.019531 252.289062 L 34.082031 252.226562 L 34.144531 252.167969 L 34.210938 252.109375 L 34.28125 252.058594 L 34.355469 252.007812 L 34.429688 251.960938 L 34.507812 251.917969 L 34.585938 251.878906 L 34.671875 251.84375 L 34.753906 251.808594 L 34.933594 251.753906 L 35.027344 251.730469 L 35.125 251.710938 L 35.222656 251.695312 L 35.324219 251.683594 L 35.425781 251.675781 L 35.535156 251.667969 L 35.726562 251.667969 L 35.808594 251.671875 L 35.890625 251.679688 L 35.96875 251.691406 L 36.046875 251.707031 L 36.128906 251.722656 L 36.207031 251.742188 L 36.28125 251.765625 L 36.359375 251.789062 L 36.582031 251.882812 L 36.65625 251.917969 L 36.726562 251.953125 L 36.800781 251.992188 L 37.011719 252.121094 L 37.082031 252.167969 L 37.214844 252.269531 L 37.285156 252.320312 L 37.351562 252.371094 L 37.417969 252.429688 L 37.484375 252.484375 L 37.546875 252.542969 L 37.613281 252.601562 L 37.675781 252.664062 L 37.742188 252.726562 L 38.054688 253.058594 L 38.117188 253.128906 L 38.179688 253.195312 L 38.304688 253.335938 L 38.363281 253.40625 L 38.425781 253.476562 L 38.484375 253.550781 L 38.546875 253.621094 L 38.605469 253.691406 L 38.664062 253.765625 L 38.726562 253.835938 L 38.785156 253.910156 L 38.84375 253.980469 L 38.902344 254.054688 L 38.964844 254.125 L 39.023438 254.199219 L 39.082031 254.269531 L 39.140625 254.34375 L 39.257812 254.484375 L 39.316406 254.550781 L 39.378906 254.621094 L 39.554688 254.820312 L 39.617188 254.882812 L 39.734375 255.007812 L 39.796875 255.066406 L 39.855469 255.125 L 39.917969 255.183594 L 39.976562 255.242188 L 40.039062 255.296875 L 40.101562 255.347656 L 40.164062 255.402344 L 40.226562 255.453125 L 40.285156 255.5 L 40.410156 255.59375 L 40.472656 255.636719 L 40.535156 255.675781 L 40.601562 255.714844 L 40.664062 255.75 L 40.730469 255.785156 L 40.796875 255.816406 L 40.863281 255.84375 L 40.863281 251.539062 L 41.761719 251.539062 Z M 41.761719 257.003906 "/>
<path fill-rule="nonzero" fill="rgb(0%, 0%, 0%)" fill-opacity="1" d="M 39.890625 222.410156 L 41.761719 222.410156 L 41.761719 223.40625 L 39.890625 223.40625 L 39.890625 227.296875 L 39.070312 227.296875 L 33.503906 223.519531 L 33.503906 222.410156 L 39.058594 222.410156 L 39.058594 221.25 L 39.890625 221.25 Z M 34.695312 223.40625 L 34.699219 223.410156 L 34.714844 223.417969 L 34.738281 223.425781 L 34.761719 223.441406 L 34.792969 223.457031 L 34.8125 223.464844 L 34.828125 223.476562 L 34.84375 223.484375 L 34.863281 223.496094 L 34.878906 223.503906 L 34.917969 223.527344 L 34.9375 223.535156 L 34.976562 223.558594 L 35 223.570312 L 35.039062 223.59375 L 35.0625 223.605469 L 35.082031 223.617188 L 35.105469 223.632812 L 35.125 223.644531 L 35.171875 223.667969 L 35.191406 223.679688 L 35.214844 223.695312 L 35.234375 223.707031 L 35.273438 223.726562 L 35.3125 223.75 L 35.328125 223.761719 L 35.34375 223.769531 L 35.359375 223.78125 L 35.375 223.789062 L 35.390625 223.800781 L 38.507812 225.914062 L 38.519531 225.921875 L 38.527344 225.925781 L 38.550781 225.941406 L 38.5625 225.953125 L 38.574219 225.960938 L 38.589844 225.96875 L 38.601562 225.980469 L 38.632812 226.003906 L 38.644531 226.011719 L 38.707031 226.058594 L 38.726562 226.066406 L 38.867188 226.171875 L 38.878906 226.183594 L 38.957031 226.242188 L 38.96875 226.253906 L 38.984375 226.265625 L 38.996094 226.273438 L 39.007812 226.285156 L 39.03125 226.300781 L 39.039062 226.308594 L 39.050781 226.316406 L 39.058594 226.324219 L 39.058594 223.40625 Z M 34.695312 223.40625 "/>
<path fill-rule="nonzero" fill="rgb(0%, 0%, 0%)" fill-opacity="1" d="M 39.058594 191.390625 L 39.183594 191.394531 L 39.304688 191.398438 L 39.421875 191.40625 L 39.539062 191.417969 L 39.65625 191.433594 L 39.769531 191.453125 L 39.878906 191.476562 L 39.988281 191.503906 L 40.097656 191.535156 L 40.203125 191.566406 L 40.304688 191.601562 L 40.402344 191.640625 L 40.5 191.683594 L 40.589844 191.730469 L 40.683594 191.777344 L 40.855469 191.886719 L 40.9375 191.945312 L 41.09375 192.078125 L 41.164062 192.144531 L 41.234375 192.214844 L 41.300781 192.292969 L 41.363281 192.371094 L 41.421875 192.453125 L 41.476562 192.535156 L 41.53125 192.625 L 41.582031 192.714844 L 41.628906 192.808594 L 41.671875 192.910156 L 41.710938 193.007812 L 41.746094 193.113281 L 41.777344 193.222656 L 41.804688 193.332031 L 41.824219 193.445312 L 41.84375 193.5625 L 41.859375 193.679688 L 41.875 193.929688 L 41.878906 194.058594 L 41.875 194.199219 L 41.867188 194.335938 L 41.851562 194.472656 L 41.832031 194.605469 L 41.808594 194.730469 L 41.777344 194.855469 L 41.742188 194.976562 L 41.699219 195.09375 L 41.652344 195.207031 L 41.601562 195.316406 L 41.542969 195.421875 L 41.480469 195.523438 L 41.414062 195.625 L 41.34375 195.71875 L 41.265625 195.808594 L 41.183594 195.898438 L 41.097656 195.980469 L 41.007812 196.0625 L 40.910156 196.140625 L 40.8125 196.214844 L 40.59375 196.347656 L 40.476562 196.410156 L 40.355469 196.472656 L 40.230469 196.527344 L 40.101562 196.578125 L 39.96875 196.628906 L 39.832031 196.671875 L 39.6875 196.714844 L 39.539062 196.753906 L 39.386719 196.785156 L 39.230469 196.816406 L 39.066406 196.84375 L 38.902344 196.863281 L 38.730469 196.882812 L 38.558594 196.898438 L 38.378906 196.914062 L 38.199219 196.921875 L 37.824219 196.929688 L 37.605469 196.925781 L 37.394531 196.921875 L 37.1875 196.910156 L 36.984375 196.894531 L 36.789062 196.878906 L 36.597656 196.855469 L 36.414062 196.832031 L 36.234375 196.800781 L 36.058594 196.765625 L 35.890625 196.730469 L 35.726562 196.6875 L 35.566406 196.640625 L 35.414062 196.589844 L 35.265625 196.535156 L 35.125 196.480469 L 34.988281 196.417969 L 34.859375 196.355469 L 34.734375 196.289062 L 34.613281 196.21875 L 34.5 196.144531 L 34.390625 196.066406 L 34.289062 195.984375 L 34.191406 195.898438 L 34.097656 195.8125 L 34.011719 195.722656 L 33.929688 195.625 L 33.855469 195.527344 L 33.785156 195.429688 L 33.722656 195.324219 L 33.664062 195.21875 L 33.609375 195.105469 L 33.5625 194.992188 L 33.519531 194.875 L 33.480469 194.753906 L 33.453125 194.632812 L 33.425781 194.503906 L 33.40625 194.378906 L 33.390625 194.246094 L 33.382812 194.113281 L 33.382812 193.808594 L 33.390625 193.726562 L 33.394531 193.644531 L 33.402344 193.566406 L 33.4375 193.332031 L 33.46875 193.183594 L 33.488281 193.109375 L 33.507812 193.039062 L 33.53125 192.96875 L 33.558594 192.898438 L 33.613281 192.765625 L 33.648438 192.703125 L 33.679688 192.636719 L 33.71875 192.578125 L 33.757812 192.515625 L 33.796875 192.457031 L 33.882812 192.339844 L 33.929688 192.285156 L 33.980469 192.230469 L 34.035156 192.175781 L 34.089844 192.125 L 34.148438 192.078125 L 34.207031 192.027344 L 34.273438 191.984375 L 34.335938 191.9375 L 34.40625 191.894531 L 34.476562 191.855469 L 34.554688 191.816406 L 34.628906 191.777344 L 34.792969 191.707031 L 34.882812 191.675781 L 34.96875 191.648438 L 35.0625 191.621094 L 35.246094 192.628906 L 35.140625 192.660156 L 35.042969 192.699219 L 34.953125 192.742188 L 34.867188 192.789062 L 34.785156 192.839844 L 34.710938 192.894531 L 34.644531 192.953125 L 34.582031 193.015625 L 34.527344 193.082031 L 34.476562 193.15625 L 34.429688 193.226562 L 34.390625 193.300781 L 34.355469 193.378906 L 34.324219 193.460938 L 34.296875 193.542969 L 34.273438 193.625 L 34.257812 193.710938 L 34.246094 193.800781 L 34.238281 193.894531 L 34.238281 194.074219 L 34.253906 194.238281 L 34.269531 194.320312 L 34.308594 194.476562 L 34.335938 194.554688 L 34.367188 194.628906 L 34.402344 194.699219 L 34.441406 194.773438 L 34.484375 194.839844 L 34.53125 194.90625 L 34.582031 194.972656 L 34.636719 195.035156 L 34.699219 195.097656 L 34.761719 195.15625 L 34.828125 195.210938 L 34.976562 195.320312 L 35.058594 195.371094 L 35.140625 195.417969 L 35.226562 195.464844 L 35.320312 195.507812 L 35.414062 195.546875 L 35.617188 195.625 L 35.726562 195.660156 L 35.839844 195.691406 L 35.957031 195.722656 L 36.078125 195.75 L 36.203125 195.773438 L 36.332031 195.796875 L 36.464844 195.816406 L 36.601562 195.832031 L 36.742188 195.847656 L 36.886719 195.859375 L 37.191406 195.875 L 37.351562 195.878906 L 37.511719 195.878906 L 37.40625 195.820312 L 37.308594 195.753906 L 37.214844 195.6875 L 37.125 195.613281 L 37.042969 195.535156 L 36.964844 195.449219 L 36.890625 195.363281 L 36.824219 195.269531 L 36.761719 195.171875 L 36.703125 195.070312 L 36.648438 194.964844 L 36.601562 194.855469 L 36.558594 194.742188 L 36.523438 194.628906 L 36.492188 194.511719 L 36.46875 194.390625 L 36.449219 194.265625 L 36.433594 194.136719 L 36.425781 194.007812 L 36.421875 193.875 L 36.429688 193.65625 L 36.4375 193.546875 L 36.453125 193.441406 L 36.46875 193.339844 L 36.488281 193.238281 L 36.511719 193.140625 L 36.539062 193.042969 L 36.570312 192.949219 L 36.605469 192.855469 L 36.640625 192.765625 L 36.726562 192.59375 L 36.773438 192.511719 L 36.828125 192.433594 L 36.878906 192.355469 L 36.9375 192.28125 L 37.0625 192.140625 L 37.132812 192.078125 L 37.199219 192.011719 L 37.347656 191.894531 L 37.425781 191.839844 L 37.507812 191.785156 L 37.679688 191.691406 L 37.773438 191.648438 L 37.867188 191.609375 L 38.0625 191.539062 L 38.164062 191.507812 L 38.265625 191.480469 L 38.371094 191.457031 L 38.589844 191.417969 L 38.703125 191.40625 L 38.820312 191.398438 L 38.9375 191.394531 Z M 39.105469 192.464844 L 39.019531 192.464844 L 38.855469 192.472656 L 38.699219 192.488281 L 38.621094 192.5 L 38.472656 192.53125 L 38.402344 192.546875 L 38.332031 192.570312 L 38.265625 192.589844 L 38.199219 192.613281 L 38.132812 192.640625 L 38.074219 192.667969 L 38.011719 192.699219 L 37.957031 192.734375 L 37.898438 192.769531 L 37.847656 192.804688 L 37.796875 192.84375 L 37.746094 192.886719 L 37.652344 192.972656 L 37.609375 193.019531 L 37.566406 193.070312 L 37.53125 193.121094 L 37.492188 193.175781 L 37.460938 193.230469 L 37.425781 193.285156 L 37.398438 193.34375 L 37.371094 193.40625 L 37.347656 193.46875 L 37.300781 193.601562 L 37.269531 193.742188 L 37.257812 193.816406 L 37.25 193.890625 L 37.242188 193.96875 L 37.238281 194.046875 L 37.238281 194.242188 L 37.246094 194.300781 L 37.25 194.359375 L 37.257812 194.414062 L 37.292969 194.589844 L 37.324219 194.707031 L 37.363281 194.824219 L 37.382812 194.878906 L 37.40625 194.933594 L 37.433594 194.988281 L 37.464844 195.039062 L 37.492188 195.089844 L 37.5625 195.191406 L 37.601562 195.242188 L 37.636719 195.285156 L 37.679688 195.332031 L 37.722656 195.375 L 37.816406 195.453125 L 37.867188 195.492188 L 37.921875 195.527344 L 37.980469 195.5625 L 38.035156 195.597656 L 38.097656 195.628906 L 38.160156 195.65625 L 38.226562 195.679688 L 38.296875 195.703125 L 38.367188 195.722656 L 38.441406 195.738281 L 38.597656 195.761719 L 38.679688 195.769531 L 38.765625 195.773438 L 38.945312 195.773438 L 39.035156 195.769531 L 39.121094 195.761719 L 39.210938 195.753906 L 39.296875 195.746094 L 39.382812 195.730469 L 39.546875 195.699219 L 39.628906 195.679688 L 39.710938 195.65625 L 39.785156 195.632812 L 39.863281 195.605469 L 39.9375 195.578125 L 40.078125 195.515625 L 40.210938 195.445312 L 40.273438 195.40625 L 40.335938 195.363281 L 40.394531 195.324219 L 40.453125 195.277344 L 40.507812 195.230469 L 40.609375 195.128906 L 40.65625 195.078125 L 40.703125 195.023438 L 40.746094 194.96875 L 40.824219 194.851562 L 40.859375 194.789062 L 40.890625 194.726562 L 40.917969 194.660156 L 40.945312 194.597656 L 40.964844 194.527344 L 40.984375 194.460938 L 41 194.390625 L 41.011719 194.316406 L 41.027344 194.167969 L 41.027344 194.015625 L 41.023438 193.941406 L 41.007812 193.800781 L 40.996094 193.730469 L 40.964844 193.597656 L 40.945312 193.535156 L 40.921875 193.472656 L 40.898438 193.414062 L 40.871094 193.351562 L 40.839844 193.292969 L 40.808594 193.238281 L 40.773438 193.183594 L 40.65625 193.03125 L 40.613281 192.984375 L 40.519531 192.898438 L 40.464844 192.855469 L 40.414062 192.816406 L 40.355469 192.777344 L 40.300781 192.742188 L 40.113281 192.648438 L 40.046875 192.621094 L 39.980469 192.597656 L 39.910156 192.574219 L 39.761719 192.535156 L 39.6875 192.519531 L 39.609375 192.503906 L 39.527344 192.492188 L 39.449219 192.480469 L 39.363281 192.472656 L 39.28125 192.46875 L 39.195312 192.464844 Z M 39.105469 192.464844 "/>
<path fill-rule="nonzero" fill="rgb(0%, 0%, 0%)" fill-opacity="1" d="M 39.457031 161.347656 L 39.5625 161.351562 L 39.664062 161.355469 L 39.765625 161.363281 L 39.867188 161.375 L 39.964844 161.390625 L 40.0625 161.410156 L 40.25 161.457031 L 40.429688 161.519531 L 40.515625 161.554688 L 40.601562 161.59375 L 40.683594 161.632812 L 40.761719 161.679688 L 40.839844 161.730469 L 40.914062 161.78125 L 40.988281 161.839844 L 41.058594 161.898438 L 41.125 161.960938 L 41.191406 162.027344 L 41.253906 162.097656 L 41.316406 162.171875 L 41.371094 162.25 L 41.425781 162.332031 L 41.480469 162.417969 L 41.574219 162.597656 L 41.617188 162.695312 L 41.65625 162.796875 L 41.695312 162.902344 L 41.730469 163.011719 L 41.761719 163.125 L 41.789062 163.238281 L 41.8125 163.359375 L 41.832031 163.484375 L 41.847656 163.613281 L 41.859375 163.742188 L 41.871094 163.878906 L 41.878906 164.160156 L 41.875 164.304688 L 41.871094 164.445312 L 41.859375 164.582031 L 41.847656 164.710938 L 41.832031 164.839844 L 41.8125 164.964844 L 41.789062 165.085938 L 41.761719 165.199219 L 41.730469 165.3125 L 41.695312 165.421875 L 41.617188 165.625 L 41.574219 165.722656 L 41.527344 165.816406 L 41.480469 165.90625 L 41.429688 165.992188 L 41.375 166.074219 L 41.320312 166.152344 L 41.257812 166.226562 L 41.199219 166.300781 L 41.132812 166.367188 L 41.0625 166.433594 L 40.921875 166.550781 L 40.847656 166.601562 L 40.769531 166.652344 L 40.6875 166.699219 L 40.605469 166.742188 L 40.523438 166.78125 L 40.4375 166.816406 L 40.347656 166.847656 L 40.253906 166.875 L 40.066406 166.921875 L 39.972656 166.9375 L 39.875 166.953125 L 39.773438 166.964844 L 39.675781 166.972656 L 39.574219 166.980469 L 39.378906 166.980469 L 39.292969 166.976562 L 39.207031 166.96875 L 39.042969 166.945312 L 38.964844 166.933594 L 38.886719 166.914062 L 38.8125 166.894531 L 38.738281 166.871094 L 38.597656 166.816406 L 38.464844 166.753906 L 38.339844 166.683594 L 38.222656 166.605469 L 38.113281 166.519531 L 38.0625 166.476562 L 38.011719 166.429688 L 37.964844 166.378906 L 37.917969 166.332031 L 37.875 166.28125 L 37.832031 166.226562 L 37.792969 166.175781 L 37.753906 166.121094 L 37.71875 166.0625 L 37.683594 166.007812 L 37.621094 165.890625 L 37.59375 165.828125 L 37.566406 165.769531 L 37.519531 165.644531 L 37.5 165.585938 L 37.453125 165.398438 L 37.441406 165.332031 L 37.417969 165.332031 L 37.402344 165.402344 L 37.382812 165.46875 L 37.359375 165.535156 L 37.3125 165.660156 L 37.285156 165.722656 L 37.253906 165.785156 L 37.222656 165.84375 L 37.191406 165.898438 L 37.15625 165.953125 L 37.117188 166.007812 L 37.039062 166.109375 L 36.996094 166.15625 L 36.957031 166.203125 L 36.867188 166.292969 L 36.820312 166.332031 L 36.769531 166.375 L 36.722656 166.410156 L 36.667969 166.449219 L 36.617188 166.480469 L 36.507812 166.542969 L 36.449219 166.574219 L 36.390625 166.601562 L 36.335938 166.625 L 36.273438 166.648438 L 36.214844 166.671875 L 36.089844 166.710938 L 35.964844 166.742188 L 35.898438 166.753906 L 35.832031 166.761719 L 35.765625 166.773438 L 35.566406 166.785156 L 35.410156 166.785156 L 35.324219 166.78125 L 35.242188 166.773438 L 35.15625 166.761719 L 35.074219 166.746094 L 34.996094 166.726562 L 34.914062 166.707031 L 34.835938 166.683594 L 34.757812 166.652344 L 34.683594 166.621094 L 34.605469 166.585938 L 34.457031 166.507812 L 34.386719 166.460938 L 34.320312 166.414062 L 34.253906 166.363281 L 34.1875 166.308594 L 34.125 166.25 L 34.007812 166.125 L 33.949219 166.058594 L 33.894531 165.988281 L 33.84375 165.914062 L 33.792969 165.835938 L 33.746094 165.757812 L 33.703125 165.675781 L 33.660156 165.585938 L 33.621094 165.5 L 33.585938 165.40625 L 33.550781 165.308594 L 33.519531 165.210938 L 33.488281 165.109375 L 33.441406 164.898438 L 33.421875 164.785156 L 33.410156 164.671875 L 33.394531 164.554688 L 33.386719 164.433594 L 33.382812 164.3125 L 33.382812 164.050781 L 33.386719 163.921875 L 33.394531 163.796875 L 33.410156 163.675781 L 33.421875 163.558594 L 33.441406 163.441406 L 33.488281 163.222656 L 33.550781 163.019531 L 33.585938 162.921875 L 33.664062 162.734375 L 33.707031 162.648438 L 33.75 162.566406 L 33.800781 162.484375 L 33.847656 162.40625 L 33.957031 162.265625 L 34.015625 162.199219 L 34.132812 162.074219 L 34.195312 162.015625 L 34.257812 161.964844 L 34.324219 161.914062 L 34.394531 161.867188 L 34.535156 161.78125 L 34.613281 161.746094 L 34.6875 161.710938 L 34.84375 161.65625 L 34.925781 161.632812 L 35.003906 161.613281 L 35.085938 161.59375 L 35.167969 161.578125 L 35.253906 161.570312 L 35.335938 161.5625 L 35.421875 161.554688 L 35.574219 161.554688 L 35.644531 161.558594 L 35.710938 161.5625 L 35.773438 161.570312 L 35.839844 161.578125 L 35.90625 161.589844 L 35.96875 161.601562 L 36.03125 161.617188 L 36.097656 161.636719 L 36.160156 161.652344 L 36.21875 161.671875 L 36.28125 161.695312 L 36.398438 161.742188 L 36.457031 161.769531 L 36.621094 161.863281 L 36.675781 161.898438 L 36.726562 161.933594 L 36.777344 161.972656 L 36.871094 162.050781 L 36.917969 162.09375 L 37.046875 162.234375 L 37.085938 162.285156 L 37.125 162.339844 L 37.160156 162.390625 L 37.195312 162.445312 L 37.257812 162.5625 L 37.285156 162.621094 L 37.332031 162.746094 L 37.355469 162.8125 L 37.375 162.878906 L 37.40625 163.019531 L 37.429688 163.019531 L 37.441406 162.949219 L 37.472656 162.808594 L 37.511719 162.675781 L 37.535156 162.609375 L 37.5625 162.542969 L 37.585938 162.480469 L 37.648438 162.355469 L 37.710938 162.238281 L 37.746094 162.183594 L 37.785156 162.125 L 37.824219 162.074219 L 37.867188 162.019531 L 37.910156 161.972656 L 37.957031 161.921875 L 38.058594 161.828125 L 38.109375 161.785156 L 38.160156 161.746094 L 38.21875 161.703125 L 38.273438 161.667969 L 38.332031 161.628906 L 38.394531 161.597656 L 38.457031 161.5625 L 38.523438 161.535156 L 38.589844 161.503906 L 38.660156 161.476562 L 38.730469 161.453125 L 38.878906 161.414062 L 38.957031 161.394531 L 39.035156 161.382812 L 39.199219 161.359375 L 39.28125 161.355469 L 39.367188 161.351562 Z M 35.566406 162.648438 L 35.503906 162.652344 L 35.445312 162.652344 L 35.386719 162.65625 L 35.269531 162.671875 L 35.214844 162.679688 L 35.15625 162.691406 L 35.101562 162.703125 L 35.050781 162.714844 L 35 162.730469 L 34.949219 162.75 L 34.898438 162.765625 L 34.851562 162.789062 L 34.804688 162.808594 L 34.757812 162.835938 L 34.714844 162.863281 L 34.675781 162.890625 L 34.632812 162.921875 L 34.597656 162.953125 L 34.558594 162.988281 L 34.488281 163.066406 L 34.453125 163.109375 L 34.421875 163.152344 L 34.367188 163.246094 L 34.339844 163.296875 L 34.292969 163.40625 L 34.273438 163.464844 L 34.25 163.523438 L 34.234375 163.585938 L 34.203125 163.71875 L 34.191406 163.792969 L 34.183594 163.863281 L 34.175781 163.941406 L 34.171875 164.019531 L 34.167969 164.101562 L 34.167969 164.265625 L 34.171875 164.347656 L 34.175781 164.421875 L 34.191406 164.570312 L 34.203125 164.636719 L 34.234375 164.769531 L 34.25 164.828125 L 34.273438 164.886719 L 34.292969 164.945312 L 34.316406 165 L 34.339844 165.050781 L 34.394531 165.152344 L 34.421875 165.195312 L 34.453125 165.242188 L 34.488281 165.285156 L 34.558594 165.363281 L 34.597656 165.398438 L 34.632812 165.433594 L 34.675781 165.464844 L 34.714844 165.492188 L 34.757812 165.519531 L 34.804688 165.546875 L 34.851562 165.570312 L 34.898438 165.589844 L 34.949219 165.609375 L 35.101562 165.65625 L 35.15625 165.667969 L 35.214844 165.679688 L 35.269531 165.6875 L 35.386719 165.703125 L 35.445312 165.707031 L 35.664062 165.707031 L 35.765625 165.699219 L 35.96875 165.667969 L 36.070312 165.644531 L 36.222656 165.597656 L 36.269531 165.574219 L 36.316406 165.554688 L 36.363281 165.527344 L 36.410156 165.503906 L 36.539062 165.410156 L 36.582031 165.375 L 36.660156 165.296875 L 36.695312 165.253906 L 36.765625 165.160156 L 36.796875 165.109375 L 36.828125 165.054688 L 36.855469 165 L 36.886719 164.941406 L 36.933594 164.816406 L 36.972656 164.675781 L 36.984375 164.601562 L 37 164.519531 L 37.007812 164.441406 L 37.015625 164.355469 L 37.019531 164.265625 L 37.019531 164.074219 L 37.015625 163.980469 L 37 163.808594 L 36.984375 163.726562 L 36.972656 163.648438 L 36.953125 163.574219 L 36.933594 163.503906 L 36.910156 163.4375 L 36.886719 163.375 L 36.855469 163.316406 L 36.828125 163.261719 L 36.796875 163.207031 L 36.765625 163.15625 L 36.695312 163.0625 L 36.660156 163.023438 L 36.582031 162.945312 L 36.453125 162.851562 L 36.410156 162.824219 L 36.316406 162.777344 L 36.269531 162.757812 L 36.222656 162.742188 L 36.171875 162.726562 L 36.019531 162.691406 L 35.867188 162.667969 L 35.664062 162.652344 L 35.617188 162.652344 Z M 39.359375 162.445312 L 39.296875 162.445312 L 39.121094 162.457031 L 39.066406 162.464844 L 39.007812 162.472656 L 38.949219 162.484375 L 38.894531 162.496094 L 38.785156 162.527344 L 38.726562 162.542969 L 38.671875 162.566406 L 38.621094 162.585938 L 38.570312 162.613281 L 38.519531 162.636719 L 38.425781 162.699219 L 38.378906 162.734375 L 38.335938 162.769531 L 38.25 162.847656 L 38.207031 162.894531 L 38.167969 162.941406 L 38.132812 162.988281 L 38.0625 163.097656 L 38.03125 163.15625 L 38 163.21875 L 37.972656 163.28125 L 37.945312 163.347656 L 37.921875 163.414062 L 37.875 163.5625 L 37.859375 163.640625 L 37.84375 163.722656 L 37.832031 163.808594 L 37.824219 163.898438 L 37.816406 163.992188 L 37.8125 164.085938 L 37.8125 164.277344 L 37.816406 164.363281 L 37.832031 164.535156 L 37.84375 164.613281 L 37.859375 164.691406 L 37.875 164.765625 L 37.898438 164.839844 L 37.921875 164.910156 L 37.945312 164.976562 L 38 165.101562 L 38.03125 165.160156 L 38.0625 165.214844 L 38.097656 165.269531 L 38.167969 165.371094 L 38.207031 165.417969 L 38.292969 165.503906 L 38.335938 165.542969 L 38.378906 165.578125 L 38.425781 165.613281 L 38.527344 165.675781 L 38.628906 165.730469 L 38.738281 165.777344 L 38.796875 165.796875 L 38.851562 165.8125 L 38.910156 165.832031 L 38.964844 165.84375 L 39.082031 165.867188 L 39.199219 165.882812 L 39.261719 165.886719 L 39.320312 165.890625 L 39.457031 165.890625 L 39.605469 165.882812 L 39.746094 165.867188 L 39.816406 165.855469 L 39.949219 165.832031 L 40.015625 165.8125 L 40.078125 165.796875 L 40.140625 165.777344 L 40.257812 165.730469 L 40.367188 165.675781 L 40.421875 165.644531 L 40.523438 165.574219 L 40.570312 165.539062 L 40.617188 165.496094 L 40.660156 165.457031 L 40.703125 165.410156 L 40.742188 165.363281 L 40.78125 165.3125 L 40.816406 165.261719 L 40.847656 165.207031 L 40.878906 165.148438 L 40.910156 165.085938 L 40.9375 165.023438 L 40.964844 164.957031 L 40.988281 164.890625 L 41.007812 164.820312 L 41.027344 164.746094 L 41.042969 164.667969 L 41.054688 164.589844 L 41.066406 164.507812 L 41.082031 164.335938 L 41.085938 164.242188 L 41.085938 164.054688 L 41.082031 163.964844 L 41.074219 163.875 L 41.066406 163.789062 L 41.054688 163.707031 L 41.042969 163.628906 L 41.027344 163.550781 L 40.988281 163.410156 L 40.964844 163.339844 L 40.910156 163.214844 L 40.878906 163.15625 L 40.816406 163.046875 L 40.78125 162.996094 L 40.742188 162.945312 L 40.703125 162.898438 L 40.617188 162.8125 L 40.570312 162.777344 L 40.523438 162.738281 L 40.472656 162.707031 L 40.421875 162.671875 L 40.3125 162.617188 L 40.195312 162.570312 L 40.136719 162.550781 L 40.074219 162.53125 L 39.941406 162.5 L 39.871094 162.488281 L 39.804688 162.476562 L 39.734375 162.46875 L 39.585938 162.453125 L 39.511719 162.449219 L 39.433594 162.445312 Z M 39.359375 162.445312 "/>
<path fill-rule="nonzero" fill="rgb(0%, 0%, 0%)" fill-opacity="1" d="M 41.761719 139.890625 L 40.863281 139.890625 L 40.863281 137.785156 L 34.511719 137.785156 L 35.84375 139.648438 L 34.847656 139.648438 L 33.503906 137.699219 L 33.503906 136.726562 L 40.863281 136.726562 L 40.863281 134.714844 L 41.761719 134.714844 Z M 41.761719 139.890625 "/>
<path fill-rule="nonzero" fill="rgb(0%, 0%, 0%)" fill-opacity="1" d="M 37.628906 127.925781 L 37.863281 127.925781 L 38.089844 127.933594 L 38.308594 127.945312 L 38.519531 127.960938 L 38.726562 127.980469 L 38.921875 128.007812 L 39.109375 128.035156 L 39.292969 128.070312 L 39.464844 128.109375 L 39.632812 128.152344 L 39.792969 128.199219 L 39.945312 128.25 L 40.089844 128.300781 L 40.230469 128.359375 L 40.367188 128.417969 L 40.492188 128.480469 L 40.617188 128.546875 L 40.730469 128.617188 L 40.839844 128.691406 L 40.945312 128.769531 L 41.042969 128.847656 L 41.132812 128.929688 L 41.21875 129.011719 L 41.300781 129.101562 L 41.375 129.191406 L 41.441406 129.28125 L 41.503906 129.378906 L 41.5625 129.476562 L 41.613281 129.578125 L 41.660156 129.683594 L 41.703125 129.789062 L 41.738281 129.894531 L 41.800781 130.113281 L 41.824219 130.226562 L 41.84375 130.339844 L 41.859375 130.453125 L 41.875 130.6875 L 41.878906 130.808594 L 41.875 130.925781 L 41.867188 131.046875 L 41.859375 131.160156 L 41.84375 131.277344 L 41.824219 131.390625 L 41.800781 131.5 L 41.769531 131.613281 L 41.738281 131.71875 L 41.703125 131.828125 L 41.660156 131.933594 L 41.613281 132.035156 L 41.5625 132.136719 L 41.503906 132.234375 L 41.441406 132.328125 L 41.375 132.417969 L 41.300781 132.507812 L 41.21875 132.597656 L 41.132812 132.679688 L 41.042969 132.761719 L 40.945312 132.839844 L 40.84375 132.914062 L 40.734375 132.984375 L 40.617188 133.054688 L 40.496094 133.121094 L 40.371094 133.179688 L 40.097656 133.296875 L 39.949219 133.347656 L 39.796875 133.398438 L 39.640625 133.445312 L 39.472656 133.484375 L 39.296875 133.523438 L 39.117188 133.554688 L 38.925781 133.582031 L 38.730469 133.605469 L 38.523438 133.625 L 38.3125 133.640625 L 38.09375 133.652344 L 37.863281 133.65625 L 37.628906 133.660156 L 37.382812 133.65625 L 37.148438 133.652344 L 36.917969 133.640625 L 36.699219 133.625 L 36.488281 133.605469 L 36.289062 133.582031 L 36.09375 133.554688 L 35.910156 133.523438 L 35.734375 133.484375 L 35.566406 133.445312 L 35.40625 133.398438 L 35.25 133.347656 L 35.105469 133.296875 L 34.964844 133.238281 L 34.828125 133.179688 L 34.703125 133.117188 L 34.582031 133.050781 L 34.46875 132.980469 L 34.359375 132.910156 L 34.261719 132.835938 L 34.164062 132.753906 L 34.078125 132.675781 L 33.996094 132.589844 L 33.917969 132.503906 L 33.847656 132.414062 L 33.78125 132.320312 L 33.722656 132.222656 L 33.667969 132.125 L 33.621094 132.023438 L 33.582031 131.921875 L 33.542969 131.8125 L 33.507812 131.707031 L 33.480469 131.59375 L 33.453125 131.484375 L 33.429688 131.371094 L 33.398438 131.136719 L 33.382812 130.894531 L 33.382812 130.652344 L 33.390625 130.539062 L 33.398438 130.421875 L 33.414062 130.308594 L 33.429688 130.199219 L 33.453125 130.089844 L 33.480469 129.980469 L 33.507812 129.875 L 33.542969 129.769531 L 33.582031 129.664062 L 33.621094 129.5625 L 33.667969 129.460938 L 33.722656 129.363281 L 33.78125 129.269531 L 33.847656 129.175781 L 33.917969 129.085938 L 33.996094 129 L 34.078125 128.917969 L 34.164062 128.835938 L 34.359375 128.679688 L 34.46875 128.609375 L 34.582031 128.539062 L 34.703125 128.472656 L 34.828125 128.410156 L 34.964844 128.351562 L 35.105469 128.296875 L 35.25 128.242188 L 35.40625 128.191406 L 35.566406 128.148438 L 35.734375 128.105469 L 35.910156 128.066406 L 36.09375 128.03125 L 36.289062 128.003906 L 36.488281 127.980469 L 36.699219 127.960938 L 36.917969 127.945312 L 37.148438 127.933594 L 37.382812 127.925781 Z M 37.628906 128.996094 L 37.4375 128.996094 L 37.25 129 L 37.070312 129.007812 L 36.894531 129.015625 L 36.726562 129.027344 L 36.566406 129.039062 L 36.414062 129.054688 L 36.269531 129.070312 L 36.128906 129.089844 L 35.996094 129.113281 L 35.867188 129.136719 L 35.742188 129.164062 L 35.625 129.195312 L 35.511719 129.226562 L 35.40625 129.257812 L 35.304688 129.292969 L 35.207031 129.332031 L 35.117188 129.371094 L 35.03125 129.414062 L 34.875 129.507812 L 34.804688 129.554688 L 34.738281 129.605469 L 34.675781 129.660156 L 34.617188 129.714844 L 34.566406 129.769531 L 34.515625 129.832031 L 34.472656 129.890625 L 34.433594 129.957031 L 34.339844 130.15625 L 34.316406 130.226562 L 34.277344 130.375 L 34.261719 130.449219 L 34.25 130.527344 L 34.242188 130.605469 L 34.238281 130.6875 L 34.238281 130.859375 L 34.242188 130.945312 L 34.25 131.03125 L 34.261719 131.109375 L 34.277344 131.191406 L 34.296875 131.269531 L 34.316406 131.34375 L 34.339844 131.417969 L 34.402344 131.558594 L 34.4375 131.625 L 34.476562 131.6875 L 34.519531 131.75 L 34.570312 131.8125 L 34.621094 131.871094 L 34.679688 131.925781 L 34.742188 131.980469 L 34.808594 132.03125 L 34.957031 132.132812 L 35.121094 132.21875 L 35.308594 132.296875 L 35.410156 132.332031 L 35.628906 132.394531 L 35.75 132.425781 L 35.871094 132.453125 L 36 132.476562 L 36.132812 132.5 L 36.273438 132.519531 L 36.421875 132.535156 L 36.574219 132.550781 L 36.734375 132.566406 L 36.898438 132.574219 L 37.070312 132.582031 L 37.25 132.589844 L 37.4375 132.59375 L 37.816406 132.59375 L 37.996094 132.589844 L 38.171875 132.582031 L 38.339844 132.574219 L 38.503906 132.566406 L 38.660156 132.550781 L 38.8125 132.535156 L 38.957031 132.519531 L 39.09375 132.5 L 39.230469 132.476562 L 39.480469 132.421875 L 39.597656 132.394531 L 39.707031 132.363281 L 39.816406 132.328125 L 39.917969 132.292969 L 40.015625 132.253906 L 40.109375 132.210938 L 40.195312 132.167969 L 40.277344 132.125 L 40.355469 132.078125 L 40.425781 132.027344 L 40.492188 131.976562 L 40.558594 131.921875 L 40.617188 131.867188 L 40.671875 131.808594 L 40.722656 131.75 L 40.765625 131.6875 L 40.808594 131.621094 L 40.847656 131.558594 L 40.878906 131.488281 L 40.933594 131.347656 L 40.972656 131.199219 L 40.988281 131.121094 L 41 131.042969 L 41.015625 130.878906 L 41.015625 130.710938 L 41 130.554688 L 40.988281 130.476562 L 40.972656 130.398438 L 40.953125 130.324219 L 40.933594 130.253906 L 40.878906 130.113281 L 40.847656 130.046875 L 40.808594 129.980469 L 40.765625 129.914062 L 40.722656 129.855469 L 40.671875 129.792969 L 40.617188 129.738281 L 40.558594 129.683594 L 40.492188 129.628906 L 40.425781 129.578125 L 40.355469 129.53125 L 40.277344 129.484375 L 40.195312 129.4375 L 40.109375 129.394531 L 40.015625 129.351562 L 39.917969 129.3125 L 39.816406 129.277344 L 39.707031 129.242188 L 39.597656 129.210938 L 39.480469 129.179688 L 39.230469 129.125 L 38.957031 129.078125 L 38.8125 129.058594 L 38.660156 129.042969 L 38.503906 129.027344 L 38.339844 129.015625 L 38.171875 129.007812 L 37.996094 129 L 37.816406 128.996094 Z M 37.628906 128.996094 "/>
<path fill-rule="nonzero" fill="rgb(0%, 0%, 0%)" fill-opacity="1" d="M 41.761719 109.851562 L 40.863281 109.851562 L 40.863281 107.75 L 34.511719 107.75 L 35.84375 109.613281 L 34.847656 109.613281 L 33.503906 107.660156 L 33.503906 106.6875 L 40.863281 106.6875 L 40.863281 104.679688 L 41.761719 104.679688 Z M 41.761719 109.851562 "/>
<path fill-rule="nonzero" fill="rgb(0%, 0%, 0%)" fill-opacity="1" d="M 41.761719 103.488281 L 41.015625 103.488281 L 40.878906 103.429688 L 40.75 103.367188 L 40.621094 103.300781 L 40.492188 103.230469 L 40.371094 103.160156 L 40.253906 103.085938 L 40.136719 103.007812 L 40.023438 102.929688 L 39.914062 102.847656 L 39.703125 102.675781 L 39.601562 102.589844 L 39.5 102.5 L 39.402344 102.410156 L 39.308594 102.320312 L 39.214844 102.226562 L 39.121094 102.136719 L 39.03125 102.042969 L 38.773438 101.761719 L 38.691406 101.664062 L 38.527344 101.476562 L 38.214844 101.101562 L 38.140625 101.011719 L 38.070312 100.917969 L 37.996094 100.824219 L 37.921875 100.734375 L 37.851562 100.644531 L 37.777344 100.558594 L 37.707031 100.472656 L 37.558594 100.308594 L 37.488281 100.226562 L 37.414062 100.148438 L 37.34375 100.074219 L 37.269531 100 L 37.195312 99.929688 L 37.046875 99.796875 L 36.96875 99.734375 L 36.894531 99.675781 L 36.738281 99.566406 L 36.660156 99.519531 L 36.582031 99.46875 L 36.5 99.425781 L 36.417969 99.386719 L 36.332031 99.351562 L 36.246094 99.320312 L 36.15625 99.292969 L 36.0625 99.273438 L 35.972656 99.257812 L 35.875 99.246094 L 35.777344 99.238281 L 35.679688 99.234375 L 35.539062 99.242188 L 35.476562 99.246094 L 35.410156 99.253906 L 35.347656 99.261719 L 35.289062 99.273438 L 35.171875 99.304688 L 35.117188 99.320312 L 35.0625 99.339844 L 35.007812 99.363281 L 34.957031 99.386719 L 34.910156 99.414062 L 34.859375 99.441406 L 34.816406 99.46875 L 34.769531 99.5 L 34.726562 99.535156 L 34.648438 99.605469 L 34.613281 99.644531 L 34.574219 99.6875 L 34.511719 99.773438 L 34.480469 99.820312 L 34.425781 99.914062 L 34.402344 99.964844 L 34.382812 100.015625 L 34.359375 100.070312 L 34.34375 100.125 L 34.324219 100.183594 L 34.308594 100.238281 L 34.292969 100.296875 L 34.28125 100.355469 L 34.273438 100.417969 L 34.261719 100.480469 L 34.257812 100.542969 L 34.25 100.675781 L 34.25 100.867188 L 34.257812 100.929688 L 34.261719 100.988281 L 34.269531 101.050781 L 34.304688 101.226562 L 34.320312 101.28125 L 34.335938 101.339844 L 34.375 101.449219 L 34.445312 101.601562 L 34.472656 101.648438 L 34.503906 101.695312 L 34.53125 101.742188 L 34.566406 101.789062 L 34.636719 101.875 L 34.671875 101.914062 L 34.714844 101.953125 L 34.753906 101.992188 L 34.796875 102.03125 L 34.84375 102.066406 L 34.9375 102.128906 L 34.988281 102.160156 L 35.089844 102.214844 L 35.144531 102.238281 L 35.203125 102.261719 L 35.257812 102.28125 L 35.320312 102.300781 L 35.378906 102.316406 L 35.441406 102.332031 L 35.574219 102.355469 L 35.644531 102.363281 L 35.542969 103.441406 L 35.453125 103.429688 L 35.367188 103.417969 L 35.195312 103.378906 L 35.109375 103.355469 L 34.945312 103.300781 L 34.863281 103.269531 L 34.785156 103.234375 L 34.628906 103.15625 L 34.550781 103.113281 L 34.480469 103.066406 L 34.40625 103.019531 L 34.335938 102.96875 L 34.269531 102.914062 L 34.203125 102.855469 L 34.078125 102.730469 L 34.019531 102.664062 L 33.960938 102.59375 L 33.90625 102.523438 L 33.851562 102.449219 L 33.800781 102.371094 L 33.707031 102.207031 L 33.664062 102.121094 L 33.625 102.035156 L 33.585938 101.941406 L 33.550781 101.847656 L 33.488281 101.652344 L 33.441406 101.441406 L 33.421875 101.332031 L 33.410156 101.21875 L 33.394531 101.105469 L 33.386719 100.988281 L 33.382812 100.867188 L 33.382812 100.621094 L 33.386719 100.5 L 33.394531 100.386719 L 33.40625 100.269531 L 33.417969 100.160156 L 33.433594 100.050781 L 33.453125 99.945312 L 33.5 99.742188 L 33.527344 99.644531 L 33.558594 99.550781 L 33.589844 99.460938 L 33.628906 99.371094 L 33.667969 99.285156 L 33.710938 99.203125 L 33.753906 99.125 L 33.800781 99.046875 L 33.851562 98.976562 L 33.960938 98.835938 L 34.019531 98.773438 L 34.082031 98.710938 L 34.144531 98.652344 L 34.210938 98.597656 L 34.28125 98.542969 L 34.355469 98.492188 L 34.429688 98.449219 L 34.585938 98.363281 L 34.671875 98.328125 L 34.753906 98.292969 L 34.933594 98.238281 L 35.027344 98.214844 L 35.125 98.195312 L 35.222656 98.179688 L 35.324219 98.167969 L 35.425781 98.160156 L 35.535156 98.152344 L 35.726562 98.152344 L 35.808594 98.15625 L 35.890625 98.164062 L 35.96875 98.175781 L 36.046875 98.191406 L 36.128906 98.207031 L 36.207031 98.226562 L 36.28125 98.25 L 36.359375 98.277344 L 36.433594 98.304688 L 36.582031 98.367188 L 36.65625 98.402344 L 36.726562 98.4375 L 36.800781 98.476562 L 37.011719 98.605469 L 37.082031 98.652344 L 37.214844 98.753906 L 37.285156 98.804688 L 37.484375 98.96875 L 37.546875 99.027344 L 37.613281 99.085938 L 37.675781 99.148438 L 37.742188 99.210938 L 38.054688 99.542969 L 38.117188 99.613281 L 38.179688 99.679688 L 38.304688 99.820312 L 38.363281 99.890625 L 38.425781 99.960938 L 38.484375 100.035156 L 38.546875 100.105469 L 38.605469 100.175781 L 38.664062 100.25 L 38.726562 100.320312 L 38.785156 100.394531 L 38.84375 100.464844 L 38.902344 100.539062 L 38.964844 100.609375 L 39.023438 100.683594 L 39.082031 100.753906 L 39.140625 100.828125 L 39.257812 100.96875 L 39.316406 101.035156 L 39.378906 101.105469 L 39.554688 101.304688 L 39.617188 101.367188 L 39.734375 101.492188 L 39.855469 101.613281 L 39.917969 101.667969 L 39.976562 101.726562 L 40.039062 101.78125 L 40.101562 101.832031 L 40.164062 101.886719 L 40.226562 101.9375 L 40.285156 101.988281 L 40.347656 102.035156 L 40.472656 102.121094 L 40.535156 102.160156 L 40.601562 102.199219 L 40.664062 102.234375 L 40.730469 102.269531 L 40.796875 102.300781 L 40.863281 102.328125 L 40.863281 98.023438 L 41.761719 98.023438 Z M 41.761719 103.488281 "/>
<path fill-rule="nonzero" fill="rgb(0%, 0%, 0%)" fill-opacity="1" d="M 41.761719 79.816406 L 40.863281 79.816406 L 40.863281 77.714844 L 34.511719 77.714844 L 35.84375 79.578125 L 34.847656 79.578125 L 33.503906 77.625 L 33.503906 76.652344 L 40.863281 76.652344 L 40.863281 74.644531 L 41.761719 74.644531 Z M 41.761719 79.816406 "/>
<path fill-rule="nonzero" fill="rgb(0%, 0%, 0%)" fill-opacity="1" d="M 39.890625 68.894531 L 41.761719 68.894531 L 41.761719 69.890625 L 39.890625 69.890625 L 39.890625 73.78125 L 39.070312 73.78125 L 33.503906 70.003906 L 33.503906 68.894531 L 39.058594 68.894531 L 39.058594 67.734375 L 39.890625 67.734375 Z M 34.695312 69.890625 L 34.699219 69.894531 L 34.714844 69.902344 L 34.726562 69.90625 L 34.738281 69.914062 L 34.75 69.917969 L 34.761719 69.925781 L 34.792969 69.941406 L 34.8125 69.949219 L 34.828125 69.960938 L 34.84375 69.96875 L 34.863281 69.980469 L 34.878906 69.988281 L 34.9375 70.023438 L 34.957031 70.03125 L 34.976562 70.042969 L 35 70.054688 L 35.039062 70.078125 L 35.0625 70.089844 L 35.082031 70.105469 L 35.105469 70.117188 L 35.125 70.128906 L 35.171875 70.152344 L 35.191406 70.167969 L 35.214844 70.179688 L 35.234375 70.191406 L 35.257812 70.203125 L 35.273438 70.214844 L 35.292969 70.222656 L 35.3125 70.234375 L 35.328125 70.246094 L 35.34375 70.253906 L 35.359375 70.265625 L 35.375 70.273438 L 35.390625 70.285156 L 38.507812 72.398438 L 38.519531 72.40625 L 38.527344 72.414062 L 38.539062 72.417969 L 38.550781 72.429688 L 38.574219 72.445312 L 38.589844 72.453125 L 38.601562 72.464844 L 38.632812 72.488281 L 38.644531 72.5 L 38.660156 72.507812 L 38.707031 72.542969 L 38.726562 72.554688 L 38.742188 72.5625 L 38.867188 72.65625 L 38.878906 72.667969 L 38.957031 72.726562 L 38.96875 72.738281 L 38.984375 72.75 L 38.996094 72.757812 L 39.007812 72.769531 L 39.03125 72.785156 L 39.039062 72.792969 L 39.050781 72.800781 L 39.058594 72.808594 L 39.058594 69.890625 Z M 34.695312 69.890625 "/>
</svg>
