<?xml version="1.0" encoding="UTF-8"?>
<svg xmlns="http://www.w3.org/2000/svg" xmlns:xlink="http://www.w3.org/1999/xlink" width="504" height="360" viewBox="0 0 504 360">
<defs>
<clipPath id="clip-0">
<path clip-rule="nonzero" d="M 8.21875 5.480469 L 498.519531 5.480469 L 498.519531 351.78125 L 8.21875 351.78125 Z M 8.21875 5.480469 "/>
</clipPath>
</defs>
<rect x="-50.4" y="-36" width="604.8" height="432" fill="rgb(100%, 100%, 100%)" fill-opacity="1"/>
<rect x="-50.4" y="-36" width="604.8" height="432" fill="rgb(100%, 100%, 100%)" fill-opacity="1"/>
<path fill="none" stroke-width="1.066978" stroke-linecap="round" stroke-linejoin="round" stroke="rgb(100%, 100%, 100%)" stroke-opacity="1" stroke-miterlimit="10" d="M 0 360 L 504 360 L 504 0 L 0 0 Z M 0 360 "/>
<g clip-path="url(#clip-0)">
<path fill-rule="nonzero" fill="rgb(92.156863%, 92.156863%, 92.156863%)" fill-opacity="1" d="M 8.21875 351.78125 L 498.519531 351.78125 L 498.519531 5.480469 L 8.21875 5.480469 Z M 8.21875 351.78125 "/>
</g>
<path fill="none" stroke-width="1.066978" stroke-linecap="butt" stroke-linejoin="round" stroke="rgb(0%, 0%, 0%)" stroke-opacity="1" stroke-miterlimit="1" d="M 30.503906 88.773438 L 32.808594 88.792969 L 60.417969 89.027344 L 62.722656 89.046875 L 90.332031 89.28125 L 92.636719 89.300781 L 97.238281 89.339844 L 99.539062 89.355469 L 120.246094 89.53125 L 122.550781 89.550781 L 150.160156 89.785156 L 152.464844 89.804688 L 180.074219 90.039062 L 182.378906 90.058594 L 209.988281 90.292969 L 212.292969 90.3125 L 239.902344 90.546875 L 242.207031 90.566406 L 246.808594 90.605469 L 249.109375 90.621094 L 249.808594 90.628906 "/>
<path fill="none" stroke-width="1.066978" stroke-linecap="butt" stroke-linejoin="round" stroke="rgb(0%, 0%, 0%)" stroke-opacity="1" stroke-miterlimit="1" d="M 239.941406 96.214844 L 249.808594 90.628906 L 240.039062 84.875 "/>
<path fill="none" stroke-width="1.066978" stroke-linecap="butt" stroke-linejoin="round" stroke="rgb(0%, 0%, 0%)" stroke-opacity="1" stroke-miterlimit="1" d="M 30.503906 88.773438 L 31.296875 89.929688 L 32.089844 91.082031 L 34.46875 94.550781 L 35.261719 95.703125 L 36.847656 98.015625 L 37.636719 99.167969 L 40.015625 102.636719 L 40.808594 103.789062 L 42.394531 106.101562 L 43.1875 107.253906 L 43.980469 108.410156 L 44.769531 109.566406 L 45.5625 110.722656 L 46.355469 111.875 L 47.941406 114.1875 L 48.734375 115.339844 L 51.113281 118.808594 L 51.902344 119.960938 L 53.488281 122.273438 L 54.28125 123.425781 L 56.660156 126.894531 L 57.453125 128.046875 L 58.246094 129.203125 L 59.035156 130.359375 L 59.828125 131.511719 L 62.207031 134.980469 L 63 136.132812 L 64.585938 138.445312 L 65.378906 139.597656 L 66.171875 140.753906 L 66.960938 141.910156 L 67.753906 143.066406 L 68.546875 144.21875 L 70.132812 146.53125 L 70.925781 147.683594 L 73.304688 151.152344 L 74.09375 152.304688 L 75.679688 154.617188 L 76.472656 155.769531 L 78.851562 159.238281 L 79.644531 160.390625 L 80.4375 161.546875 L 81.226562 162.703125 L 82.019531 163.855469 L 84.398438 167.324219 L 85.191406 168.476562 L 86.777344 170.789062 L 87.570312 171.941406 L 88.359375 173.097656 L 89.945312 175.410156 L 90.738281 176.5625 L 92.324219 178.875 L 93.117188 180.027344 L 94.703125 182.339844 L 95.492188 183.496094 L 96.285156 184.648438 L 97.871094 186.960938 L 98.664062 188.113281 L 101.042969 191.582031 L 101.835938 192.734375 L 102.625 193.890625 L 103.417969 195.046875 L 104.15625 196.121094 "/>
<path fill="none" stroke-width="1.066978" stroke-linecap="butt" stroke-linejoin="round" stroke="rgb(0%, 0%, 0%)" stroke-opacity="1" stroke-miterlimit="1" d="M 93.925781 191.230469 L 104.15625 196.121094 L 103.277344 184.816406 "/>
<path fill="none" stroke-width="1.066978" stroke-linecap="butt" stroke-linejoin="round" stroke="rgb(0%, 0%, 0%)" stroke-opacity="1" stroke-miterlimit="1" d="M 258.3125 90.699219 L 253.789062 94.109375 L 252.277344 95.242188 L 247.753906 98.652344 L 246.246094 99.785156 L 244.734375 100.921875 L 243.226562 102.058594 L 241.71875 103.191406 L 238.703125 105.464844 L 237.191406 106.601562 L 235.683594 107.734375 L 231.160156 111.144531 L 229.652344 112.277344 L 228.140625 113.414062 L 225.125 115.6875 L 223.617188 116.820312 L 222.109375 117.957031 L 220.597656 119.09375 L 219.089844 120.226562 L 214.566406 123.636719 L 213.054688 124.769531 L 208.53125 128.179688 L 207.023438 129.3125 L 205.515625 130.449219 L 204.003906 131.585938 L 202.496094 132.71875 L 197.972656 136.128906 L 196.460938 137.261719 L 191.9375 140.671875 L 190.429688 141.804688 L 188.921875 142.941406 L 187.410156 144.078125 L 185.902344 145.214844 L 184.394531 146.347656 L 181.378906 148.621094 L 179.867188 149.753906 L 175.34375 153.164062 L 173.835938 154.296875 L 172.324219 155.433594 L 169.308594 157.707031 L 167.800781 158.839844 L 164.785156 161.113281 L 163.273438 162.246094 L 158.75 165.65625 L 157.242188 166.789062 L 155.730469 167.925781 L 152.714844 170.199219 L 151.207031 171.332031 L 149.699219 172.46875 L 148.1875 173.605469 L 146.679688 174.742188 L 145.171875 175.875 L 142.15625 178.148438 L 140.648438 179.28125 L 139.136719 180.417969 L 136.121094 182.691406 L 134.613281 183.824219 L 133.105469 184.960938 L 131.59375 186.097656 L 130.085938 187.234375 L 128.578125 188.367188 L 125.5625 190.640625 L 124.050781 191.773438 L 119.527344 195.183594 L 118.019531 196.316406 L 116.511719 197.453125 L 115.761719 198.015625 "/>
<path fill="none" stroke-width="1.066978" stroke-linecap="butt" stroke-linejoin="round" stroke="rgb(0%, 0%, 0%)" stroke-opacity="1" stroke-miterlimit="1" d="M 120.195312 187.582031 L 115.761719 198.015625 L 127.015625 196.640625 "/>
<path fill="none" stroke-width="1.066978" stroke-linecap="butt" stroke-linejoin="round" stroke="rgb(0%, 0%, 0%)" stroke-opacity="1" stroke-miterlimit="1" d="M 258.3125 90.699219 L 260.515625 90 L 262.714844 89.296875 L 264.917969 88.59375 L 267.117188 87.894531 L 269.320312 87.191406 L 271.519531 86.488281 L 273.722656 85.789062 L 275.921875 85.085938 L 278.125 84.382812 L 280.324219 83.683594 L 282.527344 82.980469 L 284.726562 82.277344 L 286.929688 81.578125 L 289.128906 80.875 L 291.332031 80.171875 L 293.53125 79.472656 L 295.734375 78.769531 L 297.933594 78.066406 L 300.136719 77.367188 L 302.335938 76.664062 L 304.539062 75.960938 L 306.738281 75.261719 L 308.941406 74.558594 L 311.140625 73.855469 L 313.34375 73.15625 L 315.542969 72.453125 L 317.746094 71.75 L 319.945312 71.050781 L 324.351562 69.644531 L 326.550781 68.945312 L 328.753906 68.242188 L 330.953125 67.539062 L 333.15625 66.839844 L 335.355469 66.136719 L 337.558594 65.433594 L 339.757812 64.734375 L 341.960938 64.03125 L 344.160156 63.328125 L 346.363281 62.628906 L 348.5625 61.925781 L 350.765625 61.222656 L 352.964844 60.523438 L 355.167969 59.820312 L 357.367188 59.117188 L 359.570312 58.417969 L 361.769531 57.714844 L 363.972656 57.011719 L 366.171875 56.3125 L 368.375 55.609375 L 370.574219 54.90625 L 372.777344 54.207031 L 374.976562 53.503906 L 377.179688 52.800781 L 379.378906 52.101562 L 381.582031 51.398438 L 383.78125 50.695312 L 385.984375 49.996094 L 388.183594 49.292969 L 390.386719 48.589844 L 392.585938 47.890625 L 394.789062 47.1875 L 396.988281 46.484375 L 399.191406 45.785156 L 401.390625 45.082031 L 403.59375 44.378906 L 405.796875 43.679688 L 407.996094 42.976562 L 410.199219 42.273438 L 412.398438 41.574219 L 414.601562 40.871094 L 416.800781 40.167969 L 419.003906 39.46875 L 421.203125 38.765625 L 423.40625 38.0625 L 425.605469 37.363281 L 427.808594 36.660156 L 430.007812 35.957031 L 432.210938 35.257812 L 434.410156 34.554688 L 436.613281 33.851562 L 438.8125 33.152344 L 441.015625 32.449219 L 443.214844 31.746094 L 445.417969 31.046875 L 447.617188 30.34375 L 449.820312 29.640625 L 452.019531 28.941406 L 454.222656 28.238281 L 456.421875 27.535156 L 458.625 26.835938 L 460.824219 26.132812 L 463.027344 25.429688 L 465.226562 24.730469 L 467.429688 24.027344 L 468.132812 23.804688 "/>
<path fill="none" stroke-width="1.066978" stroke-linecap="butt" stroke-linejoin="round" stroke="rgb(0%, 0%, 0%)" stroke-opacity="1" stroke-miterlimit="1" d="M 460.5 32.1875 L 468.132812 23.804688 L 457.054688 21.386719 "/>
<path fill="none" stroke-width="1.066978" stroke-linecap="butt" stroke-linejoin="round" stroke="rgb(0%, 0%, 0%)" stroke-opacity="1" stroke-miterlimit="1" d="M 108.96875 203.132812 L 108.453125 204.472656 L 107.429688 207.160156 L 106.914062 208.503906 L 106.402344 209.84375 L 105.378906 212.53125 L 104.863281 213.871094 L 103.839844 216.558594 L 103.324219 217.898438 L 102.300781 220.585938 L 101.785156 221.925781 L 100.761719 224.613281 L 100.25 225.953125 L 99.734375 227.296875 L 99.222656 228.640625 L 98.710938 229.980469 L 98.195312 231.324219 L 97.683594 232.667969 L 97.171875 234.007812 L 96.660156 235.351562 L 96.144531 236.695312 L 95.632812 238.039062 L 95.121094 239.378906 L 94.605469 240.722656 L 94.09375 242.066406 L 93.582031 243.40625 L 93.066406 244.75 L 92.554688 246.09375 L 92.042969 247.433594 L 91.53125 248.777344 L 91.015625 250.121094 L 90.503906 251.460938 L 89.992188 252.804688 L 89.476562 254.148438 L 88.964844 255.488281 L 88.453125 256.832031 L 87.9375 258.175781 L 87.425781 259.515625 L 86.402344 262.203125 L 85.886719 263.542969 L 84.863281 266.230469 L 84.347656 267.570312 L 82.8125 271.601562 L 82.296875 272.941406 L 81.273438 275.628906 L 80.757812 276.96875 L 79.734375 279.65625 L 79.21875 280.996094 L 78.195312 283.683594 L 77.683594 285.023438 L 77.167969 286.367188 L 76.65625 287.710938 L 76.144531 289.050781 L 75.628906 290.394531 L 75.117188 291.738281 L 74.605469 293.078125 L 74.09375 294.421875 L 73.578125 295.765625 L 73.066406 297.105469 L 72.554688 298.449219 L 72.039062 299.792969 L 71.527344 301.136719 L 71.015625 302.476562 L 70.5 303.820312 L 69.988281 305.164062 L 69.476562 306.503906 L 68.964844 307.847656 L 68.449219 309.191406 L 67.9375 310.53125 L 67.425781 311.875 L 66.910156 313.21875 L 66.398438 314.558594 L 65.375 317.246094 L 64.859375 318.585938 L 63.835938 321.273438 L 63.320312 322.613281 L 62.296875 325.300781 L 61.78125 326.640625 L 61.269531 327.984375 L 61.226562 328.097656 "/>
<path fill="none" stroke-width="1.066978" stroke-linecap="butt" stroke-linejoin="round" stroke="rgb(0%, 0%, 0%)" stroke-opacity="1" stroke-miterlimit="1" d="M 59.4375 316.898438 L 61.226562 328.097656 L 70.027344 320.945312 "/>
<path fill-rule="nonzero" fill="rgb(0%, 0%, 0%)" fill-opacity="1" stroke-width="0.708661" stroke-linecap="round" stroke-linejoin="round" stroke="rgb(0%, 0%, 0%)" stroke-opacity="1" stroke-miterlimit="10" d="M 36.195312 88.773438 C 36.195312 91.914062 33.648438 94.460938 30.503906 94.460938 C 27.363281 94.460938 24.816406 91.914062 24.816406 88.773438 C 24.816406 85.632812 27.363281 83.085938 30.503906 83.085938 C 33.648438 83.085938 36.195312 85.632812 36.195312 88.773438 "/>
<path fill-rule="nonzero" fill="rgb(0%, 0%, 0%)" fill-opacity="1" stroke-width="0.708661" stroke-linecap="round" stroke-linejoin="round" stroke="rgb(0%, 0%, 0%)" stroke-opacity="1" stroke-miterlimit="10" d="M 264.003906 90.699219 C 264.003906 93.84375 261.453125 96.390625 258.3125 96.390625 C 255.171875 96.390625 252.625 93.84375 252.625 90.699219 C 252.625 87.558594 255.171875 85.011719 258.3125 85.011719 C 261.453125 85.011719 264.003906 87.558594 264.003906 90.699219 "/>
<path fill-rule="nonzero" fill="rgb(0%, 0%, 0%)" fill-opacity="1" stroke-width="0.708661" stroke-linecap="round" stroke-linejoin="round" stroke="rgb(0%, 0%, 0%)" stroke-opacity="1" stroke-miterlimit="10" d="M 114.65625 203.132812 C 114.65625 206.273438 112.109375 208.820312 108.96875 208.820312 C 105.824219 208.820312 103.277344 206.273438 103.277344 203.132812 C 103.277344 199.988281 105.824219 197.441406 108.96875 197.441406 C 112.109375 197.441406 114.65625 199.988281 114.65625 203.132812 "/>
<path fill-rule="nonzero" fill="rgb(0%, 0%, 0%)" fill-opacity="1" stroke-width="0.708661" stroke-linecap="round" stroke-linejoin="round" stroke="rgb(0%, 0%, 0%)" stroke-opacity="1" stroke-miterlimit="10" d="M 481.921875 21.21875 C 481.921875 24.363281 479.375 26.910156 476.234375 26.910156 C 473.09375 26.910156 470.542969 24.363281 470.542969 21.21875 C 470.542969 18.078125 473.09375 15.53125 476.234375 15.53125 C 479.375 15.53125 481.921875 18.078125 481.921875 21.21875 "/>
<path fill-rule="nonzero" fill="rgb(0%, 0%, 0%)" fill-opacity="1" stroke-width="0.708661" stroke-linecap="round" stroke-linejoin="round" stroke="rgb(0%, 0%, 0%)" stroke-opacity="1" stroke-miterlimit="10" d="M 63.882812 336.039062 C 63.882812 339.183594 61.335938 341.730469 58.191406 341.730469 C 55.050781 341.730469 52.503906 339.183594 52.503906 336.039062 C 52.503906 332.898438 55.050781 330.351562 58.191406 330.351562 C 61.335938 330.351562 63.882812 332.898438 63.882812 336.039062 "/>
</svg>
