<?xml version="1.0" encoding="UTF-8"?>
<svg xmlns="http://www.w3.org/2000/svg" xmlns:xlink="http://www.w3.org/1999/xlink" width="504" height="360" viewBox="0 0 504 360">
<defs>
<clipPath id="clip-0">
<path clip-rule="nonzero" d="M 8.21875 5.480469 L 498.519531 5.480469 L 498.519531 351.78125 L 8.21875 351.78125 Z M 8.21875 5.480469 "/>
</clipPath>
</defs>
<rect x="-50.4" y="-36" width="604.8" height="432" fill="rgb(100%, 100%, 100%)" fill-opacity="1"/>
<rect x="-50.4" y="-36" width="604.8" height="432" fill="rgb(100%, 100%, 100%)" fill-opacity="1"/>
<path fill="none" stroke-width="1.066978" stroke-linecap="round" stroke-linejoin="round" stroke="rgb(100%, 100%, 100%)" stroke-opacity="1" stroke-miterlimit="10" d="M 0 360 L 504 360 L 504 0 L 0 0 Z M 0 360 "/>
<g clip-path="url(#clip-0)">
<path fill-rule="nonzero" fill="rgb(92.156863%, 92.156863%, 92.156863%)" fill-opacity="1" d="M 8.21875 351.78125 L 498.519531 351.78125 L 498.519531 5.480469 L 8.21875 5.480469 Z M 8.21875 351.78125 "/>
</g>
<path fill-rule="nonzero" fill="rgb(0%, 0%, 0%)" fill-opacity="1" stroke-width="0.708661" stroke-linecap="round" stroke-linejoin="round" stroke="rgb(0%, 0%, 0%)" stroke-opacity="1" stroke-miterlimit="10" d="M 406.324219 120.585938 C 406.324219 123.191406 402.414062 123.191406 402.414062 120.585938 C 402.414062 117.980469 406.324219 117.980469 406.324219 120.585938 "/>
<path fill-rule="nonzero" fill="rgb(0%, 0%, 0%)" fill-opacity="1" stroke-width="0.708661" stroke-linecap="round" stroke-linejoin="round" stroke="rgb(0%, 0%, 0%)" stroke-opacity="1" stroke-miterlimit="10" d="M 431.035156 101.902344 C 431.035156 104.507812 427.125 104.507812 427.125 101.902344 C 427.125 99.296875 431.035156 99.296875 431.035156 101.902344 "/>
<path fill-rule="nonzero" fill="rgb(0%, 0%, 0%)" fill-opacity="1" stroke-width="0.708661" stroke-linecap="round" stroke-linejoin="round" stroke="rgb(0%, 0%, 0%)" stroke-opacity="1" stroke-miterlimit="10" d="M 470.730469 121.886719 C 470.730469 124.492188 466.820312 124.492188 466.820312 121.886719 C 466.820312 119.28125 470.730469 119.28125 470.730469 121.886719 "/>
<path fill-rule="nonzero" fill="rgb(0%, 0%, 0%)" fill-opacity="1" stroke-width="0.708661" stroke-linecap="round" stroke-linejoin="round" stroke="rgb(0%, 0%, 0%)" stroke-opacity="1" stroke-miterlimit="10" d="M 83.617188 137.617188 C 83.617188 140.222656 79.707031 140.222656 79.707031 137.617188 C 79.707031 135.011719 83.617188 135.011719 83.617188 137.617188 "/>
<path fill-rule="nonzero" fill="rgb(0%, 0%, 0%)" fill-opacity="1" stroke-width="0.708661" stroke-linecap="round" stroke-linejoin="round" stroke="rgb(0%, 0%, 0%)" stroke-opacity="1" stroke-miterlimit="10" d="M 135.546875 97.984375 C 135.546875 100.59375 131.636719 100.59375 131.636719 97.984375 C 131.636719 95.378906 135.546875 95.378906 135.546875 97.984375 "/>
<path fill-rule="nonzero" fill="rgb(0%, 0%, 0%)" fill-opacity="1" stroke-width="0.708661" stroke-linecap="round" stroke-linejoin="round" stroke="rgb(0%, 0%, 0%)" stroke-opacity="1" stroke-miterlimit="10" d="M 228 46.347656 C 228 48.957031 224.089844 48.957031 224.089844 46.347656 C 224.089844 43.742188 228 43.742188 228 46.347656 "/>
<path fill-rule="nonzero" fill="rgb(0%, 0%, 0%)" fill-opacity="1" stroke-width="0.708661" stroke-linecap="round" stroke-linejoin="round" stroke="rgb(0%, 0%, 0%)" stroke-opacity="1" stroke-miterlimit="10" d="M 377.421875 47.773438 C 377.421875 50.382812 373.511719 50.382812 373.511719 47.773438 C 373.511719 45.167969 377.421875 45.167969 377.421875 47.773438 "/>
<path fill-rule="nonzero" fill="rgb(0%, 0%, 0%)" fill-opacity="1" stroke-width="0.708661" stroke-linecap="round" stroke-linejoin="round" stroke="rgb(0%, 0%, 0%)" stroke-opacity="1" stroke-miterlimit="10" d="M 291.910156 21.21875 C 291.910156 23.828125 288 23.828125 288 21.21875 C 288 18.613281 291.910156 18.613281 291.910156 21.21875 "/>
<path fill-rule="nonzero" fill="rgb(0%, 0%, 0%)" fill-opacity="1" stroke-width="0.708661" stroke-linecap="round" stroke-linejoin="round" stroke="rgb(0%, 0%, 0%)" stroke-opacity="1" stroke-miterlimit="10" d="M 315.085938 142.414062 C 315.085938 145.019531 311.175781 145.019531 311.175781 142.414062 C 311.175781 139.808594 315.085938 139.808594 315.085938 142.414062 "/>
<path fill-rule="nonzero" fill="rgb(0%, 0%, 0%)" fill-opacity="1" stroke-width="0.708661" stroke-linecap="round" stroke-linejoin="round" stroke="rgb(0%, 0%, 0%)" stroke-opacity="1" stroke-miterlimit="10" d="M 150.558594 190.109375 C 150.558594 192.71875 146.648438 192.71875 146.648438 190.109375 C 146.648438 187.503906 150.558594 187.503906 150.558594 190.109375 "/>
<path fill-rule="nonzero" fill="rgb(0%, 0%, 0%)" fill-opacity="1" stroke-width="0.708661" stroke-linecap="round" stroke-linejoin="round" stroke="rgb(0%, 0%, 0%)" stroke-opacity="1" stroke-miterlimit="10" d="M 263.3125 102.941406 C 263.3125 105.550781 259.40625 105.550781 259.40625 102.941406 C 259.40625 100.335938 263.3125 100.335938 263.3125 102.941406 "/>
<path fill-rule="nonzero" fill="rgb(0%, 0%, 0%)" fill-opacity="1" stroke-width="0.708661" stroke-linecap="round" stroke-linejoin="round" stroke="rgb(0%, 0%, 0%)" stroke-opacity="1" stroke-miterlimit="10" d="M 255.925781 65.113281 C 255.925781 67.722656 252.015625 67.722656 252.015625 65.113281 C 252.015625 62.507812 255.925781 62.507812 255.925781 65.113281 "/>
<path fill-rule="nonzero" fill="rgb(0%, 0%, 0%)" fill-opacity="1" stroke-width="0.708661" stroke-linecap="round" stroke-linejoin="round" stroke="rgb(0%, 0%, 0%)" stroke-opacity="1" stroke-miterlimit="10" d="M 353.785156 53.179688 C 353.785156 55.785156 349.875 55.785156 349.875 53.179688 C 349.875 50.574219 353.785156 50.574219 353.785156 53.179688 "/>
<path fill-rule="nonzero" fill="rgb(0%, 0%, 0%)" fill-opacity="1" stroke-width="0.708661" stroke-linecap="round" stroke-linejoin="round" stroke="rgb(0%, 0%, 0%)" stroke-opacity="1" stroke-miterlimit="10" d="M 396.742188 74.375 C 396.742188 76.980469 392.832031 76.980469 392.832031 74.375 C 392.832031 71.769531 396.742188 71.769531 396.742188 74.375 "/>
<path fill-rule="nonzero" fill="rgb(0%, 0%, 0%)" fill-opacity="1" stroke-width="0.708661" stroke-linecap="round" stroke-linejoin="round" stroke="rgb(0%, 0%, 0%)" stroke-opacity="1" stroke-miterlimit="10" d="M 117.660156 205.222656 C 117.660156 207.828125 113.75 207.828125 113.75 205.222656 C 113.75 202.617188 117.660156 202.617188 117.660156 205.222656 "/>
<path fill-rule="nonzero" fill="rgb(0%, 0%, 0%)" fill-opacity="1" stroke-width="0.708661" stroke-linecap="round" stroke-linejoin="round" stroke="rgb(0%, 0%, 0%)" stroke-opacity="1" stroke-miterlimit="10" d="M 321.777344 45.675781 C 321.777344 48.285156 317.867188 48.285156 317.867188 45.675781 C 317.867188 43.070312 321.777344 43.070312 321.777344 45.675781 "/>
<path fill-rule="nonzero" fill="rgb(0%, 0%, 0%)" fill-opacity="1" stroke-width="0.708661" stroke-linecap="round" stroke-linejoin="round" stroke="rgb(0%, 0%, 0%)" stroke-opacity="1" stroke-miterlimit="10" d="M 42.578125 160.910156 C 42.578125 163.515625 38.667969 163.515625 38.667969 160.910156 C 38.667969 158.300781 42.578125 158.300781 42.578125 160.910156 "/>
<path fill-rule="nonzero" fill="rgb(0%, 0%, 0%)" fill-opacity="1" stroke-width="0.708661" stroke-linecap="round" stroke-linejoin="round" stroke="rgb(0%, 0%, 0%)" stroke-opacity="1" stroke-miterlimit="10" d="M 167.628906 136.550781 C 167.628906 139.160156 163.71875 139.160156 163.71875 136.550781 C 163.71875 133.945312 167.628906 133.945312 167.628906 136.550781 "/>
<path fill-rule="nonzero" fill="rgb(0%, 0%, 0%)" fill-opacity="1" stroke-width="0.708661" stroke-linecap="round" stroke-linejoin="round" stroke="rgb(0%, 0%, 0%)" stroke-opacity="1" stroke-miterlimit="10" d="M 253.378906 89.707031 C 253.378906 92.3125 249.472656 92.3125 249.472656 89.707031 C 249.472656 87.101562 253.378906 87.101562 253.378906 89.707031 "/>
<path fill-rule="nonzero" fill="rgb(0%, 0%, 0%)" fill-opacity="1" stroke-width="0.708661" stroke-linecap="round" stroke-linejoin="round" stroke="rgb(0%, 0%, 0%)" stroke-opacity="1" stroke-miterlimit="10" d="M 350.875 114.316406 C 350.875 116.925781 346.96875 116.925781 346.96875 114.316406 C 346.96875 111.710938 350.875 111.710938 350.875 114.316406 "/>
<path fill-rule="nonzero" fill="rgb(0%, 0%, 0%)" fill-opacity="1" stroke-width="0.708661" stroke-linecap="round" stroke-linejoin="round" stroke="rgb(0%, 0%, 0%)" stroke-opacity="1" stroke-miterlimit="10" d="M 328.964844 92.460938 C 328.964844 95.066406 325.054688 95.066406 325.054688 92.460938 C 325.054688 89.855469 328.964844 89.855469 328.964844 92.460938 "/>
<path fill-rule="nonzero" fill="rgb(0%, 0%, 0%)" fill-opacity="1" stroke-width="0.708661" stroke-linecap="round" stroke-linejoin="round" stroke="rgb(0%, 0%, 0%)" stroke-opacity="1" stroke-miterlimit="10" d="M 213.191406 251.71875 C 213.191406 254.324219 209.285156 254.324219 209.285156 251.71875 C 209.285156 249.113281 213.191406 249.113281 213.191406 251.71875 "/>
<path fill-rule="nonzero" fill="rgb(0%, 0%, 0%)" fill-opacity="1" stroke-width="0.708661" stroke-linecap="round" stroke-linejoin="round" stroke="rgb(0%, 0%, 0%)" stroke-opacity="1" stroke-miterlimit="10" d="M 478.1875 146.847656 C 478.1875 149.453125 474.28125 149.453125 474.28125 146.847656 C 474.28125 144.242188 478.1875 144.242188 478.1875 146.847656 "/>
<path fill-rule="nonzero" fill="rgb(0%, 0%, 0%)" fill-opacity="1" stroke-width="0.708661" stroke-linecap="round" stroke-linejoin="round" stroke="rgb(0%, 0%, 0%)" stroke-opacity="1" stroke-miterlimit="10" d="M 130.832031 164.492188 C 130.832031 167.097656 126.921875 167.097656 126.921875 164.492188 C 126.921875 161.882812 130.832031 161.882812 130.832031 164.492188 "/>
<path fill-rule="nonzero" fill="rgb(0%, 0%, 0%)" fill-opacity="1" stroke-width="0.708661" stroke-linecap="round" stroke-linejoin="round" stroke="rgb(0%, 0%, 0%)" stroke-opacity="1" stroke-miterlimit="10" d="M 76.257812 159.621094 C 76.257812 162.226562 72.351562 162.226562 72.351562 159.621094 C 72.351562 157.015625 76.257812 157.015625 76.257812 159.621094 "/>
<path fill-rule="nonzero" fill="rgb(0%, 0%, 0%)" fill-opacity="1" stroke-width="0.708661" stroke-linecap="round" stroke-linejoin="round" stroke="rgb(0%, 0%, 0%)" stroke-opacity="1" stroke-miterlimit="10" d="M 379.046875 94.070312 C 379.046875 96.675781 375.140625 96.675781 375.140625 94.070312 C 375.140625 91.464844 379.046875 91.464844 379.046875 94.070312 "/>
<path fill-rule="nonzero" fill="rgb(0%, 0%, 0%)" fill-opacity="1" stroke-width="0.708661" stroke-linecap="round" stroke-linejoin="round" stroke="rgb(0%, 0%, 0%)" stroke-opacity="1" stroke-miterlimit="10" d="M 197.511719 99.65625 C 197.511719 102.261719 193.601562 102.261719 193.601562 99.65625 C 193.601562 97.046875 197.511719 97.046875 197.511719 99.65625 "/>
<path fill-rule="nonzero" fill="rgb(0%, 0%, 0%)" fill-opacity="1" stroke-width="0.708661" stroke-linecap="round" stroke-linejoin="round" stroke="rgb(0%, 0%, 0%)" stroke-opacity="1" stroke-miterlimit="10" d="M 137.007812 237.71875 C 137.007812 240.324219 133.097656 240.324219 133.097656 237.71875 C 133.097656 235.113281 137.007812 235.113281 137.007812 237.71875 "/>
<path fill-rule="nonzero" fill="rgb(0%, 0%, 0%)" fill-opacity="1" stroke-width="0.708661" stroke-linecap="round" stroke-linejoin="round" stroke="rgb(0%, 0%, 0%)" stroke-opacity="1" stroke-miterlimit="10" d="M 111.363281 263.445312 C 111.363281 266.050781 107.453125 266.050781 107.453125 263.445312 C 107.453125 260.839844 111.363281 260.839844 111.363281 263.445312 "/>
<path fill-rule="nonzero" fill="rgb(0%, 0%, 0%)" fill-opacity="1" stroke-width="0.708661" stroke-linecap="round" stroke-linejoin="round" stroke="rgb(0%, 0%, 0%)" stroke-opacity="1" stroke-miterlimit="10" d="M 203.871094 146.855469 C 203.871094 149.460938 199.960938 149.460938 199.960938 146.855469 C 199.960938 144.246094 203.871094 144.246094 203.871094 146.855469 "/>
<path fill-rule="nonzero" fill="rgb(0%, 0%, 0%)" fill-opacity="1" stroke-width="0.708661" stroke-linecap="round" stroke-linejoin="round" stroke="rgb(0%, 0%, 0%)" stroke-opacity="1" stroke-miterlimit="10" d="M 115.613281 128.066406 C 115.613281 130.675781 111.707031 130.675781 111.707031 128.066406 C 111.707031 125.460938 115.613281 125.460938 115.613281 128.066406 "/>
<path fill-rule="nonzero" fill="rgb(0%, 0%, 0%)" fill-opacity="1" stroke-width="0.708661" stroke-linecap="round" stroke-linejoin="round" stroke="rgb(0%, 0%, 0%)" stroke-opacity="1" stroke-miterlimit="10" d="M 232.183594 124.707031 C 232.183594 127.3125 228.273438 127.3125 228.273438 124.707031 C 228.273438 122.101562 232.183594 122.101562 232.183594 124.707031 "/>
<path fill-rule="nonzero" fill="rgb(0%, 0%, 0%)" fill-opacity="1" stroke-width="0.708661" stroke-linecap="round" stroke-linejoin="round" stroke="rgb(0%, 0%, 0%)" stroke-opacity="1" stroke-miterlimit="10" d="M 140.464844 208.019531 C 140.464844 210.628906 136.554688 210.628906 136.554688 208.019531 C 136.554688 205.414062 140.464844 205.414062 140.464844 208.019531 "/>
<path fill-rule="nonzero" fill="rgb(0%, 0%, 0%)" fill-opacity="1" stroke-width="0.708661" stroke-linecap="round" stroke-linejoin="round" stroke="rgb(0%, 0%, 0%)" stroke-opacity="1" stroke-miterlimit="10" d="M 89.65625 118.511719 C 89.65625 121.117188 85.746094 121.117188 85.746094 118.511719 C 85.746094 115.902344 89.65625 115.902344 89.65625 118.511719 "/>
<path fill-rule="nonzero" fill="rgb(0%, 0%, 0%)" fill-opacity="1" stroke-width="0.708661" stroke-linecap="round" stroke-linejoin="round" stroke="rgb(0%, 0%, 0%)" stroke-opacity="1" stroke-miterlimit="10" d="M 32.460938 232.292969 C 32.460938 234.898438 28.550781 234.898438 28.550781 232.292969 C 28.550781 229.683594 32.460938 229.683594 32.460938 232.292969 "/>
<path fill-rule="nonzero" fill="rgb(0%, 0%, 0%)" fill-opacity="1" stroke-width="0.708661" stroke-linecap="round" stroke-linejoin="round" stroke="rgb(0%, 0%, 0%)" stroke-opacity="1" stroke-miterlimit="10" d="M 295.203125 119.777344 C 295.203125 122.386719 291.292969 122.386719 291.292969 119.777344 C 291.292969 117.171875 295.203125 117.171875 295.203125 119.777344 "/>
<path fill-rule="nonzero" fill="rgb(0%, 0%, 0%)" fill-opacity="1" stroke-width="0.708661" stroke-linecap="round" stroke-linejoin="round" stroke="rgb(0%, 0%, 0%)" stroke-opacity="1" stroke-miterlimit="10" d="M 276.386719 155.34375 C 276.386719 157.953125 272.476562 157.953125 272.476562 155.34375 C 272.476562 152.738281 276.386719 152.738281 276.386719 155.34375 "/>
<path fill-rule="nonzero" fill="rgb(0%, 0%, 0%)" fill-opacity="1" stroke-width="0.708661" stroke-linecap="round" stroke-linejoin="round" stroke="rgb(0%, 0%, 0%)" stroke-opacity="1" stroke-miterlimit="10" d="M 94.269531 229.066406 C 94.269531 231.671875 90.359375 231.671875 90.359375 229.066406 C 90.359375 226.460938 94.269531 226.460938 94.269531 229.066406 "/>
<path fill-rule="nonzero" fill="rgb(0%, 0%, 0%)" fill-opacity="1" stroke-width="0.708661" stroke-linecap="round" stroke-linejoin="round" stroke="rgb(0%, 0%, 0%)" stroke-opacity="1" stroke-miterlimit="10" d="M 85.519531 189.015625 C 85.519531 191.621094 81.609375 191.621094 81.609375 189.015625 C 81.609375 186.410156 85.519531 186.410156 85.519531 189.015625 "/>
<path fill-rule="nonzero" fill="rgb(0%, 0%, 0%)" fill-opacity="1" stroke-width="0.708661" stroke-linecap="round" stroke-linejoin="round" stroke="rgb(0%, 0%, 0%)" stroke-opacity="1" stroke-miterlimit="10" d="M 163.238281 156.078125 C 163.238281 158.683594 159.328125 158.683594 159.328125 156.078125 C 159.328125 153.472656 163.238281 153.472656 163.238281 156.078125 "/>
<path fill-rule="nonzero" fill="rgb(0%, 0%, 0%)" fill-opacity="1" stroke-width="0.708661" stroke-linecap="round" stroke-linejoin="round" stroke="rgb(0%, 0%, 0%)" stroke-opacity="1" stroke-miterlimit="10" d="M 150.25 176.640625 C 150.25 179.246094 146.339844 179.246094 146.339844 176.640625 C 146.339844 174.03125 150.25 174.03125 150.25 176.640625 "/>
<path fill-rule="nonzero" fill="rgb(0%, 0%, 0%)" fill-opacity="1" stroke-width="0.708661" stroke-linecap="round" stroke-linejoin="round" stroke="rgb(0%, 0%, 0%)" stroke-opacity="1" stroke-miterlimit="10" d="M 156.683594 319.421875 C 156.683594 322.03125 152.773438 322.03125 152.773438 319.421875 C 152.773438 316.816406 156.683594 316.816406 156.683594 319.421875 "/>
<path fill-rule="nonzero" fill="rgb(0%, 0%, 0%)" fill-opacity="1" stroke-width="0.708661" stroke-linecap="round" stroke-linejoin="round" stroke="rgb(0%, 0%, 0%)" stroke-opacity="1" stroke-miterlimit="10" d="M 407.371094 201.859375 C 407.371094 204.464844 403.460938 204.464844 403.460938 201.859375 C 403.460938 199.25 407.371094 199.25 407.371094 201.859375 "/>
<path fill-rule="nonzero" fill="rgb(0%, 0%, 0%)" fill-opacity="1" stroke-width="0.708661" stroke-linecap="round" stroke-linejoin="round" stroke="rgb(0%, 0%, 0%)" stroke-opacity="1" stroke-miterlimit="10" d="M 394.789062 163.773438 C 394.789062 166.378906 390.878906 166.378906 390.878906 163.773438 C 390.878906 161.164062 394.789062 161.164062 394.789062 163.773438 "/>
<path fill-rule="nonzero" fill="rgb(0%, 0%, 0%)" fill-opacity="1" stroke-width="0.708661" stroke-linecap="round" stroke-linejoin="round" stroke="rgb(0%, 0%, 0%)" stroke-opacity="1" stroke-miterlimit="10" d="M 248.851562 278.835938 C 248.851562 281.445312 244.941406 281.445312 244.941406 278.835938 C 244.941406 276.230469 248.851562 276.230469 248.851562 278.835938 "/>
<path fill-rule="nonzero" fill="rgb(0%, 0%, 0%)" fill-opacity="1" stroke-width="0.708661" stroke-linecap="round" stroke-linejoin="round" stroke="rgb(0%, 0%, 0%)" stroke-opacity="1" stroke-miterlimit="10" d="M 270.554688 207.167969 C 270.554688 209.777344 266.644531 209.777344 266.644531 207.167969 C 266.644531 204.5625 270.554688 204.5625 270.554688 207.167969 "/>
<path fill-rule="nonzero" fill="rgb(0%, 0%, 0%)" fill-opacity="1" stroke-width="0.708661" stroke-linecap="round" stroke-linejoin="round" stroke="rgb(0%, 0%, 0%)" stroke-opacity="1" stroke-miterlimit="10" d="M 353.355469 213.695312 C 353.355469 216.300781 349.445312 216.300781 349.445312 213.695312 C 349.445312 211.089844 353.355469 211.089844 353.355469 213.695312 "/>
<path fill-rule="nonzero" fill="rgb(0%, 0%, 0%)" fill-opacity="1" stroke-width="0.708661" stroke-linecap="round" stroke-linejoin="round" stroke="rgb(0%, 0%, 0%)" stroke-opacity="1" stroke-miterlimit="10" d="M 176.019531 258.089844 C 176.019531 260.695312 172.109375 260.695312 172.109375 258.089844 C 172.109375 255.484375 176.019531 255.484375 176.019531 258.089844 "/>
<path fill-rule="nonzero" fill="rgb(0%, 0%, 0%)" fill-opacity="1" stroke-width="0.708661" stroke-linecap="round" stroke-linejoin="round" stroke="rgb(0%, 0%, 0%)" stroke-opacity="1" stroke-miterlimit="10" d="M 360.804688 162.136719 C 360.804688 164.742188 356.894531 164.742188 356.894531 162.136719 C 356.894531 159.527344 360.804688 159.527344 360.804688 162.136719 "/>
<path fill-rule="nonzero" fill="rgb(0%, 0%, 0%)" fill-opacity="1" stroke-width="0.708661" stroke-linecap="round" stroke-linejoin="round" stroke="rgb(0%, 0%, 0%)" stroke-opacity="1" stroke-miterlimit="10" d="M 232.632812 206.773438 C 232.632812 209.382812 228.722656 209.382812 228.722656 206.773438 C 228.722656 204.167969 232.632812 204.167969 232.632812 206.773438 "/>
<path fill-rule="nonzero" fill="rgb(0%, 0%, 0%)" fill-opacity="1" stroke-width="0.708661" stroke-linecap="round" stroke-linejoin="round" stroke="rgb(0%, 0%, 0%)" stroke-opacity="1" stroke-miterlimit="10" d="M 263.179688 227.339844 C 263.179688 229.949219 259.269531 229.949219 259.269531 227.339844 C 259.269531 224.734375 263.179688 224.734375 263.179688 227.339844 "/>
<path fill-rule="nonzero" fill="rgb(0%, 0%, 0%)" fill-opacity="1" stroke-width="0.708661" stroke-linecap="round" stroke-linejoin="round" stroke="rgb(0%, 0%, 0%)" stroke-opacity="1" stroke-miterlimit="10" d="M 374.28125 185.128906 C 374.28125 187.734375 370.371094 187.734375 370.371094 185.128906 C 370.371094 182.523438 374.28125 182.523438 374.28125 185.128906 "/>
<path fill-rule="nonzero" fill="rgb(0%, 0%, 0%)" fill-opacity="1" stroke-width="0.708661" stroke-linecap="round" stroke-linejoin="round" stroke="rgb(0%, 0%, 0%)" stroke-opacity="1" stroke-miterlimit="10" d="M 332.4375 169.078125 C 332.4375 171.683594 328.53125 171.683594 328.53125 169.078125 C 328.53125 166.472656 332.4375 166.472656 332.4375 169.078125 "/>
<path fill-rule="nonzero" fill="rgb(0%, 0%, 0%)" fill-opacity="1" stroke-width="0.708661" stroke-linecap="round" stroke-linejoin="round" stroke="rgb(0%, 0%, 0%)" stroke-opacity="1" stroke-miterlimit="10" d="M 300.332031 258.332031 C 300.332031 260.9375 296.421875 260.9375 296.421875 258.332031 C 296.421875 255.722656 300.332031 255.722656 300.332031 258.332031 "/>
<path fill-rule="nonzero" fill="rgb(0%, 0%, 0%)" fill-opacity="1" stroke-width="0.708661" stroke-linecap="round" stroke-linejoin="round" stroke="rgb(0%, 0%, 0%)" stroke-opacity="1" stroke-miterlimit="10" d="M 427.179688 214.660156 C 427.179688 217.265625 423.269531 217.265625 423.269531 214.660156 C 423.269531 212.050781 427.179688 212.050781 427.179688 214.660156 "/>
<path fill-rule="nonzero" fill="rgb(0%, 0%, 0%)" fill-opacity="1" stroke-width="0.708661" stroke-linecap="round" stroke-linejoin="round" stroke="rgb(0%, 0%, 0%)" stroke-opacity="1" stroke-miterlimit="10" d="M 299.613281 336.039062 C 299.613281 338.644531 295.703125 338.644531 295.703125 336.039062 C 295.703125 333.433594 299.613281 333.433594 299.613281 336.039062 "/>
<path fill-rule="nonzero" fill="rgb(0%, 0%, 0%)" fill-opacity="1" stroke-width="0.708661" stroke-linecap="round" stroke-linejoin="round" stroke="rgb(0%, 0%, 0%)" stroke-opacity="1" stroke-miterlimit="10" d="M 298.695312 192.917969 C 298.695312 195.523438 294.789062 195.523438 294.789062 192.917969 C 294.789062 190.308594 298.695312 190.308594 298.695312 192.917969 "/>
<path fill-rule="nonzero" fill="rgb(0%, 0%, 0%)" fill-opacity="1" stroke-width="0.708661" stroke-linecap="round" stroke-linejoin="round" stroke="rgb(0%, 0%, 0%)" stroke-opacity="1" stroke-miterlimit="10" d="M 299.335938 279.753906 C 299.335938 282.359375 295.425781 282.359375 295.425781 279.753906 C 295.425781 277.144531 299.335938 277.144531 299.335938 279.753906 "/>
<path fill-rule="nonzero" fill="rgb(0%, 0%, 0%)" fill-opacity="1" stroke-width="0.708661" stroke-linecap="round" stroke-linejoin="round" stroke="rgb(0%, 0%, 0%)" stroke-opacity="1" stroke-miterlimit="10" d="M 249.6875 303.699219 C 249.6875 306.304688 245.777344 306.304688 245.777344 303.699219 C 245.777344 301.09375 249.6875 301.09375 249.6875 303.699219 "/>
<path fill-rule="nonzero" fill="rgb(0%, 0%, 0%)" fill-opacity="1" stroke-width="0.708661" stroke-linecap="round" stroke-linejoin="round" stroke="rgb(0%, 0%, 0%)" stroke-opacity="1" stroke-miterlimit="10" d="M 235.515625 225.230469 C 235.515625 227.835938 231.609375 227.835938 231.609375 225.230469 C 231.609375 222.625 235.515625 222.625 235.515625 225.230469 "/>
<path fill-rule="nonzero" fill="rgb(0%, 0%, 0%)" fill-opacity="1" stroke-width="0.708661" stroke-linecap="round" stroke-linejoin="round" stroke="rgb(0%, 0%, 0%)" stroke-opacity="1" stroke-miterlimit="10" d="M 345.269531 247.703125 C 345.269531 250.308594 341.359375 250.308594 341.359375 247.703125 C 341.359375 245.097656 345.269531 245.097656 345.269531 247.703125 "/>
<path fill-rule="nonzero" fill="rgb(0%, 0%, 0%)" fill-opacity="1" stroke-width="0.708661" stroke-linecap="round" stroke-linejoin="round" stroke="rgb(0%, 0%, 0%)" stroke-opacity="1" stroke-miterlimit="10" d="M 410.519531 270.464844 C 410.519531 273.070312 406.613281 273.070312 406.613281 270.464844 C 406.613281 267.859375 410.519531 267.859375 410.519531 270.464844 "/>
<path fill-rule="nonzero" fill="rgb(0%, 0%, 0%)" fill-opacity="1" stroke-width="0.708661" stroke-linecap="round" stroke-linejoin="round" stroke="rgb(0%, 0%, 0%)" stroke-opacity="1" stroke-miterlimit="10" d="M 266.503906 270.332031 C 266.503906 272.941406 262.597656 272.941406 262.597656 270.332031 C 262.597656 267.726562 266.503906 267.726562 266.503906 270.332031 "/>
<path fill-rule="nonzero" fill="rgb(0%, 0%, 0%)" fill-opacity="1" stroke-width="0.708661" stroke-linecap="round" stroke-linejoin="round" stroke="rgb(0%, 0%, 0%)" stroke-opacity="1" stroke-miterlimit="10" d="M 415.679688 257.230469 C 415.679688 259.835938 411.769531 259.835938 411.769531 257.230469 C 411.769531 254.621094 415.679688 254.621094 415.679688 257.230469 "/>
<path fill-rule="nonzero" fill="rgb(0%, 0%, 0%)" fill-opacity="1" stroke-width="0.708661" stroke-linecap="round" stroke-linejoin="round" stroke="rgb(0%, 0%, 0%)" stroke-opacity="1" stroke-miterlimit="10" d="M 370.476562 280.683594 C 370.476562 283.289062 366.566406 283.289062 366.566406 280.683594 C 366.566406 278.074219 370.476562 278.074219 370.476562 280.683594 "/>
<path fill-rule="nonzero" fill="rgb(0%, 0%, 0%)" fill-opacity="1" stroke-width="0.708661" stroke-linecap="round" stroke-linejoin="round" stroke="rgb(0%, 0%, 0%)" stroke-opacity="1" stroke-miterlimit="10" d="M 201.636719 226.09375 C 201.636719 228.699219 197.726562 228.699219 197.726562 226.09375 C 197.726562 223.484375 201.636719 223.484375 201.636719 226.09375 "/>
<path fill-rule="nonzero" fill="rgb(0%, 0%, 0%)" fill-opacity="1" stroke-width="0.708661" stroke-linecap="round" stroke-linejoin="round" stroke="rgb(0%, 0%, 0%)" stroke-opacity="1" stroke-miterlimit="10" d="M 377.734375 236.171875 C 377.734375 238.777344 373.824219 238.777344 373.824219 236.171875 C 373.824219 233.566406 377.734375 233.566406 377.734375 236.171875 "/>
<path fill-rule="nonzero" fill="rgb(0%, 0%, 0%)" fill-opacity="1" stroke-width="0.708661" stroke-linecap="round" stroke-linejoin="round" stroke="rgb(0%, 0%, 0%)" stroke-opacity="1" stroke-miterlimit="10" d="M 324.074219 212.417969 C 324.074219 215.027344 320.164062 215.027344 320.164062 212.417969 C 320.164062 209.8125 324.074219 209.8125 324.074219 212.417969 "/>
<path fill-rule="nonzero" fill="rgb(0%, 0%, 0%)" fill-opacity="1" stroke-width="0.708661" stroke-linecap="round" stroke-linejoin="round" stroke="rgb(0%, 0%, 0%)" stroke-opacity="1" stroke-miterlimit="10" d="M 319.609375 239.230469 C 319.609375 241.835938 315.703125 241.835938 315.703125 239.230469 C 315.703125 236.621094 319.609375 236.621094 319.609375 239.230469 "/>
<path fill-rule="nonzero" fill="rgb(0%, 0%, 0%)" fill-opacity="1" stroke-width="0.708661" stroke-linecap="round" stroke-linejoin="round" stroke="rgb(0%, 0%, 0%)" stroke-opacity="1" stroke-miterlimit="10" d="M 35.179688 191.976562 C 35.179688 194.582031 31.269531 194.582031 31.269531 191.976562 C 31.269531 189.371094 35.179688 189.371094 35.179688 191.976562 "/>
</svg>
