<?xml version="1.0" encoding="UTF-8"?>
<svg xmlns="http://www.w3.org/2000/svg" xmlns:xlink="http://www.w3.org/1999/xlink" width="504" height="360" viewBox="0 0 504 360">
<defs>
<clipPath id="clip-0">
<path clip-rule="nonzero" d="M 8.21875 5.480469 L 498.519531 5.480469 L 498.519531 351.78125 L 8.21875 351.78125 Z M 8.21875 5.480469 "/>
</clipPath>
</defs>
<rect x="-50.4" y="-36" width="604.8" height="432" fill="rgb(100%, 100%, 100%)" fill-opacity="1"/>
<rect x="-50.4" y="-36" width="604.8" height="432" fill="rgb(100%, 100%, 100%)" fill-opacity="1"/>
<path fill="none" stroke-width="1.066978" stroke-linecap="round" stroke-linejoin="round" stroke="rgb(100%, 100%, 100%)" stroke-opacity="1" stroke-miterlimit="10" d="M 0 360 L 504 360 L 504 0 L 0 0 Z M 0 360 "/>
<g clip-path="url(#clip-0)">
<path fill-rule="nonzero" fill="rgb(92.156863%, 92.156863%, 92.156863%)" fill-opacity="1" d="M 8.21875 351.78125 L 498.519531 351.78125 L 498.519531 5.480469 L 8.21875 5.480469 Z M 8.21875 351.78125 "/>
</g>
<path fill="none" stroke-width="1.066978" stroke-linecap="butt" stroke-linejoin="round" stroke="rgb(0%, 0%, 0%)" stroke-opacity="1" stroke-miterlimit="1" d="M 293.621094 336.039062 L 292.554688 334.679688 L 291.488281 333.324219 L 290.417969 331.964844 L 287.21875 327.886719 L 286.148438 326.53125 L 282.949219 322.453125 L 281.878906 321.09375 L 280.8125 319.738281 L 278.679688 317.019531 L 277.609375 315.660156 L 276.542969 314.300781 L 275.476562 312.945312 L 274.410156 311.585938 L 273.339844 310.226562 L 271.207031 307.507812 L 270.136719 306.148438 L 269.070312 304.792969 L 266.9375 302.074219 L 265.867188 300.714844 L 264.800781 299.355469 L 263.734375 298 L 262.667969 296.640625 L 261.597656 295.28125 L 259.464844 292.5625 L 258.398438 291.207031 L 257.328125 289.847656 L 254.128906 285.769531 L 253.058594 284.414062 L 249.859375 280.335938 L 248.789062 278.976562 L 247.722656 277.621094 L 245.589844 274.902344 L 244.519531 273.542969 L 243.453125 272.183594 L 242.386719 270.828125 L 241.320312 269.46875 L 240.25 268.109375 L 238.117188 265.390625 L 237.050781 264.035156 L 235.980469 262.675781 L 233.847656 259.957031 L 232.777344 258.597656 L 231.710938 257.238281 L 230.644531 255.882812 L 229.578125 254.523438 L 228.507812 253.164062 L 226.375 250.445312 L 225.308594 249.089844 L 224.238281 247.730469 L 221.039062 243.652344 L 219.96875 242.296875 L 216.769531 238.21875 L 215.699219 236.859375 L 214.632812 235.503906 L 212.5 232.785156 L 211.429688 231.425781 L 210.363281 230.066406 L 209.296875 228.710938 L 208.230469 227.351562 L 207.160156 225.992188 L 205.027344 223.273438 L 203.960938 221.917969 L 202.890625 220.558594 L 199.691406 216.480469 L 198.621094 215.125 L 196.488281 212.40625 L 195.417969 211.046875 L 193.285156 208.328125 L 192.21875 206.972656 L 191.148438 205.613281 L 187.949219 201.535156 "/>
<path fill="none" stroke-width="1.066978" stroke-linecap="butt" stroke-linejoin="round" stroke="rgb(0%, 0%, 0%)" stroke-opacity="1" stroke-miterlimit="1" d="M 198.472656 205.757812 L 187.949219 201.535156 L 189.554688 212.761719 "/>
<path fill="none" stroke-width="1.066978" stroke-linecap="butt" stroke-linejoin="round" stroke="rgb(0%, 0%, 0%)" stroke-opacity="1" stroke-miterlimit="1" d="M 293.621094 336.039062 L 294.691406 332.304688 L 295.230469 330.441406 L 298.441406 319.238281 L 298.980469 317.371094 L 299.515625 315.503906 L 300.050781 313.640625 L 301.65625 308.039062 L 302.195312 306.171875 L 303.800781 300.570312 L 304.335938 298.707031 L 305.40625 294.972656 L 305.945312 293.105469 L 308.085938 285.636719 L 308.621094 283.773438 L 309.15625 281.90625 L 309.695312 280.039062 L 312.90625 268.835938 L 313.445312 266.972656 L 316.65625 255.769531 L 317.195312 253.902344 L 317.730469 252.039062 L 320.40625 242.703125 L 320.945312 240.835938 L 322.015625 237.101562 L 322.550781 235.238281 L 324.15625 229.636719 L 324.695312 227.769531 L 326.300781 222.167969 L 326.835938 220.304688 L 327.371094 218.4375 L 327.910156 216.570312 L 331.121094 205.367188 L 331.660156 203.503906 L 334.871094 192.300781 L 335.410156 190.433594 L 335.945312 188.570312 L 338.621094 179.234375 L 339.160156 177.367188 L 340.230469 173.632812 L 340.765625 171.769531 L 342.371094 166.167969 L 342.910156 164.300781 L 344.515625 158.699219 L 345.050781 156.835938 L 346.121094 153.101562 L 346.660156 151.234375 "/>
<path fill="none" stroke-width="1.066978" stroke-linecap="butt" stroke-linejoin="round" stroke="rgb(0%, 0%, 0%)" stroke-opacity="1" stroke-miterlimit="1" d="M 349.398438 162.234375 L 346.660156 151.234375 L 338.5 159.109375 "/>
<path fill="none" stroke-width="1.066978" stroke-linecap="butt" stroke-linejoin="round" stroke="rgb(0%, 0%, 0%)" stroke-opacity="1" stroke-miterlimit="1" d="M 187.949219 201.535156 L 191.152344 200.519531 L 192.757812 200.011719 L 194.359375 199.503906 L 195.964844 198.996094 L 197.566406 198.488281 L 199.171875 197.980469 L 202.375 196.964844 L 203.980469 196.457031 L 205.582031 195.949219 L 207.1875 195.441406 L 208.789062 194.929688 L 210.390625 194.421875 L 211.996094 193.914062 L 213.597656 193.40625 L 215.203125 192.898438 L 218.40625 191.882812 L 220.011719 191.375 L 221.613281 190.867188 L 223.21875 190.359375 L 226.421875 189.34375 L 228.027344 188.835938 L 229.628906 188.324219 L 231.234375 187.816406 L 234.4375 186.800781 L 236.042969 186.292969 L 237.644531 185.785156 L 239.25 185.277344 L 242.453125 184.261719 L 244.058594 183.753906 L 245.660156 183.246094 L 247.265625 182.738281 L 248.867188 182.230469 L 250.46875 181.71875 L 252.074219 181.210938 L 253.675781 180.703125 L 255.28125 180.195312 L 258.484375 179.179688 L 260.089844 178.671875 L 261.691406 178.164062 L 263.296875 177.65625 L 266.5 176.640625 L 268.105469 176.132812 L 269.707031 175.625 L 271.3125 175.113281 L 274.515625 174.097656 L 276.121094 173.589844 L 277.722656 173.082031 L 279.328125 172.574219 L 282.53125 171.558594 L 284.136719 171.050781 L 285.738281 170.542969 L 287.34375 170.035156 L 288.945312 169.527344 L 290.550781 169.019531 L 292.152344 168.507812 L 293.753906 168 L 295.359375 167.492188 L 296.960938 166.984375 L 298.566406 166.476562 L 301.769531 165.460938 L 303.375 164.953125 L 304.976562 164.445312 L 306.582031 163.9375 L 309.785156 162.921875 L 311.390625 162.414062 L 312.992188 161.902344 L 314.597656 161.394531 L 317.800781 160.378906 L 319.40625 159.871094 L 321.007812 159.363281 L 322.613281 158.855469 L 325.816406 157.839844 L 327.421875 157.332031 L 329.023438 156.824219 L 330.628906 156.316406 L 332.230469 155.808594 L 333.832031 155.296875 L 335.4375 154.789062 L 337.039062 154.28125 L 338.644531 153.773438 L 341.847656 152.757812 L 343.453125 152.25 L 345.054688 151.742188 L 346.660156 151.234375 "/>
<path fill="none" stroke-width="1.066978" stroke-linecap="butt" stroke-linejoin="round" stroke="rgb(0%, 0%, 0%)" stroke-opacity="1" stroke-miterlimit="1" d="M 339.011719 159.605469 L 346.660156 151.234375 L 335.585938 148.796875 "/>
<path fill="none" stroke-width="1.066978" stroke-linecap="butt" stroke-linejoin="round" stroke="rgb(0%, 0%, 0%)" stroke-opacity="1" stroke-miterlimit="1" d="M 187.949219 201.535156 L 186.359375 201.140625 L 184.765625 200.746094 L 183.175781 200.351562 L 181.585938 199.960938 L 173.636719 197.988281 L 172.042969 197.59375 L 160.914062 194.832031 L 159.320312 194.4375 L 148.191406 191.675781 L 146.597656 191.28125 L 135.46875 188.519531 L 133.875 188.125 L 122.746094 185.363281 L 121.152344 184.96875 L 110.023438 182.207031 L 108.429688 181.8125 L 95.710938 178.65625 L 94.117188 178.261719 L 82.988281 175.5 L 81.394531 175.105469 L 78.214844 174.316406 L 76.625 173.925781 L 70.265625 172.347656 L 68.671875 171.953125 L 57.542969 169.191406 L 55.949219 168.796875 L 44.820312 166.035156 L 43.226562 165.640625 L 32.097656 162.878906 L 30.503906 162.484375 "/>
<path fill="none" stroke-width="1.066978" stroke-linecap="butt" stroke-linejoin="round" stroke="rgb(0%, 0%, 0%)" stroke-opacity="1" stroke-miterlimit="1" d="M 41.402344 159.34375 L 30.503906 162.484375 L 38.671875 170.351562 "/>
<path fill="none" stroke-width="1.066978" stroke-linecap="butt" stroke-linejoin="round" stroke="rgb(0%, 0%, 0%)" stroke-opacity="1" stroke-miterlimit="1" d="M 346.660156 151.234375 L 347.96875 149.921875 L 349.277344 148.605469 L 355.820312 142.042969 L 357.128906 140.726562 L 362.363281 135.476562 L 363.671875 134.160156 L 364.984375 132.847656 L 368.910156 128.910156 L 370.21875 127.59375 L 375.453125 122.34375 L 376.761719 121.027344 L 381.996094 115.777344 L 383.304688 114.460938 L 384.613281 113.148438 L 385.925781 111.835938 L 388.542969 109.210938 L 389.851562 107.894531 L 395.085938 102.644531 L 396.394531 101.328125 L 401.628906 96.078125 L 402.9375 94.761719 L 404.246094 93.449219 L 405.558594 92.136719 L 408.175781 89.511719 L 409.484375 88.195312 L 414.71875 82.945312 L 416.027344 81.628906 L 421.261719 76.378906 L 422.570312 75.0625 L 425.1875 72.4375 L 426.5 71.125 L 429.117188 68.5 L 430.425781 67.183594 L 435.660156 61.933594 L 436.96875 60.617188 L 442.203125 55.367188 L 443.511719 54.050781 L 446.128906 51.425781 L 447.441406 50.113281 L 448.75 48.800781 L 450.058594 47.484375 L 455.292969 42.234375 L 456.601562 40.917969 L 461.835938 35.667969 L 463.144531 34.351562 L 467.070312 30.414062 L 468.382812 29.101562 L 469.691406 27.785156 L 474.925781 22.535156 L 476.234375 21.21875 "/>
<path fill="none" stroke-width="1.066978" stroke-linecap="butt" stroke-linejoin="round" stroke="rgb(0%, 0%, 0%)" stroke-opacity="1" stroke-miterlimit="1" d="M 473.316406 32.175781 L 476.234375 21.21875 L 465.285156 24.171875 "/>
<path fill-rule="nonzero" fill="rgb(0%, 0%, 0%)" fill-opacity="1" stroke-width="0.708661" stroke-linecap="round" stroke-linejoin="round" stroke="rgb(0%, 0%, 0%)" stroke-opacity="1" stroke-miterlimit="10" d="M 299.3125 336.039062 C 299.3125 339.183594 296.765625 341.730469 293.621094 341.730469 C 290.480469 341.730469 287.933594 339.183594 287.933594 336.039062 C 287.933594 332.898438 290.480469 330.351562 293.621094 330.351562 C 296.765625 330.351562 299.3125 332.898438 299.3125 336.039062 "/>
<path fill-rule="nonzero" fill="rgb(0%, 0%, 0%)" fill-opacity="1" stroke-width="0.708661" stroke-linecap="round" stroke-linejoin="round" stroke="rgb(0%, 0%, 0%)" stroke-opacity="1" stroke-miterlimit="10" d="M 193.636719 201.535156 C 193.636719 204.679688 191.089844 207.226562 187.949219 207.226562 C 184.804688 207.226562 182.257812 204.679688 182.257812 201.535156 C 182.257812 198.394531 184.804688 195.847656 187.949219 195.847656 C 191.089844 195.847656 193.636719 198.394531 193.636719 201.535156 "/>
<path fill-rule="nonzero" fill="rgb(0%, 0%, 0%)" fill-opacity="1" stroke-width="0.708661" stroke-linecap="round" stroke-linejoin="round" stroke="rgb(0%, 0%, 0%)" stroke-opacity="1" stroke-miterlimit="10" d="M 352.347656 151.234375 C 352.347656 154.375 349.800781 156.921875 346.660156 156.921875 C 343.515625 156.921875 340.96875 154.375 340.96875 151.234375 C 340.96875 148.09375 343.515625 145.542969 346.660156 145.542969 C 349.800781 145.542969 352.347656 148.09375 352.347656 151.234375 "/>
<path fill-rule="nonzero" fill="rgb(0%, 0%, 0%)" fill-opacity="1" stroke-width="0.708661" stroke-linecap="round" stroke-linejoin="round" stroke="rgb(0%, 0%, 0%)" stroke-opacity="1" stroke-miterlimit="10" d="M 36.195312 162.484375 C 36.195312 165.625 33.648438 168.171875 30.503906 168.171875 C 27.363281 168.171875 24.816406 165.625 24.816406 162.484375 C 24.816406 159.34375 27.363281 156.796875 30.503906 156.796875 C 33.648438 156.796875 36.195312 159.34375 36.195312 162.484375 "/>
<path fill-rule="nonzero" fill="rgb(0%, 0%, 0%)" fill-opacity="1" stroke-width="0.708661" stroke-linecap="round" stroke-linejoin="round" stroke="rgb(0%, 0%, 0%)" stroke-opacity="1" stroke-miterlimit="10" d="M 481.921875 21.21875 C 481.921875 24.363281 479.375 26.910156 476.234375 26.910156 C 473.09375 26.910156 470.542969 24.363281 470.542969 21.21875 C 470.542969 18.078125 473.09375 15.53125 476.234375 15.53125 C 479.375 15.53125 481.921875 18.078125 481.921875 21.21875 "/>
</svg>
